<svg width="136" height="136" viewBox="0 0 136 136" fill="none" xmlns="http://www.w3.org/2000/svg">
<g id="ei:arrow-down">
<path id="Vector" d="M69.5 117C46.5529 117 28 98.4471 28 75.5C28 52.5529 46.5529 34 69.5 34C92.4471 34 111 52.5529 111 75.5C111 98.4471 92.4471 117 69.5 117ZM69.5 38.8824C49.2382 38.8824 32.8824 55.2382 32.8824 75.5C32.8824 95.7618 49.2382 112.118 69.5 112.118C89.7618 112.118 106.118 95.7618 106.118 75.5C106.118 55.2382 89.7618 38.8824 69.5 38.8824Z" fill="black"/>
<path id="Vector_2" d="M69.5 99L46 75.4054L49.3918 72L69.5 92.1892L89.6082 72L93 75.4054L69.5 99Z" fill="black"/>
<path id="Vector_3" d="M67 54H71V95H67V54Z" fill="black"/>
</g>
</svg>
