<svg width="211" height="161" viewBox="0 0 211 161" fill="none" xmlns="http://www.w3.org/2000/svg">
<g id="Group 183">
<g id="Group 182">
<g id="Group 155">
<g id="Group 144">
<path id="Vector" d="M90.3368 89.2812C92.2716 89.2812 93.84 87.7912 93.84 85.9531C93.84 84.115 92.2716 82.625 90.3368 82.625C88.402 82.625 86.8335 84.115 86.8335 85.9531C86.8335 87.7912 88.402 89.2812 90.3368 89.2812Z" fill="#1B1B1B"/>
<path id="Vector_2" d="M121.342 89.2829C123.18 89.2829 124.67 87.7928 124.67 85.9548C124.67 84.1167 123.18 82.6267 121.342 82.6267C119.504 82.6267 118.014 84.1167 118.014 85.9548C118.014 87.7928 119.504 89.2829 121.342 89.2829Z" fill="#1B1B1B"/>
<path id="Vector_3" d="M105.931 128.867C107.769 128.867 109.259 127.377 109.259 125.539C109.259 123.701 107.769 122.211 105.931 122.211C104.093 122.211 102.603 123.701 102.603 125.539C102.603 127.377 104.093 128.867 105.931 128.867Z" fill="#1B1B1B"/>
<path id="Vector_4" d="M28.3296 108.198H50.7505" stroke="#1B1B1B" stroke-width="0.31676" stroke-miterlimit="10"/>
<path id="Vector_5" d="M28.3296 117.66H50.7505" stroke="#1B1B1B" stroke-width="0.31676" stroke-miterlimit="10"/>
<path id="Vector_6" d="M160.752 108.198H183.173" stroke="#1B1B1B" stroke-width="0.31676" stroke-miterlimit="10"/>
<path id="Vector_7" d="M160.752 117.658H183.173" stroke="#1B1B1B" stroke-width="0.31676" stroke-miterlimit="10"/>
</g>
</g>
<g id="Group">
<g id="Group_2">
<path id="Vector_8" d="M135.79 3.76039C135.79 3.76039 136.645 3.22594 136.663 3.26157C136.699 3.33283 134.935 5.70222 134.988 5.77348C135.024 5.82693 137.144 4.45517 137.18 4.50862C137.251 4.63332 133.706 8.65951 133.777 8.78421C133.831 8.8911 137.875 6.29012 137.928 6.37919C137.999 6.5039 134.222 10.6192 134.294 10.7439C134.383 10.9042 137.643 8.60606 137.732 8.74858C137.785 8.83766 134.935 11.5633 134.988 11.6524C135.095 11.8306 135.915 10.8864 136.022 11.0645C136.093 11.1892 131.408 14.7879 131.479 14.9126C131.604 15.1263 137.18 11.3496 137.304 11.5455C137.429 11.7415 130.713 17.7095 130.82 17.9055C130.962 18.1727 139.745 12.4007 139.888 12.6679C140.012 12.8817 131.479 18.4399 131.604 18.6537C131.764 18.9387 135.826 15.8211 136.004 16.124C136.057 16.1952 133.403 18.6715 133.456 18.7606C133.635 19.0813 139.139 15.0551 139.318 15.3758C139.407 15.5361 133.741 20.1324 133.831 20.2927C134.026 20.649 138.16 17.3176 138.356 17.6739C138.462 17.852 132.192 23.1965 132.281 23.3747C132.512 23.7666 136.342 20.5065 136.574 20.8984C136.717 21.1478 127.239 27.3296 127.381 27.579C127.631 28.0066 141.295 18.9744 141.544 19.4019C141.723 19.7048 130.588 27.4721 130.766 27.775C131.034 28.2382 140.03 21.7891 140.297 22.2701C140.511 22.6443 126.01 31.3736 126.224 31.7299C126.509 32.2287 138.783 23.8022 139.086 24.3011" stroke="white" stroke-width="1.97624" stroke-linecap="round" stroke-linejoin="round"/>
<path id="Vector_9" d="M24.5132 57.1371C24.8517 57.7072 43.0408 45.6643 43.3793 46.2522C43.6821 46.7688 22.5535 58.6692 22.8564 59.2037C23.3374 60.0232 50.7191 42.0122 51.1822 42.8495C51.7167 43.7759 14.8397 64.7798 15.3741 65.6883C16.3362 67.3451 76.2479 28.3303 77.2099 29.9871C78.1719 31.6439 12.6485 66.971 13.5926 68.5743C14.6081 70.3202 78.8311 28.5797 79.8465 30.3256C80.862 32.0715 12.3278 69.0019 13.2898 70.6943C14.3408 72.5115 80.381 29.5239 81.432 31.3411C82.4831 33.1582 5.9322 74.6493 7.01892 76.5376C8.10563 78.426 78.5461 32.7128 79.6328 34.619C80.7195 36.5252 5.18399 77.4106 6.25288 79.2811C7.32178 81.1517 77.3881 35.6166 78.5104 37.5585C79.5793 39.4112 4.86328 80.4035 5.93217 82.2562C7.16141 84.394 83.6411 34.5477 84.8704 36.6855C85.9927 38.6274 7.05453 81.793 8.17688 83.7349C9.49519 86.033 87.9701 34.6012 89.2885 36.8993C90.6068 39.1975 1.4428 87.4938 2.70767 89.6851C4.11505 92.1257 93.3146 34.1024 94.7398 36.5608C96.0581 38.8412 2.90364 88.83 4.22195 91.1103C5.70059 93.6578 97.1983 34.0311 98.677 36.5787C100.031 38.9302 4.04381 89.5426 5.39775 91.8941C6.91202 94.5129 104.734 31.056 106.248 33.6748C107.763 36.2936 5.71844 89.7207 7.14363 92.2148C8.69354 94.8871 101.705 34.0489 103.255 36.7212C104.698 39.2331 2.20885 93.0165 3.65186 95.5106C5.23739 98.2363 103.932 33.9777 105.518 36.7034C106.979 39.2331 3.84786 94.7624 5.30869 97.3099C6.94767 100.142 113.25 31.1985 114.889 34.0489C116.528 36.8993 5.66497 95.564 7.23269 98.2719C8.90729 101.176 112.056 33.8708 113.748 36.7746C115.441 39.6785 1.95946 99.804 3.56281 102.583C5.29086 105.576 117.846 32.6059 119.574 35.5988C121.302 38.5917 3.91911 100.784 5.57591 103.652C7.62463 107.197 137.478 22.7721 139.527 26.3172C141.575 29.8624 1.83478 103.028 3.81224 106.449C5.7897 109.869 141.771 22.0595 143.82 25.6046C145.869 29.1498 5.77187 102.031 7.74934 105.434C9.7268 108.836 140.4 24.1082 142.448 27.6534C144.497 31.1985 5.87878 104.24 7.82061 107.625C9.86933 111.188 143.143 24.7495 145.192 28.3125C147.241 31.8755 5.29087 107.322 7.30396 110.796C9.31705 114.27 139.847 29.5239 141.896 33.0869C143.838 36.4539 5.62934 108.426 7.57118 111.793C9.6199 115.356 139.527 30.86 141.575 34.423C143.517 37.7723 6.52009 110.012 8.46192 113.361C10.5106 116.906 144.64 30.0049 146.706 33.5501C148.773 37.0953 10.0118 109.567 11.9536 112.951C13.8955 116.336 146.047 30.8066 148.096 34.3518C150.144 37.897 9.79804 112.168 11.7933 115.606C13.7886 119.044 143.232 34.9931 145.263 38.5383C147.294 42.0835 9.26361 114.43 11.2054 117.797C13.2542 121.342 146.724 34.8506 148.755 38.378C150.786 41.9053 11.0807 115.374 13.0404 118.795C15 122.215 146.011 37.3091 148.042 40.8542C150.073 44.3994 12.7732 116.871 14.715 120.22C16.7637 123.765 149.77 37.5229 151.819 41.068C153.868 44.6132 14.8931 117.263 16.8528 120.648C18.9193 124.211 149.414 39.3578 151.463 42.9208C153.511 46.4838 12.4168 121.645 14.4121 125.101C16.4074 128.557 155.649 38.7521 157.734 42.3507C159.818 45.9493 18.4918 120.309 20.487 123.765C22.5892 127.399 152.852 42.511 154.937 46.1453C156.896 49.5301 18.848 122.963 20.8077 126.348C22.9277 130 155.649 43.6156 157.751 47.2855C159.854 50.9553 17.8861 126.099 19.8992 129.573C22.0191 133.261 159.248 44.2035 161.368 47.8912C163.345 51.3116 22.8386 124.602 24.8161 128.041C26.9539 131.728 162.615 43.5621 164.753 47.2498C166.891 50.9375 19.8279 127.506 21.9122 131.105C23.9966 134.704 165.269 43.4018 167.407 47.1073C169.545 50.8128 24.2995 126.063 26.3482 129.591C28.3969 133.118 164.913 44.6488 167.051 48.3544C169.189 52.0599 23.2306 129.626 25.2971 133.207C27.3636 136.788 164.343 47.9624 166.481 51.6858C168.494 55.1775 25.6178 130.624 27.6309 134.116C29.7865 137.857 168.262 47.9446 170.418 51.6679C172.449 55.1953 28.8779 131.515 30.9088 135.042C33.0644 138.783 169.438 50.0824 171.594 53.8236C173.607 57.3153 31.4967 133.1 33.5098 136.592C35.6654 140.333 172.752 51.2047 174.907 54.9459C177.063 58.687 29.8221 136.236 31.9064 139.852C33.9908 143.468 177.651 50.7059 179.824 54.4649C181.998 58.2239 34.4718 135.861 36.5561 139.46C38.6405 143.059 177.455 53.1288 179.628 56.8699C181.802 60.6111 33.5632 139.086 35.6654 142.72C37.7675 146.355 179.129 54.9103 181.285 58.6336C183.441 62.3569 37.3935 138.854 39.4422 142.417C41.4909 145.98 179.201 56.7452 181.356 60.4863C183.334 63.9246 42.827 137.857 44.8223 141.277C46.9601 145.001 179.895 58.3307 182.033 62.0541C184.011 65.4745 43.8069 138.926 45.7843 142.346C47.9221 146.052 183.298 58.0101 185.436 61.7156C187.449 65.2073 45.0717 140.476 47.0848 143.967C49.2226 147.655 187.805 57.7963 189.943 61.484C192.081 65.1717 44.2344 142.685 46.3187 146.283C48.4031 149.882 186.273 60.5754 188.393 64.2631C190.388 67.7192 49.4542 142.293 51.4495 145.749C53.5694 149.401 187.431 62.3569 189.533 66.0268C191.493 69.4295 52.5183 143.326 54.478 146.729C56.5801 150.363 188.607 64.4591 190.691 68.0755C192.651 71.4782 53.2487 144.769 55.2084 148.189C57.2927 151.806 191.903 64.4591 193.969 68.0755C196.036 71.692 53.8901 146.515 55.9032 149.989C57.9163 153.463 192.312 66.4544 194.397 70.0352C196.339 73.3844 58.8961 144.965 60.8379 148.314C62.9045 151.877 190.709 68.5743 192.758 72.1552C194.682 75.4866 57.9697 147.103 59.8937 150.452C61.9425 153.997 195.002 67.7192 197.033 71.2644C199.064 74.8096 57.7203 148.849 59.7156 152.305C61.7109 155.761 195.662 69.1266 197.693 72.6362C199.599 75.9497 64.0446 146.925 65.9508 150.238C67.9639 153.73 192.936 72.262 194.949 75.7538C196.837 79.0139 62.9045 148.902 64.7929 152.18C66.7881 155.654 193.738 73.1172 195.733 76.5733C197.568 79.7443 67.6077 148.118 69.4426 151.289C71.4201 154.728 197.301 72.8856 199.278 76.3239C201.131 79.5484 69.407 148.777 71.2597 152.002C73.2194 155.405 196.303 75.2728 198.28 78.6754C200.115 81.8465 70.4046 149.579 72.2395 152.75C74.1813 156.117 199.902 74.5424 201.843 77.9272C203.678 81.1161 73.255 149.632 75.1078 152.821C76.9605 156.01 197.39 77.7669 199.314 81.1161C201.077 84.1624 76.2479 150.042 78.0116 153.106C79.9178 156.402 196.784 80.1363 198.69 83.432C200.436 86.4606 76.7823 152.465 78.546 155.494C80.4166 158.718 200.454 80.8132 202.324 84.0377C204.035 86.995 83.8015 151.147 85.5117 154.086C87.3288 157.239 199.991 83.7883 201.808 86.9416C203.465 89.8098 86.545 152.518 88.2018 155.387C89.9833 158.469 200.632 86.3715 202.414 89.4535C204.017 92.2326 90.8384 152.162 92.4239 154.941C94.1698 157.952 200.08 88.7765 201.808 91.7873C203.429 94.5842 89.4844 155.244 91.0878 158.041C92.7802 160.981 205.781 87.9036 207.491 90.8431C209.201 93.7825 93.1543 154.603 94.7933 157.453C96.4322 160.304 206.279 89.2397 207.954 92.1257C209.629 95.0118 97.3943 154.318 98.9798 157.061C100.565 159.805 201.077 94.3704 202.699 97.1852C204.159 99.6971 101.527 154.496 102.988 157.008C104.556 159.734 204.676 94.6733 206.244 97.399C207.812 100.125 102.133 155.761 103.63 158.344C105.126 160.927 201.647 98.2363 203.162 100.873C204.533 103.242 107.887 155.066 109.259 157.435C110.72 159.983 206.137 98.1116 207.598 100.659C209.059 103.207 110.007 155.903 111.415 158.344C112.822 160.785 204.925 101.104 206.333 103.545C207.669 105.843 113.446 155.707 114.782 158.006C116.118 160.304 203.572 103.616 204.926 105.968C206.101 108.017 122.852 153.213 124.045 155.262C125.31 157.471 200.044 108.444 201.309 110.653C202.431 112.595 123.155 155.066 124.277 157.026C125.489 159.11 201.202 109.834 202.396 111.918C203.411 113.682 132.187 152.697 133.202 154.46C134.307 156.367 197.586 114.733 198.69 116.657C199.563 118.189 138.084 152.625 138.957 154.157C139.919 155.832 196.232 118.848 197.212 120.523C197.96 121.805 145.887 150.577 146.635 151.859C147.49 153.338 198.815 119.775 199.67 121.235C200.365 122.447 151.57 149.33 152.282 150.541C152.995 151.752 191.564 126.188 192.277 127.453C192.722 128.219 162.65 146.622 163.096 147.388C163.541 148.154 186.184 132.993 186.629 133.795" stroke="white" stroke-width="1.97624" stroke-linecap="round" stroke-linejoin="round"/>
<path id="Vector_10" d="M69.8056 3.76205C69.8056 3.76205 70.6608 3.2276 70.6786 3.26323C70.732 3.37012 68.3092 7.21816 68.3804 7.30723C68.4339 7.37849 71.5337 5.38322 71.5693 5.47229C71.6406 5.61481 67.2403 9.81914 67.3115 9.94385C67.3828 10.0686 72.1572 6.98656 72.2285 7.11127C72.2819 7.20034 69.4137 10.0686 69.4671 10.1576C69.5562 10.318 70.7142 9.23125 70.8032 9.39158C70.8389 9.44503 70.3044 12.1707 70.3401 12.2242C70.4648 12.4379 70.5716 11.8144 70.6963 12.0282C70.7498 12.1173 67.6144 14.8786 67.6678 14.9677C67.8104 15.1993 70.7142 12.9011 70.8567 13.1327C70.9636 13.3109 64.283 18.6554 64.3899 18.8335C64.5502 19.1007 71.3733 14.4332 71.5337 14.7004C71.6584 14.9142 63.8376 21.1673 63.9623 21.3811C64.1583 21.7017 71.0349 16.8561 71.2308 17.1945C71.3199 17.3371 66.6524 21.9868 66.7236 22.1293C66.9374 22.5034 72.7629 18.1387 72.9767 18.5129C73.1548 18.8335 60.8625 26.8859 61.0407 27.2066C61.2723 27.6163 75.2035 18.4772 75.4351 18.887C75.6133 19.2076 63.6238 27.6697 63.802 27.9904C64.0692 28.4536 71.9612 22.6637 72.2285 23.1269C72.371 23.3585 63.4813 29.4156 63.606 29.6472C63.8911 30.146 71.8543 24.2136 72.1394 24.7125C72.3175 25.0153 61.1653 33.2102 61.3435 33.5131C61.6642 34.0653 76.5218 24.0177 76.8247 24.5699C77.1276 25.0866 56.9075 37.3255 57.2104 37.8421C57.5489 38.43 79.0694 24.4274 79.4079 25.0153" stroke="white" stroke-width="1.97624" stroke-linecap="round" stroke-linejoin="round"/>
<path id="Vector_11" d="M70.6724 5.34592C70.6724 5.34592 72.0619 4.4908 72.0975 4.52643C72.1332 4.59769 71.5809 7.5906 71.6166 7.64405C71.6344 7.67968 73.0061 6.78893 73.0417 6.82456C73.0774 6.89582 72.4895 9.79966 72.5251 9.87092C72.5429 9.90655 73.9325 9.0158 73.9503 9.05143C73.9859 9.10488 72.9705 10.9754 72.9883 11.0289C73.0061 11.0645 74.3956 10.1738 74.4135 10.2094C74.4491 10.2628 73.4515 12.1691 73.4693 12.2225C73.4871 12.2581 74.8767 11.3674 74.8945 11.403C74.9301 11.4565 74.1997 14.0574 74.2354 14.1287C74.2532 14.1643 75.6427 13.2736 75.6605 13.3092C75.6962 13.3627 74.7164 15.3401 74.7342 15.3757C74.752 15.4114 76.1415 14.5206 76.1594 14.5563C76.195 14.6275 75.5536 17.4423 75.5893 17.5135C75.6071 17.5492 76.9967 16.6584 77.0145 16.6941C77.0501 16.7653 76.3553 19.4732 76.4088 19.5266C76.4266 19.5623 77.8161 18.6715 77.834 18.7071C77.8696 18.7784 77.2461 21.6466 77.2817 21.7179C77.2995 21.7535 78.6891 20.8628 78.7069 20.8984C78.7425 20.9518 77.8696 23.2143 77.9052 23.2678C77.9231 23.3034 79.3126 22.4127 79.3304 22.4483C79.3482 22.4839 78.2437 24.1229 78.2615 24.1763C78.2793 24.212 79.6689 23.3212 79.6867 23.3569C79.7224 23.4281 79.0454 26.1716 79.081 26.2429C79.0988 26.2785 80.4884 25.3878 80.524 25.4234C80.5597 25.4947 79.9718 28.4519 80.0074 28.5054C80.0252 28.541 81.4148 27.6325 81.4504 27.6681C81.486 27.7393 80.8625 30.6076 80.8981 30.6788C80.916 30.7144 82.3233 29.8059 82.3411 29.8415C82.3768 29.895 81.4326 32.0149 81.4682 32.0684C81.486 32.104 82.8934 31.1954 82.9112 31.2311C82.9469 31.2845 81.9848 33.3332 82.0027 33.3867C82.0205 33.4223 83.4279 32.5138 83.4457 32.5494C83.4813 32.6206 83.3744 35.471 83.4101 35.5245C83.4635 35.6136 86.8127 33.4401 86.8662 33.5292C86.884 33.5648 87.5253 34.99 87.5431 35.0257C87.5966 35.1147 90.7498 33.066 90.7854 33.1551C90.8032 33.1907 90.1619 34.7406 90.1797 34.7763C90.2332 34.8475 93.1726 32.9413 93.2261 33.0126C93.2439 33.0482 94.6157 34.4021 94.6335 34.4378C94.6691 34.509 97.5908 32.6206 97.6442 32.7097C97.662 32.7454 98.4815 34.2062 98.4993 34.2418C98.535 34.3131 101.35 32.4959 101.385 32.5672C101.421 32.6206 102.9 34.0637 102.935 34.1171C102.971 34.1884 105.643 32.4603 105.679 32.5316C105.697 32.5672 106.053 34.0637 106.088 34.0993C106.124 34.1705 108.707 32.4959 108.743 32.5672C108.761 32.6028 109.117 34.0993 109.135 34.1349C109.171 34.2062 111.647 32.6028 111.682 32.6563C111.7 32.6919 112.591 34.2062 112.627 34.2596C112.662 34.3131 115.067 32.7632 115.103 32.8344C115.121 32.8701 115.53 34.3843 115.548 34.42C115.584 34.4734 117.935 32.9591 117.971 33.0126C117.989 33.0482 117.205 34.4912 117.223 34.5268C117.258 34.5803 119.61 33.066 119.646 33.1373C119.664 33.1729 120.145 34.7406 120.162 34.7763C120.198 34.8297 122.567 33.2976 122.603 33.3689C122.621 33.4045 121.819 34.901 121.837 34.9366C121.873 35.0079 124.759 33.1373 124.812 33.2264" stroke="#1B1B1B" stroke-width="1.97624" stroke-linecap="round" stroke-linejoin="round"/>
<path id="Vector_12" d="M135.793 1.51932C135.793 1.51932 136.648 0.984874 136.666 1.0205C136.719 1.10958 134.475 4.5835 134.528 4.67257C134.564 4.74383 137.414 2.90889 137.45 2.98015C137.539 3.12267 133.067 7.9149 133.156 8.05742C133.192 8.11086 135.33 6.7213 135.365 6.77474C135.455 6.91726 131.464 11.9055 131.535 12.048C131.571 12.1014 133.726 10.7119 133.762 10.7653C133.833 10.8722 130.359 14.6846 130.431 14.7915C130.466 14.8449 132.64 13.4375 132.658 13.5088C132.711 13.5801 130.235 16.092 130.288 16.1632C130.324 16.2167 131.304 15.5041 131.339 15.5575C131.375 15.6288 129.077 17.9804 129.112 18.0694C129.148 18.1229 131.321 16.7155 131.357 16.7689C131.428 16.8758 127.919 20.7595 127.972 20.8664C128.008 20.9198 130.199 19.5124 130.235 19.5659C130.306 19.6728 126.85 23.4139 126.903 23.5208C126.939 23.5743 129.13 22.1491 129.166 22.2203C129.219 22.3272 125.959 25.623 126.013 25.7299C126.048 25.7833 128.257 24.3581 128.293 24.4116C128.346 24.5185 125.247 28.028 125.3 28.1349C125.336 28.1883 126.939 27.1194 126.957 27.1729C127.01 27.262 124.285 29.8095 124.338 29.8808C124.374 29.9342 126.6 28.509 126.618 28.5625C126.672 28.6693 123.394 31.9473 123.465 32.0542C123.501 32.1076 125.728 30.6646 125.763 30.7359" stroke="#1B1B1B" stroke-width="1.97624" stroke-linecap="round" stroke-linejoin="round"/>
<path id="Vector_13" d="M136.667 5.20555C136.667 5.20555 138.02 4.36825 138.038 4.40388C138.074 4.45732 137.272 6.73764 137.308 6.79108C137.326 6.82671 138.662 5.95378 138.68 5.98941C138.715 6.04285 138.074 8.7151 138.11 8.78636C138.127 8.82199 139.463 7.94905 139.481 7.98468C139.517 8.05594 138.929 10.8885 138.982 10.942C139 10.9776 140.336 10.1047 140.354 10.1403C140.39 10.2116 139.838 13.0976 139.873 13.151C139.891 13.1867 141.227 12.3137 141.263 12.3494C141.298 12.4028 140.586 14.9503 140.621 15.0038C140.639 15.0394 141.993 14.1665 142.011 14.2021C142.047 14.2734 141.548 17.3197 141.583 17.391C141.601 17.4266 142.955 16.5537 142.973 16.5893C143.009 16.6428 142.1 18.7093 142.136 18.7449C142.154 18.7806 143.507 17.9076 143.525 17.9433C143.561 17.9967 142.635 19.992 142.652 20.0454C142.67 20.0811 144.024 19.2081 144.042 19.2437C144.078 19.315 143.507 22.201 143.543 22.2723C143.561 22.3079 144.915 21.435 144.933 21.4706C144.968 21.5241 144.202 23.9113 144.22 23.9647C144.238 24.0003 145.592 23.1274 145.61 23.163C145.627 23.2165 144.612 24.9624 144.63 25.0158C144.648 25.0514 146.002 24.1785 146.019 24.2141C146.055 24.2854 145.556 27.3496 145.592 27.4208C145.61 27.4564 146.964 26.5835 146.981 26.6191C147.017 26.6726 146.215 29.0242 146.251 29.0776C146.269 29.1132 147.623 28.2403 147.641 28.2759C147.676 28.3472 147.088 31.2154 147.142 31.2867C147.16 31.3223 148.513 30.4494 148.531 30.485C148.567 30.5384 147.73 32.7653 147.747 32.8188C147.765 32.8544 149.119 31.9815 149.137 32.0171C149.155 32.0527 149.297 33.7808 149.333 33.8164C149.351 33.852 149.636 33.6026 149.654 33.6382C149.689 33.6917 148.87 35.5979 148.888 35.6513C148.905 35.687 150.259 34.814 150.295 34.8497C150.331 34.9209 149.796 37.9138 149.832 37.9673C149.85 38.0029 151.221 37.13 151.239 37.1656C151.257 37.2191 150.224 38.9649 150.259 39.0006C150.277 39.0362 151.649 38.1633 151.667 38.1989C151.685 38.2523 150.633 39.9447 150.669 39.9982C150.687 40.0338 152.059 39.1609 152.076 39.1787C152.112 39.2321 152.771 41.1562 152.807 41.2096C152.842 41.2631 154.606 40.1051 154.642 40.1585C154.677 40.212 155.889 42.1894 155.924 42.2429C155.942 42.2963 157.688 41.174 157.706 41.2096C157.742 41.2631 159.06 43.3296 159.096 43.383C159.113 43.4187 160.806 42.332 160.841 42.3676C160.859 42.4032 160.841 44.0244 160.859 44.06C160.877 44.0956 162.57 43.0089 162.587 43.0624C162.605 43.098 162.195 44.5588 162.213 44.5945C162.231 44.6301 163.888 43.5612 163.923 43.6146C163.959 43.6681 165.081 45.7524 165.117 45.8237C165.135 45.8593 166.774 44.8082 166.792 44.8617C166.809 44.8973 166.631 46.4828 166.649 46.5185C166.667 46.5541 168.288 45.5208 168.306 45.5565C168.324 45.5921 167.718 46.9817 167.736 47.0173C167.754 47.0529 169.375 46.0197 169.393 46.0553C169.428 46.1087 169.998 48.0684 170.034 48.1218C170.052 48.1574 171.637 47.142 171.655 47.1776C171.673 47.2133 171.049 48.6028 171.067 48.6385C171.085 48.6741 172.671 47.6586 172.688 47.7121C172.724 47.7655 173.633 49.9568 173.668 50.0102C173.686 50.0458 175.236 49.0482 175.254 49.1016C175.272 49.1551 175.628 51.0791 175.646 51.1147C175.663 51.1504 177.178 50.1705 177.213 50.2062C177.249 50.2596 178.086 52.5043 178.104 52.5577C178.122 52.5934 179.618 51.6314 179.636 51.667C179.654 51.7026 179.832 53.6088 179.85 53.6445C179.868 53.6801 181.346 52.7359 181.364 52.7715C181.4 52.825 181.774 54.8915 181.792 54.945C181.81 54.9806 183.288 54.0364 183.306 54.072C183.324 54.1077 182.647 55.4972 182.665 55.5328C182.683 55.5685 184.126 54.6421 184.143 54.6777C184.161 54.7134 183.769 56.3167 183.805 56.3523C183.841 56.388 185.266 55.4616 185.284 55.4972C185.319 55.5507 185.943 57.9201 185.961 57.9735C185.978 58.0091 187.404 57.1006 187.421 57.1362C187.439 57.1718 186.958 58.7395 186.976 58.7752C186.994 58.8108 188.401 57.9022 188.437 57.9379C188.455 57.9735 188.152 59.7016 188.17 59.7372C188.187 59.7728 189.577 58.8821 189.595 58.9177C189.63 58.9711 189.88 61.198 189.898 61.2515C189.915 61.2871 191.305 60.3963 191.323 60.432C191.341 60.4676 190.842 62.0888 190.878 62.1244C190.895 62.16 192.267 61.2693 192.303 61.3049C192.321 61.3405 191.715 62.8904 191.75 62.9261C191.768 62.9617 193.14 62.0709 193.158 62.1066C193.176 62.1422 192.445 63.5496 192.463 63.5852C192.481 63.6208 193.835 62.7479 193.87 62.7835C193.906 62.8192 193.122 64.2444 193.14 64.28C193.158 64.3156 194.512 63.4427 194.53 63.4783C194.565 63.5318 194.904 66.1328 194.939 66.1862C194.957 66.2218 196.293 65.3489 196.329 65.3845C196.347 65.4202 195.67 66.9701 195.705 67.0057C195.723 67.0413 197.059 66.1862 197.077 66.204C197.113 66.2575 196.81 68.3062 196.845 68.3418C196.863 68.3774 198.199 67.5223 198.217 67.558C198.235 67.5936 197.612 69.2682 197.629 69.3038C197.647 69.3394 198.983 68.4843 199.001 68.52C199.037 68.5734 199.037 71.1566 199.072 71.21C199.09 71.2456 200.408 70.3905 200.426 70.4262C200.444 70.4618 199.589 71.9404 199.607 71.9939C199.625 72.0295 200.943 71.1744 200.961 71.21C200.996 71.2635 200.587 73.4547 200.622 73.5082C200.64 73.5438 201.958 72.6887 201.976 72.7243C201.994 72.7777 201.353 74.6661 201.371 74.7018C201.388 74.7374 202.707 73.8823 202.724 73.9179C202.742 73.9535 202.012 75.8063 202.047 75.8419C202.065 75.8775 203.384 75.0224 203.401 75.0581C203.437 75.1115 203.134 77.855 203.17 77.9263C203.188 77.9619 204.506 77.1068 204.524 77.1424C204.542 77.178 203.562 78.7279 203.58 78.7636C203.597 78.7992 204.916 77.9441 204.934 77.9797C204.969 78.0332 204.399 80.5985 204.435 80.6698C204.452 80.7054 205.771 79.8503 205.789 79.8859C205.806 79.9394 204.844 81.7209 204.862 81.7743C204.88 81.8099 206.216 80.937 206.234 80.9726C206.27 81.0261 205.272 82.8966 205.308 82.9323C205.325 82.9679 206.662 82.1128 206.679 82.1484C206.715 82.2019 205.896 84.7494 205.913 84.8207C205.931 84.8563 207.285 83.9834 207.303 84.019C207.338 84.0724 206.216 85.9074 206.234 85.9608C206.252 85.9964 207.624 85.1057 207.641 85.1413C207.677 85.2126 206.679 87.867 206.715 87.9383C206.733 87.9739 208.122 87.0832 208.14 87.1188C208.176 87.1722 207.036 89.6663 207.053 89.7198C207.071 89.7554 208.479 88.8468 208.497 88.8825C208.55 88.9715 207.374 92.4633 207.428 92.5524C207.445 92.588 208.906 91.6438 208.924 91.6794C208.978 91.7507 207.535 94.9396 207.57 95.0108C207.588 95.0465 209.084 94.0844 209.12 94.1201C209.156 94.1913 207.535 96.9883 207.588 97.0595C207.606 97.0952 209.156 96.0975 209.173 96.1332C209.227 96.2044 207.41 99.2686 207.463 99.3577C207.481 99.3933 209.084 98.36 209.12 98.4135C209.156 98.4847 207.232 101.068 207.285 101.139C207.303 101.175 208.96 100.124 208.977 100.159C209.031 100.266 206.697 104.15 206.751 104.257C206.768 104.31 208.514 103.17 208.55 103.224C208.603 103.33 205.86 107.321 205.931 107.428C205.967 107.481 207.855 106.252 207.891 106.306C207.944 106.395 205.147 109.53 205.201 109.619C205.236 109.673 207.249 108.372 207.267 108.425C207.321 108.515 204.488 111.222 204.542 111.294C204.577 111.347 206.679 109.993 206.715 110.047C206.786 110.154 203.366 113.699 203.419 113.806C203.455 113.859 205.735 112.398 205.771 112.452C205.86 112.612 201.121 117.671 201.21 117.832C201.246 117.903 203.882 116.193 203.918 116.264C204.025 116.442 197.879 122.268 197.986 122.446C198.039 122.535 201.281 120.433 201.335 120.504C201.46 120.718 193.87 126.864 193.995 127.078C194.049 127.185 198.199 124.512 198.253 124.619C198.36 124.815 190.931 129.786 191.038 129.982C191.109 130.106 196.115 126.882 196.186 127.007C196.311 127.22 187.778 132.832 187.902 133.046C188.009 133.224 192.623 130.089 192.73 130.267" stroke="#1B1B1B" stroke-width="1.97624" stroke-linecap="round" stroke-linejoin="round"/>
<path id="Vector_14" d="M27.3484 54.5506C27.6869 55.1207 45.6978 43.1847 46.0363 43.7726C46.446 44.4674 18.4765 60.2871 18.8863 60.9818C18.9932 61.1778 23.1618 58.274 23.2687 58.4521C23.4291 58.7371 12.5976 66.5401 12.7579 66.8251C12.8292 66.932 17.176 64.1351 17.2295 64.242C17.3364 64.4201 11.1546 69.7646 11.2615 69.9428C11.3149 70.0318 12.0453 69.3727 12.0988 69.4618C12.17 69.5865 8.03692 72.9535 8.10818 73.0782C8.16162 73.1495 11.1724 71.2076 11.208 71.2789C11.2793 71.4036 7.09273 74.735 7.16399 74.8419C7.19962 74.9131 7.53812 74.539 7.57375 74.6103C7.62719 74.6994 5.86352 78.102 5.91697 78.1911C5.9526 78.2445 6.89681 77.5319 6.93244 77.6032C6.98588 77.6923 4.20674 80.2754 4.26019 80.3467C4.29582 80.4002 6.54047 78.9571 6.55828 79.0106C6.61173 79.0997 3.60099 81.7541 3.65443 81.8432C3.69006 81.8966 5.8279 80.507 5.86353 80.5605C5.91697 80.6674 2.83497 83.9097 2.90623 84.0166C2.94186 84.07 4.93715 82.7695 4.97278 82.823C5.02622 82.9299 2.12237 86.5285 2.17581 86.6354C2.21144 86.6888 4.0464 85.4952 4.08203 85.5309C4.11766 85.6021 1.76605 88.1318 1.81949 88.2209C1.83731 88.2744 3.63664 87.1164 3.67227 87.152C3.72571 87.2411 1.35634 90.5012 1.40978 90.5903C1.4276 90.6259 3.11999 89.5392 3.15562 89.5927C3.20906 89.6818 1.05346 93.3695 1.1069 93.4763C1.12472 93.512 2.74587 92.4787 2.76368 92.5143C2.81713 92.6034 0.964389 96.1664 1.00002 96.2555C1.01783 96.2911 2.56776 95.2935 2.58558 95.3469C2.63902 95.436 1.07129 99.1059 1.12474 99.1949C1.14255 99.2306 2.60337 98.2864 2.62119 98.322C2.67463 98.4111 1.39195 101.992 1.44539 102.081C1.46321 102.117 2.88842 101.19 2.90623 101.226C2.95968 101.297 1.87293 104.646 1.92638 104.735C1.94419 104.771 3.33379 103.88 3.35161 103.916C3.38724 103.969 2.15802 105.822 2.19365 105.876C2.21146 105.911 3.58319 105.02 3.61882 105.056C3.65445 105.11 2.46088 106.927 2.47869 106.98C2.49651 107.016 3.86822 106.143 3.88604 106.178C3.92167 106.232 2.88844 108.405 2.92407 108.459C2.94188 108.494 4.29578 107.621 4.33141 107.657C4.36704 107.711 3.36942 109.777 3.40505 109.83C3.42287 109.866 4.75899 108.993 4.79462 109.029C4.83025 109.1 4.33145 112.218 4.36708 112.289C4.38489 112.325 5.72099 111.469 5.73881 111.487C5.77444 111.541 4.86587 113.429 4.9015 113.465C4.91932 113.5 6.23761 112.645 6.27324 112.681C6.30887 112.752 5.89912 115.496 5.93475 115.567C5.95256 115.603 7.27089 114.747 7.2887 114.783C7.32433 114.836 6.7008 116.992 6.71861 117.046C6.73643 117.081 8.05475 116.226 8.07257 116.262C8.1082 116.315 7.73406 118.756 7.76969 118.809C7.7875 118.845 9.10583 117.99 9.12364 118.025C9.15927 118.079 9.08801 120.805 9.12364 120.876C9.14146 120.911 10.4598 120.056 10.4954 120.092C10.5132 120.145 9.99658 122.087 10.0144 122.123C10.0322 122.158 11.3684 121.303 11.3862 121.339C11.4218 121.41 11.6178 124.189 11.6534 124.261C11.6712 124.296 13.0073 123.441 13.0251 123.459C13.0608 123.512 12.7936 125.615 12.8292 125.65C12.847 125.686 14.1831 124.813 14.2188 124.849C14.2366 124.884 13.6843 126.594 13.7021 126.63C13.7199 126.666 15.0739 125.793 15.0917 125.828C15.1095 125.864 14.5572 127.556 14.5929 127.592C14.6107 127.628 15.9646 126.755 15.9824 126.79C16.018 126.844 16.2853 129.32 16.3209 129.374C16.3387 129.409 17.7105 128.518 17.7283 128.554C17.7639 128.607 18.0668 131.012 18.1024 131.084C18.1202 131.119 19.5098 130.229 19.5276 130.264C19.5454 130.3 19.3673 132.206 19.3851 132.242C19.4029 132.277 20.7924 131.387 20.8103 131.422C20.8281 131.476 20.8103 133.471 20.8281 133.507C20.8459 133.542 22.2533 132.634 22.2711 132.669C22.2889 132.723 22.5383 134.7 22.5562 134.754C22.574 134.789 23.4825 134.166 23.5003 134.219C23.5182 134.255 23.5538 135.68 23.5716 135.716C23.5894 135.751 25.0146 134.825 25.0502 134.861C25.0681 134.896 24.3554 136.286 24.3733 136.321C24.3911 136.357 25.8341 135.431 25.8519 135.466C25.8876 135.52 26.1548 137.586 26.1726 137.622C26.1904 137.657 27.6334 136.731 27.669 136.767C27.7047 136.82 28.061 138.905 28.0966 138.94C28.1144 138.976 29.593 138.032 29.6109 138.067C29.6465 138.121 30.4125 140.419 30.4482 140.472C30.466 140.508 31.9625 139.546 31.9803 139.581C31.9981 139.617 32.105 141.47 32.1228 141.506C32.1406 141.541 33.6549 140.561 33.6905 140.597C33.7083 140.633 33.3876 142.218 33.4055 142.254C33.4233 142.289 34.9376 141.31 34.9732 141.345C35.0088 141.399 35.6145 143.465 35.6323 143.501C35.6501 143.536 37.2001 142.539 37.2179 142.574C37.2357 142.61 36.719 144.071 36.7369 144.106C36.7547 144.142 38.3046 143.144 38.3224 143.18C38.358 143.234 39.3022 145.389 39.3378 145.443C39.3556 145.478 40.9412 144.463 40.959 144.498C40.9768 144.534 41.1194 146.298 41.155 146.333C41.1906 146.369 42.794 145.336 42.8118 145.371C42.8296 145.407 42.9721 147.135 42.9899 147.171C43.0077 147.206 44.6289 146.173 44.6467 146.209C44.6823 146.262 45.6444 148.293 45.6622 148.346C45.68 148.382 47.3367 147.331 47.3546 147.367C47.3724 147.402 47.123 148.934 47.1408 148.97C47.1586 149.006 48.8332 147.937 48.8688 147.972C48.9045 148.008 49.332 149.807 49.3677 149.843C49.4033 149.879 51.0779 148.792 51.1136 148.845C51.1314 148.881 50.8107 150.377 50.8285 150.413C50.8463 150.449 52.5744 149.344 52.61 149.38C52.6456 149.433 53.572 151.339 53.6076 151.393C53.6255 151.446 55.3713 150.306 55.407 150.36C55.4248 150.395 54.9081 151.82 54.9259 151.856C54.9437 151.909 56.7253 150.751 56.7431 150.805C56.7609 150.841 56.3512 152.301 56.369 152.337C56.3868 152.39 58.1683 151.232 58.1861 151.286C58.2039 151.322 58.3821 152.961 58.3999 152.996C58.4355 153.05 60.2526 151.874 60.2704 151.909C60.2882 151.945 60.1992 153.495 60.217 153.531C60.2526 153.584 62.0698 152.408 62.0876 152.444C62.1054 152.48 62.0341 154.029 62.0519 154.065C62.0876 154.119 63.9403 152.907 63.976 152.961C63.9938 152.996 64.3323 154.475 64.3501 154.51C64.3857 154.564 64.7776 154.19 64.8133 154.243C64.8311 154.279 65.9534 155.063 65.9712 155.098C66.0069 155.152 67.9131 153.905 67.9487 153.958C67.9665 153.994 67.2717 155.383 67.2895 155.419C67.3252 155.472 69.2314 154.225 69.267 154.279C69.2848 154.314 68.8751 155.775 68.8929 155.793C68.9285 155.847 70.8882 154.582 70.9238 154.617C70.9416 154.653 71.1554 156.238 71.1732 156.274C71.2089 156.328 73.1685 155.045 73.2041 155.098C73.2397 155.152 74.6293 156.915 74.665 156.969C74.7006 157.022 76.7315 155.704 76.7493 155.757C76.7671 155.793 77.3016 157.396 77.3194 157.45C77.355 157.503 79.4393 156.149 79.475 156.203C79.4928 156.238 78.994 157.681 79.0296 157.717C79.0652 157.771 81.1674 156.417 81.1852 156.47C81.2031 156.506 81.1852 158.02 81.203 158.056C81.2386 158.109 83.3943 156.719 83.4299 156.773C83.4477 156.826 84.5701 158.465 84.6057 158.501C84.6413 158.554 86.8682 157.111 86.9038 157.183C86.9216 157.218 86.6901 158.697 86.7079 158.733C86.7435 158.786 88.9704 157.343 89.006 157.396C89.0238 157.432 89.2376 158.946 89.2554 158.982C89.2911 159.035 91.607 157.557 91.6426 157.61C91.6783 157.664 93.7091 159.196 93.7448 159.249C93.7804 159.303 95.651 158.073 95.6866 158.127C95.7044 158.163 96.7377 159.463 96.7555 159.516C96.7911 159.588 99.2674 157.984 99.303 158.038C99.3209 158.073 98.5905 159.552 98.6083 159.588C98.6439 159.659 101.138 158.038 101.174 158.109C101.209 158.162 103.026 159.641 103.062 159.695C103.098 159.766 105.716 158.073 105.752 158.145C105.77 158.18 106.696 159.659 106.714 159.695C106.75 159.766 109.458 158.02 109.493 158.091C109.529 158.163 111.952 159.499 111.987 159.57C112.023 159.641 114.909 157.788 114.945 157.86C114.962 157.895 114.998 159.392 115.016 159.427C115.051 159.499 118.044 157.575 118.08 157.664C118.116 157.753 121.554 158.198 121.59 158.269C121.643 158.358 121.679 158.109 121.732 158.18C121.75 158.216 123.496 158.679 123.531 158.715C123.585 158.804 126.934 156.648 126.97 156.719C127.005 156.773 129.001 157.664 129.018 157.717C129.072 157.806 131.744 156.025 131.798 156.114C131.815 156.167 133.472 157.272 133.508 157.307C133.561 157.414 137.534 154.849 137.587 154.956C137.605 154.991 137.16 156.595 137.178 156.63C137.249 156.737 141.525 153.976 141.578 154.083C141.614 154.136 144.232 154.867 144.268 154.938C144.339 155.063 147.154 153.103 147.225 153.228C147.332 153.406 155.153 150.894 155.26 151.072C155.367 151.25 156.079 150.36 156.168 150.538C156.293 150.751 165.272 147.545 165.397 147.759C165.735 148.346 181.038 137.96 181.377 138.53" stroke="#1B1B1B" stroke-width="1.97624" stroke-linecap="round" stroke-linejoin="round"/>
<path id="Vector_15" d="M47.8696 44.5039C48.0121 44.7355 52.9825 41.2259 53.1251 41.4753" stroke="#1B1B1B" stroke-width="1.97624" stroke-linecap="round" stroke-linejoin="round"/>
<path id="Vector_16" d="M69.8007 1.51707C69.8007 1.51707 70.6737 0.982621 70.6915 1.00044C70.7449 1.10733 68.3221 4.95536 68.3755 5.04444C68.429 5.13351 71.5644 3.1026 71.6001 3.17386C71.6713 3.31638 67.2354 7.53853 67.3066 7.68105C67.3423 7.7345 69.48 6.36275 69.5157 6.41619C69.5691 6.50526 66.5049 9.48037 66.5584 9.56944C66.594 9.62288 68.7318 8.23332 68.7675 8.30458C68.8387 8.42928 65.1332 12.8118 65.2045 12.9365C65.2401 12.9899 67.3779 11.6003 67.4135 11.6538C67.467 11.7429 64.5453 14.3795 64.5809 14.4686C64.6166 14.522 66.7544 13.1324 66.79 13.1859C66.8612 13.2928 63.4943 16.927 63.5477 17.0339C63.5833 17.0874 65.7211 15.6978 65.7567 15.7512C65.828 15.8759 62.265 19.9199 62.3362 20.0446C62.3719 20.0981 64.5097 18.7085 64.5453 18.762C64.6166 18.8867 61.0357 22.9485 61.107 23.0732C61.1426 23.1266 63.2805 21.7371 63.3161 21.7905C63.3695 21.8796 60.9823 24.8191 61.0358 24.9081C61.0714 24.9616 61.107 24.8012 61.1248 24.8547C61.1783 24.9438 58.8445 28.4355 58.898 28.5246C58.9336 28.578 61.0892 27.1884 61.107 27.2419C61.1605 27.331 58.025 30.4486 58.0785 30.5377C58.1141 30.5911 60.2697 29.2015 60.3054 29.255C60.3766 29.3797 56.6711 33.7444 56.7424 33.8691C56.778 33.9225 58.9336 32.5329 58.9692 32.5864C59.0049 32.6576 57.1877 35.4724 57.2234 35.5437C57.259 35.5971 57.9003 35.0805 57.9359 35.1339C58.0072 35.2408 54.4977 39.1601 54.5689 39.2848C54.6046 39.3383 56.7602 37.9487 56.7958 38.0021" stroke="#1B1B1B" stroke-width="1.97624" stroke-linecap="round" stroke-linejoin="round"/>
</g>
<path id="Vector_17" d="M87.4053 68.6771C87.4587 68.7662 91.0574 66.4502 91.1108 66.5393C91.1821 66.6462 88.1713 70.7971 88.2247 70.9218C88.296 71.0465 93.0883 67.9467 93.1595 68.0714C93.2308 68.1783 89.5787 71.5097 89.65 71.6166C89.7034 71.7056 93.302 69.3897 93.3555 69.4788" stroke="#1B1B1B" stroke-width="1.97624" stroke-linecap="round" stroke-linejoin="round"/>
<path id="Vector_18" d="M118.646 68.6957C118.7 68.7847 122.299 66.4688 122.352 66.5579C122.423 66.6648 119.43 70.8156 119.484 70.9225C119.555 71.0472 124.329 67.9653 124.401 68.0721C124.454 68.179 120.82 71.5104 120.891 71.6173C120.945 71.7064 124.543 69.3904 124.597 69.4795" stroke="#1B1B1B" stroke-width="1.97624" stroke-linecap="round" stroke-linejoin="round"/>
<path id="Vector_19" d="M103.445 109.546C103.445 109.546 106.794 107.497 106.847 107.587C106.919 107.693 104.068 111.755 104.122 111.88C104.175 112.005 108.451 109.243 108.504 109.35C108.558 109.457 105.102 112.432 105.155 112.539C105.208 112.628 108.504 110.49 108.558 110.579" stroke="#1B1B1B" stroke-width="1.97624" stroke-linecap="round" stroke-linejoin="round"/>
<path id="Vector_20" d="M26.7842 93.3163C26.7842 93.3163 28.5479 92.2474 28.5657 92.283C28.6013 92.3365 30.2581 93.9576 30.2937 94.0111C30.3294 94.0823 33.251 92.1939 33.3045 92.283C33.3223 92.3187 33.8033 93.9754 33.8211 94.0111C33.8567 94.0823 36.7784 92.1939 36.8319 92.283C36.8497 92.3187 36.3152 93.9754 36.3508 94.0111C36.3864 94.0823 39.3081 92.1939 39.3615 92.283C39.3972 92.3365 40.8046 93.9576 40.8402 94.0111C40.8759 94.0823 43.7975 92.1939 43.8509 92.283C43.8687 92.3187 42.8711 93.9754 42.9067 94.0111C42.9423 94.0823 45.864 92.1939 45.9174 92.283C45.9353 92.3187 46.3094 93.9754 46.345 94.0111C46.3807 94.0823 49.3023 92.1939 49.3558 92.283C49.3736 92.3365 48.1265 93.9754 48.1622 94.0111C48.1978 94.0467 49.8902 92.96 49.9258 92.9956" stroke="#1B1B1B" stroke-width="1.97624" stroke-linecap="round" stroke-linejoin="round"/>
<path id="Vector_21" d="M26.7842 103.114C26.7842 103.114 28.5479 102.045 28.5657 102.081C28.6013 102.134 30.2581 103.755 30.2937 103.809C30.3294 103.88 33.251 101.992 33.3045 102.081C33.3223 102.116 33.8033 103.773 33.8211 103.809C33.8567 103.88 36.7784 101.992 36.8319 102.081C36.8497 102.116 36.3152 103.773 36.3508 103.809C36.3864 103.88 39.3081 101.992 39.3615 102.081C39.3972 102.134 40.8046 103.755 40.8402 103.809C40.8759 103.88 43.7975 101.992 43.8509 102.081C43.8687 102.116 42.8711 103.773 42.9067 103.809C42.9423 103.88 45.864 101.992 45.9174 102.081C45.9353 102.116 46.3094 103.773 46.345 103.809C46.3807 103.88 49.3023 101.992 49.3558 102.081C49.3736 102.134 48.1265 103.773 48.1622 103.809C48.1978 103.844 49.8902 102.758 49.9258 102.793" stroke="#1B1B1B" stroke-width="1.97624" stroke-linecap="round" stroke-linejoin="round"/>
<path id="Vector_22" d="M163.952 93.318C163.952 93.318 165.715 92.2491 165.733 92.2847C165.769 92.3381 167.426 93.9593 167.461 94.0127C167.497 94.084 170.419 92.1956 170.472 92.2847C170.49 92.3203 170.971 93.9771 170.989 94.0127C171.024 94.084 173.946 92.1956 173.999 92.2847C174.017 92.3203 173.483 93.9771 173.518 94.0127C173.554 94.084 176.476 92.1956 176.529 92.2847C176.565 92.3381 177.972 93.9593 178.008 94.0127C178.043 94.084 180.965 92.1956 181.018 92.2847C181.036 92.3203 180.039 93.9771 180.074 94.0127C180.11 94.084 183.031 92.1956 183.085 92.2847C183.103 92.3203 183.477 93.9771 183.513 94.0127C183.548 94.084 186.47 92.1956 186.523 92.2847C186.541 92.3381 185.294 93.9771 185.33 94.0127C185.365 94.0484 187.058 92.9617 187.093 92.9973" stroke="#1B1B1B" stroke-width="1.97624" stroke-linecap="round" stroke-linejoin="round"/>
<path id="Vector_23" d="M163.952 103.112C163.952 103.112 165.715 102.043 165.733 102.079C165.769 102.133 167.426 103.754 167.461 103.807C167.497 103.878 170.419 101.99 170.472 102.079C170.49 102.115 170.971 103.772 170.989 103.807C171.024 103.878 173.946 101.99 173.999 102.079C174.017 102.115 173.483 103.772 173.518 103.807C173.554 103.878 176.476 101.99 176.529 102.079C176.565 102.133 177.972 103.754 178.008 103.807C178.043 103.878 180.965 101.99 181.018 102.079C181.036 102.115 180.039 103.772 180.074 103.807C180.11 103.878 183.031 101.99 183.085 102.079C183.103 102.115 183.477 103.772 183.513 103.807C183.548 103.878 186.47 101.99 186.523 102.079C186.541 102.133 185.294 103.772 185.33 103.807C185.365 103.843 187.058 102.756 187.093 102.792" stroke="#1B1B1B" stroke-width="1.97624" stroke-linecap="round" stroke-linejoin="round"/>
</g>
</g>
</g>
</svg>
