<svg width="287" height="505" viewBox="0 0 287 505" fill="none" xmlns="http://www.w3.org/2000/svg">
<g clip-path="url(#clip0_248_5229)" filter="url(#filter0_d_248_5229)">
<rect width="270.827" height="488.719" transform="translate(8 4)" fill="white"/>
<g filter="url(#filter1_d_248_5229)">
<rect x="8" y="318.529" width="270.827" height="174.191" fill="white"/>
</g>
<rect x="8" y="-59.3982" width="270.827" height="377.927" fill="white" style="mix-blend-mode:hard-light"/>
<path d="M132.23 139.596C133.69 139.592 134.87 138.62 134.866 137.424C134.862 136.229 133.676 135.262 132.216 135.265C130.756 135.268 129.576 136.24 129.58 137.436C129.584 138.632 130.771 139.599 132.23 139.596Z" fill="#1B1B1B"/>
<path d="M155.617 139.545C157.004 139.542 158.125 138.57 158.121 137.375C158.117 136.179 156.99 135.212 155.603 135.215C154.217 135.218 153.096 136.19 153.1 137.386C153.104 138.582 154.231 139.549 155.617 139.545Z" fill="#1B1B1B"/>
<path d="M144.074 165.323C145.461 165.32 146.582 164.348 146.578 163.152C146.574 161.956 145.447 160.989 144.06 160.992C142.674 160.996 141.553 161.967 141.557 163.163C141.561 164.359 142.688 165.326 144.074 165.323Z" fill="#1B1B1B"/>
<path d="M85.4932 152.009L102.407 151.971" stroke="#1B1B1B" stroke-width="0.370846" stroke-miterlimit="10"/>
<path d="M85.5127 158.164L102.427 158.126" stroke="#1B1B1B" stroke-width="0.370846" stroke-miterlimit="10"/>
<path d="M185.387 151.784L202.301 151.746" stroke="#1B1B1B" stroke-width="0.370846" stroke-miterlimit="10"/>
<path d="M185.406 157.939L202.32 157.901" stroke="#1B1B1B" stroke-width="0.370846" stroke-miterlimit="10"/>
<path d="M174.718 83.0914C174.718 83.0914 175.456 82.6041 175.471 82.6365C175.502 82.7013 173.986 84.8592 174.033 84.9239C174.064 84.9725 175.892 83.7219 175.923 83.7705C175.985 83.8838 172.935 87.5513 172.997 87.6646C173.044 87.7618 176.531 85.3905 176.578 85.4714C176.64 85.5848 173.39 89.3336 173.452 89.4469C173.53 89.5927 176.34 87.4978 176.418 87.6274C176.464 87.7084 174.01 90.1917 174.057 90.2727C174.15 90.4347 174.855 89.5746 174.948 89.7366C175.01 89.85 170.972 93.1298 171.035 93.2431C171.143 93.4375 175.951 89.9945 176.059 90.1726C176.168 90.3508 170.383 95.7888 170.477 95.9669C170.601 96.2099 178.173 90.9477 178.298 91.1906C178.407 91.385 171.049 96.4524 171.157 96.6467C171.297 96.9059 174.798 94.0645 174.953 94.3398C174.999 94.4046 172.714 96.6608 172.76 96.7417C172.916 97.0333 177.66 93.3635 177.816 93.655C177.893 93.8008 173.012 97.9895 173.09 98.1352C173.261 98.4591 176.822 95.4231 176.993 95.7471C177.086 95.909 171.684 100.779 171.762 100.941C171.964 101.297 175.263 98.3267 175.465 98.683C175.589 98.9097 167.418 104.546 167.542 104.772C167.759 105.161 179.54 96.9267 179.758 97.3154C179.913 97.5907 170.315 104.671 170.47 104.946C170.703 105.368 178.458 99.4892 178.691 99.9265C178.877 100.267 166.371 108.226 166.557 108.55C166.806 109.004 177.387 101.322 177.651 101.776" stroke="#EAEAEA" stroke-width="2.65873" stroke-linecap="round" stroke-linejoin="round"/>
<path d="M78.4509 131.756C78.7464 132.274 94.4523 121.287 94.7478 121.821C95.0122 122.291 76.7597 133.153 77.0242 133.639C77.4441 134.385 101.088 117.952 101.493 118.714C101.959 119.557 70.103 138.726 70.5696 139.553C71.4095 141.06 123.145 105.463 123.985 106.97C124.825 108.478 68.2139 140.724 69.0381 142.183C69.9247 143.771 125.383 105.687 126.27 107.275C127.156 108.864 67.9443 142.574 68.7844 144.114C69.7021 145.767 126.729 106.545 127.647 108.198C128.565 109.851 62.4276 147.724 63.3764 149.442C64.3253 151.16 125.153 109.45 126.102 111.185C127.051 112.919 61.7906 150.239 62.724 151.941C63.6574 153.643 124.162 112.096 125.142 113.863C126.075 115.548 61.5249 152.965 62.4582 154.65C63.5315 156.595 129.573 111.115 130.647 113.06C131.627 114.827 63.4285 154.227 64.4084 155.994C65.5596 158.085 133.323 111.158 134.474 113.249C135.625 115.34 58.5909 159.425 59.6953 161.418C60.9241 163.639 137.95 110.698 139.195 112.935C140.346 115.009 59.8616 160.64 61.0126 162.714C62.3036 165.032 141.314 110.628 142.605 112.946C143.787 115.086 60.852 161.287 62.0342 163.427C63.3564 165.809 147.829 107.91 149.151 110.293C150.473 112.675 62.3032 161.447 63.5477 163.717C64.9009 166.148 145.218 110.639 146.571 113.07C147.831 115.356 59.2767 164.452 60.5366 166.722C61.9209 169.202 147.146 110.571 148.531 113.051C149.806 115.353 60.7033 166.04 61.9789 168.358C63.4099 170.935 155.205 108.029 156.636 110.623C158.068 113.216 62.2805 166.768 63.6493 169.232C65.1114 171.874 154.182 110.464 155.66 113.106C157.137 115.748 59.088 170.633 60.488 173.162C61.9968 175.885 159.192 109.305 160.701 112.028C162.21 114.751 60.7893 171.523 62.236 174.133C64.0248 177.358 176.157 100.327 177.946 103.553C179.734 106.778 58.9931 173.569 60.7196 176.681C62.4462 179.793 179.873 99.6732 181.661 102.899C183.45 106.124 62.3991 172.656 64.1257 175.752C65.8522 178.848 178.693 101.54 180.482 104.766C182.27 107.991 62.5007 174.667 64.1962 177.747C65.9851 180.989 181.072 102.121 182.86 105.363C184.649 108.604 62.0039 177.474 63.7615 180.635C65.5192 183.796 178.236 106.472 180.025 109.714C181.721 112.777 62.3015 178.48 63.997 181.543C65.7859 184.785 177.964 107.689 179.753 110.931C181.448 113.978 63.0794 179.922 64.7748 182.97C66.5636 186.195 182.389 106.904 184.193 110.13C185.997 113.355 66.102 179.513 67.7975 182.592C69.4931 185.672 183.611 107.633 185.4 110.858C187.189 114.084 65.9273 181.881 67.6694 185.009C69.4115 188.138 181.19 111.448 182.963 114.674C184.737 117.899 65.4735 183.942 67.169 187.005C68.9578 190.231 184.214 111.314 185.987 114.523C187.76 117.733 67.0513 184.799 68.7624 187.912C70.4735 191.024 183.607 113.553 185.38 116.779C187.153 120.005 68.5232 186.16 70.2186 189.207C72.0074 192.433 186.863 113.744 188.652 116.969C190.441 120.195 70.361 186.514 72.072 189.594C73.8763 192.836 186.562 115.415 188.351 118.657C190.14 121.898 68.2338 190.508 69.976 193.652C71.7181 196.797 191.96 114.856 193.78 118.13C195.6 121.404 73.4902 189.284 75.2324 192.428C77.0678 195.735 189.553 118.282 191.373 121.588C193.084 124.668 73.8095 191.7 75.5205 194.78C77.3715 198.103 191.98 119.284 193.815 122.623C195.651 125.962 72.989 194.556 74.7466 197.717C76.5977 201.072 195.099 119.815 196.95 123.17C198.677 126.282 77.2726 193.188 78.9992 196.316C80.8657 199.671 198.013 119.227 199.88 122.582C201.746 125.937 74.6765 195.836 76.4964 199.11C78.3163 202.384 200.311 119.078 202.178 122.449C204.045 125.821 78.5438 194.516 80.3325 197.726C82.1212 200.935 200.008 120.214 201.874 123.585C203.741 126.957 77.6323 197.762 79.4367 201.02C81.2411 204.278 199.528 123.232 201.394 126.619C203.152 129.796 79.704 198.667 81.4618 201.844C83.3439 205.248 202.922 123.211 204.804 126.598C206.578 129.808 82.5314 199.474 84.3047 202.684C86.1869 206.088 203.949 125.156 205.831 128.56C207.589 131.736 84.806 200.915 86.5638 204.092C88.4459 207.496 206.824 126.174 208.706 129.577C210.588 132.981 83.3682 203.772 85.1882 207.062C87.0081 210.353 211.065 125.713 212.963 129.133C214.86 132.554 87.3941 203.426 89.2139 206.7C91.0338 209.974 210.905 127.92 212.803 131.324C214.7 134.727 86.6201 206.363 88.4556 209.669C90.291 212.976 212.363 129.54 214.245 132.927C216.127 136.315 89.9368 206.147 91.7256 209.389C93.5145 212.631 212.432 131.211 214.314 134.614C216.041 137.743 94.639 205.232 96.381 208.344C98.2477 211.732 213.04 132.653 214.907 136.041C216.633 139.153 95.492 206.204 97.2186 209.316C99.0852 212.688 215.986 132.357 217.853 135.729C219.61 138.906 96.5938 207.614 98.3515 210.791C100.218 214.146 219.889 132.157 221.756 135.512C223.622 138.868 95.8775 209.626 97.6974 212.901C99.5172 216.175 218.573 134.69 220.424 138.045C222.167 141.189 100.397 209.263 102.139 212.408C103.99 215.731 219.583 136.31 221.419 139.649C223.13 142.745 103.055 210.2 104.766 213.296C106.602 216.603 220.61 138.223 222.43 141.513C224.141 144.609 103.694 211.513 105.405 214.625C107.225 217.916 223.465 138.219 225.269 141.509C227.074 144.8 104.256 213.102 106.014 216.263C107.772 219.424 223.828 140.035 225.648 143.293C227.343 146.34 108.586 211.685 110.281 214.732C112.086 217.974 222.448 141.968 224.237 145.226C225.917 148.257 107.792 213.633 109.472 216.68C111.261 219.905 226.163 141.184 227.936 144.409C229.71 147.635 107.583 215.223 109.325 218.367C111.067 221.512 226.74 142.464 228.513 145.657C230.177 148.672 113.053 213.463 114.718 216.478C116.475 219.655 224.391 145.323 226.149 148.5C227.798 151.466 112.074 215.265 113.723 218.247C115.465 221.408 225.089 146.1 226.831 149.245C228.433 152.13 116.144 214.545 117.746 217.431C119.473 220.559 228.174 145.885 229.901 149.013C231.519 151.947 117.705 215.143 119.323 218.077C121.034 221.173 227.32 148.06 229.046 151.156C230.649 154.041 118.573 215.872 120.175 218.757C121.87 221.821 230.434 147.39 232.129 150.47C233.732 153.372 121.042 215.917 122.659 218.819C124.277 221.72 228.271 150.33 229.951 153.377C231.491 156.149 123.636 216.287 125.176 219.075C126.84 222.073 227.756 152.488 229.421 155.486C230.945 158.242 124.108 218.492 125.648 221.248C127.281 224.182 230.938 153.1 232.571 156.033C234.064 158.724 130.183 217.283 131.676 219.958C133.262 222.827 230.548 155.809 232.135 158.678C233.582 161.288 132.565 218.529 134.011 221.139C135.567 223.943 231.114 158.161 232.67 160.965C234.07 163.493 136.282 218.199 137.666 220.728C139.191 223.467 230.646 160.351 232.155 163.09C233.57 165.635 135.122 221.007 136.522 223.552C137.999 226.227 235.58 159.549 237.073 162.224C238.566 164.898 138.298 220.419 139.729 223.012C141.16 225.606 236.017 160.765 237.479 163.391C238.941 166.017 141.969 220.154 143.353 222.65C144.738 225.147 231.532 165.443 232.948 168.004C234.223 170.29 145.549 220.311 146.825 222.597C148.194 225.077 234.651 165.715 236.019 168.195C237.388 170.675 146.079 221.462 147.386 223.813C148.692 226.163 232.042 168.963 233.364 171.362C234.562 173.517 151.06 220.823 152.258 222.979C153.534 225.296 235.93 168.844 237.205 171.162C238.481 173.479 152.9 221.583 154.129 223.803C155.358 226.024 234.892 171.57 236.121 173.791C237.288 175.882 155.877 221.4 157.044 223.491C158.21 225.582 233.73 173.859 234.912 175.999C235.939 177.863 164.015 219.118 165.057 220.982C166.161 222.991 230.694 178.259 231.799 180.269C232.779 182.036 164.284 220.804 165.264 222.587C166.322 224.484 231.703 179.523 232.745 181.42C233.632 183.024 172.098 218.636 172.985 220.24C173.949 221.975 228.59 183.989 229.555 185.739C230.317 187.133 177.205 218.564 177.967 219.958C178.807 221.481 227.434 187.737 228.289 189.261C228.943 190.428 183.955 216.689 184.609 217.856C185.355 219.201 229.675 188.578 230.422 189.907C231.028 191.009 188.873 215.546 189.495 216.649C190.117 217.751 223.421 194.426 224.043 195.577C224.432 196.274 198.46 213.067 198.848 213.764C199.237 214.461 218.788 200.629 219.177 201.359" stroke="#EAEAEA" stroke-width="2.65873" stroke-linecap="round" stroke-linejoin="round"/>
<path d="M117.512 83.2184C117.512 83.2184 118.25 82.731 118.266 82.7634C118.312 82.8606 116.232 86.3648 116.294 86.4458C116.34 86.5106 119.014 84.6913 119.045 84.7723C119.107 84.9019 115.317 88.7327 115.379 88.8461C115.442 88.9595 119.56 86.1494 119.622 86.2628C119.669 86.3438 117.199 88.957 117.245 89.038C117.323 89.1838 118.32 88.1936 118.398 88.3394C118.429 88.388 117.978 90.8687 118.009 90.9173C118.118 91.1116 118.207 90.5442 118.316 90.7385C118.363 90.8195 115.661 93.3358 115.708 93.4168C115.832 93.6273 118.335 91.5328 118.459 91.7433C118.553 91.9053 112.794 96.7763 112.887 96.9383C113.027 97.1812 118.912 92.926 119.051 93.1689C119.16 93.3633 112.419 99.0624 112.528 99.2567C112.699 99.5483 118.629 95.1309 118.799 95.4387C118.877 95.5682 114.858 99.8046 114.92 99.9342C115.106 100.274 120.129 96.2959 120.315 96.636C120.471 96.9276 109.868 104.269 110.024 104.561C110.226 104.933 122.242 96.6009 122.444 96.9735C122.599 97.265 112.26 104.979 112.416 105.271C112.649 105.692 119.453 100.414 119.686 100.835C119.811 101.046 112.144 106.568 112.253 106.778C112.502 107.232 119.367 101.824 119.616 102.278C119.771 102.553 110.156 110.023 110.311 110.299C110.591 110.801 123.405 101.64 123.669 102.143C123.933 102.612 106.489 113.773 106.753 114.243C107.048 114.777 125.61 102.01 125.906 102.545" stroke="#EAEAEA" stroke-width="2.65873" stroke-linecap="round" stroke-linejoin="round"/>
<path d="M118.293 84.6274C118.293 84.6274 119.494 83.8469 119.525 83.8793C119.556 83.9442 119.089 86.6705 119.121 86.7191C119.136 86.7515 120.321 85.9387 120.352 85.9711C120.383 86.0359 119.885 88.6811 119.916 88.746C119.932 88.7784 121.132 87.9655 121.148 87.998C121.179 88.0466 120.307 89.7513 120.322 89.8C120.338 89.8324 121.538 89.0195 121.554 89.052C121.585 89.1006 120.728 90.8378 120.744 90.8864C120.759 90.9188 121.96 90.1059 121.975 90.1384C122.006 90.187 121.384 92.5566 121.415 92.6214C121.431 92.6539 122.631 91.841 122.646 91.8734C122.677 91.922 121.837 93.7241 121.852 93.7565C121.868 93.7889 123.068 92.9761 123.084 93.0085C123.115 93.0733 122.57 95.6375 122.602 95.7023C122.617 95.7348 123.817 94.9219 123.833 94.9543C123.864 95.0192 123.273 97.486 123.32 97.5347C123.335 97.5671 124.535 96.7542 124.551 96.7866C124.582 96.8515 124.053 99.4643 124.085 99.5291C124.1 99.5616 125.3 98.7487 125.316 98.7811C125.347 98.8297 124.6 100.891 124.631 100.94C124.647 100.972 125.847 100.159 125.862 100.192C125.878 100.224 124.928 101.718 124.943 101.767C124.959 101.799 126.159 100.986 126.175 101.019C126.206 101.084 125.63 103.583 125.662 103.648C125.677 103.68 126.877 102.867 126.908 102.9C126.939 102.965 126.442 105.659 126.473 105.707C126.489 105.74 127.689 104.91 127.72 104.943C127.751 105.008 127.222 107.621 127.253 107.685C127.269 107.718 128.484 106.889 128.5 106.921C128.531 106.97 127.722 108.902 127.753 108.95C127.768 108.983 128.984 108.153 128.999 108.186C129.031 108.235 128.205 110.101 128.221 110.15C128.237 110.183 129.452 109.353 129.468 109.386C129.499 109.451 129.418 112.047 129.449 112.095C129.496 112.176 132.388 110.193 132.435 110.274C132.45 110.306 133.012 111.604 133.027 111.636C133.074 111.717 135.797 109.847 135.828 109.928C135.844 109.961 135.294 111.373 135.31 111.406C135.357 111.47 137.895 109.731 137.942 109.796C137.957 109.828 139.151 111.06 139.167 111.092C139.198 111.157 141.721 109.433 141.768 109.515C141.783 109.547 142.499 110.876 142.515 110.909C142.546 110.974 144.977 109.315 145.008 109.38C145.039 109.429 146.325 110.741 146.357 110.79C146.388 110.855 148.696 109.278 148.727 109.343C148.742 109.375 149.057 110.737 149.088 110.77C149.119 110.835 151.35 109.306 151.381 109.371C151.397 109.404 151.711 110.766 151.727 110.798C151.758 110.863 153.897 109.4 153.928 109.449C153.943 109.481 154.721 110.859 154.752 110.908C154.783 110.956 156.86 109.542 156.891 109.607C156.907 109.639 157.268 111.018 157.284 111.05C157.315 111.099 159.346 109.717 159.377 109.766C159.392 109.798 158.719 111.113 158.735 111.146C158.766 111.194 160.797 109.812 160.828 109.877C160.843 109.91 161.266 111.337 161.282 111.369C161.313 111.418 163.359 110.02 163.39 110.084C163.406 110.117 162.718 111.481 162.733 111.513C162.764 111.578 165.257 109.871 165.303 109.952" stroke="#1B1B1B" stroke-width="2.65873" stroke-linecap="round" stroke-linejoin="round"/>
<path d="M174.696 81.0543C174.696 81.0543 175.433 80.5671 175.449 80.5995C175.495 80.6804 173.569 83.8436 173.616 83.9245C173.647 83.9893 176.103 82.3165 176.134 82.3813C176.212 82.5109 172.366 86.876 172.443 87.0055C172.474 87.0541 174.317 85.7874 174.348 85.836C174.425 85.9655 170.996 90.5083 171.058 90.6379C171.089 90.6865 172.947 89.4197 172.978 89.4683C173.04 89.5654 170.052 93.038 170.114 93.1351C170.145 93.1837 172.018 91.9007 172.034 91.9655C172.081 92.0303 169.95 94.3185 169.996 94.3833C170.027 94.4318 170.872 93.7824 170.903 93.8309C170.934 93.8957 168.957 96.0379 168.988 96.1189C169.019 96.1674 170.892 94.8844 170.923 94.933C170.985 95.0302 167.967 98.5676 168.013 98.6648C168.044 98.7133 169.933 97.4303 169.964 97.4789C170.026 97.576 167.053 100.984 167.1 101.081C167.131 101.129 169.02 99.8303 169.051 99.895C169.097 99.9922 166.292 102.995 166.339 103.092C166.37 103.14 168.274 101.841 168.305 101.89C168.351 101.987 165.686 105.183 165.733 105.281C165.764 105.329 167.145 104.355 167.161 104.403C167.208 104.484 164.862 106.805 164.908 106.87C164.939 106.919 166.858 105.619 166.874 105.668C166.921 105.765 164.1 108.751 164.162 108.848C164.193 108.897 166.112 107.581 166.143 107.646" stroke="#1B1B1B" stroke-width="2.65873" stroke-linecap="round" stroke-linejoin="round"/>
<path d="M175.493 84.3554C175.493 84.3554 176.661 83.5919 176.677 83.6243C176.708 83.6729 176.024 85.7486 176.055 85.7972C176.07 85.8296 177.222 85.0337 177.238 85.0661C177.269 85.1147 176.725 87.5468 176.756 87.6115C176.772 87.6439 177.924 86.8481 177.939 86.8805C177.97 86.9453 177.473 89.5232 177.52 89.5717C177.535 89.6041 178.687 88.8083 178.703 88.8407C178.734 88.9055 178.268 91.5319 178.299 91.5805C178.315 91.6129 179.467 90.8171 179.498 90.8494C179.529 90.898 178.923 93.2167 178.954 93.2653C178.969 93.2977 180.137 92.5018 180.152 92.5342C180.183 92.599 179.764 95.3713 179.795 95.4361C179.811 95.4685 180.979 94.6726 180.994 94.705C181.025 94.7536 180.248 96.6349 180.279 96.6672C180.294 96.6996 181.462 95.9038 181.477 95.9362C181.508 95.9847 180.715 97.8012 180.731 97.8498C180.746 97.8822 181.914 97.0864 181.929 97.1188C181.96 97.1836 181.479 99.81 181.51 99.8748C181.526 99.9072 182.693 99.1114 182.709 99.1438C182.74 99.1923 182.087 101.365 182.102 101.414C182.118 101.446 183.286 100.65 183.301 100.683C183.317 100.731 182.445 102.321 182.461 102.37C182.477 102.402 183.644 101.606 183.66 101.639C183.691 101.703 183.272 104.492 183.303 104.557C183.318 104.589 184.486 103.793 184.501 103.826C184.533 103.874 183.849 106.015 183.88 106.063C183.895 106.096 185.063 105.3 185.078 105.332C185.109 105.397 184.612 108.007 184.659 108.072C184.675 108.104 185.842 107.309 185.858 107.341C185.889 107.389 185.173 109.417 185.189 109.465C185.205 109.498 186.372 108.702 186.388 108.734C186.403 108.767 186.533 110.339 186.564 110.371C186.58 110.403 186.826 110.176 186.841 110.208C186.872 110.257 186.171 111.992 186.187 112.041C186.202 112.073 187.37 111.277 187.401 111.31C187.432 111.375 186.982 114.098 187.013 114.147C187.028 114.179 188.211 113.383 188.227 113.416C188.242 113.464 187.356 115.054 187.387 115.087C187.402 115.119 188.585 114.323 188.601 114.355C188.616 114.404 187.714 115.945 187.745 115.994C187.761 116.026 188.944 115.23 188.959 115.246C188.99 115.295 189.568 117.045 189.599 117.093C189.63 117.142 191.151 116.086 191.182 116.135C191.213 116.183 192.269 117.981 192.3 118.03C192.315 118.078 193.821 117.055 193.836 117.087C193.867 117.136 195.016 119.014 195.047 119.063C195.063 119.095 196.522 118.105 196.553 118.137C196.569 118.169 196.56 119.644 196.575 119.677C196.591 119.709 198.05 118.718 198.066 118.767C198.081 118.799 197.733 120.129 197.748 120.161C197.764 120.194 199.193 119.219 199.224 119.268C199.255 119.317 200.234 121.212 200.265 121.276C200.281 121.309 201.694 120.35 201.71 120.399C201.725 120.431 201.577 121.874 201.593 121.907C201.609 121.939 203.007 120.997 203.022 121.029C203.038 121.062 202.519 122.327 202.535 122.359C202.551 122.392 203.949 121.449 203.964 121.482C203.995 121.53 204.496 123.313 204.527 123.361C204.543 123.394 205.91 122.468 205.926 122.5C205.941 122.533 205.407 123.798 205.423 123.83C205.438 123.862 206.806 122.937 206.821 122.985C206.852 123.034 207.647 125.026 207.678 125.075C207.694 125.107 209.03 124.198 209.046 124.246C209.062 124.295 209.377 126.045 209.393 126.077C209.409 126.11 210.714 125.217 210.745 125.249C210.776 125.298 211.51 127.339 211.525 127.387C211.541 127.42 212.831 126.543 212.847 126.575C212.862 126.607 213.024 128.342 213.04 128.374C213.055 128.406 214.33 127.546 214.346 127.578C214.377 127.627 214.709 129.506 214.725 129.555C214.74 129.587 216.015 128.726 216.031 128.759C216.046 128.791 215.466 130.056 215.482 130.089C215.497 130.121 216.742 129.276 216.757 129.309C216.773 129.341 216.44 130.8 216.471 130.833C216.502 130.865 217.731 130.021 217.747 130.053C217.778 130.102 218.327 132.257 218.342 132.305C218.358 132.338 219.587 131.509 219.603 131.542C219.618 131.574 219.208 133.001 219.224 133.033C219.239 133.066 220.453 132.237 220.484 132.27C220.5 132.302 220.245 133.875 220.26 133.907C220.276 133.94 221.474 133.127 221.49 133.16C221.521 133.208 221.745 135.234 221.761 135.283C221.776 135.315 222.975 134.503 222.99 134.535C223.006 134.568 222.581 136.043 222.612 136.076C222.628 136.108 223.81 135.296 223.841 135.329C223.857 135.361 223.339 136.772 223.37 136.804C223.386 136.837 224.569 136.024 224.584 136.057C224.6 136.089 223.974 137.371 223.989 137.403C224.005 137.435 225.172 136.64 225.203 136.672C225.234 136.704 224.562 138.002 224.577 138.034C224.593 138.067 225.761 137.271 225.776 137.303C225.807 137.352 226.11 139.718 226.141 139.766C226.157 139.799 227.309 139.003 227.34 139.035C227.356 139.068 226.776 140.479 226.807 140.511C226.823 140.544 227.975 139.764 227.991 139.78C228.022 139.829 227.768 141.693 227.799 141.725C227.814 141.758 228.967 140.978 228.982 141.011C228.998 141.043 228.465 142.567 228.481 142.6C228.496 142.632 229.649 141.852 229.664 141.885C229.695 141.933 229.706 144.284 229.737 144.332C229.752 144.365 230.889 143.585 230.905 143.617C230.92 143.65 230.186 144.996 230.202 145.045C230.218 145.077 231.354 144.298 231.37 144.33C231.401 144.379 231.055 146.373 231.086 146.421C231.102 146.454 232.239 145.674 232.254 145.706C232.27 145.755 231.723 147.474 231.738 147.506C231.754 147.539 232.891 146.759 232.906 146.792C232.922 146.824 232.298 148.51 232.328 148.543C232.344 148.575 233.481 147.796 233.496 147.828C233.527 147.877 233.277 150.373 233.308 150.438C233.323 150.47 234.46 149.691 234.476 149.723C234.491 149.755 233.65 151.167 233.666 151.199C233.681 151.232 234.818 150.452 234.833 150.484C234.864 150.533 234.382 152.868 234.413 152.932C234.428 152.965 235.565 152.185 235.581 152.218C235.596 152.266 234.771 153.888 234.787 153.937C234.803 153.969 235.955 153.173 235.97 153.206C236.001 153.254 235.146 154.958 235.177 154.99C235.192 155.022 236.345 154.243 236.36 154.275C236.391 154.324 235.693 156.642 235.708 156.707C235.724 156.74 236.892 155.944 236.907 155.976C236.938 156.025 235.975 157.696 235.99 157.744C236.006 157.777 237.189 156.965 237.204 156.997C237.235 157.062 236.383 159.478 236.414 159.543C236.43 159.575 237.628 158.763 237.644 158.795C237.675 158.844 236.699 161.115 236.714 161.163C236.73 161.196 237.944 160.367 237.959 160.4C238.006 160.481 237.003 163.659 237.049 163.74C237.065 163.772 238.325 162.912 238.34 162.944C238.387 163.009 237.151 165.912 237.183 165.977C237.198 166.009 238.489 165.132 238.519 165.164C238.551 165.229 237.16 167.776 237.206 167.841C237.222 167.873 238.558 166.963 238.574 166.996C238.62 167.061 237.061 169.851 237.108 169.932C237.123 169.964 238.506 169.022 238.537 169.071C238.568 169.135 236.914 171.488 236.961 171.553C236.976 171.585 238.405 170.627 238.421 170.659C238.467 170.756 236.464 174.293 236.511 174.39C236.527 174.438 238.032 173.399 238.063 173.448C238.11 173.545 235.753 177.179 235.815 177.276C235.846 177.325 237.474 176.204 237.505 176.252C237.552 176.333 235.145 179.19 235.192 179.27C235.223 179.319 236.959 178.133 236.975 178.182C237.021 178.263 234.582 180.73 234.629 180.795C234.66 180.843 236.472 179.609 236.504 179.658C236.566 179.755 233.621 182.984 233.668 183.082C233.699 183.13 235.665 181.798 235.696 181.847C235.774 181.993 231.696 186.602 231.773 186.747C231.805 186.812 234.078 185.253 234.109 185.318C234.203 185.48 228.91 190.787 229.003 190.949C229.05 191.03 231.846 189.114 231.892 189.179C232.001 189.373 225.461 194.974 225.57 195.169C225.617 195.266 229.196 192.829 229.243 192.927C229.336 193.105 222.931 197.636 223.024 197.814C223.086 197.927 227.403 194.988 227.465 195.101C227.574 195.295 220.216 200.411 220.324 200.606C220.418 200.768 224.396 197.909 224.489 198.071" stroke="#1B1B1B" stroke-width="2.65873" stroke-linecap="round" stroke-linejoin="round"/>
<path d="M80.8746 129.396C81.1701 129.915 96.7222 119.024 97.0177 119.559C97.3754 120.191 73.2133 134.63 73.571 135.262C73.6644 135.44 77.2634 132.791 77.3567 132.953C77.4967 133.213 68.1465 140.331 68.2865 140.59C68.3486 140.687 72.1024 138.135 72.1491 138.233C72.2424 138.395 66.9096 143.269 67.0029 143.431C67.0495 143.512 67.6795 142.911 67.7262 142.992C67.7884 143.105 64.2221 146.176 64.2843 146.29C64.3309 146.354 66.9308 144.583 66.962 144.647C67.0242 144.761 63.4115 147.799 63.4736 147.897C63.5048 147.962 63.7964 147.62 63.8276 147.685C63.8742 147.766 62.3604 150.867 62.407 150.948C62.4381 150.996 63.253 150.346 63.2842 150.411C63.3308 150.492 60.9341 152.848 60.9807 152.913C61.0118 152.961 62.9501 151.645 62.9658 151.693C63.0124 151.774 60.4154 154.195 60.462 154.276C60.4931 154.325 62.3392 153.057 62.3703 153.105C62.417 153.203 59.7606 156.159 59.8227 156.256C59.8538 156.305 61.5768 155.118 61.6079 155.167C61.6546 155.264 59.1539 158.544 59.2006 158.641C59.2317 158.69 60.8163 157.601 60.8473 157.633C60.8784 157.698 58.8518 160.004 58.8984 160.086C58.9141 160.134 60.4679 159.078 60.4989 159.11C60.5455 159.191 58.5064 162.162 58.5531 162.243C58.5687 162.276 60.0302 161.284 60.0612 161.333C60.1079 161.414 58.2557 164.774 58.3024 164.872C58.318 164.904 59.718 163.961 59.7336 163.994C59.7802 164.075 58.1898 167.321 58.221 167.402C58.2366 167.435 59.5751 166.525 59.5907 166.573C59.6374 166.654 58.2943 169.998 58.3409 170.079C58.3565 170.111 59.618 169.25 59.6336 169.282C59.6802 169.363 58.5836 172.625 58.6303 172.706C58.6459 172.739 59.8766 171.893 59.8922 171.926C59.9387 171.991 59.011 175.042 59.0576 175.123C59.0732 175.155 60.2732 174.342 60.2888 174.375C60.3199 174.423 59.2626 176.112 59.2937 176.161C59.3093 176.193 60.4938 175.38 60.5248 175.413C60.5559 175.461 59.5294 177.117 59.5451 177.166C59.5606 177.198 60.7452 176.402 60.7608 176.434C60.7919 176.483 59.9057 178.463 59.9368 178.512C59.9524 178.544 61.1215 177.748 61.1525 177.78C61.1836 177.829 60.3279 179.712 60.3589 179.76C60.3745 179.793 61.5283 178.996 61.5593 179.029C61.5904 179.093 61.171 181.933 61.2021 181.998C61.2177 182.03 62.3715 181.25 62.387 181.266C62.4181 181.315 61.6387 183.035 61.6698 183.068C61.6853 183.1 62.8237 182.32 62.8547 182.352C62.8859 182.417 62.542 184.916 62.5732 184.981C62.5888 185.013 63.7272 184.233 63.7428 184.265C63.7738 184.314 63.2425 186.277 63.2581 186.326C63.2737 186.358 64.4121 185.578 64.4277 185.611C64.4587 185.659 64.1445 187.882 64.1756 187.931C64.1912 187.963 65.3296 187.183 65.3452 187.215C65.3763 187.264 65.3255 189.746 65.3567 189.811C65.3723 189.843 66.5107 189.063 66.5417 189.095C66.5573 189.144 66.1177 190.913 66.1332 190.945C66.1488 190.977 67.3027 190.197 67.3183 190.23C67.3494 190.294 67.5303 192.825 67.5615 192.89C67.5771 192.922 68.7309 192.142 68.7464 192.158C68.7775 192.207 68.5545 194.121 68.5855 194.153C68.6011 194.186 69.7549 193.389 69.7859 193.422C69.8014 193.454 69.33 195.012 69.3456 195.045C69.3611 195.077 70.5303 194.281 70.5459 194.313C70.5615 194.345 70.09 195.887 70.121 195.919C70.1365 195.952 71.3057 195.155 71.3213 195.188C71.3524 195.236 71.5938 197.491 71.6249 197.54C71.6405 197.572 72.8251 196.759 72.8406 196.792C72.8717 196.84 73.1437 199.03 73.1749 199.095C73.1904 199.127 74.3904 198.314 74.406 198.347C74.4216 198.379 74.275 200.115 74.2905 200.147C74.3061 200.18 75.5061 199.367 75.5217 199.4C75.5373 199.448 75.5299 201.265 75.5455 201.297C75.5611 201.33 76.7764 200.501 76.792 200.533C76.8077 200.582 77.0317 202.382 77.0473 202.431C77.0629 202.463 77.8473 201.894 77.863 201.943C77.8785 201.975 77.9152 203.273 77.9307 203.306C77.9463 203.338 79.177 202.493 79.208 202.525C79.2236 202.558 78.612 203.824 78.6275 203.856C78.6431 203.889 79.8893 203.043 79.9048 203.076C79.9359 203.124 80.1757 205.006 80.1913 205.038C80.2069 205.07 81.453 204.225 81.484 204.258C81.5151 204.306 81.8321 206.204 81.8631 206.236C81.8787 206.269 83.1556 205.407 83.1712 205.439C83.2022 205.488 83.875 207.58 83.9061 207.628C83.9217 207.661 85.214 206.783 85.2296 206.815C85.2451 206.848 85.3452 208.535 85.3607 208.567C85.3763 208.6 86.684 207.706 86.715 207.738C86.7305 207.77 86.4592 209.214 86.4748 209.247C86.4903 209.279 87.798 208.385 87.829 208.418C87.8601 208.466 88.393 210.347 88.4086 210.38C88.4242 210.412 89.7626 209.502 89.7782 209.534C89.7938 209.567 89.3522 210.897 89.3677 210.93C89.3833 210.962 90.7218 210.052 90.7373 210.084C90.7684 210.133 91.5949 212.095 91.626 212.143C91.6416 212.176 93.0108 211.249 93.0264 211.282C93.0419 211.314 93.1725 212.92 93.2035 212.952C93.2345 212.985 94.6191 212.042 94.6347 212.074C94.6502 212.107 94.7807 213.68 94.7962 213.712C94.8118 213.745 96.2118 212.802 96.2274 212.834C96.2585 212.883 97.0999 214.731 97.1156 214.78C97.1311 214.812 98.5619 213.853 98.5775 213.885C98.5931 213.918 98.3832 215.313 98.3988 215.346C98.4144 215.378 99.8605 214.403 99.8915 214.435C99.9225 214.468 100.3 216.105 100.331 216.138C100.362 216.17 101.808 215.179 101.839 215.227C101.855 215.26 101.583 216.623 101.599 216.655C101.614 216.688 103.107 215.68 103.138 215.712C103.169 215.761 103.979 217.495 104.01 217.544C104.026 217.593 105.533 216.552 105.564 216.601C105.58 216.633 105.138 217.932 105.154 217.964C105.169 218.013 106.708 216.956 106.723 217.005C106.739 217.037 106.39 218.368 106.405 218.4C106.421 218.449 107.959 217.392 107.975 217.441C107.991 217.473 108.152 218.966 108.167 218.998C108.198 219.047 109.767 217.974 109.783 218.006C109.799 218.039 109.728 219.45 109.743 219.482C109.774 219.531 111.343 218.458 111.359 218.491C111.375 218.523 111.319 219.934 111.335 219.967C111.366 220.015 112.966 218.91 112.997 218.959C113.012 218.991 113.311 220.337 113.327 220.37C113.358 220.418 113.696 220.077 113.727 220.126C113.743 220.158 114.718 220.871 114.734 220.903C114.765 220.952 116.411 219.814 116.442 219.862C116.457 219.895 115.861 221.161 115.877 221.193C115.908 221.242 117.554 220.104 117.585 220.153C117.601 220.185 117.252 221.516 117.267 221.532C117.298 221.581 118.99 220.427 119.021 220.459C119.037 220.491 119.229 221.935 119.244 221.967C119.275 222.016 120.967 220.846 120.998 220.894C121.029 220.943 122.24 222.547 122.271 222.596C122.302 222.644 124.056 221.441 124.072 221.49C124.087 221.522 124.557 222.982 124.572 223.03C124.603 223.079 126.403 221.844 126.434 221.892C126.45 221.925 126.024 223.239 126.055 223.272C126.086 223.32 127.901 222.085 127.917 222.133C127.932 222.166 127.923 223.545 127.939 223.577C127.97 223.626 129.831 222.358 129.862 222.407C129.878 222.455 130.857 223.946 130.888 223.979C130.919 224.027 132.842 222.711 132.873 222.775C132.888 222.808 132.694 224.154 132.709 224.187C132.741 224.236 134.663 222.919 134.695 222.967C134.71 223 134.901 224.378 134.917 224.411C134.948 224.46 136.948 223.11 136.979 223.159C137.01 223.208 138.776 224.6 138.807 224.649C138.838 224.697 140.453 223.576 140.484 223.624C140.5 223.657 141.4 224.84 141.415 224.888C141.447 224.953 143.585 223.49 143.616 223.539C143.632 223.571 143.005 224.919 143.021 224.951C143.052 225.016 145.205 223.537 145.237 223.602C145.268 223.65 146.847 224.994 146.879 225.043C146.91 225.108 149.171 223.564 149.202 223.628C149.218 223.661 150.026 225.006 150.042 225.039C150.073 225.103 152.411 223.51 152.443 223.575C152.474 223.64 154.578 224.854 154.609 224.919C154.64 224.983 157.132 223.293 157.163 223.358C157.179 223.39 157.216 224.753 157.231 224.785C157.263 224.85 159.847 223.094 159.878 223.175C159.91 223.256 162.889 223.658 162.921 223.723C162.967 223.804 162.997 223.577 163.044 223.641C163.059 223.674 164.573 224.093 164.604 224.126C164.651 224.207 167.543 222.24 167.574 222.305C167.605 222.353 169.337 223.162 169.353 223.211C169.4 223.292 171.707 221.666 171.754 221.747C171.769 221.796 173.209 222.8 173.24 222.832C173.286 222.93 176.717 220.589 176.764 220.686C176.779 220.718 176.4 222.179 176.416 222.211C176.478 222.309 180.17 219.789 180.217 219.886C180.248 219.935 182.519 220.597 182.55 220.662C182.612 220.775 185.043 218.987 185.105 219.101C185.198 219.263 191.962 216.966 192.055 217.128C192.149 217.29 192.762 216.478 192.84 216.641C192.949 216.835 200.713 213.904 200.822 214.099C201.117 214.634 214.33 205.158 214.626 205.677" stroke="#1B1B1B" stroke-width="2.65873" stroke-linecap="round" stroke-linejoin="round"/>
<path d="M98.6451 120.319C98.7695 120.53 103.061 117.328 103.185 117.555" stroke="#1B1B1B" stroke-width="2.65873" stroke-linecap="round" stroke-linejoin="round"/>
<path d="M117.489 81.1825C117.489 81.1825 118.242 80.6953 118.257 80.7114C118.304 80.8086 116.225 84.3123 116.271 84.3932C116.318 84.4742 119.02 82.6228 119.051 82.6876C119.113 82.8172 115.296 86.6636 115.358 86.7932C115.389 86.8418 117.231 85.5912 117.263 85.6398C117.309 85.7208 114.672 88.4311 114.719 88.512C114.75 88.5606 116.592 87.2939 116.623 87.3587C116.685 87.472 113.5 91.4635 113.562 91.5768C113.593 91.6254 115.435 90.3586 115.466 90.4072C115.513 90.4882 112.998 92.8904 113.029 92.9714C113.06 93.02 114.903 91.7532 114.934 91.8018C114.996 91.8989 112.1 95.2093 112.146 95.3064C112.177 95.355 114.02 94.0883 114.051 94.1369C114.113 94.2502 111.049 97.9335 111.111 98.0469C111.142 98.0955 112.985 96.8287 113.016 96.8773C113.078 96.9907 109.999 100.69 110.061 100.804C110.092 100.852 111.934 99.5854 111.965 99.634C112.012 99.715 109.96 102.392 110.007 102.473C110.038 102.522 110.068 102.376 110.083 102.424C110.13 102.505 108.127 105.685 108.173 105.766C108.204 105.814 110.062 104.547 110.078 104.596C110.124 104.677 107.426 107.517 107.473 107.598C107.504 107.647 109.362 106.38 109.393 106.428C109.455 106.542 106.269 110.517 106.331 110.63C106.362 110.679 108.22 109.412 108.251 109.461C108.282 109.526 106.723 112.088 106.754 112.153C106.785 112.202 107.337 111.731 107.368 111.78C107.43 111.877 104.412 115.447 104.474 115.56C104.505 115.609 106.363 114.342 106.394 114.39" stroke="#1B1B1B" stroke-width="2.65873" stroke-linecap="round" stroke-linejoin="round"/>
<path d="M132.984 142.225C133.031 142.306 136.141 140.193 136.187 140.274C136.249 140.371 133.655 144.153 133.702 144.266C133.764 144.38 137.905 141.552 137.968 141.665C138.03 141.762 134.877 144.799 134.939 144.896C134.986 144.977 138.096 142.864 138.142 142.945" stroke="#1B1B1B" stroke-width="2.65873" stroke-linecap="round" stroke-linejoin="round"/>
<path d="M160.068 142.18C160.115 142.261 163.225 140.148 163.271 140.229C163.333 140.326 160.754 144.107 160.801 144.205C160.863 144.318 164.989 141.506 165.051 141.603C165.098 141.701 161.961 144.737 162.023 144.835C162.069 144.915 165.18 142.803 165.226 142.884" stroke="#1B1B1B" stroke-width="2.65873" stroke-linecap="round" stroke-linejoin="round"/>
<path d="M147.004 179.362C147.004 179.362 149.898 177.493 149.945 177.574C150.007 177.671 147.552 181.371 147.598 181.485C147.645 181.598 151.34 179.079 151.387 179.176C151.433 179.273 148.449 181.986 148.496 182.083C148.542 182.164 151.391 180.214 151.437 180.295" stroke="#1B1B1B" stroke-width="2.65873" stroke-linecap="round" stroke-linejoin="round"/>
<path d="M80.5006 164.747C80.5006 164.747 82.0258 163.767 82.0413 163.8C82.0724 163.848 83.5141 165.329 83.5452 165.377C83.5763 165.443 86.1024 163.711 86.149 163.792C86.1646 163.825 86.5873 165.339 86.6028 165.372C86.634 165.437 89.16 163.705 89.2067 163.787C89.2222 163.819 88.7646 165.335 88.7956 165.368C88.8268 165.433 91.3528 163.701 91.3995 163.783C91.4305 163.832 92.6561 165.312 92.6872 165.361C92.7183 165.426 95.2443 163.694 95.291 163.776C95.3065 163.808 94.4475 165.325 94.4785 165.358C94.5096 165.423 97.0357 163.691 97.0823 163.773C97.0979 163.805 97.4279 165.32 97.4589 165.352C97.49 165.418 100.016 163.686 100.063 163.767C100.078 163.816 99.003 165.317 99.034 165.35C99.065 165.382 100.528 164.386 100.559 164.418" stroke="#1B1B1B" stroke-width="2.65873" stroke-linecap="round" stroke-linejoin="round"/>
<path d="M80.5319 173.658C80.5319 173.658 82.057 172.677 82.0726 172.71C82.1036 172.759 83.5454 174.239 83.5765 174.288C83.6076 174.353 86.1337 172.621 86.1803 172.702C86.1959 172.735 86.6185 174.25 86.6341 174.282C86.6652 174.347 89.1913 172.616 89.2379 172.697C89.2535 172.729 88.7959 174.246 88.8269 174.278C88.858 174.343 91.3841 172.612 91.4307 172.693C91.4618 172.742 92.6874 174.222 92.7184 174.271C92.7496 174.336 95.2756 172.605 95.3222 172.686C95.3378 172.719 94.4787 174.235 94.5097 174.268C94.5409 174.333 97.0669 172.601 97.1136 172.683C97.1291 172.715 97.4592 174.23 97.4902 174.263C97.5213 174.328 100.047 172.596 100.094 172.677C100.11 172.726 99.0343 174.227 99.0653 174.26C99.0963 174.292 100.56 173.296 100.591 173.328" stroke="#1B1B1B" stroke-width="2.65873" stroke-linecap="round" stroke-linejoin="round"/>
<path d="M199.414 164.481C199.414 164.481 200.939 163.501 200.954 163.534C200.985 163.582 202.427 165.063 202.458 165.111C202.489 165.177 205.015 163.445 205.062 163.526C205.078 163.559 205.5 165.073 205.516 165.106C205.547 165.171 208.073 163.439 208.12 163.521C208.135 163.553 207.678 165.07 207.709 165.102C207.74 165.167 210.266 163.435 210.313 163.517C210.344 163.566 211.569 165.046 211.6 165.095C211.631 165.16 214.157 163.428 214.204 163.51C214.22 163.542 213.361 165.059 213.392 165.092C213.423 165.157 215.949 163.425 215.995 163.507C216.011 163.539 216.341 165.054 216.372 165.086C216.403 165.152 218.929 163.42 218.976 163.501C218.991 163.55 217.916 165.051 217.947 165.084C217.978 165.116 219.441 164.12 219.472 164.152" stroke="#1B1B1B" stroke-width="2.65873" stroke-linecap="round" stroke-linejoin="round"/>
<path d="M199.444 173.389C199.444 173.389 200.969 172.408 200.985 172.441C201.016 172.49 202.458 173.97 202.489 174.019C202.52 174.084 205.046 172.352 205.092 172.434C205.108 172.466 205.531 173.981 205.546 174.013C205.577 174.078 208.103 172.347 208.15 172.428C208.166 172.461 207.708 173.977 207.739 174.009C207.77 174.075 210.296 172.343 210.343 172.424C210.374 172.473 211.599 173.954 211.631 174.002C211.662 174.068 214.188 172.336 214.234 172.417C214.25 172.45 213.391 173.967 213.422 173.999C213.453 174.064 215.979 172.333 216.026 172.414C216.041 172.447 216.371 173.961 216.402 173.994C216.433 174.059 218.959 172.327 219.006 172.409C219.022 172.457 217.946 173.958 217.977 173.991C218.008 174.024 219.472 173.027 219.503 173.059" stroke="#1B1B1B" stroke-width="2.65873" stroke-linecap="round" stroke-linejoin="round"/>
<g filter="url(#filter2_d_248_5229)">
<rect x="32.0049" y="439.17" width="60.3205" height="30.7758" rx="9.23273" fill="#1B1B1B" shape-rendering="crispEdges"/>
<path d="M52.5256 454.945H53.8354V457.023H52.5256V454.945ZM53.1854 450.277C55.1353 450.277 56.5929 451.272 56.5929 452.789C56.5929 454.325 55.1353 455.31 53.1854 455.31C51.2354 455.31 49.7779 454.325 49.7779 452.789C49.7779 451.272 51.2354 450.277 53.1854 450.277ZM53.1854 451.311C51.9347 451.311 51.068 451.863 51.068 452.789C51.068 453.734 51.9347 454.276 53.1854 454.276C54.4361 454.276 55.3028 453.734 55.3028 452.789C55.3028 451.863 54.4361 451.311 53.1854 451.311ZM49.0688 456.817H57.3217V457.88H49.0688V456.817ZM57.9413 456.777H66.1942V457.851H57.9413V456.777ZM58.808 450.405H60.1079V451.883H63.998V450.405H65.298V455.27H58.808V450.405ZM60.1079 452.897V454.236H63.998V452.897H60.1079ZM73.3925 449.814H74.6333V458.934H73.3925V449.814ZM70.3887 452.927H71.8955V453.99H70.3887V452.927ZM71.5508 449.962H72.772V458.52H71.5508V449.962ZM68.4191 451.302H69.4039V452.237C69.4039 454.286 68.8426 456.324 67.3949 457.23L66.6169 456.265C67.9562 455.428 68.4191 453.793 68.4191 452.237V451.302ZM68.7145 451.302H69.6895V452.237C69.6895 453.754 70.1425 455.29 71.4622 456.058L70.694 457.014C69.2463 456.157 68.7145 454.246 68.7145 452.237V451.302ZM66.9615 450.73H71.0289V451.784H66.9615V450.73Z" fill="white"/>
</g>
<g filter="url(#filter3_d_248_5229)">
<rect x="102.79" y="439.17" width="52.9343" height="30.7758" rx="9.23273" fill="#F2F1F6" shape-rendering="crispEdges"/>
<path d="M122.295 450.336H123.32V451.38C123.32 452.936 122.699 454.483 121.212 455.123L120.523 454.108C121.793 453.547 122.295 452.414 122.295 451.38V450.336ZM122.532 450.336H123.556V451.38C123.556 452.395 124.039 453.38 125.24 453.882L124.551 454.876C123.133 454.295 122.532 452.897 122.532 451.38V450.336ZM127.18 449.824H128.421V455.349H127.18V449.824ZM126.087 452.03H127.535V453.094H126.087V452.03ZM125.25 449.962H126.471V455.3H125.25V449.962ZM122.158 455.743H128.421V458.934H127.121V456.787H122.158V455.743ZM131.522 450.307H132.596V451.114C132.596 452.927 131.808 454.522 130.075 455.123L129.376 454.089C130.902 453.577 131.522 452.355 131.522 451.114V450.307ZM131.788 450.307H132.852V451.242C132.852 452.336 133.463 453.399 134.891 453.842L134.211 454.857C132.566 454.305 131.788 452.887 131.788 451.242V450.307ZM135.393 449.814H136.703V455.201H135.393V449.814ZM136.338 451.922H137.914V453.005H136.338V451.922ZM133.728 455.408C135.619 455.408 136.811 456.068 136.811 457.171C136.811 458.284 135.619 458.934 133.728 458.934C131.828 458.934 130.636 458.284 130.636 457.171C130.636 456.068 131.828 455.408 133.728 455.408ZM133.728 456.423C132.566 456.423 131.936 456.669 131.936 457.171C131.936 457.683 132.566 457.92 133.728 457.92C134.891 457.92 135.511 457.683 135.511 457.171C135.511 456.669 134.891 456.423 133.728 456.423Z" fill="#1B1B1B"/>
</g>
<g filter="url(#filter4_d_248_5229)">
<rect x="254.821" y="340.072" width="61.5516" height="61.5516" rx="9.23273" fill="white"/>
</g>
<g filter="url(#filter5_d_248_5229)">
<rect x="164.957" y="439.17" width="44.3171" height="30.7758" rx="9.23273" fill="#F2F1F6" shape-rendering="crispEdges"/>
<path d="M180.538 450.829H181.611V451.4C181.611 453.143 180.794 454.709 179.031 455.29L178.381 454.256C179.898 453.754 180.538 452.562 180.538 451.4V450.829ZM180.804 450.829H181.867V451.4C181.867 452.464 182.478 453.508 183.945 453.951L183.325 454.975C181.592 454.453 180.804 453.025 180.804 451.4V450.829ZM178.726 450.425H183.65V451.469H178.726V450.425ZM184.379 449.814H185.689V455.221H184.379V449.814ZM185.324 451.912H186.9V452.986H185.324V451.912ZM182.714 455.389C184.605 455.389 185.797 456.048 185.797 457.161C185.797 458.274 184.605 458.934 182.714 458.934C180.814 458.934 179.622 458.274 179.622 457.161C179.622 456.048 180.814 455.389 182.714 455.389ZM182.714 456.413C181.552 456.413 180.922 456.649 180.922 457.161C180.922 457.673 181.552 457.929 182.714 457.929C183.876 457.929 184.497 457.673 184.497 457.161C184.497 456.649 183.876 456.413 182.714 456.413ZM189.519 450.228H190.602V451.105C190.602 452.828 189.765 454.394 187.982 454.965L187.342 453.931C188.879 453.439 189.519 452.257 189.519 451.105V450.228ZM189.785 450.228H190.858V451.105C190.858 452.227 191.488 453.33 192.975 453.783L192.335 454.808C190.592 454.256 189.785 452.798 189.785 451.105V450.228ZM188.741 455.654H194.965V458.934H193.645V456.698H188.741V455.654ZM193.645 449.814H194.965V455.251H193.645V449.814Z" fill="#1B1B1B"/>
</g>
<g filter="url(#filter6_d_248_5229)">
<rect x="218.506" y="439.17" width="67.0912" height="30.7758" rx="9.23273" fill="#F2F1F6" shape-rendering="crispEdges"/>
<path d="M245.426 455.91V455.791C245.429 455.383 245.465 455.058 245.535 454.816C245.607 454.573 245.712 454.377 245.849 454.228C245.987 454.079 246.153 453.944 246.346 453.822C246.491 453.729 246.62 453.632 246.734 453.532C246.848 453.432 246.939 453.321 247.007 453.2C247.075 453.076 247.108 452.939 247.108 452.787C247.108 452.626 247.07 452.485 246.993 452.364C246.916 452.243 246.812 452.149 246.682 452.084C246.554 452.019 246.411 451.986 246.255 451.986C246.104 451.986 245.96 452.02 245.825 452.088C245.69 452.153 245.579 452.251 245.493 452.381C245.406 452.51 245.36 452.669 245.353 452.861H243.926C243.938 452.394 244.05 452.01 244.262 451.706C244.474 451.401 244.755 451.174 245.105 451.024C245.454 450.873 245.84 450.797 246.262 450.797C246.726 450.797 247.136 450.874 247.493 451.028C247.85 451.18 248.13 451.4 248.332 451.689C248.535 451.978 248.637 452.327 248.637 452.735C248.637 453.007 248.591 453.25 248.5 453.462C248.412 453.672 248.287 453.858 248.126 454.022C247.965 454.183 247.775 454.328 247.556 454.459C247.372 454.568 247.22 454.683 247.101 454.802C246.985 454.92 246.897 455.058 246.839 455.214C246.783 455.37 246.754 455.563 246.752 455.791V455.91H245.426ZM246.119 458.148C245.886 458.148 245.686 458.067 245.521 457.904C245.358 457.738 245.277 457.54 245.279 457.309C245.277 457.081 245.358 456.885 245.521 456.722C245.686 456.558 245.886 456.477 246.119 456.477C246.34 456.477 246.535 456.558 246.703 456.722C246.871 456.885 246.956 457.081 246.958 457.309C246.956 457.463 246.915 457.604 246.836 457.732C246.759 457.858 246.657 457.96 246.531 458.036C246.406 458.111 246.268 458.148 246.119 458.148ZM250.779 455.91V455.791C250.781 455.383 250.817 455.058 250.887 454.816C250.959 454.573 251.064 454.377 251.202 454.228C251.34 454.079 251.505 453.944 251.699 453.822C251.843 453.729 251.973 453.632 252.087 453.532C252.201 453.432 252.292 453.321 252.36 453.2C252.427 453.076 252.461 452.939 252.461 452.787C252.461 452.626 252.423 452.485 252.346 452.364C252.269 452.243 252.165 452.149 252.034 452.084C251.906 452.019 251.764 451.986 251.608 451.986C251.456 451.986 251.313 452.02 251.177 452.088C251.042 452.153 250.932 452.251 250.845 452.381C250.759 452.51 250.712 452.669 250.705 452.861H249.278C249.29 452.394 249.402 452.01 249.614 451.706C249.826 451.401 250.107 451.174 250.457 451.024C250.807 450.873 251.193 450.797 251.615 450.797C252.079 450.797 252.489 450.874 252.846 451.028C253.202 451.18 253.482 451.4 253.685 451.689C253.888 451.978 253.989 452.327 253.989 452.735C253.989 453.007 253.944 453.25 253.853 453.462C253.764 453.672 253.64 453.858 253.479 454.022C253.318 454.183 253.128 454.328 252.909 454.459C252.724 454.568 252.573 454.683 252.454 454.802C252.337 454.92 252.25 455.058 252.192 455.214C252.136 455.37 252.107 455.563 252.104 455.791V455.91H250.779ZM251.471 458.148C251.238 458.148 251.039 458.067 250.873 457.904C250.71 457.738 250.63 457.54 250.632 457.309C250.63 457.081 250.71 456.885 250.873 456.722C251.039 456.558 251.238 456.477 251.471 456.477C251.693 456.477 251.887 456.558 252.055 456.722C252.223 456.885 252.308 457.081 252.311 457.309C252.308 457.463 252.267 457.604 252.188 457.732C252.111 457.858 252.01 457.96 251.884 458.036C251.758 458.111 251.62 458.148 251.471 458.148ZM256.131 455.91V455.791C256.134 455.383 256.17 455.058 256.24 454.816C256.312 454.573 256.417 454.377 256.554 454.228C256.692 454.079 256.858 453.944 257.051 453.822C257.196 453.729 257.325 453.632 257.439 453.532C257.554 453.432 257.644 453.321 257.712 453.2C257.78 453.076 257.814 452.939 257.814 452.787C257.814 452.626 257.775 452.485 257.698 452.364C257.621 452.243 257.517 452.149 257.387 452.084C257.259 452.019 257.116 451.986 256.96 451.986C256.809 451.986 256.665 452.02 256.53 452.088C256.395 452.153 256.284 452.251 256.198 452.381C256.112 452.51 256.065 452.669 256.058 452.861H254.631C254.643 452.394 254.755 452.01 254.967 451.706C255.179 451.401 255.46 451.174 255.81 451.024C256.159 450.873 256.545 450.797 256.967 450.797C257.431 450.797 257.841 450.874 258.198 451.028C258.555 451.18 258.835 451.4 259.038 451.689C259.24 451.978 259.342 452.327 259.342 452.735C259.342 453.007 259.296 453.25 259.205 453.462C259.117 453.672 258.992 453.858 258.831 454.022C258.67 454.183 258.48 454.328 258.261 454.459C258.077 454.568 257.925 454.683 257.807 454.802C257.69 454.92 257.603 455.058 257.544 455.214C257.488 455.37 257.459 455.563 257.457 455.791V455.91H256.131ZM256.824 458.148C256.591 458.148 256.391 458.067 256.226 457.904C256.063 457.738 255.982 457.54 255.984 457.309C255.982 457.081 256.063 456.885 256.226 456.722C256.391 456.558 256.591 456.477 256.824 456.477C257.045 456.477 257.24 456.558 257.408 456.722C257.576 456.885 257.661 457.081 257.663 457.309C257.661 457.463 257.62 457.604 257.541 457.732C257.464 457.858 257.362 457.96 257.236 458.036C257.111 458.111 256.973 458.148 256.824 458.148Z" fill="#1B1B1B"/>
</g>
<g filter="url(#filter7_d_248_5229)">
<rect x="103.405" y="340.072" width="61.5516" height="61.5516" rx="9.23273" fill="white" shape-rendering="crispEdges"/>
<circle opacity="0.4" cx="134.181" cy="370.847" r="17.2344" fill="#93A2B7"/>
</g>
<g filter="url(#filter8_d_248_5229)">
<rect x="179.113" y="340.072" width="61.5516" height="61.5516" rx="9.23273" fill="white" shape-rendering="crispEdges"/>
<path opacity="0.4" d="M209.581 350.843L226.906 380.849H192.257L209.581 350.843Z" fill="#93A2B7"/>
</g>
<g filter="url(#filter9_d_248_5229)">
<rect x="190.809" y="274.827" width="78.786" height="34.4689" rx="17.2344" fill="#1B1B1B" shape-rendering="crispEdges"/>
<path d="M214.673 291.011H215.983V292.39H214.673V291.011ZM215.313 287.683C216.633 287.683 217.588 288.441 217.588 289.544C217.588 290.627 216.633 291.386 215.313 291.386C213.994 291.386 213.038 290.627 213.038 289.544C213.038 288.441 213.994 287.683 215.313 287.683ZM215.313 288.668C214.693 288.668 214.259 288.983 214.259 289.544C214.259 290.096 214.693 290.411 215.313 290.411C215.944 290.411 216.367 290.096 216.367 289.544C216.367 288.983 215.944 288.668 215.313 288.668ZM218.524 287.328H219.834V294.281H218.524V287.328ZM219.371 290.184H220.976V291.258H219.371V290.184ZM213.747 295.226H220.139V296.28H213.747V295.226ZM213.747 293.68H215.067V295.679H213.747V293.68ZM212.713 293.099L212.566 292.055C214.112 292.055 216.249 292.045 218.041 291.789L218.13 292.725C216.288 293.07 214.22 293.099 212.713 293.099ZM223.585 287.791H224.678V288.608C224.678 290.44 223.861 292.045 222.068 292.646L221.389 291.592C222.945 291.09 223.585 289.859 223.585 288.608V287.791ZM223.861 287.791H224.914V288.549C224.914 289.761 225.505 290.883 226.953 291.346L226.274 292.37C224.59 291.789 223.861 290.322 223.861 288.549V287.791ZM227.79 287.318H229.1V292.656H227.79V287.318ZM226.008 292.892C227.938 292.892 229.13 293.552 229.13 294.665C229.13 295.788 227.938 296.438 226.008 296.438C224.077 296.438 222.886 295.788 222.886 294.665C222.886 293.552 224.077 292.892 226.008 292.892ZM226.008 293.907C224.826 293.907 224.196 294.153 224.196 294.665C224.196 295.177 224.826 295.433 226.008 295.433C227.199 295.433 227.83 295.177 227.83 294.665C227.83 294.153 227.199 293.907 226.008 293.907ZM226.126 288.973H227.977V290.036H226.126V288.973ZM236.19 287.318H237.49V296.438H236.19V287.318ZM237.194 290.874H238.81V291.967H237.194V290.874ZM230.301 288.668H235.609V289.711H230.301V288.668ZM232.97 290.224C234.299 290.224 235.284 291.13 235.284 292.4C235.284 293.67 234.299 294.576 232.97 294.576C231.64 294.576 230.655 293.67 230.655 292.4C230.655 291.13 231.64 290.224 232.97 290.224ZM232.97 291.287C232.349 291.287 231.906 291.701 231.906 292.4C231.906 293.099 232.349 293.513 232.97 293.513C233.59 293.513 234.033 293.099 234.033 292.4C234.033 291.701 233.59 291.287 232.97 291.287ZM232.31 287.466H233.62V289.061H232.31V287.466ZM245.496 287.318H246.815V296.438H245.496V287.318ZM242.807 288.264H244.107C244.107 291.051 243.162 293.336 239.922 294.901L239.242 293.858C241.862 292.597 242.807 290.942 242.807 288.5V288.264ZM239.725 288.264H243.428V289.298H239.725V288.264Z" fill="white"/>
</g>
<g filter="url(#filter10_d_248_5229)">
<rect x="27.6963" y="340.072" width="61.5516" height="61.5516" rx="9.23273" fill="#F2F1F6" shape-rendering="crispEdges"/>
<path d="M57.818 372.826C58.2293 372.825 58.5618 372.495 58.5607 372.09C58.5596 371.684 58.2253 371.356 57.814 371.357C57.4028 371.358 57.0702 371.688 57.0713 372.094C57.0724 372.5 57.4067 372.828 57.818 372.826Z" fill="#1B1B1B"/>
<path d="M64.4077 372.809C64.7984 372.808 65.1143 372.479 65.1132 372.073C65.1121 371.667 64.7945 371.339 64.4038 371.34C64.013 371.341 63.6972 371.671 63.6983 372.077C63.6994 372.482 64.017 372.81 64.4077 372.809Z" fill="#1B1B1B"/>
<path d="M61.1548 381.556C61.5455 381.555 61.8614 381.225 61.8603 380.819C61.8592 380.413 61.5416 380.085 61.1508 380.086C60.7601 380.087 60.4442 380.417 60.4453 380.823C60.4464 381.229 60.7641 381.557 61.1548 381.556Z" fill="#1B1B1B"/>
<path d="M44.6475 377.038L49.4136 377.025" stroke="#1B1B1B" stroke-width="0.104504" stroke-miterlimit="10"/>
<path d="M44.6523 379.127L49.4185 379.114" stroke="#1B1B1B" stroke-width="0.104504" stroke-miterlimit="10"/>
<path d="M72.7969 376.962L77.563 376.949" stroke="#1B1B1B" stroke-width="0.104504" stroke-miterlimit="10"/>
<path d="M72.8018 379.05L77.5679 379.037" stroke="#1B1B1B" stroke-width="0.104504" stroke-miterlimit="10"/>
<path d="M67.4309 353.924C67.4309 353.924 67.6124 353.805 67.6162 353.813C67.6238 353.829 67.2503 354.353 67.2617 354.369C67.2693 354.38 67.7191 354.076 67.7267 354.088C67.742 354.116 66.9907 355.007 67.006 355.034C67.0174 355.058 67.8755 354.481 67.8869 354.501C67.9021 354.528 67.1017 355.439 67.117 355.466C67.136 355.502 67.8276 354.992 67.8467 355.024C67.8581 355.043 67.2538 355.647 67.2652 355.666C67.288 355.706 67.4617 355.497 67.4845 355.536C67.4997 355.564 66.5059 356.361 66.5211 356.388C66.5477 356.435 67.7308 355.598 67.7574 355.641C67.7841 355.685 66.3599 357.006 66.3827 357.049C66.4132 357.108 68.2768 355.829 68.3072 355.888C68.3339 355.935 66.5232 357.167 66.5498 357.214C66.5841 357.277 67.4457 356.586 67.4837 356.653C67.4951 356.669 66.9323 357.217 66.9437 357.236C66.9818 357.307 68.1496 356.415 68.1877 356.486C68.2067 356.521 67.0051 357.539 67.0242 357.574C67.066 357.653 67.9426 356.915 67.9845 356.994C68.0073 357.033 66.6775 358.216 66.6965 358.255C66.746 358.342 67.5583 357.62 67.6077 357.706C67.6382 357.761 65.6272 359.131 65.6576 359.186C65.7109 359.281 68.6102 357.279 68.6634 357.373C68.7015 357.44 66.3392 359.161 66.3772 359.228C66.4343 359.33 68.3429 357.901 68.4 358.007C68.4457 358.09 65.3683 360.025 65.4139 360.103C65.4748 360.213 68.079 358.346 68.1437 358.456" stroke="#EAEAEA" stroke-width="0.651992" stroke-linecap="round" stroke-linejoin="round"/>
<path d="M43.8074 365.77C43.8797 365.896 47.7391 363.227 47.8114 363.356C47.876 363.47 43.3917 366.109 43.4564 366.227C43.5591 366.408 49.3691 362.416 49.4681 362.601C49.5822 362.805 41.7556 367.463 41.8697 367.663C42.0752 368.028 54.7878 359.382 54.9933 359.747C55.1987 360.112 41.2911 367.948 41.4927 368.301C41.7096 368.686 55.337 359.435 55.5539 359.82C55.7708 360.205 41.2241 368.396 41.4296 368.769C41.6541 369.17 55.6671 359.643 55.8916 360.043C56.1161 360.444 39.8679 369.646 40.1 370.062C40.3322 370.479 55.2789 360.348 55.5111 360.768C55.7432 361.188 39.7105 370.256 39.9388 370.669C40.1672 371.081 55.0345 360.989 55.2742 361.417C55.5025 361.826 39.6441 370.917 39.8724 371.325C40.135 371.797 56.3631 360.75 56.6257 361.221C56.8654 361.649 40.1107 371.223 40.3505 371.651C40.6321 372.157 57.2834 360.759 57.565 361.266C57.8466 361.772 38.9212 372.484 39.1914 372.967C39.492 373.505 58.4192 360.646 58.7236 361.188C59.0052 361.69 39.2325 372.778 39.5141 373.281C39.83 373.842 59.2447 360.628 59.5606 361.189C59.8498 361.708 39.4753 372.935 39.7645 373.453C40.088 374.03 60.8449 359.967 61.1683 360.544C61.4918 361.121 39.8314 372.973 40.1359 373.523C40.4669 374.112 60.2028 360.629 60.5339 361.218C60.8421 361.772 39.0873 373.703 39.3956 374.252C39.7342 374.853 60.6762 360.612 61.0148 361.213C61.3269 361.771 39.4368 374.087 39.7488 374.649C40.0989 375.273 62.6551 359.993 63.0052 360.622C63.3553 361.25 39.8235 374.263 40.1584 374.86C40.5161 375.5 62.403 360.584 62.7645 361.224C63.126 361.864 39.0384 375.201 39.3808 375.814C39.75 376.473 63.633 360.301 64.0021 360.961C64.3713 361.621 39.4555 375.416 39.8094 376.048C40.247 376.83 67.8005 358.119 68.2381 358.901C68.6757 359.682 39.0138 375.913 39.4362 376.667C39.8586 377.421 68.7127 357.96 69.1504 358.741C69.588 359.522 39.8501 375.69 40.2725 376.44C40.6949 377.19 68.4224 358.413 68.86 359.194C69.2976 359.975 39.8741 376.178 40.2889 376.924C40.7266 377.709 69.0059 358.553 69.4436 359.338C69.8812 360.123 39.751 376.859 40.181 377.624C40.611 378.39 68.3082 359.608 68.7458 360.394C69.1606 361.136 39.8236 377.102 40.2384 377.844C40.676 378.63 68.2408 359.904 68.6784 360.689C69.0932 361.427 40.0139 377.452 40.4287 378.19C40.8663 378.971 69.3272 359.712 69.7686 360.493C70.21 361.275 40.7559 377.351 41.1707 378.098C41.5855 378.844 69.6268 359.888 70.0644 360.669C70.5021 361.451 40.712 377.926 41.1382 378.684C41.5644 379.441 69.031 360.814 69.4648 361.595C69.8986 362.377 40.5997 378.425 41.0145 379.168C41.4521 379.949 69.7731 360.78 70.207 361.558C70.6408 362.335 40.9866 378.633 41.4052 379.387C41.8238 380.141 69.6231 361.323 70.0569 362.105C70.4908 362.886 41.3472 378.962 41.762 379.7C42.1996 380.482 70.4223 361.368 70.8599 362.15C71.2975 362.931 41.7981 379.047 42.2167 379.794C42.6581 380.579 70.3477 361.774 70.7853 362.559C71.2229 363.344 41.2743 380.016 41.7005 380.778C42.1267 381.54 71.6728 361.636 72.118 362.43C72.5632 363.223 42.5649 379.718 42.9911 380.48C43.4401 381.281 71.0804 362.468 71.5257 363.269C71.9443 364.015 42.6422 380.304 43.0608 381.05C43.5136 381.855 71.6756 362.71 72.1247 363.519C72.5737 364.328 42.4396 380.996 42.8696 381.762C43.3224 382.575 72.441 362.838 72.8938 363.65C73.3162 364.404 43.4915 380.663 43.9139 381.421C44.3705 382.234 73.1564 362.694 73.613 363.507C74.0696 364.32 42.8532 381.306 43.2984 382.099C43.7437 382.892 73.7205 362.657 74.1772 363.474C74.6338 364.291 43.8029 380.985 44.2405 381.762C44.6781 382.54 73.6455 362.933 74.1022 363.749C74.5588 364.566 43.5778 381.772 44.0192 382.561C44.4607 383.35 73.5263 363.664 73.983 364.485C74.413 365.255 44.0859 381.991 44.5159 382.76C44.9763 383.585 74.3594 363.658 74.8199 364.479C75.2537 365.256 44.7794 382.185 45.2132 382.963C45.6737 383.787 74.6107 364.129 75.0711 364.954C75.5011 365.724 45.337 382.534 45.7671 383.303C46.2275 384.128 75.3157 364.375 75.7762 365.2C76.2366 366.024 44.9829 383.227 45.4282 384.024C45.8734 384.821 76.3569 364.262 76.8211 365.091C77.2854 365.919 45.9711 383.142 46.4163 383.935C46.8616 384.728 76.3166 364.797 76.7809 365.622C77.2451 366.446 45.7799 383.854 46.2289 384.655C46.678 385.456 76.6737 365.19 77.1341 366.01C77.5946 366.831 46.594 383.801 47.0316 384.586C47.4692 385.371 76.6899 365.595 77.1504 366.419C77.5728 367.177 47.7484 383.577 48.1746 384.331C48.6313 385.152 76.8385 365.944 77.2952 366.765C77.7176 367.519 47.9574 383.813 48.3797 384.567C48.8364 385.383 77.5617 365.871 78.0183 366.688C78.4483 367.458 48.2271 384.154 48.6572 384.924C49.1138 385.736 78.5197 365.822 78.9763 366.634C79.4329 367.447 48.0505 384.642 48.4957 385.435C48.9409 386.228 78.1956 366.436 78.6485 367.249C79.0747 368.011 49.1598 384.553 49.586 385.314C50.0389 386.119 78.4429 366.829 78.8919 367.637C79.3105 368.387 49.8118 384.779 50.2304 385.529C50.6794 386.33 78.6941 367.292 79.1393 368.089C79.5579 368.839 49.9679 385.097 50.3866 385.851C50.8318 386.648 79.3947 367.29 79.8361 368.087C80.2775 368.884 50.1053 385.482 50.5353 386.248C50.9653 387.013 79.4829 367.73 79.9281 368.519C80.3429 369.258 51.1686 385.137 51.5833 385.875C52.0247 386.661 79.1434 368.199 79.581 368.988C79.992 369.723 50.9729 385.61 51.3839 386.348C51.8215 387.129 80.0555 368.008 80.4894 368.789C80.9232 369.571 50.9209 385.995 51.3471 386.757C51.7733 387.519 80.1965 368.318 80.6303 369.092C81.0375 369.822 52.2642 385.567 52.6713 386.297C53.1014 387.067 79.6189 369.012 80.0489 369.781C80.4523 370.5 52.023 386.004 52.4263 386.726C52.8526 387.492 79.7899 369.2 80.2161 369.962C80.608 370.661 53.0223 385.828 53.4142 386.527C53.8366 387.285 80.5471 369.147 80.9695 369.905C81.3653 370.615 53.4052 385.973 53.8009 386.683C54.2195 387.433 80.3365 369.674 80.7589 370.424C81.1508 371.123 53.6177 386.149 54.0097 386.848C54.4245 387.59 81.101 369.511 81.5158 370.257C81.9078 370.96 54.2237 386.159 54.6194 386.862C55.0152 387.565 80.569 370.224 80.98 370.963C81.3567 371.634 54.8601 386.248 55.2369 386.923C55.6441 387.65 80.4416 370.748 80.8488 371.474C81.2217 372.142 54.9752 386.782 55.3519 387.45C55.7515 388.161 81.2222 370.895 81.6217 371.606C81.987 372.258 56.4665 386.487 56.8318 387.135C57.22 387.83 81.1255 371.552 81.5136 372.247C81.8675 372.879 57.0505 386.789 57.4044 387.421C57.785 388.1 81.2633 372.122 81.6439 372.801C81.9863 373.414 57.963 386.707 58.3017 387.32C58.6746 387.984 81.1474 372.653 81.5165 373.317C81.8628 373.933 57.677 387.389 58.0195 388.005C58.381 388.653 82.3587 372.457 82.724 373.105C83.0893 373.753 58.4567 387.245 58.8068 387.873C59.1569 388.501 82.4655 372.752 82.8232 373.388C83.1809 374.024 59.3579 387.179 59.6966 387.784C60.0352 388.389 81.3628 373.887 81.7091 374.508C82.0211 375.061 60.2366 387.216 60.5486 387.77C60.8835 388.371 82.1279 373.952 82.4628 374.553C82.7977 375.154 60.3661 387.495 60.6857 388.065C61.0054 388.634 81.4862 374.74 81.8097 375.321C82.1027 375.844 61.5889 387.339 61.8819 387.861C62.1939 388.422 82.4405 374.71 82.7526 375.272C83.0646 375.833 62.04 387.522 62.3407 388.06C62.6413 388.598 82.1848 375.372 82.4854 375.909C82.7708 376.416 62.7708 387.477 63.0562 387.983C63.3416 388.49 81.8984 375.927 82.1877 376.445C82.4388 376.897 64.7689 386.921 65.0238 387.373C65.294 387.859 81.1515 376.994 81.4217 377.481C81.6614 377.909 64.8344 387.33 65.0741 387.762C65.3329 388.221 81.3985 377.301 81.6534 377.76C81.8703 378.149 66.753 386.802 66.9699 387.19C67.2058 387.61 80.6326 378.384 80.8686 378.808C81.055 379.146 68.0065 386.782 68.1929 387.12C68.3984 387.489 80.3472 379.293 80.5565 379.662C80.7163 379.945 69.664 386.326 69.8238 386.608C70.0064 386.934 80.8969 379.496 81.0796 379.818C81.228 380.085 70.8713 386.047 71.0235 386.314C71.1757 386.581 79.3594 380.916 79.5116 381.195C79.6068 381.364 73.2252 385.443 73.3203 385.612C73.4155 385.781 78.2198 382.421 78.3149 382.598" stroke="#EAEAEA" stroke-width="0.651992" stroke-linecap="round" stroke-linejoin="round"/>
<path d="M53.403 353.962C53.403 353.962 53.5844 353.844 53.5882 353.851C53.5996 353.875 53.0869 354.726 53.1021 354.745C53.1135 354.761 53.7713 354.319 53.7789 354.339C53.7941 354.37 52.8612 355.301 52.8765 355.328C52.8917 355.355 53.9047 354.672 53.92 354.7C53.9314 354.72 53.3234 355.354 53.3348 355.374C53.3538 355.409 53.5993 355.169 53.6184 355.204C53.626 355.216 53.514 355.818 53.5216 355.83C53.5482 355.877 53.5706 355.739 53.5972 355.786C53.6086 355.806 52.9438 356.417 52.9552 356.437C52.9856 356.488 53.6015 355.979 53.632 356.03C53.6548 356.069 52.2379 357.253 52.2607 357.292C52.295 357.351 53.7425 356.317 53.7768 356.375C53.8034 356.423 52.1447 357.807 52.1713 357.854C52.2132 357.925 53.672 356.852 53.7139 356.926C53.7329 356.958 52.7435 357.987 52.7588 358.018C52.8044 358.1 54.0401 357.134 54.0858 357.216C54.1239 357.287 51.5157 359.071 51.5538 359.142C51.6032 359.232 54.5591 357.207 54.6086 357.297C54.6467 357.368 52.1031 359.243 52.1412 359.313C52.1983 359.415 53.8724 358.133 53.9295 358.235C53.9599 358.286 52.0739 359.628 52.1005 359.679C52.1614 359.789 53.8506 358.475 53.9115 358.585C53.9495 358.652 51.5838 360.467 51.6219 360.534C51.6904 360.656 54.8427 358.429 54.9074 358.551C54.972 358.665 50.6812 361.378 50.7459 361.492C50.8182 361.621 55.3844 358.518 55.4567 358.648" stroke="#EAEAEA" stroke-width="0.651992" stroke-linecap="round" stroke-linejoin="round"/>
<path d="M53.5884 354.312C53.5884 354.312 53.8832 354.122 53.8908 354.13C53.8985 354.146 53.7828 354.807 53.7904 354.818C53.7943 354.826 54.0853 354.629 54.0929 354.637C54.1005 354.652 53.9773 355.294 53.9849 355.309C53.9887 355.317 54.2836 355.12 54.2874 355.128C54.295 355.139 54.0802 355.553 54.084 355.565C54.0879 355.573 54.3827 355.375 54.3865 355.383C54.3941 355.395 54.1832 355.816 54.187 355.828C54.1908 355.836 54.4857 355.638 54.4895 355.646C54.4971 355.658 54.3434 356.233 54.351 356.248C54.3548 356.256 54.6496 356.059 54.6534 356.067C54.661 356.078 54.4539 356.515 54.4578 356.523C54.4616 356.531 54.7564 356.334 54.7602 356.341C54.7678 356.357 54.6332 356.979 54.6408 356.995C54.6446 357.002 54.9394 356.805 54.9433 356.813C54.9509 356.829 54.8048 357.427 54.8162 357.438C54.82 357.446 55.1148 357.249 55.1186 357.257C55.1263 357.272 54.9954 357.906 55.003 357.922C55.0069 357.929 55.3017 357.732 55.3055 357.74C55.3131 357.752 55.1289 358.252 55.1365 358.263C55.1403 358.271 55.4352 358.074 55.439 358.082C55.4428 358.09 55.209 358.452 55.2128 358.464C55.2166 358.472 55.5114 358.274 55.5153 358.282C55.5229 358.298 55.3806 358.904 55.3882 358.919C55.392 358.927 55.6869 358.73 55.6945 358.738C55.7021 358.753 55.5789 359.406 55.5865 359.418C55.5903 359.426 55.8851 359.225 55.8927 359.233C55.9003 359.248 55.7695 359.882 55.7771 359.897C55.7809 359.905 56.0795 359.704 56.0833 359.712C56.091 359.724 55.8915 360.192 55.8991 360.204C55.9029 360.212 56.2016 360.01 56.2054 360.018C56.213 360.03 56.0097 360.483 56.0135 360.495C56.0173 360.502 56.3159 360.301 56.3197 360.309C56.3274 360.325 56.3063 360.954 56.3139 360.966C56.3254 360.985 57.036 360.504 57.0474 360.523C57.0512 360.531 57.1884 360.845 57.1922 360.853C57.2036 360.873 57.8727 360.419 57.8803 360.438C57.8841 360.446 57.7487 360.789 57.7525 360.797C57.7639 360.812 58.3876 360.39 58.399 360.406C58.4028 360.413 58.6952 360.711 58.699 360.719C58.7066 360.735 59.3266 360.316 59.338 360.336C59.3418 360.344 59.5169 360.666 59.5207 360.674C59.5283 360.69 60.1255 360.287 60.1332 360.303C60.1408 360.314 60.4559 360.632 60.4635 360.644C60.4711 360.659 61.0382 360.276 61.0458 360.292C61.0496 360.3 61.1262 360.63 61.1338 360.638C61.1414 360.654 61.6895 360.283 61.6971 360.298C61.7009 360.306 61.7776 360.636 61.7814 360.644C61.789 360.66 62.3144 360.304 62.322 360.316C62.3258 360.324 62.5161 360.658 62.5237 360.67C62.5313 360.681 63.0416 360.338 63.0492 360.354C63.053 360.361 63.141 360.695 63.1448 360.703C63.1524 360.715 63.6514 360.379 63.659 360.391C63.6628 360.399 63.497 360.718 63.5009 360.726C63.5085 360.738 64.0074 360.402 64.0151 360.418C64.0189 360.426 64.122 360.771 64.1259 360.779C64.1335 360.791 64.6362 360.452 64.6438 360.467C64.6476 360.475 64.4781 360.806 64.4819 360.814C64.4895 360.829 65.1019 360.415 65.1133 360.435" stroke="#1B1B1B" stroke-width="0.651992" stroke-linecap="round" stroke-linejoin="round"/>
<path d="M67.4287 353.429C67.4287 353.429 67.6101 353.31 67.6139 353.318C67.6254 353.338 67.1503 354.106 67.1617 354.125C67.1693 354.141 67.7741 353.734 67.7817 353.75C67.8008 353.782 66.8531 354.842 66.8721 354.873C66.8797 354.885 67.3333 354.577 67.3409 354.589C67.36 354.62 66.5146 355.724 66.5299 355.755C66.5375 355.767 66.9949 355.459 67.0025 355.471C67.0177 355.494 66.2815 356.338 66.2967 356.361C66.3043 356.373 66.7655 356.061 66.7693 356.077C66.7807 356.093 66.2558 356.648 66.2672 356.664C66.2749 356.676 66.4827 356.518 66.4903 356.53C66.4979 356.546 66.0108 357.066 66.0184 357.086C66.0261 357.097 66.4872 356.785 66.4948 356.797C66.51 356.821 65.7663 357.68 65.7777 357.704C65.7853 357.715 66.2503 357.403 66.2579 357.415C66.2731 357.439 65.5407 358.267 65.5521 358.29C65.5597 358.302 66.0247 357.986 66.0323 358.002C66.0437 358.025 65.3527 358.755 65.3641 358.778C65.3717 358.79 65.8404 358.474 65.848 358.486C65.8594 358.509 65.2026 359.286 65.214 359.309C65.2216 359.321 65.5618 359.084 65.5656 359.096C65.5771 359.116 64.9992 359.68 65.0106 359.695C65.0182 359.707 65.4907 359.391 65.4945 359.403C65.5059 359.427 64.8111 360.152 64.8263 360.176C64.8339 360.187 65.3064 359.868 65.314 359.883" stroke="#1B1B1B" stroke-width="0.651992" stroke-linecap="round" stroke-linejoin="round"/>
<path d="M67.6157 354.242C67.6157 354.242 67.903 354.057 67.9068 354.065C67.9144 354.076 67.7454 354.58 67.753 354.592C67.7568 354.6 68.0403 354.406 68.0441 354.414C68.0517 354.426 67.917 355.016 67.9246 355.032C67.9284 355.04 68.2119 354.846 68.2157 354.854C68.2233 354.87 68.1001 355.495 68.1114 355.507C68.1153 355.515 68.3988 355.322 68.4026 355.33C68.4102 355.345 68.2945 355.983 68.3021 355.994C68.3059 356.002 68.5894 355.809 68.597 355.817C68.6046 355.828 68.4547 356.391 68.4623 356.403C68.4661 356.411 68.7534 356.217 68.7572 356.225C68.7648 356.241 68.6606 356.914 68.6682 356.929C68.672 356.937 68.9593 356.744 68.9631 356.752C68.9707 356.763 68.7788 357.22 68.7864 357.228C68.7902 357.236 69.0775 357.042 69.0813 357.05C69.0889 357.062 68.8932 357.503 68.897 357.515C68.9008 357.522 69.1881 357.329 69.1919 357.337C69.1995 357.353 69.08 357.99 69.0877 358.006C69.0915 358.014 69.3788 357.82 69.3826 357.828C69.3902 357.84 69.2288 358.367 69.2326 358.379C69.2364 358.387 69.5237 358.193 69.5275 358.201C69.5313 358.213 69.3165 358.599 69.3203 358.611C69.3241 358.618 69.6114 358.425 69.6152 358.433C69.6228 358.449 69.5186 359.125 69.5262 359.141C69.53 359.149 69.8173 358.955 69.8211 358.963C69.8287 358.975 69.6597 359.495 69.6673 359.506C69.6711 359.514 69.9584 359.321 69.9622 359.329C69.9699 359.344 69.8466 359.978 69.858 359.993C69.8618 360.001 70.1491 359.808 70.1529 359.816C70.1605 359.827 69.9838 360.319 69.9877 360.331C69.9915 360.339 70.2788 360.146 70.2826 360.153C70.2864 360.161 70.3177 360.543 70.3253 360.551C70.3291 360.558 70.3896 360.503 70.3934 360.511C70.401 360.523 70.2279 360.944 70.2317 360.956C70.2355 360.964 70.5228 360.77 70.5304 360.778C70.538 360.794 70.4262 361.455 70.4338 361.467C70.4376 361.474 70.7287 361.281 70.7325 361.289C70.7363 361.301 70.5177 361.686 70.5253 361.694C70.5291 361.702 70.8202 361.509 70.824 361.517C70.8278 361.528 70.6054 361.903 70.613 361.914C70.6168 361.922 70.9079 361.729 70.9117 361.733C70.9193 361.744 71.0606 362.169 71.0682 362.18C71.0758 362.192 71.45 361.936 71.4576 361.947C71.4652 361.959 71.7239 362.395 71.7315 362.407C71.7353 362.419 72.1058 362.17 72.1096 362.178C72.1172 362.189 72.3987 362.645 72.4063 362.657C72.4101 362.664 72.7692 362.424 72.7768 362.431C72.7806 362.439 72.7778 362.797 72.7816 362.805C72.7854 362.813 73.1445 362.572 73.1484 362.584C73.1522 362.592 73.0659 362.914 73.0697 362.922C73.0735 362.93 73.4251 362.693 73.4327 362.705C73.4403 362.717 73.6801 363.176 73.6878 363.192C73.6916 363.2 74.0393 362.967 74.0432 362.979C74.047 362.986 74.01 363.337 74.0139 363.344C74.0177 363.352 74.3617 363.123 74.3655 363.131C74.3693 363.139 74.2413 363.446 74.2452 363.454C74.249 363.462 74.593 363.233 74.5968 363.241C74.6044 363.252 74.7267 363.685 74.7343 363.696C74.7381 363.704 75.0746 363.479 75.0784 363.487C75.0822 363.495 74.9505 363.802 74.9543 363.81C74.9581 363.818 75.2945 363.593 75.2984 363.604C75.306 363.616 75.5004 364.099 75.508 364.111C75.5118 364.119 75.8407 363.898 75.8445 363.91C75.8483 363.921 75.9252 364.346 75.929 364.354C75.9328 364.362 76.2542 364.144 76.2618 364.152C76.2694 364.164 76.4487 364.659 76.4525 364.671C76.4563 364.679 76.7738 364.466 76.7777 364.473C76.7815 364.481 76.8205 364.902 76.8243 364.91C76.8281 364.918 77.1418 364.708 77.1457 364.716C77.1533 364.728 77.234 365.184 77.2378 365.196C77.2416 365.204 77.5554 364.994 77.5592 365.002C77.563 365.01 77.4199 365.317 77.4238 365.325C77.4276 365.333 77.7338 365.128 77.7376 365.135C77.7414 365.143 77.659 365.497 77.6666 365.505C77.6742 365.513 77.9766 365.308 77.9804 365.316C77.988 365.327 78.122 365.85 78.1258 365.862C78.1296 365.87 78.432 365.668 78.4358 365.676C78.4397 365.684 78.3383 366.03 78.3421 366.038C78.346 366.046 78.6446 365.845 78.6522 365.853C78.656 365.86 78.5926 366.242 78.5964 366.25C78.6002 366.258 78.8951 366.06 78.8989 366.068C78.9065 366.08 78.9609 366.571 78.9647 366.583C78.9685 366.591 79.2634 366.394 79.2672 366.401C79.271 366.409 79.1659 366.767 79.1735 366.775C79.1773 366.783 79.4684 366.586 79.476 366.594C79.4798 366.601 79.3519 366.944 79.3595 366.952C79.3633 366.96 79.6544 366.762 79.6582 366.77C79.662 366.778 79.5076 367.089 79.5114 367.097C79.5152 367.105 79.8025 366.911 79.8101 366.919C79.8177 366.927 79.6519 367.242 79.6557 367.25C79.6595 367.258 79.9468 367.064 79.9506 367.072C79.9582 367.084 80.0317 367.658 80.0393 367.67C80.0432 367.677 80.3267 367.484 80.3343 367.492C80.3381 367.5 80.1951 367.842 80.2027 367.85C80.2065 367.858 80.49 367.668 80.4938 367.672C80.5014 367.684 80.4382 368.136 80.4458 368.144C80.4496 368.152 80.7332 367.963 80.737 367.97C80.7408 367.978 80.6092 368.348 80.613 368.356C80.6168 368.364 80.9004 368.174 80.9042 368.182C80.9118 368.194 80.9133 368.764 80.9209 368.776C80.9247 368.784 81.2045 368.594 81.2083 368.602C81.2121 368.61 81.0312 368.937 81.035 368.949C81.0388 368.957 81.3185 368.767 81.3223 368.775C81.33 368.787 81.2442 369.271 81.2518 369.282C81.2556 369.29 81.5353 369.101 81.5391 369.109C81.5429 369.12 81.4077 369.538 81.4115 369.546C81.4153 369.553 81.6951 369.364 81.6989 369.372C81.7027 369.38 81.5485 369.789 81.5561 369.797C81.5599 369.805 81.8396 369.615 81.8435 369.623C81.8511 369.635 81.7883 370.241 81.7959 370.256C81.7997 370.264 82.0795 370.075 82.0833 370.082C82.0871 370.09 81.8797 370.433 81.8835 370.441C81.8874 370.449 82.1671 370.259 82.1709 370.267C82.1785 370.279 82.0588 370.845 82.0664 370.861C82.0703 370.869 82.35 370.679 82.3538 370.687C82.3576 370.699 82.1542 371.093 82.158 371.105C82.1618 371.113 82.4453 370.919 82.4491 370.927C82.4567 370.939 82.2458 371.352 82.2534 371.36C82.2572 371.368 82.5407 371.178 82.5445 371.186C82.5521 371.198 82.3794 371.761 82.3832 371.777C82.3871 371.784 82.6743 371.591 82.6781 371.599C82.6858 371.611 82.4483 372.016 82.4521 372.028C82.4559 372.036 82.747 371.838 82.7508 371.846C82.7584 371.862 82.5479 372.449 82.5555 372.464C82.5593 372.472 82.8542 372.275 82.858 372.283C82.8656 372.294 82.6247 372.846 82.6285 372.857C82.6323 372.865 82.931 372.664 82.9348 372.672C82.9462 372.691 82.6983 373.463 82.7097 373.482C82.7135 373.49 83.0235 373.281 83.0273 373.289C83.0387 373.304 82.7339 374.009 82.7415 374.025C82.7453 374.033 83.0628 373.82 83.0704 373.827C83.0781 373.843 82.7351 374.461 82.7465 374.477C82.7503 374.485 83.0792 374.264 83.083 374.272C83.0944 374.287 82.7099 374.965 82.7214 374.984C82.7252 374.992 83.0654 374.763 83.073 374.775C83.0806 374.791 82.6731 375.362 82.6845 375.378C82.6883 375.386 83.0399 375.153 83.0437 375.161C83.0551 375.184 82.5614 376.043 82.5728 376.066C82.5766 376.078 82.9471 375.825 82.9547 375.837C82.9661 375.861 82.3853 376.743 82.4005 376.767C82.4081 376.779 82.8088 376.506 82.8164 376.518C82.8278 376.538 82.2351 377.231 82.2465 377.251C82.2541 377.263 82.6813 376.974 82.6851 376.986C82.6965 377.006 82.096 377.605 82.1074 377.621C82.115 377.633 82.5611 377.333 82.5687 377.344C82.5839 377.368 81.8589 378.152 81.8703 378.176C81.8779 378.188 82.3618 377.864 82.3694 377.876C82.3884 377.911 81.3841 379.031 81.4031 379.066C81.4107 379.082 81.9702 378.703 81.9778 378.718C82.0006 378.758 80.6976 380.047 80.7204 380.086C80.7318 380.106 81.4198 379.64 81.4312 379.656C81.4578 379.703 79.8482 381.064 79.8748 381.111C79.8863 381.135 80.7671 380.542 80.7785 380.566C80.8013 380.609 79.2251 381.711 79.2479 381.754C79.2631 381.781 80.3254 381.067 80.3406 381.094C80.3672 381.141 78.5566 382.385 78.5832 382.432C78.6061 382.471 79.585 381.776 79.6079 381.816" stroke="#1B1B1B" stroke-width="0.651992" stroke-linecap="round" stroke-linejoin="round"/>
<path d="M44.4083 365.197C44.4806 365.323 48.3022 362.678 48.3745 362.808C48.462 362.961 42.5258 366.469 42.6133 366.622C42.6362 366.665 43.5206 366.022 43.5434 366.061C43.5777 366.124 41.2798 367.852 41.3141 367.915C41.3293 367.939 42.2516 367.319 42.2631 367.342C42.2859 367.382 40.975 368.565 40.9978 368.604C41.0092 368.624 41.1641 368.478 41.1755 368.498C41.1907 368.525 40.3141 369.271 40.3293 369.298C40.3408 369.314 40.9796 368.884 40.9872 368.899C41.0025 368.927 40.1145 369.664 40.1297 369.688C40.1373 369.704 40.209 369.621 40.2167 369.637C40.2281 369.656 39.8552 370.408 39.8666 370.428C39.8742 370.44 40.0745 370.282 40.0821 370.298C40.0935 370.317 39.5043 370.889 39.5157 370.905C39.5233 370.917 39.9996 370.597 40.0034 370.609C40.0148 370.628 39.3764 371.216 39.3878 371.235C39.3954 371.247 39.849 370.939 39.8566 370.951C39.8681 370.975 39.2148 371.692 39.23 371.716C39.2377 371.727 39.661 371.439 39.6686 371.451C39.6801 371.475 39.0649 372.271 39.0763 372.294C39.0839 372.306 39.4733 372.041 39.4809 372.049C39.4885 372.065 38.9901 372.625 39.0015 372.644C39.0053 372.656 39.3872 372.4 39.3947 372.407C39.4062 372.427 38.9044 373.148 38.9158 373.168C38.9197 373.175 39.2788 372.935 39.2864 372.946C39.2978 372.966 38.8418 373.781 38.8532 373.805C38.857 373.813 39.201 373.584 39.2048 373.592C39.2162 373.611 38.8245 374.399 38.8321 374.418C38.8359 374.426 39.1648 374.205 39.1686 374.217C39.18 374.237 38.849 375.047 38.8604 375.067C38.8642 375.075 39.1741 374.866 39.178 374.874C39.1894 374.893 38.9188 375.684 38.9302 375.704C38.9341 375.712 39.2365 375.507 39.2403 375.514C39.2517 375.53 39.0227 376.27 39.0341 376.29C39.0379 376.298 39.3327 376.1 39.3366 376.108C39.3442 376.12 39.084 376.529 39.0916 376.541C39.0954 376.549 39.3864 376.352 39.394 376.359C39.4016 376.371 39.149 376.773 39.1528 376.785C39.1566 376.793 39.4477 376.599 39.4515 376.607C39.4591 376.619 39.2408 377.099 39.2484 377.111C39.2522 377.119 39.5395 376.925 39.5471 376.933C39.5547 376.945 39.3438 377.402 39.3514 377.413C39.3552 377.421 39.6387 377.228 39.6463 377.236C39.654 377.251 39.5498 377.94 39.5574 377.956C39.5612 377.963 39.8447 377.774 39.8485 377.778C39.8561 377.79 39.6641 378.207 39.6717 378.215C39.6755 378.223 39.9552 378.033 39.9628 378.041C39.9704 378.057 39.885 378.663 39.8926 378.678C39.8964 378.686 40.1761 378.497 40.1799 378.504C40.1876 378.516 40.0563 378.992 40.0601 379.004C40.0639 379.012 40.3436 378.823 40.3475 378.83C40.3551 378.842 40.277 379.381 40.2846 379.393C40.2884 379.401 40.5681 379.211 40.5719 379.219C40.5795 379.231 40.566 379.833 40.5736 379.848C40.5774 379.856 40.8572 379.667 40.8648 379.674C40.8686 379.686 40.7599 380.115 40.7637 380.123C40.7675 380.131 41.0511 379.941 41.0549 379.949C41.0625 379.965 41.1058 380.578 41.1134 380.594C41.1172 380.602 41.4007 380.412 41.4045 380.416C41.4121 380.428 41.3566 380.892 41.3642 380.9C41.368 380.908 41.6515 380.714 41.6591 380.722C41.6629 380.73 41.5465 381.108 41.5503 381.116C41.5541 381.124 41.8414 380.93 41.8452 380.938C41.849 380.946 41.7327 381.32 41.7402 381.328C41.7441 381.336 42.0313 381.142 42.0352 381.15C42.0428 381.162 42.101 381.708 42.1086 381.72C42.1125 381.728 42.4035 381.53 42.4073 381.538C42.4149 381.55 42.4808 382.081 42.4884 382.096C42.4922 382.104 42.787 381.907 42.7908 381.915C42.7946 381.923 42.7579 382.343 42.7617 382.351C42.7655 382.359 43.0604 382.162 43.0642 382.17C43.068 382.181 43.0654 382.622 43.0692 382.63C43.073 382.637 43.3717 382.436 43.3755 382.444C43.3793 382.456 43.4335 382.892 43.4373 382.904C43.4411 382.912 43.6339 382.774 43.6377 382.785C43.6415 382.793 43.6499 383.108 43.6537 383.116C43.6576 383.124 43.96 382.918 43.9676 382.926C43.9714 382.934 43.8207 383.241 43.8245 383.249C43.8283 383.257 44.1345 383.051 44.1383 383.059C44.1459 383.071 44.204 383.527 44.2078 383.535C44.2116 383.543 44.5178 383.337 44.5254 383.345C44.533 383.357 44.61 383.817 44.6176 383.825C44.6214 383.833 44.9351 383.623 44.9389 383.631C44.9465 383.643 45.1108 384.15 45.1184 384.162C45.1222 384.17 45.4397 383.956 45.4435 383.964C45.4473 383.972 45.4711 384.381 45.475 384.389C45.4788 384.397 45.8001 384.18 45.8077 384.187C45.8115 384.195 45.7443 384.545 45.7481 384.553C45.7519 384.561 46.0732 384.344 46.0808 384.352C46.0884 384.364 46.2184 384.819 46.2222 384.827C46.226 384.835 46.5549 384.614 46.5587 384.622C46.5625 384.63 46.4535 384.952 46.4573 384.96C46.4611 384.968 46.79 384.747 46.7938 384.755C46.8014 384.767 47.0034 385.242 47.011 385.254C47.0148 385.262 47.3513 385.037 47.3551 385.044C47.3589 385.052 47.3903 385.441 47.3979 385.449C47.4054 385.457 47.7457 385.228 47.7495 385.236C47.7533 385.244 47.7846 385.625 47.7884 385.633C47.7922 385.641 48.1362 385.412 48.14 385.42C48.1476 385.432 48.3533 385.879 48.3572 385.891C48.361 385.899 48.7125 385.666 48.7163 385.674C48.7202 385.682 48.668 386.02 48.6719 386.028C48.6757 386.036 49.031 385.799 49.0386 385.807C49.0462 385.814 49.1382 386.211 49.1458 386.219C49.1533 386.227 49.5087 385.986 49.5163 385.998C49.5201 386.006 49.4528 386.336 49.4566 386.344C49.4604 386.352 49.8271 386.107 49.8347 386.115C49.8423 386.127 50.0404 386.547 50.048 386.559C50.0518 386.571 50.4223 386.318 50.4299 386.33C50.4337 386.338 50.3247 386.653 50.3285 386.66C50.3323 386.672 50.7103 386.416 50.7142 386.427C50.718 386.435 50.6317 386.758 50.6355 386.766C50.6394 386.778 51.0174 386.521 51.0212 386.533C51.025 386.541 51.0638 386.902 51.0677 386.91C51.0753 386.922 51.4608 386.661 51.4646 386.669C51.4685 386.677 51.4504 387.019 51.4542 387.027C51.4619 387.039 51.8474 386.778 51.8512 386.786C51.8551 386.794 51.8408 387.136 51.8446 387.144C51.8522 387.156 52.2454 386.887 52.253 386.899C52.2568 386.907 52.3296 387.233 52.3334 387.241C52.341 387.253 52.4241 387.17 52.4317 387.182C52.4355 387.19 52.6746 387.362 52.6784 387.37C52.686 387.382 53.0905 387.105 53.0981 387.117C53.1019 387.125 52.955 387.432 52.9588 387.44C52.9664 387.452 53.3709 387.175 53.3785 387.187C53.3823 387.195 53.2961 387.518 53.2999 387.521C53.3075 387.533 53.7233 387.253 53.7309 387.261C53.7347 387.269 53.7811 387.618 53.7849 387.626C53.7925 387.638 54.2083 387.354 54.2159 387.366C54.2235 387.377 54.52 387.766 54.5276 387.778C54.5352 387.789 54.9661 387.497 54.9699 387.509C54.9737 387.517 55.0883 387.871 55.0921 387.882C55.0997 387.894 55.542 387.594 55.5496 387.606C55.5534 387.614 55.4482 387.932 55.4558 387.94C55.4634 387.952 55.9095 387.652 55.9133 387.664C55.9171 387.672 55.9142 388.006 55.9181 388.014C55.9257 388.026 56.3831 387.718 56.3907 387.729C56.3945 387.741 56.6341 388.102 56.6416 388.11C56.6493 388.122 57.1218 387.802 57.1294 387.818C57.1332 387.826 57.0849 388.152 57.0887 388.16C57.0963 388.172 57.5688 387.852 57.5764 387.864C57.5802 387.872 57.6265 388.206 57.6304 388.214C57.638 388.225 58.1294 387.898 58.137 387.909C58.1446 387.921 58.5772 388.258 58.5848 388.27C58.5924 388.282 58.9894 388.009 58.997 388.021C59.0008 388.029 59.2212 388.316 59.225 388.327C59.2326 388.343 59.7581 387.988 59.7657 387.999C59.7695 388.007 59.6151 388.334 59.6189 388.342C59.6265 388.358 60.1557 387.998 60.1634 388.014C60.171 388.026 60.5581 388.351 60.5657 388.363C60.5733 388.379 61.129 388.004 61.1366 388.019C61.1404 388.027 61.3383 388.353 61.3421 388.361C61.3497 388.377 61.9243 387.99 61.9319 388.005C61.9395 388.021 62.4553 388.315 62.4629 388.33C62.4706 388.346 63.083 387.935 63.0906 387.951C63.0944 387.959 63.1029 388.289 63.1067 388.297C63.1143 388.313 63.7494 387.886 63.757 387.906C63.7646 387.926 64.4958 388.022 64.5034 388.038C64.5148 388.057 64.5222 388.002 64.5336 388.018C64.5374 388.026 64.9088 388.127 64.9164 388.135C64.9278 388.155 65.6385 387.677 65.6461 387.693C65.6537 387.704 66.0784 387.9 66.0823 387.912C66.0937 387.931 66.6607 387.536 66.6721 387.556C66.6759 387.568 67.0287 387.811 67.0363 387.819C67.0478 387.842 67.8907 387.274 67.9022 387.297C67.906 387.305 67.8123 387.659 67.8161 387.667C67.8313 387.691 68.7385 387.079 68.7499 387.102C68.7575 387.114 69.3147 387.274 69.3223 387.289C69.3375 387.317 69.9347 386.883 69.9499 386.91C69.9728 386.949 71.6338 386.39 71.6566 386.43C71.6794 386.469 71.8304 386.272 71.8494 386.311C71.876 386.358 73.7828 385.645 73.8094 385.692C73.8817 385.822 77.1286 383.521 77.2009 383.646" stroke="#1B1B1B" stroke-width="0.651992" stroke-linecap="round" stroke-linejoin="round"/>
<path d="M48.7655 362.968C48.7959 363.019 49.8504 362.242 49.8809 362.297" stroke="#1B1B1B" stroke-width="0.651992" stroke-linecap="round" stroke-linejoin="round"/>
<path d="M53.4014 353.467C53.4014 353.467 53.5866 353.348 53.5904 353.352C53.6019 353.376 53.0891 354.227 53.1006 354.246C53.112 354.266 53.7773 353.816 53.7849 353.831C53.8001 353.863 52.8597 354.797 52.8749 354.829C52.8825 354.841 53.3361 354.536 53.3437 354.548C53.3551 354.568 52.7056 355.226 52.717 355.246C52.7246 355.258 53.1782 354.95 53.1858 354.966C53.201 354.993 52.416 355.962 52.4312 355.99C52.4388 356.002 52.8924 355.694 52.9 355.706C52.9114 355.725 52.2919 356.309 52.2996 356.328C52.3072 356.34 52.7608 356.032 52.7684 356.044C52.7836 356.068 52.07 356.872 52.0814 356.895C52.089 356.907 52.5426 356.599 52.5502 356.611C52.5655 356.638 51.8105 357.533 51.8257 357.561C51.8333 357.572 52.2869 357.264 52.2945 357.276C52.3098 357.304 51.551 358.202 51.5662 358.23C51.5738 358.242 52.0274 357.934 52.035 357.945C52.0465 357.965 51.5408 358.615 51.5522 358.635C51.5598 358.647 51.5673 358.611 51.5711 358.623C51.5825 358.643 51.0885 359.415 51.0999 359.434C51.1075 359.446 51.5649 359.138 51.5687 359.15C51.5801 359.17 50.9155 359.86 50.9269 359.879C50.9345 359.891 51.3919 359.583 51.3995 359.595C51.4147 359.622 50.6296 360.588 50.6449 360.615C50.6525 360.627 51.1099 360.319 51.1175 360.331C51.1251 360.347 50.7405 360.969 50.7481 360.985C50.7557 360.996 50.8917 360.882 50.8993 360.894C50.9145 360.917 50.1709 361.784 50.1861 361.812C50.1937 361.824 50.6511 361.516 50.6587 361.528" stroke="#1B1B1B" stroke-width="0.651992" stroke-linecap="round" stroke-linejoin="round"/>
<path d="M57.1829 368.281C57.1943 368.301 57.9579 367.787 57.9693 367.807C57.9846 367.831 57.347 368.749 57.3584 368.776C57.3737 368.804 58.3905 368.117 58.4058 368.144C58.421 368.168 57.6466 368.905 57.6618 368.929C57.6732 368.948 58.4368 368.435 58.4483 368.455" stroke="#1B1B1B" stroke-width="0.651992" stroke-linecap="round" stroke-linejoin="round"/>
<path d="M63.8245 368.267C63.8359 368.287 64.5995 367.773 64.6109 367.793C64.6262 367.817 63.9924 368.735 64.0038 368.758C64.0191 368.786 65.0321 368.103 65.0473 368.126C65.0588 368.15 64.2882 368.887 64.3034 368.911C64.3148 368.93 65.0784 368.417 65.0898 368.437" stroke="#1B1B1B" stroke-width="0.651992" stroke-linecap="round" stroke-linejoin="round"/>
<path d="M60.6154 377.294C60.6154 377.294 61.3262 376.839 61.3376 376.859C61.3528 376.883 60.7493 377.781 60.7607 377.808C60.7722 377.836 61.6794 377.224 61.6908 377.247C61.7022 377.271 60.9693 377.93 60.9808 377.953C60.9922 377.973 61.6915 377.499 61.7029 377.519" stroke="#1B1B1B" stroke-width="0.651992" stroke-linecap="round" stroke-linejoin="round"/>
<path d="M44.3102 373.755C44.3102 373.755 44.6845 373.518 44.6883 373.525C44.6959 373.537 45.049 373.894 45.0566 373.906C45.0643 373.922 45.6842 373.503 45.6956 373.523C45.6994 373.531 45.8027 373.896 45.8065 373.904C45.8141 373.92 46.434 373.501 46.4455 373.521C46.4493 373.529 46.3366 373.895 46.3442 373.902C46.3518 373.918 46.9718 373.5 46.9832 373.519C46.9908 373.531 47.291 373.888 47.2986 373.9C47.3062 373.916 47.9261 373.497 47.9375 373.517C47.9413 373.525 47.7303 373.891 47.7379 373.899C47.7455 373.914 48.3654 373.496 48.3768 373.515C48.3806 373.523 48.4612 373.889 48.4688 373.897C48.4764 373.912 49.0963 373.494 49.1077 373.513C49.1116 373.525 48.8474 373.888 48.855 373.896C48.8626 373.903 49.2217 373.663 49.2293 373.67" stroke="#1B1B1B" stroke-width="0.651992" stroke-linecap="round" stroke-linejoin="round"/>
<path d="M44.316 375.917C44.316 375.917 44.6903 375.68 44.6941 375.688C44.7017 375.7 45.0549 376.057 45.0625 376.069C45.0701 376.085 45.6901 375.666 45.7015 375.686C45.7053 375.693 45.8085 376.059 45.8123 376.067C45.82 376.082 46.4399 375.664 46.4513 375.684C46.4551 375.691 46.3425 376.057 46.3501 376.065C46.3577 376.081 46.9777 375.663 46.9891 375.682C46.9967 375.694 47.2968 376.051 47.3044 376.063C47.312 376.078 47.932 375.66 47.9434 375.68C47.9472 375.687 47.7361 376.054 47.7437 376.062C47.7513 376.077 48.3713 375.659 48.3827 375.678C48.3865 375.686 48.467 376.052 48.4746 376.06C48.4822 376.075 49.1022 375.657 49.1136 375.676C49.1174 375.688 48.8533 376.051 48.8609 376.059C48.8685 376.066 49.2276 375.826 49.2352 375.833" stroke="#1B1B1B" stroke-width="0.651992" stroke-linecap="round" stroke-linejoin="round"/>
<path d="M73.4694 373.676C73.4694 373.676 73.8436 373.439 73.8475 373.447C73.8551 373.459 74.2082 373.816 74.2158 373.828C74.2234 373.843 74.8434 373.425 74.8548 373.444C74.8586 373.452 74.9619 373.818 74.9657 373.826C74.9733 373.841 75.5932 373.423 75.6046 373.442C75.6084 373.45 75.4958 373.816 75.5034 373.824C75.511 373.84 76.131 373.421 76.1424 373.441C76.15 373.453 76.4501 373.81 76.4577 373.822C76.4654 373.837 77.0853 373.419 77.0967 373.438C77.1005 373.446 76.8894 373.813 76.897 373.82C76.9046 373.836 77.5246 373.418 77.536 373.437C77.5398 373.445 77.6203 373.811 77.6279 373.818C77.6356 373.834 78.2555 373.416 78.2669 373.435C78.2707 373.447 78.0066 373.81 78.0142 373.817C78.0218 373.825 78.3809 373.584 78.3885 373.592" stroke="#1B1B1B" stroke-width="0.651992" stroke-linecap="round" stroke-linejoin="round"/>
<path d="M73.4762 375.838C73.4762 375.838 73.8505 375.601 73.8543 375.609C73.8619 375.621 74.2151 375.978 74.2227 375.989C74.2303 376.005 74.8502 375.587 74.8616 375.606C74.8654 375.614 74.9687 375.98 74.9725 375.987C74.9801 376.003 75.6001 375.585 75.6115 375.604C75.6153 375.612 75.5027 375.978 75.5102 375.986C75.5179 376.002 76.1378 375.583 76.1492 375.603C76.1568 375.615 76.457 375.972 76.4646 375.983C76.4722 375.999 77.0921 375.581 77.1036 375.6C77.1074 375.608 76.8963 375.974 76.9039 375.982C76.9115 375.998 77.5314 375.579 77.5428 375.599C77.5467 375.607 77.6272 375.972 77.6348 375.98C77.6424 375.996 78.2623 375.577 78.2738 375.597C78.2776 375.609 78.0135 375.971 78.021 375.979C78.0286 375.987 78.3878 375.746 78.3954 375.754" stroke="#1B1B1B" stroke-width="0.651992" stroke-linecap="round" stroke-linejoin="round"/>
</g>
<path d="M8 426.244H278.827" stroke="#CCCCCC" stroke-width="0.615516"/>
</g>
<defs>
<filter id="filter0_d_248_5229" x="0.452209" y="0.226105" width="285.923" height="503.815" filterUnits="userSpaceOnUse" color-interpolation-filters="sRGB">
<feFlood flood-opacity="0" result="BackgroundImageFix"/>
<feColorMatrix in="SourceAlpha" type="matrix" values="0 0 0 0 0 0 0 0 0 0 0 0 0 0 0 0 0 0 127 0" result="hardAlpha"/>
<feOffset dy="3.7739"/>
<feGaussianBlur stdDeviation="3.7739"/>
<feComposite in2="hardAlpha" operator="out"/>
<feColorMatrix type="matrix" values="0 0 0 0 0 0 0 0 0 0 0 0 0 0 0 0 0 0 0.25 0"/>
<feBlend mode="normal" in2="BackgroundImageFix" result="effect1_dropShadow_248_5229"/>
<feBlend mode="normal" in="SourceGraphic" in2="effect1_dropShadow_248_5229" result="shape"/>
</filter>
<filter id="filter1_d_248_5229" x="5.53794" y="314.835" width="275.751" height="179.115" filterUnits="userSpaceOnUse" color-interpolation-filters="sRGB">
<feFlood flood-opacity="0" result="BackgroundImageFix"/>
<feColorMatrix in="SourceAlpha" type="matrix" values="0 0 0 0 0 0 0 0 0 0 0 0 0 0 0 0 0 0 127 0" result="hardAlpha"/>
<feOffset dy="-1.23103"/>
<feGaussianBlur stdDeviation="1.23103"/>
<feComposite in2="hardAlpha" operator="out"/>
<feColorMatrix type="matrix" values="0 0 0 0 0 0 0 0 0 0 0 0 0 0 0 0 0 0 0.25 0"/>
<feBlend mode="normal" in2="BackgroundImageFix" result="effect1_dropShadow_248_5229"/>
<feBlend mode="normal" in="SourceGraphic" in2="effect1_dropShadow_248_5229" result="shape"/>
</filter>
<filter id="filter2_d_248_5229" x="29.5428" y="439.17" width="65.2444" height="35.6999" filterUnits="userSpaceOnUse" color-interpolation-filters="sRGB">
<feFlood flood-opacity="0" result="BackgroundImageFix"/>
<feColorMatrix in="SourceAlpha" type="matrix" values="0 0 0 0 0 0 0 0 0 0 0 0 0 0 0 0 0 0 127 0" result="hardAlpha"/>
<feOffset dy="2.46206"/>
<feGaussianBlur stdDeviation="1.23103"/>
<feComposite in2="hardAlpha" operator="out"/>
<feColorMatrix type="matrix" values="0 0 0 0 0 0 0 0 0 0 0 0 0 0 0 0 0 0 0.25 0"/>
<feBlend mode="normal" in2="BackgroundImageFix" result="effect1_dropShadow_248_5229"/>
<feBlend mode="normal" in="SourceGraphic" in2="effect1_dropShadow_248_5229" result="shape"/>
</filter>
<filter id="filter3_d_248_5229" x="100.328" y="439.17" width="57.8587" height="35.6999" filterUnits="userSpaceOnUse" color-interpolation-filters="sRGB">
<feFlood flood-opacity="0" result="BackgroundImageFix"/>
<feColorMatrix in="SourceAlpha" type="matrix" values="0 0 0 0 0 0 0 0 0 0 0 0 0 0 0 0 0 0 127 0" result="hardAlpha"/>
<feOffset dy="2.46206"/>
<feGaussianBlur stdDeviation="1.23103"/>
<feComposite in2="hardAlpha" operator="out"/>
<feColorMatrix type="matrix" values="0 0 0 0 0 0 0 0 0 0 0 0 0 0 0 0 0 0 0.25 0"/>
<feBlend mode="normal" in2="BackgroundImageFix" result="effect1_dropShadow_248_5229"/>
<feBlend mode="normal" in="SourceGraphic" in2="effect1_dropShadow_248_5229" result="shape"/>
</filter>
<filter id="filter4_d_248_5229" x="252.359" y="340.072" width="66.4759" height="66.4757" filterUnits="userSpaceOnUse" color-interpolation-filters="sRGB">
<feFlood flood-opacity="0" result="BackgroundImageFix"/>
<feColorMatrix in="SourceAlpha" type="matrix" values="0 0 0 0 0 0 0 0 0 0 0 0 0 0 0 0 0 0 127 0" result="hardAlpha"/>
<feOffset dy="2.46206"/>
<feGaussianBlur stdDeviation="1.23103"/>
<feComposite in2="hardAlpha" operator="out"/>
<feColorMatrix type="matrix" values="0 0 0 0 0 0 0 0 0 0 0 0 0 0 0 0 0 0 0.25 0"/>
<feBlend mode="normal" in2="BackgroundImageFix" result="effect1_dropShadow_248_5229"/>
<feBlend mode="normal" in="SourceGraphic" in2="effect1_dropShadow_248_5229" result="shape"/>
</filter>
<filter id="filter5_d_248_5229" x="162.495" y="439.17" width="49.2415" height="35.6999" filterUnits="userSpaceOnUse" color-interpolation-filters="sRGB">
<feFlood flood-opacity="0" result="BackgroundImageFix"/>
<feColorMatrix in="SourceAlpha" type="matrix" values="0 0 0 0 0 0 0 0 0 0 0 0 0 0 0 0 0 0 127 0" result="hardAlpha"/>
<feOffset dy="2.46206"/>
<feGaussianBlur stdDeviation="1.23103"/>
<feComposite in2="hardAlpha" operator="out"/>
<feColorMatrix type="matrix" values="0 0 0 0 0 0 0 0 0 0 0 0 0 0 0 0 0 0 0.25 0"/>
<feBlend mode="normal" in2="BackgroundImageFix" result="effect1_dropShadow_248_5229"/>
<feBlend mode="normal" in="SourceGraphic" in2="effect1_dropShadow_248_5229" result="shape"/>
</filter>
<filter id="filter6_d_248_5229" x="216.044" y="439.17" width="72.0149" height="35.6999" filterUnits="userSpaceOnUse" color-interpolation-filters="sRGB">
<feFlood flood-opacity="0" result="BackgroundImageFix"/>
<feColorMatrix in="SourceAlpha" type="matrix" values="0 0 0 0 0 0 0 0 0 0 0 0 0 0 0 0 0 0 127 0" result="hardAlpha"/>
<feOffset dy="2.46206"/>
<feGaussianBlur stdDeviation="1.23103"/>
<feComposite in2="hardAlpha" operator="out"/>
<feColorMatrix type="matrix" values="0 0 0 0 0 0 0 0 0 0 0 0 0 0 0 0 0 0 0.25 0"/>
<feBlend mode="normal" in2="BackgroundImageFix" result="effect1_dropShadow_248_5229"/>
<feBlend mode="normal" in="SourceGraphic" in2="effect1_dropShadow_248_5229" result="shape"/>
</filter>
<filter id="filter7_d_248_5229" x="100.943" y="340.072" width="66.4759" height="66.4757" filterUnits="userSpaceOnUse" color-interpolation-filters="sRGB">
<feFlood flood-opacity="0" result="BackgroundImageFix"/>
<feColorMatrix in="SourceAlpha" type="matrix" values="0 0 0 0 0 0 0 0 0 0 0 0 0 0 0 0 0 0 127 0" result="hardAlpha"/>
<feOffset dy="2.46206"/>
<feGaussianBlur stdDeviation="1.23103"/>
<feComposite in2="hardAlpha" operator="out"/>
<feColorMatrix type="matrix" values="0 0 0 0 0 0 0 0 0 0 0 0 0 0 0 0 0 0 0.25 0"/>
<feBlend mode="normal" in2="BackgroundImageFix" result="effect1_dropShadow_248_5229"/>
<feBlend mode="normal" in="SourceGraphic" in2="effect1_dropShadow_248_5229" result="shape"/>
</filter>
<filter id="filter8_d_248_5229" x="176.651" y="340.072" width="66.4759" height="66.4757" filterUnits="userSpaceOnUse" color-interpolation-filters="sRGB">
<feFlood flood-opacity="0" result="BackgroundImageFix"/>
<feColorMatrix in="SourceAlpha" type="matrix" values="0 0 0 0 0 0 0 0 0 0 0 0 0 0 0 0 0 0 127 0" result="hardAlpha"/>
<feOffset dy="2.46206"/>
<feGaussianBlur stdDeviation="1.23103"/>
<feComposite in2="hardAlpha" operator="out"/>
<feColorMatrix type="matrix" values="0 0 0 0 0 0 0 0 0 0 0 0 0 0 0 0 0 0 0.25 0"/>
<feBlend mode="normal" in2="BackgroundImageFix" result="effect1_dropShadow_248_5229"/>
<feBlend mode="normal" in="SourceGraphic" in2="effect1_dropShadow_248_5229" result="shape"/>
</filter>
<filter id="filter9_d_248_5229" x="188.347" y="274.827" width="83.7103" height="39.393" filterUnits="userSpaceOnUse" color-interpolation-filters="sRGB">
<feFlood flood-opacity="0" result="BackgroundImageFix"/>
<feColorMatrix in="SourceAlpha" type="matrix" values="0 0 0 0 0 0 0 0 0 0 0 0 0 0 0 0 0 0 127 0" result="hardAlpha"/>
<feOffset dy="2.46206"/>
<feGaussianBlur stdDeviation="1.23103"/>
<feComposite in2="hardAlpha" operator="out"/>
<feColorMatrix type="matrix" values="0 0 0 0 0 0 0 0 0 0 0 0 0 0 0 0 0 0 0.25 0"/>
<feBlend mode="normal" in2="BackgroundImageFix" result="effect1_dropShadow_248_5229"/>
<feBlend mode="normal" in="SourceGraphic" in2="effect1_dropShadow_248_5229" result="shape"/>
</filter>
<filter id="filter10_d_248_5229" x="25.2342" y="340.072" width="66.4759" height="66.4757" filterUnits="userSpaceOnUse" color-interpolation-filters="sRGB">
<feFlood flood-opacity="0" result="BackgroundImageFix"/>
<feColorMatrix in="SourceAlpha" type="matrix" values="0 0 0 0 0 0 0 0 0 0 0 0 0 0 0 0 0 0 127 0" result="hardAlpha"/>
<feOffset dy="2.46206"/>
<feGaussianBlur stdDeviation="1.23103"/>
<feComposite in2="hardAlpha" operator="out"/>
<feColorMatrix type="matrix" values="0 0 0 0 0 0 0 0 0 0 0 0 0 0 0 0 0 0 0.25 0"/>
<feBlend mode="normal" in2="BackgroundImageFix" result="effect1_dropShadow_248_5229"/>
<feBlend mode="normal" in="SourceGraphic" in2="effect1_dropShadow_248_5229" result="shape"/>
</filter>
<clipPath id="clip0_248_5229">
<rect width="270.827" height="488.719" fill="white" transform="translate(8 4)"/>
</clipPath>
</defs>
</svg>
