<svg width="244" height="205" viewBox="0 0 244 205" fill="none" xmlns="http://www.w3.org/2000/svg">
<g id="Group">
<path id="Vector" d="M155.325 48.1395L127.964 13.3198L124.42 50.5274C118.043 51.6192 111.586 53.0584 105.093 54.913C97.3577 57.1228 89.9737 59.7909 82.9797 62.8151L59.4631 32.8866L55.1449 78.2492C25.7349 98.8209 9.92214 126.535 17.1654 151.101C27.8404 187.3 84.5156 202.93 143.75 186.002C202.985 169.08 242.352 126.008 231.682 89.8077C224.129 64.1966 193.549 48.9058 155.329 48.1275L155.325 48.1395Z" fill="white" stroke="#1B1B1B" stroke-width="4.16535" stroke-miterlimit="10"/>
<path id="Vector_2" d="M103.157 106.601C105.208 106.315 106.647 104.47 106.37 102.478C106.093 100.486 104.205 99.1028 102.154 99.388C100.102 99.6733 98.6635 101.519 98.9404 103.511C99.2173 105.503 101.105 106.886 103.157 106.601Z" fill="#1B1B1B"/>
<path id="Vector_3" d="M135.606 97.3309C137.658 97.0456 139.096 95.1998 138.819 93.2081C138.543 91.2164 136.655 89.833 134.603 90.1183C132.552 90.4035 131.113 92.2494 131.39 94.2411C131.667 96.2328 133.555 97.6162 135.606 97.3309Z" fill="#1B1B1B"/>
<path id="Vector_4" d="M131.233 142.166C133.284 141.881 134.723 140.035 134.446 138.044C134.169 136.052 132.281 134.668 130.23 134.954C128.178 135.239 126.74 137.085 127.017 139.077C127.294 141.068 129.181 142.452 131.233 142.166Z" fill="#1B1B1B"/>
<path id="Vector_5" d="M44.4566 144.258L67.8942 137.563" stroke="#1B1B1B" stroke-width="4.16535" stroke-miterlimit="10"/>
<path id="Vector_6" d="M47.2915 153.873L70.7292 147.177" stroke="#1B1B1B" stroke-width="4.16535" stroke-miterlimit="10"/>
<path id="Vector_7" d="M183.265 104.599L206.697 97.9038" stroke="#1B1B1B" stroke-width="4.16535" stroke-miterlimit="10"/>
<path id="Vector_8" d="M186.097 114.215L209.529 107.521" stroke="#1B1B1B" stroke-width="4.16535" stroke-miterlimit="10"/>
</g>
</svg>
