<svg width="681" height="388" viewBox="0 0 681 388" fill="none" xmlns="http://www.w3.org/2000/svg">
<rect x="680.415" y="387.409" width="679.914" height="386.909" rx="29.5" transform="rotate(-180 680.415 387.409)" fill="white" stroke="black"/>
<line x1="677.416" y1="15.2057" x2="340.184" y2="151.573" stroke="black"/>
<line x1="0.186129" y1="14.2781" x2="340.183" y2="150.645" stroke="black"/>
<path d="M364.922 68.3906C364.922 68.3906 365.249 68.1914 365.263 68.1914C365.277 68.2199 364.438 69.5573 364.452 69.6C364.466 69.6285 365.548 68.9313 365.562 68.9598C365.59 69.0167 363.911 70.8806 363.94 70.9375C363.968 70.9802 365.861 69.7565 365.889 69.8135C365.932 69.8704 364.111 72.09 364.153 72.1612C364.196 72.2323 365.932 71.0371 365.974 71.1083C366.031 71.1936 362.773 73.7263 362.83 73.8259C362.887 73.9255 366.558 71.5493 366.615 71.6489C366.686 71.777 362.204 75.946 362.275 76.074C362.346 76.2021 365.249 74.1816 365.32 74.3097C365.348 74.3666 363.641 76.5151 363.669 76.572C363.769 76.7285 365.078 75.5476 365.178 75.7041C365.249 75.8179 360.767 79.0051 360.838 79.1332C360.938 79.3181 363.499 77.3546 363.613 77.5396C363.613 77.5538 364.495 77.7957 364.509 77.8099C364.623 78.0091 365.348 77.07 365.462 77.2692C365.533 77.3831 361.45 80.5276 361.507 80.6414C361.635 80.8548 363.769 79.0478 363.897 79.2612C363.926 79.3039 363.741 81.2532 363.769 81.2959C363.911 81.552 366.074 79.6169 366.231 79.8731C366.316 80.0153 361.564 84.3977 361.649 84.5258C361.82 84.8246 366.359 81.4097 366.544 81.7085C366.615 81.8366 361.72 85.3653 361.791 85.4933C361.976 85.8206 367.312 81.8793 367.497 82.1923C367.625 82.42 358.433 87.8695 358.561 88.0972C358.761 88.4387 366.117 83.2879 366.316 83.6152C366.401 83.7717 360.596 87.5992 360.681 87.7557C360.881 88.1114 367.283 83.4729 367.483 83.8286C367.582 83.9993 360.653 88.3248 360.753 88.5098C360.966 88.8797 368.749 83.4017 368.962 83.7717C369.119 84.042 358.817 90.9998 358.974 91.2701C359.202 91.6828 367.739 85.6641 367.981 86.0767C368.123 86.3186 358.362 92.0812 358.504 92.3231C358.746 92.7499 369.546 85.3795 369.788 85.8064" stroke="#CCCCCC" stroke-width="3.18157" stroke-linecap="round" stroke-linejoin="round"/>
<path d="M280.744 109.496C280.929 109.823 288.384 104.644 288.584 104.971C288.754 105.284 276.432 112.171 276.603 112.47C276.902 112.982 289.58 104.288 289.878 104.8C290.106 105.199 274.028 114.334 274.255 114.732C274.967 115.97 316.614 88.6225 317.34 89.8604C318.065 91.0982 267.739 117.862 268.45 119.1C269.204 120.409 318.051 88.7078 318.805 90.0169C319.559 91.3259 265.974 120.167 266.729 121.476C267.525 122.856 317.439 90.3441 318.236 91.7385C319.033 93.1329 262.403 123.212 263.2 124.592C263.997 125.972 316.97 91.6389 317.795 93.076C318.563 94.4135 264.139 123.326 264.907 124.663C265.761 126.143 316.6 92.8484 317.453 94.3281C318.207 95.6229 265.078 123.383 265.818 124.678C266.686 126.172 315.888 93.7732 316.756 95.2672C317.539 96.6189 262.944 126.613 263.726 127.964C264.623 129.515 319.801 93.5171 320.697 95.068C321.594 96.6189 259.13 130.497 260.027 132.034C260.98 133.684 321.907 94.1005 322.86 95.751C323.814 97.4015 258.134 133.001 259.074 134.609C260.112 136.402 324.738 94.3139 325.763 96.1067C326.787 97.8995 255.588 136.374 256.598 138.124C257.708 140.03 328.836 93.8728 329.932 95.7794C330.956 97.558 258.447 136.701 259.472 138.494C260.639 140.514 330.529 94.7692 331.696 96.7897C332.792 98.6821 255.559 139.49 256.655 141.382C257.85 143.459 332.778 94.6554 333.973 96.747C335.168 98.8386 254.207 141.055 255.36 143.033C256.584 145.153 337.231 92.9337 338.455 95.0538C339.607 97.0458 258.106 140.457 259.273 142.463C260.539 144.669 339.351 93.3037 340.617 95.4949C341.813 97.558 257.551 141.724 258.746 143.787C260.041 146.035 341.4 93.076 342.695 95.3099C343.918 97.4157 257.395 142.478 258.618 144.598C259.927 146.874 342.396 93.2041 343.705 95.4664C344.915 97.5722 258.618 142.293 259.828 144.398C261.151 146.689 344.075 92.7061 345.398 94.9969C346.722 97.2877 257.11 144.171 258.376 146.362C259.728 148.696 345.825 92.763 347.177 95.0965C348.529 97.43 255.545 146.462 256.854 148.738C258.234 151.129 349.083 92.2934 350.478 94.6838C351.872 97.0742 256.142 146.789 257.494 149.122C258.846 151.456 345.626 95.0111 347.02 97.43C348.287 99.6354 258.376 147.458 259.643 149.663C261.08 152.139 352.925 92.4926 354.362 94.9826C355.799 97.4726 255.502 150.047 256.911 152.509C258.59 155.426 366.528 85.3214 368.221 88.2525C369.814 91.0129 256.953 150.389 258.547 153.149C260.24 156.066 366.101 87.1569 367.78 90.0738C369.373 92.8199 256.882 152.125 258.476 154.871C260.169 157.802 367.524 88.0106 369.217 90.9275C370.91 93.8444 256.712 154.031 258.334 156.82C260.027 159.751 367.41 89.9315 369.103 92.8626C370.796 95.7937 255.844 155.511 257.466 158.314C259.088 161.117 369.914 89.4762 371.607 92.4073C373.3 95.3384 257.765 156.336 259.401 159.168C261.037 161.999 371.607 90.4722 373.3 93.4033C374.994 96.3343 259.799 156.208 261.421 159.025C263.043 161.843 369.302 92.8341 370.995 95.7652C372.561 98.4829 260.923 156.251 262.488 158.969C264.182 161.9 372.689 91.4397 374.382 94.3708C376.075 97.3019 261.62 156.934 263.242 159.723C264.936 162.654 373.685 92.0515 375.378 94.9826C377.071 97.9137 258.718 159.31 260.383 162.198C262.047 165.087 373.315 93.0903 375.008 96.0213C376.701 98.9524 258.248 161.373 259.927 164.262C261.606 167.15 372.176 95.5518 373.87 98.4686C375.463 101.229 262.673 161.103 264.267 163.863C265.96 166.78 372.618 97.4157 374.311 100.333C376.004 103.249 261.962 162.07 263.556 164.845C265.234 167.762 372.475 98.0702 374.168 100.987C375.762 103.762 262.19 162.725 263.783 165.499C265.462 168.416 374.069 97.9422 375.748 100.859C377.341 103.605 264.651 162.511 266.245 165.258C267.938 168.189 374.396 98.9097 376.089 101.841C377.683 104.601 265.135 164.048 266.729 166.794C268.436 169.754 374.396 100.688 376.104 103.648C377.683 106.365 266.245 164.959 267.81 167.676C269.532 170.664 378.622 99.7207 380.344 102.695C382.065 105.668 265.846 166.012 267.483 168.857C269.219 171.86 377.27 101.471 379.006 104.473C380.742 107.475 263.271 168.174 264.921 171.034C266.657 174.037 379.831 100.688 381.567 103.691C383.303 106.693 263.186 169.512 264.879 172.443C266.572 175.374 379.148 102.438 380.899 105.455C382.649 108.471 263.627 170.067 265.306 172.969C266.985 175.872 381.866 101.642 383.616 104.658C385.366 107.675 267.027 169.455 268.692 172.343C270.442 175.388 383.09 102.239 384.854 105.284C386.505 108.144 269.916 169.811 271.566 172.671C273.331 175.73 387.259 101.798 389.023 104.857C390.787 107.916 270.115 171.589 271.822 174.549C273.53 177.508 388.81 102.908 390.574 105.981C392.338 109.055 272.135 171.632 273.829 174.563C275.607 177.651 387.102 105.056 388.881 108.144C390.659 111.232 269.916 174.364 271.623 177.309C273.402 180.397 390.147 104.758 391.94 107.845C393.733 110.933 272.875 174.364 274.583 177.309C276.375 180.411 392.253 105.241 394.046 108.343C395.839 111.445 272.292 175.644 274.028 178.647C275.764 181.649 393.206 105.697 394.999 108.799C396.792 111.9 272.477 177.081 274.241 180.126C276.006 183.171 392.281 107.831 394.074 110.947C395.782 113.892 274.81 176.797 276.518 179.742C278.311 182.858 394.999 107.191 396.792 110.307C398.585 113.423 275.621 176.854 277.343 179.856C279.065 182.858 393.847 108.443 395.639 111.559C397.333 114.49 277.357 177.167 279.05 180.084C280.843 183.2 397.404 107.603 399.197 110.719C400.989 113.835 277.457 177.878 279.193 180.895C280.929 183.911 395.824 109.396 397.617 112.512C399.41 115.628 277.841 179.799 279.548 182.773C281.256 185.747 397.646 110.435 399.438 113.551C401.117 116.468 281.996 179.5 283.675 182.403C285.468 185.519 398.044 112.213 399.837 115.344C401.516 118.261 282.408 181.379 284.102 184.295C285.894 187.411 402.256 111.929 404.048 115.045C405.841 118.161 281.427 182.972 283.177 186.017C284.927 189.062 402.469 112.996 404.262 116.112C406.055 119.228 283.917 182.972 285.638 185.946C287.36 188.92 402.626 114.277 404.418 117.378C406.211 120.48 283.476 184.039 285.211 187.027C286.947 190.015 404.12 114.248 405.912 117.336C407.705 120.423 283.774 185.291 285.524 188.322C287.275 191.353 405.628 114.86 407.421 117.948C409.1 120.85 290.206 183.57 291.885 186.472C293.663 189.546 404.418 117.393 406.197 120.48C407.862 123.369 289.48 185.306 291.145 188.194C292.923 191.267 407.534 116.909 409.299 119.968C410.978 122.871 292.155 185.277 293.82 188.18C295.584 191.239 409.413 117.364 411.177 120.423C412.941 123.482 292.511 185.647 294.204 188.578C295.897 191.509 408.232 118.673 409.982 121.732C411.732 124.792 291.628 186.728 293.307 189.645C294.986 192.562 409.455 118.531 411.22 121.576C412.984 124.621 293.606 186.785 295.285 189.688C296.964 192.591 407.25 120.992 409 124.037C410.65 126.897 293.364 187.938 295.015 190.798C296.765 193.829 409.47 120.679 411.22 123.71C412.97 126.741 293.35 189.631 295.043 192.562C296.737 195.493 409.256 122.615 410.992 125.617C412.728 128.619 294.958 190.343 296.609 193.217C298.259 196.091 413.752 121.604 415.474 124.592C417.196 127.58 297.832 189.247 299.511 192.15C301.19 195.052 411.163 123.724 412.884 126.698C414.492 129.487 300.123 188.948 301.731 191.737C303.438 194.696 414.563 122.643 416.271 125.603C417.978 128.562 301.873 189.531 303.509 192.377C305.146 195.223 410.907 126.456 412.6 129.387C414.165 132.105 302.542 190.044 304.121 192.761C305.814 195.692 413.809 125.531 415.488 128.462C417.167 131.394 302.058 191.239 303.68 194.042C305.302 196.845 413.624 126.684 415.317 129.587C416.911 132.333 304.491 191.737 306.07 194.497C307.65 197.258 412.856 129.003 414.521 131.877C416.072 134.552 306.227 191.808 307.764 194.483C309.414 197.343 413.112 129.843 414.763 132.703C416.271 135.321 309.016 190.855 310.524 193.473C312.175 196.319 416.086 128.719 417.736 131.579C419.387 134.438 307.024 192.733 308.603 195.465C310.183 198.197 415.076 130.213 416.712 133.044C418.348 135.876 307.294 194.156 308.859 196.859C310.424 199.563 417.637 130.312 419.259 133.115C420.781 135.748 312.772 192.349 314.295 194.981C315.902 197.756 416.897 132.034 418.505 134.823C419.999 137.412 314.579 193.459 316.059 196.048C317.638 198.78 415.872 134.78 417.452 137.512C418.917 140.045 315.319 195.066 316.785 197.613C318.336 200.288 416.797 136.302 418.334 138.977C419.757 141.453 318.236 194.355 319.673 196.831C321.21 199.492 417.309 136.928 418.832 139.575C420.269 142.065 318.165 194.91 319.602 197.4C321.124 200.046 418.448 136.815 419.97 139.447C421.379 141.88 321.679 194.042 323.074 196.475C324.582 199.093 418.419 137.953 419.928 140.557C421.436 143.161 319.602 196.461 321.039 198.951C322.476 201.441 418.604 139.191 420.084 141.766C421.436 144.1 326.204 194.853 327.556 197.201C329.007 199.719 421.72 139.475 423.172 141.994C424.623 144.512 325.037 197.315 326.446 199.762C327.854 202.209 421.265 141.752 422.688 144.199C424.111 146.647 326.474 197.556 327.84 199.947C329.206 202.337 421.848 142.449 423.243 144.868C424.637 147.287 327.072 197.827 328.452 200.203C329.832 202.579 421.165 143.488 422.546 145.878C423.855 148.155 331.013 197.172 332.336 199.435C333.66 201.697 422.603 144.199 423.954 146.547C425.306 148.895 334.015 197.571 335.31 199.805C336.605 202.038 422.233 146.618 423.527 148.866C424.822 151.114 337.245 197.343 338.483 199.492C339.721 201.64 421.208 148.809 422.474 151.001C423.655 153.035 340.66 197.272 341.841 199.307C343.022 201.341 419.387 151.726 420.596 153.832C421.706 155.767 342.524 196.945 343.634 198.88C344.843 200.971 421.564 151.1 422.773 153.192C423.869 155.098 346.408 196.731 347.504 198.638C348.6 200.544 421.265 153.405 422.418 155.383C423.499 157.261 346.978 198.424 348.073 200.317C349.169 202.209 418.661 157.062 419.743 158.94C420.739 160.662 350.649 198.311 351.645 200.032C352.641 201.754 420.525 157.901 421.55 159.666C422.474 161.259 357.564 196.02 358.474 197.613C359.385 199.207 415.574 162.426 416.541 164.091C417.352 165.499 359.883 196.475 360.694 197.884C361.59 199.449 415.246 164.318 416.143 165.869C416.925 167.221 362.231 196.845 363.013 198.197C363.838 199.62 417.366 164.916 418.192 166.339C418.903 167.563 369.345 194.512 370.056 195.735C370.796 197.016 415.104 168.018 415.844 169.298C416.498 170.437 370.384 195.152 371.038 196.29C371.693 197.428 415.147 169.256 415.815 170.437C416.37 171.404 376.858 192.804 377.413 193.772C378.01 194.81 409.228 174.008 409.839 175.061C410.281 175.829 378.793 192.904 379.248 193.686C379.774 194.597 407.662 176.057 408.189 176.968C408.545 177.58 384.328 191.666 384.683 192.278C385.039 192.889 406.738 178.718 407.093 179.344C407.364 179.799 388.952 190.101 389.222 190.57C389.436 190.94 403.479 181.834 403.693 182.218" stroke="#D9D9D9" stroke-width="3.18157" stroke-linecap="round" stroke-linejoin="round"/>
<path d="M310.851 68.3906C310.851 68.3906 311.178 68.1914 311.192 68.1914C311.235 68.2483 309.869 70.7525 309.912 70.8095C309.94 70.8521 311.761 69.6712 311.79 69.7281C311.833 69.7992 309.471 71.777 309.513 71.8481C309.556 71.9051 312.018 70.3257 312.046 70.3826C312.06 70.4253 310.993 71.6347 311.007 71.6774C311.05 71.7485 311.093 71.5209 311.15 71.592C311.207 71.6916 308.147 75.0923 308.204 75.1919C308.275 75.3057 312.8 72.3888 312.871 72.5027C312.971 72.6592 307.322 77.3688 307.422 77.5253C307.521 77.6819 310.239 75.6899 310.324 75.8464C310.324 75.8606 310.068 76.757 310.082 76.7712C310.182 76.942 311.861 75.5191 311.961 75.6899C312.003 75.761 310.367 78.3221 310.41 78.3933C310.524 78.6067 310.367 78.1372 310.495 78.3506C310.524 78.3933 309.883 80.3711 309.897 80.428C310.04 80.6699 310.936 79.5031 311.078 79.745C311.15 79.8588 306.924 83.1314 306.981 83.2452C307.137 83.5156 312.089 79.93 312.245 80.2003C312.331 80.3426 307.678 84.7677 307.749 84.91C307.934 85.223 313.241 81.3244 313.412 81.6374C313.526 81.8508 305.159 86.6316 305.273 86.8451C305.458 87.1723 313.91 81.4382 314.095 81.7512C314.223 81.9789 305.714 87.6703 305.842 87.898C306.042 88.2537 314.65 82.3488 314.863 82.6903C315.048 83.0176 302.499 91.1848 302.684 91.512C302.911 91.8962 316.684 82.918 316.898 83.3021C317.111 83.6863 302.043 92.2804 302.257 92.6646C302.484 93.063 316.969 83.6294 317.211 84.0278C317.396 84.3551 304.377 91.9389 304.562 92.2661C304.804 92.693 314.65 85.8775 314.892 86.3044C315.062 86.6174 303.381 94.4858 303.566 94.7988C303.836 95.2684 317.609 86.0767 317.88 86.532C318.107 86.9304 302.299 96.8193 302.527 97.2177C302.812 97.7157 316.243 88.6379 316.528 89.1359C316.741 89.5058 301.616 98.0145 301.83 98.3844C302.129 98.8967 318.435 88.1114 318.733 88.6236" stroke="#CCCCCC" stroke-width="3.18157" stroke-linecap="round" stroke-linejoin="round"/>
<path d="M311.194 69.9122C311.194 69.9122 312.304 69.2292 312.332 69.2577C312.361 69.3146 311.806 71.4774 311.834 71.5343C311.848 71.5627 312.958 70.8513 312.972 70.8798C313.001 70.9224 312.261 72.6156 312.275 72.6583C312.289 72.6868 313.399 71.9754 313.414 72.0038C313.428 72.0323 312.474 73.1706 312.489 73.2132C312.503 73.2417 313.613 72.5303 313.627 72.5587C313.641 72.6014 312.802 74.01 312.816 74.0527C312.83 74.0812 313.94 73.3698 313.954 73.3982C313.968 73.4267 313.954 74.5223 313.968 74.5507C313.983 74.5792 314.267 74.3373 314.281 74.3658C314.31 74.4227 313.812 76.6566 313.855 76.7135C313.869 76.7419 314.979 76.0305 314.993 76.059C315.021 76.1016 315.42 77.8091 315.448 77.8518C315.462 77.8802 315.448 77.8091 315.462 77.8518C315.491 77.8944 315.064 79.8722 315.092 79.9149C315.107 79.9434 316.217 79.2319 316.231 79.2604C316.259 79.3031 315.647 81.3804 315.676 81.4231C315.69 81.4516 316.8 80.7402 316.814 80.7686C316.843 80.8113 316.188 82.7891 316.217 82.8318C316.231 82.8602 317.341 82.1488 317.355 82.1772C317.383 82.2199 316.757 84.2546 316.786 84.3115C316.8 84.34 317.91 83.6286 317.924 83.657C317.952 83.6997 317.184 85.3787 317.213 85.4214C317.227 85.4498 318.337 84.7384 318.365 84.7668C318.379 84.7953 317.454 86.0616 317.483 86.1043C317.497 86.1328 318.607 85.4071 318.635 85.4356C318.65 85.464 317.739 86.7588 317.753 86.7873C317.767 86.8158 318.877 86.0901 318.906 86.1186C318.934 86.1612 318.18 87.8829 318.209 87.9256C318.223 87.954 319.333 87.2284 319.361 87.2568C319.375 87.2853 318.379 88.3667 318.394 88.3951C318.408 88.4236 319.532 87.6979 319.546 87.7264C319.574 87.7691 318.792 89.4196 318.82 89.4623C318.835 89.4907 319.959 88.7651 319.973 88.7935C319.987 88.822 318.991 89.9034 319.005 89.946C319.02 89.9745 320.144 89.2488 320.158 89.2773C320.186 89.32 319.347 90.814 319.361 90.8567C319.375 90.8851 320.499 90.1595 320.514 90.1879C320.542 90.2306 319.816 92.0234 319.845 92.0661C319.859 92.0945 320.983 91.3689 320.997 91.3974C321.026 91.4401 320.371 93.4178 320.4 93.4605C320.414 93.489 321.538 92.7633 321.552 92.7918C321.581 92.8344 320.755 94.3711 320.77 94.4138C320.784 94.4423 321.908 93.7166 321.922 93.7451C321.951 93.7878 321.083 95.2248 321.097 95.2533C321.111 95.2818 322.292 94.5276 322.306 94.5561C322.321 94.5845 323.288 95.6659 323.302 95.7086C323.345 95.7798 325.992 94.0723 326.034 94.1293C326.048 94.1577 327.116 94.8264 327.13 94.8549C327.173 94.926 327.372 94.6272 327.4 94.6984C327.429 94.7553 329.961 94.9972 330.004 95.0541C330.032 95.111 332.423 93.5743 332.451 93.6312C332.466 93.6739 333.575 94.798 333.604 94.8407C333.632 94.8976 335.895 93.432 335.937 93.4889C335.952 93.5174 336.549 94.6984 336.563 94.7268C336.592 94.7838 338.755 93.3894 338.783 93.4463C338.811 93.489 337.602 94.6841 337.616 94.7126C337.645 94.7695 339.793 93.3751 339.822 93.432C339.836 93.4605 338.897 94.6557 338.925 94.6842C338.954 94.7411 341.045 93.3894 341.074 93.4463C341.088 93.4747 340.021 94.6557 340.049 94.6842C340.078 94.7411 342.141 93.4036 342.184 93.4605C342.198 93.489 342.824 94.6984 342.838 94.7268C342.867 94.7838 344.859 93.489 344.887 93.5459C344.916 93.5886 346.196 94.8264 346.21 94.8691C346.239 94.9118 348.16 93.6739 348.188 93.7309C348.202 93.7593 348.942 95.0114 348.956 95.0399C348.985 95.0826 350.849 93.8874 350.877 93.9301C350.892 93.9585 349.839 95.0683 349.867 95.111C349.896 95.1537 351.76 93.9585 351.788 94.0012C351.802 94.0296 351.148 95.1822 351.162 95.2106C351.19 95.2533 353.054 94.0581 353.083 94.1008C353.111 94.1435 354.107 95.4667 354.136 95.5094C354.15 95.5379 355.331 94.7838 355.345 94.8122" stroke="black" stroke-width="3.18157" stroke-linecap="round" stroke-linejoin="round"/>
<path d="M364.921 66.54C364.921 66.54 365.248 66.3408 365.262 66.3408C365.291 66.3977 364.067 68.5889 364.11 68.6459C364.138 68.6885 365.76 67.6356 365.789 67.6783C365.832 67.7495 363.427 70.1968 363.47 70.2821C363.512 70.3533 366.145 68.6458 366.187 68.717C366.258 68.8308 362.402 72.7295 362.474 72.8575C362.502 72.9002 364.195 71.8046 364.209 71.8473C364.252 71.9184 361.919 74.5934 361.961 74.6645C361.99 74.7072 362.488 74.3088 362.516 74.3515C362.559 74.4084 361.35 76.9127 361.378 76.9696C361.406 77.0123 361.791 76.6708 361.819 76.7135C361.862 76.7846 359.756 79.6303 359.799 79.7014C359.827 79.7441 361.534 78.6343 361.563 78.677C361.62 78.7624 358.902 81.7646 358.959 81.85C358.988 81.8927 360.709 80.7828 360.723 80.8255C360.766 80.9109 358.148 83.6997 358.205 83.7851C358.233 83.8277 359.955 82.7179 359.984 82.7606C360.026 82.8317 357.636 85.0656 357.679 85.1368C357.707 85.1794 359.429 84.0696 359.457 84.1123C359.514 84.2119 356.725 87.3707 356.768 87.456C356.796 87.4987 358.532 86.3747 358.561 86.4173C358.618 86.5169 355.786 89.7611 355.829 89.8607C355.857 89.9033 357.593 88.7793 357.622 88.822C357.664 88.8789 355.43 90.7001 355.473 90.7713C355.502 90.814 357.252 89.6899 357.28 89.7326C357.323 89.818 354.762 92.4218 354.804 92.5072C354.833 92.5499 356.583 91.4258 356.611 91.4685C356.654 91.5396 354.335 93.5459 354.378 93.617C354.406 93.6597 356.156 92.5214 356.185 92.5783" stroke="black" stroke-width="3.18157" stroke-linecap="round" stroke-linejoin="round"/>
<path d="M365.261 69.8126C365.261 69.8126 366.343 69.1438 366.357 69.1723C366.385 69.215 365.645 70.8228 365.66 70.8655C365.674 70.8939 366.741 70.1967 366.755 70.2252C366.784 70.2679 366.001 71.7619 366.015 71.8046C366.03 71.833 367.097 71.1358 367.111 71.1643C367.139 71.207 366.513 73.1136 366.542 73.1563C366.556 73.1847 367.623 72.4875 367.637 72.516C367.666 72.5729 367.154 74.7641 367.182 74.8068C367.196 74.8353 368.263 74.138 368.292 74.1665C368.32 74.2092 367.524 75.689 367.538 75.7174C367.552 75.7459 368.633 75.0487 368.648 75.0771C368.676 75.1198 368.022 76.9553 368.036 76.998C368.05 77.0264 369.131 76.3292 369.146 76.3577C369.174 76.4004 368.434 78.0082 368.448 78.0509C368.463 78.0794 369.544 77.3822 369.558 77.4106C369.587 77.4533 368.79 78.9473 368.818 78.99C368.833 79.0184 369.914 78.3213 369.928 78.3497C369.957 78.3924 369.387 80.484 369.416 80.5267C369.43 80.5551 370.512 79.8579 370.526 79.8864C370.554 79.9291 369.985 82.0065 370.014 82.0634C370.028 82.0918 371.109 81.3946 371.123 81.4231C371.152 81.4658 370.597 83.6001 370.625 83.6427C370.64 83.6712 371.721 82.974 371.735 83.0024C371.764 83.0451 371.237 84.9233 371.266 84.966C371.28 84.9945 371.55 84.7668 371.564 84.7953C371.593 84.8379 371.735 86.5169 371.749 86.5596C371.764 86.588 372.845 85.8909 372.859 85.9193C372.874 85.9478 372.006 87.2426 372.02 87.271C372.034 87.2995 373.115 86.6023 373.13 86.6307C373.158 86.6734 372.475 88.4947 372.504 88.5374C372.518 88.5658 373.599 87.8686 373.613 87.8971C373.628 87.9255 372.731 89.1634 372.76 89.1919C372.774 89.2203 373.855 88.5231 373.87 88.5516C373.898 88.5943 373.315 90.6574 373.343 90.7001C373.357 90.7286 374.439 90.0314 374.467 90.0598C374.496 90.1025 373.756 91.7815 373.784 91.8242C373.798 91.8526 374.88 91.1554 374.908 91.1839C374.937 91.2266 374.126 92.7063 374.14 92.749C374.154 92.7775 375.235 92.0803 375.264 92.1087C375.278 92.1372 374.339 93.2755 374.353 93.3039C374.367 93.3324 375.463 92.6352 375.477 92.6637C375.506 92.7206 374.979 94.9402 375.008 94.9971C375.022 95.0256 376.118 94.3284 376.132 94.3568C376.16 94.3995 375.463 96.1639 375.477 96.2066C375.492 96.235 376.587 95.5378 376.601 95.5521C376.63 95.609 376.075 97.7575 376.103 97.8144C376.118 97.8429 377.213 97.1314 377.227 97.1599C377.256 97.2026 376.601 99.1092 376.63 99.1519C376.644 99.1803 377.74 98.4689 377.754 98.4974C377.768 98.5258 376.829 99.6926 376.858 99.721C376.872 99.7495 377.967 99.0381 377.982 99.0665C377.996 99.095 377.469 100.361 377.484 100.404C377.498 100.447 378.921 99.5218 378.935 99.5645C378.949 99.593 378.138 100.603 378.152 100.632C378.167 100.674 379.589 99.7637 379.604 99.7922C379.604 99.8064 379.917 100.546 379.931 100.575M379.931 100.575C379.931 100.532 379.945 100.617 379.931 100.575ZM379.931 100.575C379.945 100.603 380.955 101.571 380.97 101.599C380.984 101.628 382.364 100.745 382.392 100.774C382.407 100.802 381.638 101.813 381.667 101.841C381.681 101.87 383.061 100.987 383.09 101.016C383.104 101.044 383.488 102.481 383.502 102.51C383.517 102.538 384.868 101.67 384.882 101.713C384.911 101.756 385.58 103.321 385.608 103.349C385.622 103.378 386.946 102.524 386.974 102.567C387.002 102.609 387.529 104.146 387.543 104.175C387.557 104.203 388.866 103.364 388.895 103.392C388.909 103.42 388.639 104.63 388.653 104.644C388.667 104.673 389.962 103.847 389.976 103.876C389.99 103.904 389.976 105.242 389.991 105.27C390.005 105.299 391.285 104.473 391.314 104.502C391.328 104.53 390.759 105.612 390.773 105.626C390.787 105.654 392.068 104.843 392.082 104.872C392.096 104.9 392.253 106.323 392.267 106.366C392.281 106.408 393.548 105.583 393.562 105.612C393.576 105.64 392.85 106.636 392.865 106.665C392.879 106.693 394.131 105.882 394.159 105.925C394.188 105.967 394.672 107.589 394.7 107.632C394.714 107.661 395.952 106.864 395.966 106.906C395.981 106.949 396.009 108.344 396.038 108.372C396.066 108.4 397.275 107.618 397.29 107.646C397.304 107.675 396.749 108.756 396.763 108.785C396.778 108.813 397.987 108.031 398.001 108.073C398.015 108.102 397.347 109.126 397.361 109.155C397.375 109.183 398.585 108.415 398.599 108.443C398.613 108.472 398.428 109.781 398.456 109.809C398.485 109.838 399.666 109.069 399.694 109.098C399.709 109.126 399.011 110.136 399.026 110.165C399.04 110.193 400.221 109.425 400.249 109.468C400.278 109.51 400.05 110.805 400.064 110.834C400.079 110.862 401.26 110.108 401.274 110.136C401.288 110.165 401.601 111.346 401.615 111.374C401.629 111.403 402.028 111.104 402.042 111.132C402.056 111.175 402.725 112.626 402.739 112.655C402.754 112.683 403.906 111.943 403.92 111.972C403.934 112 403.92 113.494 403.92 113.537C403.934 113.565 405.073 112.826 405.101 112.854C405.115 112.882 404.589 114.007 404.603 114.035C404.617 114.063 405.756 113.338 405.77 113.366C405.784 113.395 405.329 114.604 405.357 114.633C405.386 114.661 406.51 113.935 406.524 113.964C406.538 113.992 406.04 115.159 406.069 115.187C406.097 115.216 407.207 114.49 407.221 114.519C407.236 114.547 406.638 115.657 406.666 115.685C406.695 115.714 407.805 114.988 407.819 115.017C407.833 115.045 407.321 116.226 407.335 116.255C407.349 116.283 408.459 115.572 408.488 115.6C408.502 115.629 408.146 116.938 408.16 116.966C408.175 116.995 409.284 116.283 409.299 116.312C409.313 116.354 409.256 117.948 409.284 117.991C409.299 118.019 410.394 117.308 410.408 117.336C410.437 117.379 410.38 119.029 410.408 119.072C410.423 119.1 411.518 118.403 411.533 118.432C411.547 118.46 411.205 119.854 411.234 119.883C411.248 119.911 412.329 119.214 412.344 119.243C412.372 119.285 412.287 120.993 412.315 121.035C412.329 121.064 413.411 120.367 413.425 120.395C413.439 120.424 412.842 121.605 412.856 121.633C412.87 121.662 413.951 120.964 413.966 120.993C413.994 121.035 414.051 122.985 414.065 123.027C414.079 123.056 415.147 122.373 415.161 122.387C415.175 122.401 414.336 123.34 414.35 123.369C414.364 123.397 415.431 122.714 415.445 122.743C415.474 122.786 415.275 124.507 415.289 124.55C415.303 124.578 416.356 123.895 416.384 123.924C416.399 123.952 415.915 125.404 415.943 125.432C415.958 125.461 417.011 124.778 417.025 124.806C417.053 124.849 416.74 126.542 416.754 126.585C416.769 126.613 417.822 125.93 417.836 125.959C417.85 125.987 417.352 127.481 417.381 127.524C417.395 127.552 418.448 126.869 418.462 126.898C418.476 126.926 417.679 127.993 417.694 128.022C417.708 128.05 418.761 127.367 418.775 127.396C418.803 127.438 418.604 129.544 418.633 129.587C418.647 129.615 419.7 128.932 419.714 128.961C419.728 129.003 419.145 130.526 419.159 130.554C419.173 130.583 420.226 129.9 420.24 129.928C420.269 129.971 419.771 131.735 419.785 131.778C419.799 131.806 420.852 131.123 420.867 131.152C420.895 131.209 420.525 133.4 420.553 133.457C420.568 133.485 421.635 132.802 421.649 132.831C421.678 132.874 421.08 134.723 421.108 134.766C421.123 134.794 422.19 134.111 422.204 134.14C422.232 134.183 421.521 135.904 421.535 135.947C421.549 135.975 422.617 135.278 422.631 135.307C422.645 135.335 421.706 136.431 421.72 136.459C421.734 136.488 422.802 135.805 422.816 135.819C422.83 135.862 421.948 137.213 421.962 137.256C421.976 137.284 423.058 136.587 423.072 136.616C423.086 136.644 422.161 137.967 422.19 137.996C422.204 138.024 423.285 137.327 423.3 137.356C423.328 137.398 422.474 139.163 422.503 139.205C422.517 139.234 423.613 138.522 423.627 138.551C423.641 138.579 422.631 139.803 422.659 139.831C422.673 139.86 423.769 139.148 423.783 139.177C423.812 139.234 422.987 141.582 423.015 141.638C423.029 141.667 424.139 140.941 424.167 140.97C424.196 141.012 423.186 142.862 423.214 142.919C423.228 142.947 424.367 142.208 424.381 142.236C424.409 142.293 423.371 144.669 423.413 144.726C423.428 144.754 424.594 144 424.609 144.029C424.637 144.086 423.47 146.362 423.499 146.419C423.513 146.448 424.708 145.679 424.737 145.708C424.765 145.75 423.499 146.875 423.513 146.917C423.527 146.946 424.722 146.177 424.751 146.206C424.779 146.248 423.513 147.486 423.527 147.529C423.541 147.558 424.751 146.789 424.765 146.818C424.794 146.875 423.442 149.279 423.47 149.35C423.485 149.379 424.722 148.582 424.751 148.61C424.779 148.667 423.342 150.574 423.371 150.631C423.385 150.659 424.666 149.834 424.68 149.877C424.708 149.934 423.157 152.039 423.186 152.096C423.2 152.125 424.537 151.271 424.552 151.314C424.58 151.357 423.043 152.879 423.072 152.922C423.086 152.95 424.424 152.096 424.452 152.125C424.481 152.182 422.773 154.345 422.802 154.401C422.816 154.444 424.21 153.548 424.224 153.576C424.267 153.647 422.36 156.052 422.389 156.123C422.417 156.166 423.855 155.227 423.883 155.269C423.911 155.326 422.104 156.977 422.133 157.034C422.161 157.076 423.655 156.095 423.684 156.137C423.726 156.208 421.549 158.67 421.592 158.741C421.621 158.784 423.2 157.759 423.214 157.802C423.257 157.873 420.909 160.349 420.952 160.42C420.98 160.463 422.645 159.381 422.673 159.424C422.716 159.495 420.454 161.445 420.497 161.516C420.525 161.558 422.247 160.449 422.275 160.491C422.332 160.591 419.287 163.821 419.344 163.92C419.373 163.963 421.265 162.739 421.293 162.796C421.336 162.867 419.116 165.087 419.145 165.158C419.173 165.215 420.454 164.333 420.482 164.39C420.539 164.489 416.968 167.719 417.025 167.819C417.053 167.876 419.316 166.41 419.358 166.467C419.429 166.581 415.417 169.868 415.488 169.982C415.531 170.053 418.063 168.402 418.106 168.474C418.192 168.616 413.51 172.87 413.596 172.998C413.638 173.084 415.502 171.789 415.545 171.874C415.645 172.059 408.914 176.897 409.014 177.082C409.071 177.181 413.183 174.535 413.24 174.649C413.325 174.805 407.734 178.932 407.819 179.074C407.919 179.23 409.953 177.622 410.039 177.793" stroke="black" stroke-width="3.18157" stroke-linecap="round" stroke-linejoin="round"/>
<path d="M278.125 110.236C278.31 110.563 285.567 105.498 285.766 105.825C285.965 106.153 272.818 113.793 273.017 114.135C273.359 114.732 290.618 103.165 290.959 103.776C291.272 104.331 269.104 116.696 269.432 117.237C269.517 117.379 272.818 115.102 272.889 115.245C273.003 115.43 265.974 120.324 266.088 120.509C266.145 120.609 268.663 118.887 268.72 118.987C268.806 119.129 263.641 122.629 263.712 122.772C263.754 122.857 266.984 120.765 267.041 120.851C267.141 121.007 261.52 125.745 261.606 125.916C261.649 125.987 261.89 125.66 261.933 125.731C261.976 125.802 259.813 128.164 259.856 128.235C259.884 128.292 262.189 126.812 262.218 126.869C262.275 126.955 259.016 129.516 259.059 129.601C259.087 129.658 261.222 128.278 261.264 128.335C261.307 128.42 258.419 130.668 258.461 130.74C258.49 130.796 260.496 129.502 260.524 129.544C260.567 129.63 257.679 132.162 257.721 132.248C257.75 132.29 259.628 131.081 259.657 131.138C259.713 131.238 256.569 134.738 256.626 134.837C256.654 134.88 258.376 133.77 258.39 133.813C258.447 133.912 255.729 137.242 255.772 137.327C255.801 137.37 257.352 136.36 257.38 136.402C257.423 136.459 255.388 138.508 255.416 138.579C255.445 138.622 256.953 137.64 256.982 137.683C257.01 137.74 255.175 139.405 255.217 139.447C255.246 139.49 256.711 138.537 256.725 138.579C256.754 138.636 254.947 140.415 254.99 140.472C255.004 140.515 256.441 139.59 256.469 139.618C256.498 139.675 254.79 141.311 254.833 141.354C254.847 141.397 256.242 140.486 256.27 140.529C256.313 140.6 254.506 143.19 254.549 143.261C254.563 143.289 255.9 142.435 255.929 142.464C255.957 142.521 254.378 144.57 254.42 144.627C254.435 144.655 255.729 143.83 255.744 143.858C255.786 143.915 254.278 146.377 254.321 146.434C254.335 146.462 255.573 145.665 255.601 145.694C255.63 145.736 254.278 147.515 254.307 147.558C254.321 147.586 255.559 146.789 255.573 146.832C255.601 146.875 254.307 148.582 254.335 148.625C254.349 148.653 255.545 147.885 255.573 147.913C255.601 147.97 254.378 149.934 254.42 149.991C254.435 150.019 255.601 149.265 255.616 149.294C255.644 149.35 254.534 151.485 254.563 151.542C254.577 151.57 255.729 150.83 255.744 150.859C255.772 150.901 254.634 152.239 254.662 152.282C254.677 152.31 255.815 151.57 255.843 151.599C255.872 151.641 254.748 152.965 254.776 153.007C254.79 153.036 255.929 152.31 255.943 152.338C255.971 152.381 254.947 154.046 254.975 154.089C254.99 154.117 256.114 153.391 256.128 153.42C256.142 153.448 255.061 154.629 255.089 154.658C255.103 154.686 256.227 153.961 256.242 153.989C256.27 154.032 255.402 156.038 255.431 156.095C255.445 156.123 256.555 155.412 256.569 155.44C256.597 155.483 255.758 157.318 255.786 157.361C255.801 157.39 256.882 156.692 256.91 156.721C256.925 156.749 255.9 157.774 255.914 157.802C255.929 157.831 257.024 157.134 257.039 157.162C257.067 157.205 256.284 158.955 256.313 158.997C256.327 159.026 257.408 158.329 257.423 158.357C257.437 158.386 256.484 159.495 256.498 159.524C256.512 159.552 257.593 158.855 257.608 158.884C257.636 158.926 256.925 160.662 256.953 160.705C256.967 160.733 258.034 160.05 258.049 160.065C258.077 160.107 257.551 162.156 257.579 162.199C257.593 162.227 258.661 161.544 258.675 161.573C258.703 161.616 258.148 163.437 258.177 163.479C258.191 163.508 259.244 162.825 259.258 162.853C259.272 162.882 258.532 164.205 258.561 164.248C258.575 164.276 259.628 163.593 259.642 163.622C259.671 163.664 259.201 165.443 259.215 165.486C259.23 165.514 260.283 164.831 260.297 164.86C260.311 164.888 259.429 165.884 259.457 165.913C259.472 165.941 260.524 165.258 260.539 165.286C260.553 165.315 259.97 166.795 259.998 166.837C260.012 166.866 261.065 166.183 261.079 166.211C261.108 166.254 260.781 168.09 260.809 168.132C260.823 168.161 261.876 167.478 261.905 167.506C261.933 167.549 261.805 169.569 261.834 169.626C261.848 169.655 262.915 168.972 262.929 169C262.943 169.029 262.218 170.138 262.232 170.167C262.246 170.195 263.313 169.512 263.328 169.541C263.356 169.584 263.185 171.433 263.214 171.476C263.228 171.504 264.295 170.821 264.309 170.836C264.338 170.878 264.21 172.685 264.238 172.728C264.252 172.756 265.32 172.059 265.334 172.088C265.348 172.116 264.793 173.368 264.807 173.397C264.822 173.425 265.903 172.728 265.917 172.756C265.931 172.785 265.263 173.895 265.277 173.923C265.291 173.952 266.372 173.254 266.387 173.283C266.415 173.326 266.287 175.005 266.316 175.047C266.33 175.076 267.411 174.379 267.425 174.407C267.44 174.45 267.24 176.015 267.269 176.058C267.283 176.086 268.379 175.375 268.393 175.403C268.407 175.431 268.222 176.968 268.251 177.011C268.265 177.039 269.36 176.328 269.375 176.356C269.389 176.385 269.09 177.779 269.104 177.822C269.119 177.85 270.228 177.139 270.243 177.167C270.257 177.196 269.773 178.419 269.787 178.448C269.802 178.476 270.911 177.765 270.926 177.793C270.94 177.822 270.641 179.188 270.655 179.231C270.669 179.259 271.794 178.533 271.808 178.562C271.822 178.59 271.253 179.714 271.267 179.743C271.281 179.771 272.405 179.046 272.42 179.074C272.434 179.102 271.794 180.17 271.808 180.198C271.822 180.226 272.946 179.501 272.96 179.529C272.989 179.572 273.245 181.336 273.273 181.379C273.288 181.407 274.426 180.682 274.44 180.71C274.468 180.753 274.824 182.532 274.853 182.574C274.867 182.603 276.019 181.863 276.034 181.891C276.062 181.934 276.304 183.599 276.332 183.627C276.347 183.656 277.513 182.901 277.528 182.93C277.542 182.958 276.958 184.04 276.973 184.068C276.987 184.097 278.154 183.343 278.168 183.371C278.196 183.414 278.524 185.064 278.538 185.107C278.552 185.135 279.733 184.381 279.747 184.41C279.762 184.438 279.363 185.633 279.377 185.662C279.392 185.69 280.601 184.922 280.615 184.95C280.629 184.979 280.814 186.516 280.829 186.544C280.843 186.572 282.052 185.804 282.067 185.833C282.081 185.861 281.384 186.857 281.398 186.885C281.412 186.914 282.621 186.131 282.636 186.174C282.65 186.202 282.038 187.255 282.052 187.284C282.067 187.312 283.29 186.53 283.319 186.558C283.333 186.587 282.664 187.611 282.678 187.64C282.693 187.668 283.916 186.885 283.945 186.914C283.959 186.942 283.219 187.924 283.233 187.953C283.248 187.981 284.471 187.198 284.5 187.227C284.528 187.255 284.471 188.621 284.5 188.65C284.528 188.678 285.766 187.881 285.78 187.91C285.794 187.938 285.069 188.934 285.083 188.963C285.097 188.991 286.349 188.194 286.364 188.223C286.378 188.251 286.278 189.575 286.292 189.603C286.307 189.632 287.559 188.821 287.587 188.863C287.601 188.892 287.416 190.144 287.445 190.172C287.459 190.201 288.74 189.375 288.754 189.418C288.768 189.447 288.626 190.727 288.64 190.756C288.654 190.784 289.935 189.959 289.949 190.002C289.963 190.03 289.693 191.239 289.707 191.268C289.722 191.296 291.031 190.457 291.045 190.485C291.059 190.514 291.244 191.922 291.272 191.951C291.301 191.979 292.596 191.14 292.61 191.168C292.624 191.197 292.254 192.363 292.268 192.378C292.283 192.406 293.62 191.552 293.634 191.581C293.649 191.609 293.008 192.662 293.023 192.677C293.037 192.705 294.374 191.851 294.403 191.88C294.417 191.908 294.346 193.189 294.36 193.217C294.374 193.246 295.712 192.392 295.74 192.42C295.754 192.449 295.171 193.516 295.185 193.544C295.2 193.573 296.565 192.691 296.594 192.733C296.608 192.762 296.452 193.986 296.466 194.014C296.48 194.042 297.86 193.16 297.874 193.203C297.903 193.246 298.686 194.782 298.7 194.825C298.714 194.868 300.123 193.957 300.137 193.986C300.151 194.014 300.308 195.337 300.322 195.366C300.336 195.408 301.759 194.484 301.773 194.526C301.787 194.555 301.389 195.693 301.417 195.721C301.446 195.764 302.883 194.825 302.897 194.868C302.911 194.896 302.058 195.892 302.072 195.921C302.1 195.963 303.537 195.024 303.552 195.067C303.566 195.095 302.997 196.177 303.011 196.205C303.039 196.248 304.477 195.309 304.491 195.351C304.505 195.38 303.993 196.49 304.007 196.518C304.035 196.561 305.501 195.608 305.529 195.636C305.544 195.664 305.572 196.917 305.586 196.945C305.615 196.988 307.08 196.034 307.109 196.063C307.123 196.091 307.806 197.5 307.82 197.528C307.849 197.571 309.357 196.589 309.385 196.632C309.4 196.66 309.087 197.827 309.101 197.856C309.129 197.898 310.652 196.902 310.68 196.945C310.694 196.974 311.278 198.325 311.292 198.354C311.321 198.396 312.871 197.386 312.9 197.429C312.914 197.457 313.469 198.795 313.483 198.837C313.512 198.88 315.12 197.841 315.134 197.884C315.148 197.913 315.162 199.136 315.176 199.165C315.205 199.207 316.813 198.155 316.841 198.197C316.855 198.226 317.467 199.535 317.496 199.577C317.524 199.62 319.175 198.553 319.203 198.596C319.217 198.624 318.164 199.663 318.179 199.691C318.207 199.734 319.872 198.652 319.886 198.695C319.9 198.724 319.772 199.919 319.786 199.947C319.815 199.99 321.522 198.88 321.551 198.923C321.565 198.951 322.262 200.246 322.276 200.289C322.305 200.331 324.055 199.207 324.084 199.25C324.112 199.293 325.108 200.588 325.122 200.63C325.151 200.673 326.943 199.52 326.972 199.563C326.986 199.606 327.939 200.872 327.954 200.901C327.982 200.943 329.832 199.748 329.86 199.805C329.875 199.833 329.96 201.043 329.974 201.071C330.003 201.114 331.909 199.89 331.938 199.933C331.952 199.962 331.169 201.114 331.184 201.142C331.212 201.185 333.133 199.947 333.161 200.004C333.176 200.033 333.972 201.256 334.001 201.285C334.029 201.342 336.007 200.061 336.036 200.104C336.05 200.132 335.822 201.327 335.851 201.356C335.879 201.413 337.928 200.09 337.956 200.132C337.971 200.161 337.33 201.342 337.345 201.37C337.373 201.427 339.436 200.09 339.465 200.146C339.479 200.175 339.948 201.37 339.963 201.399C339.991 201.456 342.14 200.061 342.182 200.118C342.197 200.146 341.2 201.342 341.229 201.384C341.257 201.441 343.434 200.033 343.463 200.09C343.477 200.118 343.249 201.327 343.264 201.356C343.292 201.413 345.554 199.962 345.583 200.018C345.597 200.047 345.184 201.256 345.199 201.285C345.227 201.342 347.546 199.848 347.575 199.919C347.603 199.962 348.969 201.043 348.998 201.086C349.04 201.143 351.488 199.563 351.516 199.634C351.545 199.677 349.994 200.986 350.022 201.029C350.065 201.1 352.555 199.478 352.598 199.549C352.612 199.577 352.825 200.758 352.839 200.773C352.882 200.844 355.486 199.151 355.529 199.222C355.543 199.25 354.86 200.531 354.874 200.559C354.917 200.63 357.634 198.88 357.677 198.937C357.691 198.966 358.588 200.047 358.602 200.075C358.645 200.146 361.576 198.268 361.619 198.339C361.647 198.396 359.769 199.848 359.797 199.905C359.84 199.976 362.842 198.041 362.885 198.126C362.899 198.154 362.458 199.435 362.472 199.464C362.515 199.549 365.702 197.486 365.745 197.571C365.773 197.628 368.164 197.984 368.192 198.041C368.249 198.14 370.412 196.632 370.469 196.732C370.469 196.746 370.639 197.472 370.639 197.486C370.696 197.585 373.713 195.579 373.77 195.679C373.827 195.778 378.181 195.024 378.223 195.124C378.309 195.266 381.894 192.819 381.98 192.961C381.994 192.99 383.161 193.174 383.175 193.203C383.274 193.388 385.394 191.68 385.494 191.865C385.537 191.937 388.866 190.642 388.909 190.727C389.25 191.325 407.463 179.231 407.804 179.814C408.004 180.17 393.804 188.323 394.003 188.678C394.188 189.006 402.81 183.158 402.995 183.485" stroke="black" stroke-width="3.18157" stroke-linecap="round" stroke-linejoin="round"/>
<path d="M294.261 102.352C294.404 102.594 298.572 99.5344 298.715 99.7763C298.757 99.8475 296.182 101.74 296.225 101.797C296.296 101.925 296.609 101.398 296.68 101.541C296.68 101.541 296.694 102.067 296.709 102.081C296.737 102.138 298.843 100.772 298.871 100.829" stroke="black" stroke-width="3.18157" stroke-linecap="round" stroke-linejoin="round"/>
<path d="M310.85 66.54L311.191 66.3408C311.234 66.3977 309.868 68.902 309.911 68.9731C309.939 69.0158 311.789 67.8348 311.817 67.8775C311.86 67.9487 309.47 69.9407 309.512 70.0118C309.555 70.0829 312.045 68.4609 312.073 68.532C312.116 68.6174 309.114 70.8228 309.157 70.9082C309.185 70.9509 310.864 69.8695 310.892 69.9122C310.949 70.0118 308.146 73.2701 308.203 73.3697C308.232 73.4124 309.911 72.331 309.939 72.3737C309.996 72.4733 307.207 75.7032 307.264 75.8028C307.293 75.8455 308.972 74.7641 309 74.8068C309.043 74.8637 306.837 76.7561 306.866 76.8273C306.894 76.87 308.573 75.7886 308.602 75.8313C308.659 75.9166 305.913 79.0612 305.969 79.1608C305.998 79.2035 307.677 78.1078 307.705 78.1648C307.762 78.2501 305.045 81.3093 305.101 81.3947C305.13 81.4373 306.809 80.3417 306.837 80.3844C306.88 80.4556 304.49 82.7748 304.532 82.846C304.561 82.8886 306.254 81.7931 306.268 81.8357C306.325 81.9353 303.408 85.464 303.465 85.5636C303.494 85.6063 305.187 84.5107 305.201 84.5534C305.23 84.6103 303.166 86.1612 303.209 86.2181C303.238 86.2608 304.931 85.1652 304.945 85.2079C304.988 85.2933 302.469 87.9113 302.512 87.9825C302.54 88.0252 304.234 86.9296 304.262 86.9723C304.305 87.0434 302.64 89.6045 302.683 89.6757C302.711 89.7184 303.195 89.32 303.223 89.3627C303.252 89.4053 302.242 90.7855 302.256 90.8282C302.284 90.8709 302.768 90.4725 302.782 90.5152C302.825 90.5863 300.648 92.5926 300.691 92.6637C300.719 92.7064 302.412 91.6108 302.441 91.6535C302.498 91.7531 299.666 95.0825 299.723 95.1821C299.752 95.2248 301.445 94.1292 301.473 94.1719C301.53 94.2715 298.756 97.4445 298.812 97.5441C298.841 97.5868 300.534 96.4912 300.563 96.5338C300.605 96.605 298.329 98.6255 298.371 98.6966C298.4 98.7393 300.093 97.6437 300.121 97.6864C300.164 97.7575 297.888 99.778 297.93 99.8491C297.959 99.8918 299.652 98.7962 299.68 98.8389" stroke="black" stroke-width="3.18157" stroke-linecap="round" stroke-linejoin="round"/>
<path d="M325.065 128.193C325.065 128.193 327.384 126.77 327.427 126.827C327.484 126.927 324.737 130.37 324.794 130.47C324.865 130.584 329.461 127.624 329.532 127.738C329.604 127.852 325.079 131.067 325.15 131.196C325.221 131.324 329.917 128.279 329.988 128.407C330.059 128.535 326.132 132.007 326.203 132.135C326.26 132.234 330.201 129.687 330.258 129.787C330.315 129.872 326.9 132.291 326.957 132.376C327 132.462 330.073 130.47 330.116 130.555" stroke="black" stroke-width="3.18157" stroke-linecap="round" stroke-linejoin="round"/>
<path d="M350.678 128.193C350.678 128.193 352.997 126.77 353.04 126.827C353.083 126.913 350.223 129.531 350.28 129.616C350.337 129.716 354.406 127.098 354.463 127.197C354.491 127.254 352.57 129.275 352.599 129.332C352.67 129.445 354.321 128.179 354.377 128.307C354.434 128.407 351.176 131.622 351.233 131.736C351.304 131.85 355.758 128.976 355.815 129.09C355.871 129.189 353.04 132.348 353.097 132.433C353.125 132.49 355.445 130.996 355.473 131.053" stroke="black" stroke-width="3.18157" stroke-linecap="round" stroke-linejoin="round"/>
<path d="M337.87 160.919C337.87 160.919 340.19 159.497 340.232 159.553C340.275 159.625 337.486 161.716 337.529 161.787C337.586 161.873 341.114 159.596 341.157 159.696C341.214 159.81 337.557 163.167 337.614 163.281C337.685 163.395 342.31 160.407 342.381 160.535C342.438 160.635 338.767 163.722 338.838 163.822C338.909 163.936 341.47 162.143 341.541 162.257C341.584 162.342 338.71 164.619 338.752 164.704C338.809 164.818 342.993 162.115 343.049 162.214C343.092 162.3 340.147 164.733 340.19 164.818C340.232 164.903 340.773 164.377 340.83 164.448" stroke="black" stroke-width="3.18157" stroke-linecap="round" stroke-linejoin="round"/>
<path d="M276.291 147.875C276.291 147.875 276.405 147.789 276.419 147.803C276.448 147.846 278.098 148.814 278.126 148.856C278.155 148.913 280.488 147.405 280.531 147.476C280.545 147.505 280.531 148.828 280.545 148.856C280.574 148.913 282.907 147.405 282.95 147.476C282.95 147.505 282.722 148.558 282.737 148.572C282.765 148.629 283.676 147.946 283.718 148.003C283.718 148.017 284.174 148.828 284.188 148.842C284.216 148.899 286.55 147.391 286.592 147.462C286.621 147.505 287.603 148.799 287.631 148.842C287.66 148.899 289.993 147.391 290.036 147.462C290.05 147.49 291.146 148.202 291.16 148.244C291.188 148.301 292.099 147.618 292.142 147.675C292.156 147.704 291.701 148.814 291.715 148.842C291.743 148.899 294.077 147.391 294.119 147.462C294.134 147.49 294.034 148.814 294.048 148.842C294.048 148.856 294.745 148.415 294.745 148.444" stroke="black" stroke-width="3.18157" stroke-linecap="round" stroke-linejoin="round"/>
<path d="M276.275 155.713C276.275 155.713 276.972 155.287 276.986 155.301C277.001 155.329 277.385 156.653 277.399 156.681C277.427 156.738 279.761 155.23 279.804 155.301C279.818 155.344 278.822 156.653 278.85 156.681C278.879 156.738 281.212 155.23 281.255 155.301C281.283 155.344 280.131 156.653 280.145 156.681C280.174 156.738 282.507 155.23 282.55 155.301C282.564 155.329 282.849 156.653 282.863 156.681C282.891 156.738 285.225 155.23 285.267 155.301C285.282 155.329 286.036 156.496 286.064 156.524C286.093 156.581 286.619 156.126 286.662 156.183C286.676 156.211 287.999 156.638 288.028 156.667C288.056 156.724 290.39 155.215 290.432 155.287C290.432 155.301 290.134 156.083 290.148 156.112C290.176 156.169 290.219 155.984 290.247 156.055C290.276 156.098 291.955 156.624 291.983 156.667C292.012 156.724 294.345 155.215 294.388 155.287C294.402 155.315 293.933 156.638 293.961 156.667C293.961 156.681 294.744 156.183 294.758 156.211" stroke="black" stroke-width="3.18157" stroke-linecap="round" stroke-linejoin="round"/>
<path d="M385.835 147.886C385.835 147.886 386.532 147.459 386.546 147.473C386.561 147.502 387.414 148.811 387.443 148.853C387.471 148.91 389.805 147.402 389.847 147.473C389.862 147.516 390.73 148.811 390.744 148.853C390.772 148.91 393.106 147.402 393.148 147.473C393.177 147.516 391.783 148.811 391.797 148.853C391.825 148.91 394.159 147.402 394.201 147.473C394.216 147.502 393.561 148.825 393.575 148.853C393.604 148.91 395.937 147.402 395.98 147.473C395.994 147.502 395.766 148.825 395.781 148.853C395.809 148.91 398.143 147.402 398.185 147.473C398.214 147.516 397.004 148.811 397.019 148.853C397.047 148.91 399.381 147.402 399.423 147.473C399.452 147.516 400.59 148.811 400.618 148.853C400.647 148.91 402.98 147.402 403.023 147.473C403.037 147.502 403.578 148.825 403.592 148.853C403.592 148.868 404.289 148.426 404.289 148.455" stroke="black" stroke-width="3.18157" stroke-linecap="round" stroke-linejoin="round"/>
<path d="M385.835 155.713C385.835 155.713 386.532 155.287 386.546 155.301C386.561 155.329 386.361 156.653 386.39 156.681C386.418 156.738 388.752 155.23 388.794 155.301C388.809 155.329 388.211 156.482 388.24 156.51C388.268 156.567 389.862 155.486 389.904 155.557C389.919 155.585 389.15 156.653 389.179 156.681C389.207 156.738 391.541 155.23 391.583 155.301C391.598 155.344 390.573 156.653 390.602 156.681C390.63 156.738 392.963 155.23 393.006 155.301C393.02 155.329 393.276 156.653 393.291 156.681C393.319 156.738 395.653 155.23 395.695 155.301C395.71 155.344 396.933 156.325 396.947 156.354C396.976 156.411 398.342 155.472 398.37 155.529C398.399 155.571 399.708 156.624 399.736 156.667C399.765 156.724 402.098 155.215 402.141 155.287C402.155 155.315 402.369 156.638 402.397 156.667C402.425 156.709 404.261 155.529 404.289 155.571C404.304 155.6 403.592 156.638 403.606 156.667C403.606 156.681 404.304 156.24 404.304 156.268" stroke="black" stroke-width="3.18157" stroke-linecap="round" stroke-linejoin="round"/>
</svg>
