<svg width="139" height="126" viewBox="0 0 139 126" fill="none" xmlns="http://www.w3.org/2000/svg">
<g id="Group">
<g id="Vector">
<path d="M108.29 44.3855C114.361 46.4175 120.011 50.192 124.442 56.59C145.673 87.2042 117.654 111.974 117.654 111.974C117.654 111.974 111.256 118.058 99.503 122.641L97.094 110.447C97.094 110.447 127.99 100.244 122.362 71.7248C120.493 62.2438 115.518 57.0663 109.484 54.4438" fill="white"/>
<path d="M108.29 44.3855C114.361 46.4175 120.011 50.192 124.442 56.59C145.673 87.2042 117.654 111.974 117.654 111.974C117.654 111.974 111.256 118.058 99.5031 122.641L97.094 110.447C97.094 110.447 127.99 100.244 122.362 71.7248C120.493 62.2438 115.518 57.0663 109.484 54.4438" stroke="#1B1B1B" stroke-width="4" stroke-linecap="round" stroke-linejoin="round"/>
</g>
<g id="Vector_2">
<path d="M94.7332 42.3977C84.011 42.4837 73.7078 45.8657 67.7412 48.2509C62.4593 50.3658 57.6861 53.586 54.1459 57.9325C50.3251 62.624 47.2235 69.3405 50.0813 77.4383C55.8065 93.6349 77.8076 89.6455 77.8076 89.6455C77.8076 89.6455 109.579 83.8946 108.841 54.4859C108.551 42.9344 104.773 33.5352 100.299 26.3723C92.1649 13.3564 77.5124 5.46729 61.875 5.0672C55.7636 4.9057 48.7764 5.5255 41.3643 7.62743C17.3996 14.4309 7.42365 40.8551 7.42365 40.8551L16.1637 46.6528C20.6847 31.0681 34.4127 23.6536 34.4127 23.6536C34.4127 23.6536 75.129 -0.953253 91.936 32.9322C108.753 66.8094 77.9155 77.3146 77.9155 77.3146C77.9155 77.3146 63.7213 82.3473 61.8457 72.8379C60.9032 68.0827 63.1078 64.9385 64.8597 62.4481C66.8337 59.6257 76.0315 55.7974 78.5869 55.0428C82.1551 53.9836 88.9824 52.2076 96.2359 52.1137" fill="white"/>
<path d="M94.7332 42.3977C84.011 42.4837 73.7078 45.8657 67.7412 48.2509C62.4593 50.3658 57.6861 53.586 54.1459 57.9325C50.3251 62.624 47.2235 69.3405 50.0813 77.4383C55.8065 93.6349 77.8076 89.6455 77.8076 89.6455C77.8076 89.6455 109.579 83.8946 108.841 54.4859C108.551 42.9344 104.773 33.5352 100.299 26.3723C92.1649 13.3564 77.5124 5.46729 61.875 5.0672C55.7636 4.9057 48.7764 5.5255 41.3643 7.62743C17.3996 14.4309 7.42365 40.8551 7.42365 40.8551L16.1637 46.6528C20.6847 31.0681 34.4127 23.6536 34.4127 23.6536C34.4127 23.6536 75.129 -0.953253 91.936 32.9322C108.753 66.8094 77.9155 77.3146 77.9155 77.3146C77.9155 77.3146 63.7213 82.3473 61.8457 72.8379C60.9032 68.0827 63.1078 64.9385 64.8597 62.4481C66.8337 59.6257 76.0315 55.7974 78.5869 55.0428C82.1551 53.9836 88.9824 52.2076 96.236 52.1137" stroke="#1B1B1B" stroke-width="4" stroke-linecap="round" stroke-linejoin="round"/>
</g>
</g>
</svg>
