<svg width="24" height="18" viewBox="0 0 24 18" fill="none" xmlns="http://www.w3.org/2000/svg">
<path d="M10.5625 17.7621C10.5625 17.7621 9.125 17.7621 9.125 16.3018C9.125 14.8415 10.5625 10.4605 16.3125 10.4605C22.0625 10.4605 23.5 14.8415 23.5 16.3018C23.5 17.7621 22.0625 17.7621 22.0625 17.7621H10.5625ZM16.3125 9.00019C17.4562 9.00019 18.5531 8.53862 19.3619 7.71703C20.1706 6.89545 20.625 5.78113 20.625 4.61923C20.625 3.45733 20.1706 2.34302 19.3619 1.52143C18.5531 0.699845 17.4562 0.238281 16.3125 0.238281C15.1688 0.238281 14.0719 0.699845 13.2631 1.52143C12.4544 2.34302 12 3.45733 12 4.61923C12 5.78113 12.4544 6.89545 13.2631 7.71703C14.0719 8.53862 15.1688 9.00019 16.3125 9.00019ZM7.998 17.7621C7.785 17.3062 7.67873 16.8064 7.6875 16.3018C7.6875 14.323 8.665 12.2859 10.4705 10.8694C9.56945 10.5867 8.63046 10.4488 7.6875 10.4605C1.9375 10.4605 0.5 14.8415 0.5 16.3018C0.5 17.7621 1.9375 17.7621 1.9375 17.7621H7.998ZM6.96875 9.00019C7.92187 9.00019 8.83596 8.61555 9.50992 7.93089C10.1839 7.24624 10.5625 6.31764 10.5625 5.34939C10.5625 4.38114 10.1839 3.45255 9.50992 2.76789C8.83596 2.08323 7.92187 1.6986 6.96875 1.6986C6.01563 1.6986 5.10154 2.08323 4.42759 2.76789C3.75363 3.45255 3.375 4.38114 3.375 5.34939C3.375 6.31764 3.75363 7.24624 4.42759 7.93089C5.10154 8.61555 6.01563 9.00019 6.96875 9.00019Z" fill="#1B1B1B"/>
</svg>
