<svg width="24" height="23" viewBox="0 0 24 23" fill="none" xmlns="http://www.w3.org/2000/svg">
<path d="M23 7.16C23 3.7588 20.2412 1 16.84 1C14.8732 1 13.1264 1.92401 12 3.35841C10.8736 1.92401 9.1268 1 7.16 1C3.7588 1 1 3.7588 1 7.16C1 8.7748 1.6248 10.24 2.6456 11.34C1.6292 12.44 1 13.9052 1 15.52C1 18.9212 3.7588 21.68 7.16 21.68C9.1268 21.68 10.8736 20.756 12 19.3216C13.1264 20.756 14.8732 21.68 16.84 21.68C20.2412 21.68 23 18.9212 23 15.52C23 13.9052 22.3752 12.44 21.3544 11.34C22.3708 10.24 23 8.7748 23 7.16Z" fill="white" stroke="white" stroke-width="1.41662" stroke-linecap="round" stroke-linejoin="round"/>
</svg>
