<svg width="26" height="24" viewBox="0 0 26 24" fill="none" xmlns="http://www.w3.org/2000/svg">
<path d="M9.10706 1.07716L8.4638 5.86379L3.12851 4.63403C2.81634 4.56308 2.56092 4.89417 2.72174 5.17796L6.07049 11.2038L1.26021 12.6985C0.948039 12.7978 0.90547 13.2235 1.19399 13.3796L5.62588 15.7965L3.71501 19.6182C3.55893 19.9304 3.87583 20.2615 4.19273 20.1243L9.88276 17.6885L10.2848 22.896C10.3084 23.2319 10.7341 23.3643 10.947 23.0994L14.1396 19.1074L18.2641 22.4089C18.51 22.6028 18.8695 22.4325 18.8695 22.1203V16.2459L24.6778 15.437C24.9947 15.3945 25.1129 14.9972 24.8717 14.7891L20.7378 11.2085L23.4764 8.76793C23.7129 8.55509 23.5946 8.16724 23.2825 8.11994L17.4553 7.28748L18.2546 1.68732C18.3019 1.34204 17.8952 1.12446 17.635 1.36096L13.1984 5.39553L9.77397 0.906889C9.57059 0.642017 9.15436 0.755534 9.10706 1.08189V1.07716Z" fill="white" stroke="#1B1B1B" stroke-width="1.41662" stroke-linecap="round" stroke-linejoin="round"/>
</svg>
