<svg width="24" height="24" viewBox="0 0 24 24" fill="none" xmlns="http://www.w3.org/2000/svg">
<path d="M10.3016 23.6838V14.331L3.42086 19.5281L1.95127 17.5865L8.14106 12.915L0.267578 12.2775L0.462222 9.85415L8.13132 10.4722L2.20432 4.85172L3.87828 3.09016L10.3016 9.17775V0.326172H12.7347V9.44539L20.5887 3.50865L22.0583 5.45026L14.7055 11.0026L23.742 11.7325L23.5474 14.1607L14.8126 13.4551L20.8321 19.1583L19.1581 20.9247L12.7347 14.8371V23.6838H10.3016Z" fill="white"/>
<path d="M12.4915 0.56961V9.93214L13.2701 9.34334L20.5401 3.84942L21.7129 5.40173L15.0657 10.4236L14.0438 11.1925L15.3187 11.2947L23.4793 11.9565L23.3236 13.8981L15.5183 13.2655L14.1411 13.1536L15.1436 14.1025L20.4818 19.1633L19.1436 20.5745L13.309 15.0416L12.4866 14.263V23.4358H10.5401V13.8348L9.76156 14.4236L3.46472 19.1828L2.29197 17.6304L7.77615 13.4893L8.79806 12.7205L7.52311 12.6183L0.530412 12.0538L0.686133 10.1122L7.42579 10.6572L8.80292 10.7691L7.80049 9.82022L2.54988 4.84212L3.88808 3.43092L9.72263 8.96377L10.545 9.74236V0.56961H12.4915ZM12.9781 0.0829922H10.0584V8.60854L3.86861 2.74479L1.85888 4.86158L7.45986 10.1706L0.233575 9.58664L0 12.4966L7.47932 13.1L1.60584 17.5331L3.3674 19.864L10.0535 14.8129V23.9224H12.9732V15.3969L19.163 21.2606L21.1728 19.1438L15.4793 13.7472L23.7664 14.4188L24 11.5088L15.3577 10.8081L22.3942 5.49418L20.6326 3.16328L12.9732 8.94917V0.078125L12.9781 0.0829922Z" fill="#1B1B1B"/>
</svg>
