<svg width="19" height="20" viewBox="0 0 19 20" fill="none" xmlns="http://www.w3.org/2000/svg">
<path d="M9.13043 0C4.92732 0 1.51977 3.358 1.51977 7.5V11.7435L0.0970875 14.921C0.0204515 15.0922 -0.0116295 15.2796 0.00375038 15.4661C0.0191303 15.6526 0.0814851 15.8324 0.185167 15.9892C0.288849 16.146 0.430583 16.2748 0.597531 16.364C0.76448 16.4532 0.951368 16.4999 1.14127 16.5H17.1196C17.3095 16.4999 17.4964 16.4532 17.6633 16.364C17.8303 16.2748 17.972 16.146 18.0757 15.9892C18.1794 15.8324 18.2417 15.6526 18.2571 15.4661C18.2725 15.2796 18.2404 15.0922 18.1638 14.921L16.7411 11.7435V7.5C16.7411 3.358 13.3335 0 9.13043 0ZM9.13043 20C8.41093 20.0001 7.71465 19.7491 7.16508 19.2914C6.61552 18.8338 6.2482 18.1991 6.12828 17.5H12.1326C12.0127 18.1991 11.6454 18.8338 11.0958 19.2914C10.5462 19.7491 9.84994 20.0001 9.13043 20Z" fill="#1B1B1B"/>
</svg>
