<svg width="55" height="17" viewBox="0 0 55 17" fill="none" xmlns="http://www.w3.org/2000/svg">
<path d="M20 7.94676C20 10.9474 19.9384 15.333 19.9384 15.333C19.9384 15.333 19.9384 15.8019 19.7729 15.9888C19.6269 16.1537 19.2537 16.1537 19.2537 16.1537C19.2537 16.1537 17.7807 16.2929 16.8235 16.2929C15.8663 16.2929 14.3121 16.1756 14.3121 16.1756C14.3121 16.1756 13.6048 16.1756 13.4393 16.0364C13.2317 15.8496 13.2511 15.4026 13.2511 15.4026V13.622C13.2511 13.622 13.3128 13.0138 13.0013 12.8489C12.6898 12.684 12.4627 13.0614 12.255 13.3655L10.3245 16.2489C10.3245 16.2489 9.8475 17 9.40947 17C8.97145 17 8.5172 16.2966 8.5172 16.2966C7.6671 14.842 7.29072 14.1642 6.77158 13.2263C6.7294 13.1091 6.52174 12.8269 6.21025 12.8269C5.8793 12.8269 5.94095 13.4351 5.94095 13.4351L5.96042 15.4062C5.96042 15.4062 6.0026 15.78 5.81441 15.9705C5.56457 16.205 4.96431 16.183 4.96431 16.183C4.96431 16.183 3.80273 16.2526 3.05321 16.2526C2.22258 16.2526 0.91499 16.1573 0.91499 16.1573C0.91499 16.1573 0.457495 16.1573 0.311486 16.0181C0.0811161 15.8056 0.103829 15.3843 0.103829 15.3843C0.103829 15.3843 0 10.9511 0 8.11531C0 5.27953 0.0616482 1.03319 0.0616482 1.03319C0.0616482 1.03319 0.0421803 0.516604 0.227125 0.307768C0.415315 0.0952684 0.892278 0.0952621 0.892278 0.0952621C0.892278 0.0952621 2.46918 0 3.46853 0C4.38352 0 5.83387 0.0952621 5.83387 0.0952621C5.83387 0.0952621 6.18754 0.164878 6.35302 0.282119C6.51849 0.39936 6.70668 0.729091 6.70668 0.729091C6.70668 0.729091 7.55678 2.01875 8.09864 2.83944C8.65996 3.68211 9.49059 4.99742 9.49059 4.99742C9.49059 4.99742 9.84426 5.53598 10.1557 5.53598C10.4867 5.53598 10.8209 4.90215 10.8209 4.90215C11.6321 3.72974 12.6055 2.27521 13.5204 0.729091C13.5204 0.729091 13.7703 0.329747 13.9779 0.212506C14.1856 0.0952648 14.5393 0.0952621 14.5393 0.0952621C14.5393 0.0952621 15.9507 0.0476311 16.8657 0.0476311C17.6119 0.0476311 18.7962 0.0952621 18.7962 0.0952621C18.7962 0.0952621 19.4387 0.117251 19.7112 0.399363C19.9611 0.655828 19.9384 1.26768 19.9384 1.26768C19.9384 1.26768 20 5.34914 20 7.95043V7.94676Z" fill="black"/>
<path d="M37 7.7644C37 12.6031 33.1309 16 28.991 16C24.8511 16 21 12.5574 21 7.83122C21 3.10506 25.158 0 29.2798 0C33.188 0 37 3.12968 37 7.7644ZM30.8022 7.90155C30.8022 6.77628 29.9929 5.94287 29.012 5.94287C28.0312 5.94287 27.2791 6.84309 27.2791 7.96836C27.2791 9.02683 28.1064 9.7899 29.012 9.7899C29.9176 9.7899 30.8022 9.00221 30.8022 7.89803V7.90155Z" fill="black"/>
<path d="M54.9203 15.5973C54.8264 15.7814 54.5267 15.9222 54.3895 15.9439C54.3895 15.9439 52.4723 16.3591 51.4325 16.4999C50.4866 16.6154 48.2661 16.8248 48.2661 16.7996C47.9195 16.8465 47.6667 16.8212 47.5043 16.7057C47.0891 16.3807 47.1577 15.6189 46.811 15.3193C46.6486 15.1821 46.4428 15.2254 46.4428 15.2254C46.4428 15.2254 45.6557 15.3879 44.9625 15.3879C44.4064 15.3879 43.6916 15.2037 43.6916 15.2037C43.6916 15.2037 43.4605 15.1568 43.2763 15.2723C42.9767 15.4817 42.9983 16.3807 42.7456 16.5901C42.5362 16.7526 42.1896 16.7057 42.1896 16.7057C42.1896 16.7057 40.7093 16.6118 39.9258 16.5215C39.0701 16.406 37.7523 16.175 37.7523 16.175C37.7523 16.175 37.2901 16.1063 37.1529 15.9439C36.9688 15.7345 36.9688 15.5034 37.059 15.1821C37.059 15.1821 38.2361 10.6761 39.117 7.83464C40.0197 4.94622 41.4278 1.18046 41.4278 1.15879C41.5433 0.859121 41.6119 0.581115 41.843 0.418642C42.074 0.256169 42.3521 0.234502 42.6301 0.234502C42.6301 0.234502 44.8469 0.140625 45.8182 0.140625C46.7894 0.140625 48.9846 0.234502 48.9846 0.234502C49.2843 0.234502 49.4937 0.234508 49.7247 0.443918C49.9089 0.606392 50.093 1.06853 50.093 1.06853C50.093 1.06853 51.7105 4.53462 52.7973 7.62884C53.8841 10.7267 54.877 14.7668 54.877 14.7668C54.877 14.7668 55.0611 15.2759 54.9239 15.5973H54.9203ZM46.0023 11.8315C46.1178 11.6473 46.0709 11.4379 45.9084 11.0227L45.2369 9.35829C45.1213 9.05862 44.9589 8.64339 44.6375 8.64339C44.3162 8.64339 44.1537 9.08389 44.0598 9.45217L43.5977 11.1166C43.5038 11.4163 43.5038 11.6726 43.5977 11.8315C43.7818 12.1564 44.5003 12.1781 44.8 12.1781C45.078 12.1781 45.8182 12.1312 46.0023 11.8315Z" fill="black"/>
</svg>
