<svg width="26" height="24" viewBox="0 0 26 24" fill="none" xmlns="http://www.w3.org/2000/svg">
<path d="M15.6182 19.6375C15.0222 20.6887 14.1071 21.5992 12.7321 22.1858C6.16214 25.0015 2.40786 18.9008 2.40786 18.9008C2.40786 18.9008 1.46929 17.4929 1 15.1465H3.40743C3.40743 15.1465 4.285 21.2472 9.91642 21.2472C11.7889 21.2472 12.948 20.5151 13.6566 19.4921" fill="white"/>
<path d="M15.6182 19.6375C15.0222 20.6887 14.1071 21.5992 12.7321 22.1858C6.16214 25.0015 2.40786 18.9008 2.40786 18.9008C2.40786 18.9008 1.46929 17.4929 1 15.1465H3.40743C3.40743 15.1465 4.285 21.2472 9.91642 21.2472C11.7889 21.2472 12.948 20.5151 13.6566 19.4921" stroke="#1B1B1B" stroke-width="0.8" stroke-linecap="round" stroke-linejoin="round"/>
<path d="M16.4629 17.1969C16.8149 15.2071 16.5286 13.1704 16.2799 11.9785C16.0593 10.9226 15.6088 9.91829 14.9049 9.10643C14.1447 8.22417 12.9714 7.40762 11.3289 7.64226C8.04394 8.11154 8.04395 12.3351 8.04395 12.3351C8.04395 12.3351 8.04394 18.4358 13.6754 19.3744C15.8857 19.7451 17.8098 19.3885 19.3303 18.8206C22.0943 17.7882 24.1029 15.362 24.7176 12.4759C24.957 11.3496 25.0837 10.0309 24.9382 8.58083C24.4689 3.88798 19.7761 1.07227 19.7761 1.07227L18.3682 2.48012C21.1839 3.88798 22.1225 6.70369 22.1225 6.70369C22.1225 6.70369 25.4075 15.1508 18.3682 17.028C11.3289 18.9051 10.3904 12.8044 10.3904 12.8044C10.3904 12.8044 9.92108 9.98869 11.7982 9.98869C12.7368 9.98869 13.2624 10.5143 13.6754 10.9273C14.1447 11.3965 14.5576 13.2408 14.6139 13.743C14.6937 14.4422 14.797 15.775 14.5623 17.1218" fill="white"/>
<path d="M16.4629 17.1969C16.8149 15.2071 16.5286 13.1704 16.2799 11.9785C16.0593 10.9226 15.6088 9.91829 14.9049 9.10643C14.1447 8.22417 12.9714 7.40762 11.3289 7.64226C8.04394 8.11154 8.04395 12.3351 8.04395 12.3351C8.04395 12.3351 8.04394 18.4358 13.6754 19.3744C15.8857 19.7451 17.8098 19.3885 19.3303 18.8206C22.0943 17.7882 24.1029 15.362 24.7176 12.4759C24.957 11.3496 25.0837 10.0309 24.9382 8.58083C24.4689 3.88798 19.7761 1.07227 19.7761 1.07227L18.3682 2.48012C21.1839 3.88798 22.1225 6.70369 22.1225 6.70369C22.1225 6.70369 25.4075 15.1508 18.3682 17.028C11.3289 18.9051 10.3904 12.8044 10.3904 12.8044C10.3904 12.8044 9.92108 9.98869 11.7982 9.98869C12.7368 9.98869 13.2624 10.5143 13.6754 10.9273C14.1447 11.3965 14.5576 13.2408 14.6139 13.743C14.6937 14.4422 14.797 15.775 14.5623 17.1218" stroke="#1B1B1B" stroke-width="0.8" stroke-linecap="round" stroke-linejoin="round"/>
</svg>
