<svg width="25" height="20" viewBox="0 0 25 20" fill="none" xmlns="http://www.w3.org/2000/svg">
<path d="M8.8584 1.49002C8.8584 1.49002 9.01513 1.39356 9.01915 1.39758C9.02317 1.40562 8.96088 1.7432 8.9649 1.74923C8.96691 1.75325 9.12163 1.65278 9.12565 1.6568C9.12967 1.66484 9.06336 1.99237 9.06737 2.00041C9.06938 2.00443 9.22612 1.90396 9.22813 1.90798C9.23215 1.91401 9.11761 2.12499 9.11962 2.13102C9.12163 2.13504 9.27836 2.03457 9.28037 2.03859C9.28439 2.04462 9.17186 2.25963 9.17387 2.26565C9.17588 2.26967 9.33262 2.1692 9.33463 2.17322C9.33865 2.17925 9.25626 2.47263 9.26028 2.48066C9.26229 2.48468 9.41903 2.38421 9.42103 2.38823C9.42505 2.39426 9.31454 2.6173 9.31655 2.62132C9.31856 2.62534 9.47529 2.52487 9.4773 2.52889C9.48132 2.53693 9.40898 2.85442 9.413 2.86245C9.415 2.86647 9.57174 2.766 9.57375 2.77002C9.57777 2.77806 9.49941 3.08349 9.50543 3.08952C9.50744 3.09354 9.66418 2.99307 9.66618 2.99708C9.6702 3.00512 9.59987 3.32864 9.60389 3.33668C9.6059 3.3407 9.76264 3.24023 9.76464 3.24424C9.76866 3.25027 9.67021 3.50547 9.67422 3.5115C9.67623 3.51552 9.83297 3.41505 9.83498 3.41906C9.83699 3.42308 9.7124 3.60795 9.71441 3.61398C9.71642 3.618 9.87316 3.51753 9.87517 3.52154C9.87919 3.52958 9.80283 3.83903 9.80685 3.84707C9.80886 3.85109 9.96559 3.75062 9.96961 3.75464C9.97363 3.76268 9.90732 4.09624 9.91133 4.10227C9.91334 4.10629 10.0701 4.00381 10.0741 4.00783C10.0781 4.01586 10.0078 4.33938 10.0118 4.34742C10.0138 4.35144 10.1726 4.24896 10.1746 4.25298C10.1786 4.259 10.0721 4.49812 10.0761 4.50415C10.0781 4.50817 10.2369 4.40569 10.2389 4.40971C10.2429 4.41574 10.1344 4.64682 10.1364 4.65285C10.1384 4.65687 10.2971 4.55439 10.2992 4.55841C10.3032 4.56645 10.2911 4.88795 10.2951 4.89398C10.3012 4.90403 10.6789 4.65888 10.685 4.66893C10.687 4.67294 10.7593 4.8337 10.7613 4.83772C10.7674 4.84776 11.123 4.61668 11.127 4.62673C11.129 4.63075 11.0567 4.80557 11.0587 4.80959C11.0647 4.81762 11.3963 4.60262 11.4023 4.61065C11.4043 4.61467 11.5591 4.76739 11.5611 4.77141C11.5651 4.77944 11.8946 4.56645 11.9007 4.57649C11.9027 4.58051 11.9951 4.74528 11.9971 4.7493C12.0011 4.75734 12.3186 4.55238 12.3226 4.56042C12.3267 4.56645 12.4934 4.72921 12.4975 4.73524C12.5015 4.74327 12.8029 4.54836 12.8069 4.5564C12.8089 4.56042 12.8491 4.72921 12.8531 4.73323C12.8571 4.74126 13.1485 4.55238 13.1525 4.56042C13.1545 4.56444 13.1947 4.73323 13.1967 4.73725C13.2008 4.74528 13.4801 4.56444 13.4841 4.57046C13.4861 4.57448 13.5866 4.74528 13.5906 4.75131C13.5946 4.75734 13.8659 4.58252 13.8699 4.59056C13.8719 4.59458 13.9181 4.76538 13.9201 4.7694C13.9242 4.77543 14.1894 4.60462 14.1934 4.61065C14.1954 4.61467 14.107 4.77743 14.109 4.78145C14.113 4.78748 14.3783 4.61668 14.3823 4.62472C14.3843 4.62874 14.4386 4.80557 14.4406 4.80959C14.4446 4.81561 14.7119 4.6428 14.7159 4.65084C14.7179 4.65486 14.6275 4.82365 14.6295 4.82767C14.6335 4.83571 14.959 4.62472 14.965 4.63477" stroke="#515151" stroke-width="0.659635" stroke-linecap="round" stroke-linejoin="round"/>
<path d="M16.2041 1.05939C16.2041 1.05939 16.3006 0.999103 16.3026 1.00312C16.3086 1.01317 16.0554 1.40501 16.0615 1.41505C16.0655 1.42309 16.387 1.21612 16.391 1.22416C16.4011 1.24023 15.8967 1.78077 15.9067 1.79684C15.9108 1.80287 16.1519 1.64614 16.1559 1.65217C16.166 1.66824 15.7158 2.23088 15.7239 2.24696C15.7279 2.25298 15.971 2.09625 15.9751 2.10228C15.9831 2.11433 15.5913 2.54435 15.5993 2.55641C15.6033 2.56243 15.8485 2.40369 15.8505 2.41173C15.8565 2.41977 15.5772 2.70309 15.5832 2.71113C15.5872 2.71716 15.6978 2.63678 15.7018 2.64281C15.7058 2.65085 15.4466 2.91609 15.4506 2.92614C15.4546 2.93217 15.6998 2.77342 15.7038 2.77945C15.7118 2.79151 15.316 3.22956 15.322 3.24162C15.326 3.24765 15.5732 3.0889 15.5772 3.09493C15.5852 3.10699 15.1954 3.52897 15.2014 3.54102C15.2054 3.54705 15.4526 3.3863 15.4566 3.39434C15.4627 3.40639 15.0949 3.77814 15.101 3.79019C15.105 3.79622 15.3541 3.63547 15.3582 3.6415C15.3642 3.65355 15.0145 4.04941 15.0206 4.06147C15.0246 4.06749 15.2054 3.94693 15.2075 3.95296C15.2135 3.963 14.906 4.25035 14.9121 4.25839C14.9161 4.26442 15.1673 4.10366 15.1693 4.10969C15.1753 4.12175 14.8056 4.49148 14.8136 4.50354C14.8176 4.50957 15.0688 4.3468 15.0728 4.35484" stroke="#515151" stroke-width="0.659635" stroke-linecap="round" stroke-linejoin="round"/>
<path d="M16.3018 1.47434C16.3018 1.47434 16.4545 1.37989 16.4565 1.38391C16.4605 1.38994 16.3701 1.64715 16.3741 1.65318C16.3761 1.6572 16.5268 1.55873 16.5288 1.56275C16.5328 1.56878 16.4605 1.87019 16.4645 1.87823C16.4665 1.88225 16.6172 1.78379 16.6193 1.78781C16.6233 1.79585 16.557 2.11534 16.563 2.12137C16.565 2.12539 16.7157 2.02693 16.7177 2.03095C16.7217 2.03899 16.6594 2.36451 16.6635 2.37054C16.6655 2.37456 16.8162 2.2761 16.8202 2.28012C16.8242 2.28615 16.7438 2.57349 16.7479 2.57952C16.7499 2.58354 16.9026 2.48508 16.9046 2.4891C16.9086 2.49713 16.8523 2.84075 16.8564 2.84878C16.8584 2.8528 17.0111 2.75434 17.0131 2.75836C17.0171 2.76439 16.9146 2.99748 16.9187 3.0015C16.9207 3.00552 17.0734 2.90706 17.0754 2.91108C17.0794 2.9171 16.9749 3.14216 16.9769 3.14819C16.9789 3.15221 17.1317 3.05374 17.1337 3.05776C17.1377 3.0658 17.0734 3.39133 17.0774 3.39937C17.0794 3.40338 17.2321 3.30492 17.2341 3.30894C17.2382 3.31497 17.1517 3.58423 17.1538 3.59026C17.1558 3.59428 17.3085 3.49582 17.3105 3.49984C17.3125 3.50587 17.198 3.70279 17.2 3.70882C17.202 3.71284 17.3547 3.61437 17.3567 3.61839C17.3607 3.62643 17.3045 3.97205 17.3085 3.98009C17.3105 3.98411 17.4632 3.88565 17.4652 3.88967C17.4692 3.89569 17.3788 4.16094 17.3828 4.16697C17.3848 4.17098 17.5376 4.07252 17.5396 4.07654C17.5436 4.08458 17.4773 4.4081 17.4833 4.41613C17.4853 4.42015 17.638 4.32169 17.64 4.32571C17.6441 4.33174 17.5496 4.58292 17.5516 4.58894C17.5536 4.59296 17.7063 4.4945 17.7084 4.49852C17.7104 4.50254 17.7264 4.69745 17.7305 4.70147C17.7325 4.70549 17.7646 4.67736 17.7666 4.68138C17.7706 4.68741 17.6782 4.90241 17.6802 4.90844C17.6822 4.91246 17.8349 4.814 17.839 4.81802C17.843 4.82606 17.7827 5.16364 17.7867 5.16967C17.7887 5.17369 17.9435 5.07523 17.9455 5.07924C17.9475 5.08527 17.8309 5.2822 17.8349 5.28621C17.837 5.29023 17.9917 5.19177 17.9937 5.19579C17.9957 5.20182 17.8771 5.39271 17.8812 5.39874C17.8832 5.40276 18.0379 5.3043 18.0399 5.30631C18.0439 5.31234 18.1183 5.52935 18.1223 5.53538C18.1263 5.54141 18.3252 5.4108 18.3293 5.41683C18.3333 5.42286 18.4699 5.6459 18.4739 5.65193C18.476 5.65796 18.6729 5.53136 18.6749 5.53538C18.6789 5.54141 18.8276 5.7745 18.8316 5.78053C18.8336 5.78455 19.0245 5.66198 19.0285 5.666C19.0306 5.67001 19.0285 5.85287 19.0306 5.85689C19.0326 5.86091 19.2235 5.73834 19.2255 5.74436C19.2275 5.74838 19.1813 5.91316 19.1833 5.91717C19.1853 5.92119 19.3722 5.80063 19.3762 5.80666C19.3802 5.81268 19.5068 6.04779 19.5108 6.05582C19.5128 6.05984 19.6977 5.94129 19.6997 5.94731C19.7017 5.95133 19.6816 6.13017 19.6836 6.13419C19.6856 6.13821 19.8685 6.02166 19.8705 6.02568C19.8725 6.0297 19.8042 6.18644 19.8062 6.19046C19.8082 6.19447 19.9911 6.07793 19.9931 6.08195C19.9971 6.08798 20.0614 6.30901 20.0654 6.31504C20.0674 6.31906 20.2463 6.20452 20.2483 6.20854C20.2503 6.21256 20.1799 6.36929 20.182 6.37331C20.184 6.37733 20.3628 6.26279 20.3648 6.26882C20.3688 6.27485 20.4713 6.52201 20.4753 6.52804C20.4773 6.53206 20.6522 6.41953 20.6542 6.42556C20.6562 6.43159 20.6964 6.6486 20.6984 6.65262C20.7004 6.65664 20.8712 6.54612 20.8752 6.55014C20.8792 6.55617 20.9737 6.80936 20.9757 6.81539C20.9777 6.8194 21.1465 6.7109 21.1485 6.71491C21.1505 6.71893 21.1706 6.93394 21.1726 6.93796C21.1746 6.94198 21.3414 6.83548 21.3434 6.8395C21.3474 6.84553 21.3896 7.07862 21.3916 7.08465C21.3936 7.08867 21.5604 6.98217 21.5624 6.98619C21.5644 6.99021 21.4881 7.14694 21.4901 7.15096C21.4921 7.15498 21.6549 7.05049 21.6569 7.05451C21.6589 7.05853 21.6147 7.23937 21.6187 7.24339C21.6227 7.24741 21.7835 7.14292 21.7855 7.14694C21.7895 7.15297 21.8598 7.42022 21.8618 7.42625C21.8638 7.43027 22.0246 7.32779 22.0266 7.33181C22.0286 7.33583 21.9744 7.51266 21.9764 7.51668C21.9784 7.52069 22.1371 7.41821 22.1411 7.42223C22.1432 7.42625 22.109 7.62117 22.111 7.62518C22.113 7.6292 22.2698 7.52873 22.2718 7.53275C22.2758 7.53878 22.3039 7.78996 22.3059 7.79599C22.3079 7.8 22.4647 7.69953 22.4667 7.70355C22.4687 7.70757 22.4124 7.89043 22.4164 7.89445C22.4184 7.89847 22.5732 7.79799 22.5772 7.80201C22.5792 7.80603 22.5109 7.98085 22.5149 7.98487C22.5169 7.98889 22.6716 7.88842 22.6736 7.89244C22.6756 7.89646 22.5933 8.0552 22.5953 8.05922C22.5973 8.06324 22.75 7.96478 22.754 7.9688C22.758 7.97281 22.6696 8.13357 22.6716 8.13759C22.6736 8.14161 22.8264 8.04314 22.8284 8.04716C22.8324 8.05319 22.8706 8.34657 22.8746 8.3526C22.8766 8.35661 23.0273 8.25815 23.0313 8.26217C23.0333 8.26619 22.957 8.44101 22.961 8.44503C22.963 8.44905 23.1137 8.3526 23.1157 8.3546C23.1197 8.36063 23.0856 8.59172 23.0896 8.59574C23.0916 8.59975 23.2423 8.5033 23.2443 8.50732C23.2463 8.51134 23.176 8.70023 23.178 8.70424C23.18 8.70826 23.3307 8.61181 23.3327 8.61583C23.3368 8.62186 23.3368 8.91322 23.3408 8.91925C23.3428 8.92327 23.4915 8.82682 23.4935 8.83084C23.4955 8.83486 23.399 9.00164 23.4011 9.00767C23.4031 9.01169 23.5518 8.91523 23.5538 8.91925C23.5578 8.92528 23.5116 9.17244 23.5156 9.17847C23.5176 9.18249 23.6663 9.08604 23.6683 9.09005C23.6703 9.09608 23.598 9.30908 23.6 9.3131C23.602 9.31712 23.7507 9.22067 23.7527 9.22469C23.7547 9.2287 23.6723 9.43768 23.6763 9.4417C23.6784 9.44572 23.827 9.34927 23.8291 9.35329C23.8331 9.35932 23.7989 9.66877 23.8029 9.67681C23.8049 9.68082 23.9536 9.58437 23.9557 9.58839C23.9577 9.59241 23.8472 9.76723 23.8492 9.77125C23.8512 9.77527 23.9999 9.67881 24.0019 9.68283C24.0059 9.68886 23.9416 9.97822 23.9456 9.98626C23.9476 9.99028 24.0963 9.89382 24.0983 9.89784C24.1003 9.90387 23.9918 10.1048 23.9938 10.1108C23.9958 10.1149 24.1466 10.0164 24.1486 10.0204C24.1526 10.0264 24.04 10.2374 24.0441 10.2415C24.0461 10.2455 24.1968 10.149 24.1988 10.153C24.2028 10.1591 24.1104 10.4464 24.1124 10.4545C24.1144 10.4585 24.2671 10.36 24.2691 10.364C24.2731 10.3701 24.1466 10.577 24.1486 10.5831C24.1506 10.5871 24.3053 10.4866 24.3073 10.4906C24.3113 10.4987 24.1988 10.7981 24.2028 10.8061C24.2048 10.8101 24.3616 10.7096 24.3636 10.7137C24.3676 10.7197 24.239 11.001 24.241 11.007C24.243 11.0111 24.4018 10.9086 24.4038 10.9126C24.4098 10.9226 24.2772 11.3165 24.2832 11.3265C24.2852 11.3306 24.45 11.2241 24.452 11.2281C24.458 11.2361 24.2953 11.5958 24.2993 11.6038C24.3013 11.6079 24.4701 11.4994 24.4741 11.5034C24.4781 11.5114 24.2953 11.8269 24.3013 11.8349C24.3033 11.8389 24.4781 11.7264 24.4801 11.7304C24.4861 11.7385 24.2812 12.0841 24.2872 12.0941C24.2892 12.0982 24.4701 11.9816 24.4741 11.9876C24.4781 11.9957 24.2611 12.287 24.2671 12.2951C24.2691 12.2991 24.456 12.1805 24.458 12.1846C24.464 12.1966 24.2008 12.6347 24.2068 12.6467C24.2088 12.6528 24.4058 12.5242 24.4098 12.5302C24.4158 12.5422 24.1064 12.9924 24.1144 13.0044C24.1184 13.0104 24.3314 12.8718 24.3354 12.8778C24.3415 12.8879 24.026 13.2415 24.032 13.2516C24.036 13.2576 24.2631 13.1109 24.2651 13.1169C24.2711 13.127 23.9516 13.4324 23.9577 13.4405C23.9617 13.4465 24.1988 13.2938 24.2028 13.2998C24.2109 13.3119 23.825 13.7117 23.8311 13.7238C23.8351 13.7298 24.0923 13.565 24.0963 13.5711C24.1064 13.5892 23.5719 14.1598 23.5819 14.1779C23.5859 14.186 23.8833 13.993 23.8873 14.0011C23.8994 14.0212 23.2061 14.6783 23.2182 14.6984C23.2242 14.7084 23.5899 14.4713 23.596 14.4793C23.61 14.5034 22.754 15.1967 22.7681 15.2208C22.7741 15.2329 23.2423 14.9314 23.2483 14.9435C23.2604 14.9656 22.4225 15.5262 22.4345 15.5483C22.4426 15.5624 23.0072 15.1987 23.0152 15.2128C23.0293 15.2369 22.0668 15.8698 22.0809 15.894C22.0929 15.9141 22.6134 15.5604 22.6254 15.5805" stroke="#515151" stroke-width="0.659635" stroke-linecap="round" stroke-linejoin="round"/>
<path d="M3.972 7.03936C4.01018 7.10366 6.0417 5.75735 6.07988 5.82366C6.1261 5.90203 2.9713 7.6864 3.01752 7.76477C3.02958 7.78687 3.49978 7.45933 3.51184 7.47943C3.52992 7.51158 2.30819 8.39171 2.32628 8.42386C2.33432 8.43591 2.82462 8.12043 2.83065 8.13249C2.8427 8.15258 2.14543 8.75541 2.15749 8.77551C2.16352 8.78555 2.2459 8.7112 2.25193 8.72125C2.25997 8.73532 1.79378 9.1151 1.80182 9.12916C1.80784 9.1372 2.14744 8.91817 2.15146 8.92621C2.1595 8.94028 1.68728 9.31604 1.69532 9.3281C1.69934 9.33613 1.73752 9.29394 1.74154 9.30197C1.74756 9.31202 1.54863 9.69582 1.55466 9.70587C1.55868 9.7119 1.66518 9.63152 1.6692 9.63956C1.67523 9.6496 1.36176 9.94097 1.36779 9.94901C1.3718 9.95504 1.62499 9.79227 1.627 9.7983C1.63302 9.80835 1.29343 10.1078 1.29946 10.1178C1.30348 10.1238 1.54461 9.96709 1.54863 9.97312C1.55466 9.98518 1.20703 10.3509 1.21507 10.363C1.21909 10.369 1.44414 10.2223 1.44816 10.2283C1.45419 10.2404 1.12665 10.6463 1.13268 10.6583C1.1367 10.6644 1.34367 10.5297 1.34769 10.5338C1.35171 10.5418 1.08646 10.8271 1.09249 10.8372C1.0945 10.8432 1.29745 10.7126 1.30147 10.7166C1.3075 10.7267 1.04025 11.0944 1.04628 11.1044C1.04829 11.1084 1.23918 10.9859 1.2432 10.9919C1.24922 11.0019 1.00609 11.4179 1.01211 11.43C1.01412 11.434 1.19698 11.3174 1.19899 11.3214C1.20502 11.3315 0.996038 11.7334 1.00006 11.7434C1.00207 11.7474 1.17689 11.6349 1.1789 11.6409C1.18493 11.651 1.0081 12.0649 1.01412 12.075C1.01613 12.079 1.18091 11.9725 1.18292 11.9765C1.18894 11.9866 1.04426 12.3905 1.05029 12.4005C1.0523 12.4045 1.21306 12.3 1.21507 12.3041C1.2211 12.3121 1.09852 12.6899 1.10455 12.6999C1.10655 12.7039 1.26329 12.6035 1.2653 12.6075C1.26932 12.6135 1.13067 12.8225 1.13469 12.8285C1.1367 12.8325 1.29142 12.7321 1.29544 12.7361C1.29946 12.7421 1.16483 12.9471 1.16684 12.9531C1.16885 12.9571 1.32357 12.8587 1.32558 12.8627C1.3296 12.8687 1.21306 13.1139 1.21708 13.1199C1.21909 13.1239 1.3718 13.0254 1.37582 13.0295C1.37984 13.0355 1.26731 13.2686 1.27133 13.2746C1.27334 13.2786 1.42405 13.1802 1.42807 13.1842C1.43208 13.1922 1.37582 13.5439 1.37984 13.5519C1.38185 13.5559 1.53256 13.4595 1.53456 13.4615C1.53858 13.4675 1.4361 13.6805 1.44012 13.6845C1.44213 13.6885 1.59083 13.5921 1.59485 13.5961C1.59886 13.6042 1.55265 13.9136 1.55667 13.9216C1.55867 13.9257 1.70737 13.8292 1.70938 13.8332C1.7134 13.8393 1.64307 14.0824 1.64508 14.0884C1.64709 14.0924 1.79579 13.996 1.7978 14C1.80182 14.006 1.75962 14.2813 1.76364 14.2874C1.76565 14.2914 1.91434 14.1949 1.91635 14.1989C1.92037 14.205 1.91234 14.5124 1.91635 14.5204C1.91836 14.5245 2.06706 14.428 2.07108 14.432C2.07309 14.4381 2.01482 14.6571 2.01683 14.6611C2.01883 14.6651 2.16955 14.5687 2.17155 14.5727C2.17557 14.5807 2.19768 14.8942 2.2017 14.9022C2.2037 14.9063 2.35441 14.8098 2.35642 14.8118C2.36044 14.8178 2.3303 15.055 2.33432 15.059C2.33633 15.063 2.48703 14.9645 2.49105 14.9686C2.49306 14.9726 2.43077 15.1655 2.43278 15.1695C2.43479 15.1735 2.5875 15.0751 2.58951 15.0791C2.59152 15.0831 2.52923 15.274 2.53325 15.278C2.53526 15.282 2.68797 15.1836 2.68998 15.1876C2.694 15.1936 2.72414 15.4729 2.72816 15.4789C2.73017 15.483 2.8849 15.3825 2.88691 15.3865C2.89093 15.3925 2.92509 15.6638 2.92911 15.6718C2.93112 15.6759 3.08785 15.5754 3.08986 15.5794C3.09187 15.5834 3.07178 15.7984 3.07378 15.8025C3.07579 15.8065 3.23253 15.706 3.23454 15.71C3.23655 15.7161 3.23454 15.9411 3.23655 15.9451C3.23856 15.9491 3.3973 15.8467 3.39931 15.8507C3.40132 15.8567 3.42945 16.0798 3.43146 16.0858C3.43347 16.0898 3.53595 16.0195 3.53796 16.0255C3.53997 16.0295 3.54399 16.1903 3.546 16.1943C3.54801 16.1983 3.70876 16.0938 3.71278 16.0978C3.71479 16.1019 3.63441 16.2586 3.63642 16.2626C3.63843 16.2666 3.8012 16.1621 3.80321 16.1662C3.80723 16.1722 3.83737 16.4053 3.83937 16.4093C3.84138 16.4133 4.00415 16.3088 4.00817 16.3129C4.01218 16.3189 4.05237 16.554 4.05639 16.558C4.0584 16.562 4.22518 16.4555 4.22719 16.4595C4.23121 16.4656 4.31762 16.7248 4.32164 16.7308C4.32364 16.7348 4.49244 16.6263 4.49445 16.6303C4.49646 16.6344 4.50851 16.8433 4.51052 16.8474C4.51253 16.8514 4.68333 16.7409 4.68735 16.7449C4.68936 16.7489 4.65319 16.9277 4.6552 16.9318C4.65721 16.9358 4.82801 16.8253 4.83203 16.8293C4.83605 16.8353 4.90437 17.0684 4.90638 17.0724C4.90839 17.0764 5.08321 16.9639 5.08522 16.9679C5.08723 16.9719 5.02895 17.1367 5.03096 17.1407C5.03297 17.1448 5.20779 17.0322 5.2098 17.0362C5.21382 17.0423 5.32032 17.2854 5.32434 17.2914C5.32635 17.2955 5.50518 17.1809 5.50719 17.1849C5.5092 17.189 5.52528 17.3879 5.5293 17.3919C5.53332 17.3959 5.71417 17.2794 5.71618 17.2834C5.71819 17.2874 5.73426 17.4823 5.73627 17.4864C5.73828 17.4904 5.92114 17.3738 5.92315 17.3778C5.92717 17.3839 6.03568 17.613 6.03769 17.619C6.03969 17.623 6.22657 17.5044 6.22858 17.5085C6.23059 17.5125 6.20246 17.6853 6.20446 17.6893C6.20647 17.6933 6.39536 17.5728 6.39938 17.5768C6.4034 17.5808 6.45162 17.7838 6.45564 17.7878C6.45966 17.7918 6.64855 17.6692 6.65257 17.6752C6.65458 17.6793 6.61841 17.8481 6.62042 17.8521C6.62243 17.8561 6.81734 17.7315 6.82136 17.7355C6.82538 17.7416 6.92987 17.9566 6.93389 17.9626C6.9359 17.9686 7.13282 17.84 7.13684 17.846C7.13885 17.8501 7.08057 18.0108 7.08258 18.0148C7.08459 18.0209 7.28554 17.8903 7.28755 17.8963C7.28956 17.9003 7.24334 18.0651 7.24535 18.0691C7.24736 18.0751 7.4483 17.9445 7.45031 17.9505C7.45232 17.9546 7.47241 18.1394 7.47442 18.1434C7.47844 18.1495 7.6834 18.0168 7.68541 18.0209C7.68742 18.0249 7.67737 18.1997 7.67938 18.2037C7.6834 18.2098 7.88837 18.0771 7.89038 18.0811C7.89238 18.0852 7.88434 18.26 7.88635 18.264C7.89037 18.27 8.09935 18.1334 8.10337 18.1394C8.10538 18.1434 8.14356 18.3102 8.14557 18.3142C8.14959 18.3203 8.1938 18.2781 8.19782 18.2841C8.19983 18.2881 8.32642 18.3765 8.32843 18.3806C8.33245 18.3866 8.54746 18.2459 8.55148 18.2519C8.55349 18.256 8.47511 18.4127 8.47712 18.4167C8.48114 18.4228 8.69615 18.2821 8.70017 18.2881C8.70218 18.2921 8.65597 18.4569 8.65798 18.4589C8.662 18.4649 8.88303 18.3223 8.88705 18.3263C8.88906 18.3303 8.91317 18.5092 8.91518 18.5132C8.9192 18.5192 9.14023 18.3745 9.14425 18.3806C9.14827 18.3866 9.30501 18.5855 9.30903 18.5915C9.31305 18.5976 9.54212 18.4489 9.54413 18.4549C9.54614 18.4589 9.60642 18.6398 9.60843 18.6458C9.61245 18.6518 9.84755 18.4991 9.85157 18.5051C9.85358 18.5092 9.79731 18.6719 9.80133 18.6759C9.80535 18.682 10.0425 18.5292 10.0445 18.5353C10.0465 18.5393 10.0445 18.7101 10.0465 18.7141C10.0505 18.7201 10.2936 18.5634 10.2977 18.5694C10.2997 18.5755 10.4263 18.7603 10.4303 18.7644C10.4343 18.7704 10.6855 18.6076 10.6895 18.6157C10.6915 18.6197 10.6654 18.7865 10.6674 18.7905C10.6714 18.7965 10.9226 18.6337 10.9266 18.6398C10.9286 18.6438 10.9527 18.8146 10.9547 18.8186C10.9588 18.8246 11.22 18.6579 11.224 18.6639C11.228 18.6699 11.4571 18.8427 11.4611 18.8487C11.4651 18.8548 11.6761 18.7161 11.6801 18.7222C11.6822 18.7262 11.7987 18.8729 11.8007 18.8789C11.8047 18.8869 12.084 18.7061 12.0881 18.7121C12.0901 18.7161 12.0077 18.8829 12.0097 18.8869C12.0137 18.895 12.295 18.7121 12.2991 18.7201C12.3031 18.7262 12.508 18.893 12.5121 18.899C12.5161 18.907 12.8115 18.7161 12.8155 18.7242C12.8175 18.7282 12.922 18.895 12.924 18.899C12.928 18.907 13.2334 18.7101 13.2375 18.7181C13.2415 18.7262 13.5147 18.8769 13.5188 18.8849C13.5228 18.893 13.8483 18.684 13.8523 18.692C13.8543 18.696 13.8584 18.8648 13.8604 18.8688C13.8644 18.8769 14.202 18.6599 14.206 18.6699C14.21 18.68 14.5978 18.7302 14.6019 18.7382C14.6079 18.7483 14.6119 18.7201 14.6179 18.7282C14.6199 18.7322 14.8169 18.7844 14.8209 18.7885C14.8269 18.7985 15.2047 18.5554 15.2087 18.5634C15.2127 18.5694 15.4378 18.6699 15.4398 18.6759C15.4458 18.686 15.7472 18.485 15.7533 18.4951C15.7553 18.5011 15.9421 18.6257 15.9462 18.6297C15.9522 18.6418 16.4003 18.3524 16.4063 18.3645C16.4083 18.3685 16.3581 18.5493 16.3601 18.5534C16.3681 18.5654 16.8504 18.254 16.8564 18.266C16.8604 18.272 17.1558 18.3544 17.1598 18.3625C17.1679 18.3765 17.4854 18.1555 17.4934 18.1696C17.5055 18.1897 18.3876 17.9063 18.3997 17.9264C18.4117 17.9465 18.4921 17.846 18.5021 17.8661C18.5162 17.8903 19.529 17.5286 19.543 17.5527C19.5812 17.619 21.3073 16.4475 21.3455 16.5118" stroke="#515151" stroke-width="0.659635" stroke-linecap="round" stroke-linejoin="round"/>
<path d="M6.28711 5.90846C6.30318 5.93459 6.86382 5.53873 6.87989 5.56686" stroke="#515151" stroke-width="0.659635" stroke-linecap="round" stroke-linejoin="round"/>
<path d="M8.76017 1.05832C8.76017 1.05832 8.85863 0.99804 8.86064 1.00005C8.86667 1.01211 8.59339 1.44614 8.59942 1.45619C8.60544 1.46624 8.9591 1.23716 8.96312 1.2452C8.97116 1.26127 8.47081 1.73751 8.47885 1.75358C8.48287 1.75961 8.724 1.60489 8.72802 1.61091C8.73404 1.62096 8.38842 1.95654 8.39445 1.96658C8.39847 1.97261 8.63961 1.81588 8.64362 1.82391C8.65166 1.83798 8.2337 2.3323 8.24174 2.34636C8.24576 2.35239 8.48689 2.19566 8.49091 2.20168C8.49693 2.21173 8.16739 2.50913 8.17141 2.51917C8.17543 2.5252 8.41656 2.36847 8.42057 2.3745C8.42861 2.38655 8.04884 2.79647 8.05486 2.80853C8.05888 2.81456 8.30001 2.65782 8.30403 2.66385C8.31207 2.67792 7.91018 3.13406 7.91822 3.14812C7.92224 3.15415 8.16337 2.99742 8.16739 3.00345C8.17543 3.01751 7.77153 3.47566 7.77957 3.48973C7.78359 3.49575 8.02472 3.33902 8.02874 3.34505C8.03477 3.35509 7.76551 3.68665 7.77153 3.6967C7.77555 3.70272 7.77957 3.68464 7.78158 3.69067C7.78761 3.70072 7.52437 4.09456 7.5304 4.10461C7.53442 4.11064 7.77756 3.9539 7.77957 3.95993C7.7856 3.96998 7.43194 4.32163 7.43797 4.33167C7.44199 4.3377 7.68513 4.18097 7.68915 4.187C7.69719 4.20106 7.27923 4.69337 7.28726 4.70744C7.29128 4.71347 7.53442 4.55673 7.53844 4.56276C7.54246 4.5708 7.3375 4.88829 7.34152 4.89632C7.34553 4.90235 7.41787 4.84408 7.42189 4.85011C7.42993 4.86216 7.03408 5.30424 7.04211 5.3183C7.04613 5.32433 7.28927 5.1676 7.29329 5.17362" stroke="#515151" stroke-width="0.659635" stroke-linecap="round" stroke-linejoin="round"/>
<path d="M10.7461 8.63399C10.7521 8.64404 11.158 8.38281 11.1641 8.39286C11.1721 8.40492 10.8325 8.87311 10.8385 8.88718C10.8466 8.90124 11.3871 8.55161 11.3951 8.56567C11.4032 8.57773 10.9912 8.95349 10.9993 8.96555C11.0053 8.97559 11.4112 8.71437 11.4172 8.72442" stroke="#515151" stroke-width="0.659635" stroke-linecap="round" stroke-linejoin="round"/>
<path d="M14.2705 8.63497C14.2765 8.64502 14.6824 8.38379 14.6885 8.39384C14.6965 8.40589 14.3589 8.87409 14.365 8.88615C14.373 8.90021 14.9115 8.55258 14.9195 8.56464C14.9256 8.5767 14.5157 8.95246 14.5237 8.96451C14.5297 8.97456 14.9356 8.71334 14.9417 8.72338" stroke="#515151" stroke-width="0.659635" stroke-linecap="round" stroke-linejoin="round"/>
<path d="M12.5547 13.2438C12.5547 13.2438 12.9325 13.0127 12.9385 13.0228C12.9465 13.0348 12.625 13.493 12.631 13.5071C12.6371 13.5211 13.1193 13.2097 13.1254 13.2217C13.1314 13.2338 12.7416 13.5693 12.7476 13.5814C12.7536 13.5914 13.1254 13.3503 13.1314 13.3604" stroke="#515151" stroke-width="0.659635" stroke-linecap="round" stroke-linejoin="round"/>
<path d="M3.9082 11.4128C3.9082 11.4128 4.10714 11.2922 4.10915 11.2962C4.11316 11.3023 4.30004 11.4851 4.30406 11.4912C4.30808 11.4992 4.63762 11.2862 4.64365 11.2962C4.64566 11.3003 4.69992 11.4871 4.70193 11.4912C4.70595 11.4992 5.03549 11.2862 5.04152 11.2962C5.04353 11.3003 4.98324 11.4871 4.98726 11.4912C4.99128 11.4992 5.32083 11.2862 5.32686 11.2962C5.33087 11.3023 5.48962 11.4851 5.49364 11.4912C5.49766 11.4992 5.8272 11.2862 5.83323 11.2962C5.83524 11.3003 5.72271 11.4871 5.72673 11.4912C5.73075 11.4992 6.06029 11.2862 6.06632 11.2962C6.06833 11.3003 6.11053 11.4871 6.11455 11.4912C6.11857 11.4992 6.44812 11.2862 6.45415 11.2962C6.45616 11.3023 6.31549 11.4871 6.31951 11.4912C6.32353 11.4952 6.51442 11.3726 6.51844 11.3766" stroke="#515151" stroke-width="0.659635" stroke-linecap="round" stroke-linejoin="round"/>
<path d="M3.9082 12.5173C3.9082 12.5173 4.10714 12.3967 4.10915 12.4007C4.11316 12.4068 4.30004 12.5896 4.30406 12.5956C4.30808 12.6037 4.63762 12.3907 4.64365 12.4007C4.64566 12.4048 4.69992 12.5916 4.70193 12.5956C4.70595 12.6037 5.03549 12.3907 5.04152 12.4007C5.04353 12.4048 4.98324 12.5916 4.98726 12.5956C4.99128 12.6037 5.32083 12.3907 5.32686 12.4007C5.33087 12.4068 5.48962 12.5896 5.49364 12.5956C5.49766 12.6037 5.8272 12.3907 5.83323 12.4007C5.83524 12.4048 5.72271 12.5916 5.72673 12.5956C5.73075 12.6037 6.06029 12.3907 6.06632 12.4007C6.06833 12.4048 6.11053 12.5916 6.11455 12.5956C6.11857 12.6037 6.44812 12.3907 6.45415 12.4007C6.45616 12.4068 6.31549 12.5916 6.31951 12.5956C6.32353 12.5997 6.51442 12.4771 6.51844 12.4811" stroke="#515151" stroke-width="0.659635" stroke-linecap="round" stroke-linejoin="round"/>
<path d="M19.3804 11.4128C19.3804 11.4128 19.5793 11.2922 19.5813 11.2962C19.5853 11.3023 19.7722 11.4851 19.7762 11.4912C19.7802 11.4992 20.1098 11.2862 20.1158 11.2962C20.1178 11.3003 20.1721 11.4871 20.1741 11.4912C20.1781 11.4992 20.5077 11.2862 20.5137 11.2962C20.5157 11.3003 20.4554 11.4871 20.4594 11.4912C20.4634 11.4992 20.793 11.2862 20.799 11.2962C20.803 11.3023 20.9618 11.4851 20.9658 11.4912C20.9698 11.4992 21.2994 11.2862 21.3054 11.2962C21.3074 11.3003 21.1949 11.4871 21.1989 11.4912C21.2029 11.4992 21.5325 11.2862 21.5385 11.2962C21.5405 11.3003 21.5827 11.4871 21.5867 11.4912C21.5907 11.4992 21.9203 11.2862 21.9263 11.2962C21.9283 11.3023 21.7877 11.4871 21.7917 11.4912C21.7957 11.4952 21.9866 11.3726 21.9906 11.3766" stroke="#515151" stroke-width="0.659635" stroke-linecap="round" stroke-linejoin="round"/>
<path d="M19.3804 12.5173C19.3804 12.5173 19.5793 12.3967 19.5813 12.4007C19.5853 12.4068 19.7722 12.5896 19.7762 12.5956C19.7802 12.6037 20.1098 12.3907 20.1158 12.4007C20.1178 12.4048 20.1721 12.5916 20.1741 12.5956C20.1781 12.6037 20.5077 12.3907 20.5137 12.4007C20.5157 12.4048 20.4554 12.5916 20.4594 12.5956C20.4634 12.6037 20.793 12.3907 20.799 12.4007C20.803 12.4068 20.9618 12.5896 20.9658 12.5956C20.9698 12.6037 21.2994 12.3907 21.3054 12.4007C21.3074 12.4048 21.1949 12.5916 21.1989 12.5956C21.2029 12.6037 21.5325 12.3907 21.5385 12.4007C21.5405 12.4048 21.5827 12.5916 21.5867 12.5956C21.5907 12.6037 21.9203 12.3907 21.9263 12.4007C21.9283 12.4068 21.7877 12.5916 21.7917 12.5956C21.7957 12.5997 21.9866 12.4771 21.9906 12.4811" stroke="#515151" stroke-width="0.659635" stroke-linecap="round" stroke-linejoin="round"/>
</svg>
