<?xml version="1.0" encoding="UTF-8"?>
<svg id="_아이콘" data-name="아이콘" xmlns="http://www.w3.org/2000/svg" width="70" height="52" viewBox="0 0 70 52">
  <g>
    <path d="M38.16,15.75c-.32-1.02.06-1.06.06-2.13s-.43-1.12-.15-2.16c.65-.32,1.23-.78,1.72-1.28s.83-1.1,1.11-1.75.64-1.28.64-2.01c0-.66-.06-1.34-.29-1.93s-.74-1.06-1.17-1.55-.79-1.05-1.35-1.39-1.24-.33-1.87-.5-1.2-.44-1.86-.44-1.34-.01-1.94.15c-.63.17-1.27.44-1.81.77s-1.04.84-1.45,1.32-.57,1.15-.8,1.75-.28,1.18-.28,1.83c0,.73-.02,1.42.26,2.06s.59,1.32,1.1,1.83,1.18.83,1.83,1.15c.27,1.03-.01,1.08-.01,2.15s.18,1.08-.13,2.11c-.68.04-1.25.07-1.91.13s-1.35.15-2.01.24-1.32.32-1.98.43-1.34.19-1.99.33-1.35.18-1.99.35-1.25.54-1.89.74-1.37.17-2,.4-1.16.75-1.77,1.01-1.34.32-1.94.62-1.2.65-1.77.98-1.05.89-1.59,1.26-1.28.56-1.79.97c-.54.43-.98.96-1.45,1.42-.49.48-1.06.89-1.48,1.4-.43.54-.76,1.15-1.1,1.71s-.56,1.24-.8,1.86-.51,1.26-.64,1.91-.12,1.34-.12,2.01.13,1.37.27,2.05.19,1.38.45,2.03.76,1.14,1.13,1.74.61,1.23,1.07,1.78,1.04.89,1.55,1.38,1.02.88,1.58,1.32,1,.94,1.59,1.33,1.18.7,1.8,1.04,1.24.57,1.88.87,1.12.86,1.77,1.12,1.39.2,2.06.43,1.29.47,1.96.67,1.27.59,1.95.75,1.38.15,2.06.28,1.35.26,2.04.37,1.36.23,2.06.31,1.36.27,2.06.32,1.38.12,2.08.14,1.39-.24,2.09-.24,1.39.07,2.08.04,1.39-.06,2.07-.11,1.4-.03,2.08-.11,1.35-.36,2.03-.47,1.38-.17,2.05-.3,1.42-.03,2.09-.19,1.27-.66,1.92-.86,1.37-.28,2.01-.51,1.27-.57,1.9-.83,1.4-.28,2.02-.57,1.27-.61,1.86-.94,1.18-.77,1.75-1.14,1.08-.9,1.61-1.32c.56-.44,1.19-.77,1.68-1.24.51-.49.94-1.05,1.37-1.57.45-.55.81-1.15,1.16-1.72s.55-1.27.81-1.9.67-1.24.81-1.91.18-1.38.18-2.07-.22-1.32-.35-1.98-.24-1.31-.49-1.94-.5-1.24-.85-1.83-.64-1.19-1.07-1.72-.98-.92-1.47-1.4-1.07-.79-1.6-1.22-.86-1.07-1.43-1.45-1.27-.47-1.87-.82-1.04-.87-1.66-1.18-1.31-.35-1.94-.62-1.12-.8-1.76-1.04-1.27-.43-1.93-.63-1.31-.32-1.96-.49-1.29-.37-1.96-.51-1.38.06-2.05-.06-1.27-.57-1.94-.66-1.36.08-2.04.02-1.3-.19-1.98-.23ZM35.22,7.56c-.83,0-1.41-.57-1.41-1.31s.58-1.4,1.41-1.4,1.58.66,1.58,1.4-.76,1.31-1.58,1.31Z" fill="#9f9"/>
    <path d="M38.16,15.75c-.32-1.02.06-1.06.06-2.13s-.43-1.12-.15-2.16c.65-.32,1.23-.78,1.72-1.28s.83-1.1,1.11-1.75.64-1.28.64-2.01c0-.66-.06-1.34-.29-1.93s-.74-1.06-1.17-1.55-.79-1.05-1.35-1.39-1.24-.33-1.87-.5-1.2-.44-1.86-.44-1.34-.01-1.94.15c-.63.17-1.27.44-1.81.77s-1.04.84-1.45,1.32-.57,1.15-.8,1.75-.28,1.18-.28,1.83c0,.73-.02,1.42.26,2.06s.59,1.32,1.1,1.83,1.18.83,1.83,1.15c.27,1.03-.01,1.08-.01,2.15s.18,1.08-.13,2.11c-.68.04-1.25.07-1.91.13s-1.35.15-2.01.24-1.32.32-1.98.43-1.34.19-1.99.33-1.35.18-1.99.35-1.25.54-1.89.74-1.37.17-2,.4-1.16.75-1.77,1.01-1.34.32-1.94.62-1.2.65-1.77.98-1.05.89-1.59,1.26-1.28.56-1.79.97c-.54.43-.98.96-1.45,1.42-.49.48-1.06.89-1.48,1.4-.43.54-.76,1.15-1.1,1.71s-.56,1.24-.8,1.86-.51,1.26-.64,1.91-.12,1.34-.12,2.01.13,1.37.27,2.05.19,1.38.45,2.03.76,1.14,1.13,1.74.61,1.23,1.07,1.78,1.04.89,1.55,1.38,1.02.88,1.58,1.32,1,.94,1.59,1.33,1.18.7,1.8,1.04,1.24.57,1.88.87,1.12.86,1.77,1.12,1.39.2,2.06.43,1.29.47,1.96.67,1.27.59,1.95.75,1.38.15,2.06.28,1.35.26,2.04.37,1.36.23,2.06.31,1.36.27,2.06.32,1.38.12,2.08.14,1.39-.24,2.09-.24,1.39.07,2.08.04,1.39-.06,2.07-.11,1.4-.03,2.08-.11,1.35-.36,2.03-.47,1.38-.17,2.05-.3,1.42-.03,2.09-.19,1.27-.66,1.92-.86,1.37-.28,2.01-.51,1.27-.57,1.9-.83,1.4-.28,2.02-.57,1.27-.61,1.86-.94,1.18-.77,1.75-1.14,1.08-.9,1.61-1.32c.56-.44,1.19-.77,1.68-1.24.51-.49.94-1.05,1.37-1.57.45-.55.81-1.15,1.16-1.72s.55-1.27.81-1.9.67-1.24.81-1.91.18-1.38.18-2.07-.22-1.32-.35-1.98-.24-1.31-.49-1.94-.5-1.24-.85-1.83-.64-1.19-1.07-1.72-.98-.92-1.47-1.4-1.07-.79-1.6-1.22-.86-1.07-1.43-1.45-1.27-.47-1.87-.82-1.04-.87-1.66-1.18-1.31-.35-1.94-.62-1.12-.8-1.76-1.04-1.27-.43-1.93-.63-1.31-.32-1.96-.49-1.29-.37-1.96-.51-1.38.06-2.05-.06-1.27-.57-1.94-.66-1.36.08-2.04.02-1.3-.19-1.98-.23ZM35.22,7.56c-.83,0-1.41-.57-1.41-1.31s.58-1.4,1.41-1.4,1.58.66,1.58,1.4-.76,1.31-1.58,1.31Z" fill="none" stroke="#000" stroke-miterlimit="10"/>
  </g>
  <g>
    <path d="M44.89,23.79c-.39-.39-1.14-.38-2-.08-.56.2-1.16.57-1.8,1.02-.53.37-1.09.79-1.61,1.31-.47.47-.84.99-1.2,1.47-.41.56-.77,1.06-1,1.58-1.08.23-1.09,0-2.2,0s-1.12.23-2.19,0c-.22-.51-.52-1.06-.93-1.62-.35-.48-.82-.93-1.29-1.4-.52-.52-1.04-.99-1.56-1.36-.64-.45-1.26-.8-1.82-1-.86-.31-1.6-.29-1.99.1-.39.39-.4,1.13-.09,1.99.2.56.58,1.15,1.03,1.79.37.53.79,1.09,1.3,1.61s1.04,1,1.56,1.37c.64.45,1.28.77,1.84.97.86.31,1.59.3,1.99-.09.32-.32.35-.93.19-1.59.91-.34.99.04,1.96.04s1.02-.31,1.93.03c-.16.66-.13,1.23.19,1.55.39.39,1.15.37,2.01.06.56-.2,1.14-.6,1.78-1.04.53-.37,1.1-.78,1.61-1.3.52-.52.95-1.07,1.32-1.59.45-.64.79-1.25.99-1.81.31-.86.35-1.59-.04-1.99Z"/>
    <path d="M44.89,23.79c-.39-.39-1.14-.38-2-.08-.56.2-1.16.57-1.8,1.02-.53.37-1.09.79-1.61,1.31-.47.47-.84.99-1.2,1.47-.41.56-.77,1.06-1,1.58-1.08.23-1.09,0-2.2,0s-1.12.23-2.19,0c-.22-.51-.52-1.06-.93-1.62-.35-.48-.82-.93-1.29-1.4-.52-.52-1.04-.99-1.56-1.36-.64-.45-1.26-.8-1.82-1-.86-.31-1.6-.29-1.99.1-.39.39-.4,1.13-.09,1.99.2.56.58,1.15,1.03,1.79.37.53.79,1.09,1.3,1.61s1.04,1,1.56,1.37c.64.45,1.28.77,1.84.97.86.31,1.59.3,1.99-.09.32-.32.35-.93.19-1.59.91-.34.99.04,1.96.04s1.02-.31,1.93.03c-.16.66-.13,1.23.19,1.55.39.39,1.15.37,2.01.06.56-.2,1.14-.6,1.78-1.04.53-.37,1.1-.78,1.61-1.3.52-.52.95-1.07,1.32-1.59.45-.64.79-1.25.99-1.81.31-.86.35-1.59-.04-1.99Z" fill="none" stroke="#000" stroke-miterlimit="10" stroke-width=".39"/>
  </g>
  <g>
    <path d="M35.1,39.66c.47,0,.86.39.86.86s-.38.86-.86.86-.86-.39-.86-.86.39-.86.86-.86Z"/>
    <path d="M35.1,39.66c.47,0,.86.39.86.86s-.38.86-.86.86-.86-.39-.86-.86.39-.86.86-.86Z" fill="none" stroke="#000" stroke-miterlimit="10" stroke-width=".68"/>
  </g>
  <g>
    <path d="M10.47,34.12c1.18,0,1.18-.01,2.37-.01s1.19,0,2.37,0,1.19,0,2.37,0"/>
    <path d="M10.47,34.12c1.18,0,1.18-.01,2.37-.01s1.19,0,2.37,0,1.19,0,2.37,0" fill="none" stroke="#000" stroke-miterlimit="10" stroke-width=".68"/>
  </g>
  <g>
    <path d="M10.47,37.1c1.18,0,1.18.02,2.37.02s1.19,0,2.37,0,1.19.02,2.37.02"/>
    <path d="M10.47,37.1c1.18,0,1.18.02,2.37.02s1.19,0,2.37,0,1.19.02,2.37.02" fill="none" stroke="#000" stroke-miterlimit="10" stroke-width=".68"/>
  </g>
  <g>
    <path d="M52.62,34.13c1.18,0,1.18-.02,2.37-.02s1.19,0,2.37,0,1.19,0,2.37,0"/>
    <path d="M52.62,34.13c1.18,0,1.18-.02,2.37-.02s1.19,0,2.37,0,1.19,0,2.37,0" fill="none" stroke="#000" stroke-miterlimit="10" stroke-width=".68"/>
  </g>
  <g>
    <path d="M52.62,37.12c1.18,0,1.18,0,2.37,0s1.19,0,2.37,0,1.19,0,2.37,0"/>
    <path d="M52.62,37.12c1.18,0,1.18,0,2.37,0s1.19,0,2.37,0,1.19,0,2.37,0" fill="none" stroke="#000" stroke-miterlimit="10" stroke-width=".68"/>
  </g>
</svg>