<?xml version="1.0" encoding="UTF-8"?>
<svg id="_레이어_7" data-name="레이어 7" xmlns="http://www.w3.org/2000/svg" width="37.56" height="26.5" viewBox="0 0 37.56 26.5">
  <path d="M36.27,20.88s3.31-9.69-5.77-14.36c-1.89-.98-3.73-1.16-5.43-.86l1.62,2.29c1.77-.15,3.63.46,5.33,2.52,5.12,6.2-.8,12.72-.8,12.72l2.19,2.65c2.16-2.65,2.86-4.97,2.86-4.97Z" fill="#ffabe3" stroke="#000" stroke-linecap="round" stroke-linejoin="round"/>
  <path d="M26.54,8.04c-1.61-2.77-3.75-4.57-5.75-5.73C17.14.21,12.64.2,8.9,2.15c-1.46.76-3.02,1.82-4.49,3.3C-.34,10.23.83,17.96.83,17.96l2.83.27c-1.01-4.38,1.24-7.98,1.24-7.98,0,0,6.32-11.3,14.79-5.25,8.47,6.05,2.6,12.63,2.6,12.63,0,0-2.68,3.08-4.38,1.01-.85-1.03-.75-2.09-.67-2.92.09-.94,1.75-3.08,2.25-3.6.7-.72,2.07-2.05,3.77-3.02l-1.65-2.17c-2.52,1.42-4.49,3.59-5.58,4.95-.96,1.2-1.66,2.61-1.92,4.13-.28,1.64-.11,3.68,1.64,5.28,3.5,3.19,8.16-.65,8.16-.65,0,0,6.72-5.55,2.63-12.61Z" fill="#ffabe3" stroke="#000" stroke-linecap="round" stroke-linejoin="round"/>
</svg>