<?xml version="1.0" encoding="UTF-8"?>
<svg id="_레이어_2" data-name="레이어 2" xmlns="http://www.w3.org/2000/svg" width="22.81" height="38.22" viewBox="0 0 22.81 38.22">
  <path d="M20.96,27.27c-.02-.55.05-.56.05-1.1s0-.55,0-1.1.08-.55.08-1.1-.05-.55-.05-1.1.11-.55.11-1.1-.18-.55-.18-1.1.07-.55.07-1.1,0-.55,0-1.1.03-.55.03-1.1-.03-.55-.03-1.1-.05-.55-.05-1.1.09-.55.09-1.09-.13-.55-.13-1.09.07-.55.07-1.1.16-.55.16-1.1-.16-.55-.16-1.1.21-.55.21-1.1-.25-.55-.25-1.1.22-.55.22-1.1-.22-.55-.22-1.1,0-.55,0-1.1.3-.55.3-1.1.02-.55.02-1.11.22-.71-.2-1.07c-.48-.42-.6.08-1.23.08s-.67-.39-1.15.02c-.41.35-.13.4-.13.93s-.05.54-.05,1.07.06.54.06,1.07-.08.54-.08,1.07.03.54.03,1.07.22.54.22,1.07,0,.54,0,1.07-.25.54-.25,1.07-.06.53-.06,1.07.02.53.02,1.07.24.53.24,1.07-.04.54-.04,1.07-.17.54-.17,1.07.22.54.22,1.07-.33.54-.33,1.08.33.54.33,1.07-.24.54-.24,1.08.24.54.24,1.07-.21.54-.21,1.08,0,.54,0,1.08-.03.54-.03,1.08.11.52-.06,1.03c-.31-.12-.51-.09-.86-.16-.32-.07-.64-.25-.99-.29-.33-.04-.68.01-1.03,0-.33,0-.68-.06-1.03-.04s-.67.14-1.02.18-.68.03-1.03.1-.63.3-.97.39-.73-.07-1.06.03-.64.26-.97.38-.64.25-.96.39c-.35.15-.6.5-.93.66s-.67.34-.99.52-.77.19-1.08.4-.55.54-.85.76-.71.33-.99.57c-.29.25-.58.51-.83.77-.27.27-.54.55-.77.83-.25.3-.52.59-.71.89-.21.33-.13.8-.28,1.13-.16.36-.39.66-.47,1.01-.08.38-.27.76-.25,1.12s.11.79.26,1.14c.15.35.55.55.81.82s.45.62.78.82c.31.18.65.38,1.02.51.34.12.75.05,1.13.13.35.07.72.13,1.11.16.36.03.73.06,1.12.05.36,0,.76.15,1.14.11s.72-.24,1.1-.31.7-.26,1.07-.35.77,0,1.13-.12.64-.44.99-.58.82.04,1.17-.11c.33-.14.52-.57.84-.73s.77-.08,1.07-.25.51-.55.8-.74.65-.32.93-.52.66-.33.93-.55.37-.66.62-.9c.26-.25.51-.5.73-.75.24-.27.47-.53.67-.81.22-.3.47-.55.64-.85.18-.32.3-.65.41-.97.12-.35.24-.68.27-1.02.04-.36-.13-.71-.19-1.05Z"/>
</svg>