<?xml version="1.0" encoding="UTF-8"?>
<svg id="_레이어_4" data-name="레이어 4" xmlns="http://www.w3.org/2000/svg" width="44.89" height="42.09" xmlns:xlink="http://www.w3.org/1999/xlink" viewBox="0 0 44.89 42.09">
  <defs>
    <pattern id="_6_dpi_20_" data-name="6 dpi 20%" x="0" y="0" width="50" height="50" patternTransform="translate(-7835.25 -6920.54) scale(.2)" patternUnits="userSpaceOnUse" viewBox="0 0 50 50">
      <g>
        <rect y="0" width="50" height="50" fill="none"/>
        <path d="M19,45.4c1.32,0,2.4-1.07,2.4-2.4s-1.08-2.4-2.4-2.4-2.4,1.08-2.4,2.4,1.07,2.4,2.4,2.4Z" fill="#231815"/>
        <path d="M43,45.4c1.32,0,2.4-1.07,2.4-2.4s-1.08-2.4-2.4-2.4-2.4,1.08-2.4,2.4,1.07,2.4,2.4,2.4Z" fill="#231815"/>
        <path d="M19,21.4c1.32,0,2.4-1.07,2.4-2.4s-1.08-2.4-2.4-2.4-2.4,1.08-2.4,2.4,1.07,2.4,2.4,2.4Z" fill="#231815"/>
        <path d="M43,21.4c1.32,0,2.4-1.07,2.4-2.4s-1.08-2.4-2.4-2.4-2.4,1.08-2.4,2.4,1.07,2.4,2.4,2.4Z" fill="#231815"/>
        <path d="M31,33.4c1.32,0,2.4-1.07,2.4-2.4s-1.08-2.4-2.4-2.4-2.4,1.08-2.4,2.4,1.07,2.4,2.4,2.4Z" fill="#231815"/>
        <path d="M7,33.4c1.32,0,2.4-1.07,2.4-2.4s-1.08-2.4-2.4-2.4-2.4,1.08-2.4,2.4,1.07,2.4,2.4,2.4Z" fill="#231815"/>
        <path d="M31,9.4c1.32,0,2.4-1.07,2.4-2.4s-1.08-2.4-2.4-2.4-2.4,1.08-2.4,2.4,1.07,2.4,2.4,2.4Z" fill="#231815"/>
        <path d="M7,9.4c1.32,0,2.4-1.07,2.4-2.4s-1.08-2.4-2.4-2.4-2.4,1.08-2.4,2.4,1.07,2.4,2.4,2.4Z" fill="#231815"/>
      </g>
    </pattern>
  </defs>
  <path d="M15.64,1.92l-1.13,8.45-9.42-2.17c-.55-.13-1,.46-.72.96l5.92,10.65-8.49,2.64c-.55.17-.63.93-.12,1.2l7.83,4.27-3.37,6.75c-.27.55.28,1.14.85.9l10.05-4.31.71,9.2c.05.59.8.83,1.17.36l5.64-7.05,7.29,5.83c.43.34,1.07.04,1.07-.51v-10.37l10.26-1.43c.56-.08.77-.78.34-1.15l-7.3-6.33,4.84-4.31c.42-.37.21-1.06-.34-1.14l-10.3-1.47,1.41-9.89c.09-.61-.64-.99-1.09-.58l-7.84,7.13-6.05-7.93c-.36-.47-1.1-.27-1.17.31Z" fill="url(#_6_dpi_20_)" stroke="#000" stroke-miterlimit="10" stroke-width="1.5"/>
</svg>