<?xml version="1.0" encoding="UTF-8"?>
<svg id="_레이어_1" data-name="레이어 1" xmlns="http://www.w3.org/2000/svg" viewBox="0 0 282.98 283.19">
  <defs>
    <style>
      .cls-1 {
        fill: #fff;
      }
    </style>
  </defs>
  <path d="M126.2.57c117.14-9.93,196.53,112.67,135.92,214.37-58.09,97.46-204.34,88.93-250.19-15.31C-26.25,112.83,31.33,8.61,126.2.57ZM94.26,29.47c-12.89,2.52-37.46,23.54-46.11,33.79-5.27,6.25-18.35,26.05-19.39,33.6-.84,6.07,4.87,8.57,8.51,4.48,9.49-22.61,24.6-41.4,45.36-54.48,2.82-1.78,16.36-8.23,16.95-8.99,3.04-3.92.5-9.53-5.32-8.4ZM56.38,109c1.12-1.06,3.63-8.85,5.07-11.41,6.98-12.46,17.28-23.83,29.16-31.74,3.19-2.12,15.79-7.87,16.86-9.08,2.35-2.65,1.23-7.92-2.56-8.52-7.54-1.19-28.55,14.87-34.34,20.5-6.53,6.35-22.7,27.74-23.43,36.41-.4,4.68,6.08,6.85,9.24,3.84ZM111.11,66.48c-.52.05-7.18,3.03-8.31,3.61-10.86,5.48-23.62,17.5-30.04,27.86-2.51,4.04-12.5,20.88-1.77,20.34,4.56-.23,7.88-10.36,10.54-14.53,5.27-8.25,12.56-15.82,20.64-21.29,2.7-1.83,12.24-6.11,13.34-7.61,2.6-3.57-.45-8.72-4.4-8.36ZM131.14,81.52c-21.94,2.76-41.96,21.82-48.09,42.75-15.64,53.39,41.46,97.63,89.22,69.51,56.17-33.07,27.67-120.91-41.12-112.26ZM208.78,165.43c-2.26.79-3.74,7.32-5.2,9.78-5.5,9.22-11.38,16.51-20.04,22.89-2.69,1.98-16.27,9.31-16.78,10.15-1.99,3.29-.13,8.08,3.98,8.09,8.34.02,27.9-16.95,33.38-23.61,3.25-3.95,12.12-17.68,12.82-22.2.74-4.82-4.24-6.46-8.14-5.1ZM228.78,172.41c-3.55.96-6.18,10.42-8.18,13.87-6.89,11.87-16.96,22.91-28.29,30.61-3.58,2.43-14.93,7.47-16.63,9.31-3.76,4.06-1.06,9.89,4.78,8.89,5.55-.95,23.3-13.63,28.13-17.86,8.3-7.27,24.11-26.98,26.21-37.71.88-4.49-1.08-8.45-6.03-7.11ZM246.69,180.45c-.99.31-1.67.97-2.13,1.87-9.84,25.64-28.82,45.11-52.34,58.49-3.45,1.97-10.93,2.71-10.93,7.96,0,2.97,3.18,5.79,6.16,5.33,1.8-.28,12.98-6.26,15.36-7.66,15.28-8.96,30.09-23.19,39.82-38.04,2.92-4.46,20.6-33.07,4.05-27.95Z"/>
  <path class="cls-1" d="M131.14,81.52c68.79-8.65,97.29,79.19,41.12,112.26-47.75,28.12-104.86-16.12-89.22-69.51,6.13-20.93,26.15-39.99,48.09-42.75ZM135.15,101.54c-49.08,5.94-43.26,83.91,8.68,80.7,53.09-3.28,48.12-87.58-8.68-80.7Z"/>
  <path class="cls-1" d="M246.69,180.45c16.54-5.13-1.13,23.48-4.05,27.95-9.73,14.85-24.55,29.09-39.82,38.04-2.37,1.39-13.56,7.38-15.36,7.66-2.98.46-6.16-2.35-6.16-5.33,0-5.25,7.47-5.99,10.93-7.96,23.52-13.38,42.5-32.85,52.34-58.49.46-.91,1.15-1.57,2.13-1.87Z"/>
  <path class="cls-1" d="M94.26,29.47c5.82-1.14,8.35,4.47,5.32,8.4-.59.76-14.13,7.21-16.95,8.99-20.76,13.08-35.87,31.87-45.36,54.48-3.64,4.09-9.35,1.59-8.51-4.48,1.04-7.55,14.11-27.35,19.39-33.6,8.66-10.25,33.22-31.27,46.11-33.79Z"/>
  <path class="cls-1" d="M56.38,109c-3.16,3.01-9.64.85-9.24-3.84.74-8.67,16.9-30.07,23.43-36.41,5.79-5.62,26.8-21.68,34.34-20.5,3.79.6,4.91,5.87,2.56,8.52-1.07,1.21-13.67,6.95-16.86,9.08-11.88,7.91-22.18,19.28-29.16,31.74-1.43,2.56-3.95,10.34-5.07,11.41Z"/>
  <path class="cls-1" d="M228.78,172.41c4.95-1.33,6.91,2.62,6.03,7.11-2.1,10.73-17.91,30.44-26.21,37.71-4.83,4.23-22.58,16.91-28.13,17.86-5.84,1-8.54-4.82-4.78-8.89,1.7-1.84,13.05-6.88,16.63-9.31,11.33-7.7,21.41-18.74,28.29-30.61,2-3.45,4.63-12.91,8.18-13.87Z"/>
  <path class="cls-1" d="M111.11,66.48c3.95-.36,7,4.79,4.4,8.36-1.1,1.5-10.64,5.78-13.34,7.61-8.08,5.47-15.38,13.04-20.64,21.29-2.66,4.17-5.98,14.3-10.54,14.53-10.74.55-.74-16.29,1.77-20.34,6.43-10.35,19.19-22.38,30.04-27.86,1.13-.57,7.79-3.56,8.31-3.61Z"/>
  <path class="cls-1" d="M208.78,165.43c3.9-1.36,8.89.29,8.14,5.1-.7,4.52-9.57,18.26-12.82,22.2-5.48,6.66-25.04,23.63-33.38,23.61-4.1,0-5.97-4.8-3.98-8.09.51-.84,14.1-8.17,16.78-10.15,8.66-6.38,14.54-13.68,20.04-22.89,1.46-2.45,2.94-8.98,5.2-9.78Z"/>
  <path d="M135.15,101.54c56.8-6.87,61.77,77.43,8.68,80.7-51.94,3.21-57.76-74.77-8.68-80.7ZM137.1,121.51c-23.43,4.01-20.11,42.49,5.6,40.69s23.84-45.73-5.6-40.69Z"/>
  <path class="cls-1" d="M137.1,121.51c29.44-5.04,32.08,38.84,5.6,40.69s-29.03-36.68-5.6-40.69ZM140.12,131.45c-13.08,1.49-11.63,23.3,4.51,19.6,10.28-2.36,7.83-21-4.51-19.6Z"/>
  <path d="M140.12,131.45c12.34-1.4,14.79,17.23,4.51,19.6-16.14,3.7-17.58-18.11-4.51-19.6Z"/>
</svg>