<?xml version="1.0" encoding="UTF-8"?>
<svg id="_레이어_2" data-name="레이어 2" xmlns="http://www.w3.org/2000/svg" width="32" height="38.22" viewBox="0 0 32 38.22">
  <path d="M17.67,23.47c-.3-.1-.73-.16-1.07-.22-.31-.05-.62-.29-.96-.31-.32-.02-.65.28-.98.3-.32.01-.64,0-.97.03s-.64.03-.97.09-.69-.09-1.01,0-.63.2-.95.3-.63.2-.94.31-.61.24-.92.37-.51.45-.81.59c-.32.16-.69.24-.99.41s-.64.33-.94.52-.5.55-.78.75-.53.48-.8.7-.62.38-.88.62c-.26.25-.53.49-.76.75-.24.27-.45.56-.66.84-.22.3-.33.64-.5.94-.18.32-.44.59-.56.9-.13.35-.21.7-.26,1.03-.06.37-.15.72-.11,1.06s.2.68.36,1c.16.32.26.72.52.97s.64.35.96.52c.3.16.6.39.96.5.33.09.69.19,1.06.24.34.05.71-.14,1.08-.13.34,0,.7.08,1.06.06.34-.03.71,0,1.07-.06s.69-.16,1.05-.24.7-.12,1.05-.23.69-.18,1.03-.31.58-.46.92-.6.76-.05,1.08-.21c.31-.15.49-.53.78-.69s.64-.25.92-.43.54-.41.81-.6.59-.34.85-.55.38-.59.63-.82.61-.34.84-.58c.24-.25.5-.47.7-.73.22-.27.45-.53.62-.81.19-.29.34-.61.48-.9.15-.32.21-.66.3-.97.1-.34.13-.67.15-.99.02-.35.09-.69.02-1.01-.05-.5.05-.5.02-1s-.18-.49-.21-.98,0-.5-.03-.99.12-.5.09-1-.17-.49-.2-.99-.12-.49-.14-.99.14-.51.11-1,.04-.5,0-1-.12-.49-.14-.99-.17-.49-.19-.99.17-.51.15-1-.3-.49-.32-.98.11-.51.09-1.01,0-.5-.02-1.01-.1-.5-.13-1,.04-.5.01-1,.09-.51.06-1.01-.13-.5-.15-1-.01-.5-.04-1-.25-.49-.28-.99.11-.51.08-1.01.15-.51.12-1.01-.21-.49-.24-1-.05-.5-.08-1.01.52-.84.12-1.15c-.48-.36-.7.15-1.3.18s-.85-.42-1.29-.01c-.37.35-.06.61-.04,1.12s.34.49.37,1-.05.51-.03,1.02-.07.51-.04,1.02.03.51.05,1.02.13.5.16,1.01.13.5.16,1.01-.14.52-.11,1.03-.13.52-.1,1.02.08.5.11,1.01.12.5.15,1.01,0,.51.03,1.02,0,.51.02,1.02.02.51.04,1.02-.05.51-.03,1.03.21.5.24,1.01.04.51.07,1.02.07.51.09,1.01-.21.52-.18,1.03.1.51.13,1.02.05.52.16,1.02c.12.53.28.56.15,1.06Z"/>
  <path d="M31.19,15.36c0-.15-.08-.53-.16-1.06-.05-.3-.18-.64-.26-1.03-.07-.32-.13-.67-.23-1.03-.09-.33-.11-.7-.23-1.04s-.3-.64-.44-.97-.24-.67-.41-.98-.41-.58-.61-.87-.46-.53-.71-.79-.46-.55-.74-.76-.58-.43-.91-.56c-.33-.14-.67-.26-.98-.41s-.69-.23-1-.4-.57-.46-.87-.64c-.32-.19-.63-.35-.92-.54-.31-.2-.68-.3-.95-.5-.3-.22-.56-.48-.82-.69-.3-.24-.55-.5-.79-.71-.31-.27-.57-.52-.78-.73-.48-.46-.56-1.23-.71-.73s-.05.49-.03,1,.04.51.07,1.01.12.5.14,1.01-.06.51-.03,1.02.03.5.06,1.01.02.51.05,1.01-.04.51,0,1.02.04.51.07,1.02,0,.52.07,1.02c.05.45.2.31.59.68.18.17.41.34.73.49.24.11.5.25.83.32.37.02.73-.02,1.07,0,.37.03.72.18,1.05.22.38.04.74-.02,1.07.03.38.06.71.19,1.03.27.38.09.71.21,1.02.32.37.14.71.24.99.4.34.2.55.5.77.73.26.27.44.55.59.85s.35.61.45.96c.11.35.16.76.25,1.16s.11.83.21,1.17c.16.5.42.79.75.82.29.02.52-.31.62-.83.07-.35,0-.77.03-1.15.02-.46.11-.88.11-1.14Z"/>
</svg>