<?xml version="1.0" encoding="UTF-8"?>
<svg id="_레이어_2" data-name="레이어 2" xmlns="http://www.w3.org/2000/svg" width="32" height="35.33" viewBox="0 0 32 35.33">
  <path d="M30.72,20.79c-.19-.28-.45-.53-.72-.73s-.56-.42-.88-.53c-.3-.11-.7.09-1.04.04-.32-.04-.76-.16-1.1-.14-.14-.53.16-.57.19-1.12s.16-.54.19-1.08-.16-.55-.13-1.1.24-.53.27-1.07-.05-.55-.03-1.09-.21-.56-.18-1.1.31-.53.34-1.08-.11-.55-.08-1.1c.02-.45-.08-.46-.06-.91s.27-.44.29-.89c.03-.5-.27-.52-.24-1.02s.2-.5.23-1,0-.51.03-1.01.08-.5.1-1.01.07-.53.1-1.06q.03-.47.05-.94c.03-.47-.04-.48-.02-.95s.5-.77.11-1.04c-.42-.29-.52.36-1.01.51s-.56-.06-1.05.09-.42.39-.91.54-.51.1-.99.25-.48.17-.97.32-.55-.04-1.04.11-.45.27-.94.42-.49.14-.98.29-.45.29-.93.44-.49.14-.98.29-.54,0-1.02.15-.53.03-1.02.18-.43.34-.92.5-.46.23-.96.39-.5.13-.99.29-.51.09-1,.24-.53.02-1.02.17-.49.16-.98.31-.44.34-.93.49-.83-.33-1.14.08c-.33.45.14.64.11,1.2s-.11.55-.14,1.11-.14.55-.17,1.11.24.58.21,1.14-.13.56-.16,1.12c-.03.5-.01.5-.04,1.01s.04.51.01,1.01-.15.5-.18,1.01-.07.5-.1,1.01c-.02.45-.12.45-.14.9s.29.47.27.92c-.03.56-.27.55-.3,1.11s-.08.56-.11,1.12.04.56,0,1.12-.1.56-.13,1.12.15.56-.05,1.09c-.41.09-.63.26-.95.39s-.64.3-.98.51c-.28.17-.68.23-1.03.48-.29.2-.58.42-.83.64s-.39.61-.62.86-.56.44-.77.7c-.22.28-.35.61-.52.9-.18.31-.22.66-.35.97-.14.33-.54.56-.61.89-.08.35.16.73.15,1.06,0,.36-.14.71-.04,1.03s.16.71.36,1c.2.29.57.43.85.63s.61.23.95.35c.31.11.6.31.96.35.33.04.68.22,1.04.2.33-.02.65-.3,1-.37.33-.07.66-.14.99-.26s.62-.26.95-.4.62-.27.92-.45.56-.37.85-.58.71-.23.96-.45.36-.63.6-.88.48-.5.68-.76c.22-.28.45-.53.63-.82.18-.31.33-.61.46-.92.14-.33.36-.62.44-.94.08-.35-.09-.71-.08-1.04,0-.36.16-.71.07-1.04s-.36-.59-.56-.87c-.2-.28-.37-.57-.64-.77s-.57-.36-.9-.47c-.31-.11-.68-.15-1.03-.2-.14-.51.03-.54.06-1.07s-.04-.53-.02-1.06.12-.53.15-1.06.06-.53.09-1.06.15-.53.18-1.06-.27-.55.04-.99.37-.25.85-.43.47-.21.95-.38.46-.23.95-.4.52-.09,1-.26.48-.18.97-.35.49-.16.97-.34.48-.19.97-.37.47-.23.95-.4.53-.04,1.02-.22.48-.18.97-.35.51-.11,1-.29.42-.36.91-.54.54-.04,1.03-.21.46-.66.87-.35.21.44.18.97-.25.52-.28,1.05.09.54.06,1.06-.03.53-.05,1.06,0,.53-.03,1.07-.11.53-.14,1.06.05.54-.16,1.03c-.46.16-.56.44-.81.68-.22.22-.58.29-.98.58-.29.2-.49.52-.75.74s-.57.42-.81.66-.44.56-.65.82c-.22.28-.5.52-.67.81-.18.31-.22.69-.35.99-.14.33-.16.68-.24,1-.08.35-.22.67-.22,1,0,.36.11.68.2,1s.09.72.29,1.01c.2.29.55.44.83.64s.59.28.93.4c.31.11.63.16.99.2.33.04.66.03,1.01,0,.33-.02.67-.01,1.02-.08.33-.07.69-.04,1.03-.15s.61-.3.94-.45.61-.3.91-.48.63-.29.92-.49c.29-.2.6-.37.86-.6s.43-.56.67-.81.47-.51.68-.77c.22-.28.45-.54.62-.83.18-.31.33-.62.46-.93.14-.33.37-.63.45-.95.08-.35.17-.72.17-1.05,0-.36-.27-.67-.37-1s-.08-.72-.28-1ZM10.92,15.45c-.41-.29.06-.44.09-.94s.09-.5.12-1.01-.26-.52-.23-1.03-.21-.67.09-1.08.58-.08,1.07-.25.53-.04,1.01-.21.42-.35.9-.52.56.03,1.04-.14.46-.25.94-.42.4-.4.89-.56.58.1,1.06-.07.44-.3.92-.47.45-.27.94-.44.56.06,1.05-.1.39-.45.87-.62.54,0,1.03-.18.48-.19.97-.36.53-.59.96-.3c.4.27-.08.45-.11.93s-.03.48-.05.97.04.49.01.97.16.51-.14.9c-.31.41-.35.35-.83.53s-.56-.04-1.04.14-.4.41-.88.59-.5.12-.99.3-.48.19-.96.37-.55-.02-1.04.16-.44.29-.93.47-.49.17-.97.34-.44.31-.92.49-.49.17-.97.34-.54.03-1.03.21-.53.06-1.02.23-.46.26-.9.54-.54.53-.97.23Z"/>
</svg>