<?xml version="1.0" encoding="UTF-8"?>
<svg id="_레이어_7" data-name="레이어 7" xmlns="http://www.w3.org/2000/svg" width="12.56" height="15.35" viewBox="0 0 12.56 15.35">
  <path d="M6.25,14.23c-.67-3.17-2.4-5.24-5.5-6.6,2.55-1.18,4.57-3.62,5.52-6.65.95,3.03,2.97,5.47,5.52,6.65-3.08,1.36-4.87,3.48-5.55,6.6Z" fill="#f6ffa4"/>
  <path d="M6.92.56h0,0M6.28,2.41c.97,2.23,2.52,4.06,4.42,5.2-2.16,1.15-3.62,2.74-4.44,4.86-.81-2.12-2.25-3.71-4.4-4.85,1.9-1.14,3.45-2.97,4.42-5.2M6.28.06c-.14,0-.28.08-.33.25C5.08,3.6,2.94,6.21.21,7.33c-.28.11-.28.5,0,.62,3.15,1.29,5.19,3.35,5.72,7.36,0,.03.27.05.45.05.1,0,.19,0,.18-.02.54-4.01,2.63-6.1,5.78-7.39.28-.11.28-.5,0-.62-2.73-1.12-4.87-3.73-5.75-7.02-.04-.16-.18-.25-.33-.25h0Z"/>
</svg>