<?xml version="1.0" encoding="UTF-8"?>
<svg xmlns="http://www.w3.org/2000/svg" width="420" height="490" xmlns:xlink="http://www.w3.org/1999/xlink" viewBox="0 0 420 490">
  <defs>
    <pattern id="_10_lpi_90_" data-name="10 lpi 90%" x="0" y="0" width="72" height="72" patternTransform="translate(-9655.24 6789.4) rotate(35.01) scale(1.82 1.71) skewX(-18.86)" patternUnits="userSpaceOnUse" viewBox="0 0 72 72">
      <g>
        <rect width="72" height="72" fill="none"/>
        <g>
          <line x1="71.75" y1="68.4" x2="144.25" y2="68.4" fill="none" stroke="#231815" stroke-width="6.48"/>
          <line x1="71.75" y1="54" x2="144.25" y2="54" fill="none" stroke="#231815" stroke-width="6.48"/>
          <line x1="71.75" y1="39.6" x2="144.25" y2="39.6" fill="none" stroke="#231815" stroke-width="6.48"/>
          <line x1="71.75" y1="25.2" x2="144.25" y2="25.2" fill="none" stroke="#231815" stroke-width="6.48"/>
          <line x1="71.75" y1="10.8" x2="144.25" y2="10.8" fill="none" stroke="#231815" stroke-width="6.48"/>
          <line x1="71.75" y1="61.2" x2="144.25" y2="61.2" fill="none" stroke="#231815" stroke-width="6.48"/>
          <line x1="71.75" y1="46.8" x2="144.25" y2="46.8" fill="none" stroke="#231815" stroke-width="6.48"/>
          <line x1="71.75" y1="32.4" x2="144.25" y2="32.4" fill="none" stroke="#231815" stroke-width="6.48"/>
          <line x1="71.75" y1="18" x2="144.25" y2="18" fill="none" stroke="#231815" stroke-width="6.48"/>
          <line x1="71.75" y1="3.6" x2="144.25" y2="3.6" fill="none" stroke="#231815" stroke-width="6.48"/>
        </g>
        <g>
          <line x1="-.25" y1="68.4" x2="72.25" y2="68.4" fill="none" stroke="#231815" stroke-width="6.48"/>
          <line x1="-.25" y1="54" x2="72.25" y2="54" fill="none" stroke="#231815" stroke-width="6.48"/>
          <line x1="-.25" y1="39.6" x2="72.25" y2="39.6" fill="none" stroke="#231815" stroke-width="6.48"/>
          <line x1="-.25" y1="25.2" x2="72.25" y2="25.2" fill="none" stroke="#231815" stroke-width="6.48"/>
          <line x1="-.25" y1="10.8" x2="72.25" y2="10.8" fill="none" stroke="#231815" stroke-width="6.48"/>
          <line x1="-.25" y1="61.2" x2="72.25" y2="61.2" fill="none" stroke="#231815" stroke-width="6.48"/>
          <line x1="-.25" y1="46.8" x2="72.25" y2="46.8" fill="none" stroke="#231815" stroke-width="6.48"/>
          <line x1="-.25" y1="32.4" x2="72.25" y2="32.4" fill="none" stroke="#231815" stroke-width="6.48"/>
          <line x1="-.25" y1="18" x2="72.25" y2="18" fill="none" stroke="#231815" stroke-width="6.48"/>
          <line x1="-.25" y1="3.6" x2="72.25" y2="3.6" fill="none" stroke="#231815" stroke-width="6.48"/>
        </g>
        <g>
          <line x1="-72.25" y1="68.4" x2=".25" y2="68.4" fill="none" stroke="#231815" stroke-width="6.48"/>
          <line x1="-72.25" y1="54" x2=".25" y2="54" fill="none" stroke="#231815" stroke-width="6.48"/>
          <line x1="-72.25" y1="39.6" x2=".25" y2="39.6" fill="none" stroke="#231815" stroke-width="6.48"/>
          <line x1="-72.25" y1="25.2" x2=".25" y2="25.2" fill="none" stroke="#231815" stroke-width="6.48"/>
          <line x1="-72.25" y1="10.8" x2=".25" y2="10.8" fill="none" stroke="#231815" stroke-width="6.48"/>
          <line x1="-72.25" y1="61.2" x2=".25" y2="61.2" fill="none" stroke="#231815" stroke-width="6.48"/>
          <line x1="-72.25" y1="46.8" x2=".25" y2="46.8" fill="none" stroke="#231815" stroke-width="6.48"/>
          <line x1="-72.25" y1="32.4" x2=".25" y2="32.4" fill="none" stroke="#231815" stroke-width="6.48"/>
          <line x1="-72.25" y1="18" x2=".25" y2="18" fill="none" stroke="#231815" stroke-width="6.48"/>
          <line x1="-72.25" y1="3.6" x2=".25" y2="3.6" fill="none" stroke="#231815" stroke-width="6.48"/>
        </g>
      </g>
    </pattern>
    <pattern id="_6_dpi_80_" data-name="6 dpi 80%" x="0" y="0" width="48" height="48" patternTransform="translate(-5756.73 -7628.72) scale(.25) skewX(-9.87)" patternUnits="userSpaceOnUse" viewBox="0 0 48 48">
      <g>
        <rect width="48" height="48" fill="none"/>
        <g>
          <circle cx="24" cy="48" r="9.6" fill="#231815"/>
          <circle cx="48" cy="48" r="9.6" fill="#231815"/>
          <circle cx="24" cy="24" r="9.6" fill="#231815"/>
          <circle cx="48" cy="24" r="9.6" fill="#231815"/>
          <circle cx="36" cy="36" r="9.6" fill="#231815"/>
          <circle cx="12" cy="36" r="9.6" fill="#231815"/>
          <circle cx="36" cy="12" r="9.6" fill="#231815"/>
          <circle cx="12" cy="12" r="9.6" fill="#231815"/>
        </g>
        <g>
          <circle cy="48" r="9.6" fill="#231815"/>
          <circle cy="24" r="9.6" fill="#231815"/>
        </g>
        <g>
          <circle cx="24" r="9.6" fill="#231815"/>
          <circle cx="48" r="9.6" fill="#231815"/>
        </g>
        <circle r="9.6" fill="#231815"/>
      </g>
    </pattern>
    <pattern id="_6_dpi_30_" data-name="6 dpi 30%" x="0" y="0" width="48" height="48" patternTransform="translate(-5215.69 -7700.01) scale(.27 .24)" patternUnits="userSpaceOnUse" viewBox="0 0 48 48">
      <g>
        <rect width="48" height="48" fill="none"/>
        <g>
          <circle cx="24" cy="48" r="3.6" fill="#231815"/>
          <circle cx="48" cy="48" r="3.6" fill="#231815"/>
          <circle cx="24" cy="24" r="3.6" fill="#231815"/>
          <circle cx="48" cy="24" r="3.6" fill="#231815"/>
          <circle cx="36" cy="36" r="3.6" fill="#231815"/>
          <circle cx="12" cy="36" r="3.6" fill="#231815"/>
          <circle cx="36" cy="12" r="3.6" fill="#231815"/>
          <circle cx="12" cy="12" r="3.6" fill="#231815"/>
        </g>
        <g>
          <circle cy="48" r="3.6" fill="#231815"/>
          <circle cy="24" r="3.6" fill="#231815"/>
        </g>
        <g>
          <circle cx="24" cy="0" r="3.6" fill="#231815"/>
          <circle cx="48" cy="0" r="3.6" fill="#231815"/>
        </g>
        <circle cy="0" r="3.6" fill="#231815"/>
      </g>
    </pattern>
  </defs>
  <g id="_아이콘" data-name="아이콘">
    <path d="M380.14,489.11l-338.45-.76c-10.09-.02-18.45-7.39-18.44-16.25l.56-370.79c.01-8.44,7.65-15.12,17.27-15.1l338.45.76c10.09.02,18.45,7.39,18.44,16.25l-.56,370.79c-.01,8.44-7.65,15.12-17.27,15.1Z" fill="#fff" stroke="#000" stroke-miterlimit="10" stroke-width="1.97"/>
  </g>
  <g id="_우편함" data-name="우편함">
    <path d="M34.03,451.87h351.64v6.2c0,8.83-7.17,16-16,16H50.03c-8.83,0-16-7.17-16-16v-6.2h0Z" fill="url(#_10_lpi_90_)"/>
    <path d="M39.57,86.21h342.12c8.83,0,16,7.17,16,16v24.15H23.57v-24.15c0-8.83,7.17-16,16-16Z" fill="#fff" stroke="#000" stroke-miterlimit="10" stroke-width="1.99"/>
    <path d="M299.1,70.57c-.5,0-1,.03-1.49.08-3.72-5.12-9.73-8.46-16.54-8.46-9,0-16.63,5.83-19.36,13.91-2.58-3.35-6.62-5.53-11.17-5.53-.5,0-1,.03-1.49.08-3.72-5.12-9.73-8.46-16.54-8.46-9,0-16.63,5.83-19.36,13.91-2.58-3.35-6.62-5.53-11.17-5.53-.5,0-1,.03-1.49.08-3.72-5.12-9.73-8.46-16.54-8.46-9,0-16.63,5.83-19.36,13.91-2.58-3.35-6.62-5.53-11.17-5.53-.5,0-1,.03-1.49.08-3.72-5.12-9.73-8.46-16.54-8.46-11.29,0-20.44,9.15-20.44,20.44s9.15,20.44,20.44,20.44c5.16,0,9.87-1.93,13.46-5.09,1.44.49,2.97.77,4.57.77,5.23,0,9.79-2.86,12.22-7.09,3.34,6.75,10.28,11.4,18.31,11.4,5.16,0,9.87-1.93,13.46-5.09,1.44.49,2.97.77,4.57.77,5.23,0,9.79-2.86,12.22-7.09,3.34,6.75,10.28,11.4,18.31,11.4,5.16,0,9.87-1.93,13.46-5.09,1.44.49,2.97.77,4.57.77,5.23,0,9.79-2.86,12.22-7.09,3.34,6.75,10.28,11.4,18.31,11.4,5.16,0,9.87-1.93,13.46-5.09,1.44.49,2.97.77,4.57.77,7.78,0,14.1-6.31,14.1-14.1s-6.31-14.1-14.1-14.1Z" fill="#fff" stroke="#000" stroke-miterlimit="10" stroke-width="2"/>
    <rect x="46.62" y="208.81" width="327.98" height="44.89" fill="#707070"/>
    <rect x="45.37" y="329.18" width="328.53" height="44.89" fill="#707070"/>
    <path d="M374.6,222.21c-2.24-6.08-7.96-10.21-15.36-10.21-8.82,0-17.28,5.87-21.08,13.91-1-8.04-7.42-13.91-16.24-13.91s-17.28,5.87-21.08,13.91c-1-8.04-7.42-13.91-16.24-13.91s-17.28,5.87-21.08,13.91c-1-8.04-7.42-13.91-16.24-13.91s-17.28,5.87-21.08,13.91c-1-8.04-7.42-13.91-16.24-13.91s-17.28,5.87-21.08,13.91c-1-8.04-7.42-13.91-16.24-13.91s-17.28,5.87-21.08,13.91c-1-8.04-7.42-13.91-16.24-13.91s-17.28,5.87-21.08,13.91c-1-8.04-7.42-13.91-16.24-13.91s-17.28,5.87-21.08,13.91c-1-8.04-7.42-13.91-16.24-13.91-4.85,0-9.59,1.79-13.52,4.72l-1.13,32.42c1.17.59,2.43,1.06,3.79,1.36h8.29c7.21-1.5,13.69-6.71,16.87-13.45.84,6.75,5.5,11.95,12.19,13.45h8.26c7.21-1.5,13.69-6.71,16.87-13.45.84,6.75,5.5,11.95,12.19,13.45h8.26c7.21-1.5,13.69-6.71,16.87-13.45.84,6.75,5.5,11.95,12.19,13.45h8.26c7.21-1.5,13.69-6.71,16.87-13.45.84,6.75,5.5,11.95,12.19,13.45h8.26c7.21-1.5,13.69-6.71,16.87-13.45.84,6.75,5.5,11.95,12.19,13.45h8.26c7.21-1.5,13.69-6.71,16.87-13.45.84,6.75,5.5,11.95,12.19,13.45h8.26c7.21-1.5,13.69-6.71,16.87-13.45.84,6.75,5.5,11.95,12.19,13.45h8.26c7.21-1.5,13.69-6.71,16.87-13.45.84,6.75,5.5,11.95,12.19,13.45h8.29c7.68-1.61,14.52-7.42,17.43-14.82l.47-13.48Z" fill="url(#_6_dpi_80_)"/>
    <path d="M359.92,332.15c-8.82,0-16.26,5.87-18.66,13.91-2.4-8.04-9.84-13.91-18.66-13.91s-16.26,5.87-18.66,13.91c-2.4-8.04-9.84-13.91-18.66-13.91s-16.26,5.87-18.66,13.91c-2.4-8.04-9.84-13.91-18.66-13.91s-16.26,5.87-18.66,13.91c-2.4-8.04-9.84-13.91-18.66-13.91s-16.26,5.87-18.66,13.91c-2.4-8.04-9.84-13.91-18.66-13.91s-16.26,5.87-18.66,13.91c-2.4-8.04-9.84-13.91-18.66-13.91s-16.26,5.87-18.66,13.91c-2.4-8.04-9.84-13.91-18.66-13.91s-16.26,5.87-18.66,13.91c-2.4-8.04-9.84-13.91-18.66-13.91-6.22,0-11.74,2.92-15.3,7.45l-.89,22.85c3.5,5.22,9.44,8.66,16.2,8.66,8.82,0,16.26-5.87,18.66-13.91,2.4,8.04,9.84,13.91,18.66,13.91s16.26-5.87,18.66-13.91c2.4,8.04,9.84,13.91,18.66,13.91s16.26-5.87,18.66-13.91c2.4,8.04,9.84,13.91,18.66,13.91s16.26-5.87,18.66-13.91c2.4,8.04,9.84,13.91,18.66,13.91s16.26-5.87,18.66-13.91c2.4,8.04,9.84,13.91,18.66,13.91s16.26-5.87,18.66-13.91c2.4,8.04,9.84,13.91,18.66,13.91s16.26-5.87,18.66-13.91c2.4,8.04,9.84,13.91,18.66,13.91s16.26-5.87,18.66-13.91c2.4,8.04,9.84,13.91,18.66,13.91,5.42,0,10.33-2.22,13.86-5.8l1.02-26.24c-3.57-4.23-8.91-6.92-14.88-6.92Z"/>
    <rect x="34.03" y="137.7" width="351.64" height="334.6" rx="16" ry="16" fill="url(#_6_dpi_30_)"/>
    <circle cx="217.63" cy="53.22" r="33"/>
    <path d="M228.72,24.22s6.15-13.41,16.22-23.33l3.24,1.78-17.68,23.63"/>
  </g>
</svg>