<?xml version="1.0" encoding="UTF-8"?>
<svg xmlns="http://www.w3.org/2000/svg" width="380" height="490" xmlns:xlink="http://www.w3.org/1999/xlink" viewBox="0 0 380 490">
  <defs>
    <pattern id="_10_lpi_70_" data-name="10 lpi 70%" x="0" y="0" width="72" height="72" patternTransform="translate(-1854.16 -415.89) scale(.92 1.06)" patternUnits="userSpaceOnUse" viewBox="0 0 72 72">
      <g>
        <rect width="72" height="72" fill="none"/>
        <g>
          <line x1="71.75" y1="68.4" x2="144.25" y2="68.4" fill="none" stroke="#b0ffd2" stroke-width="5.04"/>
          <line x1="71.75" y1="54" x2="144.25" y2="54" fill="none" stroke="#b0ffd2" stroke-width="5.04"/>
          <line x1="71.75" y1="39.6" x2="144.25" y2="39.6" fill="none" stroke="#b0ffd2" stroke-width="5.04"/>
          <line x1="71.75" y1="25.2" x2="144.25" y2="25.2" fill="none" stroke="#b0ffd2" stroke-width="5.04"/>
          <line x1="71.75" y1="10.8" x2="144.25" y2="10.8" fill="none" stroke="#b0ffd2" stroke-width="5.04"/>
          <line x1="71.75" y1="61.2" x2="144.25" y2="61.2" fill="none" stroke="#b0ffd2" stroke-width="5.04"/>
          <line x1="71.75" y1="46.8" x2="144.25" y2="46.8" fill="none" stroke="#b0ffd2" stroke-width="5.04"/>
          <line x1="71.75" y1="32.4" x2="144.25" y2="32.4" fill="none" stroke="#b0ffd2" stroke-width="5.04"/>
          <line x1="71.75" y1="18" x2="144.25" y2="18" fill="none" stroke="#b0ffd2" stroke-width="5.04"/>
          <line x1="71.75" y1="3.6" x2="144.25" y2="3.6" fill="none" stroke="#b0ffd2" stroke-width="5.04"/>
        </g>
        <g>
          <line x1="-.25" y1="68.4" x2="72.25" y2="68.4" fill="none" stroke="#b0ffd2" stroke-width="5.04"/>
          <line x1="-.25" y1="54" x2="72.25" y2="54" fill="none" stroke="#b0ffd2" stroke-width="5.04"/>
          <line x1="-.25" y1="39.6" x2="72.25" y2="39.6" fill="none" stroke="#b0ffd2" stroke-width="5.04"/>
          <line x1="-.25" y1="25.2" x2="72.25" y2="25.2" fill="none" stroke="#b0ffd2" stroke-width="5.04"/>
          <line x1="-.25" y1="10.8" x2="72.25" y2="10.8" fill="none" stroke="#b0ffd2" stroke-width="5.04"/>
          <line x1="-.25" y1="61.2" x2="72.25" y2="61.2" fill="none" stroke="#b0ffd2" stroke-width="5.04"/>
          <line x1="-.25" y1="46.8" x2="72.25" y2="46.8" fill="none" stroke="#b0ffd2" stroke-width="5.04"/>
          <line x1="-.25" y1="32.4" x2="72.25" y2="32.4" fill="none" stroke="#b0ffd2" stroke-width="5.04"/>
          <line x1="-.25" y1="18" x2="72.25" y2="18" fill="none" stroke="#b0ffd2" stroke-width="5.04"/>
          <line x1="-.25" y1="3.6" x2="72.25" y2="3.6" fill="none" stroke="#b0ffd2" stroke-width="5.04"/>
        </g>
        <g>
          <line x1="-72.25" y1="68.4" x2=".25" y2="68.4" fill="none" stroke="#b0ffd2" stroke-width="5.04"/>
          <line x1="-72.25" y1="54" x2=".25" y2="54" fill="none" stroke="#b0ffd2" stroke-width="5.04"/>
          <line x1="-72.25" y1="39.6" x2=".25" y2="39.6" fill="none" stroke="#b0ffd2" stroke-width="5.04"/>
          <line x1="-72.25" y1="25.2" x2=".25" y2="25.2" fill="none" stroke="#b0ffd2" stroke-width="5.04"/>
          <line x1="-72.25" y1="10.8" x2=".25" y2="10.8" fill="none" stroke="#b0ffd2" stroke-width="5.04"/>
          <line x1="-72.25" y1="61.2" x2=".25" y2="61.2" fill="none" stroke="#b0ffd2" stroke-width="5.04"/>
          <line x1="-72.25" y1="46.8" x2=".25" y2="46.8" fill="none" stroke="#b0ffd2" stroke-width="5.04"/>
          <line x1="-72.25" y1="32.4" x2=".25" y2="32.4" fill="none" stroke="#b0ffd2" stroke-width="5.04"/>
          <line x1="-72.25" y1="18" x2=".25" y2="18" fill="none" stroke="#b0ffd2" stroke-width="5.04"/>
          <line x1="-72.25" y1="3.6" x2=".25" y2="3.6" fill="none" stroke="#b0ffd2" stroke-width="5.04"/>
        </g>
      </g>
    </pattern>
  </defs>
  <g isolation="isolate">
    <g id="_아이콘" data-name="아이콘">
      <g>
        <path d="M378.78,302.89c-.52-6.6-1.97-12.99-4.26-19.14h.01c-3.81-12.53-10.83-29.49-18.67-45.59-30.09-72.89,12.47-127.81,12.47-127.81h-6.29c1.43-4.89,2.17-9.91,2.17-15.01C364.23,42.79,285.94.2,189.36.2S14.49,42.79,14.49,95.34c0,5.11.75,10.12,2.17,15.01h-3.41s42.56,54.92,12.47,127.81c-16.76,34.43-22.38,63.05-24.26,80.69h0c-.57,4.67-.69,9.39-.32,14.14,4.97,62.93,93.54,107.21,197.81,98.9,104.28-8.31,184.78-66.06,179.81-128.99Z" fill="#fff"/>
        <g>
          <path d="M374.25,285.95l-.33-.93-.17-.46-.08-.23-.04-.12-.02-.06v-.03s-.02-.01-.02-.01h0s0-.01,0-.01h0s0,0,0,0c-.16.06,1.42-.53.75-.28h0s-.09-.24-.09-.24l.26-.02h.01s-.17.26-.17.26l-.59-1.9c-.03-.11.02-.22.13-.25s.22.02.25.13h0s.59,1.91.59,1.91l.07.23-.24.02h-.01s.17-.27.17-.27h0c-.67.25.91-.34.75-.28h0s0,0,0,0h0s0,.01,0,.01h0s.01.04.01.04l.02.06.04.12.08.24.17.48.34.95c.18.52-.09,1.09-.61,1.27-.52.18-1.09-.09-1.27-.61v-.02Z"/>
          <path d="M372.5,278.12l-1.32-3.75c-.04-.11.01-.22.12-.26.1-.04.22.01.26.12h0s1.32,3.76,1.32,3.76c.04.11-.02.22-.12.26s-.22-.02-.26-.13Z"/>
          <path d="M369.79,270.64l-1.44-3.71c-.04-.11,0-.22.11-.27.11-.04.22,0,.27.11h0s1.44,3.72,1.44,3.72c.04.11-.01.22-.12.26-.11.04-.22-.01-.26-.12Z"/>
          <path d="M366.88,263.24l-1.52-3.67c-.04-.11,0-.23.11-.27.11-.04.23,0,.27.11h0s1.52,3.68,1.52,3.68c.04.11,0,.23-.11.27-.11.04-.23,0-.27-.11Z"/>
          <path d="M363.79,255.9l-1.6-3.65c-.05-.11,0-.23.11-.28.11-.05.23,0,.28.11h0s1.6,3.65,1.6,3.65c.05.11,0,.23-.11.27-.11.05-.23,0-.28-.11Z"/>
          <path d="M360.56,248.62l-1.67-3.62c-.05-.11,0-.23.1-.28.11-.05.23,0,.28.1h0s1.67,3.62,1.67,3.62c.05.11,0,.23-.1.28s-.23,0-.28-.11Z"/>
          <path d="M357.2,241.41l-.87-1.8c-.28-.61-.6-1.18-.84-1.81h0c-.04-.12.01-.24.12-.29.11-.04.23.01.28.12h0c.23.61.56,1.2.83,1.8l.86,1.79c.05.11,0,.23-.1.28-.11.05-.23,0-.29-.1Z"/>
          <path d="M354.03,234.09l-1.37-3.75c-.04-.11.02-.24.13-.28.11-.04.24.02.28.13h0s0,0,0,0l1.36,3.74h0c.04.12-.02.24-.13.28s-.24-.02-.28-.13Z"/>
          <path d="M351.4,226.55l-1.16-3.82c-.04-.12.03-.24.15-.27.12-.04.24.03.27.15h0s0,0,0,0l1.15,3.81h0c.03.12-.03.24-.15.28-.11.03-.24-.03-.27-.15Z"/>
          <path d="M349.18,218.89l-.94-3.88c-.03-.12.04-.24.16-.27.12-.03.24.04.27.16h0s0,0,0,0l.94,3.87h0c.03.12-.04.24-.16.27-.12.03-.24-.04-.27-.16Z"/>
          <path d="M347.41,211.11l-.72-3.93c-.02-.12.06-.24.18-.26.12-.02.24.06.26.18h0s0,0,0,0l.71,3.91h0c.02.13-.06.24-.18.26-.12.02-.24-.06-.26-.18Z"/>
          <path d="M346.1,203.24l-.48-3.96c-.02-.12.07-.24.2-.25s.24.07.25.2h0s0,0,0,0l.48,3.95h0c.01.13-.07.24-.2.26s-.23-.07-.25-.2Z"/>
          <path d="M345.26,195.3l-.24-3.98c0-.13.09-.23.21-.24.13,0,.23.09.24.21h0s0,0,0,0l.24,3.97h0c0,.13-.09.24-.21.25-.12,0-.23-.09-.24-.21Z"/>
          <path d="M344.89,187.33v-3.99c0-.13.1-.23.23-.23s.23.1.23.23h0s0,0,0,0v3.98s0,0,0,0c0,.13-.1.23-.23.23-.13,0-.23-.1-.23-.23Z"/>
          <path d="M345.02,179.35l.24-3.98c0-.13.12-.23.25-.22.13,0,.23.12.22.25h0s0,0,0,0l-.24,3.97h0c0,.13-.12.23-.25.22s-.22-.12-.22-.24Z"/>
          <path d="M345.62,171.39l.48-3.96c.02-.13.13-.22.26-.2.13.02.22.13.2.26h0s0,0,0,0l-.48,3.95h0c-.02.14-.13.23-.26.21-.13-.02-.22-.13-.2-.26Z"/>
          <path d="M346.7,163.49l.72-3.93c.02-.13.15-.21.28-.19.13.02.21.15.19.28h0s0,0,0,0l-.72,3.91h0c-.02.14-.15.22-.27.2s-.21-.15-.19-.27Z"/>
          <path d="M348.26,155.66l.95-3.88c.03-.13.16-.21.29-.18.13.03.21.16.18.29h0s0,0,0,0l-.95,3.86h0c-.03.13-.16.21-.29.18s-.21-.16-.17-.29Z"/>
          <path d="M350.27,147.94l1.17-3.81c.04-.13.17-.2.3-.16.13.04.2.17.16.3h0s0,0,0,0l-1.17,3.8h0c-.04.13-.17.2-.3.17-.13-.04-.2-.17-.16-.3Z"/>
          <path d="M352.73,140.34l1.39-3.74c.05-.13.19-.19.31-.14.13.05.19.19.14.31h0s0,0,0,0l-1.39,3.73h0c-.05.13-.19.2-.31.15s-.19-.19-.14-.31Z"/>
          <path d="M355.62,132.9l1.61-3.65c.05-.12.2-.18.32-.13s.18.2.13.32h0s0,0,0,0l-1.6,3.64h0c-.05.13-.2.19-.32.13-.12-.05-.18-.2-.13-.32Z"/>
          <path d="M358.95,125.65l1.83-3.55c.06-.12.21-.17.33-.11s.17.21.11.33h0s0,0,0,0l-1.82,3.54h0c-.06.13-.21.18-.33.11-.12-.06-.17-.21-.11-.33Z"/>
          <path d="M362.71,118.6l2.06-3.42c.07-.12.23-.16.34-.09s.16.23.09.34h0s0,0,0,0l-2.05,3.41h0c-.07.13-.22.16-.34.09s-.16-.22-.09-.34Z"/>
          <path d="M366.97,111.83l1.17-1.63.2.41h-2c-.14,0-.25-.11-.25-.25,0-.14.11-.25.25-.25h2s.49,0,.49,0l-.29.41-1.16,1.61h0c-.08.12-.24.15-.35.06-.11-.08-.14-.24-.06-.35Z"/>
          <path d="M364.05,110.6h-2s-.33,0-.33,0l.09-.33.52-1.92h0c.04-.14.18-.22.31-.19.14.04.22.18.18.31h0s-.53,1.94-.53,1.94l-.24-.33h2c.14,0,.25.11.25.25,0,.14-.11.25-.25.25Z"/>
          <path d="M363.17,104.47l.54-3.94v-.02c.02-.14.15-.24.29-.22.14.02.24.15.22.29h0s-.55,3.98-.55,3.98c-.02.14-.15.24-.29.22s-.24-.15-.22-.29v-.02Z"/>
          <path d="M363.95,96.56c.04-1.32-.03-2.65-.06-3.97v-.02c0-.14.11-.26.25-.26.14,0,.26.11.26.25h0c.03,1.34.1,2.67.06,4.01,0,.14-.12.26-.26.25s-.26-.12-.25-.27Z"/>
          <path d="M363.54,88.63l-.66-3.92v-.02c-.03-.14.07-.28.21-.3.14-.02.28.07.3.21h0s.66,3.96.66,3.96c.02.14-.07.28-.21.3s-.28-.07-.3-.21v-.02Z"/>
          <path d="M361.94,80.84l-1.22-3.79v-.02c-.05-.14.03-.29.17-.33s.29.03.33.17h0s1.23,3.82,1.23,3.82c.04.14-.03.29-.17.33s-.29-.03-.33-.17v-.02Z"/>
          <path d="M359.25,73.36l-1.71-3.59v-.02c-.07-.13-.01-.29.12-.35s.29,0,.35.13h0s1.72,3.62,1.72,3.62c.06.13,0,.29-.13.35-.13.06-.29,0-.35-.13v-.02Z"/>
          <path d="M355.61,66.28l-2.12-3.37h0c-.08-.14-.04-.3.08-.38.13-.08.29-.04.37.08h0s2.14,3.39,2.14,3.39c.08.12.04.29-.08.37-.12.08-.29.04-.37-.08h0Z"/>
          <path d="M351.18,59.66l-2.46-3.13h0c-.09-.13-.07-.3.05-.39.12-.09.29-.07.38.05h0s2.48,3.15,2.48,3.15c.09.12.07.29-.05.38-.12.09-.29.07-.38-.05h0Z"/>
          <path d="M346.11,53.53l-2.74-2.89h0c-.1-.12-.1-.29.01-.39.11-.1.28-.1.39.01h0s2.75,2.91,2.75,2.91c.1.11.1.28-.01.38-.11.1-.28.1-.38-.01h0Z"/>
          <path d="M340.52,47.85l-2.96-2.67h0c-.11-.11-.12-.28-.02-.4.1-.11.28-.12.39-.02h0s2.97,2.69,2.97,2.69c.11.1.12.28.02.39-.1.11-.28.12-.39.02h0Z"/>
          <path d="M334.51,42.62l-3.14-2.46h0c-.12-.1-.14-.27-.05-.4.09-.12.27-.14.39-.05h0s3.15,2.47,3.15,2.47c.12.09.14.27.05.39-.09.12-.27.14-.39.05h0Z"/>
          <path d="M328.15,37.8l-3.28-2.26h0c-.13-.09-.16-.27-.07-.39s.26-.16.39-.07h0s3.29,2.27,3.29,2.27c.13.09.16.26.07.39-.09.13-.26.16-.39.07h0Z"/>
          <path d="M321.52,33.37l-3.4-2.08h0c-.13-.09-.18-.26-.09-.39.08-.13.26-.18.39-.09h0l3.42,2.09c.13.08.17.25.09.39-.08.13-.25.17-.39.09h0Z"/>
          <path d="M314.66,29.3l-3.5-1.91h0c-.14-.08-.19-.25-.11-.39s.25-.19.39-.11h0s3.52,1.92,3.52,1.92c.14.07.19.25.11.38-.07.14-.25.19-.38.11h0Z"/>
          <path d="M307.61,25.57l-3.59-1.75h0c-.14-.07-.2-.24-.13-.39s.24-.2.38-.13h0s3.6,1.75,3.6,1.75c.14.07.2.24.13.38s-.24.2-.38.13h0Z"/>
          <path d="M300.39,22.15l-3.66-1.6h0c-.15-.07-.21-.24-.15-.38.06-.15.23-.21.38-.15h0s3.67,1.6,3.67,1.6c.15.06.21.23.15.38s-.23.21-.38.15h0Z"/>
          <path d="M293.04,19.03l-3.72-1.45h0c-.15-.06-.22-.23-.17-.38.06-.15.23-.22.38-.17h0s3.73,1.46,3.73,1.46c.15.06.22.23.16.38s-.23.22-.38.16h0Z"/>
          <path d="M285.58,16.2l-3.77-1.32h0c-.15-.06-.23-.22-.18-.38.05-.15.22-.23.37-.18h0s3.78,1.32,3.78,1.32c.15.05.23.22.18.37s-.22.23-.37.18h0Z"/>
          <path d="M278.03,13.63l-3.81-1.19c-.16-.05-.25-.21-.2-.37.05-.16.21-.25.37-.2h0s3.82,1.19,3.82,1.19c.16.05.24.21.19.37s-.22.24-.37.19Z"/>
          <path d="M270.39,11.32l-3.85-1.06c-.16-.04-.26-.2-.21-.36.04-.16.2-.26.36-.21h0s3.86,1.07,3.86,1.07c.16.04.25.21.21.37-.04.16-.21.25-.37.21Z"/>
          <path d="M262.67,9.25l-3.88-.94c-.16-.04-.26-.2-.23-.36.04-.16.2-.26.36-.23h0s3.89.95,3.89.95c.16.04.26.2.22.36-.04.16-.21.26-.37.22Z"/>
          <path d="M254.9,7.42l-3.91-.83c-.16-.03-.27-.19-.24-.36.03-.16.19-.27.36-.24h0s3.91.83,3.91.83c.16.03.27.2.23.36s-.2.27-.36.23Z"/>
          <path d="M247.07,5.81l-3.93-.72c-.17-.03-.28-.19-.25-.35.03-.17.19-.28.35-.25h0s3.94.72,3.94.72c.17.03.27.19.24.35-.03.17-.19.27-.36.24Z"/>
          <path d="M239.21,4.43l-3.95-.61c-.17-.02-.29-.18-.26-.35.02-.17.18-.29.35-.26h0s3.96.61,3.96.61c.17.03.28.18.26.35-.03.17-.19.28-.35.26Z"/>
          <path d="M231.31,3.27l-3.96-.5c-.17-.02-.29-.17-.27-.34.02-.17.17-.29.34-.27h0s3.97.51,3.97.51c.17.02.29.18.27.35s-.18.29-.35.27Z"/>
          <path d="M223.38,2.31l-3.97-.4c-.17-.02-.3-.17-.28-.34.02-.17.17-.3.34-.28h0s3.98.4,3.98.4c.17.02.3.17.28.34-.02.17-.17.3-.34.28Z"/>
          <path d="M215.43,1.56l-3.98-.3c-.17-.01-.31-.16-.29-.33s.16-.31.33-.29h0s3.99.3,3.99.3c.17.01.3.16.29.34-.01.17-.17.3-.34.29Z"/>
          <path d="M207.46,1.02l-3.99-.2c-.17,0-.31-.15-.31-.33,0-.17.15-.31.33-.31h0s4,.2,4,.2c.17,0,.31.16.3.33,0,.17-.16.31-.33.3Z"/>
          <path d="M199.48.67l-3.99-.1c-.18,0-.32-.15-.32-.32,0-.18.15-.32.32-.32h0s4,.1,4,.1c.18,0,.31.15.31.33,0,.18-.15.31-.33.31Z"/>
          <path d="M191.49.53h-4c-.18,0-.32-.14-.33-.32,0-.18.14-.32.32-.33h4.01c.18,0,.32.15.32.32,0,.18-.15.32-.32.32Z"/>
          <path d="M183.5.57l-4,.1c-.18,0-.33-.13-.34-.31,0-.18.13-.33.31-.34h0s4.01-.1,4.01-.1c.18,0,.33.14.33.31,0,.18-.14.33-.32.33Z"/>
          <path d="M175.51.82l-3.99.2c-.18.01-.33-.13-.35-.31-.01-.18.13-.33.31-.35h0s4-.19,4-.19c.18,0,.33.13.34.31,0,.18-.13.33-.31.34Z"/>
          <path d="M167.52,1.26l-3.99.3c-.18.02-.34-.12-.36-.3-.02-.18.12-.34.3-.36h0s4-.3,4-.3c.18-.01.34.12.35.3.01.18-.13.34-.31.35Z"/>
          <path d="M159.55,1.91l-3.98.4c-.18.02-.35-.11-.37-.29-.02-.18.11-.35.29-.37h0s3.99-.4,3.99-.4c.18-.02.34.11.36.3.02.18-.12.34-.3.36Z"/>
          <path d="M151.6,2.76l-3.97.5c-.18.03-.35-.1-.38-.28-.03-.18.1-.35.28-.38h0s3.98-.5,3.98-.5c.18-.02.35.11.37.29.02.18-.11.35-.29.37Z"/>
          <path d="M143.67,3.82l-3.95.61c-.18.03-.36-.09-.39-.28-.03-.18.09-.36.28-.39h0s3.96-.61,3.96-.61c.18-.03.35.1.38.28.03.18-.1.35-.28.38Z"/>
          <path d="M135.77,5.09l-3.93.72c-.18.04-.36-.08-.4-.27-.04-.18.08-.36.27-.4h0s3.94-.72,3.94-.72c.18-.03.36.09.39.27.03.18-.09.36-.28.39Z"/>
          <path d="M127.93,6.58l-3.91.83c-.18.04-.37-.07-.41-.26-.04-.18.07-.37.26-.41h0s3.92-.83,3.92-.83c.18-.04.36.08.4.26.04.18-.08.36-.27.4Z"/>
          <path d="M120.13,8.3l-3.88.94h0c-.18.05-.37-.07-.41-.25-.04-.18.07-.37.25-.41h0s3.89-.94,3.89-.94c.18-.04.37.07.41.25s-.07.37-.25.41h0Z"/>
          <path d="M112.38,10.24l-3.85,1.06h0c-.18.05-.37-.06-.42-.24-.05-.18.06-.37.24-.42h0s3.86-1.06,3.86-1.06c.18-.05.37.06.42.24s-.06.37-.24.42h0Z"/>
          <path d="M104.7,12.43l-3.81,1.19h0c-.18.06-.38-.04-.43-.23-.06-.18.05-.38.23-.43h0s3.82-1.19,3.82-1.19c.18-.06.38.05.43.23.06.18-.05.38-.23.43h0Z"/>
          <path d="M97.1,14.87l-3.77,1.32h0c-.18.07-.38-.03-.44-.21-.06-.18.03-.38.21-.44h0s3.78-1.32,3.78-1.32c.18-.06.38.03.44.21s-.03.38-.21.44h0Z"/>
          <path d="M89.58,17.57l-3.72,1.45h0c-.18.07-.38-.02-.46-.2s.02-.38.2-.46h0s3.73-1.45,3.73-1.45c.18-.07.38.02.45.2.07.18-.02.38-.2.45h0Z"/>
          <path d="M82.17,20.54l-3.66,1.59h0c-.18.08-.39,0-.47-.18s0-.39.18-.47h0s3.67-1.6,3.67-1.6c.18-.08.39,0,.46.18.08.18,0,.39-.18.46h0Z"/>
          <path d="M74.89,23.81l-3.59,1.75h0c-.18.09-.39.02-.48-.16s-.01-.39.16-.48h0l3.6-1.75c.18-.09.39-.01.47.16s.01.39-.16.47h0Z"/>
          <path d="M67.75,27.38l-3.51,1.91h0c-.17.1-.39.03-.49-.14-.09-.17-.03-.39.14-.49h0l3.52-1.91c.17-.09.39-.03.48.14s.03.39-.14.48h0Z"/>
          <path d="M60.78,31.27l-3.41,2.08h0c-.17.11-.39.05-.5-.12-.1-.17-.05-.39.12-.5h0s3.42-2.08,3.42-2.08c.17-.1.39-.05.49.12s.05.39-.12.49h0Z"/>
          <path d="M54.03,35.52l-3.29,2.26h0c-.17.12-.39.08-.5-.09-.11-.17-.07-.39.09-.5h0s3.3-2.27,3.3-2.27c.16-.11.39-.07.5.09.11.16.07.39-.09.5h0Z"/>
          <path d="M47.53,40.13l-3.14,2.46h0c-.16.13-.39.1-.51-.06s-.1-.39.06-.51h0s3.16-2.47,3.16-2.47c.16-.12.39-.1.51.06.12.16.1.39-.06.51h0Z"/>
          <path d="M41.33,45.15l-2.96,2.67h-.01c-.15.14-.38.13-.52-.02-.14-.15-.12-.38.03-.52h0s2.99-2.69,2.99-2.69c.15-.14.38-.12.52.03.14.15.12.38-.03.52h0Z"/>
          <path d="M35.51,50.6l-2.74,2.89h-.01c-.14.16-.37.17-.52.03s-.15-.37-.01-.52h0s2.77-2.92,2.77-2.92c.14-.15.37-.15.52-.01.15.14.15.37.01.52h-.01Z"/>
          <path d="M30.15,56.51l-2.47,3.13h-.01c-.13.18-.36.2-.52.08s-.19-.36-.06-.52h0s2.49-3.16,2.49-3.16c.13-.16.36-.19.52-.06.16.13.19.36.06.52h-.01Z"/>
          <path d="M25.38,62.88l-2.13,3.36v.02c-.12.17-.35.23-.53.12s-.23-.34-.12-.52h0s2.15-3.4,2.15-3.4c.11-.17.34-.23.51-.12.17.11.23.34.12.51v.02Z"/>
          <path d="M21.32,69.72l-1.71,3.59v.02c-.1.19-.32.27-.51.18-.19-.09-.27-.31-.18-.5h0s1.73-3.63,1.73-3.63c.09-.19.31-.27.5-.18s.27.31.18.5v.02Z"/>
          <path d="M18.14,77l-1.22,3.78v.03c-.07.2-.29.31-.48.24-.2-.06-.31-.28-.24-.48h0s1.24-3.83,1.24-3.83c.06-.2.28-.31.48-.24.2.06.31.28.24.48v.02Z"/>
          <path d="M15.97,84.64l-.66,3.92v.03c-.04.21-.24.35-.44.31s-.35-.23-.31-.44h0s.67-3.97.67-3.97c.03-.21.23-.35.44-.31.21.03.35.23.31.44v.03Z"/>
          <path d="M14.95,92.51c-.02,1.32-.1,2.65-.06,3.97,0,.21-.16.39-.37.39-.21,0-.39-.16-.39-.37h0s0,0,0,0c-.04-1.34.04-2.68.07-4.03,0-.21.18-.38.39-.38.21,0,.38.18.38.39v.03Z"/>
          <path d="M15.13,100.44l.54,3.93v.03c.03.21-.11.41-.33.43s-.41-.12-.43-.33h0s-.55-3.99-.55-3.99c-.03-.21.12-.4.33-.43.21-.03.4.12.43.33v.03Z"/>
          <path d="M16.52,108.33l.52,1.92.14.5h-.51s-3.41,0-3.41,0l.31-.63,1.18,1.63c.13.17.09.42-.09.54s-.42.09-.54-.09h0s0-.01,0-.01l-1.15-1.6-.45-.63h.76s3.41,0,3.41,0l-.37.5-.53-1.94c-.06-.21.07-.42.27-.47.21-.06.42.07.47.27h0Z"/>
          <path d="M16.98,115.14l2.09,3.48c.11.19.05.43-.13.54-.19.11-.43.05-.54-.13h0s0-.01,0-.01l-2.07-3.46h0c-.11-.2-.05-.44.13-.55s.42-.05.54.13Z"/>
          <path d="M21.03,122.17l1.85,3.61c.1.19.02.43-.17.53s-.43.02-.53-.17h0s0-.01,0-.01l-1.84-3.59h0c-.1-.2-.02-.44.17-.54.19-.1.43-.02.53.17Z"/>
          <path d="M24.62,129.45l1.63,3.72c.09.2,0,.43-.2.52s-.43,0-.52-.2h0s0-.01,0-.01l-1.62-3.7h0c-.09-.21,0-.44.2-.53.2-.09.43,0,.52.2Z"/>
          <path d="M27.77,136.93l1.41,3.81c.08.21-.03.44-.24.51-.21.08-.44-.03-.51-.24h0s0-.01,0-.01l-1.4-3.79h0c-.08-.22.03-.45.24-.52.21-.08.43.03.51.24Z"/>
          <path d="M30.47,144.59l1.18,3.88c.06.21-.06.44-.27.5-.21.06-.44-.06-.5-.27h0s0-.01,0-.01l-1.17-3.86h0c-.06-.22.06-.45.27-.51.21-.06.43.05.5.27Z"/>
          <path d="M32.72,152.39l.95,3.95c.05.22-.08.44-.3.49-.22.05-.44-.08-.49-.3h0s0-.01,0-.01l-.94-3.93h0c-.05-.23.08-.45.3-.5.22-.05.44.08.49.3Z"/>
          <path d="M34.5,160.31l.71,4c.04.23-.11.44-.34.48-.23.04-.44-.11-.48-.34h0s0-.01,0-.01l-.7-3.97h0c-.04-.24.11-.45.33-.49s.44.11.48.33Z"/>
          <path d="M35.8,168.32l.47,4.03c.03.23-.14.44-.37.47-.23.03-.44-.14-.47-.37h0s0-.01,0-.01l-.46-4.01h0c-.03-.24.14-.45.37-.48.23-.03.44.14.46.37Z"/>
          <path d="M36.61,176.4l.22,4.06c.01.24-.17.44-.41.45-.24.01-.44-.17-.45-.41h0s0-.01,0-.01l-.21-4.03h0c-.01-.25.17-.45.4-.46.24-.01.44.17.45.4Z"/>
          <path d="M36.92,184.51l-.03,4.06c0,.24-.2.44-.44.43-.24,0-.44-.2-.43-.44h0s0-.01,0-.01l.04-4.04h0c0-.25.2-.44.44-.44.24,0,.43.2.43.44Z"/>
          <path d="M36.73,192.63l-.28,4.05c-.02.24-.23.43-.47.41s-.43-.23-.41-.47h0s0-.01,0-.01l.29-4.02h0c.02-.26.23-.44.47-.42.24.02.43.23.41.47Z"/>
          <path d="M36.04,200.72l-.53,4.03c-.03.25-.26.42-.51.39-.25-.03-.42-.26-.39-.51h0s0-.01,0-.01l.53-4h0c.03-.26.26-.43.5-.4.24.03.42.26.38.5Z"/>
          <path d="M34.86,208.76l-.77,3.99c-.05.25-.29.41-.54.36-.25-.05-.41-.29-.36-.54h0s0-.01,0-.01l.77-3.96h0c.05-.26.29-.42.53-.37.25.05.41.29.36.53Z"/>
          <path d="M33.21,216.71l-1,3.94c-.06.25-.32.4-.57.34-.25-.06-.4-.32-.34-.57h0s0-.01,0-.01l1-3.91h0c.06-.26.31-.41.56-.35s.4.31.33.56Z"/>
          <path d="M31.09,224.55l-1.22,3.87c-.08.25-.34.39-.59.31-.25-.08-.39-.34-.31-.59h0s0-.01,0-.01l1.22-3.84h0c.08-.26.34-.4.59-.32s.38.34.3.59Z"/>
          <path d="M28.53,232.25l-1.44,3.8c-.09.25-.37.37-.62.28-.25-.09-.37-.37-.28-.62h0s0-.01,0-.01l1.43-3.77h0c.09-.26.37-.38.61-.29.25.09.37.37.28.61Z"/>
          <path d="M25.47,239.8l-1.72,3.66h0c-.11.25-.4.35-.65.24-.24-.11-.35-.4-.23-.65h0s1.73-3.67,1.73-3.67c.11-.24.4-.34.64-.23.24.11.34.4.23.64h0Z"/>
          <path d="M22.08,247.14l-1.62,3.7h0c-.11.26-.4.37-.65.26-.25-.11-.36-.4-.25-.65h0s1.63-3.72,1.63-3.72c.11-.25.4-.36.64-.25.25.11.36.4.25.64h0Z"/>
          <path d="M18.9,254.57l-1.51,3.75h0c-.1.26-.39.39-.65.28-.26-.1-.38-.39-.28-.65h0s1.52-3.76,1.52-3.76c.1-.25.39-.38.65-.27.25.1.38.39.27.65h0Z"/>
          <path d="M15.94,262.09l-1.4,3.79h0c-.1.27-.39.4-.65.31-.26-.1-.4-.39-.3-.65h0s1.41-3.81,1.41-3.81c.1-.26.39-.39.65-.3.26.1.39.39.3.65h0Z"/>
          <path d="M13.21,269.7l-1.28,3.83h0c-.09.28-.38.42-.65.33-.27-.09-.41-.38-.32-.65h0s1.29-3.85,1.29-3.85c.09-.27.38-.41.65-.32.27.09.41.38.32.65h0Z"/>
          <path d="M10.71,277.39l-1.15,3.87h0c-.08.28-.37.44-.65.36-.28-.08-.43-.37-.35-.65h0s1.17-3.89,1.17-3.89c.08-.27.37-.43.64-.35s.43.37.35.64h0Z"/>
          <path d="M8.47,285.15l-1.03,3.91h0c-.07.29-.36.46-.64.39s-.45-.36-.38-.64h0s1.04-3.92,1.04-3.92c.07-.28.36-.45.64-.37.28.07.45.36.37.64h0Z"/>
          <path d="M6.48,292.99l-.89,3.94h0c-.07.3-.35.48-.64.41-.29-.07-.47-.35-.4-.64h0s.9-3.96.9-3.96c.07-.29.35-.47.64-.4.29.07.47.35.4.64h0Z"/>
          <path d="M4.77,300.88l-.75,3.97h0c-.06.3-.34.5-.63.44-.29-.06-.49-.34-.43-.63h0s.76-3.99.76-3.99c.06-.29.34-.48.63-.43.29.06.48.34.43.63h0Z"/>
          <path d="M3.36,308.83l-.59,3.99h0c-.04.31-.32.52-.62.47-.3-.04-.51-.32-.46-.62h0s.6-4.02.6-4.02c.04-.3.32-.5.62-.46.3.04.5.32.46.62h0Z"/>
          <path d="M2.24,316.93l-.22,1.98-.6-.61h0s.67-.06.67-.06l-.07.68-.21,1.97v.02c-.03.31-.31.53-.61.49-.31-.03-.53-.31-.49-.61h0s.22-2,.22-2l.6.62h0s-.68.06-.68.06l.08-.67.22-1.99c.03-.3.31-.52.61-.49.3.03.52.31.49.61h0Z"/>
          <path d="M1.56,324.83l-.04,3.95v.03c0,.31-.26.56-.57.56-.31,0-.56-.26-.56-.57H.39s.04-4.02.04-4.02c0-.31.26-.56.56-.55.31,0,.56.26.55.56v.03Z"/>
          <path d="M1.71,332.74c.13,1.31.28,2.62.41,3.93v.03c.04.31-.19.59-.5.63-.31.03-.59-.19-.63-.51h0c-.14-1.33-.29-2.66-.41-4-.03-.31.2-.59.51-.62.31-.03.59.2.62.51v.02Z"/>
          <path d="M2.76,340.57l.86,3.86v.03c.08.31-.12.62-.43.69-.31.07-.62-.13-.69-.44h0s-.86-3.92-.86-3.92c-.07-.31.13-.61.44-.68.31-.07.61.13.68.44v.03Z"/>
          <path d="M4.69,348.23l1.28,3.74v.03c.11.3-.05.64-.35.74-.3.1-.64-.06-.74-.36h0s-1.29-3.8-1.29-3.8c-.1-.3.06-.63.36-.73.3-.1.63.06.73.36v.03Z"/>
          <path d="M7.44,355.63l1.67,3.58v.03c.15.3.02.65-.27.78-.3.14-.65,0-.78-.29h0s-1.69-3.64-1.69-3.64c-.14-.29,0-.64.29-.78s.64,0,.78.29v.03Z"/>
          <path d="M10.96,362.71l2.02,3.4v.02c.18.28.09.65-.19.82-.28.17-.65.07-.82-.21h0s-2.04-3.46-2.04-3.46c-.17-.28-.07-.65.21-.81.28-.17.65-.07.81.21v.02Z"/>
          <path d="M15.15,369.41l2.32,3.2.02.02c.2.27.14.65-.13.84-.27.2-.65.14-.84-.13h0s-2.35-3.25-2.35-3.25c-.19-.27-.13-.64.14-.84s.64-.13.84.14v.02Z"/>
          <path d="M19.93,375.72l2.58,3,.02.02c.22.26.19.64-.06.86-.26.22-.64.19-.86-.06h0s-2.61-3.04-2.61-3.04c-.22-.25-.19-.64.07-.86.25-.22.64-.19.86.07l.02.02Z"/>
          <path d="M25.21,381.62l2.81,2.8.02.02c.24.24.24.63,0,.87-.24.24-.63.24-.87,0h0s-2.83-2.83-2.83-2.83c-.24-.24-.24-.63,0-.87.24-.24.63-.24.87,0l.02.02Z"/>
          <path d="M30.92,387.12l2.99,2.6h.02c.26.24.29.63.06.89-.23.26-.62.29-.88.06h0s-3.02-2.63-3.02-2.63c-.26-.23-.29-.62-.06-.88s.62-.29.88-.06h.01Z"/>
          <path d="M37,392.22l3.15,2.4h.01c.28.22.33.62.12.9s-.61.33-.88.12h0s-3.18-2.43-3.18-2.43c-.28-.21-.33-.6-.12-.88.21-.28.6-.33.88-.12h.01Z"/>
          <path d="M43.37,396.93l3.29,2.22h.01c.29.21.37.6.17.9-.2.29-.59.37-.89.17h0s-3.31-2.24-3.31-2.24c-.29-.2-.37-.59-.17-.88.2-.29.59-.37.88-.17h.01Z"/>
          <path d="M50,401.28l3.4,2.04h.01c.31.19.4.59.22.89-.18.31-.58.4-.88.22h0s-3.43-2.07-3.43-2.07c-.3-.18-.4-.58-.22-.88.18-.3.58-.4.88-.22h.01Z"/>
          <path d="M56.85,405.28l3.5,1.88h.01c.32.18.44.57.27.89-.17.32-.57.44-.88.27h0s-3.52-1.9-3.52-1.9c-.32-.17-.43-.56-.26-.88s.56-.43.88-.26h.01Z"/>
          <path d="M63.89,408.95l3.58,1.72h.01c.33.16.47.56.31.88-.16.33-.55.47-.88.31h0s-3.6-1.74-3.6-1.74c-.33-.16-.46-.55-.31-.87.16-.33.55-.46.87-.31h.01Z"/>
          <path d="M71.09,412.31l3.65,1.56h.01c.34.15.49.54.35.88s-.54.49-.87.35h0s-3.67-1.58-3.67-1.58c-.34-.14-.49-.53-.35-.87.14-.34.53-.49.87-.35h.01Z"/>
          <path d="M78.43,415.36l3.71,1.42h.01c.35.14.52.53.39.87-.13.35-.52.52-.87.39h0s-3.73-1.43-3.73-1.43c-.34-.13-.52-.52-.38-.86.13-.34.52-.52.86-.38h.01Z"/>
          <path d="M85.87,418.12l3.76,1.28h.01c.36.12.55.51.42.87s-.51.55-.86.42h0s-3.78-1.29-3.78-1.29c-.35-.12-.54-.5-.42-.86.12-.35.5-.54.86-.42h.01Z"/>
          <path d="M93.41,420.61l3.8,1.14h.01c.36.11.57.49.46.86-.11.36-.49.57-.85.46h0s-3.82-1.16-3.82-1.16c-.36-.11-.56-.49-.46-.85.11-.36.49-.56.85-.46h.01Z"/>
          <path d="M101.04,422.83l3.84,1.01h.01c.37.1.59.48.49.85s-.48.59-.85.49h0s-3.86-1.03-3.86-1.03c-.37-.1-.59-.48-.49-.84s.48-.59.84-.49h0Z"/>
          <path d="M108.74,424.79l3.87.89h.01c.38.09.61.46.53.84-.09.38-.46.61-.84.53h0s-3.89-.9-3.89-.9c-.37-.09-.61-.46-.52-.84.09-.37.46-.61.84-.52h0Z"/>
          <path d="M116.5,426.51l3.9.77h.01c.38.08.63.45.56.83-.08.38-.45.63-.83.56h0s-3.92-.78-3.92-.78c-.38-.08-.63-.45-.55-.83s.45-.63.83-.55h0Z"/>
          <path d="M124.31,427.99l3.92.65h.01c.39.07.65.43.59.82s-.43.65-.82.59h0s-3.94-.66-3.94-.66c-.39-.06-.65-.43-.58-.82s.43-.65.82-.58h0Z"/>
          <path d="M132.16,429.23l3.94.54h.01c.39.05.67.42.62.81s-.42.67-.81.62h0s-3.96-.55-3.96-.55c-.39-.05-.67-.42-.61-.81.05-.39.42-.67.81-.61h0Z"/>
          <path d="M140.05,430.25l3.95.42h.01c.4.04.69.4.65.8-.04.4-.4.69-.8.65h0s-3.97-.43-3.97-.43c-.4-.04-.68-.4-.64-.8s.4-.68.8-.64h0Z"/>
          <path d="M147.96,431.04l3.96.31h0c.4.03.71.39.67.79-.03.4-.39.71-.79.67h0s-3.98-.32-3.98-.32c-.4-.03-.7-.39-.67-.79.03-.4.39-.7.79-.67h0Z"/>
          <path d="M155.89,431.61l3.97.21h0c.41.02.72.37.7.78s-.37.72-.78.7h0l-3.99-.22c-.41-.02-.72-.37-.7-.78.02-.41.37-.72.78-.7h0Z"/>
          <path d="M163.82,431.98l3.97.1h0c.41.01.74.35.73.77s-.35.74-.77.73h0l-3.99-.11c-.41-.01-.73-.35-.72-.76s.35-.73.76-.72h0Z"/>
          <path d="M171.77,432.13h3.98s0,0,0,0c.42,0,.75.34.75.75s-.34.75-.75.75h-4c-.41,0-.75-.34-.75-.76s.34-.75.75-.75h0Z"/>
          <path d="M179.72,432.08l3.98-.1h0c.42-.01.77.32.78.74.01.42-.32.77-.74.78h0l-3.99.1c-.42.01-.77-.32-.78-.74-.01-.42.32-.77.74-.78h0Z"/>
          <path d="M187.67,431.82l3.97-.2h0c.42-.02.78.3.81.73.02.42-.3.78-.73.81h0s-3.99.2-3.99.2c-.42.02-.78-.3-.8-.73-.02-.42.3-.78.73-.8h0Z"/>
          <path d="M195.61,431.36l3.97-.3h0c.43-.03.8.29.83.71.03.43-.29.8-.71.83h0s-3.99.3-3.99.3c-.42.03-.8-.29-.83-.71s.29-.8.71-.83h0Z"/>
          <path d="M203.54,430.71l3.96-.4h0c.43-.04.81.27.86.7.04.43-.27.81-.7.86h0s-3.98.4-3.98.4c-.43.04-.81-.27-.85-.7s.27-.81.7-.85h0Z"/>
          <path d="M211.46,429.85l3.95-.5h0c.43-.06.83.25.88.68s-.25.83-.68.88h0s-3.97.5-3.97.5c-.43.05-.82-.25-.88-.68s.25-.82.68-.88h0Z"/>
          <path d="M219.34,428.8l3.93-.6h.01c.43-.07.84.23.91.66.07.43-.23.84-.67.91h0s-3.95.6-3.95.6c-.43.07-.84-.23-.9-.66-.07-.43.23-.84.66-.9h0Z"/>
          <path d="M227.2,427.54l3.92-.7h.01c.44-.08.85.21.93.65.08.44-.21.85-.65.93h0s-3.94.7-3.94.7c-.43.08-.85-.21-.93-.65-.08-.43.21-.85.65-.93h0Z"/>
          <path d="M235.03,426.08l3.9-.81h.01c.44-.09.87.19.96.63.09.44-.19.87-.63.96h0s-3.92.81-3.92.81c-.44.09-.86-.19-.95-.63-.09-.44.19-.86.63-.95h0Z"/>
          <path d="M242.81,424.42l3.87-.91h.01c.44-.11.88.17.98.61s-.17.88-.61.98h0s-3.9.91-3.9.91c-.44.1-.87-.17-.98-.61-.1-.44.17-.87.61-.98h0Z"/>
          <path d="M250.54,422.54l3.85-1.02h.01c.44-.12.89.14,1.01.58.12.44-.15.89-.59,1.01h0s-3.87,1.02-3.87,1.02c-.44.11-.89-.15-1-.58-.12-.44.15-.89.58-1h0Z"/>
          <path d="M258.22,420.45l3.82-1.12h.01c.44-.13.9.12,1.03.56.13.44-.12.9-.56,1.03h0s-3.84,1.13-3.84,1.13c-.44.13-.9-.12-1.03-.56-.13-.44.12-.9.56-1.03h0Z"/>
          <path d="M265.83,418.15l3.78-1.23h.01c.44-.15.91.09,1.06.53.14.44-.1.91-.54,1.06h0s-3.81,1.24-3.81,1.24c-.44.14-.91-.1-1.05-.54-.14-.44.1-.91.54-1.05h.01Z"/>
          <path d="M273.38,415.62l3.74-1.35h.01c.44-.16.92.07,1.08.5.16.44-.07.92-.51,1.08h0s-3.77,1.35-3.77,1.35c-.44.16-.92-.07-1.07-.51-.16-.44.07-.92.51-1.07h.01Z"/>
          <path d="M280.84,412.87l3.7-1.46h.01c.44-.18.93.04,1.1.47s-.04.93-.48,1.1h0s-3.73,1.46-3.73,1.46c-.44.17-.93-.04-1.1-.48-.17-.44.04-.93.48-1.1h.01Z"/>
          <path d="M288.22,409.89l3.65-1.58h.01c.43-.19.94,0,1.13.44s-.01.94-.45,1.13h0s-3.68,1.58-3.68,1.58c-.43.19-.94-.01-1.12-.45-.19-.43.01-.94.45-1.12h.01Z"/>
          <path d="M295.49,406.68l3.59-1.7h.01c.43-.21.95-.03,1.15.41s.02.95-.41,1.15h0s-3.62,1.71-3.62,1.71c-.43.2-.94.02-1.15-.41-.2-.43-.02-.94.41-1.15h.01Z"/>
          <path d="M302.65,403.22l3.53-1.82h.01c.43-.23.95-.06,1.17.37s.05.95-.37,1.17h0s-3.56,1.83-3.56,1.83c-.43.22-.95.05-1.17-.38s-.05-.95.38-1.17h.01Z"/>
          <path d="M309.68,399.51l3.46-1.95h.01c.42-.25.96-.1,1.2.33s.09.96-.33,1.2h0s-3.49,1.96-3.49,1.96c-.42.24-.95.09-1.19-.33-.24-.42-.09-.95.33-1.19h.01Z"/>
          <path d="M316.56,395.54l3.38-2.08h.02c.42-.27.96-.14,1.22.28.26.42.13.96-.29,1.22h0s-3.42,2.1-3.42,2.1c-.41.25-.96.12-1.21-.29-.25-.41-.12-.96.29-1.21h.01Z"/>
          <path d="M323.28,391.3l3.29-2.22h.02c.41-.29.96-.18,1.24.23.28.41.17.96-.24,1.24h0s-3.33,2.24-3.33,2.24c-.41.27-.96.17-1.23-.24s-.17-.96.24-1.23h.01Z"/>
          <path d="M329.82,386.79l3.19-2.36h.02c.4-.31.96-.22,1.26.17.3.4.21.96-.19,1.26h0s-3.23,2.38-3.23,2.38c-.4.29-.96.21-1.25-.19-.29-.4-.21-.96.19-1.25h.02Z"/>
          <path d="M336.14,381.99l3.07-2.51h.02c.39-.33.96-.27,1.27.11s.26.96-.13,1.27h0s-3.11,2.54-3.11,2.54c-.39.31-.95.26-1.27-.13-.31-.39-.26-.95.13-1.27h.02Z"/>
          <path d="M342.21,376.88l2.94-2.67.02-.02c.37-.34.95-.31,1.29.06.34.37.31.95-.06,1.29h0s-2.98,2.69-2.98,2.69c-.37.34-.95.31-1.28-.06-.34-.37-.31-.95.06-1.28l.02-.02Z"/>
          <path d="M348.01,371.48l2.78-2.82.02-.02c.36-.36.94-.37,1.3-.01.36.36.37.94.01,1.3h0s-2.82,2.86-2.82,2.86c-.36.36-.94.36-1.3,0-.36-.36-.36-.94,0-1.3l.02-.02Z"/>
          <path d="M353.48,365.75l2.6-2.99.02-.02c.34-.39.92-.43,1.31-.09s.43.92.09,1.31h0s-2.64,3.03-2.64,3.03c-.34.38-.92.42-1.3.09-.38-.34-.42-.92-.09-1.3l.02-.02Z"/>
          <path d="M358.58,359.69l2.39-3.15.02-.03c.31-.41.9-.49,1.31-.18.41.31.49.9.18,1.31h0s-2.44,3.2-2.44,3.2c-.31.41-.89.49-1.3.18-.41-.31-.49-.89-.18-1.3l.02-.02Z"/>
          <path d="M363.25,353.31l2.15-3.32.02-.03c.28-.44.86-.56,1.3-.28.44.28.56.86.28,1.3h0s-2.2,3.37-2.2,3.37c-.28.43-.86.56-1.3.27s-.56-.86-.27-1.3l.02-.03Z"/>
          <path d="M367.42,346.6l1.87-3.48.02-.04c.25-.46.82-.63,1.28-.38.46.25.63.82.38,1.28h0s-1.92,3.54-1.92,3.54c-.25.46-.82.63-1.28.38-.46-.25-.63-.82-.38-1.28l.02-.03Z"/>
          <path d="M371,339.57l1.55-3.62.02-.04c.21-.48.77-.71,1.25-.5s.71.77.5,1.25h0s-1.59,3.7-1.59,3.7c-.21.48-.77.7-1.25.5-.48-.21-.7-.77-.5-1.25l.02-.04Z"/>
          <path d="M373.94,332.25l1.19-3.75v-.05c.18-.51.72-.78,1.22-.62.51.16.78.7.62,1.21h0s-1.23,3.84-1.23,3.84c-.16.5-.7.78-1.2.62-.5-.16-.78-.7-.62-1.2v-.04Z"/>
          <path d="M376.13,324.69l.8-3.86v-.05c.12-.52.63-.86,1.15-.75.52.11.86.62.75,1.14h0s-.82,3.96-.82,3.96c-.11.52-.62.86-1.14.75s-.86-.62-.75-1.14v-.05Z"/>
          <path d="M377.51,316.95l.37-3.91v-.05c.06-.54.53-.93,1.07-.88.54.05.93.53.88,1.06h0s-.38,4.02-.38,4.02c-.05.53-.52.92-1.06.87-.53-.05-.92-.52-.87-1.06v-.05Z"/>
          <path d="M378.02,309.1l-.08-3.93v-.06c-.01-.54.42-.99.96-1,.54-.01.99.42,1,.96h0s.07,4.04.07,4.04c0,.54-.42.98-.96.99-.54,0-.98-.42-.99-.96v-.05Z"/>
          <path d="M377.64,301.25l-.52-3.9v-.06c-.08-.54.3-1.04.84-1.11.54-.07,1.04.31,1.11.85h0s.53,4.01.53,4.01c.07.54-.31,1.03-.85,1.1s-1.03-.31-1.1-.85v-.05Z"/>
          <path d="M376.37,293.49l-.96-3.81v-.05c-.15-.53.18-1.07.71-1.21.53-.13,1.07.19,1.21.72h0s.98,3.92.98,3.92c.13.53-.19,1.07-.72,1.2-.53.13-1.07-.19-1.2-.72v-.05Z"/>
        </g>
      </g>
      <path d="M351.02,117.71s-38.43,51.53-11.26,119.93c7.08,15.11,13.41,31.02,16.85,42.78h0c2.06,5.77,3.37,11.77,3.84,17.97,4.49,59.05-68.19,113.25-162.34,121.05-94.15,7.8-174.11-33.75-178.6-92.8-.34-4.46-.23-8.89.29-13.27h0c1.69-16.55,6.77-43.41,21.9-75.72,27.17-68.4-11.26-119.93-11.26-119.93h320.6Z" fill="url(#_10_lpi_70_)"/>
      <circle cx="300.05" cy="72.04" r="33"/>
      <path d="M311.14,43.05s6.15-13.41,16.22-23.33l3.24,1.78-17.68,23.63-1.78-2.07Z"/>
      <g mix-blend-mode="multiply">
        <path d="M323.28,487.49c-39.16-15.14-78.24-23.26-117.25-24.98v-34.87h-28.44v34.75c-41.58,1.46-83.09,10.05-124.53,25.1h270.22Z" fill="#fff"/>
        <g>
          <path d="M321.28,486.51h2s-.07,1.16-.07,1.16l-1.87-.71c-.1-.04-.15-.15-.12-.25.04-.1.15-.15.25-.12h0s1.87.72,1.87.72l.14.05c.3.11.44.45.33.74-.09.23-.31.37-.54.37h-2c-.54,0-.98-.44-.98-.98,0-.54.44-.98.98-.98Z"/>
          <path d="M317.59,485.55l-3.77-1.37c-.11-.04-.16-.15-.12-.26.04-.11.15-.16.26-.12h0s3.77,1.38,3.77,1.38c.1.04.16.15.12.26s-.15.16-.26.12Z"/>
          <path d="M310.03,482.85l-3.8-1.29c-.11-.04-.17-.15-.13-.26.04-.11.15-.17.26-.13h0s3.8,1.3,3.8,1.3c.11.04.16.15.13.26s-.16.16-.26.13Z"/>
          <path d="M302.42,480.3l-3.82-1.21c-.11-.03-.18-.15-.14-.27.03-.11.15-.18.27-.14h0s3.83,1.22,3.83,1.22c.11.04.17.15.14.26s-.16.17-.27.14Z"/>
          <path d="M294.76,477.92l-3.85-1.13c-.12-.03-.18-.15-.15-.27.03-.12.15-.18.27-.15h0s3.85,1.14,3.85,1.14c.11.03.18.15.15.27s-.16.18-.27.15Z"/>
          <path d="M287.05,475.69l-3.87-1.05c-.12-.03-.19-.15-.16-.27.03-.12.15-.19.27-.16h0s3.87,1.06,3.87,1.06c.12.03.19.15.15.27-.03.12-.16.19-.27.15Z"/>
          <path d="M279.3,473.63l-3.89-.97c-.12-.03-.2-.15-.17-.28.03-.12.15-.2.27-.17h0s3.9.97,3.9.97c.12.03.19.15.16.27-.03.12-.16.19-.28.16Z"/>
          <path d="M271.5,471.74l-3.91-.88c-.13-.03-.21-.15-.18-.28.03-.13.15-.21.28-.18h0s3.92.89,3.92.89c.12.03.2.15.17.28-.03.12-.15.2-.28.17Z"/>
          <path d="M263.67,470.01l-3.93-.8c-.13-.02-.21-.15-.19-.28s.15-.21.28-.19h0s3.94.8,3.94.8c.13.03.21.15.18.28-.03.13-.15.21-.28.18Z"/>
          <path d="M255.8,468.46l-3.95-.71c-.13-.02-.22-.15-.2-.28.02-.13.15-.22.28-.2h0s3.95.72,3.95.72c.13.02.22.15.19.28-.02.13-.15.22-.28.19Z"/>
          <path d="M247.89,467.08l-3.96-.62c-.14-.02-.23-.15-.21-.28s.15-.23.28-.21h0s3.97.63,3.97.63c.13.02.23.15.2.28-.02.13-.15.23-.28.2Z"/>
          <path d="M239.96,465.88l-3.98-.53c-.14-.02-.24-.14-.22-.28.02-.14.14-.24.28-.22h0s3.98.54,3.98.54c.14.02.23.15.22.28-.02.14-.15.23-.29.22Z"/>
          <path d="M232,464.86l-3.99-.44c-.14-.01-.25-.14-.23-.28.01-.14.14-.25.28-.23h0s3.99.45,3.99.45c.14.02.24.14.23.28s-.15.24-.29.23Z"/>
          <path d="M224.02,464.02l-4-.35c-.15-.01-.25-.14-.24-.28.01-.15.14-.25.28-.24h0s4,.36,4,.36c.14.01.25.14.24.28s-.14.25-.29.24Z"/>
          <path d="M216.03,463.36l-4-.26c-.15,0-.26-.14-.25-.28,0-.15.14-.26.28-.25h0s4.01.27,4.01.27c.15,0,.26.14.25.28,0,.15-.14.26-.29.25Z"/>
          <path d="M208.02,462.87l-1.99-.09c-.15,0-.26-.13-.26-.27v-2c0-.15.12-.27.27-.27.15,0,.27.12.27.27h0s0,2,0,2l-.26-.27,2,.09c.15,0,.27.13.26.28,0,.15-.14.27-.29.26Z"/>
          <path d="M205.76,456.1v-4.41c0-.15.12-.28.28-.28s.28.13.28.28h0s0,4.41,0,4.41c0,.15-.12.28-.28.28s-.28-.12-.28-.28Z"/>
          <path d="M205.75,447.28v-4.41c0-.16.12-.29.28-.29.16,0,.29.13.29.29h0s0,4.41,0,4.41c0,.16-.13.28-.28.28-.16,0-.28-.13-.28-.28Z"/>
          <path d="M205.74,438.46v-4.41c0-.16.13-.29.29-.29.16,0,.29.13.29.29h0s0,4.41,0,4.41c0,.16-.13.29-.29.29s-.29-.13-.29-.29Z"/>
          <path d="M205.74,429.64v-2s.29.3.29.3h-2c-.16,0-.3-.13-.3-.3s.13-.3.3-.3h2c.16,0,.3.13.3.3v2c0,.16-.13.29-.3.29-.16,0-.29-.13-.29-.29Z"/>
          <path d="M200.54,427.94h-3.49c-.17,0-.3-.13-.3-.3,0-.17.13-.3.3-.3h3.49c.17,0,.3.14.3.3s-.13.3-.3.3Z"/>
          <path d="M193.56,427.94h-3.49c-.17,0-.31-.13-.31-.3s.14-.31.31-.31h3.49c.17,0,.3.14.3.31s-.14.3-.3.3Z"/>
          <path d="M186.57,427.95h-3.49c-.17,0-.31-.14-.31-.31,0-.17.14-.31.31-.31h3.49c.17,0,.31.14.31.31s-.14.31-.31.31Z"/>
          <path d="M179.59,427.95h-2s.31-.31.31-.31v2c0,.17-.14.31-.31.32-.17,0-.31-.14-.31-.31h0s0-2,0-2c0-.17.14-.31.31-.31h2c.17,0,.31.14.31.31s-.14.31-.31.31Z"/>
          <path d="M177.91,434.03v4.39c0,.18-.14.32-.32.32-.18,0-.32-.14-.32-.32h0s0-4.39,0-4.39c0-.18.14-.32.32-.32.18,0,.32.14.32.32Z"/>
          <path d="M177.91,442.82v4.39c0,.18-.14.33-.32.33-.18,0-.33-.15-.33-.33h0s0-4.39,0-4.39c0-.18.14-.32.32-.32.18,0,.32.14.32.32Z"/>
          <path d="M177.92,451.6v4.39c0,.18-.15.33-.33.33-.18,0-.33-.15-.33-.33h0s0-4.39,0-4.39c0-.18.15-.33.33-.33.18,0,.33.15.33.33Z"/>
          <path d="M177.92,460.39v2c0,.18-.14.33-.32.34l-2,.08c-.19,0-.34-.14-.35-.32s.14-.34.32-.35h0l2-.07-.32.34v-2c0-.18.15-.33.34-.33.18,0,.33.15.33.33Z"/>
          <path d="M171.63,462.99l-3.97.23c-.19.01-.35-.13-.36-.32-.01-.19.13-.35.32-.36h0s3.98-.22,3.98-.22c.19-.01.35.13.36.32.01.19-.14.35-.32.36Z"/>
          <path d="M163.69,463.49l-3.97.31c-.19.02-.36-.12-.38-.31s.12-.36.31-.38h0s3.98-.31,3.98-.31c.19-.01.36.13.37.32s-.13.36-.32.37Z"/>
          <path d="M155.75,464.16l-3.96.4c-.19.02-.37-.12-.39-.31-.02-.19.12-.37.31-.39h0s3.97-.4,3.97-.4c.19-.02.36.12.38.31.02.19-.12.36-.32.38Z"/>
          <path d="M147.84,465l-3.95.48c-.2.03-.38-.11-.4-.31s.11-.38.31-.4h0s3.96-.48,3.96-.48c.19-.02.37.12.39.31.02.19-.12.37-.31.4Z"/>
          <path d="M139.94,466.01l-3.94.56c-.2.03-.38-.11-.41-.3-.03-.2.11-.38.3-.41h0s3.95-.56,3.95-.56c.2-.03.38.11.41.31.03.2-.11.38-.31.41Z"/>
          <path d="M132.07,467.18l-3.93.65c-.2.04-.39-.1-.43-.3-.04-.2.1-.39.3-.43h0s3.94-.64,3.94-.64c.2-.03.39.1.42.3.03.2-.11.39-.3.42Z"/>
          <path d="M124.22,468.51l-3.91.73c-.2.04-.4-.09-.44-.29-.04-.2.09-.4.29-.44h0s3.92-.72,3.92-.72c.2-.04.39.1.43.3.04.2-.1.39-.3.43Z"/>
          <path d="M116.4,470l-3.9.8c-.2.04-.4-.09-.45-.29-.04-.2.09-.4.29-.45h0s3.91-.8,3.91-.8c.2-.04.4.09.44.29s-.09.4-.3.44Z"/>
          <path d="M108.61,471.64l-3.88.88c-.21.05-.41-.08-.46-.28-.05-.21.08-.41.28-.46h0s3.89-.88,3.89-.88c.2-.05.41.08.45.29.05.2-.09.41-.29.45Z"/>
          <path d="M100.86,473.44l-3.87.95c-.21.05-.42-.07-.47-.28s.07-.42.28-.47h0s3.87-.95,3.87-.95c.21-.05.42.08.47.28.05.21-.08.42-.29.47Z"/>
          <path d="M93.13,475.38l-3.85,1.03c-.21.06-.43-.06-.48-.27s.06-.43.27-.48h0s3.86-1.02,3.86-1.02c.21-.06.42.07.48.28s-.07.42-.28.48Z"/>
          <path d="M85.45,477.47l-3.83,1.1c-.22.06-.44-.06-.51-.27-.06-.22.06-.44.27-.51h0s3.84-1.09,3.84-1.09c.21-.06.43.06.49.28.06.21-.07.43-.28.5Z"/>
          <path d="M77.81,479.71l-3.81,1.17c-.22.07-.46-.05-.53-.28-.07-.22.05-.46.28-.53h0s3.82-1.16,3.82-1.16c.22-.07.45.06.52.28s-.06.45-.28.52Z"/>
          <path d="M70.21,482.09l-3.78,1.24c-.23.08-.48-.05-.56-.28-.08-.23.05-.48.28-.56h0s3.8-1.23,3.8-1.23c.23-.07.47.05.54.28s-.05.47-.28.54Z"/>
          <path d="M62.65,484.59l-3.76,1.3c-.24.08-.5-.04-.58-.28-.08-.24.04-.5.28-.58h0s3.77-1.29,3.77-1.29c.23-.08.49.04.57.28.08.23-.05.49-.28.57Z"/>
          <path d="M55.1,487.25l-1.88.68-.16-.9h2c.26,0,.47.21.47.46s-.21.47-.47.47h-2c-.26,0-.47-.21-.47-.47,0-.2.13-.37.31-.44l1.88-.68c.24-.09.5.04.59.28s-.04.5-.28.59Z"/>
          <path d="M59.04,487.01h3.97c.27,0,.48.21.49.48s-.22.48-.48.49h-3.98c-.26,0-.48-.22-.48-.49s.21-.48.48-.48Z"/>
          <path d="M66.98,487h3.97c.28,0,.5.22.5.49,0,.28-.22.5-.5.5h-3.98c-.27,0-.49-.23-.49-.5,0-.27.22-.49.49-.49Z"/>
          <path d="M74.93,486.98h3.97c.28,0,.52.22.52.51,0,.28-.23.52-.51.52h-3.98c-.28,0-.51-.24-.51-.52,0-.28.23-.51.51-.51Z"/>
          <path d="M82.88,486.97h3.97c.29,0,.53.23.53.52,0,.29-.24.53-.53.53h-3.98c-.29,0-.52-.24-.52-.53,0-.29.23-.52.52-.52Z"/>
          <path d="M90.82,486.95h3.97c.3,0,.55.24.55.54,0,.3-.24.55-.54.55h-3.98c-.3,0-.54-.25-.54-.55,0-.3.24-.54.54-.54Z"/>
          <path d="M98.77,486.94h3.97c.31,0,.56.24.56.55,0,.31-.25.56-.56.56h-3.98c-.31,0-.55-.26-.55-.56,0-.31.25-.55.55-.55Z"/>
          <path d="M106.72,486.92h3.97c.32,0,.58.25.58.57,0,.32-.26.58-.57.58h-3.98c-.31,0-.57-.26-.57-.58,0-.31.25-.57.57-.57Z"/>
          <path d="M114.66,486.91h3.97c.33,0,.59.26.59.58s-.26.59-.59.59h-3.98c-.32,0-.58-.27-.58-.59,0-.32.26-.58.58-.58Z"/>
          <path d="M122.61,486.89h3.97c.33,0,.61.26.61.6,0,.33-.27.61-.6.61h-3.98c-.33,0-.6-.28-.6-.61,0-.33.27-.6.6-.6Z"/>
          <path d="M130.56,486.88h3.97c.34,0,.62.27.62.61,0,.34-.28.62-.62.62h-3.98c-.34,0-.61-.28-.61-.62,0-.34.27-.61.61-.61Z"/>
          <path d="M138.51,486.86h3.97c.35,0,.64.28.64.63,0,.35-.28.64-.64.64h-3.98c-.35,0-.63-.29-.63-.64,0-.35.28-.63.63-.63Z"/>
          <path d="M146.45,486.85h3.97c.36,0,.65.28.65.64,0,.36-.29.65-.65.65h-3.98c-.36,0-.64-.3-.64-.65,0-.36.29-.64.64-.64Z"/>
          <path d="M154.4,486.83h3.97c.37,0,.67.29.67.66,0,.37-.3.67-.67.67h-3.98c-.36,0-.66-.3-.66-.67,0-.36.29-.66.66-.66Z"/>
          <path d="M162.35,486.82h3.97c.38,0,.68.3.68.67s-.3.68-.68.68h-3.98c-.37,0-.67-.31-.67-.68,0-.37.3-.67.67-.67Z"/>
          <path d="M170.29,486.8h3.97c.38,0,.7.3.7.69,0,.38-.31.7-.7.7h-3.98c-.38,0-.69-.32-.69-.7s.31-.69.69-.69Z"/>
          <path d="M178.24,486.79h3.97c.39,0,.71.31.71.7,0,.39-.32.71-.71.71h-3.98c-.39,0-.7-.32-.7-.71,0-.39.31-.7.7-.7Z"/>
          <path d="M186.19,486.77h3.97c.4,0,.73.32.73.72,0,.4-.32.73-.73.73h-3.98c-.4,0-.72-.33-.72-.73,0-.4.32-.72.72-.72Z"/>
          <path d="M194.13,486.75h3.97c.41,0,.74.32.74.73,0,.41-.33.74-.74.74h-3.98c-.41,0-.73-.34-.73-.74,0-.41.33-.73.73-.73Z"/>
          <path d="M202.08,486.74h3.97c.42,0,.76.33.76.75,0,.42-.34.76-.76.76h-3.98c-.41,0-.75-.34-.75-.76,0-.41.33-.75.75-.75Z"/>
          <path d="M210.03,486.72h3.97c.43,0,.77.34.77.76,0,.43-.34.77-.77.77h-3.98c-.42,0-.76-.35-.76-.77,0-.42.34-.76.76-.76Z"/>
          <path d="M217.97,486.71h3.97c.44,0,.79.34.79.78,0,.44-.35.79-.79.79h-3.98c-.43,0-.78-.36-.78-.79,0-.43.35-.78.78-.78Z"/>
          <path d="M225.92,486.69h3.97c.44,0,.8.35.8.79s-.36.8-.8.8h-3.98c-.44,0-.8-.37-.79-.8,0-.44.35-.8.79-.79Z"/>
          <path d="M233.87,486.68h3.97c.45,0,.82.36.82.81,0,.45-.36.82-.82.82h-3.98c-.45,0-.81-.37-.81-.82s.36-.81.81-.81Z"/>
          <path d="M241.82,486.66h3.97c.46,0,.83.36.84.82,0,.46-.37.83-.83.84h-3.98c-.46,0-.83-.38-.82-.84,0-.46.37-.83.82-.82Z"/>
          <path d="M249.76,486.65h3.97c.47,0,.85.37.85.84,0,.47-.38.85-.85.85h-3.98c-.46,0-.84-.39-.84-.85,0-.46.38-.84.84-.84Z"/>
          <path d="M257.71,486.63h3.97c.48,0,.86.38.87.85,0,.48-.39.86-.86.87h-3.98c-.47,0-.86-.39-.85-.87,0-.47.38-.86.85-.85Z"/>
          <path d="M265.66,486.62h3.97c.49,0,.88.38.88.87,0,.49-.39.88-.88.88h-3.98c-.48,0-.87-.4-.87-.88,0-.48.39-.87.87-.87Z"/>
          <path d="M273.6,486.6h3.97c.49,0,.9.39.9.89,0,.49-.4.9-.89.9h-3.98c-.49,0-.89-.41-.89-.9,0-.49.4-.89.89-.89Z"/>
          <path d="M281.55,486.59h3.97c.5,0,.91.4.91.9,0,.5-.41.91-.91.91h-3.98c-.5,0-.9-.41-.9-.91,0-.5.4-.9.9-.9Z"/>
          <path d="M289.5,486.57h3.97c.51,0,.93.4.93.92s-.41.93-.92.93h-3.98c-.51,0-.92-.42-.92-.93s.41-.92.92-.92Z"/>
          <path d="M297.44,486.56h3.97c.52,0,.94.41.94.93,0,.52-.42.94-.94.94h-3.98c-.52,0-.93-.43-.93-.94s.42-.93.93-.93Z"/>
          <path d="M305.39,486.54h3.97c.53,0,.96.42.96.95,0,.53-.43.96-.95.96h-3.98c-.52,0-.95-.43-.95-.96,0-.52.42-.95.95-.95Z"/>
          <path d="M313.34,486.53h3.97c.54,0,.97.43.97.96,0,.54-.43.97-.97.97h-3.98c-.53,0-.96-.44-.96-.97,0-.53.43-.96.96-.96Z"/>
        </g>
      </g>
      <circle cx="39.82" cy="92.54" r="31.1" fill="#fff" stroke="#000" stroke-miterlimit="10" stroke-width="2"/>
      <circle cx="90.79" cy="92.54" r="31.1" fill="#fff" stroke="#000" stroke-miterlimit="10" stroke-width="2"/>
      <circle cx="141.76" cy="92.54" r="31.1" fill="#fff" stroke="#000" stroke-miterlimit="10" stroke-width="2"/>
      <circle cx="192.73" cy="92.54" r="31.1" fill="#fff" stroke="#000" stroke-miterlimit="10" stroke-width="2"/>
      <circle cx="243.7" cy="92.54" r="31.1" fill="#fff" stroke="#000" stroke-miterlimit="10" stroke-width="2"/>
      <circle cx="294.67" cy="92.54" r="31.1" fill="#fff" stroke="#000" stroke-miterlimit="10" stroke-width="2"/>
      <circle cx="345.64" cy="92.54" r="31.1" fill="#fff" stroke="#000" stroke-miterlimit="10" stroke-width="2"/>
    </g>
  </g>
</svg>