<?xml version="1.0" encoding="UTF-8"?>
<svg xmlns="http://www.w3.org/2000/svg" width="400" height="490" xmlns:xlink="http://www.w3.org/1999/xlink" viewBox="0 0 400 490">
  <defs>
    <pattern id="_10_lpi_70_" data-name="10 lpi 70%" x="0" y="0" width="72" height="72" patternTransform="translate(-2508.46 816.76) rotate(1.52) scale(.96 1.2) skewX(-.09)" patternUnits="userSpaceOnUse" viewBox="0 0 72 72">
      <g>
        <rect width="72" height="72" fill="none"/>
        <g>
          <line x1="71.75" y1="68.4" x2="144.25" y2="68.4" fill="none" stroke="#b0ffd2" stroke-width="5.04"/>
          <line x1="71.75" y1="54" x2="144.25" y2="54" fill="none" stroke="#b0ffd2" stroke-width="5.04"/>
          <line x1="71.75" y1="39.6" x2="144.25" y2="39.6" fill="none" stroke="#b0ffd2" stroke-width="5.04"/>
          <line x1="71.75" y1="25.2" x2="144.25" y2="25.2" fill="none" stroke="#b0ffd2" stroke-width="5.04"/>
          <line x1="71.75" y1="10.8" x2="144.25" y2="10.8" fill="none" stroke="#b0ffd2" stroke-width="5.04"/>
          <line x1="71.75" y1="61.2" x2="144.25" y2="61.2" fill="none" stroke="#b0ffd2" stroke-width="5.04"/>
          <line x1="71.75" y1="46.8" x2="144.25" y2="46.8" fill="none" stroke="#b0ffd2" stroke-width="5.04"/>
          <line x1="71.75" y1="32.4" x2="144.25" y2="32.4" fill="none" stroke="#b0ffd2" stroke-width="5.04"/>
          <line x1="71.75" y1="18" x2="144.25" y2="18" fill="none" stroke="#b0ffd2" stroke-width="5.04"/>
          <line x1="71.75" y1="3.6" x2="144.25" y2="3.6" fill="none" stroke="#b0ffd2" stroke-width="5.04"/>
        </g>
        <g>
          <line x1="-.25" y1="68.4" x2="72.25" y2="68.4" fill="none" stroke="#b0ffd2" stroke-width="5.04"/>
          <line x1="-.25" y1="54" x2="72.25" y2="54" fill="none" stroke="#b0ffd2" stroke-width="5.04"/>
          <line x1="-.25" y1="39.6" x2="72.25" y2="39.6" fill="none" stroke="#b0ffd2" stroke-width="5.04"/>
          <line x1="-.25" y1="25.2" x2="72.25" y2="25.2" fill="none" stroke="#b0ffd2" stroke-width="5.04"/>
          <line x1="-.25" y1="10.8" x2="72.25" y2="10.8" fill="none" stroke="#b0ffd2" stroke-width="5.04"/>
          <line x1="-.25" y1="61.2" x2="72.25" y2="61.2" fill="none" stroke="#b0ffd2" stroke-width="5.04"/>
          <line x1="-.25" y1="46.8" x2="72.25" y2="46.8" fill="none" stroke="#b0ffd2" stroke-width="5.04"/>
          <line x1="-.25" y1="32.4" x2="72.25" y2="32.4" fill="none" stroke="#b0ffd2" stroke-width="5.04"/>
          <line x1="-.25" y1="18" x2="72.25" y2="18" fill="none" stroke="#b0ffd2" stroke-width="5.04"/>
          <line x1="-.25" y1="3.6" x2="72.25" y2="3.6" fill="none" stroke="#b0ffd2" stroke-width="5.04"/>
        </g>
        <g>
          <line x1="-72.25" y1="68.4" x2=".25" y2="68.4" fill="none" stroke="#b0ffd2" stroke-width="5.04"/>
          <line x1="-72.25" y1="54" x2=".25" y2="54" fill="none" stroke="#b0ffd2" stroke-width="5.04"/>
          <line x1="-72.25" y1="39.6" x2=".25" y2="39.6" fill="none" stroke="#b0ffd2" stroke-width="5.04"/>
          <line x1="-72.25" y1="25.2" x2=".25" y2="25.2" fill="none" stroke="#b0ffd2" stroke-width="5.04"/>
          <line x1="-72.25" y1="10.8" x2=".25" y2="10.8" fill="none" stroke="#b0ffd2" stroke-width="5.04"/>
          <line x1="-72.25" y1="61.2" x2=".25" y2="61.2" fill="none" stroke="#b0ffd2" stroke-width="5.04"/>
          <line x1="-72.25" y1="46.8" x2=".25" y2="46.8" fill="none" stroke="#b0ffd2" stroke-width="5.04"/>
          <line x1="-72.25" y1="32.4" x2=".25" y2="32.4" fill="none" stroke="#b0ffd2" stroke-width="5.04"/>
          <line x1="-72.25" y1="18" x2=".25" y2="18" fill="none" stroke="#b0ffd2" stroke-width="5.04"/>
          <line x1="-72.25" y1="3.6" x2=".25" y2="3.6" fill="none" stroke="#b0ffd2" stroke-width="5.04"/>
        </g>
      </g>
    </pattern>
  </defs>
  <g isolation="isolate">
    <g id="_아이콘" data-name="아이콘">
      <g mix-blend-mode="multiply">
        <path d="M313.47,456.07c28.65,5.43,36.89,13.69,65.6,24.69,4.21,1.61,3.03,7.64-1.5,7.64H28.48c-4.57,0-5.72-6.12-1.44-7.67,27.85-10.09,55.72-17.94,83.62-23.42.27-.05.54-.08.81-.08l180.73-1.15c.28,0,21-.08,21.28-.02Z" fill="#fff"/>
        <path d="M313.47,456.07c28.65,5.43,36.89,13.69,65.6,24.69,4.21,1.61,3.03,7.65-1.5,7.65H28.48c-4.57,0-5.72-6.12-1.44-7.67,27.85-10.09,55.72-17.94,83.62-23.42.27-.05.54-.08.81-.08l180.73-1.15c.28,0,21-.08,21.28-.02Z" fill="none" stroke="#000" stroke-dasharray="4.02 4.02" stroke-linecap="round" stroke-linejoin="round" stroke-width="1.96"/>
      </g>
      <g>
        <path d="M400,329.96c-.02-7.3-2.16-25.9-4.66-32.7h.01c-4.17-13.83-11.82-32.53-20.36-50.27-32.65-79.96,13.6-140.68,13.6-140.68l-6.86.08c1.55-5.4,3.19-10.98,2.37-16.55C375,27.87,291.87,3.28,189.35,5.69,88.9,8.04,25.51,36.88,16.51,94.66c-.83,5.36.76,10.73,2.2,15.9l-3.46.04s43.29,58,12.65,135.56c-16.99,36.45-22.67,66.74-24.57,85.4h0c-.58,4.94-.52,9.93-.32,14.97,3.18,78.39,95.14,111.18,204,109.52,85.18.04,193.22-8.75,192.98-126.09Z" fill="#fff"/>
        <g>
          <path d="M395.95,299.17c-.2-.71-.4-1.35-.61-1.9h.01c-.19-.63-.38-1.26-.59-1.91" fill="none" stroke="#000" stroke-linecap="round" stroke-miterlimit="10" stroke-width="2"/>
          <path d="M393.52,291.52c-4.38-13.03-11.12-29.14-18.53-44.53-28.18-69.02,2.42-123.7,11.32-137.37" fill="none" stroke="#000" stroke-dasharray="4.03 4.03" stroke-linecap="round" stroke-miterlimit="10" stroke-width="2"/>
          <path d="M387.43,107.94c.74-1.07,1.16-1.63,1.16-1.63l-2,.02" fill="none" stroke="#000" stroke-linecap="round" stroke-miterlimit="10" stroke-width="2"/>
          <path d="M383.73,106.37l-2,.02c.18-.64.37-1.28.55-1.92" fill="none" stroke="#000" stroke-linecap="round" stroke-miterlimit="10" stroke-width="2"/>
          <path d="M383.3,100.58c.83-3.55,1.33-7.15.8-10.74C375,27.87,291.87,3.28,189.35,5.69,88.9,8.04,25.51,36.88,16.51,94.66c-.63,4.04.12,8.08,1.14,12.03" fill="none" stroke="#000" stroke-dasharray="4.02 4.02" stroke-linecap="round" stroke-miterlimit="10" stroke-width="2"/>
          <path d="M18.17,108.64c.18.65.36,1.29.54,1.93l-3.46.04s.42.56,1.14,1.64" fill="none" stroke="#000" stroke-linecap="round" stroke-miterlimit="10" stroke-width="2"/>
          <path d="M18.52,115.6c9.48,15.63,34.73,66.4,9.38,130.56-15.83,33.97-21.85,62.59-24.13,81.44" fill="none" stroke="#000" stroke-dasharray="3.98 3.98" stroke-linecap="round" stroke-miterlimit="10" stroke-width="2"/>
          <path d="M3.54,329.58c-.08.68-.15,1.34-.21,1.98h0c-.08.66-.14,1.33-.2,1.99" fill="none" stroke="#000" stroke-linecap="round" stroke-miterlimit="10" stroke-width="2"/>
          <path d="M2.92,337.55c-.09,2.98-.02,5.97.1,8.99,3.18,78.39,95.15,111.18,204,109.52,85.18.04,193.22-8.75,192.98-126.09-.01-6.19-1.56-20.51-3.55-28.86" fill="none" stroke="#000" stroke-dasharray="4 4" stroke-linecap="round" stroke-miterlimit="10" stroke-width="2"/>
        </g>
      </g>
      <path d="M376.78,112.91s-39.87,52.86-9.87,127.73c7.96,16.98,15.2,34.98,19.23,48.36h-.01c2.4,6.61,4.21,13.47,4.65,20.58,6.81,110.85-76.59,139.51-182.89,138.89-108.54-.63-200.67-42.19-196.02-116.33.32-5.17.53-10.31,1.5-15.35h0c3.33-18.94,18.36-46.34,30.3-84.72,23.32-74.97-13.86-122.43-13.86-122.43l346.98,3.28Z" fill="url(#_10_lpi_70_)"/>
      <g>
        <ellipse cx="34.84" cy="93.93" rx="33.59" ry="32.81" fill="#fff"/>
        <ellipse cx="34.84" cy="93.93" rx="33.59" ry="32.81" fill="none" stroke="#000" stroke-dasharray="4.01 4.01" stroke-linecap="round" stroke-miterlimit="10" stroke-width="2"/>
      </g>
      <g>
        <ellipse cx="89.9" cy="93.93" rx="33.59" ry="32.81" fill="#fff"/>
        <ellipse cx="89.9" cy="93.93" rx="33.59" ry="32.81" fill="none" stroke="#000" stroke-dasharray="4.01 4.01" stroke-linecap="round" stroke-miterlimit="10" stroke-width="2"/>
      </g>
      <g>
        <ellipse cx="144.95" cy="93.93" rx="33.59" ry="32.81" fill="#fff"/>
        <ellipse cx="144.95" cy="93.93" rx="33.59" ry="32.81" fill="none" stroke="#000" stroke-dasharray="4.01 4.01" stroke-linecap="round" stroke-miterlimit="10" stroke-width="2"/>
      </g>
      <g>
        <ellipse cx="200" cy="93.93" rx="33.59" ry="32.81" fill="#fff"/>
        <ellipse cx="200" cy="93.93" rx="33.59" ry="32.81" fill="none" stroke="#000" stroke-dasharray="4.01 4.01" stroke-linecap="round" stroke-miterlimit="10" stroke-width="2"/>
      </g>
      <g>
        <ellipse cx="255.05" cy="93.93" rx="33.59" ry="32.81" fill="#fff"/>
        <ellipse cx="255.05" cy="93.93" rx="33.59" ry="32.81" fill="none" stroke="#000" stroke-dasharray="4.01 4.01" stroke-linecap="round" stroke-miterlimit="10" stroke-width="2"/>
      </g>
      <g>
        <ellipse cx="310.1" cy="93.93" rx="33.59" ry="32.81" fill="#fff"/>
        <ellipse cx="310.1" cy="93.93" rx="33.59" ry="32.81" fill="none" stroke="#000" stroke-dasharray="4.01 4.01" stroke-linecap="round" stroke-miterlimit="10" stroke-width="2"/>
      </g>
      <g>
        <ellipse cx="365.16" cy="93.93" rx="33.59" ry="32.81" fill="#fff"/>
        <ellipse cx="365.16" cy="93.93" rx="33.59" ry="32.81" fill="none" stroke="#000" stroke-dasharray="4.01 4.01" stroke-linecap="round" stroke-miterlimit="10" stroke-width="2"/>
      </g>
    </g>
  </g>
</svg>