<?xml version="1.0" encoding="UTF-8"?>
<svg id="_우편함" data-name="우편함" xmlns="http://www.w3.org/2000/svg" width="400" height="490" xmlns:xlink="http://www.w3.org/1999/xlink" viewBox="0 0 400 490">
  <defs>
    <pattern id="_6_dpi_10_" data-name="6 dpi 10%" x="0" y="0" width="48" height="48" patternTransform="translate(-6917.84 -8273.37) scale(.22)" patternUnits="userSpaceOnUse" viewBox="0 0 48 48">
      <g>
        <rect width="48" height="48" fill="none"/>
        <g>
          <circle cx="24" cy="48" r="1.2" fill="#231815"/>
          <circle cx="48" cy="48" r="1.2" fill="#231815"/>
          <circle cx="24" cy="24" r="1.2" fill="#231815"/>
          <circle cx="48" cy="24" r="1.2" fill="#231815"/>
          <circle cx="36" cy="36" r="1.2" fill="#231815"/>
          <circle cx="12" cy="36" r="1.2" fill="#231815"/>
          <circle cx="36" cy="12" r="1.2" fill="#231815"/>
          <circle cx="12" cy="12" r="1.2" fill="#231815"/>
        </g>
        <g>
          <circle cx="0" cy="48" r="1.2" fill="#231815"/>
          <circle cx="0" cy="24" r="1.2" transform="translate(-23.69 20.16) rotate(-80.78)" fill="#231815"/>
        </g>
        <g>
          <circle cx="24" r="1.2" fill="#231815"/>
          <circle cx="48" r="1.2" fill="#231815"/>
        </g>
        <circle cx="0" r="1.2" transform="translate(0 0) rotate(-80.78)" fill="#231815"/>
      </g>
    </pattern>
    <pattern id="_10_lpi_70_" data-name="10 lpi 70%" x="0" y="0" width="72" height="72" patternTransform="translate(-1282.24 -159.51) scale(.96 1.1)" patternUnits="userSpaceOnUse" viewBox="0 0 72 72">
      <g>
        <rect width="72" height="72" fill="none"/>
        <g>
          <line x1="71.75" y1="68.4" x2="144.25" y2="68.4" fill="none" stroke="#b0ffd2" stroke-width="5.04"/>
          <line x1="71.75" y1="54" x2="144.25" y2="54" fill="none" stroke="#b0ffd2" stroke-width="5.04"/>
          <line x1="71.75" y1="39.6" x2="144.25" y2="39.6" fill="none" stroke="#b0ffd2" stroke-width="5.04"/>
          <line x1="71.75" y1="25.2" x2="144.25" y2="25.2" fill="none" stroke="#b0ffd2" stroke-width="5.04"/>
          <line x1="71.75" y1="10.8" x2="144.25" y2="10.8" fill="none" stroke="#b0ffd2" stroke-width="5.04"/>
          <line x1="71.75" y1="61.2" x2="144.25" y2="61.2" fill="none" stroke="#b0ffd2" stroke-width="5.04"/>
          <line x1="71.75" y1="46.8" x2="144.25" y2="46.8" fill="none" stroke="#b0ffd2" stroke-width="5.04"/>
          <line x1="71.75" y1="32.4" x2="144.25" y2="32.4" fill="none" stroke="#b0ffd2" stroke-width="5.04"/>
          <line x1="71.75" y1="18" x2="144.25" y2="18" fill="none" stroke="#b0ffd2" stroke-width="5.04"/>
          <line x1="71.75" y1="3.6" x2="144.25" y2="3.6" fill="none" stroke="#b0ffd2" stroke-width="5.04"/>
        </g>
        <g>
          <line x1="-.25" y1="68.4" x2="72.25" y2="68.4" fill="none" stroke="#b0ffd2" stroke-width="5.04"/>
          <line x1="-.25" y1="54" x2="72.25" y2="54" fill="none" stroke="#b0ffd2" stroke-width="5.04"/>
          <line x1="-.25" y1="39.6" x2="72.25" y2="39.6" fill="none" stroke="#b0ffd2" stroke-width="5.04"/>
          <line x1="-.25" y1="25.2" x2="72.25" y2="25.2" fill="none" stroke="#b0ffd2" stroke-width="5.04"/>
          <line x1="-.25" y1="10.8" x2="72.25" y2="10.8" fill="none" stroke="#b0ffd2" stroke-width="5.04"/>
          <line x1="-.25" y1="61.2" x2="72.25" y2="61.2" fill="none" stroke="#b0ffd2" stroke-width="5.04"/>
          <line x1="-.25" y1="46.8" x2="72.25" y2="46.8" fill="none" stroke="#b0ffd2" stroke-width="5.04"/>
          <line x1="-.25" y1="32.4" x2="72.25" y2="32.4" fill="none" stroke="#b0ffd2" stroke-width="5.04"/>
          <line x1="-.25" y1="18" x2="72.25" y2="18" fill="none" stroke="#b0ffd2" stroke-width="5.04"/>
          <line x1="-.25" y1="3.6" x2="72.25" y2="3.6" fill="none" stroke="#b0ffd2" stroke-width="5.04"/>
        </g>
        <g>
          <line x1="-72.25" y1="68.4" x2=".25" y2="68.4" fill="none" stroke="#b0ffd2" stroke-width="5.04"/>
          <line x1="-72.25" y1="54" x2=".25" y2="54" fill="none" stroke="#b0ffd2" stroke-width="5.04"/>
          <line x1="-72.25" y1="39.6" x2=".25" y2="39.6" fill="none" stroke="#b0ffd2" stroke-width="5.04"/>
          <line x1="-72.25" y1="25.2" x2=".25" y2="25.2" fill="none" stroke="#b0ffd2" stroke-width="5.04"/>
          <line x1="-72.25" y1="10.8" x2=".25" y2="10.8" fill="none" stroke="#b0ffd2" stroke-width="5.04"/>
          <line x1="-72.25" y1="61.2" x2=".25" y2="61.2" fill="none" stroke="#b0ffd2" stroke-width="5.04"/>
          <line x1="-72.25" y1="46.8" x2=".25" y2="46.8" fill="none" stroke="#b0ffd2" stroke-width="5.04"/>
          <line x1="-72.25" y1="32.4" x2=".25" y2="32.4" fill="none" stroke="#b0ffd2" stroke-width="5.04"/>
          <line x1="-72.25" y1="18" x2=".25" y2="18" fill="none" stroke="#b0ffd2" stroke-width="5.04"/>
          <line x1="-72.25" y1="3.6" x2=".25" y2="3.6" fill="none" stroke="#b0ffd2" stroke-width="5.04"/>
        </g>
      </g>
    </pattern>
    <pattern id="_10_dpi_20_" data-name="10 dpi 20%" x="0" y="0" width="28.8" height="28.8" patternTransform="translate(-7218.9 -8341.54) scale(.26)" patternUnits="userSpaceOnUse" viewBox="0 0 28.8 28.8">
      <g>
        <rect x="0" y="0" width="28.8" height="28.8" fill="none"/>
        <g>
          <path d="M28.8,30.24c.8,0,1.44-.64,1.44-1.44s-.64-1.44-1.44-1.44-1.44.64-1.44,1.44.64,1.44,1.44,1.44Z" fill="#231815"/>
          <path d="M14.4,30.24c.8,0,1.44-.64,1.44-1.44s-.65-1.44-1.44-1.44-1.44.64-1.44,1.44.64,1.44,1.44,1.44Z" fill="#231815"/>
          <path d="M28.8,15.84c.8,0,1.44-.65,1.44-1.44s-.64-1.44-1.44-1.44-1.44.64-1.44,1.44.64,1.44,1.44,1.44Z" fill="#231815"/>
          <path d="M14.4,15.84c.8,0,1.44-.65,1.44-1.44s-.65-1.44-1.44-1.44-1.44.64-1.44,1.44.64,1.44,1.44,1.44Z" fill="#231815"/>
          <path d="M7.2,23.04c.79,0,1.44-.64,1.44-1.44s-.65-1.44-1.44-1.44-1.44.64-1.44,1.44.64,1.44,1.44,1.44Z" fill="#231815"/>
          <path d="M21.6,23.04c.8,0,1.44-.64,1.44-1.44s-.65-1.44-1.44-1.44-1.44.64-1.44,1.44.64,1.44,1.44,1.44Z" fill="#231815"/>
          <path d="M7.2,8.64c.79,0,1.44-.64,1.44-1.44s-.65-1.44-1.44-1.44-1.44.64-1.44,1.44.64,1.44,1.44,1.44Z" fill="#231815"/>
          <path d="M21.6,8.64c.8,0,1.44-.64,1.44-1.44s-.65-1.44-1.44-1.44-1.44.64-1.44,1.44.64,1.44,1.44,1.44Z" fill="#231815"/>
        </g>
        <g>
          <path d="M0,30.24c.79,0,1.44-.64,1.44-1.44s-.64-1.44-1.44-1.44-1.44.64-1.44,1.44.64,1.44,1.44,1.44Z" fill="#231815"/>
          <path d="M0,15.84c.79,0,1.44-.65,1.44-1.44s-.64-1.44-1.44-1.44-1.44.64-1.44,1.44.64,1.44,1.44,1.44Z" fill="#231815"/>
        </g>
        <g>
          <path d="M28.8,1.44c.8,0,1.44-.64,1.44-1.44s-.64-1.44-1.44-1.44-1.44.64-1.44,1.44.64,1.44,1.44,1.44Z" fill="#231815"/>
          <path d="M14.4,1.44c.8,0,1.44-.64,1.44-1.44s-.65-1.44-1.44-1.44-1.44.64-1.44,1.44.64,1.44,1.44,1.44Z" fill="#231815"/>
        </g>
        <path d="M0,1.44c.79,0,1.44-.64,1.44-1.44S.79-1.44,0-1.44-1.44-.8-1.44,0-.8,1.44,0,1.44Z" fill="#231815"/>
      </g>
    </pattern>
  </defs>
  <path d="M375.09,251.32c-10.75-74.6-34.09-112.06-34.09-112.06-2.32-3.37-3.91-8.94-3.84-12.47.14-7.91,3.51-14.73,12.36-19.1,7.54-2.73,12.95-10.33,12.95-19.29,0-11.25-10.29-18.72-19.15-21.48-20.25-4.7-38.95,6.46-38.95,6.46-16.74,9.29-30.05,2.27-30.05,2.27-32.23-21.23-53.84-7.98-72.48-1.04-17.74,6.61-21.1-4.45-35.39-10.76-28.06-11.58-45.19,5.06-45.19,5.06,0,0-11.04,9.42-24.24,7.03-1.06-.19-2.72-.76-3.71-1.2-18.5-8.21-27.07-7.59-30.4-7.26-12.95,1.3-20.61,8.91-21.92,20.12-1.21,10.36,4.25,19.46,11.79,22.19,0,0,13.43,5.04,12.36,19.1-.34,4.49-1.37,8.66-3.69,12.03,0,0-25.06,33.29-34.31,102.79" fill="url(#_6_dpi_10_)"/>
  <g>
    <path d="M382.13,463.95l.84-3.92c.02-.11.13-.18.24-.16.11.02.18.13.16.24h0s-.85,3.92-.85,3.92c-.02.11-.13.18-.24.15-.11-.02-.18-.13-.15-.24Z" fill="#1b1b1b"/>
    <path d="M383.8,456.11l.8-3.93c.02-.11.13-.18.24-.16.11.02.18.13.16.24h0s-.8,3.93-.8,3.93c-.02.11-.13.18-.24.16-.11-.02-.18-.13-.16-.24Z" fill="#1b1b1b"/>
    <path d="M385.38,448.26l.76-3.93c.02-.11.13-.18.24-.16s.18.13.16.24h0s-.76,3.94-.76,3.94c-.02.11-.13.18-.24.16-.11-.02-.18-.13-.16-.24Z" fill="#1b1b1b"/>
    <path d="M386.87,440.38l.71-3.94c.02-.11.13-.19.24-.17.11.02.19.13.17.24h0s-.71,3.95-.71,3.95c-.02.11-.13.19-.24.17-.11-.02-.19-.13-.17-.24Z" fill="#1b1b1b"/>
    <path d="M388.27,432.49l.66-3.95c.02-.11.13-.19.24-.17.11.02.19.13.17.24h0s-.67,3.95-.67,3.95c-.02.11-.13.19-.24.17s-.19-.13-.17-.24Z" fill="#1b1b1b"/>
    <path d="M389.57,424.59l.62-3.96c.02-.12.12-.19.24-.18.12.02.19.12.18.24h0s-.62,3.96-.62,3.96c-.02.11-.13.19-.24.18-.11-.02-.19-.13-.18-.24Z" fill="#1b1b1b"/>
    <path d="M390.78,416.67l.57-3.97c.02-.12.12-.2.24-.18.12.02.2.12.18.24h0s-.57,3.97-.57,3.97c-.02.12-.12.2-.24.18s-.2-.13-.18-.24Z" fill="#1b1b1b"/>
    <path d="M391.89,408.73l.52-3.97c.01-.12.12-.2.24-.19s.2.12.19.24h0s-.52,3.98-.52,3.98c-.02.12-.12.2-.24.18-.12-.02-.2-.12-.18-.24Z" fill="#1b1b1b"/>
    <path d="M392.9,400.78l.47-3.98c.01-.12.12-.21.24-.19s.21.12.19.24h0s-.47,3.98-.47,3.98c-.01.12-.12.2-.24.19-.12-.01-.2-.12-.19-.24Z" fill="#1b1b1b"/>
    <path d="M393.81,392.82l.42-3.98c.01-.12.12-.21.24-.2.12.01.21.12.2.24h0s-.42,3.99-.42,3.99c-.01.12-.12.21-.24.19-.12-.01-.21-.12-.19-.24Z" fill="#1b1b1b"/>
    <path d="M394.61,384.85l.36-3.99c.01-.12.12-.21.24-.2.12.01.21.12.2.24h0s-.37,3.99-.37,3.99c-.01.12-.12.21-.24.2-.12-.01-.21-.12-.2-.24Z" fill="#1b1b1b"/>
    <path d="M395.32,376.87l.31-3.99c0-.12.12-.22.24-.21.12,0,.22.12.21.24h0s-.31,4-.31,4c0,.12-.12.21-.24.2s-.21-.12-.2-.24Z" fill="#1b1b1b"/>
    <path d="M395.91,368.88l.26-4c0-.12.11-.22.24-.21.12,0,.22.11.21.24h0s-.26,4-.26,4c0,.12-.11.22-.24.21s-.22-.12-.21-.24Z" fill="#1b1b1b"/>
    <path d="M396.4,360.89l.2-4c0-.13.11-.22.24-.22.13,0,.22.11.22.24h0s-.21,4.01-.21,4.01c0,.12-.11.22-.24.21-.12,0-.22-.11-.21-.24Z" fill="#1b1b1b"/>
    <path d="M396.78,352.88l.15-4c0-.13.11-.23.24-.22.13,0,.23.11.22.24h0s-.15,4.01-.15,4.01c0,.13-.11.22-.24.22s-.22-.11-.22-.24Z" fill="#1b1b1b"/>
    <path d="M397.05,344.88l.09-4c0-.13.11-.23.23-.23.13,0,.23.11.23.23h0s-.09,4.01-.09,4.01c0,.13-.11.23-.24.22-.13,0-.23-.11-.22-.24Z" fill="#1b1b1b"/>
    <path d="M397.2,336.87l.03-4.01c0-.13.1-.23.23-.23.13,0,.23.1.23.23h0s-.03,4.01-.03,4.01c0,.13-.11.23-.23.23-.13,0-.23-.11-.23-.24Z" fill="#1b1b1b"/>
    <path d="M397.23,328.86l-.03-4.01c0-.13.1-.24.23-.24.13,0,.24.1.24.23h0s.02,4.01.02,4.01c0,.13-.1.23-.23.24-.13,0-.23-.1-.24-.23Z" fill="#1b1b1b"/>
    <path d="M397.15,320.85l-.09-4c0-.13.1-.24.23-.24.13,0,.24.1.24.23h0s.08,4.01.08,4.01c0,.13-.1.24-.23.24s-.24-.1-.24-.23Z" fill="#1b1b1b"/>
    <path d="M396.95,312.84l-.15-4c0-.13.1-.24.23-.25.13,0,.24.1.25.23h0s.14,4.01.14,4.01c0,.13-.1.24-.23.25-.13,0-.24-.1-.25-.23Z" fill="#1b1b1b"/>
    <path d="M396.62,304.83l-.21-4c0-.13.09-.25.23-.26.13,0,.25.09.26.23h0s.21,4.01.21,4.01c0,.13-.09.25-.23.25-.13,0-.25-.1-.25-.23Z" fill="#1b1b1b"/>
    <path d="M396.18,296.83l-.27-4c-.01-.13.09-.25.22-.26.13-.01.25.09.26.22h0s.27,4,.27,4c0,.13-.09.25-.23.26s-.25-.09-.26-.23Z" fill="#1b1b1b"/>
    <path d="M395.6,288.84l-.34-3.99c-.01-.13.09-.25.22-.27.14-.01.25.09.27.22h0s.33,4,.33,4c.01.13-.09.25-.22.26-.13.01-.25-.09-.26-.22Z" fill="#1b1b1b"/>
    <path d="M394.9,280.86l-.4-3.99c-.01-.14.08-.26.22-.27.14-.01.26.08.27.22h0s.4,3.99.4,3.99c.01.14-.09.26-.22.27-.14.01-.26-.09-.27-.22Z" fill="#1b1b1b"/>
    <path d="M394.06,272.9l-.47-3.98c-.02-.14.08-.26.22-.28.14-.02.26.08.28.22h0s.47,3.98.47,3.98c.02.14-.08.26-.22.28s-.26-.08-.28-.22Z" fill="#1b1b1b"/>
    <path d="M393.1,264.94l-.53-3.97c-.02-.14.08-.26.21-.28.14-.02.26.08.28.21h0s.53,3.98.53,3.98c.02.14-.08.26-.21.28-.14.02-.26-.08-.28-.22Z" fill="#1b1b1b"/>
    <path d="M392,257.01l-.6-3.96c-.02-.14.07-.27.21-.29.14-.02.27.07.29.21h0s.6,3.97.6,3.97c.02.14-.07.27-.21.29-.14.02-.27-.08-.29-.21Z" fill="#1b1b1b"/>
    <path d="M390.76,249.1l-.67-3.95c-.02-.14.07-.27.21-.3.14-.02.27.07.3.21h0s.67,3.96.67,3.96c.02.14-.07.27-.21.29s-.27-.07-.29-.21Z" fill="#1b1b1b"/>
    <path d="M389.38,241.21l-.74-3.94c-.03-.14.06-.27.2-.3.14-.03.27.06.3.2h0s.74,3.94.74,3.94c.03.14-.07.27-.2.3-.14.03-.27-.07-.3-.21Z" fill="#1b1b1b"/>
    <path d="M387.85,233.34l-.82-3.92c-.03-.14.06-.28.2-.31.14-.03.28.06.31.2h0s.82,3.93.82,3.93c.03.14-.06.28-.2.31s-.28-.06-.31-.2Z" fill="#1b1b1b"/>
    <path d="M386.18,225.51l-.89-3.91c-.03-.14.05-.28.19-.31s.28.05.31.19h0s.89,3.91.89,3.91c.03.14-.06.28-.2.31-.14.03-.28-.06-.31-.2Z" fill="#1b1b1b"/>
    <path d="M384.36,217.71l-.97-3.89c-.04-.14.05-.28.19-.32.14-.04.28.05.32.19h0s.97,3.89.97,3.89c.03.14-.05.28-.19.32s-.28-.05-.32-.19Z" fill="#1b1b1b"/>
    <path d="M382.39,209.94l-1.04-3.87c-.04-.14.04-.29.18-.33.14-.04.29.04.33.18h0s1.04,3.88,1.04,3.88c.04.14-.05.29-.19.32-.14.04-.29-.05-.32-.19Z" fill="#1b1b1b"/>
    <path d="M380.27,202.22l-1.12-3.84c-.04-.14.04-.29.18-.33.14-.04.29.04.33.18h0s1.12,3.85,1.12,3.85c.04.14-.04.29-.18.33-.14.04-.29-.04-.33-.18Z" fill="#1b1b1b"/>
    <path d="M377.98,194.54l-1.21-3.82c-.05-.14.03-.29.17-.34s.29.03.34.17h0s1.21,3.83,1.21,3.83c.04.14-.03.29-.18.34-.14.04-.29-.04-.34-.18Z" fill="#1b1b1b"/>
    <path d="M375.52,186.92l-1.29-3.79c-.05-.14.02-.3.17-.35.14-.05.3.02.35.17h0s1.29,3.8,1.29,3.8c.05.14-.03.29-.17.34s-.3-.03-.34-.17Z" fill="#1b1b1b"/>
    <path d="M372.89,179.35l-1.38-3.76c-.05-.14.02-.3.16-.35.14-.05.3.02.35.16h0s1.38,3.77,1.38,3.77c.05.14-.02.3-.16.35-.14.05-.3-.02-.35-.17Z" fill="#1b1b1b"/>
    <path d="M370.09,171.86l-1.47-3.72c-.06-.14,0-.3.15-.36s.3,0,.36.15h0s1.47,3.73,1.47,3.73c.06.14-.01.3-.15.36-.14.06-.3-.02-.36-.16Z" fill="#1b1b1b"/>
    <path d="M367.09,164.43l-1.57-3.68c-.06-.14,0-.3.14-.37.14-.06.3,0,.37.14h0s1.58,3.69,1.58,3.69c.06.14,0,.3-.15.36-.14.06-.3,0-.36-.15Z" fill="#1b1b1b"/>
    <path d="M363.89,157.09l-1.68-3.63c-.07-.14,0-.31.13-.37s.31,0,.37.13h0s1.69,3.65,1.69,3.65c.06.14,0,.3-.14.37-.14.06-.31,0-.37-.14Z" fill="#1b1b1b"/>
    <path d="M360.46,149.86l-1.81-3.57h0c-.07-.14-.01-.31.12-.38.14-.07.31-.01.38.12l1.81,3.58c.07.14.01.31-.12.38-.14.07-.31.01-.38-.12h0Z" fill="#1b1b1b"/>
    <path d="M356.77,142.76l-1.98-3.48h0c-.08-.14-.03-.32.11-.39.14-.08.31-.03.39.11h0s1.98,3.49,1.98,3.49c.08.14.03.31-.11.39-.14.08-.31.03-.39-.11h0Z" fill="#1b1b1b"/>
    <path d="M352.7,135.85c-.64-1.19-1.18-2.44-1.63-3.7-.05-.15.02-.31.17-.36.15-.05.31.02.37.17h0c.45,1.25.97,2.47,1.59,3.63.07.14.02.31-.11.39s-.31.02-.39-.12Z" fill="#1b1b1b"/>
    <path d="M349.95,128.26c-.29-1.32-.49-2.66-.55-4.02,0-.16.12-.29.28-.3s.29.12.3.28h0c.05,1.31.25,2.63.53,3.92.03.15-.06.31-.22.34-.15.03-.31-.06-.34-.22Z" fill="#1b1b1b"/>
    <path d="M349.63,120.2c.17-1.34.45-2.67.83-3.96.05-.15.21-.24.36-.19s.24.21.19.36c-.38,1.26-.65,2.56-.82,3.87-.02.16-.17.27-.32.25s-.27-.17-.25-.32Z" fill="#1b1b1b"/>
    <path d="M351.98,112.47c.62-1.2,1.36-2.35,2.2-3.41.1-.13.28-.15.41-.05s.15.28.05.41h0c-.82,1.03-1.54,2.14-2.14,3.31-.07.14-.25.2-.39.12-.14-.07-.2-.25-.12-.39Z" fill="#1b1b1b"/>
    <path d="M356.98,106.13c1.02-.89,2.1-1.7,3.24-2.43.14-.09.32-.05.41.09.09.14.05.32-.09.41h0c-1.11.71-2.18,1.5-3.17,2.37-.12.11-.31.09-.41-.03-.11-.12-.09-.31.03-.41Z" fill="#1b1b1b"/>
    <path d="M363.8,101.79c1.22-.48,2.4-1.09,3.51-1.8.14-.09.32-.05.41.09s.05.32-.09.41h0c-1.14.73-2.35,1.35-3.61,1.85-.15.06-.32-.01-.38-.17-.06-.15.01-.32.17-.38Z" fill="#1b1b1b"/>
    <path d="M370.41,97.56c.96-.91,1.83-1.9,2.61-2.96.1-.13.28-.16.42-.06.13.1.16.28.06.42h0c-.8,1.09-1.7,2.11-2.68,3.04-.12.11-.31.11-.42-.01-.11-.12-.11-.31.01-.42Z" fill="#1b1b1b"/>
    <path d="M375.07,91.21c.58-1.18,1.06-2.42,1.43-3.68.05-.16.21-.25.37-.2.16.05.25.21.2.37-.38,1.3-.87,2.56-1.47,3.78-.07.15-.25.21-.4.14s-.21-.25-.14-.4Z" fill="#1b1b1b"/>
    <path d="M377.29,83.66c.08-.66.13-1.31.15-1.97.03-.66,0-1.32-.02-1.98v-.02c0-.17.13-.3.29-.31s.3.13.31.29c.02.68.05,1.36.01,2.03-.02.68-.08,1.35-.16,2.02-.02.16-.17.28-.33.26s-.28-.17-.26-.33Z" fill="#1b1b1b"/>
    <path d="M376.81,75.82c-.34-1.27-.8-2.51-1.38-3.69-.07-.15-.01-.33.14-.41.15-.07.33-.01.41.14h0c.6,1.22,1.08,2.49,1.42,3.8.04.16-.05.33-.22.37-.16.04-.33-.05-.37-.22Z" fill="#1b1b1b"/>
    <path d="M373.38,68.75c-.78-1.06-1.65-2.07-2.58-3-.12-.12-.12-.31,0-.43.12-.12.31-.12.43,0,.95.96,1.84,1.98,2.64,3.07.1.14.07.33-.07.43-.14.1-.33.07-.43-.07Z" fill="#1b1b1b"/>
    <path d="M367.83,63.13c-1.05-.81-2.14-1.56-3.28-2.24-.15-.09-.19-.28-.1-.42.09-.15.28-.19.42-.1h0c1.15.7,2.27,1.46,3.34,2.28.13.1.16.3.06.43-.1.13-.3.16-.43.05Z" fill="#1b1b1b"/>
    <path d="M361.04,59.02c-1.2-.56-2.43-1.06-3.69-1.49-.16-.06-.25-.23-.19-.39.06-.16.23-.25.39-.19h0c1.27.44,2.53.94,3.75,1.51.15.07.22.26.15.41-.07.15-.26.22-.41.15Z" fill="#1b1b1b"/>
    <path d="M353.5,56.65c-1.31-.22-2.63-.38-3.95-.5-.17-.01-.3-.17-.28-.34.01-.17.17-.3.34-.28h0c1.34.11,2.67.28,4,.5.17.03.28.19.26.36-.03.17-.19.28-.36.25Z" fill="#1b1b1b"/>
    <path d="M345.57,55.97c-1.33-.01-2.66.02-3.98.11-.17.01-.32-.12-.33-.29-.01-.17.12-.32.29-.33h0c1.34-.08,2.68-.12,4.03-.11.17,0,.31.14.31.32s-.14.31-.32.31Z" fill="#1b1b1b"/>
    <path d="M337.62,56.46c-1.32.17-2.63.39-3.94.64-.17.03-.34-.08-.37-.25-.03-.17.08-.34.25-.37,1.32-.26,2.64-.47,3.97-.64.17-.02.33.1.35.27.02.17-.1.33-.27.35Z" fill="#1b1b1b"/>
    <path d="M329.8,57.97c-1.29.33-2.57.7-3.83,1.1-.17.05-.35-.04-.4-.21-.05-.17.04-.35.21-.4h0c1.28-.4,2.57-.77,3.87-1.11.17-.04.34.06.39.23.04.17-.06.34-.23.39Z" fill="#1b1b1b"/>
    <path d="M322.19,60.38c-1.24.47-2.48.97-3.69,1.51-.16.07-.35,0-.42-.16s0-.35.16-.42h0c1.23-.54,2.47-1.05,3.72-1.53.16-.06.35.02.41.19s-.02.35-.19.41Z" fill="#1b1b1b"/>
    <path d="M314.91,63.62c-1.15.64-2.34,1.27-3.54,1.89-.16.08-.35.02-.43-.14-.08-.16-.02-.35.14-.43h.01c1.17-.62,2.34-1.23,3.53-1.89.15-.09.35-.03.44.12.09.15.03.35-.12.44h-.02Z" fill="#1b1b1b"/>
    <path d="M307.67,67.13c-1.26.48-2.54.91-3.83,1.26-.17.05-.35-.05-.4-.23-.05-.17.05-.35.23-.4h0c1.28-.35,2.54-.77,3.78-1.24.17-.06.35.02.42.19.06.17-.02.35-.19.42Z" fill="#1b1b1b"/>
    <path d="M299.89,69.27c-1.33.22-2.67.38-4.01.46-.18.01-.33-.13-.34-.31s.13-.33.31-.34h0c1.32-.08,2.64-.23,3.95-.45.18-.03.34.09.37.27s-.09.34-.27.37Z" fill="#1b1b1b"/>
    <path d="M291.83,69.75c-1.35-.07-2.69-.21-4.02-.43-.18-.03-.3-.2-.27-.38.03-.18.2-.3.38-.27h0c1.31.21,2.62.35,3.95.42.18,0,.32.16.31.34s-.16.32-.34.31Z" fill="#1b1b1b"/>
    <path d="M283.87,68.44c-1.3-.38-2.57-.82-3.81-1.41-.16-.08-.23-.27-.16-.44.08-.16.27-.23.44-.16h0c1.18.56,2.44,1,3.7,1.37.17.05.28.23.23.41-.05.17-.23.27-.41.23Z" fill="#1b1b1b"/>
    <path d="M276.64,64.89l-3.45-2h-.01c-.16-.1-.21-.3-.12-.46s.29-.21.45-.12h0l3.48,2.02c.16.09.21.29.12.45-.09.16-.29.21-.45.12h-.01Z" fill="#1b1b1b"/>
    <path d="M269.64,61.03l-3.62-1.67h-.02c-.17-.08-.24-.28-.16-.45s.28-.24.44-.16l3.65,1.69c.17.08.24.27.16.44-.08.17-.27.24-.44.16h-.02Z" fill="#1b1b1b"/>
    <path d="M262.31,57.89c-1.25-.46-2.51-.88-3.78-1.26-.18-.05-.28-.24-.23-.42.05-.18.24-.28.42-.23h0c1.29.38,2.56.81,3.82,1.27.17.06.26.26.2.43s-.26.26-.43.2Z" fill="#1b1b1b"/>
    <path d="M254.67,55.62c-1.29-.3-2.6-.55-3.91-.76-.18-.03-.31-.2-.28-.39s.2-.31.39-.28h0c1.33.21,2.65.47,3.96.77.18.04.29.22.25.4-.04.18-.22.29-.4.25Z" fill="#1b1b1b"/>
    <path d="M246.81,54.37c-1.32-.12-2.65-.19-3.98-.21-.19,0-.34-.16-.33-.35s.16-.34.35-.33h0c1.34.02,2.69.09,4.02.21.19.02.32.18.31.37-.02.19-.18.32-.37.31Z" fill="#1b1b1b"/>
    <path d="M238.85,54.23c-1.33.07-2.65.18-3.97.34-.19.02-.36-.11-.38-.3-.02-.19.11-.36.3-.38h0c1.33-.16,2.67-.27,4.01-.34.19,0,.35.13.36.32,0,.19-.13.35-.32.36Z" fill="#1b1b1b"/>
    <path d="M230.94,55.17c-1.31.24-2.61.52-3.9.83-.18.04-.37-.07-.41-.25s.07-.37.25-.41h0c1.3-.31,2.62-.59,3.94-.83.19-.03.36.09.4.28s-.09.36-.28.4Z" fill="#1b1b1b"/>
    <path d="M223.18,57.03l-3.81,1.2h-.01c-.18.06-.38-.04-.43-.22-.06-.18.04-.38.23-.43h0l3.84-1.21c.18-.06.38.04.43.23s-.04.38-.23.43h-.01Z" fill="#1b1b1b"/>
    <path d="M215.61,59.57l-3.73,1.43h0c-.18.07-.38-.02-.45-.2-.07-.18.02-.38.2-.45h0s3.75-1.44,3.75-1.44c.18-.07.38.02.45.2.07.18-.02.38-.2.45h0Z" fill="#1b1b1b"/>
    <path d="M208.16,62.49l-3.72,1.5c-.18.07-.38-.01-.46-.19-.07-.18.01-.38.19-.46h0s3.71-1.5,3.71-1.5c.18-.07.38.01.45.19.07.18-.01.38-.19.45Z" fill="#1b1b1b"/>
    <path d="M200.7,65.46c-1.25.48-2.52.94-3.81,1.32-.19.06-.38-.05-.44-.24-.06-.19.05-.38.24-.44h0c1.27-.38,2.51-.83,3.76-1.31.18-.07.38.02.45.2.07.18-.02.38-.2.45Z" fill="#1b1b1b"/>
    <path d="M192.96,67.73c-1.33.23-2.69.37-4.04.37-.2,0-.35-.16-.36-.35,0-.2.16-.35.35-.36h0c1.31,0,2.63-.14,3.93-.36.19-.03.37.1.41.29s-.1.37-.29.41Z" fill="#1b1b1b"/>
    <path d="M184.86,67.71c-1.33-.27-2.63-.7-3.88-1.23-.18-.08-.26-.29-.19-.47.08-.18.29-.26.47-.19h0c1.21.52,2.46.93,3.74,1.19.19.04.32.23.28.42-.04.19-.23.32-.42.28Z" fill="#1b1b1b"/>
    <path d="M177.39,64.6c-1.15-.7-2.26-1.46-3.36-2.23-.16-.11-.2-.34-.09-.5.11-.16.34-.2.5-.09h0c1.09.77,2.19,1.52,3.32,2.21.17.1.22.32.12.49-.1.17-.32.22-.49.12Z" fill="#1b1b1b"/>
    <path d="M170.77,60.04l-3.3-2.25h-.01c-.16-.12-.21-.34-.09-.51.11-.16.34-.21.5-.09h0l3.32,2.27c.16.11.21.33.09.5-.11.16-.33.21-.5.09h-.01Z" fill="#1b1b1b"/>
    <path d="M164.06,55.74c-1.16-.64-2.35-1.24-3.56-1.78-.18-.08-.26-.3-.18-.48.08-.18.3-.26.48-.18h0c1.23.55,2.43,1.16,3.61,1.81.17.1.24.32.14.49-.1.17-.32.24-.49.14Z" fill="#1b1b1b"/>
    <path d="M156.79,52.53c-1.25-.44-2.52-.84-3.8-1.19-.19-.05-.31-.25-.25-.45s.25-.31.45-.25h0c1.29.36,2.58.77,3.84,1.21.19.07.29.27.22.46-.07.19-.27.29-.46.22Z" fill="#1b1b1b"/>
    <path d="M149.12,50.4c-1.3-.27-2.61-.49-3.93-.65-.2-.03-.34-.21-.32-.41.03-.2.21-.34.41-.32h0c1.33.17,2.66.4,3.98.67.2.04.32.23.28.43-.04.2-.23.32-.43.28Z" fill="#1b1b1b"/>
    <path d="M141.23,49.4c-1.32-.06-2.65-.08-3.98-.03-.2,0-.37-.15-.38-.35,0-.2.15-.37.36-.38h0c1.35-.04,2.69-.03,4.04.03.2.01.36.18.35.38-.01.2-.18.36-.38.35Z" fill="#1b1b1b"/>
    <path d="M133.29,49.67c-1.32.16-2.62.37-3.92.65-.2.04-.4-.09-.44-.29-.04-.2.09-.4.29-.44,1.32-.28,2.65-.49,3.99-.65.2-.02.39.12.41.32.02.2-.12.39-.32.41Z" fill="#1b1b1b"/>
    <path d="M125.52,51.3c-1.27.39-2.52.83-3.75,1.33-.19.08-.41-.01-.48-.2-.08-.19.01-.41.2-.48h0c1.25-.51,2.52-.95,3.81-1.35.2-.06.4.05.46.25s-.05.4-.25.46Z" fill="#1b1b1b"/>
    <path d="M118.17,54.28c-1.18.61-2.33,1.27-3.44,1.98-.17.11-.41.06-.52-.11-.11-.17-.06-.4.11-.52h0c1.14-.73,2.31-1.4,3.5-2.02.18-.09.41-.02.5.16.09.18.02.41-.16.5Z" fill="#1b1b1b"/>
    <path d="M111.51,58.59c-.25.21-.51.42-.75.64l-.18.16c-.09.09-.14.12-.21.18l-.4.32c-.54.41-1.08.81-1.64,1.19-.17.12-.41.07-.52-.1-.12-.17-.07-.41.1-.52h0c.55-.37,1.08-.76,1.6-1.16l.39-.31c.06-.05.14-.11.17-.14l.19-.18c.25-.23.51-.45.77-.66.16-.13.4-.11.53.05.13.16.11.4-.05.53Z" fill="#1b1b1b"/>
    <path d="M104.89,63.19c-1.18.65-2.39,1.24-3.63,1.77-.19.08-.41,0-.5-.2-.08-.19,0-.41.2-.5h0c1.22-.52,2.41-1.1,3.57-1.74.18-.1.41-.03.51.15.1.18.03.41-.15.51Z" fill="#1b1b1b"/>
    <path d="M97.46,66.35c-1.29.39-2.61.72-3.94.95-.21.04-.4-.1-.44-.31-.04-.21.1-.4.31-.44h0c1.3-.23,2.58-.55,3.85-.93.2-.06.41.05.47.25s-.05.41-.25.47Z" fill="#1b1b1b"/>
    <path d="M89.49,67.75c-1.35.06-2.71.02-4.06-.12-.21-.02-.36-.21-.34-.42.02-.21.21-.36.42-.34h0c1.31.13,2.63.17,3.95.11.21,0,.39.15.4.36,0,.21-.15.39-.36.4Z" fill="#1b1b1b"/>
    <path d="M81.43,66.84c-1.3-.4-2.55-.97-3.75-1.5h0c-.19-.09-.28-.31-.2-.51.09-.19.31-.28.51-.2,1.24.55,2.42,1.09,3.68,1.48.2.06.32.28.25.48s-.28.32-.48.25h0Z" fill="#1b1b1b"/>
    <path d="M73.99,63.8l-3.73-1.43h-.01c-.2-.08-.3-.3-.22-.5.08-.2.3-.3.5-.22h0s3.75,1.44,3.75,1.44c.2.08.3.3.22.5-.08.2-.3.3-.5.22h-.01Z" fill="#1b1b1b"/>
    <path d="M66.48,61.07l-3.82-1.15h-.02c-.21-.07-.32-.28-.26-.49s.28-.32.48-.26l3.85,1.16c.2.06.32.28.26.48-.06.2-.28.32-.48.26h-.02Z" fill="#1b1b1b"/>
    <path d="M58.79,58.95c-1.3-.28-2.6-.53-3.91-.72-.21-.03-.36-.23-.33-.44.03-.21.23-.36.44-.33h0c1.33.2,2.65.44,3.97.73.21.05.34.25.3.46-.05.21-.25.34-.46.3Z" fill="#1b1b1b"/>
    <path d="M50.93,57.83c-1.32-.07-2.64-.07-3.96.02-.22.01-.4-.15-.42-.36-.01-.22.15-.4.36-.42h0c1.35-.09,2.71-.09,4.05-.01.22.01.38.2.37.41-.01.22-.2.38-.41.37Z" fill="#1b1b1b"/>
    <path d="M43.03,58.31c-1.3.22-2.59.51-3.86.89-.21.06-.43-.06-.49-.27-.06-.21.06-.43.27-.49h0c1.3-.38,2.62-.68,3.95-.9.21-.04.42.11.45.32.04.21-.11.42-.32.45Z" fill="#1b1b1b"/>
    <path d="M35.46,60.56c-1.2.54-2.36,1.17-3.46,1.89-.18.12-.43.07-.55-.11s-.07-.43.11-.55h0c1.14-.74,2.33-1.39,3.57-1.95.2-.09.43,0,.52.2.09.2,0,.43-.2.52Z" fill="#1b1b1b"/>
    <path d="M28.91,64.88c-.96.9-1.83,1.88-2.62,2.93-.13.18-.38.21-.56.08s-.21-.38-.08-.56h0c.81-1.09,1.72-2.11,2.71-3.04.16-.15.41-.14.56.02.15.16.14.41-.02.56Z" fill="#1b1b1b"/>
    <path d="M24.24,71.17c-.59,1.18-1.07,2.4-1.46,3.66-.07.21-.29.33-.5.26-.21-.07-.33-.29-.26-.5h0c.4-1.29.91-2.56,1.51-3.78.1-.2.34-.28.54-.18.2.1.28.34.18.53Z" fill="#1b1b1b"/>
    <path d="M21.88,78.67c-.2,1.3-.34,2.61-.36,3.93,0,.22-.19.4-.41.4-.22,0-.4-.19-.4-.41h0s0,0,0,0c.02-1.36.17-2.71.37-4.04.03-.22.24-.37.46-.34.22.03.37.24.34.46h0Z" fill="#1b1b1b"/>
    <path d="M21.74,86.54c.17,1.3.44,2.6.81,3.86.06.22-.06.45-.28.51s-.45-.06-.51-.28h0c-.38-1.3-.66-2.64-.83-3.98-.03-.22.13-.43.35-.46.22-.03.43.13.46.35Z" fill="#1b1b1b"/>
    <path d="M23.96,94.07c.57,1.18,1.23,2.32,1.99,3.39.13.19.09.45-.1.58-.19.13-.45.09-.58-.1h0c-.79-1.11-1.48-2.29-2.06-3.52-.1-.21-.01-.45.2-.55s.45-.01.55.2Z" fill="#1b1b1b"/>
    <path d="M28.52,100.42c.95.9,1.99,1.71,3.1,2.38.2.12.26.38.14.58s-.38.26-.58.14h0c-1.17-.71-2.25-1.56-3.24-2.5-.17-.16-.17-.43-.01-.6.16-.17.43-.17.59-.01Z" fill="#1b1b1b"/>
    <path d="M35.19,104.49c1.24.57,2.42,1.24,3.55,2,.2.13.25.4.12.6-.13.2-.4.25-.6.12h0c-1.09-.73-2.24-1.39-3.42-1.93-.22-.1-.31-.35-.21-.56.1-.21.35-.31.57-.21Z" fill="#1b1b1b"/>
    <path d="M41.94,109.01c.99.93,1.91,1.94,2.72,3.04.14.19.1.47-.09.61s-.47.1-.61-.09h0c-.78-1.05-1.66-2.03-2.62-2.92-.17-.16-.18-.44-.02-.61.16-.17.44-.18.61-.02Z" fill="#1b1b1b"/>
    <path d="M46.76,115.56c.58,1.24,1.02,2.54,1.33,3.87.05.24-.09.47-.33.53-.24.05-.47-.09-.53-.33h0c-.29-1.27-.71-2.52-1.26-3.7-.1-.22,0-.48.21-.58.22-.1.48,0,.58.21Z" fill="#1b1b1b"/>
    <path d="M48.59,123.49c.05,1.37-.08,2.72-.22,4.06-.02.25-.24.43-.49.4-.25-.02-.43-.24-.4-.49h0s0-.01,0-.01c.13-1.32.27-2.63.22-3.94,0-.25.18-.45.43-.46s.45.18.46.43h0Z" fill="#1b1b1b"/>
    <path d="M47.7,131.55c-.3,1.32-.7,2.63-1.2,3.89-.09.23-.36.35-.59.25-.23-.09-.35-.36-.25-.59h0c.49-1.22.87-2.48,1.17-3.76.06-.24.3-.39.54-.34.24.06.39.3.34.54Z" fill="#1b1b1b"/>
    <path d="M44.63,139.08c-.38.55-.71,1.11-1.06,1.68l-1.01,1.72h0c-.13.23-.41.3-.63.17-.22-.13-.29-.41-.16-.63h0s1.02-1.73,1.02-1.73c.35-.57.71-1.16,1.08-1.7v-.02c.15-.21.44-.26.65-.12s.26.43.12.63Z" fill="#1b1b1b"/>
    <path d="M40.62,145.97l-1.85,3.54h0c-.12.24-.4.33-.63.21-.23-.12-.32-.4-.2-.63h0s1.86-3.56,1.86-3.56c.12-.23.4-.31.63-.2s.31.4.2.63h0Z" fill="#1b1b1b"/>
    <path d="M36.99,153.1l-1.71,3.62h0c-.11.24-.39.34-.63.23s-.34-.39-.23-.63h0s1.72-3.63,1.72-3.63c.11-.23.39-.33.62-.22.23.11.33.39.22.62h0Z" fill="#1b1b1b"/>
    <path d="M33.65,160.36l-1.59,3.67h0c-.1.25-.39.36-.63.26-.24-.1-.35-.39-.25-.63h0s1.6-3.68,1.6-3.68c.1-.24.38-.35.62-.25.24.1.35.38.25.63h0Z" fill="#1b1b1b"/>
    <path d="M30.53,167.73l-1.48,3.72h0c-.1.25-.38.38-.63.28-.25-.1-.37-.38-.27-.63h0s1.49-3.73,1.49-3.73c.1-.25.38-.37.63-.27.25.1.37.38.27.63h0Z" fill="#1b1b1b"/>
    <path d="M27.63,175.18l-1.38,3.76h0c-.09.26-.37.39-.63.3-.25-.09-.39-.37-.29-.63h0s1.39-3.77,1.39-3.77c.09-.25.37-.38.63-.29.25.09.38.37.29.63h0Z" fill="#1b1b1b"/>
    <path d="M24.92,182.71l-1.28,3.79h0c-.09.27-.37.4-.63.32-.26-.09-.4-.37-.31-.63h0s1.29-3.8,1.29-3.8c.09-.26.37-.4.63-.31.26.09.4.37.31.63h0Z" fill="#1b1b1b"/>
    <path d="M22.4,190.3l-1.19,3.82h0c-.08.27-.36.42-.63.34-.26-.08-.41-.36-.33-.63h0s1.2-3.83,1.2-3.83c.08-.26.36-.41.63-.33.26.08.41.36.33.63h0Z" fill="#1b1b1b"/>
    <path d="M20.06,197.96l-1.11,3.85h0c-.08.28-.36.43-.63.35-.27-.08-.43-.36-.35-.63h0s1.11-3.86,1.11-3.86c.08-.27.36-.42.63-.34.27.08.42.36.34.63h0Z" fill="#1b1b1b"/>
    <path d="M17.89,205.66l-1.02,3.87h0c-.07.28-.35.44-.63.37s-.44-.35-.37-.63h0s1.03-3.88,1.03-3.88c.07-.27.35-.44.63-.36.27.07.44.35.36.63h0Z" fill="#1b1b1b"/>
    <path d="M15.89,213.41l-.94,3.89h0c-.07.28-.35.46-.63.39-.28-.07-.45-.35-.38-.63h0s.95-3.9.95-3.9c.07-.28.35-.45.63-.38s.45.35.38.63h0Z" fill="#1b1b1b"/>
    <path d="M14.04,221.19l-.86,3.91h0c-.06.29-.34.47-.63.41s-.46-.34-.4-.63h0s.87-3.92.87-3.92c.06-.28.34-.46.62-.4.28.06.46.34.4.62h0Z" fill="#1b1b1b"/>
    <path d="M12.35,229.01l-.79,3.92h0c-.06.29-.34.48-.63.42s-.48-.34-.42-.63h0s.8-3.93.8-3.93c.06-.29.34-.47.62-.41s.47.34.41.62h0Z" fill="#1b1b1b"/>
    <path d="M10.82,236.87l-.71,3.94c-.05.29-.33.49-.62.44-.29-.05-.49-.33-.44-.62h0s.72-3.95.72-3.95c.05-.29.33-.48.62-.43.29.05.48.34.43.63Z" fill="#1b1b1b"/>
    <path d="M9.42,244.75l-.64,3.95c-.05.3-.32.5-.62.46-.3-.05-.5-.32-.46-.62h0s.65-3.96.65-3.96c.05-.3.33-.5.62-.45.29.05.49.33.45.63Z" fill="#1b1b1b"/>
    <path d="M8.17,252.66l-.57,3.96c-.04.3-.32.51-.62.47-.3-.04-.51-.32-.47-.62h0s.58-3.97.58-3.97c.04-.3.32-.51.62-.46s.51.33.46.62Z" fill="#1b1b1b"/>
    <path d="M7.06,260.58l-.5,3.97c-.04.31-.31.52-.62.49-.31-.04-.52-.31-.49-.62h0s.51-3.98.51-3.98c.04-.3.32-.52.62-.48s.52.32.48.62Z" fill="#1b1b1b"/>
    <path d="M6.09,268.53l-.44,3.98c-.03.31-.31.53-.62.5-.31-.03-.53-.31-.5-.62h0s.44-3.99.44-3.99c.03-.31.31-.53.62-.49.31.03.53.31.49.62Z" fill="#1b1b1b"/>
    <path d="M5.25,276.49l-.37,3.99c-.03.31-.3.55-.61.52-.31-.03-.55-.3-.52-.61h0s.38-4,.38-4c.03-.31.31-.54.62-.51s.54.31.51.62Z" fill="#1b1b1b"/>
    <path d="M4.55,284.46l-.31,3.99c-.02.32-.3.56-.61.53s-.56-.3-.53-.61h0s.31-4,.31-4c.02-.31.3-.55.61-.53.31.02.55.3.53.62Z" fill="#1b1b1b"/>
    <path d="M3.97,292.44l-.24,3.99c-.02.32-.29.57-.61.55-.32-.02-.57-.29-.55-.61h0s.25-4.01.25-4.01c.02-.32.29-.56.61-.54s.56.3.54.62Z" fill="#1b1b1b"/>
    <path d="M3.51,300.43l-.18,4c-.01.32-.28.58-.61.56s-.58-.28-.56-.61h0s.19-4.01.19-4.01c.02-.32.29-.57.61-.56.32.01.57.29.56.61Z" fill="#1b1b1b"/>
    <path d="M3.18,308.43l-.12,4c0,.33-.28.59-.61.58-.33,0-.59-.28-.58-.61h0s.13-4.01.13-4.01c.01-.33.28-.58.61-.57.33.01.58.29.57.61Z" fill="#1b1b1b"/>
    <path d="M2.97,316.43l-.06,4c0,.33-.27.6-.6.59-.33,0-.6-.27-.59-.6h0s.07-4.02.07-4.02c0-.33.28-.59.61-.59s.59.28.59.61Z" fill="#1b1b1b"/>
    <path d="M2.88,324.44v4c0,.33-.27.61-.6.61-.33,0-.61-.27-.61-.6h0s0-4.02,0-4.02c0-.33.27-.6.6-.6.33,0,.6.27.6.61Z" fill="#1b1b1b"/>
    <path d="M2.9,332.44l.05,4c0,.34-.26.62-.6.62-.34,0-.62-.26-.62-.6h0s-.05-4.02-.05-4.02c0-.34.26-.61.6-.61s.61.27.61.6Z" fill="#1b1b1b"/>
    <path d="M3.03,340.45l.11,4c.01.34-.25.63-.6.64-.34.01-.63-.25-.64-.6h0s-.1-4.01-.1-4.01c0-.34.26-.62.6-.63.34,0,.62.26.63.6Z" fill="#1b1b1b"/>
    <path d="M3.28,348.45l.16,4c.02.34-.25.64-.59.65-.34.02-.64-.25-.65-.59h0s-.16-4.01-.16-4.01c-.01-.34.25-.63.59-.64s.63.26.64.6Z" fill="#1b1b1b"/>
    <path d="M3.63,356.45l.22,4c.02.35-.24.64-.59.67-.35.02-.64-.24-.67-.59h0s-.21-4.01-.21-4.01c-.02-.35.25-.64.59-.66.35-.02.64.25.66.6Z" fill="#1b1b1b"/>
    <path d="M4.09,364.44l.27,3.99c.03.35-.24.65-.59.68-.35.03-.65-.24-.68-.59h0s-.26-4.01-.26-4.01c-.02-.35.24-.65.59-.67.35-.02.65.24.67.59Z" fill="#1b1b1b"/>
    <path d="M4.66,372.42l.32,3.99c.03.35-.23.66-.58.69-.35.03-.66-.23-.69-.58h0s-.32-4-.32-4c-.03-.35.23-.66.59-.69.35-.03.66.24.69.59Z" fill="#1b1b1b"/>
    <path d="M5.32,380.4l.37,3.99c.04.36-.22.67-.58.71-.36.04-.67-.22-.71-.58h0s-.37-4-.37-4c-.03-.35.23-.67.58-.7.35-.03.67.23.7.59Z" fill="#1b1b1b"/>
    <path d="M6.09,388.37l.42,3.98c.04.36-.22.68-.58.72-.36.04-.68-.22-.72-.58h0s-.42-3.99-.42-3.99c-.04-.36.22-.68.58-.71.36-.04.68.23.71.58Z" fill="#1b1b1b"/>
    <path d="M6.96,396.33l.47,3.97c.04.36-.21.69-.57.74-.36.04-.69-.21-.74-.57h0s-.46-3.99-.46-3.99c-.04-.36.22-.69.58-.73.36-.04.69.22.73.58Z" fill="#1b1b1b"/>
    <path d="M7.92,404.28l.52,3.97c.05.36-.21.7-.57.75-.36.05-.7-.21-.75-.57h0s-.51-3.98-.51-3.98c-.05-.36.21-.69.57-.74s.69.21.74.58Z" fill="#1b1b1b"/>
    <path d="M8.97,412.21l.56,3.96c.05.37-.2.71-.57.76s-.71-.2-.76-.57h0s-.56-3.98-.56-3.98c-.05-.37.2-.7.57-.75.37-.05.7.21.75.57Z" fill="#1b1b1b"/>
    <path d="M10.12,420.14l.61,3.96c.06.37-.19.72-.56.78s-.72-.19-.78-.56h0s-.6-3.97-.6-3.97c-.06-.37.2-.71.57-.77s.71.2.77.57Z" fill="#1b1b1b"/>
    <path d="M11.36,428.05l.65,3.95c.06.37-.19.72-.56.79-.37.06-.73-.19-.79-.56h0s-.65-3.96-.65-3.96c-.06-.37.19-.72.56-.78.37-.06.72.19.78.56Z" fill="#1b1b1b"/>
    <path d="M12.68,435.94l.7,3.94c.07.37-.18.73-.55.8-.37.07-.73-.18-.8-.55h0s-.69-3.96-.69-3.96c-.07-.37.18-.73.56-.79.37-.07.73.19.79.56Z" fill="#1b1b1b"/>
    <path d="M14.1,443.83l.74,3.93c.07.38-.17.74-.55.81-.38.07-.74-.17-.81-.55h0s-.73-3.95-.73-3.95c-.07-.38.18-.74.55-.81.38-.07.74.18.81.56Z" fill="#1b1b1b"/>
    <path d="M15.59,451.69l.78,3.93c.08.38-.17.75-.55.83-.38.08-.75-.17-.83-.55h0s-.78-3.94-.78-3.94c-.07-.38.17-.75.55-.82.38-.07.75.17.82.55Z" fill="#1b1b1b"/>
    <path d="M17.17,459.54l.82,3.92c.08.38-.16.76-.54.84-.38.08-.76-.16-.84-.54h0s-.82-3.93-.82-3.93c-.08-.38.17-.75.55-.83.38-.08.75.17.83.55Z" fill="#1b1b1b"/>
    <path d="M19.22,467.15c.48,1.22,1.02,2.42,1.62,3.58.18.35.05.78-.3.96-.35.18-.78.05-.96-.3h0c-.63-1.21-1.19-2.45-1.68-3.72-.14-.37.04-.78.4-.92.37-.14.78.04.92.4Z" fill="#1b1b1b"/>
    <path d="M22.86,474.09c.74,1.08,1.55,2.1,2.42,3.07.27.29.24.75-.05,1.02-.29.27-.75.24-1.02-.05h0c-.92-1.02-1.76-2.1-2.53-3.23-.22-.33-.14-.77.19-1,.33-.22.77-.14,1,.19Z" fill="#1b1b1b"/>
    <path d="M28.09,479.87c1,.84,2.05,1.6,3.16,2.3.34.21.44.66.23,1-.21.34-.66.44-1,.23h0c-1.16-.73-2.27-1.54-3.31-2.42-.31-.26-.34-.71-.09-1.02.26-.31.71-.35,1.02-.09Z" fill="#1b1b1b"/>
    <path d="M34.69,484.03c1.19.55,2.41,1.03,3.65,1.44.38.13.59.54.46.92-.13.38-.54.59-.92.46h0c-1.29-.43-2.56-.93-3.8-1.51-.36-.17-.52-.6-.35-.97.17-.36.6-.52.97-.35Z" fill="#1b1b1b"/>
    <path d="M42.13,486.52c1.28.29,2.58.52,3.88.7.4.06.68.43.63.83-.06.4-.43.68-.83.63h0c-1.34-.19-2.68-.43-4-.73-.4-.09-.64-.48-.55-.88.09-.4.48-.64.88-.55Z" fill="#1b1b1b"/>
    <path d="M49.95,487.63c1.32.09,2.64.14,3.96.15.41,0,.74.34.74.75,0,.41-.34.74-.75.74h0c-1.35-.01-2.7-.07-4.05-.16-.41-.03-.72-.38-.69-.79s.38-.72.79-.69Z" fill="#1b1b1b"/>
    <path d="M57.91,487.78h4.01c.41,0,.75.33.75.75,0,.41-.33.75-.75.75h-4.01c-.41,0-.75-.34-.75-.75,0-.41.33-.75.75-.75Z" fill="#1b1b1b"/>
    <path d="M65.92,487.77h4.01c.42,0,.76.33.76.75,0,.42-.34.76-.75.76h-4.01c-.42,0-.75-.34-.75-.76,0-.42.34-.75.75-.75Z" fill="#1b1b1b"/>
    <path d="M73.93,487.77h4.01c.42,0,.76.34.76.76s-.34.76-.76.76h-4.01c-.42,0-.76-.34-.76-.76s.34-.76.76-.76Z" fill="#1b1b1b"/>
    <path d="M81.95,487.76h4.01c.42,0,.77.34.77.76,0,.42-.34.77-.77.77h-4.01c-.42,0-.76-.35-.76-.77s.34-.76.76-.76Z" fill="#1b1b1b"/>
    <path d="M89.96,487.76h4.01c.43,0,.77.34.77.77,0,.43-.35.77-.77.77h-4.01c-.43,0-.77-.35-.77-.77,0-.43.34-.77.77-.77Z" fill="#1b1b1b"/>
    <path d="M97.98,487.75h4.01c.43,0,.78.35.78.78s-.35.78-.78.78h-4.01c-.43,0-.78-.35-.78-.78s.35-.78.78-.78Z" fill="#1b1b1b"/>
    <path d="M105.99,487.74h4.01c.43,0,.79.35.79.78,0,.43-.35.79-.79.79h-4.01c-.43,0-.78-.35-.78-.79,0-.43.35-.78.78-.78Z" fill="#1b1b1b"/>
    <path d="M114.01,487.74h4.01c.44,0,.79.35.79.79,0,.44-.35.79-.79.79h-4.01c-.44,0-.79-.36-.79-.79,0-.44.35-.79.79-.79Z" fill="#1b1b1b"/>
    <path d="M122.02,487.73h4.01c.44,0,.8.35.8.79s-.36.8-.8.8h-4.01c-.44,0-.79-.36-.79-.8,0-.44.36-.79.79-.79Z" fill="#1b1b1b"/>
    <path d="M130.04,487.73h4.01c.44,0,.8.36.8.8,0,.44-.36.8-.8.8h-4.01c-.44,0-.8-.36-.8-.8,0-.44.36-.8.8-.8Z" fill="#1b1b1b"/>
    <path d="M138.05,487.72h4.01c.45,0,.81.36.81.81,0,.45-.36.81-.81.81h-4.01c-.45,0-.81-.36-.81-.81,0-.45.36-.81.81-.81Z" fill="#1b1b1b"/>
    <path d="M146.07,487.71h4.01c.45,0,.82.36.82.81s-.36.82-.82.82h-4.01c-.45,0-.81-.37-.81-.82,0-.45.36-.81.81-.81Z" fill="#1b1b1b"/>
    <path d="M154.08,487.71h4.01c.45,0,.82.36.82.82,0,.45-.37.82-.82.82h-4.01c-.45,0-.82-.37-.82-.82,0-.45.37-.82.82-.82Z" fill="#1b1b1b"/>
    <path d="M162.09,487.7h4.01c.46,0,.83.37.83.82,0,.46-.37.83-.83.83h-4.01c-.46,0-.82-.37-.82-.83,0-.46.37-.82.82-.82Z" fill="#1b1b1b"/>
    <path d="M170.11,487.7h4.01c.46,0,.83.37.83.83s-.37.83-.83.83h-4.01c-.46,0-.83-.38-.83-.83,0-.46.37-.83.83-.83Z" fill="#1b1b1b"/>
    <path d="M178.12,487.69h4.01c.46,0,.84.37.84.84,0,.46-.38.84-.84.84h-4.01c-.46,0-.84-.38-.84-.84,0-.46.37-.84.84-.84Z" fill="#1b1b1b"/>
    <path d="M186.14,487.68h4.01c.47,0,.85.38.85.84,0,.47-.38.85-.85.85h-4.01c-.47,0-.84-.38-.84-.85,0-.47.38-.84.84-.84Z" fill="#1b1b1b"/>
    <path d="M194.15,487.68h4.01c.47,0,.85.38.85.85,0,.47-.38.85-.85.85h-4.01c-.47,0-.85-.38-.85-.85,0-.47.38-.85.85-.85Z" fill="#1b1b1b"/>
    <path d="M202.17,487.67h4.01c.47,0,.86.38.86.85,0,.47-.38.86-.86.86h-4.01c-.47,0-.85-.39-.85-.86,0-.47.38-.85.85-.85Z" fill="#1b1b1b"/>
    <path d="M210.18,487.67h4.01c.48,0,.86.38.86.86,0,.48-.39.86-.86.86h-4.01c-.48,0-.86-.39-.86-.86,0-.48.38-.86.86-.86Z" fill="#1b1b1b"/>
    <path d="M218.2,487.66h4.01c.48,0,.87.39.87.87,0,.48-.39.87-.87.87h-4.01c-.48,0-.87-.39-.87-.87,0-.48.39-.87.87-.87Z" fill="#1b1b1b"/>
    <path d="M226.21,487.65h4.01c.48,0,.88.39.88.87,0,.48-.39.88-.88.88h-4.01c-.48,0-.87-.39-.87-.88,0-.48.39-.87.87-.87Z" fill="#1b1b1b"/>
    <path d="M234.23,487.65h4.01c.49,0,.88.39.88.88,0,.49-.39.88-.88.88h-4.01c-.49,0-.88-.4-.88-.88,0-.49.39-.88.88-.88Z" fill="#1b1b1b"/>
    <path d="M242.24,487.64h4.01c.49,0,.89.39.89.88,0,.49-.4.89-.89.89h-4.01c-.49,0-.89-.4-.88-.89,0-.49.4-.89.88-.88Z" fill="#1b1b1b"/>
    <path d="M250.25,487.64h4.01c.49,0,.89.4.9.89,0,.49-.4.89-.89.9h-4.01c-.49,0-.89-.4-.89-.9,0-.49.4-.89.89-.89Z" fill="#1b1b1b"/>
    <path d="M258.27,487.63h4.01c.5,0,.9.4.9.9,0,.5-.4.9-.9.9h-4.01c-.5,0-.9-.41-.9-.9,0-.5.4-.9.9-.9Z" fill="#1b1b1b"/>
    <path d="M266.28,487.62h4.01c.5,0,.91.4.91.9,0,.5-.41.91-.91.91h-4.01c-.5,0-.9-.41-.9-.91,0-.5.4-.9.9-.9Z" fill="#1b1b1b"/>
    <path d="M274.3,487.62h4.01c.5,0,.91.4.91.91,0,.5-.41.91-.91.91h-4.01c-.5,0-.91-.41-.91-.91,0-.5.41-.91.91-.91Z" fill="#1b1b1b"/>
    <path d="M282.31,487.61h4.01c.51,0,.92.41.92.91,0,.51-.41.92-.92.92h-4.01c-.51,0-.92-.41-.91-.92,0-.51.41-.92.91-.91Z" fill="#1b1b1b"/>
    <path d="M290.33,487.61h4.01c.51,0,.93.41.93.92,0,.51-.41.92-.92.93h-4.01c-.51,0-.92-.42-.92-.93,0-.51.41-.92.92-.92Z" fill="#1b1b1b"/>
    <path d="M298.34,487.6h4.01c.51,0,.93.41.93.93,0,.51-.42.93-.93.93h-4.01c-.51,0-.93-.42-.93-.93,0-.51.41-.93.93-.93Z" fill="#1b1b1b"/>
    <path d="M306.36,487.59h4.01c.52,0,.94.42.94.93,0,.52-.42.94-.94.94h-4.01c-.52,0-.93-.42-.93-.94,0-.52.42-.93.93-.93Z" fill="#1b1b1b"/>
    <path d="M314.37,487.59h4.01c.52,0,.94.42.94.94,0,.52-.42.94-.94.94h-4.01c-.52,0-.94-.42-.94-.94,0-.52.42-.94.94-.94Z" fill="#1b1b1b"/>
    <path d="M322.39,487.58h4.01c.52,0,.95.42.95.95,0,.52-.42.95-.95.95h-4.01c-.52,0-.95-.43-.95-.95,0-.52.42-.95.95-.95Z" fill="#1b1b1b"/>
    <path d="M330.4,487.58h4.01c.53,0,.96.42.96.95,0,.53-.43.95-.95.96h-4.01c-.53,0-.95-.43-.95-.96,0-.53.43-.95.95-.95Z" fill="#1b1b1b"/>
    <path d="M338.41,487.57h4.01c.53,0,.96.43.96.96,0,.53-.43.96-.96.96h-4.01c-.53,0-.96-.43-.96-.96,0-.53.43-.96.96-.96Z" fill="#1b1b1b"/>
    <path d="M346.43,487.56h4.01c.53,0,.97.43.97.96,0,.53-.43.97-.97.97h-4.01c-.53,0-.96-.44-.96-.97,0-.53.43-.96.96-.96Z" fill="#1b1b1b"/>
    <path d="M354.42,487.55c1.29-.03,2.57-.16,3.84-.38.53-.09,1.03.26,1.12.79.09.53-.26,1.03-.79,1.12h0c-1.36.23-2.74.37-4.13.4-.54.01-.98-.41-.99-.95s.41-.98.94-.99Z" fill="#1b1b1b"/>
    <path d="M362.01,486.23c1.23-.4,2.42-.89,3.58-1.46.48-.24,1.07-.04,1.31.44.24.48.04,1.07-.44,1.31h0c-1.24.61-2.52,1.13-3.84,1.56-.51.17-1.06-.11-1.23-.63-.17-.51.11-1.06.62-1.23Z" fill="#1b1b1b"/>
    <path d="M368.93,482.82c1.07-.73,2.09-1.53,3.05-2.39.4-.36,1.03-.33,1.39.07.36.4.33,1.03-.07,1.39h0c-1.03.92-2.12,1.78-3.26,2.55-.45.3-1.06.19-1.36-.26-.3-.45-.19-1.06.26-1.36Z" fill="#1b1b1b"/>
    <path d="M374.68,477.65c.84-.98,1.61-2.02,2.31-3.11.3-.46.91-.59,1.37-.29.46.3.59.91.29,1.37h0c-.75,1.16-1.58,2.26-2.47,3.31-.35.41-.98.46-1.39.11-.41-.35-.46-.98-.11-1.39Z" fill="#1b1b1b"/>
    <path d="M378.89,471.16c.56-1.17,1.04-2.37,1.45-3.6.17-.52.74-.8,1.26-.63.52.17.8.74.63,1.26h0c-.44,1.31-.96,2.59-1.55,3.83-.24.49-.83.7-1.33.46-.49-.24-.7-.83-.47-1.33Z" fill="#1b1b1b"/>
  </g>
  <path d="M44.7,225.68c-9.48,0-17.42,8.21-18.39,19.01-3.53,39.53-8.62,132.63,12.9,201.48,2.75,8.8,9.83,14.67,17.78,14.67h288.27c8.19,0,15.41-6.26,17.88-15.46,8.61-32.07,24.89-110.6,9.17-202.66-1.69-9.91-9.31-17.05-18.13-17.05H44.7Z" fill="url(#_10_lpi_70_)"/>
  <path d="M321.72,196.72c10.71-32.98,3.1-39.65,3.1-39.65-3.84-.57-3.42,3.01-3.42,3.01-1.42,10.33-7.69,24.11-7.69,24.11,0,0-8.54-19.52-20.78-23.25,0,0-5.12-.14-4.13,4.59,0,0,17.51,14.93,15.66,27.27,0,0-12.1-5.6-17.94,6.03-2.42,8.33,8.04,2.87,8.04,2.87,0,0,13.74-2.73,12.17,9.76l-1.14,14.21h20.07s.14-34.16,24.2-50.38c0,0,9.54-7.46-2.42-5.31,0,0-24.34,10.19-26.48,30.86" fill="url(#_10_dpi_20_)"/>
</svg>