<?xml version="1.0" encoding="UTF-8"?>
<svg id="_아이콘" data-name="아이콘" xmlns="http://www.w3.org/2000/svg" width="70" height="52" xmlns:xlink="http://www.w3.org/1999/xlink" viewBox="0 0 70 52">
  <defs>
    <pattern id="USGS_19_침수_지역_3" data-name="USGS 19 침수 지역 3" x="0" y="0" width="75.48" height="70.75" patternTransform="translate(-1634.78 932.42)" patternUnits="userSpaceOnUse" viewBox="0 0 75.48 70.75">
      <g>
        <rect width="75.48" height="70.75" fill="none"/>
        <line x1="0" y1="70.37" x2="73.44" y2="70.37" fill="none" stroke="#b0ffd2" stroke-dasharray="2 2" stroke-width=".75"/>
        <line x1="0" y1="66.37" x2="73.44" y2="66.37" fill="none" stroke="#b0ffd2" stroke-dasharray="2 2" stroke-width=".75"/>
        <line x1="0" y1="62.37" x2="73.44" y2="62.37" fill="none" stroke="#b0ffd2" stroke-dasharray="2 2" stroke-width=".75"/>
        <line x1="0" y1="58.37" x2="73.44" y2="58.37" fill="none" stroke="#b0ffd2" stroke-dasharray="2 2" stroke-width=".75"/>
        <line x1="0" y1="54.37" x2="73.44" y2="54.37" fill="none" stroke="#b0ffd2" stroke-dasharray="2 2" stroke-width=".75"/>
        <line x1="0" y1="50.37" x2="73.44" y2="50.37" fill="none" stroke="#b0ffd2" stroke-dasharray="2 2" stroke-width=".75"/>
        <line x1="0" y1="46.37" x2="73.44" y2="46.37" fill="none" stroke="#b0ffd2" stroke-dasharray="2 2" stroke-width=".75"/>
        <line x1="0" y1="42.37" x2="73.44" y2="42.37" fill="none" stroke="#b0ffd2" stroke-dasharray="2 2" stroke-width=".75"/>
        <line x1="0" y1="38.37" x2="73.44" y2="38.37" fill="none" stroke="#b0ffd2" stroke-dasharray="2 2" stroke-width=".75"/>
        <line x1="0" y1="34.37" x2="73.44" y2="34.37" fill="none" stroke="#b0ffd2" stroke-dasharray="2 2" stroke-width=".75"/>
        <line x1="0" y1="30.37" x2="73.44" y2="30.37" fill="none" stroke="#b0ffd2" stroke-dasharray="2 2" stroke-width=".75"/>
        <line x1="0" y1="26.37" x2="73.44" y2="26.37" fill="none" stroke="#b0ffd2" stroke-dasharray="2 2" stroke-width=".75"/>
        <line x1="0" y1="22.37" x2="73.44" y2="22.37" fill="none" stroke="#b0ffd2" stroke-dasharray="2 2" stroke-width=".75"/>
        <line x1="0" y1="18.37" x2="73.44" y2="18.37" fill="none" stroke="#b0ffd2" stroke-dasharray="2 2" stroke-width=".75"/>
        <line x1="0" y1="14.37" x2="73.44" y2="14.37" fill="none" stroke="#b0ffd2" stroke-dasharray="2 2" stroke-width=".75"/>
        <line x1="0" y1="10.37" x2="73.44" y2="10.37" fill="none" stroke="#b0ffd2" stroke-dasharray="2 2" stroke-width=".75"/>
        <line x1="0" y1="6.37" x2="73.44" y2="6.37" fill="none" stroke="#b0ffd2" stroke-dasharray="2 2" stroke-width=".75"/>
        <line x1="0" y1="2.37" x2="73.44" y2="2.37" fill="none" stroke="#b0ffd2" stroke-dasharray="2 2" stroke-width=".75"/>
        <line x1="2.04" y1="68.37" x2="75.48" y2="68.37" fill="none" stroke="#b0ffd2" stroke-dasharray="2 2" stroke-width=".75"/>
        <line x1="2.04" y1="64.37" x2="75.48" y2="64.37" fill="none" stroke="#b0ffd2" stroke-dasharray="2 2" stroke-width=".75"/>
        <line x1="2.04" y1="60.37" x2="75.48" y2="60.37" fill="none" stroke="#b0ffd2" stroke-dasharray="2 2" stroke-width=".75"/>
        <line x1="2.04" y1="56.37" x2="75.48" y2="56.37" fill="none" stroke="#b0ffd2" stroke-dasharray="2 2" stroke-width=".75"/>
        <line x1="2.04" y1="52.37" x2="75.48" y2="52.37" fill="none" stroke="#b0ffd2" stroke-dasharray="2 2" stroke-width=".75"/>
        <line x1="2.04" y1="48.37" x2="75.48" y2="48.37" fill="none" stroke="#b0ffd2" stroke-dasharray="2 2" stroke-width=".75"/>
        <line x1="2.04" y1="44.37" x2="75.48" y2="44.37" fill="none" stroke="#b0ffd2" stroke-dasharray="2 2" stroke-width=".75"/>
        <line x1="2.04" y1="40.37" x2="75.48" y2="40.37" fill="none" stroke="#b0ffd2" stroke-dasharray="2 2" stroke-width=".75"/>
        <line x1="2.04" y1="36.37" x2="75.48" y2="36.37" fill="none" stroke="#b0ffd2" stroke-dasharray="2 2" stroke-width=".75"/>
        <line x1="2.04" y1="32.37" x2="75.48" y2="32.37" fill="none" stroke="#b0ffd2" stroke-dasharray="2 2" stroke-width=".75"/>
        <line x1="2.04" y1="28.37" x2="75.48" y2="28.37" fill="none" stroke="#b0ffd2" stroke-dasharray="2 2" stroke-width=".75"/>
        <line x1="2.04" y1="24.37" x2="75.48" y2="24.37" fill="none" stroke="#b0ffd2" stroke-dasharray="2 2" stroke-width=".75"/>
        <line x1="2.04" y1="20.37" x2="75.48" y2="20.37" fill="none" stroke="#b0ffd2" stroke-dasharray="2 2" stroke-width=".75"/>
        <line x1="2.04" y1="16.37" x2="75.48" y2="16.37" fill="none" stroke="#b0ffd2" stroke-dasharray="2 2" stroke-width=".75"/>
        <line x1="2.04" y1="12.37" x2="75.48" y2="12.37" fill="none" stroke="#b0ffd2" stroke-dasharray="2 2" stroke-width=".75"/>
        <line x1="2.04" y1="8.37" x2="75.48" y2="8.37" fill="none" stroke="#b0ffd2" stroke-dasharray="2 2" stroke-width=".75"/>
        <line x1="2.04" y1="4.37" x2="75.48" y2="4.37" fill="none" stroke="#b0ffd2" stroke-dasharray="2 2" stroke-width=".75"/>
        <line x1="2.04" y1=".37" x2="75.48" y2=".37" fill="none" stroke="#b0ffd2" stroke-dasharray="2 2" stroke-width=".75"/>
      </g>
    </pattern>
  </defs>
  <path d="M38.13,15.76v-4.28c1.99-.99,3.33-2.88,3.33-5.05,0-3.19-2.89-5.77-6.46-5.77s-6.46,2.59-6.46,5.77c0,2.17,1.35,4.07,3.33,5.05v4.28c-15.91.89-28.34,8.5-28.34,17.75,0,9.85,14.09,17.84,31.47,17.84s31.47-7.99,31.47-17.84c0-9.25-12.43-16.86-28.34-17.75ZM35.22,7.59c-.83,0-1.5-.6-1.5-1.34s.67-1.34,1.5-1.34,1.5.6,1.5,1.34-.67,1.34-1.5,1.34Z" fill="url(#USGS_19_침수_지역_3)" stroke="#000" stroke-linecap="round" stroke-linejoin="round"/>
  <path d="M44.87,23.81c-.86-.86-3.27.14-5.37,2.23-1.02,1.02-1.78,2.12-2.2,3.07h-4.41c-.41-.95-1.17-2.05-2.2-3.07-2.1-2.1-4.5-3.1-5.37-2.23-.86.86.14,3.27,2.23,5.37,2.1,2.1,4.5,3.1,5.37,2.23.32-.32.39-.86.23-1.52h3.87c-.16.66-.1,1.2.23,1.52.86.86,3.27-.14,5.37-2.23,2.1-2.1,3.1-4.5,2.23-5.37Z" stroke="#000" stroke-miterlimit="10" stroke-width=".39"/>
  <circle cx="35.1" cy="40.52" r=".86" stroke="#000" stroke-miterlimit="10" stroke-width=".68"/>
  <line x1="10.47" y1="34.11" x2="17.58" y2="34.11" stroke="#000" stroke-miterlimit="10" stroke-width=".68"/>
  <line x1="10.47" y1="37.12" x2="17.58" y2="37.12" stroke="#000" stroke-miterlimit="10" stroke-width=".68"/>
  <line x1="52.62" y1="34.11" x2="59.73" y2="34.11" stroke="#000" stroke-miterlimit="10" stroke-width=".68"/>
  <line x1="52.62" y1="37.12" x2="59.73" y2="37.12" stroke="#000" stroke-miterlimit="10" stroke-width=".68"/>
</svg>