<?xml version="1.0" encoding="UTF-8"?>
<svg id="_아이콘" data-name="아이콘" xmlns="http://www.w3.org/2000/svg" width="70" height="52" viewBox="0 0 70 52">
  <path d="M38.13,15.76v-4.28c1.99-.99,3.33-2.88,3.33-5.05,0-3.19-2.89-5.77-6.46-5.77s-6.46,2.59-6.46,5.77c0,2.17,1.35,4.07,3.33,5.05v4.28c-15.91.89-28.34,8.5-28.34,17.75,0,9.85,14.09,17.84,31.47,17.84s31.47-7.99,31.47-17.84c0-9.25-12.43-16.86-28.34-17.75ZM35.22,7.59c-.83,0-1.5-.6-1.5-1.34s.67-1.34,1.5-1.34,1.5.6,1.5,1.34-.67,1.34-1.5,1.34Z" fill="#cff" stroke="#000" stroke-miterlimit="10"/>
  <path d="M44.87,23.81c-.86-.86-3.27.14-5.37,2.23-1.02,1.02-1.78,2.12-2.2,3.07h-4.41c-.41-.95-1.17-2.05-2.2-3.07-2.1-2.1-4.5-3.1-5.37-2.23-.86.86.14,3.27,2.23,5.37,2.1,2.1,4.5,3.1,5.37,2.23.32-.32.39-.86.23-1.52h3.87c-.16.66-.1,1.2.23,1.52.86.86,3.27-.14,5.37-2.23,2.1-2.1,3.1-4.5,2.23-5.37Z" stroke="#000" stroke-miterlimit="10" stroke-width=".39"/>
  <circle cx="35.1" cy="40.52" r=".86" stroke="#000" stroke-miterlimit="10" stroke-width=".68"/>
  <line x1="10.47" y1="34.11" x2="17.58" y2="34.11" stroke="#000" stroke-miterlimit="10" stroke-width=".68"/>
  <line x1="10.47" y1="37.12" x2="17.58" y2="37.12" stroke="#000" stroke-miterlimit="10" stroke-width=".68"/>
  <line x1="52.62" y1="34.11" x2="59.73" y2="34.11" stroke="#000" stroke-miterlimit="10" stroke-width=".68"/>
  <line x1="52.62" y1="37.12" x2="59.73" y2="37.12" stroke="#000" stroke-miterlimit="10" stroke-width=".68"/>
</svg>