<?xml version="1.0" encoding="UTF-8"?>
<svg id="_아이콘" data-name="아이콘" xmlns="http://www.w3.org/2000/svg" width="70" height="52" xmlns:xlink="http://www.w3.org/1999/xlink" viewBox="0 0 70 52">
  <defs>
    <pattern id="USGS_17_마른_호수_모래_바닥" data-name="USGS 17 마른 호수 모래 바닥" x="0" y="0" width="72" height="72" patternTransform="translate(-1634.78 451.56)" patternUnits="userSpaceOnUse" viewBox="0 0 72 72">
      <g>
        <rect width="72" height="72" fill="none"/>
        <path d="M21,3c-.06,0-.12-.02-.17-.07-.05-.05-.08-.11-.08-.18s.03-.13.08-.18c.09-.09.25-.09.35,0,.05.05.07.11.07.18,0,.06-.02.12-.07.17-.05.06-.11.08-.18.08Z" fill="#231815"/>
        <path d="M20,8.25c-.06,0-.13-.03-.18-.07-.04-.05-.07-.11-.07-.18s.03-.13.07-.18c.1-.09.26-.09.36,0,.04.05.07.11.07.18s-.03.13-.07.18c-.05.05-.11.07-.18.07Z" fill="#231815"/>
        <path d="M20.25,10.5c-.06,0-.13-.03-.17-.07-.05-.05-.08-.11-.08-.18s.03-.13.07-.18c.1-.09.27-.09.36,0,.04.05.07.11.07.18s-.03.14-.08.18c-.04.04-.1.07-.17.07Z" fill="#231815"/>
        <path d="M18,12.75c-.06,0-.12-.03-.17-.07-.05-.05-.08-.11-.08-.18s.03-.13.07-.18c.11-.09.26-.09.36,0,.05.05.07.11.07.18s-.02.13-.07.18c-.05.04-.11.07-.18.07Z" fill="#231815"/>
        <path d="M15.25,10.5c-.06,0-.12-.02-.17-.07-.05-.05-.08-.12-.08-.18,0-.07.03-.13.07-.18.12-.1.26-.09.36,0,.05.05.07.11.07.18,0,.06-.02.13-.07.17-.05.06-.11.08-.18.08Z" fill="#231815"/>
        <path d="M22.75,20c-.06,0-.12-.02-.17-.07-.05-.05-.08-.11-.08-.18,0-.06.03-.13.07-.17.11-.11.27-.1.36,0,.05.06.07.12.07.18s-.02.13-.07.18c-.05.04-.11.07-.18.07Z" fill="#231815"/>
        <path d="M15.25,23c-.06,0-.12-.02-.17-.07-.05-.05-.08-.11-.08-.18,0-.06.03-.12.07-.17.12-.11.26-.1.36,0,.05.05.07.12.07.18,0,.07-.02.13-.07.18-.05.05-.11.07-.18.07Z" fill="#231815"/>
        <path d="M14,24c-.07,0-.13-.03-.18-.08-.04-.04-.07-.1-.07-.17s.03-.13.07-.18c.11-.1.26-.09.36,0,.05.05.07.12.07.18,0,.07-.02.13-.07.18-.05.04-.11.07-.18.07Z" fill="#231815"/>
        <path d="M24,27c-.06,0-.12-.02-.17-.07-.05-.05-.08-.11-.08-.18s.03-.13.07-.17c.11-.11.26-.1.36,0,.05.06.07.12.07.18,0,.07-.02.13-.07.18-.05.05-.11.07-.18.07Z" fill="#231815"/>
        <path d="M30.75,25.75c-.06,0-.12-.02-.17-.07-.05-.05-.08-.11-.08-.18s.03-.13.08-.18c.1-.09.25-.09.35,0,.05.05.07.12.07.18s-.02.13-.07.18c-.05.05-.11.07-.18.07Z" fill="#231815"/>
        <path d="M31.25,23.25c-.06,0-.12-.03-.17-.07-.05-.05-.08-.11-.08-.18,0-.06.03-.13.07-.17.11-.11.26-.1.36,0,.05.06.07.12.07.18,0,.07-.02.13-.07.18-.05.04-.11.07-.18.07Z" fill="#231815"/>
        <path d="M29.25,18.25c-.06,0-.12-.02-.17-.07-.05-.05-.08-.11-.08-.18s.03-.13.08-.18c.1-.09.25-.09.35,0,.05.05.07.11.07.18s-.03.13-.07.18c-.05.05-.12.07-.18.07Z" fill="#231815"/>
        <path d="M32.25,18.25c-.06,0-.12-.02-.17-.07-.05-.05-.08-.11-.08-.18s.03-.13.07-.18c.11-.09.26-.09.36,0,.04.05.07.11.07.18s-.03.13-.07.18c-.05.05-.11.07-.18.07Z" fill="#231815"/>
        <path d="M32.5,13.75c-.06,0-.13-.03-.17-.07-.05-.05-.08-.11-.08-.18s.03-.13.08-.18c.09-.09.26-.09.35,0,.05.05.07.12.07.18s-.02.12-.07.17c-.05.05-.11.08-.18.08Z" fill="#231815"/>
        <path d="M31.75,11.75c-.06,0-.12-.02-.17-.07-.05-.05-.08-.11-.08-.18s.03-.13.08-.18c.1-.09.25-.09.35,0,.05.05.07.11.07.18s-.03.13-.07.18c-.05.05-.11.07-.18.07Z" fill="#231815"/>
        <path d="M29.25,10.75c-.07,0-.13-.03-.18-.07-.04-.05-.07-.11-.07-.18s.03-.13.08-.18c.1-.09.25-.09.35,0,.05.05.07.11.07.18s-.02.13-.07.18c-.05.04-.11.07-.18.07Z" fill="#231815"/>
        <path d="M32.25,7c-.06,0-.12-.02-.17-.07-.05-.05-.08-.11-.08-.18s.03-.13.07-.18c.11-.09.26-.09.36,0,.05.05.07.11.07.18s-.03.13-.07.18c-.05.05-.11.07-.18.07Z" fill="#231815"/>
        <path d="M32,3c-.06,0-.12-.03-.17-.07-.05-.05-.08-.11-.08-.18s.03-.13.08-.18c.1-.09.25-.09.35,0,.05.05.07.12.07.18s-.02.13-.07.18c-.05.04-.11.07-.18.07Z" fill="#231815"/>
        <path d="M29.25,3.25c-.06,0-.12-.02-.17-.07-.05-.05-.08-.11-.08-.18s.03-.13.08-.18c.09-.09.25-.09.35,0,.05.05.07.11.07.18,0,.06-.02.13-.07.17-.05.06-.11.08-.18.08Z" fill="#231815"/>
        <path d="M34,1.25c-.06,0-.13-.03-.17-.07-.05-.05-.08-.11-.08-.18s.03-.14.08-.18c.09-.09.26-.09.35,0,.05.05.07.11.07.18,0,.06-.02.12-.07.17-.05.05-.11.08-.18.08Z" fill="#231815"/>
        <path d="M41.5,7c-.06,0-.13-.03-.17-.07-.05-.05-.08-.11-.08-.18s.03-.13.08-.18c.09-.09.24-.09.34,0,.06.06.08.12.08.18s-.02.12-.07.17c-.05.06-.11.08-.18.08Z" fill="#231815"/>
        <path d="M45.5,6.75c-.06,0-.12-.02-.17-.07-.05-.05-.08-.11-.08-.18s.03-.13.08-.18c.09-.09.25-.09.35,0,.05.05.07.12.07.18s-.02.13-.07.18c-.05.05-.12.07-.18.07Z" fill="#231815"/>
        <path d="M40.25,10.25c-.06,0-.12-.02-.17-.07-.05-.05-.08-.12-.08-.18,0-.07.03-.13.07-.18.11-.09.26-.09.36,0,.05.05.07.11.07.18,0,.06-.02.13-.07.17-.05.06-.11.08-.18.08Z" fill="#231815"/>
        <path d="M45,11.75c-.06,0-.12-.02-.17-.07-.05-.05-.08-.11-.08-.18s.03-.13.08-.18c.1-.09.25-.09.35,0,.04.05.07.11.07.18s-.02.13-.07.18c-.05.05-.11.07-.18.07Z" fill="#231815"/>
        <path d="M45,13.5c-.06,0-.12-.02-.17-.07-.05-.05-.08-.11-.08-.18s.03-.13.08-.18c.08-.09.26-.09.35,0,.05.04.07.1.07.17s-.02.13-.07.18c-.05.05-.11.07-.18.07Z" fill="#231815"/>
        <path d="M47,14.25c-.06,0-.12-.02-.17-.07-.05-.05-.08-.11-.08-.18s.03-.13.08-.18c.09-.09.25-.09.35,0,.05.05.07.12.07.18s-.02.13-.07.18c-.05.05-.11.07-.18.07Z" fill="#231815"/>
        <path d="M47,16.25c-.06,0-.13-.03-.17-.07-.05-.05-.08-.11-.08-.18s.03-.13.08-.18c.08-.08.26-.09.35,0,.05.04.07.11.07.17s-.02.13-.07.18c-.05.04-.11.07-.18.07Z" fill="#231815"/>
        <path d="M47.25,22.75c-.06,0-.13-.03-.17-.07-.05-.04-.08-.11-.08-.18s.03-.13.08-.18c.08-.08.25-.09.35,0,.05.05.07.11.07.18s-.03.13-.07.18c-.05.05-.11.07-.18.07Z" fill="#231815"/>
        <path d="M39,20.75c-.06,0-.12-.02-.17-.07-.05-.05-.08-.11-.08-.18s.03-.13.08-.18c.1-.09.25-.09.35,0,.04.05.07.11.07.18s-.03.13-.07.18c-.05.05-.11.07-.18.07Z" fill="#231815"/>
        <path d="M50.25,13.5c-.06,0-.13-.03-.17-.07-.05-.05-.08-.11-.08-.18s.03-.13.08-.18c.1-.09.26-.09.35,0,.05.05.07.12.07.18s-.02.13-.07.18c-.05.04-.11.07-.18.07Z" fill="#231815"/>
        <path d="M52.25,12c-.06,0-.12-.02-.17-.07-.05-.05-.08-.11-.08-.18s.03-.13.08-.18c.09-.09.25-.09.35,0,.05.05.07.12.07.18s-.02.13-.07.18c-.05.05-.11.07-.18.07Z" fill="#231815"/>
        <path d="M54.75,11c-.06,0-.13-.03-.17-.07-.05-.05-.08-.12-.08-.18,0-.07.03-.13.08-.18.09-.09.25-.09.35,0,.05.05.07.11.07.18,0,.06-.02.13-.07.18-.05.04-.11.07-.18.07Z" fill="#231815"/>
        <path d="M54.75,6.75c-.07,0-.13-.03-.17-.07-.05-.06-.08-.12-.08-.18s.03-.12.07-.17c.1-.1.26-.1.36,0,.05.06.07.12.07.18s-.02.12-.07.17c-.05.05-.11.08-.18.08Z" fill="#231815"/>
        <path d="M56.5.75c-.06,0-.13-.03-.17-.07-.05-.05-.08-.12-.08-.18s.03-.13.07-.18c.1-.09.26-.09.36,0,.05.06.07.12.07.18s-.02.12-.07.17c-.05.05-.11.08-.18.08Z" fill="#231815"/>
        <path d="M64,6.5c-.06,0-.13-.03-.17-.07-.05-.05-.08-.12-.08-.18s.03-.13.07-.17c.1-.1.26-.1.36,0,.05.06.07.12.07.18s-.02.12-.07.17c-.05.05-.11.08-.18.08Z" fill="#231815"/>
        <path d="M65,2.5c-.06,0-.13-.03-.17-.07-.05-.05-.08-.11-.08-.18s.03-.13.08-.18c.09-.09.25-.09.35,0,.05.05.07.11.07.18s-.02.13-.07.17c-.05.06-.11.08-.18.08Z" fill="#231815"/>
        <path d="M68,3c-.06,0-.13-.03-.17-.07-.05-.05-.08-.11-.08-.18s.03-.13.07-.18c.1-.09.27-.09.36,0,.05.05.07.12.07.18s-.02.13-.07.18c-.05.04-.11.07-.18.07Z" fill="#231815"/>
        <path d="M68,10.25c-.06,0-.13-.03-.17-.07-.05-.05-.08-.11-.08-.18s.03-.13.07-.18c.1-.09.26-.09.36,0,.05.05.07.12.07.18s-.02.13-.07.18c-.05.04-.11.07-.18.07Z" fill="#231815"/>
        <path d="M64.25,12.25c-.06,0-.13-.03-.17-.07-.05-.05-.08-.12-.08-.18s.03-.13.07-.17c.09-.1.25-.1.35,0,.06.05.08.12.08.18s-.02.13-.07.17c-.05.06-.11.08-.18.08Z" fill="#231815"/>
        <path d="M65.25,15.75c-.07,0-.13-.03-.17-.07-.05-.05-.08-.11-.08-.18s.03-.13.08-.18c.07-.08.26-.09.35,0,.05.04.07.11.07.17s-.02.12-.07.17c-.04.05-.11.08-.18.08Z" fill="#231815"/>
        <path d="M64,19.75c-.06,0-.13-.03-.17-.07-.05-.05-.08-.11-.08-.18s.03-.13.08-.18c.08-.09.25-.09.35,0,.05.05.07.12.07.18s-.02.13-.07.18c-.05.04-.11.07-.18.07Z" fill="#231815"/>
        <path d="M66.25,19.75c-.07,0-.13-.03-.18-.08-.04-.04-.07-.1-.07-.17,0-.06.03-.13.07-.17.09-.1.26-.1.36,0,.05.05.07.12.07.18,0,.07-.02.13-.07.18-.05.04-.11.07-.18.07Z" fill="#231815"/>
        <path d="M68,21.25c-.06,0-.13-.03-.17-.07-.05-.05-.08-.12-.08-.18s.03-.12.07-.17c.1-.1.27-.1.36,0,.05.06.07.12.07.18s-.02.12-.07.17c-.05.05-.11.08-.18.08Z" fill="#231815"/>
        <path d="M69.25,20.25c-.06,0-.12-.02-.17-.07-.05-.05-.08-.11-.08-.18s.03-.13.08-.18c.09-.09.25-.09.35,0,.05.05.07.11.07.18s-.02.13-.07.18c-.05.05-.11.07-.18.07Z" fill="#231815"/>
        <path d="M69.5,18c-.06,0-.12-.02-.17-.07-.05-.05-.08-.11-.08-.18s.03-.13.08-.18c.09-.09.25-.09.35,0,.05.05.07.11.07.18s-.02.13-.07.18c-.05.05-.11.07-.18.07Z" fill="#231815"/>
        <path d="M71.25,17.5c-.06,0-.13-.03-.17-.07-.05-.05-.08-.12-.08-.18s.03-.12.07-.17c.11-.1.26-.1.36,0,.05.06.07.12.07.18s-.02.12-.07.17c-.05.05-.11.08-.18.08Z" fill="#231815"/>
        <path d="M8,47c-.06,0-.13-.03-.18-.07-.04-.06-.07-.12-.07-.18,0-.07.03-.13.07-.18.09-.09.26-.09.36,0,.05.05.07.11.07.18,0,.06-.02.13-.07.17-.05.06-.11.08-.18.08Z" fill="#231815"/>
        <path d="M7,52.25c-.06,0-.12-.02-.17-.07-.05-.05-.08-.11-.08-.18s.03-.13.07-.18c.11-.09.26-.09.36,0,.05.05.07.12.07.18,0,.07-.02.13-.07.18-.05.05-.11.07-.18.07Z" fill="#231815"/>
        <path d="M7.25,54.5c-.06,0-.13-.03-.17-.07-.05-.05-.08-.11-.08-.18,0-.06.03-.13.07-.18.1-.09.26-.09.36,0,.04.05.07.11.07.18s-.03.13-.07.18c-.05.04-.11.07-.18.07Z" fill="#231815"/>
        <path d="M5,56.75c-.06,0-.13-.03-.17-.07-.05-.05-.08-.11-.08-.18s.03-.13.07-.17c.1-.1.26-.1.36,0,.05.05.07.11.07.18s-.03.13-.07.18c-.05.05-.12.07-.18.07Z" fill="#231815"/>
        <path d="M2.25,54.5c-.06,0-.12-.02-.17-.07-.05-.05-.08-.11-.08-.18,0-.06.03-.13.07-.17.11-.11.26-.1.35,0,.06.06.08.12.08.18s-.02.13-.07.18c-.06.05-.12.07-.18.07Z" fill="#231815"/>
        <path d="M9.75,64c-.06,0-.12-.02-.17-.07-.05-.05-.08-.11-.08-.18s.03-.13.07-.18c.11-.09.26-.09.36,0,.05.05.07.11.07.18s-.02.13-.07.18-.11.07-.18.07Z" fill="#231815"/>
        <path d="M2.25,67c-.06,0-.12-.03-.17-.07-.05-.05-.08-.11-.08-.18s.03-.13.07-.18c.1-.09.26-.09.36,0,.05.05.07.11.07.18,0,.06-.02.13-.07.18-.06.05-.12.07-.18.07Z" fill="#231815"/>
        <path d="M1,68c-.06,0-.13-.03-.18-.07-.04-.05-.07-.11-.07-.18,0-.06.03-.13.07-.18.1-.09.27-.09.36,0,.05.05.07.12.07.18s-.02.13-.07.18c-.05.04-.11.07-.18.07Z" fill="#231815"/>
        <path d="M11,71c-.06,0-.12-.02-.17-.07-.05-.05-.08-.11-.08-.18s.03-.13.07-.18c.11-.09.26-.09.36,0,.05.05.07.12.07.18s-.02.13-.07.18c-.05.05-.12.07-.18.07Z" fill="#231815"/>
        <path d="M17.75,69.75c-.06,0-.12-.02-.17-.07-.05-.05-.08-.11-.08-.18s.03-.13.07-.18c.11-.09.26-.09.36,0,.05.05.07.11.07.18s-.03.13-.07.18c-.05.05-.12.07-.18.07Z" fill="#231815"/>
        <path d="M18.25,67.25c-.06,0-.12-.03-.17-.07-.05-.06-.08-.12-.08-.18,0-.07.03-.13.07-.18.11-.09.26-.09.36,0,.05.05.07.11.07.18,0,.06-.02.13-.07.17-.05.05-.11.08-.18.08Z" fill="#231815"/>
        <path d="M16.25,62.25c-.07,0-.13-.03-.18-.08-.04-.04-.07-.1-.07-.17s.03-.13.07-.18c.1-.09.26-.09.36,0,.05.05.07.11.07.18s-.02.13-.07.18c-.05.04-.11.07-.18.07Z" fill="#231815"/>
        <path d="M19.25,62.25c-.06,0-.13-.03-.17-.07-.05-.05-.08-.11-.08-.18s.03-.13.07-.18c.1-.09.27-.09.36,0,.04.04.07.11.07.18s-.03.14-.08.18c-.04.04-.1.07-.17.07Z" fill="#231815"/>
        <path d="M19.5,57.75c-.06,0-.12-.02-.17-.07-.05-.05-.08-.11-.08-.18,0-.06.03-.13.07-.17.11-.11.26-.1.36,0,.05.06.07.12.07.18s-.02.13-.07.18c-.05.05-.11.07-.18.07Z" fill="#231815"/>
        <path d="M18.75,55.75c-.06,0-.12-.02-.17-.07-.05-.05-.08-.11-.08-.18s.03-.13.08-.18c.1-.09.26-.09.35,0,.05.05.07.12.07.18s-.02.12-.07.17c-.05.05-.11.08-.18.08Z" fill="#231815"/>
        <path d="M16.25,54.75c-.06,0-.13-.03-.18-.07-.04-.05-.07-.11-.07-.18,0-.06.03-.12.07-.17.1-.1.26-.1.36,0,.05.05.07.12.07.18,0,.07-.02.13-.07.18-.05.05-.11.07-.18.07Z" fill="#231815"/>
        <path d="M19.25,51c-.06,0-.13-.03-.17-.07-.05-.05-.08-.12-.08-.18,0-.07.03-.13.07-.18.1-.09.27-.09.36,0,.04.04.07.11.07.18s-.02.13-.07.18c-.05.04-.11.07-.18.07Z" fill="#231815"/>
        <path d="M19,47c-.06,0-.13-.03-.17-.07-.05-.05-.08-.12-.08-.18,0-.07.03-.13.07-.18.1-.09.26-.09.36,0,.04.05.07.11.07.18,0,.06-.02.13-.07.17-.05.06-.11.08-.18.08Z" fill="#231815"/>
        <path d="M16.25,47.25c-.07,0-.13-.03-.18-.07-.04-.05-.07-.12-.07-.18,0-.07.03-.13.07-.18.09-.09.26-.09.36,0,.05.05.07.11.07.18,0,.06-.02.13-.07.18-.05.05-.11.07-.18.07Z" fill="#231815"/>
        <path d="M21,45.25c-.06,0-.12-.02-.17-.07-.05-.05-.08-.11-.08-.18s.03-.13.08-.18c.1-.09.25-.09.35,0,.05.05.07.12.07.18s-.02.12-.07.17c-.05.06-.11.08-.18.08Z" fill="#231815"/>
        <path d="M28.5,51c-.06,0-.13-.03-.17-.07-.05-.05-.08-.11-.08-.18s.03-.13.08-.18c.09-.09.26-.09.35,0,.05.06.07.12.07.18s-.02.13-.07.18c-.05.04-.11.07-.18.07Z" fill="#231815"/>
        <path d="M32.5,50.75c-.06,0-.13-.03-.17-.07-.05-.05-.08-.11-.08-.18s.03-.13.08-.18c.09-.09.25-.09.35,0,.05.05.07.12.07.18s-.02.13-.07.18c-.05.04-.11.07-.18.07Z" fill="#231815"/>
        <path d="M27.25,54.25c-.07,0-.13-.03-.18-.08-.04-.04-.07-.1-.07-.17s.03-.14.08-.18c.09-.09.26-.09.35,0,.05.05.07.11.07.18,0,.06-.02.13-.07.18-.04.04-.11.07-.18.07Z" fill="#231815"/>
        <path d="M32,55.75c-.06,0-.12-.03-.17-.07-.05-.05-.08-.11-.08-.18,0-.06.03-.13.07-.17.11-.11.26-.1.36,0,.05.06.07.12.07.18,0,.07-.02.13-.07.18-.05.04-.11.07-.18.07Z" fill="#231815"/>
        <path d="M32,57.5c-.06,0-.12-.02-.17-.07-.05-.05-.08-.11-.08-.18,0-.06.03-.13.07-.17.11-.11.26-.1.36,0,.05.06.07.12.07.18s-.02.13-.07.18c-.05.05-.11.07-.18.07Z" fill="#231815"/>
        <path d="M34,58.25c-.07,0-.13-.03-.18-.08-.04-.04-.07-.1-.07-.17s.03-.14.08-.18c.09-.09.26-.09.35,0,.05.05.07.11.07.18,0,.06-.02.13-.07.18-.04.04-.11.07-.18.07Z" fill="#231815"/>
        <path d="M34,60.25c-.06,0-.12-.02-.17-.07-.05-.05-.08-.11-.08-.18s.03-.13.08-.18c.09-.09.26-.09.35,0,.05.06.07.12.07.18s-.02.13-.07.18c-.05.04-.11.07-.18.07Z" fill="#231815"/>
        <path d="M34.25,66.75c-.06,0-.13-.03-.17-.07-.05-.05-.08-.11-.08-.18s.03-.13.08-.18c.09-.09.25-.09.35,0,.05.05.07.12.07.18s-.02.13-.07.18c-.05.04-.11.07-.18.07Z" fill="#231815"/>
        <path d="M26,64.75c-.06,0-.12-.02-.17-.07-.05-.05-.08-.11-.08-.18s.03-.13.08-.18c.09-.09.26-.09.35,0,.05.04.07.11.07.17,0,.07-.02.13-.07.18-.05.05-.11.07-.18.07Z" fill="#231815"/>
        <path d="M37.25,57.5c-.06,0-.13-.03-.17-.07-.05-.05-.08-.11-.08-.18s.03-.13.08-.18c.09-.09.25-.09.34,0,.06.05.08.12.08.18s-.02.12-.07.17c-.05.06-.11.08-.18.08Z" fill="#231815"/>
        <path d="M39.25,56c-.06,0-.13-.03-.17-.07-.05-.05-.08-.11-.08-.18s.03-.13.08-.18c.09-.09.25-.09.35,0,.05.05.07.12.07.18s-.02.12-.07.17c-.05.06-.11.08-.18.08Z" fill="#231815"/>
        <path d="M41.75,55c-.06,0-.13-.03-.17-.07-.05-.05-.08-.11-.08-.18s.03-.14.08-.18c.09-.09.26-.09.35,0,.05.05.07.11.07.18,0,.06-.02.12-.07.17-.05.05-.11.08-.18.08Z" fill="#231815"/>
        <path d="M41.75,50.75c-.06,0-.12-.02-.17-.07-.05-.05-.08-.11-.08-.18s.03-.13.08-.18c.09-.09.26-.09.35,0,.05.05.07.11.07.18,0,.06-.02.13-.07.18-.05.04-.11.07-.18.07Z" fill="#231815"/>
        <path d="M43.5,44.75c-.06,0-.12-.03-.17-.07-.05-.05-.08-.11-.08-.18s.03-.13.08-.18c.09-.09.25-.09.35,0,.05.05.07.12.07.18s-.02.13-.07.18c-.05.05-.12.07-.18.07Z" fill="#231815"/>
        <path d="M51,50.5c-.06,0-.12-.03-.17-.07-.05-.05-.08-.11-.08-.18s.03-.13.08-.18c.09-.09.25-.09.35,0,.05.05.07.11.07.18s-.02.13-.07.18c-.05.05-.11.07-.18.07Z" fill="#231815"/>
        <path d="M52,46.5c-.06,0-.13-.03-.17-.07-.05-.05-.08-.11-.08-.18s.03-.13.08-.18c.09-.09.25-.09.35,0,.05.06.07.12.07.18s-.02.12-.07.17c-.05.06-.11.08-.18.08Z" fill="#231815"/>
        <path d="M55,47c-.06,0-.12-.02-.17-.07-.05-.05-.08-.11-.08-.18s.03-.13.08-.18c.09-.09.25-.09.35,0,.05.05.07.12.07.18s-.02.13-.07.18c-.05.05-.11.07-.18.07Z" fill="#231815"/>
        <path d="M55,54.25c-.06,0-.12-.03-.17-.07-.05-.05-.08-.11-.08-.18s.03-.13.08-.18c.09-.09.25-.09.35,0,.05.05.07.12.07.18s-.02.13-.07.18c-.05.05-.11.07-.18.07Z" fill="#231815"/>
        <path d="M51.25,56.25c-.06,0-.13-.03-.17-.07-.05-.05-.08-.11-.08-.18s.03-.13.08-.18c.09-.09.25-.09.35,0,.05.05.07.11.07.18s-.02.13-.07.18c-.05.04-.11.07-.18.07Z" fill="#231815"/>
        <path d="M52.25,59.75c-.06,0-.12-.02-.17-.07-.05-.05-.08-.11-.08-.18s.03-.13.08-.18c.09-.09.25-.09.35,0,.05.06.07.12.07.18s-.02.12-.07.17c-.05.06-.11.08-.18.08Z" fill="#231815"/>
        <path d="M51,63.75c-.06,0-.13-.03-.17-.07-.05-.05-.08-.11-.08-.18s.03-.13.08-.18c.09-.09.25-.09.35,0,.05.05.07.12.07.18s-.02.13-.07.17c-.05.06-.11.08-.18.08Z" fill="#231815"/>
        <path d="M53.25,63.75c-.06,0-.13-.03-.17-.07-.05-.05-.08-.12-.08-.18s.03-.13.07-.17c.1-.1.26-.1.36,0,.05.06.07.12.07.18s-.02.12-.07.17c-.05.05-.11.08-.18.08Z" fill="#231815"/>
        <path d="M55,65.25c-.06,0-.12-.03-.17-.07-.05-.05-.08-.11-.08-.18s.03-.13.08-.18c.09-.09.25-.09.35,0,.05.05.07.12.07.18s-.02.13-.07.18c-.05.05-.11.07-.18.07Z" fill="#231815"/>
        <path d="M56.25,64.25c-.06,0-.12-.03-.17-.07-.05-.05-.08-.11-.08-.18s.03-.13.08-.18c.09-.09.25-.09.35,0,.05.05.07.12.07.18,0,.07-.02.13-.07.18-.05.05-.11.07-.18.07Z" fill="#231815"/>
        <path d="M56.5,62c-.06,0-.13-.03-.17-.07-.05-.06-.08-.12-.08-.18,0-.07.03-.13.08-.18.07-.08.26-.09.35,0,.05.04.07.11.07.17s-.02.12-.07.17c-.05.05-.11.08-.18.08Z" fill="#231815"/>
        <path d="M58.25,61.5c-.06,0-.13-.03-.17-.07-.05-.05-.08-.12-.08-.18s.03-.13.07-.17c.1-.1.27-.1.36,0,.05.06.07.12.07.18s-.02.12-.07.17c-.04.05-.11.08-.18.08Z" fill="#231815"/>
        <path d="M21,27c-.06,0-.12-.02-.17-.07-.05-.05-.08-.11-.08-.18s.03-.13.08-.18c.1-.09.25-.09.35,0,.05.05.07.12.07.18s-.02.13-.07.18c-.05.05-.12.07-.18.07Z" fill="#231815"/>
        <path d="M22.75,24c-.07,0-.13-.03-.18-.07-.04-.05-.07-.11-.07-.18s.03-.13.08-.18c.1-.09.26-.09.35,0,.05.05.07.12.07.18s-.02.13-.07.18c-.04.04-.11.07-.18.07Z" fill="#231815"/>
        <path d="M25.25,24.5c-.06,0-.12-.03-.17-.07-.05-.05-.08-.11-.08-.18s.03-.13.08-.18c.1-.09.25-.09.35,0,.05.05.07.12.07.18s-.02.13-.07.18c-.05.04-.11.07-.18.07Z" fill="#231815"/>
        <path d="M35.25,23.25c-.06,0-.12-.02-.17-.07-.05-.05-.08-.11-.08-.18s.03-.13.08-.18c.1-.09.25-.09.35,0,.05.05.07.11.07.18s-.03.13-.07.18c-.05.05-.11.07-.18.07Z" fill="#231815"/>
        <path d="M39,24.75c-.06,0-.12-.02-.17-.07-.05-.05-.08-.11-.08-.18s.03-.13.08-.18c.1-.09.25-.09.35,0,.05.05.07.11.07.18s-.03.13-.07.18c-.05.05-.12.07-.18.07Z" fill="#231815"/>
        <path d="M45,29.5c-.06,0-.12-.02-.17-.07-.05-.05-.08-.11-.08-.18s.03-.13.08-.18c.1-.09.25-.09.35,0,.05.05.07.11.07.18s-.02.13-.07.18c-.05.05-.12.07-.18.07Z" fill="#231815"/>
        <path d="M46.25,29c-.06,0-.13-.03-.17-.07-.05-.05-.08-.11-.08-.18s.03-.13.08-.18c.09-.09.25-.09.34,0,.06.06.08.12.08.18s-.02.12-.07.17c-.05.06-.11.08-.18.08Z" fill="#231815"/>
        <path d="M55.25,28c-.06,0-.13-.03-.17-.07-.05-.05-.08-.11-.08-.18s.03-.13.08-.18c.09-.09.25-.09.35,0,.05.05.07.12.07.18s-.02.13-.07.18c-.05.04-.11.07-.18.07Z" fill="#231815"/>
        <path d="M51.25,25.25c-.06,0-.12-.02-.17-.07-.05-.05-.08-.11-.08-.18s.03-.13.08-.18c.09-.09.25-.09.35,0,.05.05.07.11.07.18s-.03.13-.07.18c-.05.05-.11.07-.18.07Z" fill="#231815"/>
        <path d="M52,29.5c-.06,0-.13-.03-.17-.07-.05-.05-.08-.11-.08-.18s.03-.13.08-.18c.09-.09.25-.09.35,0,.05.06.07.12.07.18s-.02.12-.07.17c-.05.06-.11.08-.18.08Z" fill="#231815"/>
        <path d="M62.5,35.5c-.06,0-.13-.03-.17-.07-.05-.05-.08-.11-.08-.18s.03-.13.08-.18c.08-.08.24-.09.34,0,.06.05.08.12.08.18s-.02.13-.07.18c-.05.05-.12.07-.18.07Z" fill="#231815"/>
        <path d="M58.25,38.25c-.07,0-.13-.03-.17-.07-.05-.05-.08-.12-.08-.18s.03-.13.07-.17c.1-.1.27-.1.36,0,.05.06.07.12.07.18s-.02.12-.07.17c-.04.05-.11.08-.18.08Z" fill="#231815"/>
        <path d="M49,39c-.07,0-.13-.03-.17-.07-.05-.05-.08-.12-.08-.18s.03-.13.07-.17c.1-.1.26-.1.36,0,.05.06.07.12.07.18s-.02.12-.07.17c-.05.05-.11.08-.18.08Z" fill="#231815"/>
        <path d="M48,41.25c-.06,0-.12-.02-.17-.07-.05-.05-.08-.11-.08-.18s.03-.13.08-.18c.09-.09.24-.09.34,0,.06.05.08.12.08.18s-.02.12-.07.17c-.06.06-.11.08-.18.08Z" fill="#231815"/>
        <path d="M52,43c-.07,0-.13-.03-.18-.08-.04-.04-.07-.1-.07-.17s.03-.13.08-.18c.09-.09.25-.09.35,0,.05.05.07.12.07.18s-.02.13-.07.18c-.05.04-.11.07-.18.07Z" fill="#231815"/>
        <path d="M53.5,45c-.06,0-.13-.03-.17-.07-.05-.05-.08-.11-.08-.18s.03-.13.08-.18c.08-.09.25-.09.35,0,.05.05.07.12.07.18s-.02.13-.07.18c-.05.04-.11.07-.18.07Z" fill="#231815"/>
        <path d="M62.25,48c-.06,0-.13-.03-.17-.07-.05-.05-.08-.12-.08-.18s.03-.13.07-.17c.1-.1.26-.1.36,0,.05.06.07.12.07.18s-.02.12-.07.17c-.05.05-.11.08-.18.08Z" fill="#231815"/>
        <path d="M65,51.75c-.06,0-.12-.03-.17-.07-.05-.05-.08-.11-.08-.18s.03-.14.08-.18c.09-.08.25-.09.35,0,.04.05.07.11.07.18s-.02.13-.07.18c-.05.05-.11.07-.18.07Z" fill="#231815"/>
        <path d="M67,51.75c-.06,0-.13-.03-.17-.07-.05-.05-.08-.11-.08-.18s.03-.13.08-.18c.08-.08.25-.09.35,0,.05.05.07.11.07.18s-.02.13-.07.18c-.05.05-.11.07-.18.07Z" fill="#231815"/>
        <path d="M69.5,45c-.06,0-.12-.03-.17-.07-.05-.05-.08-.11-.08-.18s.03-.13.08-.18c.09-.09.25-.09.35,0,.05.05.07.11.07.18s-.02.13-.07.18c-.05.05-.11.07-.18.07Z" fill="#231815"/>
        <path d="M60,39c-.06,0-.12-.02-.17-.07-.05-.05-.08-.11-.08-.18s.03-.13.08-.18c.09-.09.25-.09.35,0,.04.05.07.11.07.18s-.03.13-.07.18c-.05.05-.11.07-.18.07Z" fill="#231815"/>
        <path d="M47.25,47.75c-.06,0-.13-.03-.17-.07-.05-.05-.08-.11-.08-.18s.03-.14.08-.18c.08-.08.25-.09.35,0,.04.05.07.11.07.18s-.02.13-.07.18c-.05.05-.11.07-.18.07Z" fill="#231815"/>
        <path d="M32.5,47c-.06,0-.12-.03-.17-.07-.05-.05-.08-.11-.08-.18s.03-.13.08-.18c.09-.09.26-.09.35,0,.05.05.07.12.07.18s-.02.13-.07.18c-.05.04-.11.07-.18.07Z" fill="#231815"/>
        <path d="M37,44.5c-.06,0-.12-.03-.17-.07-.05-.05-.08-.12-.08-.18,0-.07.03-.13.07-.17.11-.11.26-.1.36,0,.05.05.07.12.07.18s-.02.13-.07.17c-.05.05-.11.08-.18.08Z" fill="#231815"/>
        <path d="M26.25,37.75c-.06,0-.12-.03-.17-.07-.05-.05-.08-.11-.08-.18s.03-.13.08-.18c.1-.09.25-.09.35,0,.05.05.07.12.07.18s-.02.13-.07.18c-.05.04-.11.07-.18.07Z" fill="#231815"/>
        <path d="M29.75,35.5c-.06,0-.12-.02-.17-.07-.05-.05-.08-.11-.08-.18s.03-.13.08-.18c.1-.09.25-.09.35,0,.05.05.07.12.07.18s-.02.12-.07.17c-.05.06-.11.08-.18.08Z" fill="#231815"/>
        <path d="M17,28.5c-.06,0-.12-.02-.17-.07-.05-.05-.08-.11-.08-.18,0-.06.03-.12.07-.17.11-.11.26-.1.36,0,.05.05.07.12.07.18,0,.07-.02.13-.07.18-.05.05-.11.07-.18.07Z" fill="#231815"/>
        <path d="M10.5,29.5c-.06,0-.12-.02-.17-.07-.05-.05-.08-.11-.08-.18,0-.06.03-.12.07-.17.11-.11.26-.1.36,0,.05.06.07.12.07.18s-.02.13-.07.18c-.05.05-.11.07-.18.07Z" fill="#231815"/>
        <path d="M6,31.5c-.06,0-.12-.02-.17-.07-.05-.05-.08-.11-.08-.18,0-.06.03-.12.07-.17.12-.11.26-.1.36,0,.05.06.07.12.07.18,0,.07-.02.13-.07.18-.05.05-.11.07-.18.07Z" fill="#231815"/>
        <path d="M2.5,35.25c-.07,0-.13-.03-.17-.07-.05-.05-.08-.12-.08-.18,0-.07.03-.13.08-.18.08-.09.24-.09.34,0,.06.05.08.11.08.18,0,.06-.02.13-.07.17-.05.06-.11.08-.18.08Z" fill="#231815"/>
        <path d="M11.25,36.75c-.07,0-.13-.03-.18-.07-.04-.05-.07-.12-.07-.18,0-.07.03-.13.07-.18.1-.09.25-.09.36,0,.05.05.07.11.07.18s-.02.13-.07.18c-.05.05-.11.07-.18.07Z" fill="#231815"/>
        <path d="M17,42c-.06,0-.12-.02-.17-.07-.05-.05-.08-.11-.08-.18,0-.06.03-.13.07-.18.11-.09.26-.09.36,0,.05.05.07.11.07.18s-.03.13-.07.18c-.05.05-.11.07-.18.07Z" fill="#231815"/>
        <path d="M12.75,36c-.06,0-.13-.03-.17-.07-.05-.05-.08-.11-.08-.18,0-.06.03-.13.07-.17.1-.1.26-.1.36,0,.05.05.07.11.07.18s-.02.13-.07.18c-.05.05-.12.07-.18.07Z" fill="#231815"/>
        <path d="M26.5,30.25c-.06,0-.12-.02-.17-.07-.05-.05-.08-.11-.08-.18s.03-.13.08-.18c.1-.09.25-.09.35,0,.05.05.07.12.07.18s-.02.13-.07.18c-.05.05-.11.07-.18.07Z" fill="#231815"/>
        <path d="M37.75,31c-.06,0-.12-.02-.17-.07-.05-.05-.08-.11-.08-.18s.03-.13.08-.18c.1-.09.25-.09.35,0,.05.05.07.11.07.18s-.02.13-.07.18c-.05.05-.12.07-.18.07Z" fill="#231815"/>
        <path d="M39.5,32.5c-.06,0-.12-.02-.17-.07-.05-.05-.08-.11-.08-.18s.03-.13.08-.18c.08-.09.26-.09.35,0,.05.04.07.11.07.17s-.02.13-.07.18c-.05.04-.11.07-.18.07Z" fill="#231815"/>
        <path d="M28,42c-.06,0-.12-.03-.17-.07-.05-.05-.08-.12-.08-.18s.03-.12.07-.17c.11-.1.26-.1.35,0,.06.06.08.12.08.18s-.02.13-.07.17c-.05.06-.11.08-.18.08Z" fill="#231815"/>
        <path d="M6.5,20.5c-.06,0-.13-.03-.17-.07-.05-.05-.08-.12-.08-.18,0-.07.03-.13.07-.18.1-.09.26-.09.36,0,.05.05.07.11.07.18,0,.06-.02.13-.07.17-.05.06-.11.08-.18.08Z" fill="#231815"/>
        <path d="M10.25,20.25c-.06,0-.13-.03-.17-.07-.05-.05-.08-.11-.08-.18s.03-.13.07-.18c.1-.09.26-.09.36,0,.05.05.07.11.07.18s-.02.13-.07.18c-.05.05-.11.07-.18.07Z" fill="#231815"/>
        <path d="M11.75,23.5c-.06,0-.12-.02-.17-.07-.05-.05-.08-.11-.08-.18,0-.06.03-.12.07-.17.11-.11.26-.1.36,0,.05.06.07.12.07.18s-.02.13-.07.18c-.05.05-.12.07-.18.07Z" fill="#231815"/>
        <path d="M3,25.75c-.06,0-.13-.03-.17-.07-.05-.05-.08-.11-.08-.18s.03-.13.07-.18c.1-.09.26-.09.36,0,.05.05.07.11.07.18s-.02.13-.07.18c-.05.05-.12.07-.18.07Z" fill="#231815"/>
        <path d="M64.25,29.5c-.06,0-.13-.03-.17-.07-.05-.05-.08-.12-.08-.18s.03-.13.07-.17c.1-.1.25-.1.35,0,.06.05.08.12.08.18s-.02.13-.07.17c-.05.06-.11.08-.18.08Z" fill="#231815"/>
        <path d="M67.5,30.75c-.06,0-.13-.03-.17-.07-.05-.05-.08-.11-.08-.18,0-.06.03-.13.07-.17.1-.1.26-.1.36,0,.05.06.07.12.07.18s-.02.13-.07.18c-.05.04-.11.07-.18.07Z" fill="#231815"/>
        <path d="M69.5,29.75c-.06,0-.13-.03-.17-.07-.05-.05-.08-.11-.08-.18s.03-.13.08-.18c.09-.09.25-.09.35,0,.05.05.07.11.07.18s-.02.13-.07.18c-.05.04-.11.07-.18.07Z" fill="#231815"/>
        <path d="M7.25,15.75c-.07,0-.13-.03-.18-.08-.04-.04-.07-.1-.07-.17s.03-.13.07-.18c.1-.09.26-.09.36,0,.04.05.07.11.07.18s-.03.13-.07.18c-.05.04-.11.07-.18.07Z" fill="#231815"/>
        <path d="M1.5,9c-.06,0-.13-.03-.18-.07-.04-.05-.07-.11-.07-.18s.03-.13.07-.18c.09-.09.26-.09.36,0,.05.05.07.12.07.18s-.02.13-.07.18c-.05.04-.11.07-.18.07Z" fill="#231815"/>
        <path d="M14.5,6.5c-.06,0-.12-.02-.17-.07-.05-.05-.08-.11-.08-.18,0-.06.03-.13.07-.17.11-.11.26-.1.36,0,.05.05.07.11.07.18s-.02.13-.07.18c-.05.05-.11.07-.18.07Z" fill="#231815"/>
        <path d="M8.5,5.25c-.06,0-.12-.02-.17-.07-.05-.05-.08-.11-.08-.18s.03-.13.07-.18c.1-.09.27-.09.36,0,.05.04.07.1.07.17,0,.06-.02.13-.07.18-.05.05-.11.07-.18.07Z" fill="#231815"/>
        <path d="M3.5,2.5c-.07,0-.13-.03-.18-.08-.04-.04-.07-.1-.07-.17s.03-.13.08-.18c.08-.09.25-.09.35,0,.04.05.07.11.07.18s-.03.13-.07.18c-.05.04-.11.07-.18.07Z" fill="#231815"/>
        <path d="M3.75,6c-.06,0-.13-.03-.17-.07-.05-.05-.08-.11-.08-.18,0-.06.03-.13.07-.18.09-.09.26-.09.36,0,.05.05.07.11.07.18s-.02.13-.07.18c-.05.05-.12.07-.18.07Z" fill="#231815"/>
        <path d="M12.75,14.25c-.06,0-.13-.03-.17-.07-.05-.05-.08-.12-.08-.18,0-.07.03-.13.07-.18.1-.09.26-.09.36,0,.05.05.07.11.07.18,0,.06-.02.13-.07.17-.05.06-.11.08-.18.08Z" fill="#231815"/>
        <path d="M18.5,19.25c-.06,0-.12-.02-.17-.07-.05-.05-.08-.11-.08-.18,0-.06.03-.13.07-.17.11-.11.27-.1.36,0,.05.06.07.12.07.18,0,.07-.02.13-.07.18-.05.04-.11.07-.18.07Z" fill="#231815"/>
        <path d="M21.25,37c-.06,0-.12-.02-.17-.07-.05-.05-.08-.12-.08-.18,0-.07.03-.13.07-.18.11-.09.26-.09.36,0,.05.05.07.11.07.18,0,.06-.02.13-.07.17-.05.06-.11.08-.18.08Z" fill="#231815"/>
        <path d="M.75,44.25c-.06,0-.13-.03-.17-.07-.05-.05-.08-.11-.08-.18s.03-.13.08-.18c.07-.08.25-.09.35,0,.04.04.07.1.07.17s-.03.13-.07.18c-.05.04-.11.07-.18.07Z" fill="#231815"/>
        <path d="M66.5,37.25c-.06,0-.13-.03-.17-.07-.05-.05-.08-.11-.08-.18s.03-.13.08-.18c.09-.09.25-.09.35,0,.05.05.07.12.07.18s-.02.13-.07.18c-.05.04-.11.07-.18.07Z" fill="#231815"/>
        <path d="M68,66c-.06,0-.13-.03-.17-.07-.05-.05-.08-.12-.08-.18,0-.07.03-.13.07-.18.1-.09.26-.09.36,0,.05.05.07.12.07.18s-.02.12-.07.17c-.05.05-.11.08-.18.08Z" fill="#231815"/>
        <path d="M59.75,69.75c-.07,0-.13-.03-.18-.08-.04-.04-.07-.1-.07-.17s.03-.13.08-.18c.09-.09.25-.09.35,0,.05.05.07.12.07.18,0,.07-.02.13-.07.18-.05.04-.11.07-.18.07Z" fill="#231815"/>
        <path d="M40.5,68c-.06,0-.12-.02-.17-.07-.05-.05-.08-.11-.08-.18s.03-.13.08-.18c.09-.09.25-.09.35,0,.05.05.07.12.07.18s-.02.13-.07.18c-.05.05-.12.07-.18.07Z" fill="#231815"/>
        <path d="M44,63c-.06,0-.12-.02-.17-.07-.05-.04-.08-.11-.08-.18s.03-.13.08-.18c.09-.09.25-.09.35,0,.05.05.07.12.07.18,0,.07-.02.13-.07.18-.05.05-.11.07-.18.07Z" fill="#231815"/>
        <path d="M25.75,70c-.06,0-.12-.02-.17-.07-.05-.05-.08-.11-.08-.18s.03-.13.08-.18c.09-.09.25-.09.35,0,.05.05.07.11.07.18,0,.06-.02.12-.07.17-.05.06-.11.08-.18.08Z" fill="#231815"/>
        <path d="M4.5,60c-.06,0-.12-.02-.17-.07-.05-.05-.08-.11-.08-.18,0-.06.03-.13.07-.17.11-.11.26-.1.36,0,.05.06.07.12.07.18s-.02.13-.07.18c-.05.05-.12.07-.18.07Z" fill="#231815"/>
        <path d="M26.5,59.5c-.06,0-.12-.02-.17-.07-.05-.05-.08-.11-.08-.18s.03-.13.08-.18c.1-.09.25-.09.35,0,.05.05.07.11.07.18,0,.06-.02.13-.07.18-.05.05-.11.07-.18.07Z" fill="#231815"/>
        <path d="M37.25,48.5c-.06,0-.12-.03-.17-.07-.05-.05-.08-.11-.08-.18s.03-.13.08-.18c.09-.09.24-.09.34,0,.06.05.08.12.08.18s-.02.13-.07.18c-.06.05-.12.07-.18.07Z" fill="#231815"/>
        <path d="M22,41.75c-.06,0-.12-.02-.17-.07-.05-.05-.08-.11-.08-.18s.03-.13.08-.18c.1-.09.25-.09.35,0,.05.05.07.12.07.18s-.02.13-.07.18c-.05.05-.12.07-.18.07Z" fill="#231815"/>
        <path d="M8.75,40.25c-.06,0-.13-.03-.17-.07-.05-.05-.08-.12-.08-.18,0-.07.03-.13.08-.18.09-.09.25-.09.35,0,.04.05.07.11.07.18s-.02.13-.07.18c-.05.05-.11.07-.18.07Z" fill="#231815"/>
        <path d="M24,29c-.06,0-.12-.02-.17-.07-.05-.05-.08-.11-.08-.18s.03-.13.08-.18c.1-.09.25-.09.35,0,.05.05.07.12.07.18s-.02.12-.07.17c-.05.06-.11.08-.18.08Z" fill="#231815"/>
        <path d="M41.5,34.5c-.06,0-.13-.03-.17-.07-.05-.05-.08-.11-.08-.18s.03-.13.08-.18c.09-.09.25-.09.34,0,.06.06.08.12.08.18s-.02.12-.07.17c-.05.06-.11.08-.18.08Z" fill="#231815"/>
        <path d="M51.5,37.5c-.06,0-.13-.03-.17-.07-.05-.05-.08-.11-.08-.18s.03-.13.08-.18c.09-.09.25-.09.35,0,.05.05.07.12.07.18s-.02.13-.07.17c-.05.06-.11.08-.18.08Z" fill="#231815"/>
        <path d="M60.75,46c-.06,0-.12-.03-.17-.07-.05-.05-.08-.11-.08-.18s.03-.14.08-.18c.09-.09.25-.09.35,0,.05.05.07.11.07.18s-.02.13-.07.18c-.05.04-.11.07-.18.07Z" fill="#231815"/>
        <path d="M67.5,43.75c-.06,0-.13-.03-.17-.07-.05-.05-.08-.11-.08-.18s.03-.13.08-.18c.08-.08.25-.09.35,0,.05.05.07.12.07.18s-.02.13-.07.18c-.05.04-.11.07-.18.07Z" fill="#231815"/>
        <path d="M51.25,66.25c-.06,0-.12-.02-.17-.07-.05-.05-.08-.11-.08-.18s.03-.13.08-.18c.09-.09.25-.09.35,0,.05.05.07.11.07.18s-.03.13-.07.18c-.05.05-.11.07-.18.07Z" fill="#231815"/>
        <path d="M40,37.75c-.06,0-.13-.03-.17-.07-.05-.05-.08-.11-.08-.18s.03-.13.08-.18c.09-.09.26-.09.35,0,.05.05.07.12.07.18s-.02.12-.07.17c-.05.05-.11.08-.18.08Z" fill="#231815"/>
        <path d="M53.25,15c-.06,0-.13-.03-.17-.07-.05-.05-.08-.11-.08-.18s.03-.13.08-.18c.07-.08.26-.09.35,0,.05.04.07.11.07.17s-.02.13-.07.18c-.05.04-.11.07-.18.07Z" fill="#231815"/>
        <path d="M34,16c-.07,0-.13-.03-.18-.08-.04-.04-.07-.1-.07-.17s.03-.14.08-.18c.09-.09.26-.09.35,0,.05.05.07.11.07.18,0,.06-.02.13-.07.18-.05.04-.11.07-.18.07Z" fill="#231815"/>
        <path d="M27.5,13.5c-.06,0-.12-.02-.17-.07-.05-.05-.08-.11-.08-.18s.03-.13.07-.17c.11-.11.26-.1.36,0,.05.05.07.12.07.18,0,.07-.02.13-.07.18-.05.05-.11.07-.18.07Z" fill="#231815"/>
        <path d="M12.75,19.25c-.06,0-.13-.03-.17-.07-.05-.05-.08-.11-.08-.18,0-.06.03-.12.07-.17.1-.1.26-.1.36,0,.05.05.07.12.07.18,0,.07-.02.13-.07.18-.05.05-.11.07-.18.07Z" fill="#231815"/>
        <path d="M19.75,26.5c-.06,0-.12-.02-.17-.07-.05-.05-.08-.11-.08-.18,0-.06.03-.12.07-.17.11-.11.26-.1.36,0,.05.05.07.12.07.18,0,.07-.02.13-.07.18-.05.05-.12.07-.18.07Z" fill="#231815"/>
        <path d="M49.5,4.5c-.06,0-.13-.03-.17-.07-.05-.04-.08-.11-.08-.18s.03-.14.08-.18c.08-.08.25-.09.35,0,.05.05.07.12.07.18s-.02.13-.07.18c-.05.04-.11.07-.18.07Z" fill="#231815"/>
        <path d="M11.75,1.75c-.06,0-.12-.02-.17-.07-.05-.05-.08-.11-.08-.18,0-.06.03-.13.07-.18.1-.09.27-.09.36,0,.05.05.07.12.07.18s-.02.13-.07.18c-.05.05-.11.07-.18.07Z" fill="#231815"/>
        <path d="M55.25,3.75c-.06,0-.13-.03-.17-.07-.05-.05-.08-.11-.08-.18s.03-.13.08-.18c.08-.09.25-.09.35,0,.05.05.07.12.07.18s-.02.13-.07.18c-.05.04-.11.07-.18.07Z" fill="#231815"/>
        <path d="M59,20.75c-.06,0-.13-.03-.17-.07-.05-.05-.08-.11-.08-.18s.03-.13.08-.18c.08-.09.25-.09.35,0,.05.06.07.12.07.18s-.02.12-.07.17c-.05.06-.11.08-.18.08Z" fill="#231815"/>
        <path d="M67.5,57.25c-.06,0-.13-.03-.17-.07-.05-.05-.08-.12-.08-.18,0-.07.03-.13.08-.18.09-.09.25-.09.35,0,.05.05.07.12.07.18s-.02.12-.07.17c-.05.05-.11.08-.18.08Z" fill="#231815"/>
        <path d="M47.25,69.75c-.06,0-.13-.03-.17-.07-.05-.04-.08-.11-.08-.18s.03-.14.08-.18c.08-.08.25-.09.35,0,.04.05.07.11.07.18s-.03.13-.07.18c-.05.05-.11.07-.18.07Z" fill="#231815"/>
        <path d="M5.25,69.75c-.06,0-.13-.03-.17-.07-.05-.05-.08-.11-.08-.18,0-.06.03-.12.07-.17.1-.1.26-.1.36,0,.05.05.07.12.07.18,0,.07-.02.13-.07.18s-.12.07-.18.07Z" fill="#231815"/>
        <path d="M4.75,40.25c-.06,0-.13-.03-.18-.07-.04-.05-.07-.11-.07-.18s.03-.13.07-.18c.09-.09.26-.09.36,0,.05.05.07.12.07.18s-.02.13-.07.18c-.05.04-.11.07-.18.07Z" fill="#231815"/>
        <path d="M69.75,12.75c-.07,0-.13-.03-.17-.07-.05-.05-.08-.11-.08-.18s.03-.13.08-.18c.09-.09.25-.09.35,0,.05.05.07.12.07.18s-.02.13-.07.18c-.05.04-.11.07-.18.07Z" fill="#231815"/>
        <path d="M23.25,14c-.06,0-.12-.02-.17-.07-.05-.05-.08-.11-.08-.18s.03-.13.07-.17c.11-.11.26-.1.36,0,.05.06.07.12.07.18s-.02.13-.07.18c-.05.05-.11.07-.18.07Z" fill="#231815"/>
        <path d="M20.5,17.25c-.06,0-.13-.03-.17-.07-.05-.04-.08-.11-.08-.18s.03-.14.08-.18c.07-.08.26-.09.35,0,.05.04.07.11.07.17s-.02.13-.07.18c-.05.04-.11.07-.18.07Z" fill="#231815"/>
        <path d="M14.75,17.25c-.06,0-.12-.02-.17-.07-.05-.05-.08-.11-.08-.18,0-.06.03-.13.07-.18.11-.09.26-.09.36,0,.05.05.07.12.07.18s-.02.13-.07.18c-.05.05-.11.07-.18.07Z" fill="#231815"/>
        <path d="M2.75,13.25c-.07,0-.13-.03-.17-.07-.05-.05-.08-.12-.08-.18,0-.07.03-.13.08-.18.09-.09.25-.09.35,0,.04.05.07.11.07.18s-.02.13-.07.18c-.05.04-.11.07-.18.07Z" fill="#231815"/>
        <path d="M6,11.75c-.06,0-.12-.02-.17-.07-.05-.05-.08-.12-.08-.18,0-.07.03-.13.07-.18.12-.1.26-.09.36,0,.05.05.07.11.07.18,0,.06-.02.12-.07.17-.05.06-.11.08-.18.08Z" fill="#231815"/>
        <path d="M7,2.75c-.06,0-.12-.02-.17-.07-.05-.05-.08-.12-.08-.18,0-.07.03-.13.07-.18.11-.09.26-.09.36,0,.05.05.07.12.07.18s-.02.12-.07.17c-.05.06-.11.08-.18.08Z" fill="#231815"/>
        <path d="M10,8.25c-.07,0-.13-.03-.18-.07-.04-.05-.07-.12-.07-.18,0-.07.03-.13.07-.18.09-.09.26-.09.36,0,.05.05.07.11.07.18,0,.06-.02.13-.07.17-.05.06-.11.08-.18.08Z" fill="#231815"/>
        <path d="M16,8.25c-.06,0-.13-.03-.18-.07-.04-.05-.07-.11-.07-.18s.03-.13.08-.18c.1-.09.25-.09.35,0,.05.05.07.12.07.18s-.02.13-.07.18c-.05.04-.11.07-.18.07Z" fill="#231815"/>
        <path d="M16.5,3.25c-.06,0-.12-.02-.17-.07-.05-.05-.08-.11-.08-.18s.03-.13.07-.18c.11-.1.26-.09.36,0,.05.05.07.11.07.18s-.02.13-.07.18c-.05.05-.12.07-.18.07Z" fill="#231815"/>
        <path d="M25.75,7c-.06,0-.12-.02-.17-.07-.05-.05-.08-.11-.08-.18s.03-.13.08-.18c.1-.09.25-.09.35,0,.05.05.07.12.07.18s-.02.13-.07.18c-.05.05-.11.07-.18.07Z" fill="#231815"/>
        <path d="M37,7.5c-.06,0-.12-.02-.17-.07-.05-.05-.08-.11-.08-.18s.03-.13.08-.18c.09-.09.26-.09.35,0,.05.05.07.11.07.18s-.02.13-.07.18c-.05.05-.12.07-.18.07Z" fill="#231815"/>
        <path d="M40.5,4.5c-.06,0-.13-.03-.17-.07-.05-.04-.08-.11-.08-.18s.03-.13.08-.18c.09-.09.25-.09.35,0,.05.06.07.12.07.18,0,.07-.02.13-.07.18-.05.04-.11.07-.18.07Z" fill="#231815"/>
        <path d="M37.5,4.25c-.06,0-.13-.03-.17-.07-.05-.04-.08-.11-.08-.18s.03-.13.08-.18c.08-.09.25-.09.35,0,.05.06.07.12.07.18s-.02.13-.07.18c-.05.05-.11.07-.18.07Z" fill="#231815"/>
        <path d="M43.25,2.25c-.07,0-.13-.03-.18-.08-.04-.04-.07-.1-.07-.17s.03-.13.08-.18c.09-.09.25-.09.35,0,.05.05.07.12.07.18s-.02.13-.07.18c-.05.04-.11.07-.18.07Z" fill="#231815"/>
        <path d="M49.5,8.25c-.06,0-.13-.03-.17-.07-.05-.04-.08-.11-.08-.18s.03-.14.08-.18c.08-.09.25-.09.35,0,.05.05.07.12.07.18s-.02.13-.07.18c-.05.04-.11.07-.18.07Z" fill="#231815"/>
        <path d="M46,9.25c-.06,0-.13-.03-.17-.07-.05-.05-.08-.11-.08-.18s.03-.13.08-.18c.08-.08.25-.09.35,0,.05.05.07.12.07.18s-.02.13-.07.18c-.05.04-.11.07-.18.07Z" fill="#231815"/>
        <path d="M35.75,11c-.06,0-.13-.03-.17-.07-.05-.05-.08-.11-.08-.18s.03-.13.08-.18c.09-.09.25-.09.35,0,.05.05.07.12.07.18s-.02.13-.07.18c-.05.04-.11.07-.18.07Z" fill="#231815"/>
        <path d="M39.25,15c-.06,0-.12-.02-.17-.07-.05-.05-.08-.11-.08-.18s.03-.13.08-.18c.09-.09.25-.09.35,0,.05.06.07.12.07.18s-.02.13-.07.18c-.05.05-.11.07-.18.07Z" fill="#231815"/>
        <path d="M24.75,18c-.06,0-.12-.02-.17-.07-.05-.05-.08-.11-.08-.18s.03-.13.07-.18c.1-.09.27-.09.36,0,.05.05.07.11.07.18s-.02.13-.07.18c-.05.05-.11.07-.18.07Z" fill="#231815"/>
        <path d="M8.25,27.25c-.06,0-.12-.02-.17-.07-.05-.05-.08-.11-.08-.18s.03-.13.07-.18c.12-.1.26-.09.36,0,.05.05.07.12.07.18,0,.07-.02.13-.07.18-.05.04-.11.07-.18.07Z" fill="#231815"/>
        <path d="M16,31.75c-.06,0-.13-.03-.18-.07-.04-.05-.07-.11-.07-.18s.03-.13.08-.18c.1-.09.25-.09.35,0,.05.05.07.12.07.18s-.02.13-.07.18c-.05.04-.11.07-.18.07Z" fill="#231815"/>
        <path d="M10.5,33.5c-.06,0-.12-.02-.17-.07-.05-.05-.08-.12-.08-.18,0-.07.03-.13.07-.18.11-.1.26-.09.36,0,.05.05.07.12.07.18s-.02.12-.07.17c-.05.06-.11.08-.18.08Z" fill="#231815"/>
        <path d="M5.25,37c-.06,0-.13-.03-.17-.07-.05-.05-.08-.11-.08-.18,0-.06.03-.12.07-.17.1-.1.26-.1.36,0,.05.05.07.12.07.18,0,.07-.02.13-.07.18-.05.05-.12.07-.18.07Z" fill="#231815"/>
        <path d="M2.75,32c-.06,0-.13-.03-.17-.07-.05-.05-.08-.12-.08-.18,0-.07.03-.13.08-.18.09-.09.25-.09.35,0,.04.05.07.11.07.18s-.02.13-.07.18c-.05.04-.11.07-.18.07Z" fill="#231815"/>
        <path d="M7.5,25c-.07,0-.13-.03-.18-.07-.04-.05-.07-.11-.07-.18s.03-.13.07-.18c.11-.09.25-.09.35,0,.06.05.08.12.08.18s-.02.13-.07.18c-.05.04-.11.07-.18.07Z" fill="#231815"/>
        <path d="M3.25,20.5c-.06,0-.13-.03-.17-.07-.05-.05-.08-.11-.08-.18,0-.06.03-.13.07-.17.1-.1.26-.1.36,0,.05.05.07.12.07.18,0,.07-.02.13-.07.18-.05.05-.12.07-.18.07Z" fill="#231815"/>
        <path d="M20.5,30.75c-.06,0-.13-.03-.17-.07-.05-.05-.08-.11-.08-.18s.03-.13.08-.18c.09-.09.25-.09.35,0,.05.06.07.12.07.18s-.02.12-.07.17c-.05.05-.11.08-.18.08Z" fill="#231815"/>
        <path d="M17.5,35.5c-.06,0-.12-.03-.17-.07-.05-.06-.08-.12-.08-.18,0-.07.03-.13.07-.18.11-.09.26-.09.36,0,.05.05.07.11.07.18,0,.06-.02.13-.07.17-.05.05-.11.08-.18.08Z" fill="#231815"/>
        <path d="M16,39c-.06,0-.12-.02-.17-.07-.05-.05-.08-.11-.08-.18s.03-.13.08-.18c.09-.09.25-.09.35,0,.05.05.07.12.07.18s-.02.13-.07.18c-.05.05-.12.07-.18.07Z" fill="#231815"/>
        <path d="M12.75,41.25c-.06,0-.13-.03-.17-.07-.05-.05-.08-.11-.08-.18,0-.06.03-.13.07-.18.1-.09.26-.09.36,0,.05.05.07.11.07.18s-.02.13-.07.18c-.05.04-.11.07-.18.07Z" fill="#231815"/>
        <path d="M12.75,46.5c-.07,0-.13-.03-.17-.07-.05-.05-.08-.12-.08-.18,0-.07.03-.13.07-.18.1-.09.26-.09.36,0,.05.05.07.11.07.18s-.02.13-.07.18c-.05.05-.11.07-.18.07Z" fill="#231815"/>
        <path d="M4,46.75c-.06,0-.13-.03-.17-.07-.05-.05-.08-.11-.08-.18,0-.06.03-.13.07-.18.1-.09.26-.09.35,0,.06.05.08.12.08.18,0,.07-.02.13-.07.18-.05.05-.12.07-.18.07Z" fill="#231815"/>
        <path d="M5.75,48.5c-.07,0-.13-.03-.18-.08-.04-.04-.07-.1-.07-.17s.03-.13.07-.18c.1-.09.26-.09.36,0,.05.05.07.11.07.18s-.02.13-.07.18c-.05.04-.11.07-.18.07Z" fill="#231815"/>
        <path d="M11,50.5c-.06,0-.12-.02-.17-.07-.05-.05-.08-.11-.08-.18,0-.06.03-.13.07-.17.11-.11.26-.1.36,0,.05.06.07.12.07.18s-.02.13-.07.18c-.05.05-.12.07-.18.07Z" fill="#231815"/>
        <path d="M11,54.5c-.06,0-.13-.03-.18-.07-.04-.05-.07-.11-.07-.18s.03-.13.07-.18c.11-.09.26-.09.36,0,.05.05.07.12.07.18s-.02.13-.07.18c-.05.04-.11.07-.18.07Z" fill="#231815"/>
        <path d="M15.5,58.5c-.06,0-.12-.03-.17-.07-.05-.05-.08-.11-.08-.18s.03-.13.07-.18c.11-.09.26-.09.36,0,.05.05.07.12.07.18s-.02.13-.07.18c-.05.04-.11.07-.18.07Z" fill="#231815"/>
        <path d="M10,59.75c-.07,0-.13-.03-.18-.07-.04-.05-.07-.12-.07-.18,0-.07.03-.13.07-.18.1-.09.25-.09.36,0,.05.05.07.11.07.18,0,.06-.02.13-.07.18-.05.05-.11.07-.18.07Z" fill="#231815"/>
        <path d="M6,63.5c-.06,0-.12-.02-.17-.07-.05-.05-.08-.12-.08-.18,0-.07.03-.13.07-.18.12-.1.26-.09.36,0,.05.05.07.11.07.18,0,.06-.02.12-.07.17-.05.06-.11.08-.18.08Z" fill="#231815"/>
        <path d="M2.25,62c-.06,0-.12-.02-.17-.07-.05-.05-.08-.11-.08-.18s.03-.13.07-.18c.11-.09.25-.09.35,0,.06.05.08.12.08.18s-.02.13-.07.18c-.06.05-.12.07-.18.07Z" fill="#231815"/>
        <path d="M7.25,67.75c-.06,0-.13-.03-.17-.07-.05-.05-.08-.12-.08-.18,0-.07.03-.13.07-.18.1-.09.26-.09.36,0,.04.05.07.11.07.18s-.02.13-.07.17c-.05.06-.11.08-.18.08Z" fill="#231815"/>
        <path d="M13.5,69.5c-.06,0-.12-.02-.17-.07-.05-.05-.08-.12-.08-.18,0-.07.03-.13.07-.18.11-.09.26-.09.36,0,.05.05.07.12.07.18s-.02.12-.07.17c-.05.06-.11.08-.18.08Z" fill="#231815"/>
        <path d="M13.5,65.75c-.06,0-.12-.02-.17-.07-.05-.05-.08-.11-.08-.18,0-.06.03-.13.07-.17.11-.11.26-.1.36,0,.05.06.07.12.07.18s-.02.13-.07.18c-.05.05-.11.07-.18.07Z" fill="#231815"/>
        <path d="M21.5,68.5c-.06,0-.12-.02-.17-.07-.05-.05-.08-.11-.08-.18s.03-.13.08-.18c.09-.09.25-.09.35,0,.05.05.07.12.07.18s-.02.12-.07.17c-.05.06-.11.08-.18.08Z" fill="#231815"/>
        <path d="M23,65.75c-.06,0-.12-.02-.17-.07-.05-.05-.08-.11-.08-.18,0-.06.03-.12.07-.17.11-.11.26-.1.36,0,.05.05.07.12.07.18,0,.07-.02.13-.07.18-.05.05-.11.07-.18.07Z" fill="#231815"/>
        <path d="M22.25,60c-.06,0-.12-.02-.17-.07-.05-.05-.08-.11-.08-.18,0-.06.03-.12.07-.17.11-.11.26-.1.36,0,.05.05.07.12.07.18,0,.07-.02.13-.07.18-.05.05-.12.07-.18.07Z" fill="#231815"/>
        <path d="M24.25,57.5c-.06,0-.12-.02-.17-.07-.05-.05-.08-.11-.08-.18s.03-.13.08-.18c.1-.09.25-.09.35,0,.05.05.07.12.07.18s-.02.13-.07.18c-.05.05-.11.07-.18.07Z" fill="#231815"/>
        <path d="M22,53.25c-.06,0-.12-.02-.17-.07-.05-.05-.08-.11-.08-.18s.03-.13.07-.17c.11-.11.26-.1.36,0,.05.06.07.12.07.18s-.02.13-.07.18c-.05.05-.11.07-.18.07Z" fill="#231815"/>
        <path d="M26.25,47.75c-.06,0-.12-.02-.17-.07-.05-.05-.08-.11-.08-.18s.03-.13.08-.18c.09-.09.25-.09.35,0,.05.05.07.12.07.18s-.02.13-.07.18c-.05.05-.11.07-.18.07Z" fill="#231815"/>
        <path d="M25.75,43.5c-.06,0-.12-.02-.17-.07-.05-.05-.08-.11-.08-.18s.03-.13.07-.18c.11-.09.26-.09.36,0,.05.06.07.12.07.18,0,.07-.02.13-.07.18-.05.05-.11.07-.18.07Z" fill="#231815"/>
        <path d="M31.25,37.5c-.06,0-.12-.03-.17-.07-.05-.05-.08-.12-.08-.18s.03-.13.07-.17c.11-.11.26-.1.36,0,.05.06.07.12.07.18s-.02.12-.07.17c-.05.05-.11.08-.18.08Z" fill="#231815"/>
        <path d="M32.25,31c-.06,0-.12-.02-.17-.07-.05-.05-.08-.11-.08-.18,0-.06.03-.12.07-.17.11-.11.26-.1.36,0,.05.05.07.12.07.18,0,.07-.03.13-.07.18-.05.05-.11.07-.18.07Z" fill="#231815"/>
        <path d="M26,34c-.06,0-.12-.02-.17-.07-.05-.05-.08-.11-.08-.18s.03-.13.08-.18c.1-.09.25-.09.35,0,.05.05.07.12.07.18s-.02.13-.07.18c-.05.05-.11.07-.18.07Z" fill="#231815"/>
        <path d="M34.25,27.75c-.06,0-.13-.03-.17-.07-.05-.05-.08-.11-.08-.18s.03-.13.08-.18c.09-.09.25-.09.35,0,.05.06.07.12.07.18s-.02.13-.07.18c-.05.04-.11.07-.18.07Z" fill="#231815"/>
        <path d="M37.25,28.5c-.06,0-.13-.03-.17-.07-.05-.05-.08-.11-.08-.18s.03-.13.08-.18c.09-.09.25-.09.34,0,.06.05.08.12.08.18s-.02.12-.07.17c-.05.06-.11.08-.18.08Z" fill="#231815"/>
        <path d="M41.75,25.75c-.06,0-.12-.03-.17-.07-.05-.05-.08-.11-.08-.18s.03-.13.08-.18c.09-.09.26-.09.35,0,.05.06.07.12.07.18s-.02.12-.07.17c-.05.05-.11.08-.18.08Z" fill="#231815"/>
        <path d="M43,20.75c-.06,0-.12-.02-.17-.07-.05-.05-.08-.11-.08-.18s.03-.13.08-.18c.09-.09.25-.09.35,0,.05.05.07.12.07.18s-.02.13-.07.18c-.05.05-.12.07-.18.07Z" fill="#231815"/>
        <path d="M36.5,19.25c-.06,0-.13-.03-.17-.07-.05-.04-.08-.11-.08-.18s.03-.14.08-.18c.08-.08.25-.09.35,0,.05.05.07.12.07.18s-.02.13-.07.18c-.05.05-.11.07-.18.07Z" fill="#231815"/>
        <path d="M27.75,22.25c-.06,0-.12-.03-.17-.07-.05-.05-.08-.12-.08-.18s.03-.13.07-.17c.11-.11.26-.1.36,0,.05.05.07.11.07.18s-.02.13-.07.18c-.05.04-.11.07-.18.07Z" fill="#231815"/>
        <path d="M52,22c-.06,0-.13-.03-.17-.07-.05-.05-.08-.11-.08-.18s.03-.13.08-.18c.09-.09.25-.09.35,0,.05.06.07.12.07.18s-.02.12-.07.17c-.05.05-.11.08-.18.08Z" fill="#231815"/>
        <path d="M43.25,17.75c-.06,0-.13-.03-.17-.07-.05-.05-.08-.11-.08-.18,0-.06.03-.13.07-.18.11-.09.26-.09.36,0,.05.06.07.12.07.18s-.02.12-.07.17c-.05.06-.11.08-.18.08Z" fill="#231815"/>
        <path d="M50.5,18c-.06,0-.13-.03-.17-.07-.05-.05-.08-.11-.08-.18s.03-.13.08-.18c.08-.09.25-.09.35,0,.05.06.07.12.07.18s-.02.12-.07.17c-.05.05-.11.08-.18.08Z" fill="#231815"/>
        <path d="M59.5,17.25c-.06,0-.13-.03-.17-.07-.05-.05-.08-.11-.08-.18s.03-.13.08-.18c.08-.09.25-.09.35,0,.05.05.07.12.07.18s-.02.13-.07.18c-.05.04-.11.07-.18.07Z" fill="#231815"/>
        <path d="M58.25,14c-.06,0-.13-.03-.17-.07-.05-.05-.08-.11-.08-.18s.03-.13.08-.18c.08-.09.26-.09.35,0,.05.05.07.11.07.18,0,.06-.02.13-.07.18-.05.04-.11.07-.18.07Z" fill="#231815"/>
        <path d="M61.5,11c-.06,0-.12-.02-.17-.07-.05-.05-.08-.11-.08-.18s.03-.14.08-.18c.09-.09.25-.09.35,0,.04.05.07.11.07.18s-.03.13-.07.18c-.05.05-.11.07-.18.07Z" fill="#231815"/>
        <path d="M58.75,7.5c-.06,0-.12-.02-.17-.07-.05-.05-.08-.11-.08-.18s.03-.13.08-.18c.09-.09.25-.09.35,0,.05.05.07.11.07.18s-.02.13-.07.18c-.05.05-.11.07-.18.07Z" fill="#231815"/>
        <path d="M60,4.75c-.06,0-.13-.03-.17-.07-.05-.05-.08-.11-.08-.18s.03-.13.07-.18c.11-.09.26-.09.36,0,.05.05.07.11.07.18s-.02.13-.07.17c-.05.06-.11.08-.18.08Z" fill="#231815"/>
        <path d="M67.5,6c-.06,0-.13-.03-.17-.07-.05-.05-.08-.12-.08-.18s.03-.13.07-.17c.1-.1.26-.1.36,0,.05.06.07.12.07.18s-.02.12-.07.17c-.05.05-.11.08-.18.08Z" fill="#231815"/>
        <path d="M69.5,8c-.06,0-.12-.03-.17-.07-.05-.05-.08-.11-.08-.18,0-.06.03-.13.07-.18.11-.09.26-.09.36,0,.05.05.07.12.07.18,0,.07-.02.13-.07.18-.05.05-.11.07-.18.07Z" fill="#231815"/>
        <path d="M65.75,9.75c-.06,0-.13-.03-.17-.07-.05-.05-.08-.11-.08-.18s.03-.13.08-.18c.08-.09.26-.09.35,0,.05.05.07.12.07.18s-.02.13-.07.18c-.05.04-.11.07-.18.07Z" fill="#231815"/>
        <path d="M61.75,16.5c-.06,0-.13-.03-.17-.07-.05-.05-.08-.11-.08-.18s.03-.13.08-.18c.09-.09.25-.09.35,0,.05.05.07.12.07.18s-.02.13-.07.17c-.05.06-.11.08-.18.08Z" fill="#231815"/>
        <path d="M60.25,23.75c-.06,0-.12-.03-.17-.07-.05-.05-.08-.11-.08-.18s.03-.13.08-.18c.09-.09.25-.09.35,0,.04.05.07.11.07.18s-.02.13-.07.18c-.05.05-.11.07-.18.07Z" fill="#231815"/>
        <path d="M55.5,23.75c-.06,0-.13-.03-.17-.07-.05-.05-.08-.12-.08-.18s.03-.13.08-.18c.09-.09.25-.09.35,0,.05.05.07.12.07.18s-.02.13-.07.18c-.05.04-.11.07-.18.07Z" fill="#231815"/>
        <path d="M55.5,18.75c-.06,0-.13-.03-.17-.07-.05-.05-.08-.12-.08-.18s.03-.13.08-.18c.09-.09.25-.09.35,0,.05.05.07.12.07.18s-.02.13-.07.18c-.05.04-.11.07-.18.07Z" fill="#231815"/>
        <path d="M65,25.75c-.06,0-.12-.03-.17-.07-.05-.05-.08-.11-.08-.18s.03-.13.08-.18c.09-.09.25-.09.35,0,.05.05.07.12.07.18,0,.07-.02.13-.07.18-.05.05-.11.07-.18.07Z" fill="#231815"/>
        <path d="M61.25,27c-.06,0-.13-.03-.17-.07-.05-.05-.08-.11-.08-.18s.03-.13.08-.18c.09-.09.25-.09.35,0,.05.05.07.11.07.18s-.03.13-.07.18c-.05.04-.11.07-.18.07Z" fill="#231815"/>
        <path d="M57.75,30.75c-.06,0-.12-.02-.17-.07-.05-.05-.08-.11-.08-.18s.03-.13.08-.18c.09-.09.25-.09.35,0,.05.05.07.11.07.18s-.02.13-.07.17c-.05.06-.11.08-.18.08Z" fill="#231815"/>
        <path d="M52.75,32.75c-.06,0-.13-.03-.17-.07-.05-.05-.08-.11-.08-.18s.03-.13.08-.18c.09-.09.25-.09.35,0,.05.05.07.12.07.18s-.02.13-.07.17c-.05.06-.11.08-.18.08Z" fill="#231815"/>
        <path d="M47.5,33.75c-.06,0-.12-.03-.17-.07-.05-.05-.08-.11-.08-.18s.03-.13.08-.18c.09-.09.25-.09.34,0,.06.06.08.12.08.18s-.02.12-.07.17c-.06.06-.11.08-.18.08Z" fill="#231815"/>
        <path d="M44.25,39.25c-.06,0-.12-.03-.17-.07-.05-.05-.08-.11-.08-.18s.03-.13.08-.18c.09-.09.25-.09.35,0,.05.05.07.11.07.18s-.02.13-.07.18c-.05.05-.12.07-.18.07Z" fill="#231815"/>
        <path d="M34,41.5c-.06,0-.12-.02-.17-.07-.05-.05-.08-.11-.08-.18s.03-.13.08-.18c.09-.09.25-.09.35,0,.05.05.07.12.07.18s-.02.13-.07.18c-.05.04-.11.07-.18.07Z" fill="#231815"/>
        <path d="M40.75,48c-.06,0-.12-.02-.17-.07-.05-.05-.08-.11-.08-.18s.03-.13.08-.18c.1-.09.25-.09.35,0,.04.05.07.11.07.18s-.03.13-.07.18c-.05.05-.11.07-.18.07Z" fill="#231815"/>
        <path d="M45.75,52.25c-.06,0-.12-.02-.17-.07-.05-.05-.08-.11-.08-.18s.03-.13.08-.18c.09-.09.25-.09.35,0,.05.05.07.11.07.18s-.03.13-.07.18c-.05.05-.11.07-.18.07Z" fill="#231815"/>
        <path d="M46.5,56.75c-.06,0-.12-.03-.17-.07-.05-.05-.08-.11-.08-.18s.03-.13.08-.18c.09-.09.25-.09.35,0,.05.05.07.12.07.18s-.02.13-.07.17c-.05.06-.11.08-.18.08Z" fill="#231815"/>
        <path d="M42,59.5c-.06,0-.12-.02-.17-.07-.05-.05-.08-.11-.08-.18s.03-.13.08-.18c.1-.09.25-.09.35,0,.04.05.07.11.07.18s-.02.13-.07.18c-.05.05-.12.07-.18.07Z" fill="#231815"/>
        <path d="M40,62.75c-.06,0-.12-.03-.17-.07-.05-.05-.08-.11-.08-.18s.03-.14.08-.18c.09-.09.26-.09.35,0,.05.05.07.11.07.18,0,.06-.02.13-.07.18-.05.04-.11.07-.18.07Z" fill="#231815"/>
        <path d="M36,62.75c-.06,0-.12-.02-.17-.07-.05-.05-.08-.11-.08-.18s.03-.13.08-.18c.1-.09.26-.09.35,0,.05.06.07.12.07.18s-.02.13-.07.18c-.05.04-.11.07-.18.07Z" fill="#231815"/>
        <path d="M36.5,52.75c-.07,0-.13-.03-.17-.07-.05-.05-.08-.11-.08-.18s.03-.13.08-.18c.09-.09.25-.09.35,0,.05.06.07.12.07.18s-.02.12-.07.17c-.05.05-.11.08-.18.08Z" fill="#231815"/>
        <path d="M30,63.5c-.06,0-.13-.03-.17-.07-.05-.05-.08-.11-.08-.18s.03-.13.08-.18c.09-.09.25-.09.35,0,.05.05.07.12.07.18s-.02.13-.07.17c-.05.05-.11.08-.18.08Z" fill="#231815"/>
        <path d="M31.5,68.5c-.07,0-.13-.03-.18-.08-.04-.04-.07-.1-.07-.17s.03-.14.08-.18c.09-.08.25-.09.34,0,.06.05.08.11.08.18,0,.06-.02.13-.07.18-.05.04-.11.07-.18.07Z" fill="#231815"/>
        <path d="M37,71c-.06,0-.12-.02-.17-.07-.05-.05-.08-.11-.08-.18s.03-.13.08-.18c.1-.09.25-.09.35,0,.05.05.07.11.07.18s-.02.13-.07.18c-.05.05-.11.07-.18.07Z" fill="#231815"/>
        <path d="M58.75,57c-.06,0-.12-.02-.17-.07-.05-.05-.08-.11-.08-.18s.03-.13.08-.18c.09-.09.25-.09.35,0,.05.05.07.11.07.18s-.02.13-.07.18c-.05.05-.11.07-.18.07Z" fill="#231815"/>
        <path d="M63,57c-.06,0-.12-.03-.17-.07-.05-.05-.08-.11-.08-.18s.03-.13.08-.18c.09-.09.25-.09.35,0,.05.05.07.11.07.18s-.02.13-.07.17c-.05.06-.11.08-.18.08Z" fill="#231815"/>
        <path d="M60,50.75c-.06,0-.12-.03-.17-.07-.05-.05-.08-.11-.08-.18s.03-.14.08-.18c.09-.09.25-.09.35,0,.04.05.07.11.07.18s-.02.13-.07.18c-.05.04-.11.07-.18.07Z" fill="#231815"/>
        <path d="M54.5,50.5c-.07,0-.13-.03-.17-.07-.05-.05-.08-.12-.08-.18s.03-.13.07-.17c.1-.1.26-.1.36,0,.05.06.07.12.07.18s-.02.12-.07.17c-.05.05-.11.08-.18.08Z" fill="#231815"/>
        <path d="M59.25,44.25c-.06,0-.13-.03-.17-.07-.05-.05-.08-.12-.08-.18s.03-.13.07-.17c.1-.1.27-.1.36,0,.05.06.07.12.07.18s-.02.12-.07.17c-.04.05-.11.08-.18.08Z" fill="#231815"/>
        <path d="M54.75,41.75c-.06,0-.13-.03-.17-.07-.05-.05-.08-.12-.08-.18s.03-.13.08-.18c.08-.09.25-.09.35,0,.05.05.07.12.07.18s-.02.13-.07.18c-.05.04-.11.07-.18.07Z" fill="#231815"/>
        <path d="M55.75,35.5c-.06,0-.12-.02-.17-.07-.05-.05-.08-.11-.08-.18s.03-.13.08-.18c.09-.09.25-.09.35,0,.05.05.07.11.07.18s-.02.13-.07.18c-.05.05-.11.07-.18.07Z" fill="#231815"/>
        <path d="M62.5,42.25c-.06,0-.13-.03-.17-.07-.05-.05-.08-.11-.08-.18s.03-.13.08-.18c.08-.08.24-.09.34,0,.06.05.08.12.08.18s-.02.13-.07.18c-.05.05-.12.07-.18.07Z" fill="#231815"/>
        <path d="M67,47.5c-.06,0-.13-.03-.17-.07-.05-.05-.08-.11-.08-.18s.03-.13.08-.18c.08-.08.25-.09.35,0,.05.05.07.11.07.18s-.03.13-.07.18c-.05.05-.11.07-.18.07Z" fill="#231815"/>
        <path d="M69.5,54.25c-.06,0-.13-.03-.17-.07-.05-.05-.08-.11-.08-.18s.03-.13.08-.18c.09-.09.25-.09.35,0,.05.05.07.11.07.18s-.02.13-.07.18c-.05.04-.11.07-.18.07Z" fill="#231815"/>
        <path d="M63.5,61.75c-.06,0-.13-.03-.17-.07-.05-.05-.08-.12-.08-.18,0-.07.03-.13.08-.18.07-.08.25-.1.35,0,.05.05.07.12.07.18s-.02.12-.07.17c-.05.06-.11.08-.18.08Z" fill="#231815"/>
        <path d="M69.25,63.5c-.06,0-.12-.02-.17-.07-.05-.05-.08-.11-.08-.18s.03-.13.08-.18c.09-.09.25-.09.35,0,.05.05.07.12.07.18s-.02.13-.07.17c-.05.06-.11.08-.18.08Z" fill="#231815"/>
        <path d="M64.75,65.5c-.07,0-.13-.03-.17-.07-.05-.05-.08-.12-.08-.18s.03-.12.07-.17c.1-.1.27-.1.36,0,.05.06.07.12.07.18s-.02.12-.07.17c-.04.05-.11.08-.18.08Z" fill="#231815"/>
        <path d="M65.75,68.25c-.06,0-.13-.03-.17-.07-.05-.05-.08-.11-.08-.18s.03-.13.08-.18c.08-.09.26-.09.35,0,.05.05.07.12.07.18,0,.07-.02.13-.07.18-.05.04-.11.07-.18.07Z" fill="#231815"/>
        <path d="M69.25,70.5c-.06,0-.13-.03-.17-.07-.05-.05-.08-.12-.08-.18,0-.07.03-.13.08-.18.09-.09.25-.09.35,0,.05.05.07.11.07.18,0,.06-.02.13-.07.17-.05.06-.11.08-.18.08Z" fill="#231815"/>
        <path d="M62.5,70.25c-.06,0-.13-.03-.17-.07-.05-.05-.08-.11-.08-.18s.03-.13.08-.18c.08-.08.24-.1.34,0,.06.05.08.12.08.18s-.02.13-.07.18c-.06.05-.12.07-.18.07Z" fill="#231815"/>
        <path d="M60.75,65.75c-.06,0-.13-.03-.17-.07-.05-.05-.08-.11-.08-.18s.03-.13.08-.18c.09-.09.25-.09.35,0,.05.05.07.12.07.18s-.02.13-.07.17c-.05.06-.11.08-.18.08Z" fill="#231815"/>
        <path d="M52.75,69.75c-.06,0-.13-.03-.17-.07-.05-.05-.08-.11-.08-.18s.03-.13.08-.18c.09-.09.25-.09.35,0,.05.05.07.12.07.18s-.02.13-.07.17c-.05.06-.11.08-.18.08Z" fill="#231815"/>
        <path d="M44.75,66.5c-.07,0-.13-.03-.17-.07-.05-.05-.08-.11-.08-.18s.03-.13.08-.18c.09-.09.25-.09.35,0,.05.05.07.11.07.18,0,.06-.02.13-.07.17-.05.05-.11.08-.18.08Z" fill="#231815"/>
        <path d="M44.5,71.25c-.06,0-.12-.03-.17-.07-.05-.05-.08-.11-.08-.18s.03-.13.08-.18c.09-.09.25-.09.35,0,.05.05.07.11.07.18s-.02.13-.07.18c-.05.05-.12.07-.18.07Z" fill="#231815"/>
        <path d="M28.5,71.25c-.07,0-.13-.03-.18-.08-.04-.04-.07-.1-.07-.17s.03-.13.08-.18c.09-.09.25-.09.35,0,.05.05.07.12.07.18s-.02.13-.07.18c-.04.04-.11.07-.18.07Z" fill="#231815"/>
        <path d="M.75,29.5c-.06,0-.13-.03-.17-.07-.05-.05-.08-.12-.08-.18,0-.07.03-.13.08-.18.08-.09.24-.09.35,0,.04.05.07.11.07.18s-.02.13-.07.18c-.05.05-.11.07-.18.07Z" fill="#231815"/>
        <path d="M24.5,1c-.06,0-.12-.02-.17-.07-.05-.05-.08-.12-.08-.18,0-.07.03-.13.07-.18.11-.09.26-.09.36,0,.04.05.07.11.07.18s-.02.13-.07.17c-.05.06-.11.08-.18.08Z" fill="#231815"/>
        <path d="M13.25,5c-.07,0-.13-.03-.18-.07-.04-.05-.07-.12-.07-.18,0-.07.03-.13.07-.18.09-.09.26-.09.36,0,.05.05.07.11.07.18,0,.06-.02.13-.07.17-.05.06-.11.08-.18.08Z" fill="#231815"/>
        <path d="M71,35.25c-.06,0-.13-.03-.17-.07-.05-.05-.08-.11-.08-.18s.03-.13.08-.18c.08-.08.25-.09.35,0,.05.05.07.11.07.18s-.02.13-.07.18c-.05.05-.11.07-.18.07Z" fill="#231815"/>
      </g>
    </pattern>
  </defs>
  <path d="M38.13,15.76v-4.28c1.99-.99,3.33-2.88,3.33-5.05,0-3.19-2.89-5.77-6.46-5.77s-6.46,2.59-6.46,5.77c0,2.17,1.35,4.07,3.33,5.05v4.28c-15.91.89-28.34,8.5-28.34,17.75,0,9.85,14.09,17.84,31.47,17.84s31.47-7.99,31.47-17.84c0-9.25-12.43-16.86-28.34-17.75ZM35.22,7.59c-.83,0-1.5-.6-1.5-1.34s.67-1.34,1.5-1.34,1.5.6,1.5,1.34-.67,1.34-1.5,1.34Z" fill="#fff"/>
  <path d="M38.13,15.76v-4.28c1.99-.99,3.33-2.88,3.33-5.05,0-3.19-2.89-5.77-6.46-5.77s-6.46,2.59-6.46,5.77c0,2.17,1.35,4.07,3.33,5.05v4.28c-15.91.89-28.34,8.5-28.34,17.75,0,9.85,14.09,17.84,31.47,17.84s31.47-7.99,31.47-17.84c0-9.25-12.43-16.86-28.34-17.75ZM35.22,7.59c-.83,0-1.5-.6-1.5-1.34s.67-1.34,1.5-1.34,1.5.6,1.5,1.34-.67,1.34-1.5,1.34Z" fill="url(#USGS_17_마른_호수_모래_바닥)" stroke="#000" stroke-linecap="round" stroke-linejoin="bevel" stroke-width="1.01"/>
  <path d="M44.87,23.81c-.86-.86-3.27.14-5.37,2.23-1.02,1.02-1.78,2.12-2.2,3.07h-4.41c-.41-.95-1.17-2.05-2.2-3.07-2.1-2.1-4.5-3.1-5.37-2.23-.86.86.14,3.27,2.23,5.37,2.1,2.1,4.5,3.1,5.37,2.23.32-.32.39-.86.23-1.52h3.87c-.16.66-.1,1.2.23,1.52.86.86,3.27-.14,5.37-2.23,2.1-2.1,3.1-4.5,2.23-5.37Z" stroke="#000" stroke-miterlimit="10" stroke-width=".39"/>
  <circle cx="35.1" cy="40.52" r=".86" stroke="#000" stroke-miterlimit="10" stroke-width=".68"/>
  <line x1="10.47" y1="34.11" x2="17.58" y2="34.11" fill="#fff" stroke="#000" stroke-miterlimit="10" stroke-width=".68"/>
  <line x1="10.47" y1="37.12" x2="17.58" y2="37.12" fill="#fff" stroke="#000" stroke-miterlimit="10" stroke-width=".68"/>
  <line x1="52.62" y1="34.11" x2="59.73" y2="34.11" fill="#fff" stroke="#000" stroke-miterlimit="10" stroke-width=".68"/>
  <line x1="52.62" y1="37.12" x2="59.73" y2="37.12" fill="#fff" stroke="#000" stroke-miterlimit="10" stroke-width=".68"/>
</svg>