<?xml version="1.0" encoding="UTF-8"?>
<svg id="_아이콘" data-name="아이콘" xmlns="http://www.w3.org/2000/svg" width="68.37" height="47.79" xmlns:xlink="http://www.w3.org/1999/xlink" viewBox="0 0 68.37 47.79">
  <defs>
    <pattern id="_6_dpi_90_dot_pink" data-name="6 dpi 90 dot pink" x="0" y="0" width="48" height="48" patternTransform="translate(-1455.78 514.19)" patternUnits="userSpaceOnUse" viewBox="0 0 48 48">
      <g>
        <rect width="48" height="48" fill="none"/>
        <g>
          <path d="M24,58.8c5.96,0,10.8-4.83,10.8-10.8s-4.84-10.8-10.8-10.8-10.8,4.84-10.8,10.8,4.83,10.8,10.8,10.8Z" fill="#fcc"/>
          <circle cx="48" cy="48" r="10.8" fill="#fcc"/>
          <path d="M24,34.8c5.96,0,10.8-4.83,10.8-10.8s-4.84-10.8-10.8-10.8-10.8,4.84-10.8,10.8,4.83,10.8,10.8,10.8Z" fill="#fcc"/>
          <circle cx="48" cy="24" r="10.8" fill="#fcc"/>
          <path d="M36,46.8c5.96,0,10.8-4.83,10.8-10.8s-4.84-10.8-10.8-10.8-10.8,4.84-10.8,10.8,4.83,10.8,10.8,10.8Z" fill="#fcc"/>
          <path d="M12,46.8c5.96,0,10.8-4.83,10.8-10.8s-4.84-10.8-10.8-10.8S1.2,30.04,1.2,36s4.83,10.8,10.8,10.8Z" fill="#fcc"/>
          <path d="M36,22.8c5.96,0,10.8-4.83,10.8-10.8S41.96,1.2,36,1.2s-10.8,4.84-10.8,10.8,4.83,10.8,10.8,10.8Z" fill="#fcc"/>
          <path d="M12,22.8c5.96,0,10.8-4.83,10.8-10.8S17.96,1.2,12,1.2,1.2,6.04,1.2,12s4.83,10.8,10.8,10.8Z" fill="#fcc"/>
        </g>
        <g>
          <circle cy="48" r="10.8" fill="#fcc"/>
          <circle cy="24" r="10.8" fill="#fcc"/>
        </g>
        <g>
          <path d="M24,10.8c5.96,0,10.8-4.83,10.8-10.8s-4.84-10.8-10.8-10.8S13.2-5.96,13.2,0s4.83,10.8,10.8,10.8Z" fill="#fcc"/>
          <circle cx="48" r="10.8" fill="#fcc"/>
        </g>
        <circle r="10.8" fill="#fcc"/>
      </g>
    </pattern>
  </defs>
  <g>
    <path d="M67.78,23.88c0-.75-.18-1.44-.36-2.14s-.49-1.34-.85-1.97-.7-1.26-1.21-1.79-1.01-1.05-1.64-1.43c.63-.38,1.07-.96,1.58-1.49s1.11-.98,1.47-1.62.69-1.31.88-2.03.03-1.44.03-2.2c0-.66.03-1.28-.11-1.9s-.31-1.25-.59-1.82-.49-1.23-.89-1.73-1.07-.75-1.57-1.15-.94-.88-1.52-1.16-1.16-.59-1.8-.74-1.28-.16-1.94-.16c-.73,0-1.4.27-2.08.44s-1.35.38-1.97.72-1.2.73-1.72,1.21-.95,1.03-1.34,1.62-.7,1.27-.93,1.94c-.23.19-.41.07-.64-.12-.23-.68-.44-1.37-.83-1.96s-.96-1.08-1.48-1.56-1.14-.84-1.77-1.18-1.25-.7-1.94-.88-1.4-.22-2.13-.22-1.39.32-2.06.49-1.34.37-1.96.71-1.38.51-1.9.99-.96,1.09-1.35,1.68-.75,1.19-.99,1.86c-.07.1.04.14-.03.05-.23-.68-.54-1.32-.93-1.91s-.88-1.14-1.4-1.62-1.19-.76-1.82-1.09-1.26-.58-1.95-.76-1.35-.36-2.08-.36-1.46,0-2.13.17-1.39.44-2,.77-1.03.98-1.55,1.46-.97.98-1.36,1.57-.82,1.16-1.05,1.83c-.23.19-.44.24-.67.05-.23-.68-.37-1.47-.76-2.05s-1.09-.93-1.61-1.41-.89-1.19-1.51-1.53-1.38-.36-2.08-.54-1.36-.44-2.09-.44c-.66,0-1.32.11-1.93.25s-1.29.3-1.86.58-1.02.81-1.52,1.21-1.05.77-1.45,1.27-.83,1.02-1.12,1.6-.44,1.23-.59,1.86-.17,1.28-.17,1.93c0,.75.33,1.43.51,2.13s.39,1.39.75,2.02.7,1.29,1.21,1.82.96.98,1.58,1.37c-.63.38-1.1.82-1.61,1.34s-.82,1.2-1.18,1.84-.83,1.23-1.02,1.95-.19,1.45-.19,2.2,0,1.51.17,2.2.56,1.38.91,2.01.96,1.09,1.47,1.61.81,1.12,1.44,1.5c-.63.38-1.16.75-1.67,1.28s-.96,1.15-1.33,1.79-.42,1.4-.61,2.12-.34,1.4-.34,2.15c0,.66.18,1.26.32,1.88s.3,1.23.57,1.81.59,1.13.99,1.63.92.85,1.42,1.25.95.83,1.54,1.11,1.1.75,1.74.9,1.3.16,1.96.16,1.3-.1,1.91-.23,1.27-.31,1.84-.58,1.06-.74,1.56-1.13,1.04-.77,1.44-1.26.46-1.2.74-1.77.77-1.02.93-1.64c.04-.07.15-.18.18-.11.15.62.17,1.32.45,1.88s.57,1.18.97,1.66,1.11.67,1.61,1.06.88.96,1.45,1.24,1.21.41,1.83.55,1.24-.02,1.89-.02c.75,0,1.51.22,2.21.03s1.35-.61,1.99-.97,1.38-.63,1.91-1.14.73-1.3,1.12-1.92.8-1.15,1.01-1.87c.21.71.39,1.39.77,2.01s.83,1.27,1.36,1.78,1.16.97,1.81,1.33,1.39.52,2.11.71,1.44.34,2.19.34c.65,0,1.27-.21,1.88-.34s1.29-.18,1.86-.45.95-.87,1.44-1.26,1.08-.68,1.48-1.17.79-1,1.08-1.57.53-1.14.68-1.76c.04-.07.21-.21.25-.13.15.62.18,1.32.46,1.88s.52,1.2.92,1.69.87.97,1.37,1.37,1.07.75,1.65,1.02,1.29.12,1.91.26,1.2.32,1.84.32,1.29-.05,1.9-.19,1.32-.18,1.89-.46,1.14-.67,1.64-1.07.78-1.04,1.18-1.54.99-.9,1.27-1.48.19-1.28.33-1.92.37-1.22.37-1.87c0-.75.1-1.53-.08-2.22s-.54-1.42-.9-2.05-.87-1.22-1.38-1.74-1.04-.94-1.67-1.32c.63-.38,1.03-.92,1.54-1.44s.88-1.12,1.25-1.76.93-1.19,1.12-1.91.07-1.46.07-2.21Z" fill="url(#_6_dpi_90_dot_pink)"/>
    <path d="M67.78,23.88c0-.75-.18-1.44-.36-2.14s-.49-1.34-.85-1.97-.7-1.26-1.21-1.79-1.01-1.05-1.64-1.43c.63-.38,1.07-.96,1.58-1.49s1.11-.98,1.47-1.62.69-1.31.88-2.03.03-1.44.03-2.2c0-.66.03-1.28-.11-1.9s-.31-1.25-.59-1.82-.49-1.23-.89-1.73-1.07-.75-1.57-1.15-.94-.88-1.52-1.16-1.16-.59-1.8-.74-1.28-.16-1.94-.16c-.73,0-1.4.27-2.08.44s-1.35.38-1.97.72-1.2.73-1.72,1.21-.95,1.03-1.34,1.62-.7,1.27-.93,1.94c-.23.19-.41.07-.64-.12-.23-.68-.44-1.37-.83-1.96s-.96-1.08-1.48-1.56-1.14-.84-1.77-1.18-1.25-.7-1.94-.88-1.4-.22-2.13-.22-1.39.32-2.06.49-1.34.37-1.96.71-1.38.51-1.9.99-.96,1.09-1.35,1.68-.75,1.19-.99,1.86c-.07.1.04.14-.03.05-.23-.68-.54-1.32-.93-1.91s-.88-1.14-1.4-1.62-1.19-.76-1.82-1.09-1.26-.58-1.95-.76-1.35-.36-2.08-.36-1.46,0-2.13.17-1.39.44-2,.77-1.03.98-1.55,1.46-.97.98-1.36,1.57-.82,1.16-1.05,1.83c-.23.19-.44.24-.67.05-.23-.68-.37-1.47-.76-2.05s-1.09-.93-1.61-1.41-.89-1.19-1.51-1.53-1.38-.36-2.08-.54-1.36-.44-2.09-.44c-.66,0-1.32.11-1.93.25s-1.29.3-1.86.58-1.02.81-1.52,1.21-1.05.77-1.45,1.27-.83,1.02-1.12,1.6-.44,1.23-.59,1.86-.17,1.28-.17,1.93c0,.75.33,1.43.51,2.13s.39,1.39.75,2.02.7,1.29,1.21,1.82.96.98,1.58,1.37c-.63.38-1.1.82-1.61,1.34s-.82,1.2-1.18,1.84-.83,1.23-1.02,1.95-.19,1.45-.19,2.2,0,1.51.17,2.2.56,1.38.91,2.01.96,1.09,1.47,1.61.81,1.12,1.44,1.5c-.63.38-1.16.75-1.67,1.28s-.96,1.15-1.33,1.79-.42,1.4-.61,2.12-.34,1.4-.34,2.15c0,.66.18,1.26.32,1.88s.3,1.23.57,1.81.59,1.13.99,1.63.92.85,1.42,1.25.95.83,1.54,1.11,1.1.75,1.74.9,1.3.16,1.96.16,1.3-.1,1.91-.23,1.27-.31,1.84-.58,1.06-.74,1.56-1.13,1.04-.77,1.44-1.26.46-1.2.74-1.77.77-1.02.93-1.64c.04-.07.15-.18.18-.11.15.62.17,1.32.45,1.88s.57,1.18.97,1.66,1.11.67,1.61,1.06.88.96,1.45,1.24,1.21.41,1.83.55,1.24-.02,1.89-.02c.75,0,1.51.22,2.21.03s1.35-.61,1.99-.97,1.38-.63,1.91-1.14.73-1.3,1.12-1.92.8-1.15,1.01-1.87c.21.71.39,1.39.77,2.01s.83,1.27,1.36,1.78,1.16.97,1.81,1.33,1.39.52,2.11.71,1.44.34,2.19.34c.65,0,1.27-.21,1.88-.34s1.29-.18,1.86-.45.95-.87,1.44-1.26,1.08-.68,1.48-1.17.79-1,1.08-1.57.53-1.14.68-1.76c.04-.07.21-.21.25-.13.15.62.18,1.32.46,1.88s.52,1.2.92,1.69.87.97,1.37,1.37,1.07.75,1.65,1.02,1.29.12,1.91.26,1.2.32,1.84.32,1.29-.05,1.9-.19,1.32-.18,1.89-.46,1.14-.67,1.64-1.07.78-1.04,1.18-1.54.99-.9,1.27-1.48.19-1.28.33-1.92.37-1.22.37-1.87c0-.75.1-1.53-.08-2.22s-.54-1.42-.9-2.05-.87-1.22-1.38-1.74-1.04-.94-1.67-1.32c.63-.38,1.03-.92,1.54-1.44s.88-1.12,1.25-1.76.93-1.19,1.12-1.91.07-1.46.07-2.21Z" fill="none" stroke="#000" stroke-linecap="round" stroke-linejoin="bevel" stroke-width="1.01"/>
  </g>
  <ellipse cx="28.94" cy="18.01" rx=".99" ry="1.3" stroke="#000" stroke-miterlimit="10" stroke-width=".68"/>
  <ellipse cx="40.1" cy="18.01" rx=".99" ry="1.3" stroke="#000" stroke-miterlimit="10" stroke-width=".68"/>
  <circle cx="34.2" cy="32.56" r=".93" stroke="#000" stroke-miterlimit="10" stroke-width=".68"/>
  <line x1="7.5" y1="26.48" x2="15.21" y2="26.48" stroke="#000" stroke-miterlimit="10" stroke-width=".68"/>
  <line x1="7.5" y1="29.74" x2="15.21" y2="29.74" stroke="#000" stroke-miterlimit="10" stroke-width=".68"/>
  <line x1="53.19" y1="26.48" x2="60.91" y2="26.48" stroke="#000" stroke-miterlimit="10" stroke-width=".68"/>
  <line x1="53.19" y1="29.74" x2="60.91" y2="29.74" stroke="#000" stroke-miterlimit="10" stroke-width=".68"/>
  <path d="M26.47,18.64c0-5.14,3.46-5.14,3.46,0" fill="none" stroke="#000" stroke-miterlimit="10" stroke-width=".68"/>
  <path d="M37.63,18.64c0-5.14,3.46-5.14,3.46,0" fill="none" stroke="#000" stroke-miterlimit="10" stroke-width=".68"/>
</svg>