<?xml version="1.0" encoding="UTF-8"?>
<svg id="_레이어_1" data-name="레이어_1" xmlns="http://www.w3.org/2000/svg" width="48" height="46" version="1.1" viewBox="0 0 48 46">
  <!-- Generator: Adobe Illustrator 29.6.1, SVG Export Plug-In . SVG Version: 2.1.1 Build 9)  -->
  <path d="M43.58,8.05S35.56-3.15,23.33,3.13c-2.55,1.31-4.19,3.18-5.19,5.28h3.78c1.22-2.04,3.34-3.6,6.94-3.85,10.8-.76,13.31,10.83,13.31,10.83l4.62-.32c-1.22-4.44-3.21-7.01-3.21-7.01h0Z" fill="#fcc"/>
  <path d="M21.91,8.66c-4.29-.41-7.93.53-10.77,1.82-5.16,2.35-8.69,7.28-9.48,12.9-.31,2.19-.37,4.74.1,7.5,1.53,8.94,10.91,13.71,10.91,13.71l2.51-2.89c-5.59-2.32-7.77-7.6-7.77-7.6,0,0-7.44-15.76,5.81-20.31,13.25-4.55,15.87,7.03,15.87,7.03,0,0,1.28,5.34-2.32,5.59-1.8.13-2.88-.81-3.73-1.55-.96-.84-2-4.32-2.18-5.28-.24-1.33-.62-3.87-.36-6.49l-3.67.11c-.41,3.87.42,7.73,1.06,9.98.56,2,1.56,3.86,3.03,5.33,1.58,1.59,3.94,3,7.06,2.33,6.24-1.34,5.67-9.45,5.67-9.45,0,0-.82-11.7-11.75-12.75v.02Z" fill="#fcc"/>
  <path d="M43.58,8.05S35.56-3.15,23.33,3.13c-2.55,1.31-4.19,3.18-5.19,5.28h3.78c1.22-2.04,3.34-3.6,6.94-3.85,10.8-.76,13.31,10.83,13.31,10.83l4.62-.32c-1.22-4.44-3.21-7.01-3.21-7.01h0Z" fill="none" stroke="#000" stroke-linecap="round" stroke-linejoin="round" stroke-width="1.5"/>
  <path d="M21.91,8.66c-4.29-.41-7.93.53-10.77,1.82-5.16,2.35-8.69,7.28-9.48,12.9-.31,2.19-.37,4.74.1,7.5,1.53,8.94,10.91,13.71,10.91,13.71l2.51-2.89c-5.59-2.32-7.77-7.6-7.77-7.6,0,0-7.44-15.76,5.81-20.31,13.25-4.55,15.87,7.03,15.87,7.03,0,0,1.28,5.34-2.32,5.59-1.8.13-2.88-.81-3.73-1.55-.96-.84-2-4.32-2.18-5.28-.24-1.33-.62-3.87-.36-6.49l-3.67.11c-.41,3.87.42,7.73,1.06,9.98.56,2,1.56,3.86,3.03,5.33,1.58,1.59,3.94,3,7.06,2.33,6.24-1.34,5.67-9.45,5.67-9.45,0,0-.82-11.7-11.75-12.75v.02Z" fill="none" stroke="#000" stroke-linecap="round" stroke-linejoin="round" stroke-width="1.5"/>
</svg>