<?xml version="1.0" encoding="UTF-8"?>
<svg id="_레이어_1" data-name=" 레이어 1" xmlns="http://www.w3.org/2000/svg" width="48" height="46" xmlns:xlink="http://www.w3.org/1999/xlink" viewBox="0 0 48 46">
  <defs>
    <pattern id="USGS_19_침수_지역_3" data-name="USGS 19 침수 지역 3" x="0" y="0" width="75.48" height="70.75" patternTransform="translate(-29.23 422.5)" patternUnits="userSpaceOnUse" viewBox="0 0 75.48 70.75">
      <g>
        <rect width="75.48" height="70.75" fill="none"/>
        <line x1="0" y1="70.37" x2="73.44" y2="70.37" fill="none" stroke="#b0ffd2" stroke-dasharray="2 2" stroke-width=".75"/>
        <line x1="0" y1="66.37" x2="73.44" y2="66.37" fill="none" stroke="#b0ffd2" stroke-dasharray="2 2" stroke-width=".75"/>
        <line x1="0" y1="62.37" x2="73.44" y2="62.37" fill="none" stroke="#b0ffd2" stroke-dasharray="2 2" stroke-width=".75"/>
        <line x1="0" y1="58.37" x2="73.44" y2="58.37" fill="none" stroke="#b0ffd2" stroke-dasharray="2 2" stroke-width=".75"/>
        <line x1="0" y1="54.37" x2="73.44" y2="54.37" fill="none" stroke="#b0ffd2" stroke-dasharray="2 2" stroke-width=".75"/>
        <line x1="0" y1="50.37" x2="73.44" y2="50.37" fill="none" stroke="#b0ffd2" stroke-dasharray="2 2" stroke-width=".75"/>
        <line x1="0" y1="46.37" x2="73.44" y2="46.37" fill="none" stroke="#b0ffd2" stroke-dasharray="2 2" stroke-width=".75"/>
        <line x1="0" y1="42.37" x2="73.44" y2="42.37" fill="none" stroke="#b0ffd2" stroke-dasharray="2 2" stroke-width=".75"/>
        <line x1="0" y1="38.37" x2="73.44" y2="38.37" fill="none" stroke="#b0ffd2" stroke-dasharray="2 2" stroke-width=".75"/>
        <line x1="0" y1="34.37" x2="73.44" y2="34.37" fill="none" stroke="#b0ffd2" stroke-dasharray="2 2" stroke-width=".75"/>
        <line x1="0" y1="30.37" x2="73.44" y2="30.37" fill="none" stroke="#b0ffd2" stroke-dasharray="2 2" stroke-width=".75"/>
        <line x1="0" y1="26.37" x2="73.44" y2="26.37" fill="none" stroke="#b0ffd2" stroke-dasharray="2 2" stroke-width=".75"/>
        <line x1="0" y1="22.37" x2="73.44" y2="22.37" fill="none" stroke="#b0ffd2" stroke-dasharray="2 2" stroke-width=".75"/>
        <line x1="0" y1="18.37" x2="73.44" y2="18.37" fill="none" stroke="#b0ffd2" stroke-dasharray="2 2" stroke-width=".75"/>
        <line x1="0" y1="14.37" x2="73.44" y2="14.37" fill="none" stroke="#b0ffd2" stroke-dasharray="2 2" stroke-width=".75"/>
        <line x1="0" y1="10.37" x2="73.44" y2="10.37" fill="none" stroke="#b0ffd2" stroke-dasharray="2 2" stroke-width=".75"/>
        <line x1="0" y1="6.37" x2="73.44" y2="6.37" fill="none" stroke="#b0ffd2" stroke-dasharray="2 2" stroke-width=".75"/>
        <line x1="0" y1="2.37" x2="73.44" y2="2.37" fill="none" stroke="#b0ffd2" stroke-dasharray="2 2" stroke-width=".75"/>
        <line x1="2.04" y1="68.37" x2="75.48" y2="68.37" fill="none" stroke="#b0ffd2" stroke-dasharray="2 2" stroke-width=".75"/>
        <line x1="2.04" y1="64.37" x2="75.48" y2="64.37" fill="none" stroke="#b0ffd2" stroke-dasharray="2 2" stroke-width=".75"/>
        <line x1="2.04" y1="60.37" x2="75.48" y2="60.37" fill="none" stroke="#b0ffd2" stroke-dasharray="2 2" stroke-width=".75"/>
        <line x1="2.04" y1="56.37" x2="75.48" y2="56.37" fill="none" stroke="#b0ffd2" stroke-dasharray="2 2" stroke-width=".75"/>
        <line x1="2.04" y1="52.37" x2="75.48" y2="52.37" fill="none" stroke="#b0ffd2" stroke-dasharray="2 2" stroke-width=".75"/>
        <line x1="2.04" y1="48.37" x2="75.48" y2="48.37" fill="none" stroke="#b0ffd2" stroke-dasharray="2 2" stroke-width=".75"/>
        <line x1="2.04" y1="44.37" x2="75.48" y2="44.37" fill="none" stroke="#b0ffd2" stroke-dasharray="2 2" stroke-width=".75"/>
        <line x1="2.04" y1="40.37" x2="75.48" y2="40.37" fill="none" stroke="#b0ffd2" stroke-dasharray="2 2" stroke-width=".75"/>
        <line x1="2.04" y1="36.37" x2="75.48" y2="36.37" fill="none" stroke="#b0ffd2" stroke-dasharray="2 2" stroke-width=".75"/>
        <line x1="2.04" y1="32.37" x2="75.48" y2="32.37" fill="none" stroke="#b0ffd2" stroke-dasharray="2 2" stroke-width=".75"/>
        <line x1="2.04" y1="28.37" x2="75.48" y2="28.37" fill="none" stroke="#b0ffd2" stroke-dasharray="2 2" stroke-width=".75"/>
        <line x1="2.04" y1="24.37" x2="75.48" y2="24.37" fill="none" stroke="#b0ffd2" stroke-dasharray="2 2" stroke-width=".75"/>
        <line x1="2.04" y1="20.37" x2="75.48" y2="20.37" fill="none" stroke="#b0ffd2" stroke-dasharray="2 2" stroke-width=".75"/>
        <line x1="2.04" y1="16.37" x2="75.48" y2="16.37" fill="none" stroke="#b0ffd2" stroke-dasharray="2 2" stroke-width=".75"/>
        <line x1="2.04" y1="12.37" x2="75.48" y2="12.37" fill="none" stroke="#b0ffd2" stroke-dasharray="2 2" stroke-width=".75"/>
        <line x1="2.04" y1="8.37" x2="75.48" y2="8.37" fill="none" stroke="#b0ffd2" stroke-dasharray="2 2" stroke-width=".75"/>
        <line x1="2.04" y1="4.37" x2="75.48" y2="4.37" fill="none" stroke="#b0ffd2" stroke-dasharray="2 2" stroke-width=".75"/>
        <line x1="2.04" y1=".37" x2="75.48" y2=".37" fill="none" stroke="#b0ffd2" stroke-dasharray="2 2" stroke-width=".75"/>
      </g>
    </pattern>
  </defs>
  <path d="M21.91,8.66c-4.29-.41-7.93.53-10.77,1.82-5.16,2.35-8.69,7.28-9.48,12.9-.31,2.19-.37,4.74.1,7.5,1.53,8.94,10.91,13.71,10.91,13.71l2.51-2.89c-5.59-2.32-7.77-7.6-7.77-7.6,0,0-7.44-15.76,5.81-20.31,13.25-4.55,15.87,7.03,15.87,7.03,0,0,1.28,5.34-2.32,5.59-1.8.13-2.88-.81-3.73-1.55-.96-.84-2-4.32-2.18-5.28-.24-1.33-.62-3.87-.36-6.49l-3.67.11c-.41,3.87.42,7.73,1.06,9.98.56,2,1.56,3.86,3.03,5.33,1.58,1.59,3.94,3,7.06,2.33,6.24-1.34,5.67-9.45,5.67-9.45,0,0-.82-11.7-11.75-12.75v.02h0Z" fill="url(#USGS_19_침수_지역_3)" stroke="#000" stroke-linecap="round" stroke-linejoin="round"/>
  <path d="M43.58,8.05S35.56-3.15,23.33,3.13c-2.55,1.31-4.19,3.18-5.19,5.28h3.78c1.22-2.04,3.34-3.6,6.94-3.85,10.8-.76,13.31,10.83,13.31,10.83l4.62-.32c-1.22-4.44-3.21-7.01-3.21-7.01h0Z" fill="url(#USGS_19_침수_지역_3)" stroke="#000" stroke-linecap="round" stroke-linejoin="round"/>
  <path d="M21.91,8.66c-4.29-.41-7.93.53-10.77,1.82-5.16,2.35-8.69,7.28-9.48,12.9-.31,2.19-.37,4.74.1,7.5,1.53,8.94,10.91,13.71,10.91,13.71l2.51-2.89c-5.59-2.32-7.77-7.6-7.77-7.6,0,0-7.44-15.76,5.81-20.31,13.25-4.55,15.87,7.03,15.87,7.03,0,0,1.28,5.34-2.32,5.59-1.8.13-2.88-.81-3.73-1.55-.96-.84-2-4.32-2.18-5.28-.24-1.33-.62-3.87-.36-6.49l-3.67.11c-.41,3.87.42,7.73,1.06,9.98.56,2,1.56,3.86,3.03,5.33,1.58,1.59,3.94,3,7.06,2.33,6.24-1.34,5.67-9.45,5.67-9.45,0,0-.82-11.7-11.75-12.75v.02h0Z" fill="none" stroke="#000" stroke-linecap="round" stroke-linejoin="round" stroke-width="1.5"/>
</svg>