<svg width="298" height="237" viewBox="0 0 298 237" fill="none" xmlns="http://www.w3.org/2000/svg">
<path d="M122.789 117.728C125.16 117.722 127.078 115.82 127.071 113.481C127.065 111.142 125.138 109.251 122.766 109.257C120.395 109.263 118.478 111.165 118.484 113.504C118.49 115.843 120.418 117.734 122.789 117.728Z" fill="#1B1B1B"/>
<path d="M160.785 117.63C163.038 117.624 164.859 115.723 164.853 113.383C164.847 111.044 163.015 109.153 160.763 109.159C158.51 109.165 156.689 111.066 156.695 113.405C156.701 115.745 158.533 117.636 160.785 117.63Z" fill="#1B1B1B"/>
<path d="M142.031 168.054C144.284 168.048 146.105 166.146 146.099 163.807C146.093 161.468 144.261 159.577 142.009 159.583C139.756 159.589 137.935 161.49 137.941 163.829C137.947 166.169 139.779 168.06 142.031 168.054Z" fill="#1B1B1B"/>
<path d="M46.8564 142.011L74.3356 141.936" stroke="#1B1B1B" stroke-width="0.602496" stroke-miterlimit="10"/>
<path d="M46.8887 154.051L74.3678 153.976" stroke="#1B1B1B" stroke-width="0.602496" stroke-miterlimit="10"/>
<path d="M209.15 141.57L236.63 141.496" stroke="#1B1B1B" stroke-width="0.602496" stroke-miterlimit="10"/>
<path d="M209.182 153.61L236.661 153.536" stroke="#1B1B1B" stroke-width="0.602496" stroke-miterlimit="10"/>
<path d="M191.846 6.31662C191.846 6.31662 193.048 5.53178 193.073 5.58381C193.124 5.68789 190.649 9.15966 190.725 9.26367C190.775 9.34169 193.755 7.32753 193.806 7.40556C193.906 7.58766 188.929 13.4891 189.03 13.6712C189.106 13.8274 194.791 10.0082 194.867 10.1383C194.968 10.3204 189.665 16.353 189.766 16.5351C189.892 16.7692 194.474 13.396 194.6 13.6041C194.676 13.7341 190.672 17.7311 190.748 17.8612C190.899 18.1213 192.049 16.7374 192.201 16.9975C192.301 17.1796 185.717 22.4601 185.818 22.6422C185.994 22.9544 193.833 17.4099 194.009 17.696C194.185 17.9821 184.75 26.7355 184.901 27.0217C185.103 27.4119 197.45 18.9373 197.651 19.3275C197.828 19.6397 185.832 27.8007 186.008 28.1129C186.235 28.5291 191.943 23.9544 192.195 24.3966C192.271 24.5006 188.542 28.1321 188.618 28.2622C188.87 28.7304 196.607 22.8215 196.859 23.2898C196.985 23.5239 189.025 30.2671 189.151 30.5013C189.428 31.0216 195.236 26.1339 195.513 26.6543C195.665 26.9144 186.854 34.7542 186.98 35.0144C187.308 35.5867 192.689 30.8044 193.017 31.3766C193.219 31.7408 179.895 40.8173 180.097 41.1815C180.45 41.8059 199.658 28.5449 200.011 29.1693C200.263 29.6115 184.613 41.013 184.865 41.4552C185.243 42.1316 197.888 32.6661 198.266 33.3685C198.569 33.9148 178.18 46.7361 178.483 47.2563C178.886 47.9847 196.14 35.6149 196.568 36.3432" stroke="#FF7F81" stroke-width="4.31951" stroke-linecap="round" stroke-linejoin="round"/>
<path d="M35.3383 84.7992C35.8172 85.6316 61.3861 67.9507 61.8651 68.8092C62.2937 69.5636 32.5844 87.0472 33.0131 87.8277C33.6937 89.0243 72.1853 62.5807 72.8409 63.8034C73.5973 65.1561 21.7448 96.0127 22.5011 97.3393C23.8624 99.7586 108.085 42.475 109.446 44.8942C110.807 47.3135 18.6674 99.2255 20.0035 101.567C21.4405 104.116 111.724 42.8299 113.161 45.3792C114.597 47.9285 18.2238 102.197 19.5853 104.668C21.0727 107.321 113.91 44.2048 115.397 46.8582C116.885 49.5115 9.23896 110.48 10.7769 113.237C12.3148 115.995 111.338 48.8752 112.876 51.6587C114.414 54.4422 8.1961 114.521 9.70884 117.252C11.2216 119.984 109.719 53.1262 111.307 55.9617C112.82 58.6671 7.75622 118.899 9.26889 121.604C11.0085 124.726 118.521 51.5392 120.261 54.6609C121.849 57.4963 10.8477 120.923 12.436 123.758C14.3017 127.114 124.618 51.6009 126.484 54.9567C128.349 58.3124 2.96699 129.281 4.75697 132.481C6.74865 136.044 132.143 50.8511 134.16 54.4409C136.025 57.7706 5.0296 131.229 6.8952 134.559C8.98766 138.279 137.612 50.7321 139.705 54.452C141.621 57.8858 6.63814 132.267 8.5542 135.701C10.6971 139.525 148.213 46.3526 150.356 50.1765C152.499 54.0005 8.99728 132.521 11.0143 136.163C13.2076 140.065 143.96 50.741 146.153 54.643C148.195 58.3109 4.06758 137.354 6.10965 140.996C8.35335 144.976 147.096 50.6283 149.34 54.6083C151.407 58.3022 6.38275 139.901 8.45012 143.621C10.7695 147.757 160.207 46.5286 162.526 50.6907C164.846 54.8529 8.945 141.067 11.1635 145.021C13.5334 149.261 158.536 50.441 160.931 54.6811C163.326 58.9213 3.7431 147.281 6.0121 151.339C8.45757 155.71 166.685 48.5692 169.131 52.9395C171.576 57.3097 6.50681 148.707 8.85143 152.895C11.7507 158.072 194.295 34.1134 197.194 39.29C200.094 44.4667 3.58021 151.997 6.37862 156.992C9.17702 161.986 200.339 33.0549 203.238 38.2316C206.137 43.4082 9.12103 150.523 11.9194 155.492C14.7177 160.46 198.415 36.0562 201.314 41.2329C204.214 46.4095 9.28029 153.753 12.0284 158.696C14.9277 163.899 202.281 36.9836 205.181 42.1863C208.08 47.3891 8.46446 158.263 11.3133 163.335C14.162 168.408 197.659 43.9783 200.558 49.181C203.306 54.0976 8.94549 159.877 11.6935 164.793C14.5928 169.996 197.212 45.9335 200.112 51.1362C202.86 56.0267 10.2062 162.192 12.9542 167.083C15.8534 172.259 204.41 44.6635 207.334 49.8401C210.258 55.0167 15.122 161.528 17.8701 166.47C20.6181 171.413 206.395 45.8305 209.294 51.0071C212.193 56.1838 14.8312 165.332 17.6547 170.353C20.4783 175.373 202.447 51.9636 205.321 57.1403C208.196 62.3171 14.0874 168.643 16.8354 173.559C19.7347 178.736 207.364 51.7418 210.238 56.8925C213.112 62.0432 16.6503 170.017 19.4236 175.011C22.1969 180.006 206.37 55.3398 209.244 60.5166C212.119 65.6933 19.0397 172.199 21.7876 177.089C24.6868 182.266 211.665 55.6381 214.564 60.8148C217.463 65.9915 22.0268 172.764 24.8 177.706C27.7244 182.909 211.17 58.3229 214.07 63.5257C216.969 68.7284 18.5566 179.182 21.3803 184.229C24.2039 189.275 219.949 57.4134 222.899 62.6681C225.849 67.9228 27.1069 177.205 29.9305 182.252C32.9054 187.558 216.025 62.9212 218.975 68.228C221.748 73.1705 27.6191 181.085 30.3923 186.028C33.3923 191.361 219.968 64.5258 222.943 69.8846C225.918 75.2435 26.2767 185.674 29.1255 190.747C32.1257 196.132 225.039 65.3718 228.039 70.7566C230.837 75.7512 33.2456 183.467 36.0441 188.488C39.0693 193.872 229.778 64.4211 232.804 69.8058C235.829 75.1906 29.0169 187.725 31.9666 192.98C34.9162 198.235 233.516 64.1765 236.541 69.5873C239.567 74.9981 35.3087 185.598 38.2079 190.748C41.1071 195.899 233.019 66.0015 236.044 71.4124C239.07 76.8232 33.8174 190.812 36.7419 196.041C39.6664 201.27 232.229 70.8495 235.255 76.2864C238.104 81.385 37.1833 192.262 40.0322 197.361C43.0828 202.824 237.749 70.8085 240.799 76.2453C243.673 81.396 41.7782 193.553 44.6523 198.703C47.7028 204.166 239.413 73.9304 242.464 79.3932C245.313 84.4919 45.4726 195.861 48.3214 200.96C51.372 206.423 244.084 75.5591 247.135 81.0219C250.185 86.4848 43.1265 200.453 46.0762 205.734C49.0259 211.014 250.982 74.8109 254.058 80.2998C257.133 85.7886 49.6734 199.888 52.623 205.143C55.5726 210.397 250.715 78.3548 253.791 83.8176C256.867 89.2804 48.4065 204.607 51.3814 209.914C54.3562 215.221 253.081 80.9537 256.131 86.3905C259.182 91.8273 53.7999 204.254 56.6992 209.457C59.5985 214.659 253.188 83.6369 256.239 89.0997C259.037 94.1204 61.4482 202.774 64.2717 207.769C67.2971 213.206 254.173 85.9529 257.199 91.3898C259.997 96.3844 62.8324 204.334 65.6308 209.328C68.6561 214.739 258.964 85.471 261.989 90.8818C264.838 95.9805 64.6198 206.595 67.4686 211.694C70.4939 217.079 265.311 85.1412 268.336 90.526C271.361 95.9107 63.4493 209.829 66.3989 215.084C69.3486 220.338 263.164 89.2113 266.164 94.5961C268.988 99.6427 70.799 209.236 73.6226 214.283C76.6226 219.615 264.802 91.8121 267.777 97.171C270.55 102.14 75.1184 210.735 77.8916 215.704C80.8665 221.011 266.466 94.8819 269.416 100.163C272.189 105.131 76.1527 212.843 78.9261 217.838C81.8758 223.118 271.108 94.8693 274.032 100.15C276.957 105.431 77.0629 215.394 79.9117 220.466C82.7605 225.539 271.693 97.7857 274.642 103.014C277.39 107.905 84.1069 213.108 86.8548 217.998C89.7792 223.201 269.443 100.892 272.342 106.121C275.065 110.985 82.8106 216.238 85.5335 221.128C88.4328 226.305 275.486 99.6251 278.36 104.802C281.234 109.979 82.4663 218.792 85.2899 223.839C88.1135 228.885 276.42 101.681 279.294 106.805C281.991 111.644 91.3654 215.954 94.0631 220.793C96.9119 225.891 272.594 106.276 275.442 111.375C278.115 116.136 89.7675 218.85 92.4399 223.637C95.2636 228.71 273.726 107.524 276.55 112.571C279.146 117.201 96.3881 217.686 98.9848 222.317C101.783 227.337 278.743 107.172 281.541 112.192C284.163 116.901 98.9247 218.643 101.547 223.352C104.32 228.32 277.347 110.667 280.146 115.635C282.742 120.265 100.333 219.812 102.93 224.442C105.678 229.359 282.412 109.585 285.161 114.527C287.757 119.184 104.347 219.879 106.969 224.535C109.591 229.192 278.888 114.31 281.61 119.2C284.106 123.649 108.564 220.467 111.06 224.941C113.758 229.754 278.044 117.777 280.742 122.59C283.212 127.012 109.326 224.008 111.822 228.43C114.469 233.139 283.215 118.753 285.862 123.462C288.282 127.78 119.206 222.053 121.626 226.346C124.198 230.95 282.574 123.106 285.146 127.71C287.491 131.898 123.076 224.049 125.42 228.237C127.941 232.737 283.488 126.881 286.009 131.381C288.278 135.439 129.121 223.512 131.365 227.57C133.835 231.966 282.72 130.4 285.165 134.796C287.459 138.88 127.226 228.024 129.495 232.108C131.89 236.4 290.745 129.102 293.165 133.394C295.585 137.686 132.392 227.072 134.711 231.234C137.031 235.396 291.452 131.054 293.822 135.268C296.192 139.482 138.362 226.639 140.606 230.645C142.85 234.651 284.147 138.577 286.441 142.687C288.508 146.355 144.183 226.884 146.251 230.552C148.469 234.532 289.216 139.006 291.434 142.986C293.653 146.966 145.042 228.731 147.159 232.503C149.277 236.275 284.965 144.228 287.108 148.078C289.049 151.538 153.143 227.693 155.084 231.153C157.151 234.873 291.287 144.029 293.354 147.749C295.421 151.469 156.132 228.91 158.123 232.474C160.115 236.037 289.592 148.41 291.584 151.974C293.475 155.33 160.973 228.61 162.864 231.966C164.755 235.321 287.696 152.089 289.612 155.522C291.276 158.514 174.211 224.927 175.9 227.918C177.69 231.144 282.747 159.162 284.537 162.388C286.125 165.224 174.644 227.635 176.233 230.497C177.947 233.54 284.383 161.19 286.072 164.234C287.509 166.809 187.355 224.136 188.792 226.711C190.355 229.494 279.309 168.368 280.872 171.178C282.108 173.415 195.66 224.009 196.895 226.246C198.257 228.691 277.419 174.392 278.805 176.837C279.864 178.71 206.641 220.983 207.7 222.856C208.91 225.015 281.06 175.737 282.27 177.87C283.254 179.639 214.639 219.138 215.648 220.907C216.656 222.676 270.874 185.143 271.883 186.99C272.513 188.109 230.234 215.136 230.865 216.254C231.495 217.373 263.324 195.116 263.954 196.286" stroke="#FF7F81" stroke-width="4.31951" stroke-linecap="round" stroke-linejoin="round"/>
<path d="M98.9081 6.56972C98.9081 6.56972 100.11 5.78489 100.136 5.83692C100.211 5.99304 96.8142 11.6296 96.9149 11.7596C96.9905 11.8636 101.348 8.93394 101.399 9.06406C101.5 9.27221 95.3191 15.4374 95.4199 15.6195C95.5208 15.8016 102.233 11.2763 102.333 11.4584C102.409 11.5885 98.3809 15.7939 98.4566 15.9239C98.5826 16.1581 100.209 14.5644 100.335 14.7986C100.386 14.8766 99.6437 18.8647 99.6941 18.9427C99.8706 19.2549 100.019 18.3426 100.195 18.6548C100.271 18.7848 95.8659 22.8349 95.9415 22.965C96.1431 23.3031 100.224 19.9313 100.425 20.2694C100.576 20.5296 91.1891 28.3708 91.3403 28.6309C91.5672 29.0211 101.158 22.1693 101.385 22.5595C101.561 22.8716 90.5717 32.0459 90.7481 32.3581C91.0254 32.8263 100.691 25.7138 100.968 26.208C101.094 26.4161 94.5391 33.2336 94.64 33.4418C94.9425 33.9881 103.13 27.583 103.432 28.1293C103.684 28.5975 86.4043 40.4202 86.6564 40.8884C86.9842 41.4868 106.568 28.0687 106.896 28.667C107.148 29.1353 90.2962 41.556 90.5484 42.0242C90.9265 42.7006 102.018 34.2034 102.397 34.8798C102.598 35.2179 90.1024 44.1097 90.279 44.4479C90.6823 45.1763 101.874 36.4704 102.277 37.1988C102.529 37.641 86.8557 49.6677 87.1078 50.1099C87.5616 50.9163 108.447 36.166 108.875 36.9725C109.304 37.7269 80.8755 55.7021 81.3041 56.4565C81.7831 57.3149 112.036 36.7555 112.515 37.614" stroke="#FF7F81" stroke-width="4.31951" stroke-linecap="round" stroke-linejoin="round"/>
<path d="M100.141 8.88555C100.141 8.88555 102.095 7.62973 102.145 7.6817C102.195 7.78578 101.429 12.1647 101.48 12.2428C101.505 12.2948 103.433 10.9869 103.484 11.0389C103.534 11.143 102.718 15.3918 102.768 15.4959C102.793 15.5479 104.747 14.24 104.772 14.292C104.822 14.37 103.4 17.1094 103.425 17.1875C103.45 17.2396 105.404 15.9316 105.429 15.9837C105.479 16.0617 104.082 18.8531 104.107 18.9312C104.132 18.9833 106.086 17.6753 106.111 17.7274C106.161 17.8054 105.143 21.6119 105.193 21.716C105.219 21.768 107.172 20.4601 107.197 20.5121C107.248 20.5901 105.876 23.4857 105.901 23.5377C105.926 23.5898 107.879 22.2819 107.905 22.3339C107.955 22.438 107.063 26.5567 107.113 26.6608C107.139 26.7128 109.092 25.4049 109.117 25.457C109.168 25.561 108.2 29.5237 108.276 29.6016C108.301 29.6537 110.254 28.3457 110.279 28.3978C110.33 28.5019 109.463 32.6987 109.514 32.8028C109.539 32.8548 111.492 31.5469 111.517 31.5989C111.568 31.677 110.347 34.989 110.398 35.067C110.423 35.119 112.377 33.8111 112.402 33.8631C112.427 33.9152 110.878 36.3162 110.903 36.3943C110.928 36.4464 112.882 35.1384 112.907 35.1905C112.958 35.2946 112.015 39.3092 112.065 39.4133C112.091 39.4654 114.044 38.1574 114.094 38.2094C114.145 38.3135 113.329 42.6405 113.379 42.7185C113.404 42.7705 115.358 41.4365 115.408 41.4885C115.458 41.5926 114.592 45.7894 114.642 45.8935C114.667 45.9455 116.646 44.6115 116.671 44.6635C116.721 44.7416 115.4 47.8454 115.45 47.9235C115.476 47.9755 117.454 46.6414 117.479 46.6935C117.53 46.7715 116.183 49.7712 116.208 49.8493C116.233 49.9013 118.212 48.5673 118.237 48.6193C118.288 48.7234 118.148 52.8923 118.199 52.9703C118.274 53.1003 122.983 49.9091 123.058 50.0392C123.083 50.0912 123.992 52.173 124.018 52.2251C124.093 52.3551 128.526 49.347 128.576 49.4772C128.602 49.5292 127.705 51.7982 127.73 51.8503C127.805 51.9543 131.938 49.1555 132.013 49.2595C132.038 49.3115 133.976 51.2863 134.001 51.3383C134.051 51.4424 138.158 48.6697 138.234 48.7997C138.259 48.8518 139.419 50.985 139.444 51.037C139.495 51.1411 143.452 48.473 143.502 48.5771C143.553 48.6551 145.641 50.7597 145.691 50.8377C145.742 50.9418 149.498 48.4045 149.549 48.5086C149.574 48.5606 150.082 50.7477 150.132 50.7997C150.182 50.9038 153.814 48.445 153.864 48.549C153.89 48.6011 154.397 50.7881 154.422 50.8402C154.473 50.9443 157.954 48.5901 158.004 48.6681C158.03 48.7201 159.29 50.9312 159.34 51.0092C159.391 51.0873 162.772 48.8115 162.822 48.9156C162.847 48.9676 163.43 51.1806 163.456 51.2326C163.506 51.3106 166.812 49.0872 166.862 49.1652C166.888 49.2172 165.789 51.3305 165.815 51.3825C165.865 51.4606 169.171 49.2371 169.221 49.3412C169.247 49.3932 169.93 51.684 169.955 51.7361C170.006 51.8141 173.337 49.5645 173.387 49.6686C173.412 49.7206 172.289 51.9121 172.314 51.9642C172.365 52.0682 176.422 49.3217 176.498 49.4518" stroke="#1B1B1B" stroke-width="4.31951" stroke-linecap="round" stroke-linejoin="round"/>
<path d="M191.828 3.0356C191.828 3.0356 193.031 2.25076 193.056 2.30279C193.131 2.43285 189.984 7.52168 190.06 7.65174C190.11 7.75581 194.117 5.06153 194.167 5.1656C194.293 5.37369 188.015 12.3989 188.141 12.607C188.191 12.685 191.197 10.6447 191.247 10.7228C191.373 10.9308 185.773 18.2408 185.873 18.4489C185.924 18.527 188.954 16.4866 189.005 16.5647C189.105 16.7207 184.228 22.3092 184.329 22.4653C184.379 22.5433 187.435 20.4768 187.46 20.581C187.535 20.685 184.058 24.3679 184.133 24.4719C184.184 24.5499 185.561 23.504 185.611 23.5821C185.662 23.6861 182.435 27.1339 182.485 27.264C182.535 27.342 185.591 25.2756 185.641 25.3536C185.742 25.5096 180.815 31.2025 180.89 31.3586C180.941 31.4366 184.021 29.3701 184.072 29.4481C184.172 29.6042 179.32 35.0884 179.395 35.2445C179.446 35.3225 182.526 33.23 182.577 33.3341C182.652 33.4902 178.074 38.3223 178.15 38.4784C178.2 38.5565 181.306 36.4638 181.356 36.5419C181.432 36.698 177.08 41.8422 177.156 41.9983C177.206 42.0763 179.46 40.507 179.485 40.5851C179.561 40.7152 175.732 44.4511 175.808 44.5551C175.858 44.6331 178.989 42.5404 179.014 42.6185C179.09 42.7746 174.486 47.5808 174.587 47.7368C174.637 47.8149 177.768 45.6961 177.818 45.8002" stroke="#1B1B1B" stroke-width="4.31951" stroke-linecap="round" stroke-linejoin="round"/>
<path d="M193.072 8.42692C193.072 8.42692 194.976 7.19728 195.001 7.24932C195.052 7.32734 193.932 10.6651 193.982 10.7432C194.007 10.7952 195.885 9.51353 195.911 9.56557C195.961 9.64359 195.068 13.5539 195.119 13.658C195.144 13.71 197.022 12.4284 197.048 12.4804C197.098 12.5845 196.281 16.7291 196.357 16.8071C196.382 16.8591 198.26 15.5774 198.285 15.6295C198.336 15.7335 197.57 19.9562 197.62 20.0342C197.645 20.0862 199.523 18.8046 199.574 18.8565C199.624 18.9346 198.631 22.6628 198.681 22.7408C198.706 22.7929 200.61 21.5111 200.635 21.5632C200.685 21.6672 199.995 26.1241 200.045 26.2282C200.07 26.2803 201.974 24.9985 201.999 25.0506C202.049 25.1286 200.778 28.1542 200.828 28.2061C200.854 28.2582 202.757 26.9764 202.782 27.0285C202.833 27.1065 201.536 30.0279 201.561 30.106C201.586 30.158 203.49 28.8763 203.515 28.9283C203.565 29.0324 202.774 33.2551 202.824 33.3592C202.85 33.4112 204.753 32.1295 204.778 32.1815C204.829 32.2595 203.759 35.7535 203.784 35.8316C203.81 35.8837 205.713 34.6019 205.738 34.654C205.763 34.732 204.34 37.2891 204.366 37.3672C204.391 37.4192 206.294 36.1375 206.319 36.1895C206.37 36.2936 205.679 40.7765 205.73 40.8806C205.755 40.9326 207.658 39.6509 207.684 39.703C207.734 39.781 206.614 43.223 206.665 43.301C206.69 43.353 208.593 42.0713 208.618 42.1233C208.669 42.2274 207.852 46.4241 207.928 46.5281C207.953 46.5802 209.856 45.2984 209.882 45.3505C209.932 45.4285 208.762 48.6883 208.787 48.7664C208.812 48.8184 210.716 47.5367 210.741 47.5887C210.766 47.6407 210.974 50.1673 211.024 50.2193C211.049 50.2713 211.45 49.9055 211.475 49.9575C211.525 50.0355 210.379 52.8263 210.404 52.9044C210.429 52.9564 212.332 51.6747 212.383 51.7267C212.433 51.8307 211.692 56.2096 211.743 56.2876C211.768 56.3397 213.696 55.0579 213.722 55.1099C213.747 55.188 212.299 57.7451 212.349 57.7971C212.374 57.8491 214.303 56.5673 214.328 56.6193C214.353 56.6974 212.88 59.1764 212.93 59.2545C212.955 59.3065 214.884 58.0247 214.909 58.0507C214.959 58.1287 215.895 60.9399 215.945 61.0179C215.996 61.0959 218.475 59.3958 218.525 59.4738C218.576 59.5518 220.29 62.4391 220.34 62.5171C220.365 62.5952 222.82 60.9472 222.845 60.9992C222.895 61.0773 224.76 64.0944 224.811 64.1724C224.836 64.2244 227.215 62.6288 227.265 62.6807C227.291 62.7328 227.272 65.1036 227.297 65.1557C227.322 65.2077 229.702 63.612 229.727 63.6901C229.752 63.7422 229.181 65.8801 229.206 65.9321C229.231 65.9841 231.56 64.4147 231.611 64.4927C231.661 64.5707 233.25 67.6146 233.3 67.7187C233.326 67.7707 235.63 66.2273 235.655 66.3054C235.68 66.3575 235.436 68.6768 235.461 68.7289C235.486 68.7809 237.765 67.2637 237.79 67.3157C237.816 67.3678 236.968 69.4022 236.993 69.4542C237.018 69.5063 239.298 67.989 239.323 68.0411C239.373 68.1191 240.184 70.9827 240.234 71.0607C240.259 71.1128 242.488 69.6217 242.514 69.6738C242.539 69.7258 241.666 71.7603 241.691 71.8123C241.717 71.8644 243.946 70.3733 243.971 70.4514C244.021 70.5294 245.309 73.7305 245.36 73.8085C245.385 73.8605 247.564 72.3957 247.589 72.4737C247.614 72.5518 248.124 75.3642 248.149 75.4162C248.174 75.4682 250.303 74.0296 250.353 74.0815C250.404 74.1596 251.592 77.439 251.617 77.5171C251.642 77.5691 253.746 76.1566 253.771 76.2086C253.797 76.2607 254.055 79.0476 254.08 79.0997C254.105 79.1517 256.184 77.7653 256.209 77.8173C256.26 77.8953 256.795 80.916 256.82 80.9941C256.845 81.0462 258.924 79.6597 258.949 79.7118C258.974 79.7638 258.027 81.7985 258.052 81.8505C258.077 81.9026 260.106 80.5423 260.131 80.5944C260.156 80.6464 259.61 82.9926 259.661 83.0446C259.711 83.0966 261.715 81.7364 261.74 81.7885C261.79 81.8665 262.678 85.3291 262.703 85.4072C262.728 85.4592 264.732 84.1251 264.757 84.1772C264.782 84.2292 264.111 86.5237 264.136 86.5757C264.161 86.6277 266.14 85.2937 266.19 85.3457C266.215 85.3977 265.796 87.926 265.821 87.978C265.846 88.03 267.8 86.7221 267.825 86.7742C267.875 86.8522 268.235 90.1078 268.261 90.1859C268.286 90.2379 270.239 88.93 270.265 88.982C270.29 89.0341 269.594 91.4068 269.644 91.4587C269.669 91.5108 271.598 90.2029 271.648 90.2549C271.673 90.3069 270.826 92.5758 270.877 92.6278C270.902 92.6798 272.83 91.372 272.855 91.424C272.881 91.476 271.858 93.537 271.883 93.589C271.908 93.6411 273.811 92.3593 273.862 92.4113C273.912 92.4633 272.814 94.5505 272.839 94.6025C272.864 94.6545 274.767 93.3728 274.793 93.4248C274.843 93.5029 275.33 97.3053 275.38 97.3833C275.406 97.4353 277.284 96.1536 277.334 96.2056C277.359 96.2576 276.412 98.5268 276.462 98.5788C276.488 98.6308 278.366 97.3752 278.391 97.4012C278.442 97.4792 278.023 100.476 278.073 100.528C278.099 100.58 279.977 99.3248 280.002 99.3768C280.027 99.4289 279.156 101.88 279.181 101.932C279.206 101.984 281.085 100.729 281.11 100.781C281.16 100.859 281.17 104.636 281.221 104.714C281.246 104.766 283.099 103.511 283.125 103.563C283.15 103.615 281.951 105.781 281.977 105.859C282.002 105.911 283.855 104.655 283.88 104.707C283.931 104.785 283.362 107.991 283.413 108.069C283.438 108.121 285.291 106.866 285.316 106.918C285.342 106.996 284.446 109.76 284.471 109.812C284.496 109.864 286.35 108.608 286.375 108.66C286.4 108.713 285.379 111.425 285.429 111.477C285.454 111.529 287.308 110.273 287.333 110.325C287.383 110.403 286.967 114.417 287.018 114.521C287.043 114.573 288.896 113.317 288.922 113.369C288.947 113.421 287.573 115.692 287.598 115.744C287.624 115.796 289.477 114.54 289.502 114.592C289.552 114.67 288.76 118.424 288.81 118.528C288.835 118.58 290.689 117.324 290.714 117.376C290.739 117.455 289.391 120.063 289.417 120.142C289.442 120.194 291.32 118.912 291.345 118.964C291.396 119.042 289.998 121.781 290.048 121.833C290.074 121.885 291.952 120.63 291.977 120.682C292.028 120.76 290.884 124.488 290.909 124.593C290.934 124.645 292.837 123.363 292.863 123.415C292.913 123.493 291.34 126.181 291.365 126.259C291.39 126.311 293.319 125.003 293.344 125.055C293.394 125.159 292 129.045 292.05 129.149C292.075 129.201 294.029 127.893 294.054 127.945C294.105 128.023 292.509 131.675 292.534 131.753C292.559 131.805 294.538 130.471 294.563 130.523C294.639 130.653 292.996 135.764 293.072 135.894C293.097 135.946 295.151 134.559 295.176 134.611C295.252 134.715 293.232 139.384 293.282 139.488C293.308 139.54 295.411 138.128 295.462 138.18C295.512 138.284 293.24 142.38 293.316 142.484C293.341 142.536 295.519 141.072 295.545 141.124C295.62 141.228 293.073 145.716 293.149 145.846C293.174 145.898 295.428 144.381 295.479 144.459C295.529 144.563 292.829 148.348 292.905 148.452C292.93 148.504 295.259 146.96 295.285 147.012C295.36 147.168 292.089 152.857 292.165 153.013C292.19 153.091 294.644 151.417 294.695 151.495C294.77 151.651 290.922 157.497 291.023 157.653C291.073 157.731 293.728 155.927 293.778 156.005C293.854 156.135 289.927 160.731 290.003 160.861C290.053 160.939 292.883 159.029 292.909 159.107C292.984 159.237 289.006 163.208 289.081 163.312C289.132 163.39 292.087 161.402 292.137 161.48C292.238 161.636 287.435 166.834 287.51 166.99C287.561 167.068 290.767 164.923 290.817 165.001C290.943 165.235 284.289 172.652 284.415 172.886C284.466 172.99 288.172 170.479 288.223 170.583C288.374 170.843 279.741 179.386 279.892 179.646C279.968 179.776 284.526 176.69 284.601 176.794C284.778 177.106 274.114 186.123 274.291 186.435C274.366 186.591 280.202 182.667 280.277 182.823C280.429 183.11 269.986 190.407 270.137 190.693C270.238 190.875 277.275 186.14 277.376 186.322C277.553 186.635 265.557 194.874 265.733 195.186C265.885 195.446 272.37 190.843 272.522 191.103" stroke="#1B1B1B" stroke-width="4.31951" stroke-linecap="round" stroke-linejoin="round"/>
<path d="M39.3195 81.0057C39.7985 81.8381 65.1169 64.3142 65.5959 65.1727C66.1757 66.1872 26.8476 89.4285 27.4274 90.443C27.5787 90.7292 33.4381 86.4667 33.5894 86.7268C33.8163 87.143 18.5927 98.5954 18.8196 99.0116C18.9204 99.1677 25.0312 95.0608 25.1069 95.2169C25.2581 95.4771 16.5731 103.316 16.7244 103.577C16.8 103.707 17.8261 102.74 17.9017 102.87C18.0025 103.052 12.195 107.992 12.2959 108.174C12.3714 108.278 16.6039 105.427 16.6544 105.531C16.7552 105.713 10.8723 110.601 10.9731 110.757C11.0235 110.861 11.4988 110.312 11.5492 110.416C11.6249 110.546 9.15442 115.529 9.23004 115.659C9.28043 115.737 10.6074 114.692 10.6578 114.796C10.7335 114.926 6.82968 118.714 6.90523 118.818C6.95562 118.896 10.1112 116.777 10.1365 116.855C10.2121 116.985 5.9824 120.879 6.05802 121.009C6.10841 121.087 9.11372 119.046 9.16411 119.124C9.2398 119.281 4.91209 124.034 5.01286 124.19C5.06325 124.268 7.86816 122.359 7.91855 122.437C7.99424 122.593 3.91881 127.866 3.9945 128.022C4.04489 128.101 6.62442 126.348 6.67474 126.4C6.7252 126.504 3.42331 130.212 3.49893 130.343C3.52423 130.421 6.05372 128.72 6.10404 128.772C6.17966 128.902 2.85564 133.679 2.93126 133.809C2.95649 133.861 5.33565 132.265 5.38604 132.344C5.46166 132.474 2.44038 137.875 2.51607 138.031C2.5413 138.083 4.82035 136.566 4.84558 136.618C4.9212 136.748 2.32596 141.965 2.37649 142.095C2.40172 142.147 4.58061 140.683 4.60591 140.761C4.68153 140.891 2.48809 146.264 2.56371 146.394C2.58894 146.446 4.64255 145.059 4.66778 145.111C4.7434 145.241 2.95105 150.483 3.02667 150.613C3.0519 150.665 5.05543 149.305 5.08066 149.357C5.15621 149.461 3.6389 154.363 3.71452 154.493C3.73975 154.545 5.69326 153.237 5.71849 153.289C5.76888 153.367 4.04502 156.081 4.09541 156.159C4.12064 156.211 6.04899 154.903 6.09931 154.955C6.1497 155.033 4.4759 157.695 4.5012 157.774C4.52643 157.826 6.45483 156.544 6.48006 156.596C6.53044 156.674 5.08387 159.856 5.13426 159.934C5.15949 159.986 7.0628 158.704 7.11312 158.756C7.16351 158.834 5.76666 161.86 5.81705 161.938C5.84228 161.99 7.72055 160.709 7.77087 160.761C7.82133 160.865 7.13113 165.426 7.18159 165.53C7.20682 165.582 9.08513 164.326 9.11029 164.352C9.16068 164.43 7.88856 167.195 7.93888 167.247C7.96411 167.299 9.81733 166.044 9.86765 166.096C9.91811 166.2 9.35185 170.214 9.40231 170.318C9.42754 170.37 11.2808 169.114 11.306 169.166C11.3564 169.244 10.4868 172.399 10.5121 172.477C10.5373 172.529 12.3906 171.274 12.4158 171.326C12.4662 171.404 11.9489 174.974 11.9993 175.052C12.0245 175.104 13.8778 173.849 13.903 173.901C13.9534 173.979 13.8638 177.965 13.9143 178.069C13.9395 178.121 15.7928 176.866 15.8431 176.918C15.8684 176.996 15.1484 179.838 15.1736 179.89C15.1989 179.942 17.0773 178.686 17.1025 178.738C17.153 178.842 17.4399 182.906 17.4903 183.01C17.5156 183.062 19.3939 181.806 19.419 181.832C19.4694 181.91 19.1014 184.985 19.1517 185.037C19.1769 185.089 21.0552 183.808 21.1055 183.86C21.1308 183.912 20.3597 186.415 20.3849 186.467C20.4102 186.519 22.3135 185.237 22.3387 185.289C22.364 185.341 21.5929 187.818 21.6432 187.87C21.6684 187.922 23.5718 186.641 23.597 186.693C23.6474 186.771 24.0335 190.391 24.0839 190.469C24.1091 190.521 26.0375 189.213 26.0628 189.265C26.1131 189.343 26.5491 192.859 26.5996 192.963C26.6248 193.015 28.5782 191.707 28.6035 191.759C28.6287 191.811 28.3854 194.6 28.4106 194.652C28.4358 194.704 30.3892 193.396 30.4145 193.448C30.4398 193.526 30.4226 196.444 30.4478 196.496C30.473 196.548 32.4515 195.214 32.4767 195.266C32.502 195.344 32.8611 198.235 32.8864 198.313C32.9116 198.365 34.1887 197.45 34.214 197.528C34.2393 197.58 34.2951 199.664 34.3203 199.716C34.3455 199.768 36.349 198.408 36.3993 198.46C36.4246 198.512 35.4264 200.547 35.4517 200.599C35.4769 200.651 37.5055 199.291 37.5308 199.343C37.5812 199.421 37.9656 202.442 37.9909 202.494C38.0161 202.546 40.0447 201.186 40.095 201.238C40.1454 201.316 40.6554 204.362 40.7057 204.414C40.7309 204.466 42.8096 203.08 42.8348 203.132C42.8852 203.21 43.9731 206.568 44.0235 206.646C44.0488 206.698 46.1525 205.285 46.1778 205.338C46.203 205.39 46.3608 208.099 46.386 208.151C46.4112 208.203 48.54 206.764 48.5903 206.816C48.6156 206.868 48.1702 209.188 48.1954 209.24C48.2206 209.292 50.3494 207.853 50.3997 207.905C50.4501 207.983 51.3113 211.003 51.3365 211.055C51.3617 211.107 53.5406 209.642 53.5659 209.694C53.5911 209.746 52.8692 211.885 52.8944 211.937C52.9197 211.989 55.0985 210.524 55.1238 210.576C55.1742 210.654 56.5123 213.803 56.5627 213.881C56.588 213.933 58.8169 212.442 58.8422 212.494C58.8674 212.546 59.0751 215.125 59.1254 215.177C59.1757 215.229 61.4297 213.711 61.4549 213.763C61.4801 213.815 61.6877 216.342 61.7129 216.394C61.7381 216.446 64.0172 214.929 64.0424 214.981C64.0928 215.059 65.4557 218.025 65.481 218.103C65.5062 218.155 67.8353 216.612 67.8606 216.664C67.8858 216.716 67.5406 218.958 67.5658 219.01C67.591 219.062 69.9452 217.492 69.9956 217.544C70.0459 217.596 70.6551 220.226 70.7054 220.278C70.7558 220.33 73.1099 218.734 73.1603 218.812C73.1855 218.864 72.7398 221.054 72.765 221.106C72.7903 221.158 75.2196 219.536 75.2699 219.588C75.3203 219.666 76.6325 222.45 76.6828 222.528C76.7081 222.606 79.1624 220.932 79.2128 221.01C79.2381 221.062 78.516 223.148 78.5413 223.2C78.5666 223.279 81.071 221.578 81.0963 221.656C81.1215 221.708 80.5502 223.846 80.5755 223.898C80.6008 223.976 83.1051 222.276 83.1304 222.354C83.1557 222.406 83.413 224.803 83.4382 224.855C83.4886 224.933 86.0431 223.206 86.0683 223.258C86.0935 223.31 85.9742 225.577 85.9994 225.629C86.0498 225.707 88.6044 223.981 88.6296 224.033C88.6548 224.085 88.5605 226.352 88.5857 226.404C88.6361 226.482 91.2407 224.703 91.2911 224.781C91.3163 224.833 91.7988 226.994 91.8241 227.046C91.8745 227.124 92.425 226.576 92.4754 226.654C92.5006 226.706 94.0843 227.848 94.1095 227.9C94.1599 227.978 96.8396 226.147 96.89 226.225C96.9152 226.277 95.9422 228.312 95.9674 228.364C96.0178 228.442 98.6975 226.611 98.7479 226.689C98.7731 226.741 98.2018 228.879 98.227 228.905C98.2774 228.983 101.032 227.126 101.082 227.178C101.108 227.23 101.415 229.548 101.44 229.6C101.491 229.678 104.245 227.794 104.296 227.872C104.346 227.95 106.31 230.524 106.361 230.602C106.411 230.68 109.266 228.745 109.291 228.823C109.316 228.875 110.075 231.218 110.101 231.296C110.151 231.374 113.081 229.386 113.132 229.464C113.157 229.516 112.46 231.628 112.51 231.68C112.561 231.758 115.516 229.77 115.541 229.848C115.567 229.9 115.547 232.115 115.573 232.167C115.623 232.245 118.653 230.204 118.704 230.282C118.729 230.36 120.316 232.753 120.366 232.805C120.417 232.883 123.547 230.764 123.598 230.868C123.623 230.92 123.303 233.084 123.328 233.136C123.378 233.214 126.509 231.095 126.559 231.173C126.584 231.225 126.892 233.439 126.917 233.491C126.967 233.569 130.223 231.398 130.273 231.476C130.324 231.554 133.19 233.786 133.24 233.864C133.291 233.942 135.92 232.138 135.971 232.216C135.996 232.268 137.456 234.166 137.482 234.244C137.532 234.348 141.013 231.994 141.063 232.072C141.089 232.124 140.066 234.289 140.091 234.341C140.142 234.445 143.648 232.065 143.698 232.169C143.749 232.247 146.314 234.402 146.364 234.48C146.414 234.584 150.096 232.099 150.146 232.203C150.171 232.255 151.482 234.414 151.507 234.466C151.558 234.57 155.364 232.007 155.415 232.111C155.465 232.215 158.883 234.16 158.933 234.264C158.984 234.368 163.041 231.647 163.091 231.752C163.117 231.804 163.173 233.992 163.198 234.044C163.248 234.148 167.456 231.323 167.506 231.453C167.557 231.583 172.401 232.221 172.451 232.325C172.527 232.456 172.576 232.091 172.652 232.195C172.677 232.247 175.137 232.917 175.188 232.969C175.263 233.099 179.972 229.934 180.022 230.038C180.073 230.116 182.886 231.411 182.911 231.49C182.987 231.62 186.743 229.004 186.819 229.134C186.844 229.212 189.182 230.821 189.232 230.873C189.308 231.029 194.893 227.263 194.969 227.419C194.994 227.471 194.373 229.817 194.398 229.869C194.499 230.025 200.509 225.971 200.585 226.127C200.636 226.205 204.327 227.263 204.377 227.367C204.478 227.549 208.434 224.673 208.535 224.855C208.686 225.115 219.691 221.412 219.842 221.672C219.993 221.932 220.993 220.627 221.119 220.887C221.296 221.199 233.928 216.475 234.105 216.788C234.584 217.646 256.095 202.399 256.574 203.231" stroke="#1B1B1B" stroke-width="4.31951" stroke-linecap="round" stroke-linejoin="round"/>
<path d="M68.1819 66.2347C68.3835 66.5728 75.3698 61.4215 75.5715 61.7857" stroke="#1B1B1B" stroke-width="4.31951" stroke-linecap="round" stroke-linejoin="round"/>
<path d="M98.8993 3.28701C98.8993 3.28701 100.127 2.50211 100.152 2.52809C100.227 2.6842 96.8305 8.32081 96.9061 8.45087C96.9817 8.58093 101.389 5.59898 101.44 5.70306C101.541 5.91121 95.3102 12.1026 95.4111 12.3107C95.4615 12.3888 98.4668 10.3746 98.5172 10.4526C98.5928 10.5826 94.2891 14.9451 94.3648 15.0752C94.4151 15.1532 97.4205 13.1129 97.4709 13.217C97.5718 13.3991 92.3704 19.8222 92.4713 20.0043C92.5217 20.0823 95.5269 18.0421 95.5773 18.1201C95.6529 18.2501 91.5486 22.1171 91.5992 22.2472C91.6495 22.3252 94.6548 20.285 94.7052 20.363C94.806 20.519 90.0784 25.8466 90.1541 26.0027C90.2045 26.0807 93.2097 24.0405 93.2601 24.1185C93.361 24.3006 88.359 30.2281 88.4598 30.4102C88.5102 30.4883 91.5155 28.448 91.5659 28.526C91.6668 28.7081 86.6397 34.6618 86.7406 34.8439C86.791 34.9219 89.7963 32.8816 89.8467 32.9597C89.9223 33.0897 86.5719 37.3975 86.6475 37.5276C86.6979 37.6056 86.7474 37.371 86.7727 37.4491C86.8483 37.5791 83.5754 42.6943 83.651 42.8244C83.7014 42.9024 86.7317 40.8621 86.757 40.9402C86.8326 41.0702 82.4292 45.6414 82.5048 45.7715C82.5552 45.8495 85.5856 43.8092 85.636 43.8872C85.7368 44.0693 80.5354 50.4663 80.6362 50.6484C80.6866 50.7264 83.717 48.6861 83.7674 48.7641C83.8178 48.8682 81.2698 52.9915 81.3202 53.0955C81.3706 53.1736 82.2718 52.4156 82.3222 52.4936C82.423 52.6497 77.4958 58.3946 77.5967 58.5767C77.647 58.6547 80.6774 56.6144 80.7278 56.6924" stroke="#1B1B1B" stroke-width="4.31951" stroke-linecap="round" stroke-linejoin="round"/>
<path d="M123.956 101.436C124.031 101.566 129.09 98.1652 129.166 98.2952C129.267 98.4513 125.043 104.533 125.119 104.715C125.219 104.897 131.956 100.346 132.057 100.528C132.158 100.684 127.028 105.57 127.129 105.726C127.204 105.856 132.263 102.455 132.339 102.585" stroke="#1B1B1B" stroke-width="4.31951" stroke-linecap="round" stroke-linejoin="round"/>
<path d="M167.955 101.342C168.03 101.472 173.089 98.0714 173.165 98.2015C173.266 98.3575 169.067 104.439 169.143 104.595C169.244 104.777 175.955 100.252 176.056 100.408C176.132 100.564 171.027 105.45 171.127 105.606C171.203 105.736 176.262 102.336 176.338 102.466" stroke="#1B1B1B" stroke-width="4.31951" stroke-linecap="round" stroke-linejoin="round"/>
<path d="M146.697 161.144C146.697 161.144 151.406 158.136 151.482 158.266C151.582 158.422 147.584 164.373 147.66 164.555C147.736 164.737 153.746 160.682 153.822 160.839C153.898 160.995 149.042 165.359 149.118 165.515C149.193 165.645 153.826 162.506 153.902 162.636" stroke="#1B1B1B" stroke-width="4.31951" stroke-linecap="round" stroke-linejoin="round"/>
<path d="M38.6672 137.698C38.6672 137.698 41.1468 136.128 41.1721 136.18C41.2225 136.258 43.5622 138.623 43.6126 138.701C43.6631 138.805 47.7703 136.032 47.846 136.162C47.8712 136.214 48.5552 138.635 48.5804 138.687C48.6309 138.791 52.7381 136.019 52.8138 136.149C52.839 136.201 52.0928 138.626 52.1431 138.678C52.1936 138.782 56.3009 136.009 56.3765 136.139C56.4269 136.217 58.4154 138.583 58.4658 138.661C58.5162 138.765 62.6234 135.992 62.6991 136.122C62.7243 136.174 61.3258 138.601 61.3761 138.653C61.4266 138.757 65.5339 135.984 65.6095 136.114C65.6347 136.166 66.1682 138.588 66.2185 138.64C66.269 138.744 70.3763 135.971 70.4519 136.101C70.4772 136.179 68.7273 138.581 68.7776 138.633C68.828 138.685 71.2072 137.089 71.2575 137.141" stroke="#1B1B1B" stroke-width="4.31951" stroke-linecap="round" stroke-linejoin="round"/>
<path d="M38.7092 152.026C38.7092 152.026 41.1888 150.456 41.2141 150.508C41.2645 150.586 43.6042 152.951 43.6546 153.029C43.705 153.133 47.8123 150.36 47.888 150.49C47.9132 150.542 48.5972 152.964 48.6224 153.016C48.6728 153.12 52.7801 150.347 52.8558 150.477C52.881 150.529 52.1348 152.954 52.1851 153.006C52.2356 153.11 56.3428 150.337 56.4185 150.467C56.4689 150.545 58.4574 152.911 58.5078 152.989C58.5582 153.093 62.6654 150.32 62.7411 150.45C62.7663 150.502 61.3678 152.929 61.4181 152.981C61.4686 153.085 65.5759 150.312 65.6515 150.442C65.6767 150.494 66.2102 152.916 66.2605 152.968C66.311 153.072 70.4182 150.299 70.4939 150.429C70.5192 150.507 68.7693 152.909 68.8196 152.961C68.8699 153.013 71.2492 151.417 71.2995 151.469" stroke="#1B1B1B" stroke-width="4.31951" stroke-linecap="round" stroke-linejoin="round"/>
<path d="M231.86 137.178C231.86 137.178 234.339 135.608 234.364 135.66C234.415 135.738 236.755 138.102 236.805 138.18C236.855 138.284 240.963 135.512 241.038 135.642C241.064 135.694 241.748 138.115 241.773 138.167C241.823 138.271 245.931 135.498 246.006 135.628C246.031 135.68 245.285 138.105 245.335 138.157C245.386 138.261 249.493 135.489 249.569 135.619C249.619 135.697 251.608 138.062 251.658 138.14C251.709 138.244 255.816 135.472 255.891 135.602C255.917 135.654 254.518 138.08 254.569 138.132C254.619 138.236 258.726 135.464 258.802 135.594C258.827 135.646 259.361 138.067 259.411 138.119C259.461 138.223 263.569 135.451 263.644 135.581C263.67 135.659 261.92 138.06 261.97 138.112C262.02 138.164 264.4 136.569 264.45 136.621" stroke="#1B1B1B" stroke-width="4.31951" stroke-linecap="round" stroke-linejoin="round"/>
<path d="M231.899 151.501C231.899 151.501 234.378 149.931 234.404 149.983C234.454 150.061 236.794 152.426 236.844 152.504C236.894 152.608 241.002 149.835 241.077 149.965C241.103 150.017 241.787 152.438 241.812 152.49C241.862 152.594 245.97 149.821 246.045 149.952C246.07 150.004 245.324 152.429 245.375 152.481C245.425 152.585 249.532 149.812 249.608 149.942C249.658 150.02 251.647 152.385 251.697 152.463C251.748 152.568 255.855 149.795 255.931 149.925C255.956 149.977 254.557 152.404 254.608 152.456C254.658 152.56 258.765 149.787 258.841 149.917C258.866 149.969 259.4 152.39 259.45 152.442C259.5 152.547 263.608 149.774 263.683 149.904C263.709 149.982 261.959 152.384 262.009 152.436C262.059 152.488 264.439 150.892 264.489 150.944" stroke="#1B1B1B" stroke-width="4.31951" stroke-linecap="round" stroke-linejoin="round"/>
</svg>
