<?xml version="1.0" encoding="UTF-8"?>
<svg id="_아이콘" data-name="아이콘" xmlns="http://www.w3.org/2000/svg" width="70" height="52" xmlns:xlink="http://www.w3.org/1999/xlink" viewBox="0 0 70 52">
  <defs>
    <pattern id="_6_dpi_90_dot_pink" data-name="6 dpi 90 dot pink" x="0" y="0" width="48" height="48" patternTransform="translate(-1274.78 515.56)" patternUnits="userSpaceOnUse" viewBox="0 0 48 48">
      <g>
        <rect width="48" height="48" fill="none"/>
        <g>
          <path d="M24,58.8c5.96,0,10.8-4.83,10.8-10.8s-4.84-10.8-10.8-10.8-10.8,4.84-10.8,10.8,4.83,10.8,10.8,10.8Z" fill="#fcc"/>
          <circle cx="48" cy="48" r="10.8" fill="#fcc"/>
          <path d="M24,34.8c5.96,0,10.8-4.83,10.8-10.8s-4.84-10.8-10.8-10.8-10.8,4.84-10.8,10.8,4.83,10.8,10.8,10.8Z" fill="#fcc"/>
          <circle cx="48" cy="24" r="10.8" fill="#fcc"/>
          <path d="M36,46.8c5.96,0,10.8-4.83,10.8-10.8s-4.84-10.8-10.8-10.8-10.8,4.84-10.8,10.8,4.83,10.8,10.8,10.8Z" fill="#fcc"/>
          <path d="M12,46.8c5.96,0,10.8-4.83,10.8-10.8s-4.84-10.8-10.8-10.8S1.2,30.04,1.2,36s4.83,10.8,10.8,10.8Z" fill="#fcc"/>
          <path d="M36,22.8c5.96,0,10.8-4.83,10.8-10.8S41.96,1.2,36,1.2s-10.8,4.84-10.8,10.8,4.83,10.8,10.8,10.8Z" fill="#fcc"/>
          <path d="M12,22.8c5.96,0,10.8-4.83,10.8-10.8S17.96,1.2,12,1.2,1.2,6.04,1.2,12s4.83,10.8,10.8,10.8Z" fill="#fcc"/>
        </g>
        <g>
          <circle cy="48" r="10.8" fill="#fcc"/>
          <circle cy="24" r="10.8" fill="#fcc"/>
        </g>
        <g>
          <path d="M24,10.8c5.96,0,10.8-4.83,10.8-10.8s-4.84-10.8-10.8-10.8S13.2-5.96,13.2,0s4.83,10.8,10.8,10.8Z" fill="#fcc"/>
          <circle cx="48" r="10.8" fill="#fcc"/>
        </g>
        <circle r="10.8" fill="#fcc"/>
      </g>
    </pattern>
  </defs>
  <g>
    <path d="M50.04,13.2c-.34-.49-.16-.57-.39-1.12s-.33-.51-.56-1.05-.06-.61-.29-1.16-.25-.54-.47-1.09-.21-.55-.44-1.1-.44-.46-.67-1.01-.08-.61-.31-1.15-.39-.48-.62-1.03.04-.66-.19-1.21-.26-.54-.49-1.09.02-1.16-.58-1.14-.13.69-.37,1.26-.43.49-.67,1.05-.02.66-.25,1.22-.45.48-.69,1.05-.16.6-.4,1.17-.22.57-.46,1.14-.17.6-.4,1.17-.15.61-.39,1.18-.13.67-.51,1.16c-.38-.04-.86-.15-1.25-.18s-.77-.1-1.16-.13-.78.11-1.17.09-.77-.19-1.16-.2-.78-.1-1.17-.1-.75.21-1.12.22-.74.04-1.12.05-.75-.14-1.12-.12-.73.25-1.1.28-.75-.06-1.12-.02-.73.09-1.09.13c-.38-.49-.24-.56-.48-1.13s-.35-.53-.58-1.1.02-.68-.21-1.25-.4-.5-.64-1.08-.33-.54-.56-1.11-.03-.66-.27-1.23-.32-.54-.56-1.11-.15-.61-.39-1.19.04-1.24-.58-1.25-.26.7-.49,1.26-.35.52-.58,1.08-.2.57-.44,1.14-.06.64-.29,1.2-.38.5-.61,1.07-.26.55-.49,1.12-.11.62-.34,1.18-.28.55-.51,1.11-.12.61-.36,1.18-.18.59-.41,1.16-.39.48-.73.99c-.38.13-.63.34-1,.48s-.73.33-1.1.47-.8.17-1.16.33-.68.44-1.04.61-.76.27-1.11.45-.61.56-.95.75-.79.24-1.13.44-.63.5-.96.72-.6.54-.91.77-.74.35-1.04.6-.63.5-.92.76-.47.67-.75.95-.62.51-.89.8-.52.6-.77.91-.55.59-.77.91-.58.59-.78.93-.16.82-.34,1.18-.31.73-.46,1.09-.35.72-.46,1.1-.26.76-.33,1.15-.16.78-.19,1.18.05.8.05,1.2-.14.8-.1,1.19.16.78.24,1.17.15.78.26,1.16.38.7.52,1.07.06.83.23,1.19.48.64.68.99.53.59.75.92.24.79.49,1.11.58.54.85.84.5.61.78.89.64.47.93.74.65.44.96.69.53.59.85.83.65.44.98.66.65.44.99.65.63.47.98.67.7.35,1.06.54.65.47,1,.64.73.3,1.1.46.76.23,1.13.38.7.38,1.07.52.79.12,1.17.25.74.25,1.12.37.77.15,1.15.26.73.32,1.11.42.76.21,1.14.3.78.11,1.17.19.76.21,1.15.28.79.05,1.18.11.75.3,1.15.35.79,0,1.19.04.77.22,1.17.26.8-.11,1.2-.08.78.1,1.18.12.79-.07,1.19-.06.79.21,1.19.21.79-.18,1.19-.19.79-.08,1.18-.1.81.24,1.2.21.79-.15,1.18-.19.77-.25,1.16-.29.79-.03,1.18-.09.78-.14,1.17-.2.78-.11,1.17-.18.8-.02,1.19-.1.79-.11,1.17-.19.78-.15,1.16-.25.78-.18,1.15-.28.69-.47,1.06-.59.73-.29,1.11-.42.82-.07,1.18-.21.7-.38,1.07-.53.69-.39,1.05-.55.81-.15,1.16-.32.72-.34,1.07-.52.71-.36,1.05-.55.66-.44,1-.65.56-.59.89-.81.65-.44.97-.67.69-.4.99-.65.62-.49.91-.75.48-.64.76-.92.63-.49.89-.78.48-.63.72-.93.44-.65.66-.98.54-.59.73-.93.36-.7.53-1.05.33-.72.47-1.08.38-.71.49-1.08.21-.77.28-1.16.09-.79.13-1.18-.15-.79-.15-1.19.11-.79.08-1.19.07-.82,0-1.21-.24-.77-.35-1.15-.35-.72-.5-1.09-.35-.7-.53-1.06-.11-.84-.32-1.18-.43-.68-.66-1.01-.52-.61-.77-.92-.62-.51-.89-.81-.36-.75-.65-1.03-.68-.43-.98-.7-.69-.4-1-.65-.59-.52-.91-.76-.49-.67-.83-.9-.78-.26-1.12-.47-.72-.32-1.07-.52-.6-.54-.96-.73-.67-.44-1.03-.61-.78-.19-1.15-.35-.73-.3-1.1-.45-.7-.38-1.08-.52-.76-.24-1.14-.37-.74-.26-1.13-.38Z" fill="url(#_6_dpi_90_dot_pink)"/>
    <path d="M50.04,13.2c-.34-.49-.16-.57-.39-1.12s-.33-.51-.56-1.05-.06-.61-.29-1.16-.25-.54-.47-1.09-.21-.55-.44-1.1-.44-.46-.67-1.01-.08-.61-.31-1.15-.39-.48-.62-1.03.04-.66-.19-1.21-.26-.54-.49-1.09.02-1.16-.58-1.14-.13.69-.37,1.26-.43.49-.67,1.05-.02.66-.25,1.22-.45.48-.69,1.05-.16.6-.4,1.17-.22.57-.46,1.14-.17.6-.4,1.17-.15.61-.39,1.18-.13.67-.51,1.16c-.38-.04-.86-.15-1.25-.18s-.77-.1-1.16-.13-.78.11-1.17.09-.77-.19-1.16-.2-.78-.1-1.17-.1-.75.21-1.12.22-.74.04-1.12.05-.75-.14-1.12-.12-.73.25-1.1.28-.75-.06-1.12-.02-.73.09-1.09.13c-.38-.49-.24-.56-.48-1.13s-.35-.53-.58-1.1.02-.68-.21-1.25-.4-.5-.64-1.08-.33-.54-.56-1.11-.03-.66-.27-1.23-.32-.54-.56-1.11-.15-.61-.39-1.19.04-1.24-.58-1.25-.26.7-.49,1.26-.35.52-.58,1.08-.2.57-.44,1.14-.06.64-.29,1.2-.38.5-.61,1.07-.26.55-.49,1.12-.11.62-.34,1.18-.28.55-.51,1.11-.12.61-.36,1.18-.18.59-.41,1.16-.39.48-.73.99c-.38.13-.63.34-1,.48s-.73.33-1.1.47-.8.17-1.16.33-.68.44-1.04.61-.76.27-1.11.45-.61.56-.95.75-.79.24-1.13.44-.63.5-.96.72-.6.54-.91.77-.74.35-1.04.6-.63.5-.92.76-.47.67-.75.95-.62.51-.89.8-.52.6-.77.91-.55.59-.77.91-.58.59-.78.93-.16.82-.34,1.18-.31.73-.46,1.09-.35.72-.46,1.1-.26.76-.33,1.15-.16.78-.19,1.18.05.8.05,1.2-.14.8-.1,1.19.16.78.24,1.17.15.78.26,1.16.38.7.52,1.07.06.83.23,1.19.48.64.68.99.53.59.75.92.24.79.49,1.11.58.54.85.84.5.61.78.89.64.47.93.74.65.44.96.69.53.59.85.83.65.44.98.66.65.44.99.65.63.47.98.67.7.35,1.06.54.65.47,1,.64.73.3,1.1.46.76.23,1.13.38.7.38,1.07.52.79.12,1.17.25.74.25,1.12.37.77.15,1.15.26.73.32,1.11.42.76.21,1.14.3.78.11,1.17.19.76.21,1.15.28.79.05,1.18.11.75.3,1.15.35.79,0,1.19.04.77.22,1.17.26.8-.11,1.2-.08.78.1,1.18.12.79-.07,1.19-.06.79.21,1.19.21.79-.18,1.19-.19.79-.08,1.18-.1.81.24,1.2.21.79-.15,1.18-.19.77-.25,1.16-.29.79-.03,1.18-.09.78-.14,1.17-.2.78-.11,1.17-.18.8-.02,1.19-.1.79-.11,1.17-.19.78-.15,1.16-.25.78-.18,1.15-.28.69-.47,1.06-.59.73-.29,1.11-.42.82-.07,1.18-.21.7-.38,1.07-.53.69-.39,1.05-.55.81-.15,1.16-.32.72-.34,1.07-.52.71-.36,1.05-.55.66-.44,1-.65.56-.59.89-.81.65-.44.97-.67.69-.4.99-.65.62-.49.91-.75.48-.64.76-.92.63-.49.89-.78.48-.63.72-.93.44-.65.66-.98.54-.59.73-.93.36-.7.53-1.05.33-.72.47-1.08.38-.71.49-1.08.21-.77.28-1.16.09-.79.13-1.18-.15-.79-.15-1.19.11-.79.08-1.19.07-.82,0-1.21-.24-.77-.35-1.15-.35-.72-.5-1.09-.35-.7-.53-1.06-.11-.84-.32-1.18-.43-.68-.66-1.01-.52-.61-.77-.92-.62-.51-.89-.81-.36-.75-.65-1.03-.68-.43-.98-.7-.69-.4-1-.65-.59-.52-.91-.76-.49-.67-.83-.9-.78-.26-1.12-.47-.72-.32-1.07-.52-.6-.54-.96-.73-.67-.44-1.03-.61-.78-.19-1.15-.35-.73-.3-1.1-.45-.7-.38-1.08-.52-.76-.24-1.14-.37-.74-.26-1.13-.38Z" fill="none" stroke="#000" stroke-linecap="round" stroke-linejoin="bevel" stroke-width="1.01"/>
  </g>
  <circle cx="29.75" cy="24.18" r=".92" stroke="#000" stroke-miterlimit="10" stroke-width=".68"/>
  <circle cx="40.29" cy="24.18" r=".92" stroke="#000" stroke-miterlimit="10" stroke-width=".68"/>
  <circle cx="35" cy="37.95" r=".92" stroke="#000" stroke-miterlimit="10" stroke-width=".68"/>
  <line x1="8.56" y1="32.07" x2="16.2" y2="32.07" stroke="#000" stroke-miterlimit="10" stroke-width=".68"/>
  <line x1="8.56" y1="35.3" x2="16.2" y2="35.3" stroke="#000" stroke-miterlimit="10" stroke-width=".68"/>
  <line x1="53.8" y1="32.07" x2="61.44" y2="32.07" stroke="#000" stroke-miterlimit="10" stroke-width=".68"/>
  <line x1="53.8" y1="35.3" x2="61.44" y2="35.3" stroke="#000" stroke-miterlimit="10" stroke-width=".68"/>
</svg>