<?xml version="1.0" encoding="UTF-8"?>
<svg id="_아이콘" data-name="아이콘" xmlns="http://www.w3.org/2000/svg" width="70" height="52" viewBox="0 0 70 52">
  <g>
    <path d="M62.49,15.82c0-.73.24-1.46.14-2.16s-.48-1.37-.68-2.05-.42-1.36-.72-2.01-.59-1.31-.98-1.9-.77-1.22-1.24-1.76-.97-1.06-1.51-1.53-1.26-.69-1.86-1.08-1.15-.85-1.8-1.15-1.33-.49-2.02-.69-1.38-.27-2.09-.37-1.39-.38-2.12-.38c-.66,0-1.32-.03-1.96.05s-1.27.32-1.89.48-1.24.39-1.84.63-1.11.66-1.67.98-1.07.69-1.59,1.08-1.07.72-1.53,1.18-.91.77-1.31,1.28c-.4-.51-.86-.82-1.32-1.28s-.91-.92-1.43-1.31-1.04-.78-1.6-1.1-1.11-.71-1.71-.95-1.26-.32-1.89-.49-1.24-.39-1.89-.47-1.29.14-1.95.14c-.73,0-1.46-.2-2.15-.11s-1.4.37-2.08.57-1.35.49-1.99.78-1.35.53-1.95.91-1.1.92-1.64,1.39-1.07.95-1.54,1.49-.8,1.17-1.19,1.78-.83,1.16-1.13,1.81-.67,1.28-.88,1.97-.21,1.42-.31,2.13-.17,1.41-.17,2.14.03,1.51.14,2.24.23,1.5.45,2.21.57,1.39.9,2.06.6,1.39,1.02,2.01,1.01,1.12,1.52,1.67c-.51.55-.88,1.2-1.3,1.82s-1.01,1.14-1.34,1.81-.47,1.42-.7,2.14-.35,1.44-.47,2.19-.32,1.47-.32,2.23.17,1.44.27,2.14.24,1.42.44,2.09.5,1.34.8,1.99.54,1.34.92,1.94,1,1.03,1.47,1.57.88,1.12,1.42,1.59,1.12.87,1.73,1.25,1.16.86,1.81,1.16,1.36.42,2.05.63,1.35.46,2.07.56,1.42.2,2.14.2c.66,0,1.32-.02,1.95-.1s1.28-.29,1.9-.46,1.24-.4,1.83-.64,1.2-.51,1.76-.83,1.01-.81,1.53-1.2.98-.82,1.44-1.27.99-.68,1.39-1.19c.4.51.93.73,1.39,1.18s.78,1.08,1.29,1.47,1.13.65,1.69.97,1.14.59,1.74.84,1.17.57,1.8.73,1.26.33,1.91.41,1.3-.02,1.95-.02c.73,0,1.45.04,2.15-.06s1.43-.25,2.11-.45,1.27-.69,1.91-.99,1.34-.5,1.94-.89,1.19-.8,1.72-1.27,1.12-.92,1.58-1.46.86-1.16,1.24-1.76.66-1.26.96-1.92.46-1.34.66-2.03.46-1.35.56-2.06,0-1.41,0-2.13-.04-1.48-.15-2.21-.16-1.49-.38-2.2-.52-1.4-.84-2.07-.79-1.26-1.21-1.87-.81-1.28-1.32-1.83c.51-.55,1.03-1.12,1.45-1.74s.91-1.21,1.23-1.89.53-1.41.75-2.13.29-1.46.4-2.21.08-1.47.08-2.23Z" fill="#cff"/>
    <path d="M62.49,15.82c0-.73.24-1.46.14-2.16s-.48-1.37-.68-2.05-.42-1.36-.72-2.01-.59-1.31-.98-1.9-.77-1.22-1.24-1.76-.97-1.06-1.51-1.53-1.26-.69-1.86-1.08-1.15-.85-1.8-1.15-1.33-.49-2.02-.69-1.38-.27-2.09-.37-1.39-.38-2.12-.38c-.66,0-1.32-.03-1.96.05s-1.27.32-1.89.48-1.24.39-1.84.63-1.11.66-1.67.98-1.07.69-1.59,1.08-1.07.72-1.53,1.18-.91.77-1.31,1.28c-.4-.51-.86-.82-1.32-1.28s-.91-.92-1.43-1.31-1.04-.78-1.6-1.1-1.11-.71-1.71-.95-1.26-.32-1.89-.49-1.24-.39-1.89-.47-1.29.14-1.95.14c-.73,0-1.46-.2-2.15-.11s-1.4.37-2.08.57-1.35.49-1.99.78-1.35.53-1.95.91-1.1.92-1.64,1.39-1.07.95-1.54,1.49-.8,1.17-1.19,1.78-.83,1.16-1.13,1.81-.67,1.28-.88,1.97-.21,1.42-.31,2.13-.17,1.41-.17,2.14.03,1.51.14,2.24.23,1.5.45,2.21.57,1.39.9,2.06.6,1.39,1.02,2.01,1.01,1.12,1.52,1.67c-.51.55-.88,1.2-1.3,1.82s-1.01,1.14-1.34,1.81-.47,1.42-.7,2.14-.35,1.44-.47,2.19-.32,1.47-.32,2.23.17,1.44.27,2.14.24,1.42.44,2.09.5,1.34.8,1.99.54,1.34.92,1.94,1,1.03,1.47,1.57.88,1.12,1.42,1.59,1.12.87,1.73,1.25,1.16.86,1.81,1.16,1.36.42,2.05.63,1.35.46,2.07.56,1.42.2,2.14.2c.66,0,1.32-.02,1.95-.1s1.28-.29,1.9-.46,1.24-.4,1.83-.64,1.2-.51,1.76-.83,1.01-.81,1.53-1.2.98-.82,1.44-1.27.99-.68,1.39-1.19c.4.51.93.73,1.39,1.18s.78,1.08,1.29,1.47,1.13.65,1.69.97,1.14.59,1.74.84,1.17.57,1.8.73,1.26.33,1.91.41,1.3-.02,1.95-.02c.73,0,1.45.04,2.15-.06s1.43-.25,2.11-.45,1.27-.69,1.91-.99,1.34-.5,1.94-.89,1.19-.8,1.72-1.27,1.12-.92,1.58-1.46.86-1.16,1.24-1.76.66-1.26.96-1.92.46-1.34.66-2.03.46-1.35.56-2.06,0-1.41,0-2.13-.04-1.48-.15-2.21-.16-1.49-.38-2.2-.52-1.4-.84-2.07-.79-1.26-1.21-1.87-.81-1.28-1.32-1.83c.51-.55,1.03-1.12,1.45-1.74s.91-1.21,1.23-1.89.53-1.41.75-2.13.29-1.46.4-2.21.08-1.47.08-2.23Z" fill="none" stroke="#000" stroke-linecap="round" stroke-linejoin="round" stroke-width="1.05"/>
  </g>
  <path d="M24.23,29.25c-.16-.23-.46-.34-.81-.33l.11-1.97.02-.41.05-.92v-.24s.05-.64.05-.64l-4.45,1.37-.07,1.27-.05.92-.02.41-.07,1.27c-.27.06-.41.14-.68.32-.73.52-1.06,1.31-.73,1.78.33.47,1.19.43,1.92-.08s1.06-1.31.73-1.78c-.13-.18-.34-.29-.59-.32l.08-1.45,3.08-1.11-.09,1.69c-.2.07-.21.17-.41.31-.73.52-1.06,1.31-.73,1.78.33.47,1.19.43,1.92-.08.73-.52,1.06-1.31.73-1.78ZM19.74,28.05l.05-.92,3.08-1.08-.05.88-3.08,1.11Z" fill="#ff9"/>
  <path d="M53.31,28.44c-.16-.23-.46-.34-.81-.33l.11-1.97.02-.41.05-.92v-.24s.05-.64.05-.64l-4.45,1.37-.07,1.27-.05.92-.02.41-.07,1.27c-.27.06-.41.14-.68.32-.73.52-1.06,1.31-.73,1.78.33.47,1.19.43,1.92-.08s1.06-1.31.73-1.78c-.13-.18-.34-.29-.59-.32l.08-1.45,3.08-1.11-.09,1.69c-.2.07-.21.17-.41.31-.73.52-1.06,1.31-.73,1.78.33.47,1.19.43,1.92-.08.73-.52,1.06-1.31.73-1.78ZM48.83,27.23l.05-.92,3.08-1.08-.05.88-3.08,1.11Z" fill="#ff9"/>
  <circle cx="35.58" cy="34.53" r=".91" stroke="#000" stroke-miterlimit="10" stroke-width=".68"/>
  <path d="M28.83,22.86c0-3.61,3.19-3.61,3.19,0" fill="none" stroke="#000" stroke-miterlimit="10" stroke-width=".68"/>
  <path d="M39.26,22.81c0-3.61,3.19-3.61,3.19,0" fill="none" stroke="#000" stroke-miterlimit="10" stroke-width=".68"/>
</svg>