<?xml version="1.0" encoding="UTF-8"?>
<svg id="_레이어_1" data-name="레이어_1" xmlns="http://www.w3.org/2000/svg" width="22" height="38" version="1.1" xmlns:xlink="http://www.w3.org/1999/xlink" viewBox="0 0 22 38">
  <!-- Generator: Adobe Illustrator 29.6.1, SVG Export Plug-In . SVG Version: 2.1.1 Build 9)  -->
  <defs>
    <pattern id="_6_dpi_90_dot_pink" data-name="6 dpi 90 dot pink" x="0" y="0" width="48" height="48" patternTransform="translate(-36 80)" patternUnits="userSpaceOnUse" viewBox="0 0 48 48">
      <g>
        <rect width="48" height="48" fill="none"/>
        <g>
          <path d="M24,58.8c5.96,0,10.8-4.83,10.8-10.8s-4.84-10.8-10.8-10.8-10.8,4.84-10.8,10.8,4.83,10.8,10.8,10.8Z" fill="#fcc"/>
          <circle cx="48" cy="48" r="10.8" fill="#fcc"/>
          <path d="M24,34.8c5.96,0,10.8-4.83,10.8-10.8s-4.84-10.8-10.8-10.8-10.8,4.84-10.8,10.8,4.83,10.8,10.8,10.8Z" fill="#fcc"/>
          <circle cx="48" cy="24" r="10.8" fill="#fcc"/>
          <path d="M36,46.8c5.96,0,10.8-4.83,10.8-10.8s-4.84-10.8-10.8-10.8-10.8,4.84-10.8,10.8,4.83,10.8,10.8,10.8Z" fill="#fcc"/>
          <path d="M12,46.8c5.96,0,10.8-4.83,10.8-10.8s-4.84-10.8-10.8-10.8S1.2,30.04,1.2,36s4.83,10.8,10.8,10.8Z" fill="#fcc"/>
          <path d="M36,22.8c5.96,0,10.8-4.83,10.8-10.8S41.96,1.2,36,1.2s-10.8,4.84-10.8,10.8,4.83,10.8,10.8,10.8Z" fill="#fcc"/>
          <path d="M12,22.8c5.96,0,10.8-4.83,10.8-10.8S17.96,1.2,12,1.2,1.2,6.04,1.2,12s4.83,10.8,10.8,10.8Z" fill="#fcc"/>
        </g>
        <g>
          <circle cy="48" r="10.8" fill="#fcc"/>
          <circle cy="24" r="10.8" fill="#fcc"/>
        </g>
        <g>
          <path d="M24,10.8c5.96,0,10.8-4.83,10.8-10.8s-4.84-10.8-10.8-10.8S13.2-5.96,13.2,0s4.83,10.8,10.8,10.8Z" fill="#fcc"/>
          <circle cx="48" r="10.8" fill="#fcc"/>
        </g>
        <circle r="10.8" fill="#fcc"/>
      </g>
    </pattern>
  </defs>
  <path d="M20.77,1.29h0s.07.07.08.08c0,.03,0,.07-.02.19-.02.11-.03.25-.03.42,0,.27,0,.4,0,.54,0,.14,0,.29,0,.57,0,.15-.03.2-.09.31-.09.17-.21.39-.21.79v1.1c0,.37.08.57.15.74.04.11.07.18.07.37,0,.18-.03.25-.07.36-.07.16-.15.37-.15.74s.09.59.17.76c.05.11.08.17.08.34,0,.19-.03.26-.07.37-.06.16-.14.37-.14.73,0,.34.05.53.1.69.03.11.06.2.06.41s-.03.3-.06.41c-.05.16-.1.35-.1.69,0,.25-.01.36-.03.49-.02.15-.04.31-.04.61,0,.32.04.5.08.66.03.12.05.21.05.43,0,.23-.02.34-.04.46-.02.15-.05.32-.05.63,0,.3.01.45.03.6.01.13.02.25.02.5,0,.29,0,.43.02.58,0,.13.01.26.01.52s0,.39-.01.52c0,.14-.02.29-.02.58v1.1c0,.25-.02.36-.03.49-.02.15-.04.31-.04.61,0,.35.06.54.12.71.04.11.06.19.06.39,0,.23-.02.33-.04.45-.03.15-.06.33-.06.65,0,.3.01.45.03.6.01.13.02.25.02.5s-.02.35-.04.48c-.02.15-.04.31-.04.62v1.1c0,.24-.01.36-.03.49-.02.15-.03.31-.02.6l-.04.02c.03.19.11.43.14.55.04.16.05.26.04.35h0c-.02.28-.12.54-.25.91-.11.32-.22.61-.37.89-.06.11-.15.22-.25.36-.1.12-.23.28-.35.44h0c-.18.26-.39.5-.64.77h0c-.21.24-.44.48-.7.72-.19.19-.32.44-.4.58-.1.18-.15.25-.19.29-.09.07-.21.14-.38.23-.15.08-.35.18-.53.3-.1.07-.23.14-.4.22-.15.08-.34.17-.52.29-.21.14-.38.34-.49.46-.13.15-.21.22-.28.26-.05.03-.12.04-.34.07-.16.02-.45.04-.71.17-.26.13-.46.37-.57.49-.14.16-.2.21-.25.23h0c-.05.02-.14.03-.37.02-.17,0-.5-.03-.79.09-.24.1-.45.25-.59.35-.16.12-.27.18-.37.22-.1.03-.22.04-.41.05-.17,0-.43,0-.68.06-.22.05-.43.14-.59.2-.17.07-.31.12-.45.14-.24.04-.46.13-.63.19-.18.06-.31.1-.44.12-.12.01-.25,0-.44-.04-.17-.03-.41-.08-.65-.08h-.28c-.27,0-.53-.03-.8-.05h0c-.36-.03-.71-.08-1.05-.15h0c-.24-.05-.49-.05-.66-.06-.19,0-.31-.02-.4-.05h0c-.32-.11-.61-.28-.93-.47h0c-.09-.06-.18-.14-.29-.27-.09-.11-.24-.31-.39-.46-.15-.16-.38-.33-.48-.42-.14-.12-.2-.19-.23-.25-.12-.29-.2-.66-.22-.97,0-.09.02-.21.07-.38.04-.15.13-.38.17-.6.02-.11.08-.22.16-.38.07-.14.19-.34.28-.54h0c.11-.25.14-.55.16-.71.03-.21.05-.3.09-.36h0c.17-.26.4-.51.67-.84h0c.21-.26.47-.53.74-.8l.19-.19c.19-.18.4-.37.61-.55.08-.07.2-.13.38-.22.16-.08.38-.18.58-.32.19-.14.35-.31.48-.43.14-.14.25-.24.36-.32.08-.05.19-.09.39-.14.17-.04.43-.11.66-.24.31-.18.64-.35.96-.51.24-.11.43-.29.56-.4.15-.13.25-.21.34-.25h0c.32-.14.62-.26.93-.38.18-.07.36-.14.51-.21.16-.07.3-.12.44-.16.06-.02.14-.02.34,0,.16.01.44.05.71-.03.23-.06.43-.17.58-.24.16-.08.26-.12.37-.15.14-.03.29-.04.45-.05.16-.01.35-.02.54-.04.21-.02.41-.07.56-.11.17-.04.3-.06.43-.07.14,0,.29,0,.46.01.16.01.35.03.53.03h0s0,0,.01,0h0s0,0,0,0c.19,0,.39,0,.54,0,.17,0,.31,0,.43,0h0c.11.01.23.05.39.11.14.05.35.13.55.17h0c.2.04.38.06.48.07.11.01.19.03.29.07l.49.19.17-.5c.1-.29.13-.48.12-.69,0-.08-.02-.17-.02-.23,0-.07-.01-.15-.01-.27,0-.26,0-.38.01-.51,0-.14.02-.28.02-.57v-1.08c0-.18.03-.25.07-.36.06-.16.14-.36.14-.72s-.09-.58-.16-.74c-.05-.1-.08-.16-.08-.33s.03-.23.08-.34c.07-.16.16-.37.16-.74,0-.41-.14-.64-.24-.79-.06-.11-.09-.14-.09-.28,0-.13.03-.18.09-.28.1-.16.24-.39.24-.79,0-.36-.08-.56-.15-.72-.04-.11-.07-.18-.07-.35,0-.19.03-.27.06-.38.05-.16.11-.35.11-.69,0-.25,0-.37.02-.49.01-.14.02-.29.02-.58,0-.37-.09-.58-.16-.74-.05-.1-.08-.16-.08-.33,0-.28,0-.42,0-.55,0-.13,0-.26,0-.52,0-.24.01-.36.03-.48.02-.14.03-.3.03-.59,0-.16.03-.22.08-.32.07-.16.17-.37.17-.75v-1.07c0-.36-.08-.56-.15-.72-.04-.11-.07-.18-.07-.35,0-.28,0-.42-.02-.56,0-.13-.01-.25-.01-.51,0-.23.02-.34.04-.46.02-.15.04-.31.04-.61s-.02-.45-.03-.59c-.01-.13-.03-.24-.03-.48,0-.24.01-.36.02-.49.01-.14.03-.3.03-.58,0-.18-.02-.32-.05-.43,0-.03-.02-.06-.02-.09,0,0,.02-.02.03-.03.03-.03.06-.05.07-.06.1.04.38.16.75.16.44,0,.75-.19.86-.23.01,0,.02.02.04.03Z" fill="url(#_6_dpi_90_dot_pink)" stroke="#000" stroke-linecap="round" stroke-linejoin="bevel" stroke-width="1.01"/>
</svg>