<?xml version="1.0" encoding="UTF-8"?>
<svg id="_레이어_1" data-name="레이어 1" xmlns="http://www.w3.org/2000/svg" width="45" height="43" xmlns:xlink="http://www.w3.org/1999/xlink" viewBox="0 0 45 43">
  <defs>
    <clipPath id="clippath">
      <rect width="44.89" height="42.09" fill="none"/>
    </clipPath>
    <pattern id="USGS_19_침수_지역_3" data-name="USGS 19 침수 지역 3" x="0" y="0" width="75.48" height="70.75" patternTransform="translate(-31.23 420.5)" patternUnits="userSpaceOnUse" viewBox="0 0 75.48 70.75">
      <g>
        <rect width="75.48" height="70.75" fill="none"/>
        <line x1="0" y1="70.37" x2="73.44" y2="70.37" fill="none" stroke="#b0ffd2" stroke-dasharray="2 2" stroke-width=".75"/>
        <line x1="0" y1="66.37" x2="73.44" y2="66.37" fill="none" stroke="#b0ffd2" stroke-dasharray="2 2" stroke-width=".75"/>
        <line x1="0" y1="62.37" x2="73.44" y2="62.37" fill="none" stroke="#b0ffd2" stroke-dasharray="2 2" stroke-width=".75"/>
        <line x1="0" y1="58.37" x2="73.44" y2="58.37" fill="none" stroke="#b0ffd2" stroke-dasharray="2 2" stroke-width=".75"/>
        <line x1="0" y1="54.37" x2="73.44" y2="54.37" fill="none" stroke="#b0ffd2" stroke-dasharray="2 2" stroke-width=".75"/>
        <line x1="0" y1="50.37" x2="73.44" y2="50.37" fill="none" stroke="#b0ffd2" stroke-dasharray="2 2" stroke-width=".75"/>
        <line x1="0" y1="46.37" x2="73.44" y2="46.37" fill="none" stroke="#b0ffd2" stroke-dasharray="2 2" stroke-width=".75"/>
        <line x1="0" y1="42.37" x2="73.44" y2="42.37" fill="none" stroke="#b0ffd2" stroke-dasharray="2 2" stroke-width=".75"/>
        <line x1="0" y1="38.37" x2="73.44" y2="38.37" fill="none" stroke="#b0ffd2" stroke-dasharray="2 2" stroke-width=".75"/>
        <line x1="0" y1="34.37" x2="73.44" y2="34.37" fill="none" stroke="#b0ffd2" stroke-dasharray="2 2" stroke-width=".75"/>
        <line x1="0" y1="30.37" x2="73.44" y2="30.37" fill="none" stroke="#b0ffd2" stroke-dasharray="2 2" stroke-width=".75"/>
        <line x1="0" y1="26.37" x2="73.44" y2="26.37" fill="none" stroke="#b0ffd2" stroke-dasharray="2 2" stroke-width=".75"/>
        <line x1="0" y1="22.37" x2="73.44" y2="22.37" fill="none" stroke="#b0ffd2" stroke-dasharray="2 2" stroke-width=".75"/>
        <line x1="0" y1="18.37" x2="73.44" y2="18.37" fill="none" stroke="#b0ffd2" stroke-dasharray="2 2" stroke-width=".75"/>
        <line x1="0" y1="14.37" x2="73.44" y2="14.37" fill="none" stroke="#b0ffd2" stroke-dasharray="2 2" stroke-width=".75"/>
        <line x1="0" y1="10.37" x2="73.44" y2="10.37" fill="none" stroke="#b0ffd2" stroke-dasharray="2 2" stroke-width=".75"/>
        <line x1="0" y1="6.37" x2="73.44" y2="6.37" fill="none" stroke="#b0ffd2" stroke-dasharray="2 2" stroke-width=".75"/>
        <line x1="0" y1="2.37" x2="73.44" y2="2.37" fill="none" stroke="#b0ffd2" stroke-dasharray="2 2" stroke-width=".75"/>
        <line x1="2.04" y1="68.37" x2="75.48" y2="68.37" fill="none" stroke="#b0ffd2" stroke-dasharray="2 2" stroke-width=".75"/>
        <line x1="2.04" y1="64.37" x2="75.48" y2="64.37" fill="none" stroke="#b0ffd2" stroke-dasharray="2 2" stroke-width=".75"/>
        <line x1="2.04" y1="60.37" x2="75.48" y2="60.37" fill="none" stroke="#b0ffd2" stroke-dasharray="2 2" stroke-width=".75"/>
        <line x1="2.04" y1="56.37" x2="75.48" y2="56.37" fill="none" stroke="#b0ffd2" stroke-dasharray="2 2" stroke-width=".75"/>
        <line x1="2.04" y1="52.37" x2="75.48" y2="52.37" fill="none" stroke="#b0ffd2" stroke-dasharray="2 2" stroke-width=".75"/>
        <line x1="2.04" y1="48.37" x2="75.48" y2="48.37" fill="none" stroke="#b0ffd2" stroke-dasharray="2 2" stroke-width=".75"/>
        <line x1="2.04" y1="44.37" x2="75.48" y2="44.37" fill="none" stroke="#b0ffd2" stroke-dasharray="2 2" stroke-width=".75"/>
        <line x1="2.04" y1="40.37" x2="75.48" y2="40.37" fill="none" stroke="#b0ffd2" stroke-dasharray="2 2" stroke-width=".75"/>
        <line x1="2.04" y1="36.37" x2="75.48" y2="36.37" fill="none" stroke="#b0ffd2" stroke-dasharray="2 2" stroke-width=".75"/>
        <line x1="2.04" y1="32.37" x2="75.48" y2="32.37" fill="none" stroke="#b0ffd2" stroke-dasharray="2 2" stroke-width=".75"/>
        <line x1="2.04" y1="28.37" x2="75.48" y2="28.37" fill="none" stroke="#b0ffd2" stroke-dasharray="2 2" stroke-width=".75"/>
        <line x1="2.04" y1="24.37" x2="75.48" y2="24.37" fill="none" stroke="#b0ffd2" stroke-dasharray="2 2" stroke-width=".75"/>
        <line x1="2.04" y1="20.37" x2="75.48" y2="20.37" fill="none" stroke="#b0ffd2" stroke-dasharray="2 2" stroke-width=".75"/>
        <line x1="2.04" y1="16.37" x2="75.48" y2="16.37" fill="none" stroke="#b0ffd2" stroke-dasharray="2 2" stroke-width=".75"/>
        <line x1="2.04" y1="12.37" x2="75.48" y2="12.37" fill="none" stroke="#b0ffd2" stroke-dasharray="2 2" stroke-width=".75"/>
        <line x1="2.04" y1="8.37" x2="75.48" y2="8.37" fill="none" stroke="#b0ffd2" stroke-dasharray="2 2" stroke-width=".75"/>
        <line x1="2.04" y1="4.37" x2="75.48" y2="4.37" fill="none" stroke="#b0ffd2" stroke-dasharray="2 2" stroke-width=".75"/>
        <line x1="2.04" y1=".37" x2="75.48" y2=".37" fill="none" stroke="#b0ffd2" stroke-dasharray="2 2" stroke-width=".75"/>
      </g>
    </pattern>
  </defs>
  <g clip-path="url(#clippath)">
    <path d="M15.64,1.92l-1.13,8.45-9.42-2.17c-.55-.13-1,.46-.72.96l5.92,10.65-8.49,2.64c-.55.17-.63.93-.12,1.2l7.83,4.27-3.37,6.75c-.27.55.28,1.14.85.9l10.05-4.31.71,9.2c.05.59.8.83,1.17.36l5.64-7.05,7.29,5.83c.43.34,1.07.04,1.07-.51v-10.37l10.26-1.43c.56-.08.77-.78.34-1.15l-7.3-6.33,4.84-4.31c.42-.37.21-1.06-.34-1.14l-10.3-1.47,1.41-9.89c.09-.61-.64-.99-1.09-.58l-7.84,7.13-6.05-7.93c-.36-.47-1.1-.27-1.17.31h-.04Z" fill="url(#USGS_19_침수_지역_3)" stroke="#000" stroke-linecap="round" stroke-linejoin="round"/>
  </g>
</svg>