<?xml version="1.0" encoding="UTF-8"?>
<svg id="_아이콘" data-name="아이콘" xmlns="http://www.w3.org/2000/svg" width="70" height="52" xmlns:xlink="http://www.w3.org/1999/xlink" viewBox="0 0 70 52">
  <defs>
    <pattern id="USGS_17_마른_호수_모래_바닥" data-name="USGS 17 마른 호수 모래 바닥" x="0" y="0" width="72" height="72" patternTransform="translate(-1814.78 451.56)" patternUnits="userSpaceOnUse" viewBox="0 0 72 72">
      <g>
        <rect width="72" height="72" fill="none"/>
        <path d="M21,3c-.06,0-.12-.02-.17-.07-.05-.05-.08-.11-.08-.18s.03-.13.08-.18c.09-.09.25-.09.35,0,.05.05.07.11.07.18,0,.06-.02.12-.07.17-.05.06-.11.08-.18.08Z" fill="#231815"/>
        <path d="M20,8.25c-.06,0-.13-.03-.18-.07-.04-.05-.07-.11-.07-.18s.03-.13.07-.18c.1-.09.26-.09.36,0,.04.05.07.11.07.18s-.03.13-.07.18c-.05.05-.11.07-.18.07Z" fill="#231815"/>
        <path d="M20.25,10.5c-.06,0-.13-.03-.17-.07-.05-.05-.08-.11-.08-.18s.03-.13.07-.18c.1-.09.27-.09.36,0,.04.05.07.11.07.18s-.03.14-.08.18c-.04.04-.1.07-.17.07Z" fill="#231815"/>
        <path d="M18,12.75c-.06,0-.12-.03-.17-.07-.05-.05-.08-.11-.08-.18s.03-.13.07-.18c.11-.09.26-.09.36,0,.05.05.07.11.07.18s-.02.13-.07.18c-.05.04-.11.07-.18.07Z" fill="#231815"/>
        <path d="M15.25,10.5c-.06,0-.12-.02-.17-.07-.05-.05-.08-.12-.08-.18,0-.07.03-.13.07-.18.12-.1.26-.09.36,0,.05.05.07.11.07.18,0,.06-.02.13-.07.17-.05.06-.11.08-.18.08Z" fill="#231815"/>
        <path d="M22.75,20c-.06,0-.12-.02-.17-.07-.05-.05-.08-.11-.08-.18,0-.06.03-.13.07-.17.11-.11.27-.1.36,0,.05.06.07.12.07.18s-.02.13-.07.18c-.05.04-.11.07-.18.07Z" fill="#231815"/>
        <path d="M15.25,23c-.06,0-.12-.02-.17-.07-.05-.05-.08-.11-.08-.18,0-.06.03-.12.07-.17.12-.11.26-.1.36,0,.05.05.07.12.07.18,0,.07-.02.13-.07.18-.05.05-.11.07-.18.07Z" fill="#231815"/>
        <path d="M14,24c-.07,0-.13-.03-.18-.08-.04-.04-.07-.1-.07-.17s.03-.13.07-.18c.11-.1.26-.09.36,0,.05.05.07.12.07.18,0,.07-.02.13-.07.18-.05.04-.11.07-.18.07Z" fill="#231815"/>
        <path d="M24,27c-.06,0-.12-.02-.17-.07-.05-.05-.08-.11-.08-.18s.03-.13.07-.17c.11-.11.26-.1.36,0,.05.06.07.12.07.18,0,.07-.02.13-.07.18-.05.05-.11.07-.18.07Z" fill="#231815"/>
        <path d="M30.75,25.75c-.06,0-.12-.02-.17-.07-.05-.05-.08-.11-.08-.18s.03-.13.08-.18c.1-.09.25-.09.35,0,.05.05.07.12.07.18s-.02.13-.07.18c-.05.05-.11.07-.18.07Z" fill="#231815"/>
        <path d="M31.25,23.25c-.06,0-.12-.03-.17-.07-.05-.05-.08-.11-.08-.18,0-.06.03-.13.07-.17.11-.11.26-.1.36,0,.05.06.07.12.07.18,0,.07-.02.13-.07.18-.05.04-.11.07-.18.07Z" fill="#231815"/>
        <path d="M29.25,18.25c-.06,0-.12-.02-.17-.07-.05-.05-.08-.11-.08-.18s.03-.13.08-.18c.1-.09.25-.09.35,0,.05.05.07.11.07.18s-.03.13-.07.18c-.05.05-.12.07-.18.07Z" fill="#231815"/>
        <path d="M32.25,18.25c-.06,0-.12-.02-.17-.07-.05-.05-.08-.11-.08-.18s.03-.13.07-.18c.11-.09.26-.09.36,0,.04.05.07.11.07.18s-.03.13-.07.18c-.05.05-.11.07-.18.07Z" fill="#231815"/>
        <path d="M32.5,13.75c-.06,0-.13-.03-.17-.07-.05-.05-.08-.11-.08-.18s.03-.13.08-.18c.09-.09.26-.09.35,0,.05.05.07.12.07.18s-.02.12-.07.17c-.05.05-.11.08-.18.08Z" fill="#231815"/>
        <path d="M31.75,11.75c-.06,0-.12-.02-.17-.07-.05-.05-.08-.11-.08-.18s.03-.13.08-.18c.1-.09.25-.09.35,0,.05.05.07.11.07.18s-.03.13-.07.18c-.05.05-.11.07-.18.07Z" fill="#231815"/>
        <path d="M29.25,10.75c-.07,0-.13-.03-.18-.07-.04-.05-.07-.11-.07-.18s.03-.13.08-.18c.1-.09.25-.09.35,0,.05.05.07.11.07.18s-.02.13-.07.18c-.05.04-.11.07-.18.07Z" fill="#231815"/>
        <path d="M32.25,7c-.06,0-.12-.02-.17-.07-.05-.05-.08-.11-.08-.18s.03-.13.07-.18c.11-.09.26-.09.36,0,.05.05.07.11.07.18s-.03.13-.07.18c-.05.05-.11.07-.18.07Z" fill="#231815"/>
        <path d="M32,3c-.06,0-.12-.03-.17-.07-.05-.05-.08-.11-.08-.18s.03-.13.08-.18c.1-.09.25-.09.35,0,.05.05.07.12.07.18s-.02.13-.07.18c-.05.04-.11.07-.18.07Z" fill="#231815"/>
        <path d="M29.25,3.25c-.06,0-.12-.02-.17-.07-.05-.05-.08-.11-.08-.18s.03-.13.08-.18c.09-.09.25-.09.35,0,.05.05.07.11.07.18,0,.06-.02.13-.07.17-.05.06-.11.08-.18.08Z" fill="#231815"/>
        <path d="M34,1.25c-.06,0-.13-.03-.17-.07-.05-.05-.08-.11-.08-.18s.03-.14.08-.18c.09-.09.26-.09.35,0,.05.05.07.11.07.18,0,.06-.02.12-.07.17-.05.05-.11.08-.18.08Z" fill="#231815"/>
        <path d="M41.5,7c-.06,0-.13-.03-.17-.07-.05-.05-.08-.11-.08-.18s.03-.13.08-.18c.09-.09.24-.09.34,0,.06.06.08.12.08.18s-.02.12-.07.17c-.05.06-.11.08-.18.08Z" fill="#231815"/>
        <path d="M45.5,6.75c-.06,0-.12-.02-.17-.07-.05-.05-.08-.11-.08-.18s.03-.13.08-.18c.09-.09.25-.09.35,0,.05.05.07.12.07.18s-.02.13-.07.18c-.05.05-.12.07-.18.07Z" fill="#231815"/>
        <path d="M40.25,10.25c-.06,0-.12-.02-.17-.07-.05-.05-.08-.12-.08-.18,0-.07.03-.13.07-.18.11-.09.26-.09.36,0,.05.05.07.11.07.18,0,.06-.02.13-.07.17-.05.06-.11.08-.18.08Z" fill="#231815"/>
        <path d="M45,11.75c-.06,0-.12-.02-.17-.07-.05-.05-.08-.11-.08-.18s.03-.13.08-.18c.1-.09.25-.09.35,0,.04.05.07.11.07.18s-.02.13-.07.18c-.05.05-.11.07-.18.07Z" fill="#231815"/>
        <path d="M45,13.5c-.06,0-.12-.02-.17-.07-.05-.05-.08-.11-.08-.18s.03-.13.08-.18c.08-.09.26-.09.35,0,.05.04.07.1.07.17s-.02.13-.07.18c-.05.05-.11.07-.18.07Z" fill="#231815"/>
        <path d="M47,14.25c-.06,0-.12-.02-.17-.07-.05-.05-.08-.11-.08-.18s.03-.13.08-.18c.09-.09.25-.09.35,0,.05.05.07.12.07.18s-.02.13-.07.18c-.05.05-.11.07-.18.07Z" fill="#231815"/>
        <path d="M47,16.25c-.06,0-.13-.03-.17-.07-.05-.05-.08-.11-.08-.18s.03-.13.08-.18c.08-.08.26-.09.35,0,.05.04.07.11.07.17s-.02.13-.07.18c-.05.04-.11.07-.18.07Z" fill="#231815"/>
        <path d="M47.25,22.75c-.06,0-.13-.03-.17-.07-.05-.04-.08-.11-.08-.18s.03-.13.08-.18c.08-.08.25-.09.35,0,.05.05.07.11.07.18s-.03.13-.07.18c-.05.05-.11.07-.18.07Z" fill="#231815"/>
        <path d="M39,20.75c-.06,0-.12-.02-.17-.07-.05-.05-.08-.11-.08-.18s.03-.13.08-.18c.1-.09.25-.09.35,0,.04.05.07.11.07.18s-.03.13-.07.18c-.05.05-.11.07-.18.07Z" fill="#231815"/>
        <path d="M50.25,13.5c-.06,0-.13-.03-.17-.07-.05-.05-.08-.11-.08-.18s.03-.13.08-.18c.1-.09.26-.09.35,0,.05.05.07.12.07.18s-.02.13-.07.18c-.05.04-.11.07-.18.07Z" fill="#231815"/>
        <path d="M52.25,12c-.06,0-.12-.02-.17-.07-.05-.05-.08-.11-.08-.18s.03-.13.08-.18c.09-.09.25-.09.35,0,.05.05.07.12.07.18s-.02.13-.07.18c-.05.05-.11.07-.18.07Z" fill="#231815"/>
        <path d="M54.75,11c-.06,0-.13-.03-.17-.07-.05-.05-.08-.12-.08-.18,0-.07.03-.13.08-.18.09-.09.25-.09.35,0,.05.05.07.11.07.18,0,.06-.02.13-.07.18-.05.04-.11.07-.18.07Z" fill="#231815"/>
        <path d="M54.75,6.75c-.07,0-.13-.03-.17-.07-.05-.06-.08-.12-.08-.18s.03-.12.07-.17c.1-.1.26-.1.36,0,.05.06.07.12.07.18s-.02.12-.07.17c-.05.05-.11.08-.18.08Z" fill="#231815"/>
        <path d="M56.5.75c-.06,0-.13-.03-.17-.07-.05-.05-.08-.12-.08-.18s.03-.13.07-.18c.1-.09.26-.09.36,0,.05.06.07.12.07.18s-.02.12-.07.17c-.05.05-.11.08-.18.08Z" fill="#231815"/>
        <path d="M64,6.5c-.06,0-.13-.03-.17-.07-.05-.05-.08-.12-.08-.18s.03-.13.07-.17c.1-.1.26-.1.36,0,.05.06.07.12.07.18s-.02.12-.07.17c-.05.05-.11.08-.18.08Z" fill="#231815"/>
        <path d="M65,2.5c-.06,0-.13-.03-.17-.07-.05-.05-.08-.11-.08-.18s.03-.13.08-.18c.09-.09.25-.09.35,0,.05.05.07.11.07.18s-.02.13-.07.17c-.05.06-.11.08-.18.08Z" fill="#231815"/>
        <path d="M68,3c-.06,0-.13-.03-.17-.07-.05-.05-.08-.11-.08-.18s.03-.13.07-.18c.1-.09.27-.09.36,0,.05.05.07.12.07.18s-.02.13-.07.18c-.05.04-.11.07-.18.07Z" fill="#231815"/>
        <path d="M68,10.25c-.06,0-.13-.03-.17-.07-.05-.05-.08-.11-.08-.18s.03-.13.07-.18c.1-.09.26-.09.36,0,.05.05.07.12.07.18s-.02.13-.07.18c-.05.04-.11.07-.18.07Z" fill="#231815"/>
        <path d="M64.25,12.25c-.06,0-.13-.03-.17-.07-.05-.05-.08-.12-.08-.18s.03-.13.07-.17c.09-.1.25-.1.35,0,.06.05.08.12.08.18s-.02.13-.07.17c-.05.06-.11.08-.18.08Z" fill="#231815"/>
        <path d="M65.25,15.75c-.07,0-.13-.03-.17-.07-.05-.05-.08-.11-.08-.18s.03-.13.08-.18c.07-.08.26-.09.35,0,.05.04.07.11.07.17s-.02.12-.07.17c-.04.05-.11.08-.18.08Z" fill="#231815"/>
        <path d="M64,19.75c-.06,0-.13-.03-.17-.07-.05-.05-.08-.11-.08-.18s.03-.13.08-.18c.08-.09.25-.09.35,0,.05.05.07.12.07.18s-.02.13-.07.18c-.05.04-.11.07-.18.07Z" fill="#231815"/>
        <path d="M66.25,19.75c-.07,0-.13-.03-.18-.08-.04-.04-.07-.1-.07-.17,0-.06.03-.13.07-.17.09-.1.26-.1.36,0,.05.05.07.12.07.18,0,.07-.02.13-.07.18-.05.04-.11.07-.18.07Z" fill="#231815"/>
        <path d="M68,21.25c-.06,0-.13-.03-.17-.07-.05-.05-.08-.12-.08-.18s.03-.12.07-.17c.1-.1.27-.1.36,0,.05.06.07.12.07.18s-.02.12-.07.17c-.05.05-.11.08-.18.08Z" fill="#231815"/>
        <path d="M69.25,20.25c-.06,0-.12-.02-.17-.07-.05-.05-.08-.11-.08-.18s.03-.13.08-.18c.09-.09.25-.09.35,0,.05.05.07.11.07.18s-.02.13-.07.18c-.05.05-.11.07-.18.07Z" fill="#231815"/>
        <path d="M69.5,18c-.06,0-.12-.02-.17-.07-.05-.05-.08-.11-.08-.18s.03-.13.08-.18c.09-.09.25-.09.35,0,.05.05.07.11.07.18s-.02.13-.07.18c-.05.05-.11.07-.18.07Z" fill="#231815"/>
        <path d="M71.25,17.5c-.06,0-.13-.03-.17-.07-.05-.05-.08-.12-.08-.18s.03-.12.07-.17c.11-.1.26-.1.36,0,.05.06.07.12.07.18s-.02.12-.07.17c-.05.05-.11.08-.18.08Z" fill="#231815"/>
        <path d="M8,47c-.06,0-.13-.03-.18-.07-.04-.06-.07-.12-.07-.18,0-.07.03-.13.07-.18.09-.09.26-.09.36,0,.05.05.07.11.07.18,0,.06-.02.13-.07.17-.05.06-.11.08-.18.08Z" fill="#231815"/>
        <path d="M7,52.25c-.06,0-.12-.02-.17-.07-.05-.05-.08-.11-.08-.18s.03-.13.07-.18c.11-.09.26-.09.36,0,.05.05.07.12.07.18,0,.07-.02.13-.07.18-.05.05-.11.07-.18.07Z" fill="#231815"/>
        <path d="M7.25,54.5c-.06,0-.13-.03-.17-.07-.05-.05-.08-.11-.08-.18,0-.06.03-.13.07-.18.1-.09.26-.09.36,0,.04.05.07.11.07.18s-.03.13-.07.18c-.05.04-.11.07-.18.07Z" fill="#231815"/>
        <path d="M5,56.75c-.06,0-.13-.03-.17-.07-.05-.05-.08-.11-.08-.18s.03-.13.07-.17c.1-.1.26-.1.36,0,.05.05.07.11.07.18s-.03.13-.07.18c-.05.05-.12.07-.18.07Z" fill="#231815"/>
        <path d="M2.25,54.5c-.06,0-.12-.02-.17-.07-.05-.05-.08-.11-.08-.18,0-.06.03-.13.07-.17.11-.11.26-.1.35,0,.06.06.08.12.08.18s-.02.13-.07.18c-.06.05-.12.07-.18.07Z" fill="#231815"/>
        <path d="M9.75,64c-.06,0-.12-.02-.17-.07-.05-.05-.08-.11-.08-.18s.03-.13.07-.18c.11-.09.26-.09.36,0,.05.05.07.11.07.18s-.02.13-.07.18-.11.07-.18.07Z" fill="#231815"/>
        <path d="M2.25,67c-.06,0-.12-.03-.17-.07-.05-.05-.08-.11-.08-.18s.03-.13.07-.18c.1-.09.26-.09.36,0,.05.05.07.11.07.18,0,.06-.02.13-.07.18-.06.05-.12.07-.18.07Z" fill="#231815"/>
        <path d="M1,68c-.06,0-.13-.03-.18-.07-.04-.05-.07-.11-.07-.18,0-.06.03-.13.07-.18.1-.09.27-.09.36,0,.05.05.07.12.07.18s-.02.13-.07.18c-.05.04-.11.07-.18.07Z" fill="#231815"/>
        <path d="M11,71c-.06,0-.12-.02-.17-.07-.05-.05-.08-.11-.08-.18s.03-.13.07-.18c.11-.09.26-.09.36,0,.05.05.07.12.07.18s-.02.13-.07.18c-.05.05-.12.07-.18.07Z" fill="#231815"/>
        <path d="M17.75,69.75c-.06,0-.12-.02-.17-.07-.05-.05-.08-.11-.08-.18s.03-.13.07-.18c.11-.09.26-.09.36,0,.05.05.07.11.07.18s-.03.13-.07.18c-.05.05-.12.07-.18.07Z" fill="#231815"/>
        <path d="M18.25,67.25c-.06,0-.12-.03-.17-.07-.05-.06-.08-.12-.08-.18,0-.07.03-.13.07-.18.11-.09.26-.09.36,0,.05.05.07.11.07.18,0,.06-.02.13-.07.17-.05.05-.11.08-.18.08Z" fill="#231815"/>
        <path d="M16.25,62.25c-.07,0-.13-.03-.18-.08-.04-.04-.07-.1-.07-.17s.03-.13.07-.18c.1-.09.26-.09.36,0,.05.05.07.11.07.18s-.02.13-.07.18c-.05.04-.11.07-.18.07Z" fill="#231815"/>
        <path d="M19.25,62.25c-.06,0-.13-.03-.17-.07-.05-.05-.08-.11-.08-.18s.03-.13.07-.18c.1-.09.27-.09.36,0,.04.04.07.11.07.18s-.03.14-.08.18c-.04.04-.1.07-.17.07Z" fill="#231815"/>
        <path d="M19.5,57.75c-.06,0-.12-.02-.17-.07-.05-.05-.08-.11-.08-.18,0-.06.03-.13.07-.17.11-.11.26-.1.36,0,.05.06.07.12.07.18s-.02.13-.07.18c-.05.05-.11.07-.18.07Z" fill="#231815"/>
        <path d="M18.75,55.75c-.06,0-.12-.02-.17-.07-.05-.05-.08-.11-.08-.18s.03-.13.08-.18c.1-.09.26-.09.35,0,.05.05.07.12.07.18s-.02.12-.07.17c-.05.05-.11.08-.18.08Z" fill="#231815"/>
        <path d="M16.25,54.75c-.06,0-.13-.03-.18-.07-.04-.05-.07-.11-.07-.18,0-.06.03-.12.07-.17.1-.1.26-.1.36,0,.05.05.07.12.07.18,0,.07-.02.13-.07.18-.05.05-.11.07-.18.07Z" fill="#231815"/>
        <path d="M19.25,51c-.06,0-.13-.03-.17-.07-.05-.05-.08-.12-.08-.18,0-.07.03-.13.07-.18.1-.09.27-.09.36,0,.04.04.07.11.07.18s-.02.13-.07.18c-.05.04-.11.07-.18.07Z" fill="#231815"/>
        <path d="M19,47c-.06,0-.13-.03-.17-.07-.05-.05-.08-.12-.08-.18,0-.07.03-.13.07-.18.1-.09.26-.09.36,0,.04.05.07.11.07.18,0,.06-.02.13-.07.17-.05.06-.11.08-.18.08Z" fill="#231815"/>
        <path d="M16.25,47.25c-.07,0-.13-.03-.18-.07-.04-.05-.07-.12-.07-.18,0-.07.03-.13.07-.18.09-.09.26-.09.36,0,.05.05.07.11.07.18,0,.06-.02.13-.07.18-.05.05-.11.07-.18.07Z" fill="#231815"/>
        <path d="M21,45.25c-.06,0-.12-.02-.17-.07-.05-.05-.08-.11-.08-.18s.03-.13.08-.18c.1-.09.25-.09.35,0,.05.05.07.12.07.18s-.02.12-.07.17c-.05.06-.11.08-.18.08Z" fill="#231815"/>
        <path d="M28.5,51c-.06,0-.13-.03-.17-.07-.05-.05-.08-.11-.08-.18s.03-.13.08-.18c.09-.09.26-.09.35,0,.05.06.07.12.07.18s-.02.13-.07.18c-.05.04-.11.07-.18.07Z" fill="#231815"/>
        <path d="M32.5,50.75c-.06,0-.13-.03-.17-.07-.05-.05-.08-.11-.08-.18s.03-.13.08-.18c.09-.09.25-.09.35,0,.05.05.07.12.07.18s-.02.13-.07.18c-.05.04-.11.07-.18.07Z" fill="#231815"/>
        <path d="M27.25,54.25c-.07,0-.13-.03-.18-.08-.04-.04-.07-.1-.07-.17s.03-.14.08-.18c.09-.09.26-.09.35,0,.05.05.07.11.07.18,0,.06-.02.13-.07.18-.04.04-.11.07-.18.07Z" fill="#231815"/>
        <path d="M32,55.75c-.06,0-.12-.03-.17-.07-.05-.05-.08-.11-.08-.18,0-.06.03-.13.07-.17.11-.11.26-.1.36,0,.05.06.07.12.07.18,0,.07-.02.13-.07.18-.05.04-.11.07-.18.07Z" fill="#231815"/>
        <path d="M32,57.5c-.06,0-.12-.02-.17-.07-.05-.05-.08-.11-.08-.18,0-.06.03-.13.07-.17.11-.11.26-.1.36,0,.05.06.07.12.07.18s-.02.13-.07.18c-.05.05-.11.07-.18.07Z" fill="#231815"/>
        <path d="M34,58.25c-.07,0-.13-.03-.18-.08-.04-.04-.07-.1-.07-.17s.03-.14.08-.18c.09-.09.26-.09.35,0,.05.05.07.11.07.18,0,.06-.02.13-.07.18-.04.04-.11.07-.18.07Z" fill="#231815"/>
        <path d="M34,60.25c-.06,0-.12-.02-.17-.07-.05-.05-.08-.11-.08-.18s.03-.13.08-.18c.09-.09.26-.09.35,0,.05.06.07.12.07.18s-.02.13-.07.18c-.05.04-.11.07-.18.07Z" fill="#231815"/>
        <path d="M34.25,66.75c-.06,0-.13-.03-.17-.07-.05-.05-.08-.11-.08-.18s.03-.13.08-.18c.09-.09.25-.09.35,0,.05.05.07.12.07.18s-.02.13-.07.18c-.05.04-.11.07-.18.07Z" fill="#231815"/>
        <path d="M26,64.75c-.06,0-.12-.02-.17-.07-.05-.05-.08-.11-.08-.18s.03-.13.08-.18c.09-.09.26-.09.35,0,.05.04.07.11.07.17,0,.07-.02.13-.07.18-.05.05-.11.07-.18.07Z" fill="#231815"/>
        <path d="M37.25,57.5c-.06,0-.13-.03-.17-.07-.05-.05-.08-.11-.08-.18s.03-.13.08-.18c.09-.09.25-.09.34,0,.06.05.08.12.08.18s-.02.12-.07.17c-.05.06-.11.08-.18.08Z" fill="#231815"/>
        <path d="M39.25,56c-.06,0-.13-.03-.17-.07-.05-.05-.08-.11-.08-.18s.03-.13.08-.18c.09-.09.25-.09.35,0,.05.05.07.12.07.18s-.02.12-.07.17c-.05.06-.11.08-.18.08Z" fill="#231815"/>
        <path d="M41.75,55c-.06,0-.13-.03-.17-.07-.05-.05-.08-.11-.08-.18s.03-.14.08-.18c.09-.09.26-.09.35,0,.05.05.07.11.07.18,0,.06-.02.12-.07.17-.05.05-.11.08-.18.08Z" fill="#231815"/>
        <path d="M41.75,50.75c-.06,0-.12-.02-.17-.07-.05-.05-.08-.11-.08-.18s.03-.13.08-.18c.09-.09.26-.09.35,0,.05.05.07.11.07.18,0,.06-.02.13-.07.18-.05.04-.11.07-.18.07Z" fill="#231815"/>
        <path d="M43.5,44.75c-.06,0-.12-.03-.17-.07-.05-.05-.08-.11-.08-.18s.03-.13.08-.18c.09-.09.25-.09.35,0,.05.05.07.12.07.18s-.02.13-.07.18c-.05.05-.12.07-.18.07Z" fill="#231815"/>
        <path d="M51,50.5c-.06,0-.12-.03-.17-.07-.05-.05-.08-.11-.08-.18s.03-.13.08-.18c.09-.09.25-.09.35,0,.05.05.07.11.07.18s-.02.13-.07.18c-.05.05-.11.07-.18.07Z" fill="#231815"/>
        <path d="M52,46.5c-.06,0-.13-.03-.17-.07-.05-.05-.08-.11-.08-.18s.03-.13.08-.18c.09-.09.25-.09.35,0,.05.06.07.12.07.18s-.02.12-.07.17c-.05.06-.11.08-.18.08Z" fill="#231815"/>
        <path d="M55,47c-.06,0-.12-.02-.17-.07-.05-.05-.08-.11-.08-.18s.03-.13.08-.18c.09-.09.25-.09.35,0,.05.05.07.12.07.18s-.02.13-.07.18c-.05.05-.11.07-.18.07Z" fill="#231815"/>
        <path d="M55,54.25c-.06,0-.12-.03-.17-.07-.05-.05-.08-.11-.08-.18s.03-.13.08-.18c.09-.09.25-.09.35,0,.05.05.07.12.07.18s-.02.13-.07.18c-.05.05-.11.07-.18.07Z" fill="#231815"/>
        <path d="M51.25,56.25c-.06,0-.13-.03-.17-.07-.05-.05-.08-.11-.08-.18s.03-.13.08-.18c.09-.09.25-.09.35,0,.05.05.07.11.07.18s-.02.13-.07.18c-.05.04-.11.07-.18.07Z" fill="#231815"/>
        <path d="M52.25,59.75c-.06,0-.12-.02-.17-.07-.05-.05-.08-.11-.08-.18s.03-.13.08-.18c.09-.09.25-.09.35,0,.05.06.07.12.07.18s-.02.12-.07.17c-.05.06-.11.08-.18.08Z" fill="#231815"/>
        <path d="M51,63.75c-.06,0-.13-.03-.17-.07-.05-.05-.08-.11-.08-.18s.03-.13.08-.18c.09-.09.25-.09.35,0,.05.05.07.12.07.18s-.02.13-.07.17c-.05.06-.11.08-.18.08Z" fill="#231815"/>
        <path d="M53.25,63.75c-.06,0-.13-.03-.17-.07-.05-.05-.08-.12-.08-.18s.03-.13.07-.17c.1-.1.26-.1.36,0,.05.06.07.12.07.18s-.02.12-.07.17c-.05.05-.11.08-.18.08Z" fill="#231815"/>
        <path d="M55,65.25c-.06,0-.12-.03-.17-.07-.05-.05-.08-.11-.08-.18s.03-.13.08-.18c.09-.09.25-.09.35,0,.05.05.07.12.07.18s-.02.13-.07.18c-.05.05-.11.07-.18.07Z" fill="#231815"/>
        <path d="M56.25,64.25c-.06,0-.12-.03-.17-.07-.05-.05-.08-.11-.08-.18s.03-.13.08-.18c.09-.09.25-.09.35,0,.05.05.07.12.07.18,0,.07-.02.13-.07.18-.05.05-.11.07-.18.07Z" fill="#231815"/>
        <path d="M56.5,62c-.06,0-.13-.03-.17-.07-.05-.06-.08-.12-.08-.18,0-.07.03-.13.08-.18.07-.08.26-.09.35,0,.05.04.07.11.07.17s-.02.12-.07.17c-.05.05-.11.08-.18.08Z" fill="#231815"/>
        <path d="M58.25,61.5c-.06,0-.13-.03-.17-.07-.05-.05-.08-.12-.08-.18s.03-.13.07-.17c.1-.1.27-.1.36,0,.05.06.07.12.07.18s-.02.12-.07.17c-.04.05-.11.08-.18.08Z" fill="#231815"/>
        <path d="M21,27c-.06,0-.12-.02-.17-.07-.05-.05-.08-.11-.08-.18s.03-.13.08-.18c.1-.09.25-.09.35,0,.05.05.07.12.07.18s-.02.13-.07.18c-.05.05-.12.07-.18.07Z" fill="#231815"/>
        <path d="M22.75,24c-.07,0-.13-.03-.18-.07-.04-.05-.07-.11-.07-.18s.03-.13.08-.18c.1-.09.26-.09.35,0,.05.05.07.12.07.18s-.02.13-.07.18c-.04.04-.11.07-.18.07Z" fill="#231815"/>
        <path d="M25.25,24.5c-.06,0-.12-.03-.17-.07-.05-.05-.08-.11-.08-.18s.03-.13.08-.18c.1-.09.25-.09.35,0,.05.05.07.12.07.18s-.02.13-.07.18c-.05.04-.11.07-.18.07Z" fill="#231815"/>
        <path d="M35.25,23.25c-.06,0-.12-.02-.17-.07-.05-.05-.08-.11-.08-.18s.03-.13.08-.18c.1-.09.25-.09.35,0,.05.05.07.11.07.18s-.03.13-.07.18c-.05.05-.11.07-.18.07Z" fill="#231815"/>
        <path d="M39,24.75c-.06,0-.12-.02-.17-.07-.05-.05-.08-.11-.08-.18s.03-.13.08-.18c.1-.09.25-.09.35,0,.05.05.07.11.07.18s-.03.13-.07.18c-.05.05-.12.07-.18.07Z" fill="#231815"/>
        <path d="M45,29.5c-.06,0-.12-.02-.17-.07-.05-.05-.08-.11-.08-.18s.03-.13.08-.18c.1-.09.25-.09.35,0,.05.05.07.11.07.18s-.02.13-.07.18c-.05.05-.12.07-.18.07Z" fill="#231815"/>
        <path d="M46.25,29c-.06,0-.13-.03-.17-.07-.05-.05-.08-.11-.08-.18s.03-.13.08-.18c.09-.09.25-.09.34,0,.06.06.08.12.08.18s-.02.12-.07.17c-.05.06-.11.08-.18.08Z" fill="#231815"/>
        <path d="M55.25,28c-.06,0-.13-.03-.17-.07-.05-.05-.08-.11-.08-.18s.03-.13.08-.18c.09-.09.25-.09.35,0,.05.05.07.12.07.18s-.02.13-.07.18c-.05.04-.11.07-.18.07Z" fill="#231815"/>
        <path d="M51.25,25.25c-.06,0-.12-.02-.17-.07-.05-.05-.08-.11-.08-.18s.03-.13.08-.18c.09-.09.25-.09.35,0,.05.05.07.11.07.18s-.03.13-.07.18c-.05.05-.11.07-.18.07Z" fill="#231815"/>
        <path d="M52,29.5c-.06,0-.13-.03-.17-.07-.05-.05-.08-.11-.08-.18s.03-.13.08-.18c.09-.09.25-.09.35,0,.05.06.07.12.07.18s-.02.12-.07.17c-.05.06-.11.08-.18.08Z" fill="#231815"/>
        <path d="M62.5,35.5c-.06,0-.13-.03-.17-.07-.05-.05-.08-.11-.08-.18s.03-.13.08-.18c.08-.08.24-.09.34,0,.06.05.08.12.08.18s-.02.13-.07.18c-.05.05-.12.07-.18.07Z" fill="#231815"/>
        <path d="M58.25,38.25c-.07,0-.13-.03-.17-.07-.05-.05-.08-.12-.08-.18s.03-.13.07-.17c.1-.1.27-.1.36,0,.05.06.07.12.07.18s-.02.12-.07.17c-.04.05-.11.08-.18.08Z" fill="#231815"/>
        <path d="M49,39c-.07,0-.13-.03-.17-.07-.05-.05-.08-.12-.08-.18s.03-.13.07-.17c.1-.1.26-.1.36,0,.05.06.07.12.07.18s-.02.12-.07.17c-.05.05-.11.08-.18.08Z" fill="#231815"/>
        <path d="M48,41.25c-.06,0-.12-.02-.17-.07-.05-.05-.08-.11-.08-.18s.03-.13.08-.18c.09-.09.24-.09.34,0,.06.05.08.12.08.18s-.02.12-.07.17c-.06.06-.11.08-.18.08Z" fill="#231815"/>
        <path d="M52,43c-.07,0-.13-.03-.18-.08-.04-.04-.07-.1-.07-.17s.03-.13.08-.18c.09-.09.25-.09.35,0,.05.05.07.12.07.18s-.02.13-.07.18c-.05.04-.11.07-.18.07Z" fill="#231815"/>
        <path d="M53.5,45c-.06,0-.13-.03-.17-.07-.05-.05-.08-.11-.08-.18s.03-.13.08-.18c.08-.09.25-.09.35,0,.05.05.07.12.07.18s-.02.13-.07.18c-.05.04-.11.07-.18.07Z" fill="#231815"/>
        <path d="M62.25,48c-.06,0-.13-.03-.17-.07-.05-.05-.08-.12-.08-.18s.03-.13.07-.17c.1-.1.26-.1.36,0,.05.06.07.12.07.18s-.02.12-.07.17c-.05.05-.11.08-.18.08Z" fill="#231815"/>
        <path d="M65,51.75c-.06,0-.12-.03-.17-.07-.05-.05-.08-.11-.08-.18s.03-.14.08-.18c.09-.08.25-.09.35,0,.04.05.07.11.07.18s-.02.13-.07.18c-.05.05-.11.07-.18.07Z" fill="#231815"/>
        <path d="M67,51.75c-.06,0-.13-.03-.17-.07-.05-.05-.08-.11-.08-.18s.03-.13.08-.18c.08-.08.25-.09.35,0,.05.05.07.11.07.18s-.02.13-.07.18c-.05.05-.11.07-.18.07Z" fill="#231815"/>
        <path d="M69.5,45c-.06,0-.12-.03-.17-.07-.05-.05-.08-.11-.08-.18s.03-.13.08-.18c.09-.09.25-.09.35,0,.05.05.07.11.07.18s-.02.13-.07.18c-.05.05-.11.07-.18.07Z" fill="#231815"/>
        <path d="M60,39c-.06,0-.12-.02-.17-.07-.05-.05-.08-.11-.08-.18s.03-.13.08-.18c.09-.09.25-.09.35,0,.04.05.07.11.07.18s-.03.13-.07.18c-.05.05-.11.07-.18.07Z" fill="#231815"/>
        <path d="M47.25,47.75c-.06,0-.13-.03-.17-.07-.05-.05-.08-.11-.08-.18s.03-.14.08-.18c.08-.08.25-.09.35,0,.04.05.07.11.07.18s-.02.13-.07.18c-.05.05-.11.07-.18.07Z" fill="#231815"/>
        <path d="M32.5,47c-.06,0-.12-.03-.17-.07-.05-.05-.08-.11-.08-.18s.03-.13.08-.18c.09-.09.26-.09.35,0,.05.05.07.12.07.18s-.02.13-.07.18c-.05.04-.11.07-.18.07Z" fill="#231815"/>
        <path d="M37,44.5c-.06,0-.12-.03-.17-.07-.05-.05-.08-.12-.08-.18,0-.07.03-.13.07-.17.11-.11.26-.1.36,0,.05.05.07.12.07.18s-.02.13-.07.17c-.05.05-.11.08-.18.08Z" fill="#231815"/>
        <path d="M26.25,37.75c-.06,0-.12-.03-.17-.07-.05-.05-.08-.11-.08-.18s.03-.13.08-.18c.1-.09.25-.09.35,0,.05.05.07.12.07.18s-.02.13-.07.18c-.05.04-.11.07-.18.07Z" fill="#231815"/>
        <path d="M29.75,35.5c-.06,0-.12-.02-.17-.07-.05-.05-.08-.11-.08-.18s.03-.13.08-.18c.1-.09.25-.09.35,0,.05.05.07.12.07.18s-.02.12-.07.17c-.05.06-.11.08-.18.08Z" fill="#231815"/>
        <path d="M17,28.5c-.06,0-.12-.02-.17-.07-.05-.05-.08-.11-.08-.18,0-.06.03-.12.07-.17.11-.11.26-.1.36,0,.05.05.07.12.07.18,0,.07-.02.13-.07.18-.05.05-.11.07-.18.07Z" fill="#231815"/>
        <path d="M10.5,29.5c-.06,0-.12-.02-.17-.07-.05-.05-.08-.11-.08-.18,0-.06.03-.12.07-.17.11-.11.26-.1.36,0,.05.06.07.12.07.18s-.02.13-.07.18c-.05.05-.11.07-.18.07Z" fill="#231815"/>
        <path d="M6,31.5c-.06,0-.12-.02-.17-.07-.05-.05-.08-.11-.08-.18,0-.06.03-.12.07-.17.12-.11.26-.1.36,0,.05.06.07.12.07.18,0,.07-.02.13-.07.18-.05.05-.11.07-.18.07Z" fill="#231815"/>
        <path d="M2.5,35.25c-.07,0-.13-.03-.17-.07-.05-.05-.08-.12-.08-.18,0-.07.03-.13.08-.18.08-.09.24-.09.34,0,.06.05.08.11.08.18,0,.06-.02.13-.07.17-.05.06-.11.08-.18.08Z" fill="#231815"/>
        <path d="M11.25,36.75c-.07,0-.13-.03-.18-.07-.04-.05-.07-.12-.07-.18,0-.07.03-.13.07-.18.1-.09.25-.09.36,0,.05.05.07.11.07.18s-.02.13-.07.18c-.05.05-.11.07-.18.07Z" fill="#231815"/>
        <path d="M17,42c-.06,0-.12-.02-.17-.07-.05-.05-.08-.11-.08-.18,0-.06.03-.13.07-.18.11-.09.26-.09.36,0,.05.05.07.11.07.18s-.03.13-.07.18c-.05.05-.11.07-.18.07Z" fill="#231815"/>
        <path d="M12.75,36c-.06,0-.13-.03-.17-.07-.05-.05-.08-.11-.08-.18,0-.06.03-.13.07-.17.1-.1.26-.1.36,0,.05.05.07.11.07.18s-.02.13-.07.18c-.05.05-.12.07-.18.07Z" fill="#231815"/>
        <path d="M26.5,30.25c-.06,0-.12-.02-.17-.07-.05-.05-.08-.11-.08-.18s.03-.13.08-.18c.1-.09.25-.09.35,0,.05.05.07.12.07.18s-.02.13-.07.18c-.05.05-.11.07-.18.07Z" fill="#231815"/>
        <path d="M37.75,31c-.06,0-.12-.02-.17-.07-.05-.05-.08-.11-.08-.18s.03-.13.08-.18c.1-.09.25-.09.35,0,.05.05.07.11.07.18s-.02.13-.07.18c-.05.05-.12.07-.18.07Z" fill="#231815"/>
        <path d="M39.5,32.5c-.06,0-.12-.02-.17-.07-.05-.05-.08-.11-.08-.18s.03-.13.08-.18c.08-.09.26-.09.35,0,.05.04.07.11.07.17s-.02.13-.07.18c-.05.04-.11.07-.18.07Z" fill="#231815"/>
        <path d="M28,42c-.06,0-.12-.03-.17-.07-.05-.05-.08-.12-.08-.18s.03-.12.07-.17c.11-.1.26-.1.35,0,.06.06.08.12.08.18s-.02.13-.07.17c-.05.06-.11.08-.18.08Z" fill="#231815"/>
        <path d="M6.5,20.5c-.06,0-.13-.03-.17-.07-.05-.05-.08-.12-.08-.18,0-.07.03-.13.07-.18.1-.09.26-.09.36,0,.05.05.07.11.07.18,0,.06-.02.13-.07.17-.05.06-.11.08-.18.08Z" fill="#231815"/>
        <path d="M10.25,20.25c-.06,0-.13-.03-.17-.07-.05-.05-.08-.11-.08-.18s.03-.13.07-.18c.1-.09.26-.09.36,0,.05.05.07.11.07.18s-.02.13-.07.18c-.05.05-.11.07-.18.07Z" fill="#231815"/>
        <path d="M11.75,23.5c-.06,0-.12-.02-.17-.07-.05-.05-.08-.11-.08-.18,0-.06.03-.12.07-.17.11-.11.26-.1.36,0,.05.06.07.12.07.18s-.02.13-.07.18c-.05.05-.12.07-.18.07Z" fill="#231815"/>
        <path d="M3,25.75c-.06,0-.13-.03-.17-.07-.05-.05-.08-.11-.08-.18s.03-.13.07-.18c.1-.09.26-.09.36,0,.05.05.07.11.07.18s-.02.13-.07.18c-.05.05-.12.07-.18.07Z" fill="#231815"/>
        <path d="M64.25,29.5c-.06,0-.13-.03-.17-.07-.05-.05-.08-.12-.08-.18s.03-.13.07-.17c.1-.1.25-.1.35,0,.06.05.08.12.08.18s-.02.13-.07.17c-.05.06-.11.08-.18.08Z" fill="#231815"/>
        <path d="M67.5,30.75c-.06,0-.13-.03-.17-.07-.05-.05-.08-.11-.08-.18,0-.06.03-.13.07-.17.1-.1.26-.1.36,0,.05.06.07.12.07.18s-.02.13-.07.18c-.05.04-.11.07-.18.07Z" fill="#231815"/>
        <path d="M69.5,29.75c-.06,0-.13-.03-.17-.07-.05-.05-.08-.11-.08-.18s.03-.13.08-.18c.09-.09.25-.09.35,0,.05.05.07.11.07.18s-.02.13-.07.18c-.05.04-.11.07-.18.07Z" fill="#231815"/>
        <path d="M7.25,15.75c-.07,0-.13-.03-.18-.08-.04-.04-.07-.1-.07-.17s.03-.13.07-.18c.1-.09.26-.09.36,0,.04.05.07.11.07.18s-.03.13-.07.18c-.05.04-.11.07-.18.07Z" fill="#231815"/>
        <path d="M1.5,9c-.06,0-.13-.03-.18-.07-.04-.05-.07-.11-.07-.18s.03-.13.07-.18c.09-.09.26-.09.36,0,.05.05.07.12.07.18s-.02.13-.07.18c-.05.04-.11.07-.18.07Z" fill="#231815"/>
        <path d="M14.5,6.5c-.06,0-.12-.02-.17-.07-.05-.05-.08-.11-.08-.18,0-.06.03-.13.07-.17.11-.11.26-.1.36,0,.05.05.07.11.07.18s-.02.13-.07.18c-.05.05-.11.07-.18.07Z" fill="#231815"/>
        <path d="M8.5,5.25c-.06,0-.12-.02-.17-.07-.05-.05-.08-.11-.08-.18s.03-.13.07-.18c.1-.09.27-.09.36,0,.05.04.07.1.07.17,0,.06-.02.13-.07.18-.05.05-.11.07-.18.07Z" fill="#231815"/>
        <path d="M3.5,2.5c-.07,0-.13-.03-.18-.08-.04-.04-.07-.1-.07-.17s.03-.13.08-.18c.08-.09.25-.09.35,0,.04.05.07.11.07.18s-.03.13-.07.18c-.05.04-.11.07-.18.07Z" fill="#231815"/>
        <path d="M3.75,6c-.06,0-.13-.03-.17-.07-.05-.05-.08-.11-.08-.18,0-.06.03-.13.07-.18.09-.09.26-.09.36,0,.05.05.07.11.07.18s-.02.13-.07.18c-.05.05-.12.07-.18.07Z" fill="#231815"/>
        <path d="M12.75,14.25c-.06,0-.13-.03-.17-.07-.05-.05-.08-.12-.08-.18,0-.07.03-.13.07-.18.1-.09.26-.09.36,0,.05.05.07.11.07.18,0,.06-.02.13-.07.17-.05.06-.11.08-.18.08Z" fill="#231815"/>
        <path d="M18.5,19.25c-.06,0-.12-.02-.17-.07-.05-.05-.08-.11-.08-.18,0-.06.03-.13.07-.17.11-.11.27-.1.36,0,.05.06.07.12.07.18,0,.07-.02.13-.07.18-.05.04-.11.07-.18.07Z" fill="#231815"/>
        <path d="M21.25,37c-.06,0-.12-.02-.17-.07-.05-.05-.08-.12-.08-.18,0-.07.03-.13.07-.18.11-.09.26-.09.36,0,.05.05.07.11.07.18,0,.06-.02.13-.07.17-.05.06-.11.08-.18.08Z" fill="#231815"/>
        <path d="M.75,44.25c-.06,0-.13-.03-.17-.07-.05-.05-.08-.11-.08-.18s.03-.13.08-.18c.07-.08.25-.09.35,0,.04.04.07.1.07.17s-.03.13-.07.18c-.05.04-.11.07-.18.07Z" fill="#231815"/>
        <path d="M66.5,37.25c-.06,0-.13-.03-.17-.07-.05-.05-.08-.11-.08-.18s.03-.13.08-.18c.09-.09.25-.09.35,0,.05.05.07.12.07.18s-.02.13-.07.18c-.05.04-.11.07-.18.07Z" fill="#231815"/>
        <path d="M68,66c-.06,0-.13-.03-.17-.07-.05-.05-.08-.12-.08-.18,0-.07.03-.13.07-.18.1-.09.26-.09.36,0,.05.05.07.12.07.18s-.02.12-.07.17c-.05.05-.11.08-.18.08Z" fill="#231815"/>
        <path d="M59.75,69.75c-.07,0-.13-.03-.18-.08-.04-.04-.07-.1-.07-.17s.03-.13.08-.18c.09-.09.25-.09.35,0,.05.05.07.12.07.18,0,.07-.02.13-.07.18-.05.04-.11.07-.18.07Z" fill="#231815"/>
        <path d="M40.5,68c-.06,0-.12-.02-.17-.07-.05-.05-.08-.11-.08-.18s.03-.13.08-.18c.09-.09.25-.09.35,0,.05.05.07.12.07.18s-.02.13-.07.18c-.05.05-.12.07-.18.07Z" fill="#231815"/>
        <path d="M44,63c-.06,0-.12-.02-.17-.07-.05-.04-.08-.11-.08-.18s.03-.13.08-.18c.09-.09.25-.09.35,0,.05.05.07.12.07.18,0,.07-.02.13-.07.18-.05.05-.11.07-.18.07Z" fill="#231815"/>
        <path d="M25.75,70c-.06,0-.12-.02-.17-.07-.05-.05-.08-.11-.08-.18s.03-.13.08-.18c.09-.09.25-.09.35,0,.05.05.07.11.07.18,0,.06-.02.12-.07.17-.05.06-.11.08-.18.08Z" fill="#231815"/>
        <path d="M4.5,60c-.06,0-.12-.02-.17-.07-.05-.05-.08-.11-.08-.18,0-.06.03-.13.07-.17.11-.11.26-.1.36,0,.05.06.07.12.07.18s-.02.13-.07.18c-.05.05-.12.07-.18.07Z" fill="#231815"/>
        <path d="M26.5,59.5c-.06,0-.12-.02-.17-.07-.05-.05-.08-.11-.08-.18s.03-.13.08-.18c.1-.09.25-.09.35,0,.05.05.07.11.07.18,0,.06-.02.13-.07.18-.05.05-.11.07-.18.07Z" fill="#231815"/>
        <path d="M37.25,48.5c-.06,0-.12-.03-.17-.07-.05-.05-.08-.11-.08-.18s.03-.13.08-.18c.09-.09.24-.09.34,0,.06.05.08.12.08.18s-.02.13-.07.18c-.06.05-.12.07-.18.07Z" fill="#231815"/>
        <path d="M22,41.75c-.06,0-.12-.02-.17-.07-.05-.05-.08-.11-.08-.18s.03-.13.08-.18c.1-.09.25-.09.35,0,.05.05.07.12.07.18s-.02.13-.07.18c-.05.05-.12.07-.18.07Z" fill="#231815"/>
        <path d="M8.75,40.25c-.06,0-.13-.03-.17-.07-.05-.05-.08-.12-.08-.18,0-.07.03-.13.08-.18.09-.09.25-.09.35,0,.04.05.07.11.07.18s-.02.13-.07.18c-.05.05-.11.07-.18.07Z" fill="#231815"/>
        <path d="M24,29c-.06,0-.12-.02-.17-.07-.05-.05-.08-.11-.08-.18s.03-.13.08-.18c.1-.09.25-.09.35,0,.05.05.07.12.07.18s-.02.12-.07.17c-.05.06-.11.08-.18.08Z" fill="#231815"/>
        <path d="M41.5,34.5c-.06,0-.13-.03-.17-.07-.05-.05-.08-.11-.08-.18s.03-.13.08-.18c.09-.09.25-.09.34,0,.06.06.08.12.08.18s-.02.12-.07.17c-.05.06-.11.08-.18.08Z" fill="#231815"/>
        <path d="M51.5,37.5c-.06,0-.13-.03-.17-.07-.05-.05-.08-.11-.08-.18s.03-.13.08-.18c.09-.09.25-.09.35,0,.05.05.07.12.07.18s-.02.13-.07.17c-.05.06-.11.08-.18.08Z" fill="#231815"/>
        <path d="M60.75,46c-.06,0-.12-.03-.17-.07-.05-.05-.08-.11-.08-.18s.03-.14.08-.18c.09-.09.25-.09.35,0,.05.05.07.11.07.18s-.02.13-.07.18c-.05.04-.11.07-.18.07Z" fill="#231815"/>
        <path d="M67.5,43.75c-.06,0-.13-.03-.17-.07-.05-.05-.08-.11-.08-.18s.03-.13.08-.18c.08-.08.25-.09.35,0,.05.05.07.12.07.18s-.02.13-.07.18c-.05.04-.11.07-.18.07Z" fill="#231815"/>
        <path d="M51.25,66.25c-.06,0-.12-.02-.17-.07-.05-.05-.08-.11-.08-.18s.03-.13.08-.18c.09-.09.25-.09.35,0,.05.05.07.11.07.18s-.03.13-.07.18c-.05.05-.11.07-.18.07Z" fill="#231815"/>
        <path d="M40,37.75c-.06,0-.13-.03-.17-.07-.05-.05-.08-.11-.08-.18s.03-.13.08-.18c.09-.09.26-.09.35,0,.05.05.07.12.07.18s-.02.12-.07.17c-.05.05-.11.08-.18.08Z" fill="#231815"/>
        <path d="M53.25,15c-.06,0-.13-.03-.17-.07-.05-.05-.08-.11-.08-.18s.03-.13.08-.18c.07-.08.26-.09.35,0,.05.04.07.11.07.17s-.02.13-.07.18c-.05.04-.11.07-.18.07Z" fill="#231815"/>
        <path d="M34,16c-.07,0-.13-.03-.18-.08-.04-.04-.07-.1-.07-.17s.03-.14.08-.18c.09-.09.26-.09.35,0,.05.05.07.11.07.18,0,.06-.02.13-.07.18-.05.04-.11.07-.18.07Z" fill="#231815"/>
        <path d="M27.5,13.5c-.06,0-.12-.02-.17-.07-.05-.05-.08-.11-.08-.18s.03-.13.07-.17c.11-.11.26-.1.36,0,.05.05.07.12.07.18,0,.07-.02.13-.07.18-.05.05-.11.07-.18.07Z" fill="#231815"/>
        <path d="M12.75,19.25c-.06,0-.13-.03-.17-.07-.05-.05-.08-.11-.08-.18,0-.06.03-.12.07-.17.1-.1.26-.1.36,0,.05.05.07.12.07.18,0,.07-.02.13-.07.18-.05.05-.11.07-.18.07Z" fill="#231815"/>
        <path d="M19.75,26.5c-.06,0-.12-.02-.17-.07-.05-.05-.08-.11-.08-.18,0-.06.03-.12.07-.17.11-.11.26-.1.36,0,.05.05.07.12.07.18,0,.07-.02.13-.07.18-.05.05-.12.07-.18.07Z" fill="#231815"/>
        <path d="M49.5,4.5c-.06,0-.13-.03-.17-.07-.05-.04-.08-.11-.08-.18s.03-.14.08-.18c.08-.08.25-.09.35,0,.05.05.07.12.07.18s-.02.13-.07.18c-.05.04-.11.07-.18.07Z" fill="#231815"/>
        <path d="M11.75,1.75c-.06,0-.12-.02-.17-.07-.05-.05-.08-.11-.08-.18,0-.06.03-.13.07-.18.1-.09.27-.09.36,0,.05.05.07.12.07.18s-.02.13-.07.18c-.05.05-.11.07-.18.07Z" fill="#231815"/>
        <path d="M55.25,3.75c-.06,0-.13-.03-.17-.07-.05-.05-.08-.11-.08-.18s.03-.13.08-.18c.08-.09.25-.09.35,0,.05.05.07.12.07.18s-.02.13-.07.18c-.05.04-.11.07-.18.07Z" fill="#231815"/>
        <path d="M59,20.75c-.06,0-.13-.03-.17-.07-.05-.05-.08-.11-.08-.18s.03-.13.08-.18c.08-.09.25-.09.35,0,.05.06.07.12.07.18s-.02.12-.07.17c-.05.06-.11.08-.18.08Z" fill="#231815"/>
        <path d="M67.5,57.25c-.06,0-.13-.03-.17-.07-.05-.05-.08-.12-.08-.18,0-.07.03-.13.08-.18.09-.09.25-.09.35,0,.05.05.07.12.07.18s-.02.12-.07.17c-.05.05-.11.08-.18.08Z" fill="#231815"/>
        <path d="M47.25,69.75c-.06,0-.13-.03-.17-.07-.05-.04-.08-.11-.08-.18s.03-.14.08-.18c.08-.08.25-.09.35,0,.04.05.07.11.07.18s-.03.13-.07.18c-.05.05-.11.07-.18.07Z" fill="#231815"/>
        <path d="M5.25,69.75c-.06,0-.13-.03-.17-.07-.05-.05-.08-.11-.08-.18,0-.06.03-.12.07-.17.1-.1.26-.1.36,0,.05.05.07.12.07.18,0,.07-.02.13-.07.18s-.12.07-.18.07Z" fill="#231815"/>
        <path d="M4.75,40.25c-.06,0-.13-.03-.18-.07-.04-.05-.07-.11-.07-.18s.03-.13.07-.18c.09-.09.26-.09.36,0,.05.05.07.12.07.18s-.02.13-.07.18c-.05.04-.11.07-.18.07Z" fill="#231815"/>
        <path d="M69.75,12.75c-.07,0-.13-.03-.17-.07-.05-.05-.08-.11-.08-.18s.03-.13.08-.18c.09-.09.25-.09.35,0,.05.05.07.12.07.18s-.02.13-.07.18c-.05.04-.11.07-.18.07Z" fill="#231815"/>
        <path d="M23.25,14c-.06,0-.12-.02-.17-.07-.05-.05-.08-.11-.08-.18s.03-.13.07-.17c.11-.11.26-.1.36,0,.05.06.07.12.07.18s-.02.13-.07.18c-.05.05-.11.07-.18.07Z" fill="#231815"/>
        <path d="M20.5,17.25c-.06,0-.13-.03-.17-.07-.05-.04-.08-.11-.08-.18s.03-.14.08-.18c.07-.08.26-.09.35,0,.05.04.07.11.07.17s-.02.13-.07.18c-.05.04-.11.07-.18.07Z" fill="#231815"/>
        <path d="M14.75,17.25c-.06,0-.12-.02-.17-.07-.05-.05-.08-.11-.08-.18,0-.06.03-.13.07-.18.11-.09.26-.09.36,0,.05.05.07.12.07.18s-.02.13-.07.18c-.05.05-.11.07-.18.07Z" fill="#231815"/>
        <path d="M2.75,13.25c-.07,0-.13-.03-.17-.07-.05-.05-.08-.12-.08-.18,0-.07.03-.13.08-.18.09-.09.25-.09.35,0,.04.05.07.11.07.18s-.02.13-.07.18c-.05.04-.11.07-.18.07Z" fill="#231815"/>
        <path d="M6,11.75c-.06,0-.12-.02-.17-.07-.05-.05-.08-.12-.08-.18,0-.07.03-.13.07-.18.12-.1.26-.09.36,0,.05.05.07.11.07.18,0,.06-.02.12-.07.17-.05.06-.11.08-.18.08Z" fill="#231815"/>
        <path d="M7,2.75c-.06,0-.12-.02-.17-.07-.05-.05-.08-.12-.08-.18,0-.07.03-.13.07-.18.11-.09.26-.09.36,0,.05.05.07.12.07.18s-.02.12-.07.17c-.05.06-.11.08-.18.08Z" fill="#231815"/>
        <path d="M10,8.25c-.07,0-.13-.03-.18-.07-.04-.05-.07-.12-.07-.18,0-.07.03-.13.07-.18.09-.09.26-.09.36,0,.05.05.07.11.07.18,0,.06-.02.13-.07.17-.05.06-.11.08-.18.08Z" fill="#231815"/>
        <path d="M16,8.25c-.06,0-.13-.03-.18-.07-.04-.05-.07-.11-.07-.18s.03-.13.08-.18c.1-.09.25-.09.35,0,.05.05.07.12.07.18s-.02.13-.07.18c-.05.04-.11.07-.18.07Z" fill="#231815"/>
        <path d="M16.5,3.25c-.06,0-.12-.02-.17-.07-.05-.05-.08-.11-.08-.18s.03-.13.07-.18c.11-.1.26-.09.36,0,.05.05.07.11.07.18s-.02.13-.07.18c-.05.05-.12.07-.18.07Z" fill="#231815"/>
        <path d="M25.75,7c-.06,0-.12-.02-.17-.07-.05-.05-.08-.11-.08-.18s.03-.13.08-.18c.1-.09.25-.09.35,0,.05.05.07.12.07.18s-.02.13-.07.18c-.05.05-.11.07-.18.07Z" fill="#231815"/>
        <path d="M37,7.5c-.06,0-.12-.02-.17-.07-.05-.05-.08-.11-.08-.18s.03-.13.08-.18c.09-.09.26-.09.35,0,.05.05.07.11.07.18s-.02.13-.07.18c-.05.05-.12.07-.18.07Z" fill="#231815"/>
        <path d="M40.5,4.5c-.06,0-.13-.03-.17-.07-.05-.04-.08-.11-.08-.18s.03-.13.08-.18c.09-.09.25-.09.35,0,.05.06.07.12.07.18,0,.07-.02.13-.07.18-.05.04-.11.07-.18.07Z" fill="#231815"/>
        <path d="M37.5,4.25c-.06,0-.13-.03-.17-.07-.05-.04-.08-.11-.08-.18s.03-.13.08-.18c.08-.09.25-.09.35,0,.05.06.07.12.07.18s-.02.13-.07.18c-.05.05-.11.07-.18.07Z" fill="#231815"/>
        <path d="M43.25,2.25c-.07,0-.13-.03-.18-.08-.04-.04-.07-.1-.07-.17s.03-.13.08-.18c.09-.09.25-.09.35,0,.05.05.07.12.07.18s-.02.13-.07.18c-.05.04-.11.07-.18.07Z" fill="#231815"/>
        <path d="M49.5,8.25c-.06,0-.13-.03-.17-.07-.05-.04-.08-.11-.08-.18s.03-.14.08-.18c.08-.09.25-.09.35,0,.05.05.07.12.07.18s-.02.13-.07.18c-.05.04-.11.07-.18.07Z" fill="#231815"/>
        <path d="M46,9.25c-.06,0-.13-.03-.17-.07-.05-.05-.08-.11-.08-.18s.03-.13.08-.18c.08-.08.25-.09.35,0,.05.05.07.12.07.18s-.02.13-.07.18c-.05.04-.11.07-.18.07Z" fill="#231815"/>
        <path d="M35.75,11c-.06,0-.13-.03-.17-.07-.05-.05-.08-.11-.08-.18s.03-.13.08-.18c.09-.09.25-.09.35,0,.05.05.07.12.07.18s-.02.13-.07.18c-.05.04-.11.07-.18.07Z" fill="#231815"/>
        <path d="M39.25,15c-.06,0-.12-.02-.17-.07-.05-.05-.08-.11-.08-.18s.03-.13.08-.18c.09-.09.25-.09.35,0,.05.06.07.12.07.18s-.02.13-.07.18c-.05.05-.11.07-.18.07Z" fill="#231815"/>
        <path d="M24.75,18c-.06,0-.12-.02-.17-.07-.05-.05-.08-.11-.08-.18s.03-.13.07-.18c.1-.09.27-.09.36,0,.05.05.07.11.07.18s-.02.13-.07.18c-.05.05-.11.07-.18.07Z" fill="#231815"/>
        <path d="M8.25,27.25c-.06,0-.12-.02-.17-.07-.05-.05-.08-.11-.08-.18s.03-.13.07-.18c.12-.1.26-.09.36,0,.05.05.07.12.07.18,0,.07-.02.13-.07.18-.05.04-.11.07-.18.07Z" fill="#231815"/>
        <path d="M16,31.75c-.06,0-.13-.03-.18-.07-.04-.05-.07-.11-.07-.18s.03-.13.08-.18c.1-.09.25-.09.35,0,.05.05.07.12.07.18s-.02.13-.07.18c-.05.04-.11.07-.18.07Z" fill="#231815"/>
        <path d="M10.5,33.5c-.06,0-.12-.02-.17-.07-.05-.05-.08-.12-.08-.18,0-.07.03-.13.07-.18.11-.1.26-.09.36,0,.05.05.07.12.07.18s-.02.12-.07.17c-.05.06-.11.08-.18.08Z" fill="#231815"/>
        <path d="M5.25,37c-.06,0-.13-.03-.17-.07-.05-.05-.08-.11-.08-.18,0-.06.03-.12.07-.17.1-.1.26-.1.36,0,.05.05.07.12.07.18,0,.07-.02.13-.07.18-.05.05-.12.07-.18.07Z" fill="#231815"/>
        <path d="M2.75,32c-.06,0-.13-.03-.17-.07-.05-.05-.08-.12-.08-.18,0-.07.03-.13.08-.18.09-.09.25-.09.35,0,.04.05.07.11.07.18s-.02.13-.07.18c-.05.04-.11.07-.18.07Z" fill="#231815"/>
        <path d="M7.5,25c-.07,0-.13-.03-.18-.07-.04-.05-.07-.11-.07-.18s.03-.13.07-.18c.11-.09.25-.09.35,0,.06.05.08.12.08.18s-.02.13-.07.18c-.05.04-.11.07-.18.07Z" fill="#231815"/>
        <path d="M3.25,20.5c-.06,0-.13-.03-.17-.07-.05-.05-.08-.11-.08-.18,0-.06.03-.13.07-.17.1-.1.26-.1.36,0,.05.05.07.12.07.18,0,.07-.02.13-.07.18-.05.05-.12.07-.18.07Z" fill="#231815"/>
        <path d="M20.5,30.75c-.06,0-.13-.03-.17-.07-.05-.05-.08-.11-.08-.18s.03-.13.08-.18c.09-.09.25-.09.35,0,.05.06.07.12.07.18s-.02.12-.07.17c-.05.05-.11.08-.18.08Z" fill="#231815"/>
        <path d="M17.5,35.5c-.06,0-.12-.03-.17-.07-.05-.06-.08-.12-.08-.18,0-.07.03-.13.07-.18.11-.09.26-.09.36,0,.05.05.07.11.07.18,0,.06-.02.13-.07.17-.05.05-.11.08-.18.08Z" fill="#231815"/>
        <path d="M16,39c-.06,0-.12-.02-.17-.07-.05-.05-.08-.11-.08-.18s.03-.13.08-.18c.09-.09.25-.09.35,0,.05.05.07.12.07.18s-.02.13-.07.18c-.05.05-.12.07-.18.07Z" fill="#231815"/>
        <path d="M12.75,41.25c-.06,0-.13-.03-.17-.07-.05-.05-.08-.11-.08-.18,0-.06.03-.13.07-.18.1-.09.26-.09.36,0,.05.05.07.11.07.18s-.02.13-.07.18c-.05.04-.11.07-.18.07Z" fill="#231815"/>
        <path d="M12.75,46.5c-.07,0-.13-.03-.17-.07-.05-.05-.08-.12-.08-.18,0-.07.03-.13.07-.18.1-.09.26-.09.36,0,.05.05.07.11.07.18s-.02.13-.07.18c-.05.05-.11.07-.18.07Z" fill="#231815"/>
        <path d="M4,46.75c-.06,0-.13-.03-.17-.07-.05-.05-.08-.11-.08-.18,0-.06.03-.13.07-.18.1-.09.26-.09.35,0,.06.05.08.12.08.18,0,.07-.02.13-.07.18-.05.05-.12.07-.18.07Z" fill="#231815"/>
        <path d="M5.75,48.5c-.07,0-.13-.03-.18-.08-.04-.04-.07-.1-.07-.17s.03-.13.07-.18c.1-.09.26-.09.36,0,.05.05.07.11.07.18s-.02.13-.07.18c-.05.04-.11.07-.18.07Z" fill="#231815"/>
        <path d="M11,50.5c-.06,0-.12-.02-.17-.07-.05-.05-.08-.11-.08-.18,0-.06.03-.13.07-.17.11-.11.26-.1.36,0,.05.06.07.12.07.18s-.02.13-.07.18c-.05.05-.12.07-.18.07Z" fill="#231815"/>
        <path d="M11,54.5c-.06,0-.13-.03-.18-.07-.04-.05-.07-.11-.07-.18s.03-.13.07-.18c.11-.09.26-.09.36,0,.05.05.07.12.07.18s-.02.13-.07.18c-.05.04-.11.07-.18.07Z" fill="#231815"/>
        <path d="M15.5,58.5c-.06,0-.12-.03-.17-.07-.05-.05-.08-.11-.08-.18s.03-.13.07-.18c.11-.09.26-.09.36,0,.05.05.07.12.07.18s-.02.13-.07.18c-.05.04-.11.07-.18.07Z" fill="#231815"/>
        <path d="M10,59.75c-.07,0-.13-.03-.18-.07-.04-.05-.07-.12-.07-.18,0-.07.03-.13.07-.18.1-.09.25-.09.36,0,.05.05.07.11.07.18,0,.06-.02.13-.07.18-.05.05-.11.07-.18.07Z" fill="#231815"/>
        <path d="M6,63.5c-.06,0-.12-.02-.17-.07-.05-.05-.08-.12-.08-.18,0-.07.03-.13.07-.18.12-.1.26-.09.36,0,.05.05.07.11.07.18,0,.06-.02.12-.07.17-.05.06-.11.08-.18.08Z" fill="#231815"/>
        <path d="M2.25,62c-.06,0-.12-.02-.17-.07-.05-.05-.08-.11-.08-.18s.03-.13.07-.18c.11-.09.25-.09.35,0,.06.05.08.12.08.18s-.02.13-.07.18c-.06.05-.12.07-.18.07Z" fill="#231815"/>
        <path d="M7.25,67.75c-.06,0-.13-.03-.17-.07-.05-.05-.08-.12-.08-.18,0-.07.03-.13.07-.18.1-.09.26-.09.36,0,.04.05.07.11.07.18s-.02.13-.07.17c-.05.06-.11.08-.18.08Z" fill="#231815"/>
        <path d="M13.5,69.5c-.06,0-.12-.02-.17-.07-.05-.05-.08-.12-.08-.18,0-.07.03-.13.07-.18.11-.09.26-.09.36,0,.05.05.07.12.07.18s-.02.12-.07.17c-.05.06-.11.08-.18.08Z" fill="#231815"/>
        <path d="M13.5,65.75c-.06,0-.12-.02-.17-.07-.05-.05-.08-.11-.08-.18,0-.06.03-.13.07-.17.11-.11.26-.1.36,0,.05.06.07.12.07.18s-.02.13-.07.18c-.05.05-.11.07-.18.07Z" fill="#231815"/>
        <path d="M21.5,68.5c-.06,0-.12-.02-.17-.07-.05-.05-.08-.11-.08-.18s.03-.13.08-.18c.09-.09.25-.09.35,0,.05.05.07.12.07.18s-.02.12-.07.17c-.05.06-.11.08-.18.08Z" fill="#231815"/>
        <path d="M23,65.75c-.06,0-.12-.02-.17-.07-.05-.05-.08-.11-.08-.18,0-.06.03-.12.07-.17.11-.11.26-.1.36,0,.05.05.07.12.07.18,0,.07-.02.13-.07.18-.05.05-.11.07-.18.07Z" fill="#231815"/>
        <path d="M22.25,60c-.06,0-.12-.02-.17-.07-.05-.05-.08-.11-.08-.18,0-.06.03-.12.07-.17.11-.11.26-.1.36,0,.05.05.07.12.07.18,0,.07-.02.13-.07.18-.05.05-.12.07-.18.07Z" fill="#231815"/>
        <path d="M24.25,57.5c-.06,0-.12-.02-.17-.07-.05-.05-.08-.11-.08-.18s.03-.13.08-.18c.1-.09.25-.09.35,0,.05.05.07.12.07.18s-.02.13-.07.18c-.05.05-.11.07-.18.07Z" fill="#231815"/>
        <path d="M22,53.25c-.06,0-.12-.02-.17-.07-.05-.05-.08-.11-.08-.18s.03-.13.07-.17c.11-.11.26-.1.36,0,.05.06.07.12.07.18s-.02.13-.07.18c-.05.05-.11.07-.18.07Z" fill="#231815"/>
        <path d="M26.25,47.75c-.06,0-.12-.02-.17-.07-.05-.05-.08-.11-.08-.18s.03-.13.08-.18c.09-.09.25-.09.35,0,.05.05.07.12.07.18s-.02.13-.07.18c-.05.05-.11.07-.18.07Z" fill="#231815"/>
        <path d="M25.75,43.5c-.06,0-.12-.02-.17-.07-.05-.05-.08-.11-.08-.18s.03-.13.07-.18c.11-.09.26-.09.36,0,.05.06.07.12.07.18,0,.07-.02.13-.07.18-.05.05-.11.07-.18.07Z" fill="#231815"/>
        <path d="M31.25,37.5c-.06,0-.12-.03-.17-.07-.05-.05-.08-.12-.08-.18s.03-.13.07-.17c.11-.11.26-.1.36,0,.05.06.07.12.07.18s-.02.12-.07.17c-.05.05-.11.08-.18.08Z" fill="#231815"/>
        <path d="M32.25,31c-.06,0-.12-.02-.17-.07-.05-.05-.08-.11-.08-.18,0-.06.03-.12.07-.17.11-.11.26-.1.36,0,.05.05.07.12.07.18,0,.07-.03.13-.07.18-.05.05-.11.07-.18.07Z" fill="#231815"/>
        <path d="M26,34c-.06,0-.12-.02-.17-.07-.05-.05-.08-.11-.08-.18s.03-.13.08-.18c.1-.09.25-.09.35,0,.05.05.07.12.07.18s-.02.13-.07.18c-.05.05-.11.07-.18.07Z" fill="#231815"/>
        <path d="M34.25,27.75c-.06,0-.13-.03-.17-.07-.05-.05-.08-.11-.08-.18s.03-.13.08-.18c.09-.09.25-.09.35,0,.05.06.07.12.07.18s-.02.13-.07.18c-.05.04-.11.07-.18.07Z" fill="#231815"/>
        <path d="M37.25,28.5c-.06,0-.13-.03-.17-.07-.05-.05-.08-.11-.08-.18s.03-.13.08-.18c.09-.09.25-.09.34,0,.06.05.08.12.08.18s-.02.12-.07.17c-.05.06-.11.08-.18.08Z" fill="#231815"/>
        <path d="M41.75,25.75c-.06,0-.12-.03-.17-.07-.05-.05-.08-.11-.08-.18s.03-.13.08-.18c.09-.09.26-.09.35,0,.05.06.07.12.07.18s-.02.12-.07.17c-.05.05-.11.08-.18.08Z" fill="#231815"/>
        <path d="M43,20.75c-.06,0-.12-.02-.17-.07-.05-.05-.08-.11-.08-.18s.03-.13.08-.18c.09-.09.25-.09.35,0,.05.05.07.12.07.18s-.02.13-.07.18c-.05.05-.12.07-.18.07Z" fill="#231815"/>
        <path d="M36.5,19.25c-.06,0-.13-.03-.17-.07-.05-.04-.08-.11-.08-.18s.03-.14.08-.18c.08-.08.25-.09.35,0,.05.05.07.12.07.18s-.02.13-.07.18c-.05.05-.11.07-.18.07Z" fill="#231815"/>
        <path d="M27.75,22.25c-.06,0-.12-.03-.17-.07-.05-.05-.08-.12-.08-.18s.03-.13.07-.17c.11-.11.26-.1.36,0,.05.05.07.11.07.18s-.02.13-.07.18c-.05.04-.11.07-.18.07Z" fill="#231815"/>
        <path d="M52,22c-.06,0-.13-.03-.17-.07-.05-.05-.08-.11-.08-.18s.03-.13.08-.18c.09-.09.25-.09.35,0,.05.06.07.12.07.18s-.02.12-.07.17c-.05.05-.11.08-.18.08Z" fill="#231815"/>
        <path d="M43.25,17.75c-.06,0-.13-.03-.17-.07-.05-.05-.08-.11-.08-.18,0-.06.03-.13.07-.18.11-.09.26-.09.36,0,.05.06.07.12.07.18s-.02.12-.07.17c-.05.06-.11.08-.18.08Z" fill="#231815"/>
        <path d="M50.5,18c-.06,0-.13-.03-.17-.07-.05-.05-.08-.11-.08-.18s.03-.13.08-.18c.08-.09.25-.09.35,0,.05.06.07.12.07.18s-.02.12-.07.17c-.05.05-.11.08-.18.08Z" fill="#231815"/>
        <path d="M59.5,17.25c-.06,0-.13-.03-.17-.07-.05-.05-.08-.11-.08-.18s.03-.13.08-.18c.08-.09.25-.09.35,0,.05.05.07.12.07.18s-.02.13-.07.18c-.05.04-.11.07-.18.07Z" fill="#231815"/>
        <path d="M58.25,14c-.06,0-.13-.03-.17-.07-.05-.05-.08-.11-.08-.18s.03-.13.08-.18c.08-.09.26-.09.35,0,.05.05.07.11.07.18,0,.06-.02.13-.07.18-.05.04-.11.07-.18.07Z" fill="#231815"/>
        <path d="M61.5,11c-.06,0-.12-.02-.17-.07-.05-.05-.08-.11-.08-.18s.03-.14.08-.18c.09-.09.25-.09.35,0,.04.05.07.11.07.18s-.03.13-.07.18c-.05.05-.11.07-.18.07Z" fill="#231815"/>
        <path d="M58.75,7.5c-.06,0-.12-.02-.17-.07-.05-.05-.08-.11-.08-.18s.03-.13.08-.18c.09-.09.25-.09.35,0,.05.05.07.11.07.18s-.02.13-.07.18c-.05.05-.11.07-.18.07Z" fill="#231815"/>
        <path d="M60,4.75c-.06,0-.13-.03-.17-.07-.05-.05-.08-.11-.08-.18s.03-.13.07-.18c.11-.09.26-.09.36,0,.05.05.07.11.07.18s-.02.13-.07.17c-.05.06-.11.08-.18.08Z" fill="#231815"/>
        <path d="M67.5,6c-.06,0-.13-.03-.17-.07-.05-.05-.08-.12-.08-.18s.03-.13.07-.17c.1-.1.26-.1.36,0,.05.06.07.12.07.18s-.02.12-.07.17c-.05.05-.11.08-.18.08Z" fill="#231815"/>
        <path d="M69.5,8c-.06,0-.12-.03-.17-.07-.05-.05-.08-.11-.08-.18,0-.06.03-.13.07-.18.11-.09.26-.09.36,0,.05.05.07.12.07.18,0,.07-.02.13-.07.18-.05.05-.11.07-.18.07Z" fill="#231815"/>
        <path d="M65.75,9.75c-.06,0-.13-.03-.17-.07-.05-.05-.08-.11-.08-.18s.03-.13.08-.18c.08-.09.26-.09.35,0,.05.05.07.12.07.18s-.02.13-.07.18c-.05.04-.11.07-.18.07Z" fill="#231815"/>
        <path d="M61.75,16.5c-.06,0-.13-.03-.17-.07-.05-.05-.08-.11-.08-.18s.03-.13.08-.18c.09-.09.25-.09.35,0,.05.05.07.12.07.18s-.02.13-.07.17c-.05.06-.11.08-.18.08Z" fill="#231815"/>
        <path d="M60.25,23.75c-.06,0-.12-.03-.17-.07-.05-.05-.08-.11-.08-.18s.03-.13.08-.18c.09-.09.25-.09.35,0,.04.05.07.11.07.18s-.02.13-.07.18c-.05.05-.11.07-.18.07Z" fill="#231815"/>
        <path d="M55.5,23.75c-.06,0-.13-.03-.17-.07-.05-.05-.08-.12-.08-.18s.03-.13.08-.18c.09-.09.25-.09.35,0,.05.05.07.12.07.18s-.02.13-.07.18c-.05.04-.11.07-.18.07Z" fill="#231815"/>
        <path d="M55.5,18.75c-.06,0-.13-.03-.17-.07-.05-.05-.08-.12-.08-.18s.03-.13.08-.18c.09-.09.25-.09.35,0,.05.05.07.12.07.18s-.02.13-.07.18c-.05.04-.11.07-.18.07Z" fill="#231815"/>
        <path d="M65,25.75c-.06,0-.12-.03-.17-.07-.05-.05-.08-.11-.08-.18s.03-.13.08-.18c.09-.09.25-.09.35,0,.05.05.07.12.07.18,0,.07-.02.13-.07.18-.05.05-.11.07-.18.07Z" fill="#231815"/>
        <path d="M61.25,27c-.06,0-.13-.03-.17-.07-.05-.05-.08-.11-.08-.18s.03-.13.08-.18c.09-.09.25-.09.35,0,.05.05.07.11.07.18s-.03.13-.07.18c-.05.04-.11.07-.18.07Z" fill="#231815"/>
        <path d="M57.75,30.75c-.06,0-.12-.02-.17-.07-.05-.05-.08-.11-.08-.18s.03-.13.08-.18c.09-.09.25-.09.35,0,.05.05.07.11.07.18s-.02.13-.07.17c-.05.06-.11.08-.18.08Z" fill="#231815"/>
        <path d="M52.75,32.75c-.06,0-.13-.03-.17-.07-.05-.05-.08-.11-.08-.18s.03-.13.08-.18c.09-.09.25-.09.35,0,.05.05.07.12.07.18s-.02.13-.07.17c-.05.06-.11.08-.18.08Z" fill="#231815"/>
        <path d="M47.5,33.75c-.06,0-.12-.03-.17-.07-.05-.05-.08-.11-.08-.18s.03-.13.08-.18c.09-.09.25-.09.34,0,.06.06.08.12.08.18s-.02.12-.07.17c-.06.06-.11.08-.18.08Z" fill="#231815"/>
        <path d="M44.25,39.25c-.06,0-.12-.03-.17-.07-.05-.05-.08-.11-.08-.18s.03-.13.08-.18c.09-.09.25-.09.35,0,.05.05.07.11.07.18s-.02.13-.07.18c-.05.05-.12.07-.18.07Z" fill="#231815"/>
        <path d="M34,41.5c-.06,0-.12-.02-.17-.07-.05-.05-.08-.11-.08-.18s.03-.13.08-.18c.09-.09.25-.09.35,0,.05.05.07.12.07.18s-.02.13-.07.18c-.05.04-.11.07-.18.07Z" fill="#231815"/>
        <path d="M40.75,48c-.06,0-.12-.02-.17-.07-.05-.05-.08-.11-.08-.18s.03-.13.08-.18c.1-.09.25-.09.35,0,.04.05.07.11.07.18s-.03.13-.07.18c-.05.05-.11.07-.18.07Z" fill="#231815"/>
        <path d="M45.75,52.25c-.06,0-.12-.02-.17-.07-.05-.05-.08-.11-.08-.18s.03-.13.08-.18c.09-.09.25-.09.35,0,.05.05.07.11.07.18s-.03.13-.07.18c-.05.05-.11.07-.18.07Z" fill="#231815"/>
        <path d="M46.5,56.75c-.06,0-.12-.03-.17-.07-.05-.05-.08-.11-.08-.18s.03-.13.08-.18c.09-.09.25-.09.35,0,.05.05.07.12.07.18s-.02.13-.07.17c-.05.06-.11.08-.18.08Z" fill="#231815"/>
        <path d="M42,59.5c-.06,0-.12-.02-.17-.07-.05-.05-.08-.11-.08-.18s.03-.13.08-.18c.1-.09.25-.09.35,0,.04.05.07.11.07.18s-.02.13-.07.18c-.05.05-.12.07-.18.07Z" fill="#231815"/>
        <path d="M40,62.75c-.06,0-.12-.03-.17-.07-.05-.05-.08-.11-.08-.18s.03-.14.08-.18c.09-.09.26-.09.35,0,.05.05.07.11.07.18,0,.06-.02.13-.07.18-.05.04-.11.07-.18.07Z" fill="#231815"/>
        <path d="M36,62.75c-.06,0-.12-.02-.17-.07-.05-.05-.08-.11-.08-.18s.03-.13.08-.18c.1-.09.26-.09.35,0,.05.06.07.12.07.18s-.02.13-.07.18c-.05.04-.11.07-.18.07Z" fill="#231815"/>
        <path d="M36.5,52.75c-.07,0-.13-.03-.17-.07-.05-.05-.08-.11-.08-.18s.03-.13.08-.18c.09-.09.25-.09.35,0,.05.06.07.12.07.18s-.02.12-.07.17c-.05.05-.11.08-.18.08Z" fill="#231815"/>
        <path d="M30,63.5c-.06,0-.13-.03-.17-.07-.05-.05-.08-.11-.08-.18s.03-.13.08-.18c.09-.09.25-.09.35,0,.05.05.07.12.07.18s-.02.13-.07.17c-.05.05-.11.08-.18.08Z" fill="#231815"/>
        <path d="M31.5,68.5c-.07,0-.13-.03-.18-.08-.04-.04-.07-.1-.07-.17s.03-.14.08-.18c.09-.08.25-.09.34,0,.06.05.08.11.08.18,0,.06-.02.13-.07.18-.05.04-.11.07-.18.07Z" fill="#231815"/>
        <path d="M37,71c-.06,0-.12-.02-.17-.07-.05-.05-.08-.11-.08-.18s.03-.13.08-.18c.1-.09.25-.09.35,0,.05.05.07.11.07.18s-.02.13-.07.18c-.05.05-.11.07-.18.07Z" fill="#231815"/>
        <path d="M58.75,57c-.06,0-.12-.02-.17-.07-.05-.05-.08-.11-.08-.18s.03-.13.08-.18c.09-.09.25-.09.35,0,.05.05.07.11.07.18s-.02.13-.07.18c-.05.05-.11.07-.18.07Z" fill="#231815"/>
        <path d="M63,57c-.06,0-.12-.03-.17-.07-.05-.05-.08-.11-.08-.18s.03-.13.08-.18c.09-.09.25-.09.35,0,.05.05.07.11.07.18s-.02.13-.07.17c-.05.06-.11.08-.18.08Z" fill="#231815"/>
        <path d="M60,50.75c-.06,0-.12-.03-.17-.07-.05-.05-.08-.11-.08-.18s.03-.14.08-.18c.09-.09.25-.09.35,0,.04.05.07.11.07.18s-.02.13-.07.18c-.05.04-.11.07-.18.07Z" fill="#231815"/>
        <path d="M54.5,50.5c-.07,0-.13-.03-.17-.07-.05-.05-.08-.12-.08-.18s.03-.13.07-.17c.1-.1.26-.1.36,0,.05.06.07.12.07.18s-.02.12-.07.17c-.05.05-.11.08-.18.08Z" fill="#231815"/>
        <path d="M59.25,44.25c-.06,0-.13-.03-.17-.07-.05-.05-.08-.12-.08-.18s.03-.13.07-.17c.1-.1.27-.1.36,0,.05.06.07.12.07.18s-.02.12-.07.17c-.04.05-.11.08-.18.08Z" fill="#231815"/>
        <path d="M54.75,41.75c-.06,0-.13-.03-.17-.07-.05-.05-.08-.12-.08-.18s.03-.13.08-.18c.08-.09.25-.09.35,0,.05.05.07.12.07.18s-.02.13-.07.18c-.05.04-.11.07-.18.07Z" fill="#231815"/>
        <path d="M55.75,35.5c-.06,0-.12-.02-.17-.07-.05-.05-.08-.11-.08-.18s.03-.13.08-.18c.09-.09.25-.09.35,0,.05.05.07.11.07.18s-.02.13-.07.18c-.05.05-.11.07-.18.07Z" fill="#231815"/>
        <path d="M62.5,42.25c-.06,0-.13-.03-.17-.07-.05-.05-.08-.11-.08-.18s.03-.13.08-.18c.08-.08.24-.09.34,0,.06.05.08.12.08.18s-.02.13-.07.18c-.05.05-.12.07-.18.07Z" fill="#231815"/>
        <path d="M67,47.5c-.06,0-.13-.03-.17-.07-.05-.05-.08-.11-.08-.18s.03-.13.08-.18c.08-.08.25-.09.35,0,.05.05.07.11.07.18s-.03.13-.07.18c-.05.05-.11.07-.18.07Z" fill="#231815"/>
        <path d="M69.5,54.25c-.06,0-.13-.03-.17-.07-.05-.05-.08-.11-.08-.18s.03-.13.08-.18c.09-.09.25-.09.35,0,.05.05.07.11.07.18s-.02.13-.07.18c-.05.04-.11.07-.18.07Z" fill="#231815"/>
        <path d="M63.5,61.75c-.06,0-.13-.03-.17-.07-.05-.05-.08-.12-.08-.18,0-.07.03-.13.08-.18.07-.08.25-.1.35,0,.05.05.07.12.07.18s-.02.12-.07.17c-.05.06-.11.08-.18.08Z" fill="#231815"/>
        <path d="M69.25,63.5c-.06,0-.12-.02-.17-.07-.05-.05-.08-.11-.08-.18s.03-.13.08-.18c.09-.09.25-.09.35,0,.05.05.07.12.07.18s-.02.13-.07.17c-.05.06-.11.08-.18.08Z" fill="#231815"/>
        <path d="M64.75,65.5c-.07,0-.13-.03-.17-.07-.05-.05-.08-.12-.08-.18s.03-.12.07-.17c.1-.1.27-.1.36,0,.05.06.07.12.07.18s-.02.12-.07.17c-.04.05-.11.08-.18.08Z" fill="#231815"/>
        <path d="M65.75,68.25c-.06,0-.13-.03-.17-.07-.05-.05-.08-.11-.08-.18s.03-.13.08-.18c.08-.09.26-.09.35,0,.05.05.07.12.07.18,0,.07-.02.13-.07.18-.05.04-.11.07-.18.07Z" fill="#231815"/>
        <path d="M69.25,70.5c-.06,0-.13-.03-.17-.07-.05-.05-.08-.12-.08-.18,0-.07.03-.13.08-.18.09-.09.25-.09.35,0,.05.05.07.11.07.18,0,.06-.02.13-.07.17-.05.06-.11.08-.18.08Z" fill="#231815"/>
        <path d="M62.5,70.25c-.06,0-.13-.03-.17-.07-.05-.05-.08-.11-.08-.18s.03-.13.08-.18c.08-.08.24-.1.34,0,.06.05.08.12.08.18s-.02.13-.07.18c-.06.05-.12.07-.18.07Z" fill="#231815"/>
        <path d="M60.75,65.75c-.06,0-.13-.03-.17-.07-.05-.05-.08-.11-.08-.18s.03-.13.08-.18c.09-.09.25-.09.35,0,.05.05.07.12.07.18s-.02.13-.07.17c-.05.06-.11.08-.18.08Z" fill="#231815"/>
        <path d="M52.75,69.75c-.06,0-.13-.03-.17-.07-.05-.05-.08-.11-.08-.18s.03-.13.08-.18c.09-.09.25-.09.35,0,.05.05.07.12.07.18s-.02.13-.07.17c-.05.06-.11.08-.18.08Z" fill="#231815"/>
        <path d="M44.75,66.5c-.07,0-.13-.03-.17-.07-.05-.05-.08-.11-.08-.18s.03-.13.08-.18c.09-.09.25-.09.35,0,.05.05.07.11.07.18,0,.06-.02.13-.07.17-.05.05-.11.08-.18.08Z" fill="#231815"/>
        <path d="M44.5,71.25c-.06,0-.12-.03-.17-.07-.05-.05-.08-.11-.08-.18s.03-.13.08-.18c.09-.09.25-.09.35,0,.05.05.07.11.07.18s-.02.13-.07.18c-.05.05-.12.07-.18.07Z" fill="#231815"/>
        <path d="M28.5,71.25c-.07,0-.13-.03-.18-.08-.04-.04-.07-.1-.07-.17s.03-.13.08-.18c.09-.09.25-.09.35,0,.05.05.07.12.07.18s-.02.13-.07.18c-.04.04-.11.07-.18.07Z" fill="#231815"/>
        <path d="M.75,29.5c-.06,0-.13-.03-.17-.07-.05-.05-.08-.12-.08-.18,0-.07.03-.13.08-.18.08-.09.24-.09.35,0,.04.05.07.11.07.18s-.02.13-.07.18c-.05.05-.11.07-.18.07Z" fill="#231815"/>
        <path d="M24.5,1c-.06,0-.12-.02-.17-.07-.05-.05-.08-.12-.08-.18,0-.07.03-.13.07-.18.11-.09.26-.09.36,0,.04.05.07.11.07.18s-.02.13-.07.17c-.05.06-.11.08-.18.08Z" fill="#231815"/>
        <path d="M13.25,5c-.07,0-.13-.03-.18-.07-.04-.05-.07-.12-.07-.18,0-.07.03-.13.07-.18.09-.09.26-.09.36,0,.05.05.07.11.07.18,0,.06-.02.13-.07.17-.05.06-.11.08-.18.08Z" fill="#231815"/>
        <path d="M71,35.25c-.06,0-.13-.03-.17-.07-.05-.05-.08-.11-.08-.18s.03-.13.08-.18c.08-.08.25-.09.35,0,.05.05.07.11.07.18s-.02.13-.07.18c-.05.05-.11.07-.18.07Z" fill="#231815"/>
      </g>
    </pattern>
  </defs>
  <path d="M60.32,29.23c-.06-.07.14-.27.07-.33-.32-.31-.82-.42-1.2-.68-.83-.66-.8-.7-1.62-1.37s-1.62-.31-1.6-1.37.88-.59,1.73-1.26.84-.67,1.7-1.32c.49-.31.77-.86,1.17-1.26.01-.01.12.1.13.09,0,0-.05-.05-.05-.05.56-.57.93-1.23,1.26-1.94s.76-1.4.82-2.2c.05-.75.04-1.59-.19-2.39-.18-.6-.57-1.15-.92-1.67s-.78-.99-1.26-1.4-1.07-.62-1.64-.9-1.12-.45-1.74-.59-1.19-.31-1.77-.31c-.62,0-1.26-.1-1.83.03s-1.12.53-1.65.79-1.08.56-1.54.94c0,0,.05-.03.05-.03-.06-.05-.05.09,0,.02.52-.57.81-1.29,1.12-1.99s.59-1.44.62-2.22c.03-.73-.33-1.45-.57-2.22-.19-.61-.24-1.3-.6-1.82s-.9-.92-1.4-1.33-1.05-.71-1.63-.98-1.15-.6-1.78-.72c-.78-.15-1.55-.05-2.26.02-.77.07-1.51.21-2.2.48s-1.3.76-1.88,1.22c-.01,0-.08-.13-.09-.12-.1.08-.18,0-.28.08-.29.25-.45.62-.7.91-.64.65-.66.63-1.31,1.27s-.67.62-1.32,1.26-.38,1.08-1.29,1.21c-.71.1-.55-.35-1.06-.85-.63-.62-.5-.73-1.1-1.38s-.72-.54-1.31-1.19c-.19-.25-.51-.38-.73-.61-.13-.14.06-.32-.07-.46,0,0-.11.11-.11.11-.47-.42-1.02-.75-1.6-1.05s-1.12-.67-1.75-.81-1.28-.09-1.94-.08c-.62.01-1.26.08-1.9.24s-1.2.44-1.76.74-1.17.58-1.63,1.02-.68,1.09-1.01,1.63-.69,1.06-.85,1.68c-.2.8-.21,1.55-.13,2.28.09.79.17,1.57.52,2.25s.94,1.23,1.51,1.77c.03.04-.12.02-.15.05-.04.04.06.04.01.02-.47-.39-.99-.75-1.55-1.02s-1.18-.39-1.8-.53-1.22-.16-1.85-.14c-.59.02-1.22.08-1.84.24s-1.15.56-1.7.86-1.04.7-1.49,1.14-1.1.77-1.43,1.31-.28,1.27-.43,1.89c-.17.72-.49,1.4-.43,2.06.06.71.38,1.38.67,2.01s.69,1.21,1.16,1.74c0,0-.11.09-.1.1.05.05.03.07.08.12.36.38.86.62,1.3.92.85.7.77.79,1.6,1.51s.89.64,1.65,1.43c.07.07.11.13.04.19-.88.74-.99.61-1.87,1.35s-.86.77-1.78,1.46c-.81.45-1.59.98-2.16,1.67-.05.06-.02.08-.07.14,0,.01.1.06.09.07-.48.6-.76,1.3-1.01,2.02s-.48,1.42-.45,2.21.33,1.45.61,2.13.64,1.31,1.14,1.87.98,1.12,1.63,1.51,1.33.65,2.08.83,1.45.15,2.22.13c.73-.02,1.43-.04,2.09-.25s1.36-.46,1.95-.84c0,0,.06.12.06.12.05-.02,0-.11.05-.14,0,0-.04-.1-.03-.11.7-.45.72-.42,1.43-.86,0,0,.1.09.09.1-.52.4-1.07.77-1.46,1.29s-.81,1.07-1.03,1.68-.39,1.28-.42,1.95c-.03.63.23,1.28.4,1.94s.34,1.31.71,1.88.78,1.12,1.29,1.57,1.18.66,1.79.95,1.22.53,1.88.65,1.3.06,1.93.03c.66-.03,1.29-.09,1.9-.27s1.28-.34,1.82-.67,1.12-.72,1.56-1.18c0,0-.09-.08-.09-.09.85-.79.93-.7,1.77-1.49s.8-.84,1.65-1.64.5-1.5,1.65-1.64c.9-.11.78.5,1.45,1.1s.53.76,1.19,1.37.62.66,1.28,1.27c.22.22.63.22.88.41.08.06-.03.19.05.25.01,0,0-.02,0-.02.48.36,1.03.59,1.59.84s1.1.43,1.71.54,1.18.27,1.8.23c.58-.03,1.16-.26,1.77-.43s1.19-.38,1.72-.68.93-.8,1.38-1.23.94-.82,1.25-1.35.66-1.08.81-1.69c.19-.78.14-1.56.06-2.29-.08-.77-.31-1.5-.66-2.17s-.69-1.37-1.24-1.9c-.04-.06-.07-.09,0-.12,0,0,.04.14.05.14.48.37,1.06.59,1.62.85s1.12.42,1.73.54,1.19.4,1.82.38c.59-.03,1.16-.38,1.78-.54s1.2-.39,1.75-.71,1.04-.72,1.49-1.16,1.08-.8,1.39-1.35.57-1.2.71-1.83c.17-.74.01-1.48-.07-2.17-.08-.73-.27-1.41-.59-2.05s-.61-1.38-1.11-1.9c-.05-.04-.18.22-.18.21Z" fill="#fff"/>
  <g>
    <path d="M60.32,29.23c-.06-.07.14-.27.07-.33-.32-.31-.82-.42-1.2-.68-.83-.66-.8-.7-1.62-1.37s-1.62-.31-1.6-1.37.88-.59,1.73-1.26.84-.67,1.7-1.32c.49-.31.77-.86,1.17-1.26.01-.01.12.1.13.09,0,0-.05-.05-.05-.05.56-.57.93-1.23,1.26-1.94s.76-1.4.82-2.2c.05-.75.04-1.59-.19-2.39-.18-.6-.57-1.15-.92-1.67s-.78-.99-1.26-1.4-1.07-.62-1.64-.9-1.12-.45-1.74-.59-1.19-.31-1.77-.31c-.62,0-1.26-.1-1.83.03s-1.12.53-1.65.79-1.08.56-1.54.94c0,0,.05-.03.05-.03-.06-.05-.05.09,0,.02.52-.57.81-1.29,1.12-1.99s.59-1.44.62-2.22c.03-.73-.33-1.45-.57-2.22-.19-.61-.24-1.3-.6-1.82s-.9-.92-1.4-1.33-1.05-.71-1.63-.98-1.15-.6-1.78-.72c-.78-.15-1.55-.05-2.26.02-.77.07-1.51.21-2.2.48s-1.3.76-1.88,1.22c-.01,0-.08-.13-.09-.12-.1.08-.18,0-.28.08-.29.25-.45.62-.7.91-.64.65-.66.63-1.31,1.27s-.67.62-1.32,1.26-.38,1.08-1.29,1.21c-.71.1-.55-.35-1.06-.85-.63-.62-.5-.73-1.1-1.38s-.72-.54-1.31-1.19c-.19-.25-.51-.38-.73-.61-.13-.14.06-.32-.07-.46,0,0-.11.11-.11.11-.47-.42-1.02-.75-1.6-1.05s-1.12-.67-1.75-.81-1.28-.09-1.94-.08c-.62.01-1.26.08-1.9.24s-1.2.44-1.76.74-1.17.58-1.63,1.02-.68,1.09-1.01,1.63-.69,1.06-.85,1.68c-.2.8-.21,1.55-.13,2.28.09.79.17,1.57.52,2.25s.94,1.23,1.51,1.77c.03.04-.12.02-.15.05-.04.04.06.04.01.02-.47-.39-.99-.75-1.55-1.02s-1.18-.39-1.8-.53-1.22-.16-1.85-.14c-.59.02-1.22.08-1.84.24s-1.15.56-1.7.86-1.04.7-1.49,1.14-1.1.77-1.43,1.31-.28,1.27-.43,1.89c-.17.72-.49,1.4-.43,2.06.06.71.38,1.38.67,2.01s.69,1.21,1.16,1.74c0,0-.11.09-.1.1.05.05.03.07.08.12.36.38.86.62,1.3.92.85.7.77.79,1.6,1.51s.89.64,1.65,1.43c.07.07.11.13.04.19-.88.74-.99.61-1.87,1.35s-.86.77-1.78,1.46c-.81.45-1.59.98-2.16,1.67-.05.06-.02.08-.07.14,0,.01.1.06.09.07-.48.6-.76,1.3-1.01,2.02s-.48,1.42-.45,2.21.33,1.45.61,2.13.64,1.31,1.14,1.87.98,1.12,1.63,1.51,1.33.65,2.08.83,1.45.15,2.22.13c.73-.02,1.43-.04,2.09-.25s1.36-.46,1.95-.84c0,0,.06.12.06.12.05-.02,0-.11.05-.14,0,0-.04-.1-.03-.11.7-.45.72-.42,1.43-.86,0,0,.1.09.09.1-.52.4-1.07.77-1.46,1.29s-.81,1.07-1.03,1.68-.39,1.28-.42,1.95c-.03.63.23,1.28.4,1.94s.34,1.31.71,1.88.78,1.12,1.29,1.57,1.18.66,1.79.95,1.22.53,1.88.65,1.3.06,1.93.03c.66-.03,1.29-.09,1.9-.27s1.28-.34,1.82-.67,1.12-.72,1.56-1.18c0,0-.09-.08-.09-.09.85-.79.93-.7,1.77-1.49s.8-.84,1.65-1.64.5-1.5,1.65-1.64c.9-.11.78.5,1.45,1.1s.53.76,1.19,1.37.62.66,1.28,1.27c.22.22.63.22.88.41.08.06-.03.19.05.25.01,0,0-.02,0-.02.48.36,1.03.59,1.59.84s1.1.43,1.71.54,1.18.27,1.8.23c.58-.03,1.16-.26,1.77-.43s1.19-.38,1.72-.68.93-.8,1.38-1.23.94-.82,1.25-1.35.66-1.08.81-1.69c.19-.78.14-1.56.06-2.29-.08-.77-.31-1.5-.66-2.17s-.69-1.37-1.24-1.9c-.04-.06-.07-.09,0-.12,0,0,.04.14.05.14.48.37,1.06.59,1.62.85s1.12.42,1.73.54,1.19.4,1.82.38c.59-.03,1.16-.38,1.78-.54s1.2-.39,1.75-.71,1.04-.72,1.49-1.16,1.08-.8,1.39-1.35.57-1.2.71-1.83c.17-.74.01-1.48-.07-2.17-.08-.73-.27-1.41-.59-2.05s-.61-1.38-1.11-1.9c-.05-.04-.18.22-.18.21Z" fill="url(#USGS_17_마른_호수_모래_바닥)"/>
    <path d="M60.32,29.23c-.06-.07.14-.27.07-.33-.32-.31-.82-.42-1.2-.68-.83-.66-.8-.7-1.62-1.37s-1.62-.31-1.6-1.37.88-.59,1.73-1.26.84-.67,1.7-1.32c.49-.31.77-.86,1.17-1.26.01-.01.12.1.13.09,0,0-.05-.05-.05-.05.56-.57.93-1.23,1.26-1.94s.76-1.4.82-2.2c.05-.75.04-1.59-.19-2.39-.18-.6-.57-1.15-.92-1.67s-.78-.99-1.26-1.4-1.07-.62-1.64-.9-1.12-.45-1.74-.59-1.19-.31-1.77-.31c-.62,0-1.26-.1-1.83.03s-1.12.53-1.65.79-1.08.56-1.54.94c0,0,.05-.03.05-.03-.06-.05-.05.09,0,.02.52-.57.81-1.29,1.12-1.99s.59-1.44.62-2.22c.03-.73-.33-1.45-.57-2.22-.19-.61-.24-1.3-.6-1.82s-.9-.92-1.4-1.33-1.05-.71-1.63-.98-1.15-.6-1.78-.72c-.78-.15-1.55-.05-2.26.02-.77.07-1.51.21-2.2.48s-1.3.76-1.88,1.22c-.01,0-.08-.13-.09-.12-.1.08-.18,0-.28.08-.29.25-.45.62-.7.91-.64.65-.66.63-1.31,1.27s-.67.62-1.32,1.26-.38,1.08-1.29,1.21c-.71.1-.55-.35-1.06-.85-.63-.62-.5-.73-1.1-1.38s-.72-.54-1.31-1.19c-.19-.25-.51-.38-.73-.61-.13-.14.06-.32-.07-.46,0,0-.11.11-.11.11-.47-.42-1.02-.75-1.6-1.05s-1.12-.67-1.75-.81-1.28-.09-1.94-.08c-.62.01-1.26.08-1.9.24s-1.2.44-1.76.74-1.17.58-1.63,1.02-.68,1.09-1.01,1.63-.69,1.06-.85,1.68c-.2.8-.21,1.55-.13,2.28.09.79.17,1.57.52,2.25s.94,1.23,1.51,1.77c.03.04-.12.02-.15.05-.04.04.06.04.01.02-.47-.39-.99-.75-1.55-1.02s-1.18-.39-1.8-.53-1.22-.16-1.85-.14c-.59.02-1.22.08-1.84.24s-1.15.56-1.7.86-1.04.7-1.49,1.14-1.1.77-1.43,1.31-.28,1.27-.43,1.89c-.17.72-.49,1.4-.43,2.06.06.71.38,1.38.67,2.01s.69,1.21,1.16,1.74c0,0-.11.09-.1.1.05.05.03.07.08.12.36.38.86.62,1.3.92.85.7.77.79,1.6,1.51s.89.64,1.65,1.43c.07.07.11.13.04.19-.88.74-.99.61-1.87,1.35s-.86.77-1.78,1.46c-.81.45-1.59.98-2.16,1.67-.05.06-.02.08-.07.14,0,.01.1.06.09.07-.48.6-.76,1.3-1.01,2.02s-.48,1.42-.45,2.21.33,1.45.61,2.13.64,1.31,1.14,1.87.98,1.12,1.63,1.51,1.33.65,2.08.83,1.45.15,2.22.13c.73-.02,1.43-.04,2.09-.25s1.36-.46,1.95-.84c0,0,.06.12.06.12.05-.02,0-.11.05-.14,0,0-.04-.1-.03-.11.7-.45.72-.42,1.43-.86,0,0,.1.09.09.1-.52.4-1.07.77-1.46,1.29s-.81,1.07-1.03,1.68-.39,1.28-.42,1.95c-.03.63.23,1.28.4,1.94s.34,1.31.71,1.88.78,1.12,1.29,1.57,1.18.66,1.79.95,1.22.53,1.88.65,1.3.06,1.93.03c.66-.03,1.29-.09,1.9-.27s1.28-.34,1.82-.67,1.12-.72,1.56-1.18c0,0-.09-.08-.09-.09.85-.79.93-.7,1.77-1.49s.8-.84,1.65-1.64.5-1.5,1.65-1.64c.9-.11.78.5,1.45,1.1s.53.76,1.19,1.37.62.66,1.28,1.27c.22.22.63.22.88.41.08.06-.03.19.05.25.01,0,0-.02,0-.02.48.36,1.03.59,1.59.84s1.1.43,1.71.54,1.18.27,1.8.23c.58-.03,1.16-.26,1.77-.43s1.19-.38,1.72-.68.93-.8,1.38-1.23.94-.82,1.25-1.35.66-1.08.81-1.69c.19-.78.14-1.56.06-2.29-.08-.77-.31-1.5-.66-2.17s-.69-1.37-1.24-1.9c-.04-.06-.07-.09,0-.12,0,0,.04.14.05.14.48.37,1.06.59,1.62.85s1.12.42,1.73.54,1.19.4,1.82.38c.59-.03,1.16-.38,1.78-.54s1.2-.39,1.75-.71,1.04-.72,1.49-1.16,1.08-.8,1.39-1.35.57-1.2.71-1.83c.17-.74.01-1.48-.07-2.17-.08-.73-.27-1.41-.59-2.05s-.61-1.38-1.11-1.9c-.05-.04-.18.22-.18.21Z" fill="none" stroke="#000" stroke-linecap="round" stroke-linejoin="bevel" stroke-width="1.01"/>
  </g>
  <circle cx="34.49" cy="32.6" r=".86" stroke="#000" stroke-miterlimit="10" stroke-width=".68"/>
  <path d="M28.14,21.94c0-3.39,3-3.39,3,0" fill="none" stroke="#000" stroke-miterlimit="10" stroke-width=".68"/>
  <path d="M37.95,21.9c0-3.39,3-3.39,3,0" fill="none" stroke="#000" stroke-miterlimit="10" stroke-width=".68"/>
  <line x1="13.92" y1="28.43" x2="21.04" y2="28.43" stroke="#000" stroke-miterlimit="10" stroke-width=".68"/>
  <line x1="13.92" y1="31.44" x2="21.04" y2="31.44" stroke="#000" stroke-miterlimit="10" stroke-width=".68"/>
  <line x1="48.96" y1="28.43" x2="56.08" y2="28.43" stroke="#000" stroke-miterlimit="10" stroke-width=".68"/>
  <line x1="48.96" y1="31.44" x2="56.08" y2="31.44" stroke="#000" stroke-miterlimit="10" stroke-width=".68"/>
</svg>