<?xml version="1.0" encoding="UTF-8"?>
<svg id="_아이콘" data-name="아이콘" xmlns="http://www.w3.org/2000/svg" width="70" height="52" xmlns:xlink="http://www.w3.org/1999/xlink" viewBox="0 0 70 52">
  <defs>
    <pattern id="USGS_19_침수_지역_3" data-name="USGS 19 침수 지역 3" x="0" y="0" width="75.48" height="70.75" patternTransform="translate(-1814.78 932.42)" patternUnits="userSpaceOnUse" viewBox="0 0 75.48 70.75">
      <g>
        <rect width="75.48" height="70.75" fill="none"/>
        <line x1="0" y1="70.37" x2="73.44" y2="70.37" fill="none" stroke="#b0ffd2" stroke-dasharray="2 2" stroke-width=".75"/>
        <line x1="0" y1="66.37" x2="73.44" y2="66.37" fill="none" stroke="#b0ffd2" stroke-dasharray="2 2" stroke-width=".75"/>
        <line x1="0" y1="62.37" x2="73.44" y2="62.37" fill="none" stroke="#b0ffd2" stroke-dasharray="2 2" stroke-width=".75"/>
        <line x1="0" y1="58.37" x2="73.44" y2="58.37" fill="none" stroke="#b0ffd2" stroke-dasharray="2 2" stroke-width=".75"/>
        <line x1="0" y1="54.37" x2="73.44" y2="54.37" fill="none" stroke="#b0ffd2" stroke-dasharray="2 2" stroke-width=".75"/>
        <line x1="0" y1="50.37" x2="73.44" y2="50.37" fill="none" stroke="#b0ffd2" stroke-dasharray="2 2" stroke-width=".75"/>
        <line x1="0" y1="46.37" x2="73.44" y2="46.37" fill="none" stroke="#b0ffd2" stroke-dasharray="2 2" stroke-width=".75"/>
        <line x1="0" y1="42.37" x2="73.44" y2="42.37" fill="none" stroke="#b0ffd2" stroke-dasharray="2 2" stroke-width=".75"/>
        <line x1="0" y1="38.37" x2="73.44" y2="38.37" fill="none" stroke="#b0ffd2" stroke-dasharray="2 2" stroke-width=".75"/>
        <line x1="0" y1="34.37" x2="73.44" y2="34.37" fill="none" stroke="#b0ffd2" stroke-dasharray="2 2" stroke-width=".75"/>
        <line x1="0" y1="30.37" x2="73.44" y2="30.37" fill="none" stroke="#b0ffd2" stroke-dasharray="2 2" stroke-width=".75"/>
        <line x1="0" y1="26.37" x2="73.44" y2="26.37" fill="none" stroke="#b0ffd2" stroke-dasharray="2 2" stroke-width=".75"/>
        <line x1="0" y1="22.37" x2="73.44" y2="22.37" fill="none" stroke="#b0ffd2" stroke-dasharray="2 2" stroke-width=".75"/>
        <line x1="0" y1="18.37" x2="73.44" y2="18.37" fill="none" stroke="#b0ffd2" stroke-dasharray="2 2" stroke-width=".75"/>
        <line x1="0" y1="14.37" x2="73.44" y2="14.37" fill="none" stroke="#b0ffd2" stroke-dasharray="2 2" stroke-width=".75"/>
        <line x1="0" y1="10.37" x2="73.44" y2="10.37" fill="none" stroke="#b0ffd2" stroke-dasharray="2 2" stroke-width=".75"/>
        <line x1="0" y1="6.37" x2="73.44" y2="6.37" fill="none" stroke="#b0ffd2" stroke-dasharray="2 2" stroke-width=".75"/>
        <line x1="0" y1="2.37" x2="73.44" y2="2.37" fill="none" stroke="#b0ffd2" stroke-dasharray="2 2" stroke-width=".75"/>
        <line x1="2.04" y1="68.37" x2="75.48" y2="68.37" fill="none" stroke="#b0ffd2" stroke-dasharray="2 2" stroke-width=".75"/>
        <line x1="2.04" y1="64.37" x2="75.48" y2="64.37" fill="none" stroke="#b0ffd2" stroke-dasharray="2 2" stroke-width=".75"/>
        <line x1="2.04" y1="60.37" x2="75.48" y2="60.37" fill="none" stroke="#b0ffd2" stroke-dasharray="2 2" stroke-width=".75"/>
        <line x1="2.04" y1="56.37" x2="75.48" y2="56.37" fill="none" stroke="#b0ffd2" stroke-dasharray="2 2" stroke-width=".75"/>
        <line x1="2.04" y1="52.37" x2="75.48" y2="52.37" fill="none" stroke="#b0ffd2" stroke-dasharray="2 2" stroke-width=".75"/>
        <line x1="2.04" y1="48.37" x2="75.48" y2="48.37" fill="none" stroke="#b0ffd2" stroke-dasharray="2 2" stroke-width=".75"/>
        <line x1="2.04" y1="44.37" x2="75.48" y2="44.37" fill="none" stroke="#b0ffd2" stroke-dasharray="2 2" stroke-width=".75"/>
        <line x1="2.04" y1="40.37" x2="75.48" y2="40.37" fill="none" stroke="#b0ffd2" stroke-dasharray="2 2" stroke-width=".75"/>
        <line x1="2.04" y1="36.37" x2="75.48" y2="36.37" fill="none" stroke="#b0ffd2" stroke-dasharray="2 2" stroke-width=".75"/>
        <line x1="2.04" y1="32.37" x2="75.48" y2="32.37" fill="none" stroke="#b0ffd2" stroke-dasharray="2 2" stroke-width=".75"/>
        <line x1="2.04" y1="28.37" x2="75.48" y2="28.37" fill="none" stroke="#b0ffd2" stroke-dasharray="2 2" stroke-width=".75"/>
        <line x1="2.04" y1="24.37" x2="75.48" y2="24.37" fill="none" stroke="#b0ffd2" stroke-dasharray="2 2" stroke-width=".75"/>
        <line x1="2.04" y1="20.37" x2="75.48" y2="20.37" fill="none" stroke="#b0ffd2" stroke-dasharray="2 2" stroke-width=".75"/>
        <line x1="2.04" y1="16.37" x2="75.48" y2="16.37" fill="none" stroke="#b0ffd2" stroke-dasharray="2 2" stroke-width=".75"/>
        <line x1="2.04" y1="12.37" x2="75.48" y2="12.37" fill="none" stroke="#b0ffd2" stroke-dasharray="2 2" stroke-width=".75"/>
        <line x1="2.04" y1="8.37" x2="75.48" y2="8.37" fill="none" stroke="#b0ffd2" stroke-dasharray="2 2" stroke-width=".75"/>
        <line x1="2.04" y1="4.37" x2="75.48" y2="4.37" fill="none" stroke="#b0ffd2" stroke-dasharray="2 2" stroke-width=".75"/>
        <line x1="2.04" y1=".37" x2="75.48" y2=".37" fill="none" stroke="#b0ffd2" stroke-dasharray="2 2" stroke-width=".75"/>
      </g>
    </pattern>
  </defs>
  <g>
    <path d="M60.32,29.23c-.06-.07.14-.27.07-.33-.32-.31-.82-.42-1.2-.68-.83-.66-.8-.7-1.62-1.37s-1.62-.31-1.6-1.37.88-.59,1.73-1.26.84-.67,1.7-1.32c.49-.31.77-.86,1.17-1.26.01-.01.12.1.13.09,0,0-.05-.05-.05-.05.56-.57.93-1.23,1.26-1.94s.76-1.4.82-2.2c.05-.75.04-1.59-.19-2.39-.18-.6-.57-1.15-.92-1.67s-.78-.99-1.26-1.4-1.07-.62-1.64-.9-1.12-.45-1.74-.59-1.19-.31-1.77-.31c-.62,0-1.26-.1-1.83.03s-1.12.53-1.65.79-1.08.56-1.54.94c0,0,.05-.03.05-.03-.06-.05-.05.09,0,.02.52-.57.81-1.29,1.12-1.99s.59-1.44.62-2.22c.03-.73-.33-1.45-.57-2.22-.19-.61-.24-1.3-.6-1.82s-.9-.92-1.4-1.33-1.05-.71-1.63-.98-1.15-.6-1.78-.72c-.78-.15-1.55-.05-2.26.02-.77.07-1.51.21-2.2.48s-1.3.76-1.88,1.22c-.01,0-.08-.13-.09-.12-.1.08-.18,0-.28.08-.29.25-.45.62-.7.91-.64.65-.66.63-1.31,1.27s-.67.62-1.32,1.26-.38,1.08-1.29,1.21c-.71.1-.55-.35-1.06-.85-.63-.62-.5-.73-1.1-1.38s-.72-.54-1.31-1.19c-.19-.25-.51-.38-.73-.61-.13-.14.06-.32-.07-.46,0,0-.11.11-.11.11-.47-.42-1.02-.75-1.6-1.05s-1.12-.67-1.75-.81-1.28-.09-1.94-.08c-.62.01-1.26.08-1.9.24s-1.2.44-1.76.74-1.17.58-1.63,1.02-.68,1.09-1.01,1.63-.69,1.06-.85,1.68c-.2.8-.21,1.55-.13,2.28.09.79.17,1.57.52,2.25s.94,1.23,1.51,1.77c.03.04-.12.02-.15.05-.04.04.06.04.01.02-.47-.39-.99-.75-1.55-1.02s-1.18-.39-1.8-.53-1.22-.16-1.85-.14c-.59.02-1.22.08-1.84.24s-1.15.56-1.7.86-1.04.7-1.49,1.14-1.1.77-1.43,1.31-.28,1.27-.43,1.89c-.17.72-.49,1.4-.43,2.06.06.71.38,1.38.67,2.01s.69,1.21,1.16,1.74c0,0-.11.09-.1.1.05.05.03.07.08.12.36.38.86.62,1.3.92.85.7.77.79,1.6,1.51s.89.64,1.65,1.43c.07.07.11.13.04.19-.88.74-.99.61-1.87,1.35s-.86.77-1.78,1.46c-.81.45-1.59.98-2.16,1.67-.05.06-.02.08-.07.14,0,.01.1.06.09.07-.48.6-.76,1.3-1.01,2.02s-.48,1.42-.45,2.21.33,1.45.61,2.13.64,1.31,1.14,1.87.98,1.12,1.63,1.51,1.33.65,2.08.83,1.45.15,2.22.13c.73-.02,1.43-.04,2.09-.25s1.36-.46,1.95-.84c0,0,.06.12.06.12.05-.02,0-.11.05-.14,0,0-.04-.1-.03-.11.7-.45.72-.42,1.43-.86,0,0,.1.09.09.1-.52.4-1.07.77-1.46,1.29s-.81,1.07-1.03,1.68-.39,1.28-.42,1.95c-.03.63.23,1.28.4,1.94s.34,1.31.71,1.88.78,1.12,1.29,1.57,1.18.66,1.79.95,1.22.53,1.88.65,1.3.06,1.93.03c.66-.03,1.29-.09,1.9-.27s1.28-.34,1.82-.67,1.12-.72,1.56-1.18c0,0-.09-.08-.09-.09.85-.79.93-.7,1.77-1.49s.8-.84,1.65-1.64.5-1.5,1.65-1.64c.9-.11.78.5,1.45,1.1s.53.76,1.19,1.37.62.66,1.28,1.27c.22.22.63.22.88.41.08.06-.03.19.05.25.01,0,0-.02,0-.02.48.36,1.03.59,1.59.84s1.1.43,1.71.54,1.18.27,1.8.23c.58-.03,1.16-.26,1.77-.43s1.19-.38,1.72-.68.93-.8,1.38-1.23.94-.82,1.25-1.35.66-1.08.81-1.69c.19-.78.14-1.56.06-2.29-.08-.77-.31-1.5-.66-2.17s-.69-1.37-1.24-1.9c-.04-.06-.07-.09,0-.12,0,0,.04.14.05.14.48.37,1.06.59,1.62.85s1.12.42,1.73.54,1.19.4,1.82.38c.59-.03,1.16-.38,1.78-.54s1.2-.39,1.75-.71,1.04-.72,1.49-1.16,1.08-.8,1.39-1.35.57-1.2.71-1.83c.17-.74.01-1.48-.07-2.17-.08-.73-.27-1.41-.59-2.05s-.61-1.38-1.11-1.9c-.05-.04-.18.22-.18.21Z" fill="url(#USGS_19_침수_지역_3)"/>
    <path d="M60.32,29.23c-.06-.07.14-.27.07-.33-.32-.31-.82-.42-1.2-.68-.83-.66-.8-.7-1.62-1.37s-1.62-.31-1.6-1.37.88-.59,1.73-1.26.84-.67,1.7-1.32c.49-.31.77-.86,1.17-1.26.01-.01.12.1.13.09,0,0-.05-.05-.05-.05.56-.57.93-1.23,1.26-1.94s.76-1.4.82-2.2c.05-.75.04-1.59-.19-2.39-.18-.6-.57-1.15-.92-1.67s-.78-.99-1.26-1.4-1.07-.62-1.64-.9-1.12-.45-1.74-.59-1.19-.31-1.77-.31c-.62,0-1.26-.1-1.83.03s-1.12.53-1.65.79-1.08.56-1.54.94c0,0,.05-.03.05-.03-.06-.05-.05.09,0,.02.52-.57.81-1.29,1.12-1.99s.59-1.44.62-2.22c.03-.73-.33-1.45-.57-2.22-.19-.61-.24-1.3-.6-1.82s-.9-.92-1.4-1.33-1.05-.71-1.63-.98-1.15-.6-1.78-.72c-.78-.15-1.55-.05-2.26.02-.77.07-1.51.21-2.2.48s-1.3.76-1.88,1.22c-.01,0-.08-.13-.09-.12-.1.08-.18,0-.28.08-.29.25-.45.62-.7.91-.64.65-.66.63-1.31,1.27s-.67.62-1.32,1.26-.38,1.08-1.29,1.21c-.71.1-.55-.35-1.06-.85-.63-.62-.5-.73-1.1-1.38s-.72-.54-1.31-1.19c-.19-.25-.51-.38-.73-.61-.13-.14.06-.32-.07-.46,0,0-.11.11-.11.11-.47-.42-1.02-.75-1.6-1.05s-1.12-.67-1.75-.81-1.28-.09-1.94-.08c-.62.01-1.26.08-1.9.24s-1.2.44-1.76.74-1.17.58-1.63,1.02-.68,1.09-1.01,1.63-.69,1.06-.85,1.68c-.2.8-.21,1.55-.13,2.28.09.79.17,1.57.52,2.25s.94,1.23,1.51,1.77c.03.04-.12.02-.15.05-.04.04.06.04.01.02-.47-.39-.99-.75-1.55-1.02s-1.18-.39-1.8-.53-1.22-.16-1.85-.14c-.59.02-1.22.08-1.84.24s-1.15.56-1.7.86-1.04.7-1.49,1.14-1.1.77-1.43,1.31-.28,1.27-.43,1.89c-.17.72-.49,1.4-.43,2.06.06.71.38,1.38.67,2.01s.69,1.21,1.16,1.74c0,0-.11.09-.1.1.05.05.03.07.08.12.36.38.86.62,1.3.92.85.7.77.79,1.6,1.51s.89.64,1.65,1.43c.07.07.11.13.04.19-.88.74-.99.61-1.87,1.35s-.86.77-1.78,1.46c-.81.45-1.59.98-2.16,1.67-.05.06-.02.08-.07.14,0,.01.1.06.09.07-.48.6-.76,1.3-1.01,2.02s-.48,1.42-.45,2.21.33,1.45.61,2.13.64,1.31,1.14,1.87.98,1.12,1.63,1.51,1.33.65,2.08.83,1.45.15,2.22.13c.73-.02,1.43-.04,2.09-.25s1.36-.46,1.95-.84c0,0,.06.12.06.12.05-.02,0-.11.05-.14,0,0-.04-.1-.03-.11.7-.45.72-.42,1.43-.86,0,0,.1.09.09.1-.52.4-1.07.77-1.46,1.29s-.81,1.07-1.03,1.68-.39,1.28-.42,1.95c-.03.63.23,1.28.4,1.94s.34,1.31.71,1.88.78,1.12,1.29,1.57,1.18.66,1.79.95,1.22.53,1.88.65,1.3.06,1.93.03c.66-.03,1.29-.09,1.9-.27s1.28-.34,1.82-.67,1.12-.72,1.56-1.18c0,0-.09-.08-.09-.09.85-.79.93-.7,1.77-1.49s.8-.84,1.65-1.64.5-1.5,1.65-1.64c.9-.11.78.5,1.45,1.1s.53.76,1.19,1.37.62.66,1.28,1.27c.22.22.63.22.88.41.08.06-.03.19.05.25.01,0,0-.02,0-.02.48.36,1.03.59,1.59.84s1.1.43,1.71.54,1.18.27,1.8.23c.58-.03,1.16-.26,1.77-.43s1.19-.38,1.72-.68.93-.8,1.38-1.23.94-.82,1.25-1.35.66-1.08.81-1.69c.19-.78.14-1.56.06-2.29-.08-.77-.31-1.5-.66-2.17s-.69-1.37-1.24-1.9c-.04-.06-.07-.09,0-.12,0,0,.04.14.05.14.48.37,1.06.59,1.62.85s1.12.42,1.73.54,1.19.4,1.82.38c.59-.03,1.16-.38,1.78-.54s1.2-.39,1.75-.71,1.04-.72,1.49-1.16,1.08-.8,1.39-1.35.57-1.2.71-1.83c.17-.74.01-1.48-.07-2.17-.08-.73-.27-1.41-.59-2.05s-.61-1.38-1.11-1.9c-.05-.04-.18.22-.18.21Z" fill="none" stroke="#000" stroke-linecap="round" stroke-linejoin="round"/>
  </g>
  <circle cx="34.49" cy="32.6" r=".86" stroke="#000" stroke-miterlimit="10" stroke-width=".68"/>
  <path d="M28.14,21.94c0-3.39,3-3.39,3,0" fill="none" stroke="#000" stroke-miterlimit="10" stroke-width=".68"/>
  <path d="M37.95,21.9c0-3.39,3-3.39,3,0" fill="none" stroke="#000" stroke-miterlimit="10" stroke-width=".68"/>
  <line x1="13.92" y1="28.43" x2="21.04" y2="28.43" stroke="#000" stroke-miterlimit="10" stroke-width=".68"/>
  <line x1="13.92" y1="31.44" x2="21.04" y2="31.44" stroke="#000" stroke-miterlimit="10" stroke-width=".68"/>
  <line x1="48.96" y1="28.43" x2="56.08" y2="28.43" stroke="#000" stroke-miterlimit="10" stroke-width=".68"/>
  <line x1="48.96" y1="31.44" x2="56.08" y2="31.44" stroke="#000" stroke-miterlimit="10" stroke-width=".68"/>
</svg>