<?xml version="1.0" encoding="UTF-8"?>
<svg id="_레이어_1" data-name="레이어_1" xmlns="http://www.w3.org/2000/svg" width="283" height="284" version="1.1" xmlns:xlink="http://www.w3.org/1999/xlink" viewBox="0 0 283 284">
  <!-- Generator: Adobe Illustrator 29.6.1, SVG Export Plug-In . SVG Version: 2.1.1 Build 9)  -->
  <defs>
    <clipPath id="clippath">
      <rect width="282.98" height="283.19" fill="none"/>
    </clipPath>
    <pattern id="_6_dpi_90_dot_pink" data-name="6 dpi 90 dot pink" x="0" y="0" width="48" height="48" patternTransform="translate(-2 299)" patternUnits="userSpaceOnUse" viewBox="0 0 48 48">
      <g>
        <rect width="48" height="48" fill="none"/>
        <g>
          <path d="M24,58.8c5.96,0,10.8-4.83,10.8-10.8s-4.84-10.8-10.8-10.8-10.8,4.84-10.8,10.8,4.83,10.8,10.8,10.8Z" fill="#fcc"/>
          <circle cx="48" cy="48" r="10.8" fill="#fcc"/>
          <path d="M24,34.8c5.96,0,10.8-4.83,10.8-10.8s-4.84-10.8-10.8-10.8-10.8,4.84-10.8,10.8,4.83,10.8,10.8,10.8Z" fill="#fcc"/>
          <circle cx="48" cy="24" r="10.8" fill="#fcc"/>
          <path d="M36,46.8c5.96,0,10.8-4.83,10.8-10.8s-4.84-10.8-10.8-10.8-10.8,4.84-10.8,10.8,4.83,10.8,10.8,10.8Z" fill="#fcc"/>
          <path d="M12,46.8c5.96,0,10.8-4.83,10.8-10.8s-4.84-10.8-10.8-10.8S1.2,30.04,1.2,36s4.83,10.8,10.8,10.8Z" fill="#fcc"/>
          <path d="M36,22.8c5.96,0,10.8-4.83,10.8-10.8S41.96,1.2,36,1.2s-10.8,4.84-10.8,10.8,4.83,10.8,10.8,10.8Z" fill="#fcc"/>
          <path d="M12,22.8c5.96,0,10.8-4.83,10.8-10.8S17.96,1.2,12,1.2,1.2,6.04,1.2,12s4.83,10.8,10.8,10.8Z" fill="#fcc"/>
        </g>
        <g>
          <circle cy="48" r="10.8" fill="#fcc"/>
          <circle cy="24" r="10.8" fill="#fcc"/>
        </g>
        <g>
          <path d="M24,10.8c5.96,0,10.8-4.83,10.8-10.8s-4.84-10.8-10.8-10.8S13.2-5.96,13.2,0s4.83,10.8,10.8,10.8Z" fill="#fcc"/>
          <circle cx="48" r="10.8" fill="#fcc"/>
        </g>
        <circle r="10.8" fill="#fcc"/>
      </g>
    </pattern>
  </defs>
  <g clip-path="url(#clippath)">
    <g>
      <path d="M126.33,2.06c115.97-9.83,194.47,111.49,134.5,212.11-57.47,96.42-202.17,87.97-247.53-15.15C-24.49,113.1,32.55,10.01,126.33,2.06ZM251.77,178.55c-1.5-.41-3.36-.21-5.54.47h0c-1.43.45-2.4,1.43-3.01,2.62l-.04.07-.03.08c-9.69,25.26-28.4,44.48-51.68,57.72h0c-.73.42-1.72.79-2.93,1.23-1.16.42-2.5.89-3.73,1.47-2.42,1.14-5.03,3.02-5.03,6.57,0,2.01,1.06,3.85,2.48,5.08,1.42,1.24,3.39,2.04,5.41,1.73h0c.41-.06.93-.25,1.41-.44.52-.21,1.14-.48,1.82-.8,1.37-.63,3.03-1.46,4.69-2.32,3.33-1.71,6.74-3.57,7.97-4.29,15.48-9.08,30.46-23.47,40.31-38.51h0c1.47-2.25,6.69-10.62,9.47-17.85.7-1.82,1.26-3.6,1.56-5.23.3-1.6.37-3.2-.04-4.55-.45-1.46-1.47-2.59-3.1-3.04ZM232.35,170.88c-1.19-.35-2.53-.31-3.97.08h0c-1.4.38-2.48,1.51-3.31,2.66-.86,1.19-1.63,2.68-2.32,4.16-.69,1.49-1.33,3.06-1.91,4.43-.52,1.23-.97,2.26-1.37,3.01l-.17.3c-6.78,11.69-16.7,22.56-27.84,30.12-1.69,1.15-5.3,2.96-8.86,4.78-1.75.9-3.46,1.79-4.85,2.57-.69.39-1.33.77-1.85,1.12-.43.29-.86.6-1.19.92l-.13.14c-2.26,2.44-2.7,5.58-1.45,8.04,1.27,2.5,4.1,3.94,7.58,3.34,1.67-.28,4.02-1.38,6.53-2.76,2.57-1.42,5.5-3.25,8.38-5.17,5.76-3.83,11.47-8.1,13.95-10.28,4.26-3.73,10.36-10.57,15.65-17.8,2.65-3.62,5.12-7.38,7.07-10.92,1.81-3.3,3.22-6.5,3.85-9.28l.12-.55c.49-2.47.25-5.06-1.08-6.91-.68-.95-1.64-1.66-2.84-2.02ZM215.3,164.33c-1.99-1.02-4.52-1.1-6.73-.4h-.04l-.24.08c-1.07.38-1.82,1.31-2.34,2.13-.55.88-1.03,1.94-1.46,2.98-.42,1.03-.84,2.16-1.2,3.08-.38.98-.71,1.74-1,2.23-5.43,9.1-11.18,16.22-19.64,22.45-1.26.92-5.21,3.19-9.07,5.41-1.9,1.09-3.74,2.15-5.14,3-.7.42-1.3.8-1.76,1.1-.23.15-.43.3-.61.43-.08.07-.18.14-.26.22-.07.07-.21.21-.33.41h0c-1.27,2.1-1.3,4.64-.38,6.67.94,2.07,2.92,3.69,5.64,3.69h0c2.49,0,5.57-1.22,8.69-2.93,3.18-1.74,6.65-4.12,9.99-6.68,6.67-5.11,13.03-11.1,15.86-14.55,1.69-2.06,4.77-6.55,7.49-11.07,1.37-2.27,2.67-4.57,3.67-6.6.98-1.98,1.77-3.87,1.98-5.26h0c.23-1.48.03-2.81-.57-3.95-.59-1.12-1.51-1.95-2.56-2.49ZM173.03,195.07c57.6-33.91,28.3-123.8-41.97-115.05h-.11c-22.25,2.81-42.43,21.79-49.04,42.83l-.3,1c-16.02,54.7,42.49,100.03,91.42,71.22ZM110.97,64.99c-.21.02-.41.09-.48.11-.11.04-.24.08-.36.13-.26.1-.58.23-.95.38-.73.3-1.66.7-2.6,1.12-1.85.82-3.83,1.72-4.46,2.04-11.12,5.61-24.08,17.83-30.64,28.41-1.25,2.02-4.47,7.38-6.01,12.23-.75,2.36-1.21,4.95-.51,7.01.37,1.1,1.08,2.04,2.19,2.66,1.07.6,2.4.82,3.91.74h0c1.7-.09,3.1-1.08,4.21-2.25,1.12-1.18,2.12-2.73,3.01-4.31.89-1.58,1.72-3.29,2.47-4.82.67-1.36,1.27-2.56,1.81-3.48l.23-.38c5-7.83,11.87-15.04,19.48-20.35l.74-.51c1.25-.85,4.18-2.31,7.12-3.84,1.43-.74,2.84-1.49,3.97-2.15.56-.33,1.08-.65,1.5-.95.38-.27.83-.62,1.12-1.02h0c1.7-2.34,1.52-5.16.36-7.26-.91-1.64-2.51-3.01-4.47-3.39v-.26l-1.64.16ZM104.91,46.74c-1.17-.14-2.46.03-3.78.37-1.42.37-2.97.95-4.58,1.69-3.22,1.47-6.81,3.59-10.3,5.9-6.98,4.61-13.76,10.09-16.73,12.98-3.36,3.27-9.1,10.3-14.08,17.56-2.5,3.64-4.83,7.38-6.58,10.78-1.73,3.35-3,6.53-3.21,9.02-.27,3.19,1.84,5.41,4.24,6.33,2.37.91,5.43.72,7.53-1.28h0c.32-.3.57-.71.76-1.04.21-.37.42-.82.64-1.29.43-.96.91-2.14,1.38-3.34.98-2.48,1.91-4.92,2.57-6.08h0c6.87-12.26,17.01-23.45,28.68-31.23,1.5-1,5.32-2.91,9.07-4.79,1.84-.93,3.63-1.83,5.03-2.59.7-.38,1.32-.72,1.81-1.02.42-.26.93-.59,1.24-.94h0c1.57-1.77,1.91-4.3,1.35-6.41-.57-2.13-2.17-4.17-4.8-4.59l-.23-.03ZM101.55,31.04c-1.34-2.38-4.11-3.72-7.58-3.05h0c-3.47.68-7.6,2.57-11.9,5.08-4.32,2.53-8.93,5.75-13.38,9.2-8.33,6.46-16.23,13.8-20.82,19l-.87,1.01c-2.7,3.21-7.34,9.79-11.42,16.5-2.04,3.36-3.97,6.79-5.45,9.86-1.46,3.03-2.57,5.86-2.86,8-.49,3.54.92,6.39,3.4,7.6,2.47,1.21,5.52.55,7.72-1.92l.17-.19.1-.23c9.38-22.35,24.3-40.89,44.78-53.79h0c1.33-.84,5.32-2.85,9.19-4.81,1.9-.96,3.75-1.9,5.16-2.65.7-.37,1.31-.7,1.77-.97.23-.13.44-.26.61-.38.11-.07.4-.26.6-.53h0c1.86-2.4,2.08-5.43.79-7.75Z" fill="url(#_6_dpi_90_dot_pink)" stroke="#000" stroke-linecap="round" stroke-linejoin="bevel" stroke-width="2"/>
      <path d="M131.14,81.52c68.79-8.65,97.29,79.19,41.12,112.26-47.75,28.12-104.86-16.12-89.22-69.51,6.13-20.93,26.15-39.99,48.09-42.75h0ZM135.15,101.54c-49.08,5.94-43.26,83.91,8.68,80.7,53.09-3.28,48.12-87.58-8.68-80.7Z" fill="#fff"/>
      <path d="M246.69,180.45c16.54-5.13-1.13,23.48-4.05,27.95-9.73,14.85-24.55,29.09-39.82,38.04-2.37,1.39-13.56,7.38-15.36,7.66-2.98.46-6.16-2.35-6.16-5.33,0-5.25,7.47-5.99,10.93-7.96,23.52-13.38,42.5-32.85,52.34-58.49.46-.91,1.15-1.57,2.13-1.87h0Z" fill="#fff"/>
      <path d="M94.26,29.47c5.82-1.14,8.35,4.47,5.32,8.4-.59.76-14.13,7.21-16.95,8.99-20.76,13.08-35.87,31.87-45.36,54.48-3.64,4.09-9.35,1.59-8.51-4.48,1.04-7.55,14.11-27.35,19.39-33.6,8.66-10.25,33.22-31.27,46.11-33.79Z" fill="#fff"/>
      <path d="M56.38,109c-3.16,3.01-9.64.85-9.24-3.84.74-8.67,16.9-30.07,23.43-36.41,5.79-5.62,26.8-21.68,34.34-20.5,3.79.6,4.91,5.87,2.56,8.52-1.07,1.21-13.67,6.95-16.86,9.08-11.88,7.91-22.18,19.28-29.16,31.74-1.43,2.56-3.95,10.34-5.07,11.41Z" fill="#fff"/>
      <path d="M228.78,172.41c4.95-1.33,6.91,2.62,6.03,7.11-2.1,10.73-17.91,30.44-26.21,37.71-4.83,4.23-22.58,16.91-28.13,17.86-5.84,1-8.54-4.82-4.78-8.89,1.7-1.84,13.05-6.88,16.63-9.31,11.33-7.7,21.41-18.74,28.29-30.61,2-3.45,4.63-12.91,8.18-13.87h0Z" fill="#fff"/>
      <path d="M111.11,66.48c3.95-.36,7,4.79,4.4,8.36-1.1,1.5-10.64,5.78-13.34,7.61-8.08,5.47-15.38,13.04-20.64,21.29-2.66,4.17-5.98,14.3-10.54,14.53-10.74.55-.74-16.29,1.77-20.34,6.43-10.35,19.19-22.38,30.04-27.86,1.13-.57,7.79-3.56,8.31-3.61v.02Z" fill="#fff"/>
      <path d="M208.78,165.43c3.9-1.36,8.89.29,8.14,5.1-.7,4.52-9.57,18.26-12.82,22.2-5.48,6.66-25.04,23.63-33.38,23.61-4.1,0-5.97-4.8-3.98-8.09.51-.84,14.1-8.17,16.78-10.15,8.66-6.38,14.54-13.68,20.04-22.89,1.46-2.45,2.94-8.98,5.2-9.78h.02Z" fill="#fff"/>
      <path d="M135.33,103.03c13.8-1.67,24.32,2.2,31.59,8.87,7.3,6.7,11.46,16.32,12.28,26.31.83,10-1.68,20.25-7.55,28.18-5.84,7.89-15.08,13.56-27.91,14.35h0c-12.58.78-22.26-3.35-29.03-9.99-6.79-6.67-10.73-15.95-11.61-25.57-1.76-19.26,8.7-39.31,32.23-42.15ZM155,124.36c-4.29-3.77-10.4-5.66-18.15-4.33-12.72,2.18-18.04,13.73-16.87,24.17.59,5.24,2.81,10.35,6.66,14.05,3.88,3.72,9.32,5.93,16.16,5.45,6.9-.48,12.01-3.82,15.24-8.47,3.2-4.61,4.53-10.48,4.03-16.07s-2.82-11.06-7.07-14.8Z" fill="url(#_6_dpi_90_dot_pink)" stroke="#000" stroke-linecap="round" stroke-linejoin="bevel" stroke-width="2"/>
      <path d="M137.1,121.51c29.44-5.04,32.08,38.84,5.6,40.69-26.48,1.85-29.03-36.68-5.6-40.69ZM140.12,131.45c-13.08,1.49-11.63,23.3,4.51,19.6,10.28-2.36,7.83-21-4.51-19.6Z" fill="#fff"/>
      <path d="M140.29,132.94c2.67-.3,4.72.48,6.2,1.78,1.51,1.33,2.51,3.28,2.9,5.39.79,4.34-1.03,8.55-5.09,9.48-3.7.85-6.36.2-8.15-1.06-1.81-1.27-2.91-3.3-3.24-5.55-.65-4.56,1.89-9.42,7.38-10.04Z" fill="#ff7f81" stroke="#000" stroke-width="2"/>
    </g>
  </g>
</svg>