<?xml version="1.0" encoding="UTF-8"?>
<svg id="_아이콘" data-name="아이콘" xmlns="http://www.w3.org/2000/svg" width="70" height="52" xmlns:xlink="http://www.w3.org/1999/xlink" viewBox="0 0 70 52">
  <defs>
    <pattern id="USGS_17_마른_호수_모래_바닥" data-name="USGS 17 마른 호수 모래 바닥" x="0" y="0" width="72" height="72" patternTransform="translate(-1364.78 451.56)" patternUnits="userSpaceOnUse" viewBox="0 0 72 72">
      <g>
        <rect width="72" height="72" fill="none"/>
        <path d="M21,3c-.06,0-.12-.02-.17-.07-.05-.05-.08-.11-.08-.18s.03-.13.08-.18c.09-.09.25-.09.35,0,.05.05.07.11.07.18,0,.06-.02.12-.07.17-.05.06-.11.08-.18.08Z" fill="#231815"/>
        <path d="M20,8.25c-.06,0-.13-.03-.18-.07-.04-.05-.07-.11-.07-.18s.03-.13.07-.18c.1-.09.26-.09.36,0,.04.05.07.11.07.18s-.03.13-.07.18c-.05.05-.11.07-.18.07Z" fill="#231815"/>
        <path d="M20.25,10.5c-.06,0-.13-.03-.17-.07-.05-.05-.08-.11-.08-.18s.03-.13.07-.18c.1-.09.27-.09.36,0,.04.05.07.11.07.18s-.03.14-.08.18c-.04.04-.1.07-.17.07Z" fill="#231815"/>
        <path d="M18,12.75c-.06,0-.12-.03-.17-.07-.05-.05-.08-.11-.08-.18s.03-.13.07-.18c.11-.09.26-.09.36,0,.05.05.07.11.07.18s-.02.13-.07.18c-.05.04-.11.07-.18.07Z" fill="#231815"/>
        <path d="M15.25,10.5c-.06,0-.12-.02-.17-.07-.05-.05-.08-.12-.08-.18,0-.07.03-.13.07-.18.12-.1.26-.09.36,0,.05.05.07.11.07.18,0,.06-.02.13-.07.17-.05.06-.11.08-.18.08Z" fill="#231815"/>
        <path d="M22.75,20c-.06,0-.12-.02-.17-.07-.05-.05-.08-.11-.08-.18,0-.06.03-.13.07-.17.11-.11.27-.1.36,0,.05.06.07.12.07.18s-.02.13-.07.18c-.05.04-.11.07-.18.07Z" fill="#231815"/>
        <path d="M15.25,23c-.06,0-.12-.02-.17-.07-.05-.05-.08-.11-.08-.18,0-.06.03-.12.07-.17.12-.11.26-.1.36,0,.05.05.07.12.07.18,0,.07-.02.13-.07.18-.05.05-.11.07-.18.07Z" fill="#231815"/>
        <path d="M14,24c-.07,0-.13-.03-.18-.08-.04-.04-.07-.1-.07-.17s.03-.13.07-.18c.11-.1.26-.09.36,0,.05.05.07.12.07.18,0,.07-.02.13-.07.18-.05.04-.11.07-.18.07Z" fill="#231815"/>
        <path d="M24,27c-.06,0-.12-.02-.17-.07-.05-.05-.08-.11-.08-.18s.03-.13.07-.17c.11-.11.26-.1.36,0,.05.06.07.12.07.18,0,.07-.02.13-.07.18-.05.05-.11.07-.18.07Z" fill="#231815"/>
        <path d="M30.75,25.75c-.06,0-.12-.02-.17-.07-.05-.05-.08-.11-.08-.18s.03-.13.08-.18c.1-.09.25-.09.35,0,.05.05.07.12.07.18s-.02.13-.07.18c-.05.05-.11.07-.18.07Z" fill="#231815"/>
        <path d="M31.25,23.25c-.06,0-.12-.03-.17-.07-.05-.05-.08-.11-.08-.18,0-.06.03-.13.07-.17.11-.11.26-.1.36,0,.05.06.07.12.07.18,0,.07-.02.13-.07.18-.05.04-.11.07-.18.07Z" fill="#231815"/>
        <path d="M29.25,18.25c-.06,0-.12-.02-.17-.07-.05-.05-.08-.11-.08-.18s.03-.13.08-.18c.1-.09.25-.09.35,0,.05.05.07.11.07.18s-.03.13-.07.18c-.05.05-.12.07-.18.07Z" fill="#231815"/>
        <path d="M32.25,18.25c-.06,0-.12-.02-.17-.07-.05-.05-.08-.11-.08-.18s.03-.13.07-.18c.11-.09.26-.09.36,0,.04.05.07.11.07.18s-.03.13-.07.18c-.05.05-.11.07-.18.07Z" fill="#231815"/>
        <path d="M32.5,13.75c-.06,0-.13-.03-.17-.07-.05-.05-.08-.11-.08-.18s.03-.13.08-.18c.09-.09.26-.09.35,0,.05.05.07.12.07.18s-.02.12-.07.17c-.05.05-.11.08-.18.08Z" fill="#231815"/>
        <path d="M31.75,11.75c-.06,0-.12-.02-.17-.07-.05-.05-.08-.11-.08-.18s.03-.13.08-.18c.1-.09.25-.09.35,0,.05.05.07.11.07.18s-.03.13-.07.18c-.05.05-.11.07-.18.07Z" fill="#231815"/>
        <path d="M29.25,10.75c-.07,0-.13-.03-.18-.07-.04-.05-.07-.11-.07-.18s.03-.13.08-.18c.1-.09.25-.09.35,0,.05.05.07.11.07.18s-.02.13-.07.18c-.05.04-.11.07-.18.07Z" fill="#231815"/>
        <path d="M32.25,7c-.06,0-.12-.02-.17-.07-.05-.05-.08-.11-.08-.18s.03-.13.07-.18c.11-.09.26-.09.36,0,.05.05.07.11.07.18s-.03.13-.07.18c-.05.05-.11.07-.18.07Z" fill="#231815"/>
        <path d="M32,3c-.06,0-.12-.03-.17-.07-.05-.05-.08-.11-.08-.18s.03-.13.08-.18c.1-.09.25-.09.35,0,.05.05.07.12.07.18s-.02.13-.07.18c-.05.04-.11.07-.18.07Z" fill="#231815"/>
        <path d="M29.25,3.25c-.06,0-.12-.02-.17-.07-.05-.05-.08-.11-.08-.18s.03-.13.08-.18c.09-.09.25-.09.35,0,.05.05.07.11.07.18,0,.06-.02.13-.07.17-.05.06-.11.08-.18.08Z" fill="#231815"/>
        <path d="M34,1.25c-.06,0-.13-.03-.17-.07-.05-.05-.08-.11-.08-.18s.03-.14.08-.18c.09-.09.26-.09.35,0,.05.05.07.11.07.18,0,.06-.02.12-.07.17-.05.05-.11.08-.18.08Z" fill="#231815"/>
        <path d="M41.5,7c-.06,0-.13-.03-.17-.07-.05-.05-.08-.11-.08-.18s.03-.13.08-.18c.09-.09.24-.09.34,0,.06.06.08.12.08.18s-.02.12-.07.17c-.05.06-.11.08-.18.08Z" fill="#231815"/>
        <path d="M45.5,6.75c-.06,0-.12-.02-.17-.07-.05-.05-.08-.11-.08-.18s.03-.13.08-.18c.09-.09.25-.09.35,0,.05.05.07.12.07.18s-.02.13-.07.18c-.05.05-.12.07-.18.07Z" fill="#231815"/>
        <path d="M40.25,10.25c-.06,0-.12-.02-.17-.07-.05-.05-.08-.12-.08-.18,0-.07.03-.13.07-.18.11-.09.26-.09.36,0,.05.05.07.11.07.18,0,.06-.02.13-.07.17-.05.06-.11.08-.18.08Z" fill="#231815"/>
        <path d="M45,11.75c-.06,0-.12-.02-.17-.07-.05-.05-.08-.11-.08-.18s.03-.13.08-.18c.1-.09.25-.09.35,0,.04.05.07.11.07.18s-.02.13-.07.18c-.05.05-.11.07-.18.07Z" fill="#231815"/>
        <path d="M45,13.5c-.06,0-.12-.02-.17-.07-.05-.05-.08-.11-.08-.18s.03-.13.08-.18c.08-.09.26-.09.35,0,.05.04.07.1.07.17s-.02.13-.07.18c-.05.05-.11.07-.18.07Z" fill="#231815"/>
        <path d="M47,14.25c-.06,0-.12-.02-.17-.07-.05-.05-.08-.11-.08-.18s.03-.13.08-.18c.09-.09.25-.09.35,0,.05.05.07.12.07.18s-.02.13-.07.18c-.05.05-.11.07-.18.07Z" fill="#231815"/>
        <path d="M47,16.25c-.06,0-.13-.03-.17-.07-.05-.05-.08-.11-.08-.18s.03-.13.08-.18c.08-.08.26-.09.35,0,.05.04.07.11.07.17s-.02.13-.07.18c-.05.04-.11.07-.18.07Z" fill="#231815"/>
        <path d="M47.25,22.75c-.06,0-.13-.03-.17-.07-.05-.04-.08-.11-.08-.18s.03-.13.08-.18c.08-.08.25-.09.35,0,.05.05.07.11.07.18s-.03.13-.07.18c-.05.05-.11.07-.18.07Z" fill="#231815"/>
        <path d="M39,20.75c-.06,0-.12-.02-.17-.07-.05-.05-.08-.11-.08-.18s.03-.13.08-.18c.1-.09.25-.09.35,0,.04.05.07.11.07.18s-.03.13-.07.18c-.05.05-.11.07-.18.07Z" fill="#231815"/>
        <path d="M50.25,13.5c-.06,0-.13-.03-.17-.07-.05-.05-.08-.11-.08-.18s.03-.13.08-.18c.1-.09.26-.09.35,0,.05.05.07.12.07.18s-.02.13-.07.18c-.05.04-.11.07-.18.07Z" fill="#231815"/>
        <path d="M52.25,12c-.06,0-.12-.02-.17-.07-.05-.05-.08-.11-.08-.18s.03-.13.08-.18c.09-.09.25-.09.35,0,.05.05.07.12.07.18s-.02.13-.07.18c-.05.05-.11.07-.18.07Z" fill="#231815"/>
        <path d="M54.75,11c-.06,0-.13-.03-.17-.07-.05-.05-.08-.12-.08-.18,0-.07.03-.13.08-.18.09-.09.25-.09.35,0,.05.05.07.11.07.18,0,.06-.02.13-.07.18-.05.04-.11.07-.18.07Z" fill="#231815"/>
        <path d="M54.75,6.75c-.07,0-.13-.03-.17-.07-.05-.06-.08-.12-.08-.18s.03-.12.07-.17c.1-.1.26-.1.36,0,.05.06.07.12.07.18s-.02.12-.07.17c-.05.05-.11.08-.18.08Z" fill="#231815"/>
        <path d="M56.5.75c-.06,0-.13-.03-.17-.07-.05-.05-.08-.12-.08-.18s.03-.13.07-.18c.1-.09.26-.09.36,0,.05.06.07.12.07.18s-.02.12-.07.17c-.05.05-.11.08-.18.08Z" fill="#231815"/>
        <path d="M64,6.5c-.06,0-.13-.03-.17-.07-.05-.05-.08-.12-.08-.18s.03-.13.07-.17c.1-.1.26-.1.36,0,.05.06.07.12.07.18s-.02.12-.07.17c-.05.05-.11.08-.18.08Z" fill="#231815"/>
        <path d="M65,2.5c-.06,0-.13-.03-.17-.07-.05-.05-.08-.11-.08-.18s.03-.13.08-.18c.09-.09.25-.09.35,0,.05.05.07.11.07.18s-.02.13-.07.17c-.05.06-.11.08-.18.08Z" fill="#231815"/>
        <path d="M68,3c-.06,0-.13-.03-.17-.07-.05-.05-.08-.11-.08-.18s.03-.13.07-.18c.1-.09.27-.09.36,0,.05.05.07.12.07.18s-.02.13-.07.18c-.05.04-.11.07-.18.07Z" fill="#231815"/>
        <path d="M68,10.25c-.06,0-.13-.03-.17-.07-.05-.05-.08-.11-.08-.18s.03-.13.07-.18c.1-.09.26-.09.36,0,.05.05.07.12.07.18s-.02.13-.07.18c-.05.04-.11.07-.18.07Z" fill="#231815"/>
        <path d="M64.25,12.25c-.06,0-.13-.03-.17-.07-.05-.05-.08-.12-.08-.18s.03-.13.07-.17c.09-.1.25-.1.35,0,.06.05.08.12.08.18s-.02.13-.07.17c-.05.06-.11.08-.18.08Z" fill="#231815"/>
        <path d="M65.25,15.75c-.07,0-.13-.03-.17-.07-.05-.05-.08-.11-.08-.18s.03-.13.08-.18c.07-.08.26-.09.35,0,.05.04.07.11.07.17s-.02.12-.07.17c-.04.05-.11.08-.18.08Z" fill="#231815"/>
        <path d="M64,19.75c-.06,0-.13-.03-.17-.07-.05-.05-.08-.11-.08-.18s.03-.13.08-.18c.08-.09.25-.09.35,0,.05.05.07.12.07.18s-.02.13-.07.18c-.05.04-.11.07-.18.07Z" fill="#231815"/>
        <path d="M66.25,19.75c-.07,0-.13-.03-.18-.08-.04-.04-.07-.1-.07-.17,0-.06.03-.13.07-.17.09-.1.26-.1.36,0,.05.05.07.12.07.18,0,.07-.02.13-.07.18-.05.04-.11.07-.18.07Z" fill="#231815"/>
        <path d="M68,21.25c-.06,0-.13-.03-.17-.07-.05-.05-.08-.12-.08-.18s.03-.12.07-.17c.1-.1.27-.1.36,0,.05.06.07.12.07.18s-.02.12-.07.17c-.05.05-.11.08-.18.08Z" fill="#231815"/>
        <path d="M69.25,20.25c-.06,0-.12-.02-.17-.07-.05-.05-.08-.11-.08-.18s.03-.13.08-.18c.09-.09.25-.09.35,0,.05.05.07.11.07.18s-.02.13-.07.18c-.05.05-.11.07-.18.07Z" fill="#231815"/>
        <path d="M69.5,18c-.06,0-.12-.02-.17-.07-.05-.05-.08-.11-.08-.18s.03-.13.08-.18c.09-.09.25-.09.35,0,.05.05.07.11.07.18s-.02.13-.07.18c-.05.05-.11.07-.18.07Z" fill="#231815"/>
        <path d="M71.25,17.5c-.06,0-.13-.03-.17-.07-.05-.05-.08-.12-.08-.18s.03-.12.07-.17c.11-.1.26-.1.36,0,.05.06.07.12.07.18s-.02.12-.07.17c-.05.05-.11.08-.18.08Z" fill="#231815"/>
        <path d="M8,47c-.06,0-.13-.03-.18-.07-.04-.06-.07-.12-.07-.18,0-.07.03-.13.07-.18.09-.09.26-.09.36,0,.05.05.07.11.07.18,0,.06-.02.13-.07.17-.05.06-.11.08-.18.08Z" fill="#231815"/>
        <path d="M7,52.25c-.06,0-.12-.02-.17-.07-.05-.05-.08-.11-.08-.18s.03-.13.07-.18c.11-.09.26-.09.36,0,.05.05.07.12.07.18,0,.07-.02.13-.07.18-.05.05-.11.07-.18.07Z" fill="#231815"/>
        <path d="M7.25,54.5c-.06,0-.13-.03-.17-.07-.05-.05-.08-.11-.08-.18,0-.06.03-.13.07-.18.1-.09.26-.09.36,0,.04.05.07.11.07.18s-.03.13-.07.18c-.05.04-.11.07-.18.07Z" fill="#231815"/>
        <path d="M5,56.75c-.06,0-.13-.03-.17-.07-.05-.05-.08-.11-.08-.18s.03-.13.07-.17c.1-.1.26-.1.36,0,.05.05.07.11.07.18s-.03.13-.07.18c-.05.05-.12.07-.18.07Z" fill="#231815"/>
        <path d="M2.25,54.5c-.06,0-.12-.02-.17-.07-.05-.05-.08-.11-.08-.18,0-.06.03-.13.07-.17.11-.11.26-.1.35,0,.06.06.08.12.08.18s-.02.13-.07.18c-.06.05-.12.07-.18.07Z" fill="#231815"/>
        <path d="M9.75,64c-.06,0-.12-.02-.17-.07-.05-.05-.08-.11-.08-.18s.03-.13.07-.18c.11-.09.26-.09.36,0,.05.05.07.11.07.18s-.02.13-.07.18-.11.07-.18.07Z" fill="#231815"/>
        <path d="M2.25,67c-.06,0-.12-.03-.17-.07-.05-.05-.08-.11-.08-.18s.03-.13.07-.18c.1-.09.26-.09.36,0,.05.05.07.11.07.18,0,.06-.02.13-.07.18-.06.05-.12.07-.18.07Z" fill="#231815"/>
        <path d="M1,68c-.06,0-.13-.03-.18-.07-.04-.05-.07-.11-.07-.18,0-.06.03-.13.07-.18.1-.09.27-.09.36,0,.05.05.07.12.07.18s-.02.13-.07.18c-.05.04-.11.07-.18.07Z" fill="#231815"/>
        <path d="M11,71c-.06,0-.12-.02-.17-.07-.05-.05-.08-.11-.08-.18s.03-.13.07-.18c.11-.09.26-.09.36,0,.05.05.07.12.07.18s-.02.13-.07.18c-.05.05-.12.07-.18.07Z" fill="#231815"/>
        <path d="M17.75,69.75c-.06,0-.12-.02-.17-.07-.05-.05-.08-.11-.08-.18s.03-.13.07-.18c.11-.09.26-.09.36,0,.05.05.07.11.07.18s-.03.13-.07.18c-.05.05-.12.07-.18.07Z" fill="#231815"/>
        <path d="M18.25,67.25c-.06,0-.12-.03-.17-.07-.05-.06-.08-.12-.08-.18,0-.07.03-.13.07-.18.11-.09.26-.09.36,0,.05.05.07.11.07.18,0,.06-.02.13-.07.17-.05.05-.11.08-.18.08Z" fill="#231815"/>
        <path d="M16.25,62.25c-.07,0-.13-.03-.18-.08-.04-.04-.07-.1-.07-.17s.03-.13.07-.18c.1-.09.26-.09.36,0,.05.05.07.11.07.18s-.02.13-.07.18c-.05.04-.11.07-.18.07Z" fill="#231815"/>
        <path d="M19.25,62.25c-.06,0-.13-.03-.17-.07-.05-.05-.08-.11-.08-.18s.03-.13.07-.18c.1-.09.27-.09.36,0,.04.04.07.11.07.18s-.03.14-.08.18c-.04.04-.1.07-.17.07Z" fill="#231815"/>
        <path d="M19.5,57.75c-.06,0-.12-.02-.17-.07-.05-.05-.08-.11-.08-.18,0-.06.03-.13.07-.17.11-.11.26-.1.36,0,.05.06.07.12.07.18s-.02.13-.07.18c-.05.05-.11.07-.18.07Z" fill="#231815"/>
        <path d="M18.75,55.75c-.06,0-.12-.02-.17-.07-.05-.05-.08-.11-.08-.18s.03-.13.08-.18c.1-.09.26-.09.35,0,.05.05.07.12.07.18s-.02.12-.07.17c-.05.05-.11.08-.18.08Z" fill="#231815"/>
        <path d="M16.25,54.75c-.06,0-.13-.03-.18-.07-.04-.05-.07-.11-.07-.18,0-.06.03-.12.07-.17.1-.1.26-.1.36,0,.05.05.07.12.07.18,0,.07-.02.13-.07.18-.05.05-.11.07-.18.07Z" fill="#231815"/>
        <path d="M19.25,51c-.06,0-.13-.03-.17-.07-.05-.05-.08-.12-.08-.18,0-.07.03-.13.07-.18.1-.09.27-.09.36,0,.04.04.07.11.07.18s-.02.13-.07.18c-.05.04-.11.07-.18.07Z" fill="#231815"/>
        <path d="M19,47c-.06,0-.13-.03-.17-.07-.05-.05-.08-.12-.08-.18,0-.07.03-.13.07-.18.1-.09.26-.09.36,0,.04.05.07.11.07.18,0,.06-.02.13-.07.17-.05.06-.11.08-.18.08Z" fill="#231815"/>
        <path d="M16.25,47.25c-.07,0-.13-.03-.18-.07-.04-.05-.07-.12-.07-.18,0-.07.03-.13.07-.18.09-.09.26-.09.36,0,.05.05.07.11.07.18,0,.06-.02.13-.07.18-.05.05-.11.07-.18.07Z" fill="#231815"/>
        <path d="M21,45.25c-.06,0-.12-.02-.17-.07-.05-.05-.08-.11-.08-.18s.03-.13.08-.18c.1-.09.25-.09.35,0,.05.05.07.12.07.18s-.02.12-.07.17c-.05.06-.11.08-.18.08Z" fill="#231815"/>
        <path d="M28.5,51c-.06,0-.13-.03-.17-.07-.05-.05-.08-.11-.08-.18s.03-.13.08-.18c.09-.09.26-.09.35,0,.05.06.07.12.07.18s-.02.13-.07.18c-.05.04-.11.07-.18.07Z" fill="#231815"/>
        <path d="M32.5,50.75c-.06,0-.13-.03-.17-.07-.05-.05-.08-.11-.08-.18s.03-.13.08-.18c.09-.09.25-.09.35,0,.05.05.07.12.07.18s-.02.13-.07.18c-.05.04-.11.07-.18.07Z" fill="#231815"/>
        <path d="M27.25,54.25c-.07,0-.13-.03-.18-.08-.04-.04-.07-.1-.07-.17s.03-.14.08-.18c.09-.09.26-.09.35,0,.05.05.07.11.07.18,0,.06-.02.13-.07.18-.04.04-.11.07-.18.07Z" fill="#231815"/>
        <path d="M32,55.75c-.06,0-.12-.03-.17-.07-.05-.05-.08-.11-.08-.18,0-.06.03-.13.07-.17.11-.11.26-.1.36,0,.05.06.07.12.07.18,0,.07-.02.13-.07.18-.05.04-.11.07-.18.07Z" fill="#231815"/>
        <path d="M32,57.5c-.06,0-.12-.02-.17-.07-.05-.05-.08-.11-.08-.18,0-.06.03-.13.07-.17.11-.11.26-.1.36,0,.05.06.07.12.07.18s-.02.13-.07.18c-.05.05-.11.07-.18.07Z" fill="#231815"/>
        <path d="M34,58.25c-.07,0-.13-.03-.18-.08-.04-.04-.07-.1-.07-.17s.03-.14.08-.18c.09-.09.26-.09.35,0,.05.05.07.11.07.18,0,.06-.02.13-.07.18-.04.04-.11.07-.18.07Z" fill="#231815"/>
        <path d="M34,60.25c-.06,0-.12-.02-.17-.07-.05-.05-.08-.11-.08-.18s.03-.13.08-.18c.09-.09.26-.09.35,0,.05.06.07.12.07.18s-.02.13-.07.18c-.05.04-.11.07-.18.07Z" fill="#231815"/>
        <path d="M34.25,66.75c-.06,0-.13-.03-.17-.07-.05-.05-.08-.11-.08-.18s.03-.13.08-.18c.09-.09.25-.09.35,0,.05.05.07.12.07.18s-.02.13-.07.18c-.05.04-.11.07-.18.07Z" fill="#231815"/>
        <path d="M26,64.75c-.06,0-.12-.02-.17-.07-.05-.05-.08-.11-.08-.18s.03-.13.08-.18c.09-.09.26-.09.35,0,.05.04.07.11.07.17,0,.07-.02.13-.07.18-.05.05-.11.07-.18.07Z" fill="#231815"/>
        <path d="M37.25,57.5c-.06,0-.13-.03-.17-.07-.05-.05-.08-.11-.08-.18s.03-.13.08-.18c.09-.09.25-.09.34,0,.06.05.08.12.08.18s-.02.12-.07.17c-.05.06-.11.08-.18.08Z" fill="#231815"/>
        <path d="M39.25,56c-.06,0-.13-.03-.17-.07-.05-.05-.08-.11-.08-.18s.03-.13.08-.18c.09-.09.25-.09.35,0,.05.05.07.12.07.18s-.02.12-.07.17c-.05.06-.11.08-.18.08Z" fill="#231815"/>
        <path d="M41.75,55c-.06,0-.13-.03-.17-.07-.05-.05-.08-.11-.08-.18s.03-.14.08-.18c.09-.09.26-.09.35,0,.05.05.07.11.07.18,0,.06-.02.12-.07.17-.05.05-.11.08-.18.08Z" fill="#231815"/>
        <path d="M41.75,50.75c-.06,0-.12-.02-.17-.07-.05-.05-.08-.11-.08-.18s.03-.13.08-.18c.09-.09.26-.09.35,0,.05.05.07.11.07.18,0,.06-.02.13-.07.18-.05.04-.11.07-.18.07Z" fill="#231815"/>
        <path d="M43.5,44.75c-.06,0-.12-.03-.17-.07-.05-.05-.08-.11-.08-.18s.03-.13.08-.18c.09-.09.25-.09.35,0,.05.05.07.12.07.18s-.02.13-.07.18c-.05.05-.12.07-.18.07Z" fill="#231815"/>
        <path d="M51,50.5c-.06,0-.12-.03-.17-.07-.05-.05-.08-.11-.08-.18s.03-.13.08-.18c.09-.09.25-.09.35,0,.05.05.07.11.07.18s-.02.13-.07.18c-.05.05-.11.07-.18.07Z" fill="#231815"/>
        <path d="M52,46.5c-.06,0-.13-.03-.17-.07-.05-.05-.08-.11-.08-.18s.03-.13.08-.18c.09-.09.25-.09.35,0,.05.06.07.12.07.18s-.02.12-.07.17c-.05.06-.11.08-.18.08Z" fill="#231815"/>
        <path d="M55,47c-.06,0-.12-.02-.17-.07-.05-.05-.08-.11-.08-.18s.03-.13.08-.18c.09-.09.25-.09.35,0,.05.05.07.12.07.18s-.02.13-.07.18c-.05.05-.11.07-.18.07Z" fill="#231815"/>
        <path d="M55,54.25c-.06,0-.12-.03-.17-.07-.05-.05-.08-.11-.08-.18s.03-.13.08-.18c.09-.09.25-.09.35,0,.05.05.07.12.07.18s-.02.13-.07.18c-.05.05-.11.07-.18.07Z" fill="#231815"/>
        <path d="M51.25,56.25c-.06,0-.13-.03-.17-.07-.05-.05-.08-.11-.08-.18s.03-.13.08-.18c.09-.09.25-.09.35,0,.05.05.07.11.07.18s-.02.13-.07.18c-.05.04-.11.07-.18.07Z" fill="#231815"/>
        <path d="M52.25,59.75c-.06,0-.12-.02-.17-.07-.05-.05-.08-.11-.08-.18s.03-.13.08-.18c.09-.09.25-.09.35,0,.05.06.07.12.07.18s-.02.12-.07.17c-.05.06-.11.08-.18.08Z" fill="#231815"/>
        <path d="M51,63.75c-.06,0-.13-.03-.17-.07-.05-.05-.08-.11-.08-.18s.03-.13.08-.18c.09-.09.25-.09.35,0,.05.05.07.12.07.18s-.02.13-.07.17c-.05.06-.11.08-.18.08Z" fill="#231815"/>
        <path d="M53.25,63.75c-.06,0-.13-.03-.17-.07-.05-.05-.08-.12-.08-.18s.03-.13.07-.17c.1-.1.26-.1.36,0,.05.06.07.12.07.18s-.02.12-.07.17c-.05.05-.11.08-.18.08Z" fill="#231815"/>
        <path d="M55,65.25c-.06,0-.12-.03-.17-.07-.05-.05-.08-.11-.08-.18s.03-.13.08-.18c.09-.09.25-.09.35,0,.05.05.07.12.07.18s-.02.13-.07.18c-.05.05-.11.07-.18.07Z" fill="#231815"/>
        <path d="M56.25,64.25c-.06,0-.12-.03-.17-.07-.05-.05-.08-.11-.08-.18s.03-.13.08-.18c.09-.09.25-.09.35,0,.05.05.07.12.07.18,0,.07-.02.13-.07.18-.05.05-.11.07-.18.07Z" fill="#231815"/>
        <path d="M56.5,62c-.06,0-.13-.03-.17-.07-.05-.06-.08-.12-.08-.18,0-.07.03-.13.08-.18.07-.08.26-.09.35,0,.05.04.07.11.07.17s-.02.12-.07.17c-.05.05-.11.08-.18.08Z" fill="#231815"/>
        <path d="M58.25,61.5c-.06,0-.13-.03-.17-.07-.05-.05-.08-.12-.08-.18s.03-.13.07-.17c.1-.1.27-.1.36,0,.05.06.07.12.07.18s-.02.12-.07.17c-.04.05-.11.08-.18.08Z" fill="#231815"/>
        <path d="M21,27c-.06,0-.12-.02-.17-.07-.05-.05-.08-.11-.08-.18s.03-.13.08-.18c.1-.09.25-.09.35,0,.05.05.07.12.07.18s-.02.13-.07.18c-.05.05-.12.07-.18.07Z" fill="#231815"/>
        <path d="M22.75,24c-.07,0-.13-.03-.18-.07-.04-.05-.07-.11-.07-.18s.03-.13.08-.18c.1-.09.26-.09.35,0,.05.05.07.12.07.18s-.02.13-.07.18c-.04.04-.11.07-.18.07Z" fill="#231815"/>
        <path d="M25.25,24.5c-.06,0-.12-.03-.17-.07-.05-.05-.08-.11-.08-.18s.03-.13.08-.18c.1-.09.25-.09.35,0,.05.05.07.12.07.18s-.02.13-.07.18c-.05.04-.11.07-.18.07Z" fill="#231815"/>
        <path d="M35.25,23.25c-.06,0-.12-.02-.17-.07-.05-.05-.08-.11-.08-.18s.03-.13.08-.18c.1-.09.25-.09.35,0,.05.05.07.11.07.18s-.03.13-.07.18c-.05.05-.11.07-.18.07Z" fill="#231815"/>
        <path d="M39,24.75c-.06,0-.12-.02-.17-.07-.05-.05-.08-.11-.08-.18s.03-.13.08-.18c.1-.09.25-.09.35,0,.05.05.07.11.07.18s-.03.13-.07.18c-.05.05-.12.07-.18.07Z" fill="#231815"/>
        <path d="M45,29.5c-.06,0-.12-.02-.17-.07-.05-.05-.08-.11-.08-.18s.03-.13.08-.18c.1-.09.25-.09.35,0,.05.05.07.11.07.18s-.02.13-.07.18c-.05.05-.12.07-.18.07Z" fill="#231815"/>
        <path d="M46.25,29c-.06,0-.13-.03-.17-.07-.05-.05-.08-.11-.08-.18s.03-.13.08-.18c.09-.09.25-.09.34,0,.06.06.08.12.08.18s-.02.12-.07.17c-.05.06-.11.08-.18.08Z" fill="#231815"/>
        <path d="M55.25,28c-.06,0-.13-.03-.17-.07-.05-.05-.08-.11-.08-.18s.03-.13.08-.18c.09-.09.25-.09.35,0,.05.05.07.12.07.18s-.02.13-.07.18c-.05.04-.11.07-.18.07Z" fill="#231815"/>
        <path d="M51.25,25.25c-.06,0-.12-.02-.17-.07-.05-.05-.08-.11-.08-.18s.03-.13.08-.18c.09-.09.25-.09.35,0,.05.05.07.11.07.18s-.03.13-.07.18c-.05.05-.11.07-.18.07Z" fill="#231815"/>
        <path d="M52,29.5c-.06,0-.13-.03-.17-.07-.05-.05-.08-.11-.08-.18s.03-.13.08-.18c.09-.09.25-.09.35,0,.05.06.07.12.07.18s-.02.12-.07.17c-.05.06-.11.08-.18.08Z" fill="#231815"/>
        <path d="M62.5,35.5c-.06,0-.13-.03-.17-.07-.05-.05-.08-.11-.08-.18s.03-.13.08-.18c.08-.08.24-.09.34,0,.06.05.08.12.08.18s-.02.13-.07.18c-.05.05-.12.07-.18.07Z" fill="#231815"/>
        <path d="M58.25,38.25c-.07,0-.13-.03-.17-.07-.05-.05-.08-.12-.08-.18s.03-.13.07-.17c.1-.1.27-.1.36,0,.05.06.07.12.07.18s-.02.12-.07.17c-.04.05-.11.08-.18.08Z" fill="#231815"/>
        <path d="M49,39c-.07,0-.13-.03-.17-.07-.05-.05-.08-.12-.08-.18s.03-.13.07-.17c.1-.1.26-.1.36,0,.05.06.07.12.07.18s-.02.12-.07.17c-.05.05-.11.08-.18.08Z" fill="#231815"/>
        <path d="M48,41.25c-.06,0-.12-.02-.17-.07-.05-.05-.08-.11-.08-.18s.03-.13.08-.18c.09-.09.24-.09.34,0,.06.05.08.12.08.18s-.02.12-.07.17c-.06.06-.11.08-.18.08Z" fill="#231815"/>
        <path d="M52,43c-.07,0-.13-.03-.18-.08-.04-.04-.07-.1-.07-.17s.03-.13.08-.18c.09-.09.25-.09.35,0,.05.05.07.12.07.18s-.02.13-.07.18c-.05.04-.11.07-.18.07Z" fill="#231815"/>
        <path d="M53.5,45c-.06,0-.13-.03-.17-.07-.05-.05-.08-.11-.08-.18s.03-.13.08-.18c.08-.09.25-.09.35,0,.05.05.07.12.07.18s-.02.13-.07.18c-.05.04-.11.07-.18.07Z" fill="#231815"/>
        <path d="M62.25,48c-.06,0-.13-.03-.17-.07-.05-.05-.08-.12-.08-.18s.03-.13.07-.17c.1-.1.26-.1.36,0,.05.06.07.12.07.18s-.02.12-.07.17c-.05.05-.11.08-.18.08Z" fill="#231815"/>
        <path d="M65,51.75c-.06,0-.12-.03-.17-.07-.05-.05-.08-.11-.08-.18s.03-.14.08-.18c.09-.08.25-.09.35,0,.04.05.07.11.07.18s-.02.13-.07.18c-.05.05-.11.07-.18.07Z" fill="#231815"/>
        <path d="M67,51.75c-.06,0-.13-.03-.17-.07-.05-.05-.08-.11-.08-.18s.03-.13.08-.18c.08-.08.25-.09.35,0,.05.05.07.11.07.18s-.02.13-.07.18c-.05.05-.11.07-.18.07Z" fill="#231815"/>
        <path d="M69.5,45c-.06,0-.12-.03-.17-.07-.05-.05-.08-.11-.08-.18s.03-.13.08-.18c.09-.09.25-.09.35,0,.05.05.07.11.07.18s-.02.13-.07.18c-.05.05-.11.07-.18.07Z" fill="#231815"/>
        <path d="M60,39c-.06,0-.12-.02-.17-.07-.05-.05-.08-.11-.08-.18s.03-.13.08-.18c.09-.09.25-.09.35,0,.04.05.07.11.07.18s-.03.13-.07.18c-.05.05-.11.07-.18.07Z" fill="#231815"/>
        <path d="M47.25,47.75c-.06,0-.13-.03-.17-.07-.05-.05-.08-.11-.08-.18s.03-.14.08-.18c.08-.08.25-.09.35,0,.04.05.07.11.07.18s-.02.13-.07.18c-.05.05-.11.07-.18.07Z" fill="#231815"/>
        <path d="M32.5,47c-.06,0-.12-.03-.17-.07-.05-.05-.08-.11-.08-.18s.03-.13.08-.18c.09-.09.26-.09.35,0,.05.05.07.12.07.18s-.02.13-.07.18c-.05.04-.11.07-.18.07Z" fill="#231815"/>
        <path d="M37,44.5c-.06,0-.12-.03-.17-.07-.05-.05-.08-.12-.08-.18,0-.07.03-.13.07-.17.11-.11.26-.1.36,0,.05.05.07.12.07.18s-.02.13-.07.17c-.05.05-.11.08-.18.08Z" fill="#231815"/>
        <path d="M26.25,37.75c-.06,0-.12-.03-.17-.07-.05-.05-.08-.11-.08-.18s.03-.13.08-.18c.1-.09.25-.09.35,0,.05.05.07.12.07.18s-.02.13-.07.18c-.05.04-.11.07-.18.07Z" fill="#231815"/>
        <path d="M29.75,35.5c-.06,0-.12-.02-.17-.07-.05-.05-.08-.11-.08-.18s.03-.13.08-.18c.1-.09.25-.09.35,0,.05.05.07.12.07.18s-.02.12-.07.17c-.05.06-.11.08-.18.08Z" fill="#231815"/>
        <path d="M17,28.5c-.06,0-.12-.02-.17-.07-.05-.05-.08-.11-.08-.18,0-.06.03-.12.07-.17.11-.11.26-.1.36,0,.05.05.07.12.07.18,0,.07-.02.13-.07.18-.05.05-.11.07-.18.07Z" fill="#231815"/>
        <path d="M10.5,29.5c-.06,0-.12-.02-.17-.07-.05-.05-.08-.11-.08-.18,0-.06.03-.12.07-.17.11-.11.26-.1.36,0,.05.06.07.12.07.18s-.02.13-.07.18c-.05.05-.11.07-.18.07Z" fill="#231815"/>
        <path d="M6,31.5c-.06,0-.12-.02-.17-.07-.05-.05-.08-.11-.08-.18,0-.06.03-.12.07-.17.12-.11.26-.1.36,0,.05.06.07.12.07.18,0,.07-.02.13-.07.18-.05.05-.11.07-.18.07Z" fill="#231815"/>
        <path d="M2.5,35.25c-.07,0-.13-.03-.17-.07-.05-.05-.08-.12-.08-.18,0-.07.03-.13.08-.18.08-.09.24-.09.34,0,.06.05.08.11.08.18,0,.06-.02.13-.07.17-.05.06-.11.08-.18.08Z" fill="#231815"/>
        <path d="M11.25,36.75c-.07,0-.13-.03-.18-.07-.04-.05-.07-.12-.07-.18,0-.07.03-.13.07-.18.1-.09.25-.09.36,0,.05.05.07.11.07.18s-.02.13-.07.18c-.05.05-.11.07-.18.07Z" fill="#231815"/>
        <path d="M17,42c-.06,0-.12-.02-.17-.07-.05-.05-.08-.11-.08-.18,0-.06.03-.13.07-.18.11-.09.26-.09.36,0,.05.05.07.11.07.18s-.03.13-.07.18c-.05.05-.11.07-.18.07Z" fill="#231815"/>
        <path d="M12.75,36c-.06,0-.13-.03-.17-.07-.05-.05-.08-.11-.08-.18,0-.06.03-.13.07-.17.1-.1.26-.1.36,0,.05.05.07.11.07.18s-.02.13-.07.18c-.05.05-.12.07-.18.07Z" fill="#231815"/>
        <path d="M26.5,30.25c-.06,0-.12-.02-.17-.07-.05-.05-.08-.11-.08-.18s.03-.13.08-.18c.1-.09.25-.09.35,0,.05.05.07.12.07.18s-.02.13-.07.18c-.05.05-.11.07-.18.07Z" fill="#231815"/>
        <path d="M37.75,31c-.06,0-.12-.02-.17-.07-.05-.05-.08-.11-.08-.18s.03-.13.08-.18c.1-.09.25-.09.35,0,.05.05.07.11.07.18s-.02.13-.07.18c-.05.05-.12.07-.18.07Z" fill="#231815"/>
        <path d="M39.5,32.5c-.06,0-.12-.02-.17-.07-.05-.05-.08-.11-.08-.18s.03-.13.08-.18c.08-.09.26-.09.35,0,.05.04.07.11.07.17s-.02.13-.07.18c-.05.04-.11.07-.18.07Z" fill="#231815"/>
        <path d="M28,42c-.06,0-.12-.03-.17-.07-.05-.05-.08-.12-.08-.18s.03-.12.07-.17c.11-.1.26-.1.35,0,.06.06.08.12.08.18s-.02.13-.07.17c-.05.06-.11.08-.18.08Z" fill="#231815"/>
        <path d="M6.5,20.5c-.06,0-.13-.03-.17-.07-.05-.05-.08-.12-.08-.18,0-.07.03-.13.07-.18.1-.09.26-.09.36,0,.05.05.07.11.07.18,0,.06-.02.13-.07.17-.05.06-.11.08-.18.08Z" fill="#231815"/>
        <path d="M10.25,20.25c-.06,0-.13-.03-.17-.07-.05-.05-.08-.11-.08-.18s.03-.13.07-.18c.1-.09.26-.09.36,0,.05.05.07.11.07.18s-.02.13-.07.18c-.05.05-.11.07-.18.07Z" fill="#231815"/>
        <path d="M11.75,23.5c-.06,0-.12-.02-.17-.07-.05-.05-.08-.11-.08-.18,0-.06.03-.12.07-.17.11-.11.26-.1.36,0,.05.06.07.12.07.18s-.02.13-.07.18c-.05.05-.12.07-.18.07Z" fill="#231815"/>
        <path d="M3,25.75c-.06,0-.13-.03-.17-.07-.05-.05-.08-.11-.08-.18s.03-.13.07-.18c.1-.09.26-.09.36,0,.05.05.07.11.07.18s-.02.13-.07.18c-.05.05-.12.07-.18.07Z" fill="#231815"/>
        <path d="M64.25,29.5c-.06,0-.13-.03-.17-.07-.05-.05-.08-.12-.08-.18s.03-.13.07-.17c.1-.1.25-.1.35,0,.06.05.08.12.08.18s-.02.13-.07.17c-.05.06-.11.08-.18.08Z" fill="#231815"/>
        <path d="M67.5,30.75c-.06,0-.13-.03-.17-.07-.05-.05-.08-.11-.08-.18,0-.06.03-.13.07-.17.1-.1.26-.1.36,0,.05.06.07.12.07.18s-.02.13-.07.18c-.05.04-.11.07-.18.07Z" fill="#231815"/>
        <path d="M69.5,29.75c-.06,0-.13-.03-.17-.07-.05-.05-.08-.11-.08-.18s.03-.13.08-.18c.09-.09.25-.09.35,0,.05.05.07.11.07.18s-.02.13-.07.18c-.05.04-.11.07-.18.07Z" fill="#231815"/>
        <path d="M7.25,15.75c-.07,0-.13-.03-.18-.08-.04-.04-.07-.1-.07-.17s.03-.13.07-.18c.1-.09.26-.09.36,0,.04.05.07.11.07.18s-.03.13-.07.18c-.05.04-.11.07-.18.07Z" fill="#231815"/>
        <path d="M1.5,9c-.06,0-.13-.03-.18-.07-.04-.05-.07-.11-.07-.18s.03-.13.07-.18c.09-.09.26-.09.36,0,.05.05.07.12.07.18s-.02.13-.07.18c-.05.04-.11.07-.18.07Z" fill="#231815"/>
        <path d="M14.5,6.5c-.06,0-.12-.02-.17-.07-.05-.05-.08-.11-.08-.18,0-.06.03-.13.07-.17.11-.11.26-.1.36,0,.05.05.07.11.07.18s-.02.13-.07.18c-.05.05-.11.07-.18.07Z" fill="#231815"/>
        <path d="M8.5,5.25c-.06,0-.12-.02-.17-.07-.05-.05-.08-.11-.08-.18s.03-.13.07-.18c.1-.09.27-.09.36,0,.05.04.07.1.07.17,0,.06-.02.13-.07.18-.05.05-.11.07-.18.07Z" fill="#231815"/>
        <path d="M3.5,2.5c-.07,0-.13-.03-.18-.08-.04-.04-.07-.1-.07-.17s.03-.13.08-.18c.08-.09.25-.09.35,0,.04.05.07.11.07.18s-.03.13-.07.18c-.05.04-.11.07-.18.07Z" fill="#231815"/>
        <path d="M3.75,6c-.06,0-.13-.03-.17-.07-.05-.05-.08-.11-.08-.18,0-.06.03-.13.07-.18.09-.09.26-.09.36,0,.05.05.07.11.07.18s-.02.13-.07.18c-.05.05-.12.07-.18.07Z" fill="#231815"/>
        <path d="M12.75,14.25c-.06,0-.13-.03-.17-.07-.05-.05-.08-.12-.08-.18,0-.07.03-.13.07-.18.1-.09.26-.09.36,0,.05.05.07.11.07.18,0,.06-.02.13-.07.17-.05.06-.11.08-.18.08Z" fill="#231815"/>
        <path d="M18.5,19.25c-.06,0-.12-.02-.17-.07-.05-.05-.08-.11-.08-.18,0-.06.03-.13.07-.17.11-.11.27-.1.36,0,.05.06.07.12.07.18,0,.07-.02.13-.07.18-.05.04-.11.07-.18.07Z" fill="#231815"/>
        <path d="M21.25,37c-.06,0-.12-.02-.17-.07-.05-.05-.08-.12-.08-.18,0-.07.03-.13.07-.18.11-.09.26-.09.36,0,.05.05.07.11.07.18,0,.06-.02.13-.07.17-.05.06-.11.08-.18.08Z" fill="#231815"/>
        <path d="M.75,44.25c-.06,0-.13-.03-.17-.07-.05-.05-.08-.11-.08-.18s.03-.13.08-.18c.07-.08.25-.09.35,0,.04.04.07.1.07.17s-.03.13-.07.18c-.05.04-.11.07-.18.07Z" fill="#231815"/>
        <path d="M66.5,37.25c-.06,0-.13-.03-.17-.07-.05-.05-.08-.11-.08-.18s.03-.13.08-.18c.09-.09.25-.09.35,0,.05.05.07.12.07.18s-.02.13-.07.18c-.05.04-.11.07-.18.07Z" fill="#231815"/>
        <path d="M68,66c-.06,0-.13-.03-.17-.07-.05-.05-.08-.12-.08-.18,0-.07.03-.13.07-.18.1-.09.26-.09.36,0,.05.05.07.12.07.18s-.02.12-.07.17c-.05.05-.11.08-.18.08Z" fill="#231815"/>
        <path d="M59.75,69.75c-.07,0-.13-.03-.18-.08-.04-.04-.07-.1-.07-.17s.03-.13.08-.18c.09-.09.25-.09.35,0,.05.05.07.12.07.18,0,.07-.02.13-.07.18-.05.04-.11.07-.18.07Z" fill="#231815"/>
        <path d="M40.5,68c-.06,0-.12-.02-.17-.07-.05-.05-.08-.11-.08-.18s.03-.13.08-.18c.09-.09.25-.09.35,0,.05.05.07.12.07.18s-.02.13-.07.18c-.05.05-.12.07-.18.07Z" fill="#231815"/>
        <path d="M44,63c-.06,0-.12-.02-.17-.07-.05-.04-.08-.11-.08-.18s.03-.13.08-.18c.09-.09.25-.09.35,0,.05.05.07.12.07.18,0,.07-.02.13-.07.18-.05.05-.11.07-.18.07Z" fill="#231815"/>
        <path d="M25.75,70c-.06,0-.12-.02-.17-.07-.05-.05-.08-.11-.08-.18s.03-.13.08-.18c.09-.09.25-.09.35,0,.05.05.07.11.07.18,0,.06-.02.12-.07.17-.05.06-.11.08-.18.08Z" fill="#231815"/>
        <path d="M4.5,60c-.06,0-.12-.02-.17-.07-.05-.05-.08-.11-.08-.18,0-.06.03-.13.07-.17.11-.11.26-.1.36,0,.05.06.07.12.07.18s-.02.13-.07.18c-.05.05-.12.07-.18.07Z" fill="#231815"/>
        <path d="M26.5,59.5c-.06,0-.12-.02-.17-.07-.05-.05-.08-.11-.08-.18s.03-.13.08-.18c.1-.09.25-.09.35,0,.05.05.07.11.07.18,0,.06-.02.13-.07.18-.05.05-.11.07-.18.07Z" fill="#231815"/>
        <path d="M37.25,48.5c-.06,0-.12-.03-.17-.07-.05-.05-.08-.11-.08-.18s.03-.13.08-.18c.09-.09.24-.09.34,0,.06.05.08.12.08.18s-.02.13-.07.18c-.06.05-.12.07-.18.07Z" fill="#231815"/>
        <path d="M22,41.75c-.06,0-.12-.02-.17-.07-.05-.05-.08-.11-.08-.18s.03-.13.08-.18c.1-.09.25-.09.35,0,.05.05.07.12.07.18s-.02.13-.07.18c-.05.05-.12.07-.18.07Z" fill="#231815"/>
        <path d="M8.75,40.25c-.06,0-.13-.03-.17-.07-.05-.05-.08-.12-.08-.18,0-.07.03-.13.08-.18.09-.09.25-.09.35,0,.04.05.07.11.07.18s-.02.13-.07.18c-.05.05-.11.07-.18.07Z" fill="#231815"/>
        <path d="M24,29c-.06,0-.12-.02-.17-.07-.05-.05-.08-.11-.08-.18s.03-.13.08-.18c.1-.09.25-.09.35,0,.05.05.07.12.07.18s-.02.12-.07.17c-.05.06-.11.08-.18.08Z" fill="#231815"/>
        <path d="M41.5,34.5c-.06,0-.13-.03-.17-.07-.05-.05-.08-.11-.08-.18s.03-.13.08-.18c.09-.09.25-.09.34,0,.06.06.08.12.08.18s-.02.12-.07.17c-.05.06-.11.08-.18.08Z" fill="#231815"/>
        <path d="M51.5,37.5c-.06,0-.13-.03-.17-.07-.05-.05-.08-.11-.08-.18s.03-.13.08-.18c.09-.09.25-.09.35,0,.05.05.07.12.07.18s-.02.13-.07.17c-.05.06-.11.08-.18.08Z" fill="#231815"/>
        <path d="M60.75,46c-.06,0-.12-.03-.17-.07-.05-.05-.08-.11-.08-.18s.03-.14.08-.18c.09-.09.25-.09.35,0,.05.05.07.11.07.18s-.02.13-.07.18c-.05.04-.11.07-.18.07Z" fill="#231815"/>
        <path d="M67.5,43.75c-.06,0-.13-.03-.17-.07-.05-.05-.08-.11-.08-.18s.03-.13.08-.18c.08-.08.25-.09.35,0,.05.05.07.12.07.18s-.02.13-.07.18c-.05.04-.11.07-.18.07Z" fill="#231815"/>
        <path d="M51.25,66.25c-.06,0-.12-.02-.17-.07-.05-.05-.08-.11-.08-.18s.03-.13.08-.18c.09-.09.25-.09.35,0,.05.05.07.11.07.18s-.03.13-.07.18c-.05.05-.11.07-.18.07Z" fill="#231815"/>
        <path d="M40,37.75c-.06,0-.13-.03-.17-.07-.05-.05-.08-.11-.08-.18s.03-.13.08-.18c.09-.09.26-.09.35,0,.05.05.07.12.07.18s-.02.12-.07.17c-.05.05-.11.08-.18.08Z" fill="#231815"/>
        <path d="M53.25,15c-.06,0-.13-.03-.17-.07-.05-.05-.08-.11-.08-.18s.03-.13.08-.18c.07-.08.26-.09.35,0,.05.04.07.11.07.17s-.02.13-.07.18c-.05.04-.11.07-.18.07Z" fill="#231815"/>
        <path d="M34,16c-.07,0-.13-.03-.18-.08-.04-.04-.07-.1-.07-.17s.03-.14.08-.18c.09-.09.26-.09.35,0,.05.05.07.11.07.18,0,.06-.02.13-.07.18-.05.04-.11.07-.18.07Z" fill="#231815"/>
        <path d="M27.5,13.5c-.06,0-.12-.02-.17-.07-.05-.05-.08-.11-.08-.18s.03-.13.07-.17c.11-.11.26-.1.36,0,.05.05.07.12.07.18,0,.07-.02.13-.07.18-.05.05-.11.07-.18.07Z" fill="#231815"/>
        <path d="M12.75,19.25c-.06,0-.13-.03-.17-.07-.05-.05-.08-.11-.08-.18,0-.06.03-.12.07-.17.1-.1.26-.1.36,0,.05.05.07.12.07.18,0,.07-.02.13-.07.18-.05.05-.11.07-.18.07Z" fill="#231815"/>
        <path d="M19.75,26.5c-.06,0-.12-.02-.17-.07-.05-.05-.08-.11-.08-.18,0-.06.03-.12.07-.17.11-.11.26-.1.36,0,.05.05.07.12.07.18,0,.07-.02.13-.07.18-.05.05-.12.07-.18.07Z" fill="#231815"/>
        <path d="M49.5,4.5c-.06,0-.13-.03-.17-.07-.05-.04-.08-.11-.08-.18s.03-.14.08-.18c.08-.08.25-.09.35,0,.05.05.07.12.07.18s-.02.13-.07.18c-.05.04-.11.07-.18.07Z" fill="#231815"/>
        <path d="M11.75,1.75c-.06,0-.12-.02-.17-.07-.05-.05-.08-.11-.08-.18,0-.06.03-.13.07-.18.1-.09.27-.09.36,0,.05.05.07.12.07.18s-.02.13-.07.18c-.05.05-.11.07-.18.07Z" fill="#231815"/>
        <path d="M55.25,3.75c-.06,0-.13-.03-.17-.07-.05-.05-.08-.11-.08-.18s.03-.13.08-.18c.08-.09.25-.09.35,0,.05.05.07.12.07.18s-.02.13-.07.18c-.05.04-.11.07-.18.07Z" fill="#231815"/>
        <path d="M59,20.75c-.06,0-.13-.03-.17-.07-.05-.05-.08-.11-.08-.18s.03-.13.08-.18c.08-.09.25-.09.35,0,.05.06.07.12.07.18s-.02.12-.07.17c-.05.06-.11.08-.18.08Z" fill="#231815"/>
        <path d="M67.5,57.25c-.06,0-.13-.03-.17-.07-.05-.05-.08-.12-.08-.18,0-.07.03-.13.08-.18.09-.09.25-.09.35,0,.05.05.07.12.07.18s-.02.12-.07.17c-.05.05-.11.08-.18.08Z" fill="#231815"/>
        <path d="M47.25,69.75c-.06,0-.13-.03-.17-.07-.05-.04-.08-.11-.08-.18s.03-.14.08-.18c.08-.08.25-.09.35,0,.04.05.07.11.07.18s-.03.13-.07.18c-.05.05-.11.07-.18.07Z" fill="#231815"/>
        <path d="M5.25,69.75c-.06,0-.13-.03-.17-.07-.05-.05-.08-.11-.08-.18,0-.06.03-.12.07-.17.1-.1.26-.1.36,0,.05.05.07.12.07.18,0,.07-.02.13-.07.18s-.12.07-.18.07Z" fill="#231815"/>
        <path d="M4.75,40.25c-.06,0-.13-.03-.18-.07-.04-.05-.07-.11-.07-.18s.03-.13.07-.18c.09-.09.26-.09.36,0,.05.05.07.12.07.18s-.02.13-.07.18c-.05.04-.11.07-.18.07Z" fill="#231815"/>
        <path d="M69.75,12.75c-.07,0-.13-.03-.17-.07-.05-.05-.08-.11-.08-.18s.03-.13.08-.18c.09-.09.25-.09.35,0,.05.05.07.12.07.18s-.02.13-.07.18c-.05.04-.11.07-.18.07Z" fill="#231815"/>
        <path d="M23.25,14c-.06,0-.12-.02-.17-.07-.05-.05-.08-.11-.08-.18s.03-.13.07-.17c.11-.11.26-.1.36,0,.05.06.07.12.07.18s-.02.13-.07.18c-.05.05-.11.07-.18.07Z" fill="#231815"/>
        <path d="M20.5,17.25c-.06,0-.13-.03-.17-.07-.05-.04-.08-.11-.08-.18s.03-.14.08-.18c.07-.08.26-.09.35,0,.05.04.07.11.07.17s-.02.13-.07.18c-.05.04-.11.07-.18.07Z" fill="#231815"/>
        <path d="M14.75,17.25c-.06,0-.12-.02-.17-.07-.05-.05-.08-.11-.08-.18,0-.06.03-.13.07-.18.11-.09.26-.09.36,0,.05.05.07.12.07.18s-.02.13-.07.18c-.05.05-.11.07-.18.07Z" fill="#231815"/>
        <path d="M2.75,13.25c-.07,0-.13-.03-.17-.07-.05-.05-.08-.12-.08-.18,0-.07.03-.13.08-.18.09-.09.25-.09.35,0,.04.05.07.11.07.18s-.02.13-.07.18c-.05.04-.11.07-.18.07Z" fill="#231815"/>
        <path d="M6,11.75c-.06,0-.12-.02-.17-.07-.05-.05-.08-.12-.08-.18,0-.07.03-.13.07-.18.12-.1.26-.09.36,0,.05.05.07.11.07.18,0,.06-.02.12-.07.17-.05.06-.11.08-.18.08Z" fill="#231815"/>
        <path d="M7,2.75c-.06,0-.12-.02-.17-.07-.05-.05-.08-.12-.08-.18,0-.07.03-.13.07-.18.11-.09.26-.09.36,0,.05.05.07.12.07.18s-.02.12-.07.17c-.05.06-.11.08-.18.08Z" fill="#231815"/>
        <path d="M10,8.25c-.07,0-.13-.03-.18-.07-.04-.05-.07-.12-.07-.18,0-.07.03-.13.07-.18.09-.09.26-.09.36,0,.05.05.07.11.07.18,0,.06-.02.13-.07.17-.05.06-.11.08-.18.08Z" fill="#231815"/>
        <path d="M16,8.25c-.06,0-.13-.03-.18-.07-.04-.05-.07-.11-.07-.18s.03-.13.08-.18c.1-.09.25-.09.35,0,.05.05.07.12.07.18s-.02.13-.07.18c-.05.04-.11.07-.18.07Z" fill="#231815"/>
        <path d="M16.5,3.25c-.06,0-.12-.02-.17-.07-.05-.05-.08-.11-.08-.18s.03-.13.07-.18c.11-.1.26-.09.36,0,.05.05.07.11.07.18s-.02.13-.07.18c-.05.05-.12.07-.18.07Z" fill="#231815"/>
        <path d="M25.75,7c-.06,0-.12-.02-.17-.07-.05-.05-.08-.11-.08-.18s.03-.13.08-.18c.1-.09.25-.09.35,0,.05.05.07.12.07.18s-.02.13-.07.18c-.05.05-.11.07-.18.07Z" fill="#231815"/>
        <path d="M37,7.5c-.06,0-.12-.02-.17-.07-.05-.05-.08-.11-.08-.18s.03-.13.08-.18c.09-.09.26-.09.35,0,.05.05.07.11.07.18s-.02.13-.07.18c-.05.05-.12.07-.18.07Z" fill="#231815"/>
        <path d="M40.5,4.5c-.06,0-.13-.03-.17-.07-.05-.04-.08-.11-.08-.18s.03-.13.08-.18c.09-.09.25-.09.35,0,.05.06.07.12.07.18,0,.07-.02.13-.07.18-.05.04-.11.07-.18.07Z" fill="#231815"/>
        <path d="M37.5,4.25c-.06,0-.13-.03-.17-.07-.05-.04-.08-.11-.08-.18s.03-.13.08-.18c.08-.09.25-.09.35,0,.05.06.07.12.07.18s-.02.13-.07.18c-.05.05-.11.07-.18.07Z" fill="#231815"/>
        <path d="M43.25,2.25c-.07,0-.13-.03-.18-.08-.04-.04-.07-.1-.07-.17s.03-.13.08-.18c.09-.09.25-.09.35,0,.05.05.07.12.07.18s-.02.13-.07.18c-.05.04-.11.07-.18.07Z" fill="#231815"/>
        <path d="M49.5,8.25c-.06,0-.13-.03-.17-.07-.05-.04-.08-.11-.08-.18s.03-.14.08-.18c.08-.09.25-.09.35,0,.05.05.07.12.07.18s-.02.13-.07.18c-.05.04-.11.07-.18.07Z" fill="#231815"/>
        <path d="M46,9.25c-.06,0-.13-.03-.17-.07-.05-.05-.08-.11-.08-.18s.03-.13.08-.18c.08-.08.25-.09.35,0,.05.05.07.12.07.18s-.02.13-.07.18c-.05.04-.11.07-.18.07Z" fill="#231815"/>
        <path d="M35.75,11c-.06,0-.13-.03-.17-.07-.05-.05-.08-.11-.08-.18s.03-.13.08-.18c.09-.09.25-.09.35,0,.05.05.07.12.07.18s-.02.13-.07.18c-.05.04-.11.07-.18.07Z" fill="#231815"/>
        <path d="M39.25,15c-.06,0-.12-.02-.17-.07-.05-.05-.08-.11-.08-.18s.03-.13.08-.18c.09-.09.25-.09.35,0,.05.06.07.12.07.18s-.02.13-.07.18c-.05.05-.11.07-.18.07Z" fill="#231815"/>
        <path d="M24.75,18c-.06,0-.12-.02-.17-.07-.05-.05-.08-.11-.08-.18s.03-.13.07-.18c.1-.09.27-.09.36,0,.05.05.07.11.07.18s-.02.13-.07.18c-.05.05-.11.07-.18.07Z" fill="#231815"/>
        <path d="M8.25,27.25c-.06,0-.12-.02-.17-.07-.05-.05-.08-.11-.08-.18s.03-.13.07-.18c.12-.1.26-.09.36,0,.05.05.07.12.07.18,0,.07-.02.13-.07.18-.05.04-.11.07-.18.07Z" fill="#231815"/>
        <path d="M16,31.75c-.06,0-.13-.03-.18-.07-.04-.05-.07-.11-.07-.18s.03-.13.08-.18c.1-.09.25-.09.35,0,.05.05.07.12.07.18s-.02.13-.07.18c-.05.04-.11.07-.18.07Z" fill="#231815"/>
        <path d="M10.5,33.5c-.06,0-.12-.02-.17-.07-.05-.05-.08-.12-.08-.18,0-.07.03-.13.07-.18.11-.1.26-.09.36,0,.05.05.07.12.07.18s-.02.12-.07.17c-.05.06-.11.08-.18.08Z" fill="#231815"/>
        <path d="M5.25,37c-.06,0-.13-.03-.17-.07-.05-.05-.08-.11-.08-.18,0-.06.03-.12.07-.17.1-.1.26-.1.36,0,.05.05.07.12.07.18,0,.07-.02.13-.07.18-.05.05-.12.07-.18.07Z" fill="#231815"/>
        <path d="M2.75,32c-.06,0-.13-.03-.17-.07-.05-.05-.08-.12-.08-.18,0-.07.03-.13.08-.18.09-.09.25-.09.35,0,.04.05.07.11.07.18s-.02.13-.07.18c-.05.04-.11.07-.18.07Z" fill="#231815"/>
        <path d="M7.5,25c-.07,0-.13-.03-.18-.07-.04-.05-.07-.11-.07-.18s.03-.13.07-.18c.11-.09.25-.09.35,0,.06.05.08.12.08.18s-.02.13-.07.18c-.05.04-.11.07-.18.07Z" fill="#231815"/>
        <path d="M3.25,20.5c-.06,0-.13-.03-.17-.07-.05-.05-.08-.11-.08-.18,0-.06.03-.13.07-.17.1-.1.26-.1.36,0,.05.05.07.12.07.18,0,.07-.02.13-.07.18-.05.05-.12.07-.18.07Z" fill="#231815"/>
        <path d="M20.5,30.75c-.06,0-.13-.03-.17-.07-.05-.05-.08-.11-.08-.18s.03-.13.08-.18c.09-.09.25-.09.35,0,.05.06.07.12.07.18s-.02.12-.07.17c-.05.05-.11.08-.18.08Z" fill="#231815"/>
        <path d="M17.5,35.5c-.06,0-.12-.03-.17-.07-.05-.06-.08-.12-.08-.18,0-.07.03-.13.07-.18.11-.09.26-.09.36,0,.05.05.07.11.07.18,0,.06-.02.13-.07.17-.05.05-.11.08-.18.08Z" fill="#231815"/>
        <path d="M16,39c-.06,0-.12-.02-.17-.07-.05-.05-.08-.11-.08-.18s.03-.13.08-.18c.09-.09.25-.09.35,0,.05.05.07.12.07.18s-.02.13-.07.18c-.05.05-.12.07-.18.07Z" fill="#231815"/>
        <path d="M12.75,41.25c-.06,0-.13-.03-.17-.07-.05-.05-.08-.11-.08-.18,0-.06.03-.13.07-.18.1-.09.26-.09.36,0,.05.05.07.11.07.18s-.02.13-.07.18c-.05.04-.11.07-.18.07Z" fill="#231815"/>
        <path d="M12.75,46.5c-.07,0-.13-.03-.17-.07-.05-.05-.08-.12-.08-.18,0-.07.03-.13.07-.18.1-.09.26-.09.36,0,.05.05.07.11.07.18s-.02.13-.07.18c-.05.05-.11.07-.18.07Z" fill="#231815"/>
        <path d="M4,46.75c-.06,0-.13-.03-.17-.07-.05-.05-.08-.11-.08-.18,0-.06.03-.13.07-.18.1-.09.26-.09.35,0,.06.05.08.12.08.18,0,.07-.02.13-.07.18-.05.05-.12.07-.18.07Z" fill="#231815"/>
        <path d="M5.75,48.5c-.07,0-.13-.03-.18-.08-.04-.04-.07-.1-.07-.17s.03-.13.07-.18c.1-.09.26-.09.36,0,.05.05.07.11.07.18s-.02.13-.07.18c-.05.04-.11.07-.18.07Z" fill="#231815"/>
        <path d="M11,50.5c-.06,0-.12-.02-.17-.07-.05-.05-.08-.11-.08-.18,0-.06.03-.13.07-.17.11-.11.26-.1.36,0,.05.06.07.12.07.18s-.02.13-.07.18c-.05.05-.12.07-.18.07Z" fill="#231815"/>
        <path d="M11,54.5c-.06,0-.13-.03-.18-.07-.04-.05-.07-.11-.07-.18s.03-.13.07-.18c.11-.09.26-.09.36,0,.05.05.07.12.07.18s-.02.13-.07.18c-.05.04-.11.07-.18.07Z" fill="#231815"/>
        <path d="M15.5,58.5c-.06,0-.12-.03-.17-.07-.05-.05-.08-.11-.08-.18s.03-.13.07-.18c.11-.09.26-.09.36,0,.05.05.07.12.07.18s-.02.13-.07.18c-.05.04-.11.07-.18.07Z" fill="#231815"/>
        <path d="M10,59.75c-.07,0-.13-.03-.18-.07-.04-.05-.07-.12-.07-.18,0-.07.03-.13.07-.18.1-.09.25-.09.36,0,.05.05.07.11.07.18,0,.06-.02.13-.07.18-.05.05-.11.07-.18.07Z" fill="#231815"/>
        <path d="M6,63.5c-.06,0-.12-.02-.17-.07-.05-.05-.08-.12-.08-.18,0-.07.03-.13.07-.18.12-.1.26-.09.36,0,.05.05.07.11.07.18,0,.06-.02.12-.07.17-.05.06-.11.08-.18.08Z" fill="#231815"/>
        <path d="M2.25,62c-.06,0-.12-.02-.17-.07-.05-.05-.08-.11-.08-.18s.03-.13.07-.18c.11-.09.25-.09.35,0,.06.05.08.12.08.18s-.02.13-.07.18c-.06.05-.12.07-.18.07Z" fill="#231815"/>
        <path d="M7.25,67.75c-.06,0-.13-.03-.17-.07-.05-.05-.08-.12-.08-.18,0-.07.03-.13.07-.18.1-.09.26-.09.36,0,.04.05.07.11.07.18s-.02.13-.07.17c-.05.06-.11.08-.18.08Z" fill="#231815"/>
        <path d="M13.5,69.5c-.06,0-.12-.02-.17-.07-.05-.05-.08-.12-.08-.18,0-.07.03-.13.07-.18.11-.09.26-.09.36,0,.05.05.07.12.07.18s-.02.12-.07.17c-.05.06-.11.08-.18.08Z" fill="#231815"/>
        <path d="M13.5,65.75c-.06,0-.12-.02-.17-.07-.05-.05-.08-.11-.08-.18,0-.06.03-.13.07-.17.11-.11.26-.1.36,0,.05.06.07.12.07.18s-.02.13-.07.18c-.05.05-.11.07-.18.07Z" fill="#231815"/>
        <path d="M21.5,68.5c-.06,0-.12-.02-.17-.07-.05-.05-.08-.11-.08-.18s.03-.13.08-.18c.09-.09.25-.09.35,0,.05.05.07.12.07.18s-.02.12-.07.17c-.05.06-.11.08-.18.08Z" fill="#231815"/>
        <path d="M23,65.75c-.06,0-.12-.02-.17-.07-.05-.05-.08-.11-.08-.18,0-.06.03-.12.07-.17.11-.11.26-.1.36,0,.05.05.07.12.07.18,0,.07-.02.13-.07.18-.05.05-.11.07-.18.07Z" fill="#231815"/>
        <path d="M22.25,60c-.06,0-.12-.02-.17-.07-.05-.05-.08-.11-.08-.18,0-.06.03-.12.07-.17.11-.11.26-.1.36,0,.05.05.07.12.07.18,0,.07-.02.13-.07.18-.05.05-.12.07-.18.07Z" fill="#231815"/>
        <path d="M24.25,57.5c-.06,0-.12-.02-.17-.07-.05-.05-.08-.11-.08-.18s.03-.13.08-.18c.1-.09.25-.09.35,0,.05.05.07.12.07.18s-.02.13-.07.18c-.05.05-.11.07-.18.07Z" fill="#231815"/>
        <path d="M22,53.25c-.06,0-.12-.02-.17-.07-.05-.05-.08-.11-.08-.18s.03-.13.07-.17c.11-.11.26-.1.36,0,.05.06.07.12.07.18s-.02.13-.07.18c-.05.05-.11.07-.18.07Z" fill="#231815"/>
        <path d="M26.25,47.75c-.06,0-.12-.02-.17-.07-.05-.05-.08-.11-.08-.18s.03-.13.08-.18c.09-.09.25-.09.35,0,.05.05.07.12.07.18s-.02.13-.07.18c-.05.05-.11.07-.18.07Z" fill="#231815"/>
        <path d="M25.75,43.5c-.06,0-.12-.02-.17-.07-.05-.05-.08-.11-.08-.18s.03-.13.07-.18c.11-.09.26-.09.36,0,.05.06.07.12.07.18,0,.07-.02.13-.07.18-.05.05-.11.07-.18.07Z" fill="#231815"/>
        <path d="M31.25,37.5c-.06,0-.12-.03-.17-.07-.05-.05-.08-.12-.08-.18s.03-.13.07-.17c.11-.11.26-.1.36,0,.05.06.07.12.07.18s-.02.12-.07.17c-.05.05-.11.08-.18.08Z" fill="#231815"/>
        <path d="M32.25,31c-.06,0-.12-.02-.17-.07-.05-.05-.08-.11-.08-.18,0-.06.03-.12.07-.17.11-.11.26-.1.36,0,.05.05.07.12.07.18,0,.07-.03.13-.07.18-.05.05-.11.07-.18.07Z" fill="#231815"/>
        <path d="M26,34c-.06,0-.12-.02-.17-.07-.05-.05-.08-.11-.08-.18s.03-.13.08-.18c.1-.09.25-.09.35,0,.05.05.07.12.07.18s-.02.13-.07.18c-.05.05-.11.07-.18.07Z" fill="#231815"/>
        <path d="M34.25,27.75c-.06,0-.13-.03-.17-.07-.05-.05-.08-.11-.08-.18s.03-.13.08-.18c.09-.09.25-.09.35,0,.05.06.07.12.07.18s-.02.13-.07.18c-.05.04-.11.07-.18.07Z" fill="#231815"/>
        <path d="M37.25,28.5c-.06,0-.13-.03-.17-.07-.05-.05-.08-.11-.08-.18s.03-.13.08-.18c.09-.09.25-.09.34,0,.06.05.08.12.08.18s-.02.12-.07.17c-.05.06-.11.08-.18.08Z" fill="#231815"/>
        <path d="M41.75,25.75c-.06,0-.12-.03-.17-.07-.05-.05-.08-.11-.08-.18s.03-.13.08-.18c.09-.09.26-.09.35,0,.05.06.07.12.07.18s-.02.12-.07.17c-.05.05-.11.08-.18.08Z" fill="#231815"/>
        <path d="M43,20.75c-.06,0-.12-.02-.17-.07-.05-.05-.08-.11-.08-.18s.03-.13.08-.18c.09-.09.25-.09.35,0,.05.05.07.12.07.18s-.02.13-.07.18c-.05.05-.12.07-.18.07Z" fill="#231815"/>
        <path d="M36.5,19.25c-.06,0-.13-.03-.17-.07-.05-.04-.08-.11-.08-.18s.03-.14.08-.18c.08-.08.25-.09.35,0,.05.05.07.12.07.18s-.02.13-.07.18c-.05.05-.11.07-.18.07Z" fill="#231815"/>
        <path d="M27.75,22.25c-.06,0-.12-.03-.17-.07-.05-.05-.08-.12-.08-.18s.03-.13.07-.17c.11-.11.26-.1.36,0,.05.05.07.11.07.18s-.02.13-.07.18c-.05.04-.11.07-.18.07Z" fill="#231815"/>
        <path d="M52,22c-.06,0-.13-.03-.17-.07-.05-.05-.08-.11-.08-.18s.03-.13.08-.18c.09-.09.25-.09.35,0,.05.06.07.12.07.18s-.02.12-.07.17c-.05.05-.11.08-.18.08Z" fill="#231815"/>
        <path d="M43.25,17.75c-.06,0-.13-.03-.17-.07-.05-.05-.08-.11-.08-.18,0-.06.03-.13.07-.18.11-.09.26-.09.36,0,.05.06.07.12.07.18s-.02.12-.07.17c-.05.06-.11.08-.18.08Z" fill="#231815"/>
        <path d="M50.5,18c-.06,0-.13-.03-.17-.07-.05-.05-.08-.11-.08-.18s.03-.13.08-.18c.08-.09.25-.09.35,0,.05.06.07.12.07.18s-.02.12-.07.17c-.05.05-.11.08-.18.08Z" fill="#231815"/>
        <path d="M59.5,17.25c-.06,0-.13-.03-.17-.07-.05-.05-.08-.11-.08-.18s.03-.13.08-.18c.08-.09.25-.09.35,0,.05.05.07.12.07.18s-.02.13-.07.18c-.05.04-.11.07-.18.07Z" fill="#231815"/>
        <path d="M58.25,14c-.06,0-.13-.03-.17-.07-.05-.05-.08-.11-.08-.18s.03-.13.08-.18c.08-.09.26-.09.35,0,.05.05.07.11.07.18,0,.06-.02.13-.07.18-.05.04-.11.07-.18.07Z" fill="#231815"/>
        <path d="M61.5,11c-.06,0-.12-.02-.17-.07-.05-.05-.08-.11-.08-.18s.03-.14.08-.18c.09-.09.25-.09.35,0,.04.05.07.11.07.18s-.03.13-.07.18c-.05.05-.11.07-.18.07Z" fill="#231815"/>
        <path d="M58.75,7.5c-.06,0-.12-.02-.17-.07-.05-.05-.08-.11-.08-.18s.03-.13.08-.18c.09-.09.25-.09.35,0,.05.05.07.11.07.18s-.02.13-.07.18c-.05.05-.11.07-.18.07Z" fill="#231815"/>
        <path d="M60,4.75c-.06,0-.13-.03-.17-.07-.05-.05-.08-.11-.08-.18s.03-.13.07-.18c.11-.09.26-.09.36,0,.05.05.07.11.07.18s-.02.13-.07.17c-.05.06-.11.08-.18.08Z" fill="#231815"/>
        <path d="M67.5,6c-.06,0-.13-.03-.17-.07-.05-.05-.08-.12-.08-.18s.03-.13.07-.17c.1-.1.26-.1.36,0,.05.06.07.12.07.18s-.02.12-.07.17c-.05.05-.11.08-.18.08Z" fill="#231815"/>
        <path d="M69.5,8c-.06,0-.12-.03-.17-.07-.05-.05-.08-.11-.08-.18,0-.06.03-.13.07-.18.11-.09.26-.09.36,0,.05.05.07.12.07.18,0,.07-.02.13-.07.18-.05.05-.11.07-.18.07Z" fill="#231815"/>
        <path d="M65.75,9.75c-.06,0-.13-.03-.17-.07-.05-.05-.08-.11-.08-.18s.03-.13.08-.18c.08-.09.26-.09.35,0,.05.05.07.12.07.18s-.02.13-.07.18c-.05.04-.11.07-.18.07Z" fill="#231815"/>
        <path d="M61.75,16.5c-.06,0-.13-.03-.17-.07-.05-.05-.08-.11-.08-.18s.03-.13.08-.18c.09-.09.25-.09.35,0,.05.05.07.12.07.18s-.02.13-.07.17c-.05.06-.11.08-.18.08Z" fill="#231815"/>
        <path d="M60.25,23.75c-.06,0-.12-.03-.17-.07-.05-.05-.08-.11-.08-.18s.03-.13.08-.18c.09-.09.25-.09.35,0,.04.05.07.11.07.18s-.02.13-.07.18c-.05.05-.11.07-.18.07Z" fill="#231815"/>
        <path d="M55.5,23.75c-.06,0-.13-.03-.17-.07-.05-.05-.08-.12-.08-.18s.03-.13.08-.18c.09-.09.25-.09.35,0,.05.05.07.12.07.18s-.02.13-.07.18c-.05.04-.11.07-.18.07Z" fill="#231815"/>
        <path d="M55.5,18.75c-.06,0-.13-.03-.17-.07-.05-.05-.08-.12-.08-.18s.03-.13.08-.18c.09-.09.25-.09.35,0,.05.05.07.12.07.18s-.02.13-.07.18c-.05.04-.11.07-.18.07Z" fill="#231815"/>
        <path d="M65,25.75c-.06,0-.12-.03-.17-.07-.05-.05-.08-.11-.08-.18s.03-.13.08-.18c.09-.09.25-.09.35,0,.05.05.07.12.07.18,0,.07-.02.13-.07.18-.05.05-.11.07-.18.07Z" fill="#231815"/>
        <path d="M61.25,27c-.06,0-.13-.03-.17-.07-.05-.05-.08-.11-.08-.18s.03-.13.08-.18c.09-.09.25-.09.35,0,.05.05.07.11.07.18s-.03.13-.07.18c-.05.04-.11.07-.18.07Z" fill="#231815"/>
        <path d="M57.75,30.75c-.06,0-.12-.02-.17-.07-.05-.05-.08-.11-.08-.18s.03-.13.08-.18c.09-.09.25-.09.35,0,.05.05.07.11.07.18s-.02.13-.07.17c-.05.06-.11.08-.18.08Z" fill="#231815"/>
        <path d="M52.75,32.75c-.06,0-.13-.03-.17-.07-.05-.05-.08-.11-.08-.18s.03-.13.08-.18c.09-.09.25-.09.35,0,.05.05.07.12.07.18s-.02.13-.07.17c-.05.06-.11.08-.18.08Z" fill="#231815"/>
        <path d="M47.5,33.75c-.06,0-.12-.03-.17-.07-.05-.05-.08-.11-.08-.18s.03-.13.08-.18c.09-.09.25-.09.34,0,.06.06.08.12.08.18s-.02.12-.07.17c-.06.06-.11.08-.18.08Z" fill="#231815"/>
        <path d="M44.25,39.25c-.06,0-.12-.03-.17-.07-.05-.05-.08-.11-.08-.18s.03-.13.08-.18c.09-.09.25-.09.35,0,.05.05.07.11.07.18s-.02.13-.07.18c-.05.05-.12.07-.18.07Z" fill="#231815"/>
        <path d="M34,41.5c-.06,0-.12-.02-.17-.07-.05-.05-.08-.11-.08-.18s.03-.13.08-.18c.09-.09.25-.09.35,0,.05.05.07.12.07.18s-.02.13-.07.18c-.05.04-.11.07-.18.07Z" fill="#231815"/>
        <path d="M40.75,48c-.06,0-.12-.02-.17-.07-.05-.05-.08-.11-.08-.18s.03-.13.08-.18c.1-.09.25-.09.35,0,.04.05.07.11.07.18s-.03.13-.07.18c-.05.05-.11.07-.18.07Z" fill="#231815"/>
        <path d="M45.75,52.25c-.06,0-.12-.02-.17-.07-.05-.05-.08-.11-.08-.18s.03-.13.08-.18c.09-.09.25-.09.35,0,.05.05.07.11.07.18s-.03.13-.07.18c-.05.05-.11.07-.18.07Z" fill="#231815"/>
        <path d="M46.5,56.75c-.06,0-.12-.03-.17-.07-.05-.05-.08-.11-.08-.18s.03-.13.08-.18c.09-.09.25-.09.35,0,.05.05.07.12.07.18s-.02.13-.07.17c-.05.06-.11.08-.18.08Z" fill="#231815"/>
        <path d="M42,59.5c-.06,0-.12-.02-.17-.07-.05-.05-.08-.11-.08-.18s.03-.13.08-.18c.1-.09.25-.09.35,0,.04.05.07.11.07.18s-.02.13-.07.18c-.05.05-.12.07-.18.07Z" fill="#231815"/>
        <path d="M40,62.75c-.06,0-.12-.03-.17-.07-.05-.05-.08-.11-.08-.18s.03-.14.08-.18c.09-.09.26-.09.35,0,.05.05.07.11.07.18,0,.06-.02.13-.07.18-.05.04-.11.07-.18.07Z" fill="#231815"/>
        <path d="M36,62.75c-.06,0-.12-.02-.17-.07-.05-.05-.08-.11-.08-.18s.03-.13.08-.18c.1-.09.26-.09.35,0,.05.06.07.12.07.18s-.02.13-.07.18c-.05.04-.11.07-.18.07Z" fill="#231815"/>
        <path d="M36.5,52.75c-.07,0-.13-.03-.17-.07-.05-.05-.08-.11-.08-.18s.03-.13.08-.18c.09-.09.25-.09.35,0,.05.06.07.12.07.18s-.02.12-.07.17c-.05.05-.11.08-.18.08Z" fill="#231815"/>
        <path d="M30,63.5c-.06,0-.13-.03-.17-.07-.05-.05-.08-.11-.08-.18s.03-.13.08-.18c.09-.09.25-.09.35,0,.05.05.07.12.07.18s-.02.13-.07.17c-.05.05-.11.08-.18.08Z" fill="#231815"/>
        <path d="M31.5,68.5c-.07,0-.13-.03-.18-.08-.04-.04-.07-.1-.07-.17s.03-.14.08-.18c.09-.08.25-.09.34,0,.06.05.08.11.08.18,0,.06-.02.13-.07.18-.05.04-.11.07-.18.07Z" fill="#231815"/>
        <path d="M37,71c-.06,0-.12-.02-.17-.07-.05-.05-.08-.11-.08-.18s.03-.13.08-.18c.1-.09.25-.09.35,0,.05.05.07.11.07.18s-.02.13-.07.18c-.05.05-.11.07-.18.07Z" fill="#231815"/>
        <path d="M58.75,57c-.06,0-.12-.02-.17-.07-.05-.05-.08-.11-.08-.18s.03-.13.08-.18c.09-.09.25-.09.35,0,.05.05.07.11.07.18s-.02.13-.07.18c-.05.05-.11.07-.18.07Z" fill="#231815"/>
        <path d="M63,57c-.06,0-.12-.03-.17-.07-.05-.05-.08-.11-.08-.18s.03-.13.08-.18c.09-.09.25-.09.35,0,.05.05.07.11.07.18s-.02.13-.07.17c-.05.06-.11.08-.18.08Z" fill="#231815"/>
        <path d="M60,50.75c-.06,0-.12-.03-.17-.07-.05-.05-.08-.11-.08-.18s.03-.14.08-.18c.09-.09.25-.09.35,0,.04.05.07.11.07.18s-.02.13-.07.18c-.05.04-.11.07-.18.07Z" fill="#231815"/>
        <path d="M54.5,50.5c-.07,0-.13-.03-.17-.07-.05-.05-.08-.12-.08-.18s.03-.13.07-.17c.1-.1.26-.1.36,0,.05.06.07.12.07.18s-.02.12-.07.17c-.05.05-.11.08-.18.08Z" fill="#231815"/>
        <path d="M59.25,44.25c-.06,0-.13-.03-.17-.07-.05-.05-.08-.12-.08-.18s.03-.13.07-.17c.1-.1.27-.1.36,0,.05.06.07.12.07.18s-.02.12-.07.17c-.04.05-.11.08-.18.08Z" fill="#231815"/>
        <path d="M54.75,41.75c-.06,0-.13-.03-.17-.07-.05-.05-.08-.12-.08-.18s.03-.13.08-.18c.08-.09.25-.09.35,0,.05.05.07.12.07.18s-.02.13-.07.18c-.05.04-.11.07-.18.07Z" fill="#231815"/>
        <path d="M55.75,35.5c-.06,0-.12-.02-.17-.07-.05-.05-.08-.11-.08-.18s.03-.13.08-.18c.09-.09.25-.09.35,0,.05.05.07.11.07.18s-.02.13-.07.18c-.05.05-.11.07-.18.07Z" fill="#231815"/>
        <path d="M62.5,42.25c-.06,0-.13-.03-.17-.07-.05-.05-.08-.11-.08-.18s.03-.13.08-.18c.08-.08.24-.09.34,0,.06.05.08.12.08.18s-.02.13-.07.18c-.05.05-.12.07-.18.07Z" fill="#231815"/>
        <path d="M67,47.5c-.06,0-.13-.03-.17-.07-.05-.05-.08-.11-.08-.18s.03-.13.08-.18c.08-.08.25-.09.35,0,.05.05.07.11.07.18s-.03.13-.07.18c-.05.05-.11.07-.18.07Z" fill="#231815"/>
        <path d="M69.5,54.25c-.06,0-.13-.03-.17-.07-.05-.05-.08-.11-.08-.18s.03-.13.08-.18c.09-.09.25-.09.35,0,.05.05.07.11.07.18s-.02.13-.07.18c-.05.04-.11.07-.18.07Z" fill="#231815"/>
        <path d="M63.5,61.75c-.06,0-.13-.03-.17-.07-.05-.05-.08-.12-.08-.18,0-.07.03-.13.08-.18.07-.08.25-.1.35,0,.05.05.07.12.07.18s-.02.12-.07.17c-.05.06-.11.08-.18.08Z" fill="#231815"/>
        <path d="M69.25,63.5c-.06,0-.12-.02-.17-.07-.05-.05-.08-.11-.08-.18s.03-.13.08-.18c.09-.09.25-.09.35,0,.05.05.07.12.07.18s-.02.13-.07.17c-.05.06-.11.08-.18.08Z" fill="#231815"/>
        <path d="M64.75,65.5c-.07,0-.13-.03-.17-.07-.05-.05-.08-.12-.08-.18s.03-.12.07-.17c.1-.1.27-.1.36,0,.05.06.07.12.07.18s-.02.12-.07.17c-.04.05-.11.08-.18.08Z" fill="#231815"/>
        <path d="M65.75,68.25c-.06,0-.13-.03-.17-.07-.05-.05-.08-.11-.08-.18s.03-.13.08-.18c.08-.09.26-.09.35,0,.05.05.07.12.07.18,0,.07-.02.13-.07.18-.05.04-.11.07-.18.07Z" fill="#231815"/>
        <path d="M69.25,70.5c-.06,0-.13-.03-.17-.07-.05-.05-.08-.12-.08-.18,0-.07.03-.13.08-.18.09-.09.25-.09.35,0,.05.05.07.11.07.18,0,.06-.02.13-.07.17-.05.06-.11.08-.18.08Z" fill="#231815"/>
        <path d="M62.5,70.25c-.06,0-.13-.03-.17-.07-.05-.05-.08-.11-.08-.18s.03-.13.08-.18c.08-.08.24-.1.34,0,.06.05.08.12.08.18s-.02.13-.07.18c-.06.05-.12.07-.18.07Z" fill="#231815"/>
        <path d="M60.75,65.75c-.06,0-.13-.03-.17-.07-.05-.05-.08-.11-.08-.18s.03-.13.08-.18c.09-.09.25-.09.35,0,.05.05.07.12.07.18s-.02.13-.07.17c-.05.06-.11.08-.18.08Z" fill="#231815"/>
        <path d="M52.75,69.75c-.06,0-.13-.03-.17-.07-.05-.05-.08-.11-.08-.18s.03-.13.08-.18c.09-.09.25-.09.35,0,.05.05.07.12.07.18s-.02.13-.07.17c-.05.06-.11.08-.18.08Z" fill="#231815"/>
        <path d="M44.75,66.5c-.07,0-.13-.03-.17-.07-.05-.05-.08-.11-.08-.18s.03-.13.08-.18c.09-.09.25-.09.35,0,.05.05.07.11.07.18,0,.06-.02.13-.07.17-.05.05-.11.08-.18.08Z" fill="#231815"/>
        <path d="M44.5,71.25c-.06,0-.12-.03-.17-.07-.05-.05-.08-.11-.08-.18s.03-.13.08-.18c.09-.09.25-.09.35,0,.05.05.07.11.07.18s-.02.13-.07.18c-.05.05-.12.07-.18.07Z" fill="#231815"/>
        <path d="M28.5,71.25c-.07,0-.13-.03-.18-.08-.04-.04-.07-.1-.07-.17s.03-.13.08-.18c.09-.09.25-.09.35,0,.05.05.07.12.07.18s-.02.13-.07.18c-.04.04-.11.07-.18.07Z" fill="#231815"/>
        <path d="M.75,29.5c-.06,0-.13-.03-.17-.07-.05-.05-.08-.12-.08-.18,0-.07.03-.13.08-.18.08-.09.24-.09.35,0,.04.05.07.11.07.18s-.02.13-.07.18c-.05.05-.11.07-.18.07Z" fill="#231815"/>
        <path d="M24.5,1c-.06,0-.12-.02-.17-.07-.05-.05-.08-.12-.08-.18,0-.07.03-.13.07-.18.11-.09.26-.09.36,0,.04.05.07.11.07.18s-.02.13-.07.17c-.05.06-.11.08-.18.08Z" fill="#231815"/>
        <path d="M13.25,5c-.07,0-.13-.03-.18-.07-.04-.05-.07-.12-.07-.18,0-.07.03-.13.07-.18.09-.09.26-.09.36,0,.05.05.07.11.07.18,0,.06-.02.13-.07.17-.05.06-.11.08-.18.08Z" fill="#231815"/>
        <path d="M71,35.25c-.06,0-.13-.03-.17-.07-.05-.05-.08-.11-.08-.18s.03-.13.08-.18c.08-.08.25-.09.35,0,.05.05.07.11.07.18s-.02.13-.07.18c-.05.05-.11.07-.18.07Z" fill="#231815"/>
      </g>
    </pattern>
    <pattern id="_6_dpi_90_" data-name="6 dpi 90%" x="0" y="0" width="48" height="48" patternTransform="translate(-6533.4 -5701.9) scale(.25)" patternUnits="userSpaceOnUse" viewBox="0 0 48 48">
      <g>
        <rect width="48" height="48" fill="none"/>
        <path d="M12.6,70.73c6.3,0,11.4-5.1,11.4-11.4s-5.1-11.4-11.4-11.4S1.2,53.04,1.2,59.33s5.1,11.4,11.4,11.4Z"/>
        <g>
          <path d="M24,58.8c5.96,0,10.8-4.83,10.8-10.8s-4.84-10.8-10.8-10.8-10.8,4.84-10.8,10.8,4.83,10.8,10.8,10.8Z"/>
          <circle cx="48" cy="48" r="10.8"/>
          <path d="M24,34.8c5.96,0,10.8-4.83,10.8-10.8s-4.84-10.8-10.8-10.8-10.8,4.84-10.8,10.8,4.83,10.8,10.8,10.8Z"/>
          <circle cx="48" cy="24" r="10.8"/>
          <path d="M36,46.8c5.96,0,10.8-4.83,10.8-10.8s-4.84-10.8-10.8-10.8-10.8,4.84-10.8,10.8,4.83,10.8,10.8,10.8Z"/>
          <path d="M12.6,48.07c6.3,0,11.4-5.1,11.4-11.4s-5.1-11.4-11.4-11.4S1.2,30.37,1.2,36.67s5.1,11.4,11.4,11.4Z"/>
          <path d="M36,22.8c5.96,0,10.8-4.83,10.8-10.8S41.96,1.2,36,1.2s-10.8,4.84-10.8,10.8,4.83,10.8,10.8,10.8Z"/>
          <path d="M12.6,22.73c6.3,0,11.4-5.1,11.4-11.4S18.9-.07,12.6-.07,1.2,5.04,1.2,11.33s5.1,11.4,11.4,11.4Z"/>
        </g>
        <g>
          <circle cy="48" r="10.8"/>
          <circle cy="24" r="10.8"/>
        </g>
        <g>
          <path d="M24,10.8c5.96,0,10.8-4.83,10.8-10.8s-4.84-10.8-10.8-10.8S13.2-5.96,13.2,0s4.83,10.8,10.8,10.8Z"/>
          <circle cx="48" r="10.8"/>
          <path d="M12.6.07c6.3,0,11.4-5.1,11.4-11.4s-5.1-11.4-11.4-11.4S1.2-17.63,1.2-11.33,6.3.07,12.6.07Z"/>
        </g>
        <circle r="10.8"/>
      </g>
    </pattern>
  </defs>
  <path d="M66.19,48.79H3.75c-2.16,0-3.73-2.19-3.16-4.41L10.27,6.38c.39-1.52,1.68-2.58,3.16-2.58h43.65c1.5,0,2.8,1.08,3.18,2.63l9.11,38c.53,2.21-1.04,4.36-3.18,4.36Z" fill="#fff"/>
  <path d="M66.19,48.79H3.75c-2.16,0-3.73-2.19-3.16-4.41L10.27,6.38c.39-1.52,1.68-2.58,3.16-2.58h43.65c1.5,0,2.8,1.08,3.18,2.63l9.11,38c.53,2.21-1.04,4.36-3.18,4.36Z" fill="url(#USGS_17_마른_호수_모래_바닥)" stroke="#000" stroke-linecap="round" stroke-linejoin="bevel" stroke-width="1.01"/>
  <path d="M44.09,19.57c0,.95.56,1.72,1.25,1.72s1.25-.77,1.25-1.72c0-.19-.04-.36-.08-.53h.02s-1.1-5.01,3.19-6.43c4.29-1.41,5.35,3.14,5.35,3.14h.03c.16.73.64,1.27,1.22,1.27s1.06-.54,1.22-1.27h.03s.78-4.17,3.82-4.58c.01,0-.38-.57-.38-.59l-1.67-6.37s0-.02-.02-.02l-47.05-.38s-.76,1.39-1.26.94l-1.42,4.25s1.58-1.19,4.16-.23c2.57.96,3.15,5.42,3.15,5.42h0c.14,1.39.99,2.46,2.03,2.46s1.88-1.05,2.03-2.41c0,0,1-7.78,10.98-5.42,2.45.62,5.37,1.01,8.01,2.37,4.74,1.98,4.16,7.57,4.16,7.57" fill="url(#_6_dpi_90_)"/>
  <circle cx="35.85" cy="35.91" r=".95" stroke="#000" stroke-miterlimit="10" stroke-width=".68"/>
  <path d="M28.84,24.15c0-3.75,3.32-3.75,3.32,0" fill="none" stroke="#000" stroke-miterlimit="10" stroke-width=".68"/>
  <path d="M39.67,24.1c0-3.75,3.32-3.75,3.32,0" fill="none" stroke="#000" stroke-miterlimit="10" stroke-width=".68"/>
  <polyline points="21.19 30.73 21.46 28.2 19.14 26.92 16.92 28.86 17.87 31.32 19.34 30.88 19.39 29.08" fill="none" stroke="#ff6464" stroke-linecap="round" stroke-linejoin="bevel" stroke-width=".75"/>
  <polyline points="54.11 31.12 54.84 28.69 52.75 27.08 50.26 28.65 50.82 31.23 52.34 31.02 52.67 29.25" fill="none" stroke="#ff6464" stroke-linecap="round" stroke-linejoin="bevel" stroke-width=".75"/>
</svg>