<?xml version="1.0" encoding="UTF-8"?>
<svg id="_아이콘" data-name="아이콘" xmlns="http://www.w3.org/2000/svg" width="70" height="52" xmlns:xlink="http://www.w3.org/1999/xlink" viewBox="0 0 70 52">
  <defs>
    <pattern id="_6_dpi_90_" data-name="6 dpi 90%" x="0" y="0" width="48" height="48" patternTransform="translate(-6533.4 -5713.9) scale(.25)" patternUnits="userSpaceOnUse" viewBox="0 0 48 48">
      <g>
        <rect width="48" height="48" fill="none"/>
        <path d="M12.6,70.73c6.3,0,11.4-5.1,11.4-11.4s-5.1-11.4-11.4-11.4S1.2,53.04,1.2,59.33s5.1,11.4,11.4,11.4Z"/>
        <g>
          <path d="M24,58.8c5.96,0,10.8-4.83,10.8-10.8s-4.84-10.8-10.8-10.8-10.8,4.84-10.8,10.8,4.83,10.8,10.8,10.8Z"/>
          <circle cx="48" cy="48" r="10.8"/>
          <path d="M24,34.8c5.96,0,10.8-4.83,10.8-10.8s-4.84-10.8-10.8-10.8-10.8,4.84-10.8,10.8,4.83,10.8,10.8,10.8Z"/>
          <circle cx="48" cy="24" r="10.8"/>
          <path d="M36,46.8c5.96,0,10.8-4.83,10.8-10.8s-4.84-10.8-10.8-10.8-10.8,4.84-10.8,10.8,4.83,10.8,10.8,10.8Z"/>
          <path d="M12.6,48.07c6.3,0,11.4-5.1,11.4-11.4s-5.1-11.4-11.4-11.4S1.2,30.37,1.2,36.67s5.1,11.4,11.4,11.4Z"/>
          <path d="M36,22.8c5.96,0,10.8-4.83,10.8-10.8S41.96,1.2,36,1.2s-10.8,4.84-10.8,10.8,4.83,10.8,10.8,10.8Z"/>
          <path d="M12.6,22.73c6.3,0,11.4-5.1,11.4-11.4S18.9-.07,12.6-.07,1.2,5.04,1.2,11.33s5.1,11.4,11.4,11.4Z"/>
        </g>
        <g>
          <circle cy="48" r="10.8"/>
          <circle cy="24" r="10.8"/>
        </g>
        <g>
          <path d="M24,10.8c5.96,0,10.8-4.83,10.8-10.8s-4.84-10.8-10.8-10.8S13.2-5.96,13.2,0s4.83,10.8,10.8,10.8Z"/>
          <circle cx="48" r="10.8"/>
          <path d="M12.6.07c6.3,0,11.4-5.1,11.4-11.4s-5.1-11.4-11.4-11.4S1.2-17.63,1.2-11.33,6.3.07,12.6.07Z"/>
        </g>
        <circle r="10.8"/>
      </g>
    </pattern>
  </defs>
  <path d="M66.19,48.79H3.75c-2.16,0-3.73-2.19-3.16-4.41L10.27,6.38c.39-1.52,1.68-2.58,3.16-2.58h43.65c1.5,0,2.8,1.08,3.18,2.63l9.11,38c.53,2.21-1.04,4.36-3.18,4.36Z" fill="#ff9" stroke="#000" stroke-linecap="round" stroke-linejoin="bevel" stroke-width="1.01"/>
  <path d="M44.09,19.57c0,.95.56,1.72,1.25,1.72s1.25-.77,1.25-1.72c0-.19-.04-.36-.08-.53h.02s-1.1-5.01,3.19-6.43c4.29-1.41,5.35,3.14,5.35,3.14h.03c.16.73.64,1.27,1.22,1.27s1.06-.54,1.22-1.27h.03s.78-4.17,3.82-4.58c.01,0-.38-.57-.38-.59l-1.67-6.37s0-.02-.02-.02l-47.05-.38s-.76,1.39-1.26.94l-1.42,4.25s1.58-1.19,4.16-.23c2.57.96,3.15,5.42,3.15,5.42h0c.14,1.39.99,2.46,2.03,2.46s1.88-1.05,2.03-2.41c0,0,1-7.78,10.98-5.42,2.45.62,5.37,1.01,8.01,2.37,4.74,1.98,4.16,7.57,4.16,7.57" fill="url(#_6_dpi_90_)"/>
  <circle cx="35.85" cy="35.91" r=".95" stroke="#000" stroke-miterlimit="10" stroke-width=".68"/>
  <path d="M28.84,24.15c0-3.75,3.32-3.75,3.32,0" fill="none" stroke="#000" stroke-miterlimit="10" stroke-width=".68"/>
  <path d="M39.67,24.1c0-3.75,3.32-3.75,3.32,0" fill="none" stroke="#000" stroke-miterlimit="10" stroke-width=".68"/>
  <polyline points="21.19 30.73 21.46 28.2 19.14 26.92 16.92 28.86 17.87 31.32 19.34 30.88 19.39 29.08" fill="none" stroke="#ff6464" stroke-linecap="round" stroke-linejoin="bevel" stroke-width=".75"/>
  <polyline points="54.11 31.12 54.84 28.69 52.75 27.08 50.26 28.65 50.82 31.23 52.34 31.02 52.67 29.25" fill="none" stroke="#ff6464" stroke-linecap="round" stroke-linejoin="bevel" stroke-width=".75"/>
</svg>