<?xml version="1.0" encoding="UTF-8"?>
<svg id="_레이어_1" data-name="레이어_1" xmlns="http://www.w3.org/2000/svg" width="32" height="36" version="1.1" xmlns:xlink="http://www.w3.org/1999/xlink" viewBox="0 0 32 36">
  <!-- Generator: Adobe Illustrator 29.6.1, SVG Export Plug-In . SVG Version: 2.1.1 Build 9)  -->
  <defs>
    <clipPath id="clippath">
      <rect width="32" height="35.33" fill="none"/>
    </clipPath>
    <mask id="mask" x="-.23" y="-.83" width="32.25" height="37.03" maskUnits="userSpaceOnUse">
      <g id="path-1-inside-1_1887_4155">
        <path d="M29.21.43l.79,1.4.49,2.08-.19,2.09-.03,2.09.28,2.09-.14,2.09-.21,2.09.26,2.09.2,2.1-.69,2.1.31,2.1.09,2.1-.02,2.1-.6,1.84-1.12,1.63-1.72,1-1.93.35-1.93.37-1.79-.81-1.64-.87-1.06-1.58-.29-2.22,1.35-1.76,1.36-1.8,2.23-.41,2.12-.55,2.29.56.15-1.98-.06-1.92-.3-1.92.02-1.92.36-1.93-.35-1.89-2.06.52-1.96.95-2.21.15-1.98.9-2.07.61-1.99.89-2.09.39-.38,1.96.18,2.02.19,2.02-.17,2.02.41,2.02-.06,2.03-.19,2.03-.84,1.58-.8,1.55-1.37,1.14-1.69.55-1.61.69-.98-.19-1.98-.84-1.77-1.12-1.2-1.88.39-2.24,1.51-1.43,1.44-1.44,1.92-.81,2.08-.05,2.17.45.14-2.14-.18-2.09.22-2.09-.3-2.09-.27-2.09.13-2.09.34-2.09.07-2.09-.21-2.09.61-.63,1.95-.64,1.92-.76,2.03-.39,1.89-.84,1.85-.99,2.14-.07,1.96-.62,1.86-.96,1.98-.64.77.21h-.02ZM12.97,12.57l2.18-.38,1.92-1.1,2.12-.45,2.07-.61,1.98-.9,2.11-.5,2.19-.47-.23-2.28-.07-1.94-1.95.02-1.97.92-2.04.72-2.07.61-2.08.59-2.01.82-2,.53-.2,2.13.03,2.27.02.02Z" fill="#fff"/>
      </g>
    </mask>
  </defs>
  <g clip-path="url(#clippath)">
    <g mask="url(#mask)">
      <path d="M29.21.43l.79,1.4.49,2.08-.19,2.09-.03,2.09.28,2.09-.14,2.09-.21,2.09.26,2.09.2,2.1-.69,2.1.31,2.1.09,2.1-.02,2.1-.6,1.84-1.12,1.63-1.72,1-1.93.35-1.93.37-1.79-.81-1.64-.87-1.06-1.58-.29-2.22,1.35-1.76,1.36-1.8,2.23-.41,2.12-.55,2.29.56.15-1.98-.06-1.92-.3-1.92.02-1.92.36-1.93-.35-1.89-2.06.52-1.96.95-2.21.15-1.98.9-2.07.61-1.99.89-2.09.39-.38,1.96.18,2.02.19,2.02-.17,2.02.41,2.02-.06,2.03-.19,2.03-.84,1.58-.8,1.55-1.37,1.14-1.69.55-1.61.69-.98-.19-1.98-.84-1.77-1.12-1.2-1.88.39-2.24,1.51-1.43,1.44-1.44,1.92-.81,2.08-.05,2.17.45.14-2.14-.18-2.09.22-2.09-.3-2.09-.27-2.09.13-2.09.34-2.09.07-2.09-.21-2.09.61-.63,1.95-.64,1.92-.76,2.03-.39,1.89-.84,1.85-.99,2.14-.07,1.96-.62,1.86-.96,1.98-.64.77.21h-.02ZM12.97,12.57l2.18-.38,1.92-1.1,2.12-.45,2.07-.61,1.98-.9,2.11-.5,2.19-.47-.23-2.28-.07-1.94-1.95.02-1.97.92-2.04.72-2.07.61-2.08.59-2.01.82-2,.53-.2,2.13.03,2.27.02.02Z" fill="#fcc" stroke="#000" stroke-width="2"/>
    </g>
  </g>
</svg>