<?xml version="1.0" encoding="UTF-8"?>
<svg id="_레이어_1" data-name="레이어 1" xmlns="http://www.w3.org/2000/svg" width="32" height="39" xmlns:xlink="http://www.w3.org/1999/xlink" viewBox="0 0 32 39">
  <defs>
    <pattern id="USGS_19_침수_지역_3" data-name="USGS 19 침수 지역 3" x="0" y="0" width="75.48" height="70.75" patternTransform="translate(-37.23 418.5)" patternUnits="userSpaceOnUse" viewBox="0 0 75.48 70.75">
      <g>
        <rect width="75.48" height="70.75" fill="none"/>
        <line x1="0" y1="70.37" x2="73.44" y2="70.37" fill="none" stroke="#b0ffd2" stroke-dasharray="2 2" stroke-width=".75"/>
        <line x1="0" y1="66.37" x2="73.44" y2="66.37" fill="none" stroke="#b0ffd2" stroke-dasharray="2 2" stroke-width=".75"/>
        <line x1="0" y1="62.37" x2="73.44" y2="62.37" fill="none" stroke="#b0ffd2" stroke-dasharray="2 2" stroke-width=".75"/>
        <line x1="0" y1="58.37" x2="73.44" y2="58.37" fill="none" stroke="#b0ffd2" stroke-dasharray="2 2" stroke-width=".75"/>
        <line x1="0" y1="54.37" x2="73.44" y2="54.37" fill="none" stroke="#b0ffd2" stroke-dasharray="2 2" stroke-width=".75"/>
        <line x1="0" y1="50.37" x2="73.44" y2="50.37" fill="none" stroke="#b0ffd2" stroke-dasharray="2 2" stroke-width=".75"/>
        <line x1="0" y1="46.37" x2="73.44" y2="46.37" fill="none" stroke="#b0ffd2" stroke-dasharray="2 2" stroke-width=".75"/>
        <line x1="0" y1="42.37" x2="73.44" y2="42.37" fill="none" stroke="#b0ffd2" stroke-dasharray="2 2" stroke-width=".75"/>
        <line x1="0" y1="38.37" x2="73.44" y2="38.37" fill="none" stroke="#b0ffd2" stroke-dasharray="2 2" stroke-width=".75"/>
        <line x1="0" y1="34.37" x2="73.44" y2="34.37" fill="none" stroke="#b0ffd2" stroke-dasharray="2 2" stroke-width=".75"/>
        <line x1="0" y1="30.37" x2="73.44" y2="30.37" fill="none" stroke="#b0ffd2" stroke-dasharray="2 2" stroke-width=".75"/>
        <line x1="0" y1="26.37" x2="73.44" y2="26.37" fill="none" stroke="#b0ffd2" stroke-dasharray="2 2" stroke-width=".75"/>
        <line x1="0" y1="22.37" x2="73.44" y2="22.37" fill="none" stroke="#b0ffd2" stroke-dasharray="2 2" stroke-width=".75"/>
        <line x1="0" y1="18.37" x2="73.44" y2="18.37" fill="none" stroke="#b0ffd2" stroke-dasharray="2 2" stroke-width=".75"/>
        <line x1="0" y1="14.37" x2="73.44" y2="14.37" fill="none" stroke="#b0ffd2" stroke-dasharray="2 2" stroke-width=".75"/>
        <line x1="0" y1="10.37" x2="73.44" y2="10.37" fill="none" stroke="#b0ffd2" stroke-dasharray="2 2" stroke-width=".75"/>
        <line x1="0" y1="6.37" x2="73.44" y2="6.37" fill="none" stroke="#b0ffd2" stroke-dasharray="2 2" stroke-width=".75"/>
        <line x1="0" y1="2.37" x2="73.44" y2="2.37" fill="none" stroke="#b0ffd2" stroke-dasharray="2 2" stroke-width=".75"/>
        <line x1="2.04" y1="68.37" x2="75.48" y2="68.37" fill="none" stroke="#b0ffd2" stroke-dasharray="2 2" stroke-width=".75"/>
        <line x1="2.04" y1="64.37" x2="75.48" y2="64.37" fill="none" stroke="#b0ffd2" stroke-dasharray="2 2" stroke-width=".75"/>
        <line x1="2.04" y1="60.37" x2="75.48" y2="60.37" fill="none" stroke="#b0ffd2" stroke-dasharray="2 2" stroke-width=".75"/>
        <line x1="2.04" y1="56.37" x2="75.48" y2="56.37" fill="none" stroke="#b0ffd2" stroke-dasharray="2 2" stroke-width=".75"/>
        <line x1="2.04" y1="52.37" x2="75.48" y2="52.37" fill="none" stroke="#b0ffd2" stroke-dasharray="2 2" stroke-width=".75"/>
        <line x1="2.04" y1="48.37" x2="75.48" y2="48.37" fill="none" stroke="#b0ffd2" stroke-dasharray="2 2" stroke-width=".75"/>
        <line x1="2.04" y1="44.37" x2="75.48" y2="44.37" fill="none" stroke="#b0ffd2" stroke-dasharray="2 2" stroke-width=".75"/>
        <line x1="2.04" y1="40.37" x2="75.48" y2="40.37" fill="none" stroke="#b0ffd2" stroke-dasharray="2 2" stroke-width=".75"/>
        <line x1="2.04" y1="36.37" x2="75.48" y2="36.37" fill="none" stroke="#b0ffd2" stroke-dasharray="2 2" stroke-width=".75"/>
        <line x1="2.04" y1="32.37" x2="75.48" y2="32.37" fill="none" stroke="#b0ffd2" stroke-dasharray="2 2" stroke-width=".75"/>
        <line x1="2.04" y1="28.37" x2="75.48" y2="28.37" fill="none" stroke="#b0ffd2" stroke-dasharray="2 2" stroke-width=".75"/>
        <line x1="2.04" y1="24.37" x2="75.48" y2="24.37" fill="none" stroke="#b0ffd2" stroke-dasharray="2 2" stroke-width=".75"/>
        <line x1="2.04" y1="20.37" x2="75.48" y2="20.37" fill="none" stroke="#b0ffd2" stroke-dasharray="2 2" stroke-width=".75"/>
        <line x1="2.04" y1="16.37" x2="75.48" y2="16.37" fill="none" stroke="#b0ffd2" stroke-dasharray="2 2" stroke-width=".75"/>
        <line x1="2.04" y1="12.37" x2="75.48" y2="12.37" fill="none" stroke="#b0ffd2" stroke-dasharray="2 2" stroke-width=".75"/>
        <line x1="2.04" y1="8.37" x2="75.48" y2="8.37" fill="none" stroke="#b0ffd2" stroke-dasharray="2 2" stroke-width=".75"/>
        <line x1="2.04" y1="4.37" x2="75.48" y2="4.37" fill="none" stroke="#b0ffd2" stroke-dasharray="2 2" stroke-width=".75"/>
        <line x1="2.04" y1=".37" x2="75.48" y2=".37" fill="none" stroke="#b0ffd2" stroke-dasharray="2 2" stroke-width=".75"/>
      </g>
    </pattern>
    <mask id="mask" x="-.16" y="-.36" width="31.39" height="38.05" maskUnits="userSpaceOnUse">
      <g id="path-1-inside-1_1886_4132" data-name="path-1-inside-1 1886 4132">
        <path d="M17.67,23.47c-.3-.1-.73-.16-1.07-.22-.31-.05-.62-.29-.96-.31-.32-.02-.65.28-.98.3-.32.01-.64,0-.97.03-.33.03-.64.03-.97.09-.33.06-.69-.09-1.01,0-.32.09-.63.2-.95.3s-.63.2-.94.31c-.31.11-.61.24-.92.37-.31.13-.51.45-.81.59-.32.16-.69.24-.99.41-.3.17-.64.33-.94.52-.3.19-.5.55-.78.75-.28.2-.53.48-.8.7s-.62.38-.88.62c-.26.25-.53.49-.76.75-.24.27-.45.56-.66.84-.22.3-.33.64-.5.94-.18.32-.44.59-.56.9-.13.35-.21.7-.26,1.03-.06.37-.15.72-.11,1.06s.2.68.36,1c.16.32.26.72.52.97.26.25.64.35.96.52.3.16.6.39.96.5.33.09.69.19,1.06.24.34.05.71-.14,1.08-.13.34,0,.7.08,1.06.06.34-.03.71,0,1.07-.06.36-.06.69-.16,1.05-.24s.7-.12,1.05-.23c.35-.11.69-.18,1.03-.31.34-.13.58-.46.92-.6s.76-.05,1.08-.21c.31-.15.49-.53.78-.69s.64-.25.92-.43c.28-.18.54-.41.81-.6.27-.19.59-.34.85-.55.26-.21.38-.59.63-.82.25-.23.61-.34.84-.58.24-.25.5-.47.7-.73.22-.27.45-.53.62-.81.19-.29.34-.61.48-.9.15-.32.21-.66.3-.97.1-.34.13-.67.15-.99.02-.35.09-.69.02-1.01-.05-.5.05-.5.02-1s-.18-.49-.21-.98c-.03-.49,0-.5-.03-.99s.12-.5.09-1-.17-.49-.2-.99c-.03-.5-.12-.49-.14-.99s.14-.51.11-1c-.03-.49.04-.5,0-1-.04-.5-.12-.49-.14-.99-.02-.5-.17-.49-.19-.99-.02-.5.17-.51.15-1-.02-.49-.3-.49-.32-.98-.02-.49.11-.51.09-1.01-.02-.5,0-.5-.02-1.01-.02-.51-.1-.5-.13-1-.03-.5.04-.5.01-1-.03-.5.09-.51.06-1.01-.03-.5-.13-.5-.15-1-.02-.5-.01-.5-.04-1-.03-.5-.25-.49-.28-.99-.03-.5.11-.51.08-1.01-.03-.5.15-.51.12-1.01-.03-.5-.21-.49-.24-1-.03-.51-.05-.5-.08-1.01-.03-.51.52-.84.12-1.15-.48-.36-.7.15-1.3.18-.6.03-.85-.42-1.29,0-.37.35-.06.61-.04,1.12.02.51.34.49.37,1,.03.51-.05.51-.03,1.02.02.51-.07.51-.04,1.02q.03.51.05,1.02c.02.51.13.5.16,1.01.03.51.13.5.16,1.01.03.51-.14.52-.11,1.03s-.13.52-.1,1.02c.03.5.08.5.11,1.01.03.51.12.5.15,1.01.03.51,0,.51.03,1.02.03.51,0,.51.02,1.02q.02.51.04,1.02c.02.51-.05.51-.03,1.03.02.52.21.5.24,1.01.03.51.04.51.07,1.02.03.51.07.51.09,1.01.02.5-.21.52-.18,1.03.03.51.1.51.13,1.02.03.51.05.52.16,1.02.12.53.28.56.15,1.06h.03Z" fill="#fff"/>
        <path d="M31.19,15.36c0-.15-.08-.53-.16-1.06-.05-.3-.18-.64-.26-1.03-.07-.32-.13-.67-.23-1.03-.09-.33-.11-.7-.23-1.04-.12-.34-.3-.64-.44-.97-.14-.33-.24-.67-.41-.98s-.41-.58-.61-.87-.46-.53-.71-.79c-.25-.26-.46-.55-.74-.76-.28-.21-.58-.43-.91-.56-.33-.14-.67-.26-.98-.41-.31-.15-.69-.23-1-.4s-.57-.46-.87-.64c-.32-.19-.63-.35-.92-.54-.31-.2-.68-.3-.95-.5-.3-.22-.56-.48-.82-.69-.3-.24-.55-.5-.79-.71-.31-.27-.57-.52-.78-.73-.48-.46-.56-1.23-.71-.73-.15.5-.05.49-.03,1,.02.51.04.51.07,1.01.03.5.12.5.14,1.01.02.51-.06.51-.03,1.02.03.51.03.5.06,1.01.03.51.02.51.05,1.01s-.04.51,0,1.02q.04.51.07,1.02c.03.51,0,.52.07,1.02.05.45.2.31.59.68.18.17.41.34.73.49.24.11.5.25.83.32.37.02.73-.02,1.07,0,.37.03.72.18,1.05.22.38.04.74-.02,1.07.03.38.06.71.19,1.03.27.38.09.71.21,1.02.32.37.14.71.24.99.4.34.2.55.5.77.73.26.27.44.55.59.85.15.3.35.61.45.96.11.35.16.76.25,1.16s.11.83.21,1.17c.16.5.42.79.75.82.29.02.52-.31.62-.83.07-.35,0-.77.03-1.15.02-.46.11-.88.11-1.14l-.04.02Z" fill="#fff"/>
      </g>
    </mask>
    <mask id="mask-1" x=".84" y="-.24" width="31.39" height="36.93" maskUnits="userSpaceOnUse">
      <g id="path-1-inside-1_1886_4132-2" data-name="path-1-inside-1 1886 4132">
        <path d="M17.67,23.47c-.3-.1-.73-.16-1.07-.22-.31-.05-.62-.29-.96-.31-.32-.02-.65.28-.98.3-.32.01-.64,0-.97.03-.33.03-.64.03-.97.09-.33.06-.69-.09-1.01,0-.32.09-.63.2-.95.3s-.63.2-.94.31c-.31.11-.61.24-.92.37-.31.13-.51.45-.81.59-.32.16-.69.24-.99.41-.3.17-.64.33-.94.52-.3.19-.5.55-.78.75-.28.2-.53.48-.8.7s-.62.38-.88.62c-.26.25-.53.49-.76.75-.24.27-.45.56-.66.84-.22.3-.33.64-.5.94-.18.32-.44.59-.56.9-.13.35-.21.7-.26,1.03-.06.37-.15.72-.11,1.06s.2.68.36,1c.16.32.26.72.52.97.26.25.64.35.96.52.3.16.6.39.96.5.33.09.69.19,1.06.24.34.05.71-.14,1.08-.13.34,0,.7.08,1.06.06.34-.03.71,0,1.07-.06.36-.06.69-.16,1.05-.24s.7-.12,1.05-.23c.35-.11.69-.18,1.03-.31.34-.13.58-.46.92-.6s.76-.05,1.08-.21c.31-.15.49-.53.78-.69s.64-.25.92-.43c.28-.18.54-.41.81-.6.27-.19.59-.34.85-.55.26-.21.38-.59.63-.82.25-.23.61-.34.84-.58.24-.25.5-.47.7-.73.22-.27.45-.53.62-.81.19-.29.34-.61.48-.9.15-.32.21-.66.3-.97.1-.34.13-.67.15-.99.02-.35.09-.69.02-1.01-.05-.5.05-.5.02-1s-.18-.49-.21-.98c-.03-.49,0-.5-.03-.99s.12-.5.09-1-.17-.49-.2-.99c-.03-.5-.12-.49-.14-.99s.14-.51.11-1c-.03-.49.04-.5,0-1-.04-.5-.12-.49-.14-.99-.02-.5-.17-.49-.19-.99-.02-.5.17-.51.15-1-.02-.49-.3-.49-.32-.98-.02-.49.11-.51.09-1.01-.02-.5,0-.5-.02-1.01-.02-.51-.1-.5-.13-1-.03-.5.04-.5.01-1-.03-.5.09-.51.06-1.01-.03-.5-.13-.5-.15-1-.02-.5-.01-.5-.04-1-.03-.5-.25-.49-.28-.99-.03-.5.11-.51.08-1.01-.03-.5.15-.51.12-1.01-.03-.5-.21-.49-.24-1-.03-.51-.05-.5-.08-1.01-.03-.51.52-.84.12-1.15-.48-.36-.7.15-1.3.18-.6.03-.85-.42-1.29,0-.37.35-.06.61-.04,1.12.02.51.34.49.37,1,.03.51-.05.51-.03,1.02.02.51-.07.51-.04,1.02q.03.51.05,1.02c.02.51.13.5.16,1.01.03.51.13.5.16,1.01.03.51-.14.52-.11,1.03s-.13.52-.1,1.02c.03.5.08.5.11,1.01.03.51.12.5.15,1.01.03.51,0,.51.03,1.02.03.51,0,.51.02,1.02q.02.51.04,1.02c.02.51-.05.51-.03,1.03.02.52.21.5.24,1.01.03.51.04.51.07,1.02.03.51.07.51.09,1.01.02.5-.21.52-.18,1.03.03.51.1.51.13,1.02.03.51.05.52.16,1.02.12.53.28.56.15,1.06h.03Z" fill="#fff"/>
        <path d="M31.19,15.36c0-.15-.08-.53-.16-1.06-.05-.3-.18-.64-.26-1.03-.07-.32-.13-.67-.23-1.03-.09-.33-.11-.7-.23-1.04-.12-.34-.3-.64-.44-.97-.14-.33-.24-.67-.41-.98s-.41-.58-.61-.87-.46-.53-.71-.79c-.25-.26-.46-.55-.74-.76-.28-.21-.58-.43-.91-.56-.33-.14-.67-.26-.98-.41-.31-.15-.69-.23-1-.4s-.57-.46-.87-.64c-.32-.19-.63-.35-.92-.54-.31-.2-.68-.3-.95-.5-.3-.22-.56-.48-.82-.69-.3-.24-.55-.5-.79-.71-.31-.27-.57-.52-.78-.73-.48-.46-.56-1.23-.71-.73-.15.5-.05.49-.03,1,.02.51.04.51.07,1.01.03.5.12.5.14,1.01.02.51-.06.51-.03,1.02.03.51.03.5.06,1.01.03.51.02.51.05,1.01s-.04.51,0,1.02q.04.51.07,1.02c.03.51,0,.52.07,1.02.05.45.2.31.59.68.18.17.41.34.73.49.24.11.5.25.83.32.37.02.73-.02,1.07,0,.37.03.72.18,1.05.22.38.04.74-.02,1.07.03.38.06.71.19,1.03.27.38.09.71.21,1.02.32.37.14.71.24.99.4.34.2.55.5.77.73.26.27.44.55.59.85.15.3.35.61.45.96.11.35.16.76.25,1.16s.11.83.21,1.17c.16.5.42.79.75.82.29.02.52-.31.62-.83.07-.35,0-.77.03-1.15.02-.46.11-.88.11-1.14l-.04.02Z" fill="#fff"/>
      </g>
    </mask>
  </defs>
  <path d="M17.67,23.47c-.3-.1-.73-.16-1.07-.22-.31-.05-.62-.29-.96-.31-.32-.02-.65.28-.98.3-.32.01-.64,0-.97.03-.33.03-.64.03-.97.09-.33.06-.69-.09-1.01,0-.32.09-.63.2-.95.3s-.63.2-.94.31c-.31.11-.61.24-.92.37-.31.13-.51.45-.81.59-.32.16-.69.24-.99.41-.3.17-.64.33-.94.52-.3.19-.5.55-.78.75-.28.2-.53.48-.8.7s-.62.38-.88.62c-.26.25-.53.49-.76.75-.24.27-.45.56-.66.84-.22.3-.33.64-.5.94-.18.32-.44.59-.56.9-.13.35-.21.7-.26,1.03-.06.37-.15.72-.11,1.06s.2.68.36,1c.16.32.26.72.52.97.26.25.64.35.96.52.3.16.6.39.96.5.33.09.69.19,1.06.24.34.05.71-.14,1.08-.13.34,0,.7.08,1.06.06.34-.03.71,0,1.07-.06.36-.06.69-.16,1.05-.24s.7-.12,1.05-.23c.35-.11.69-.18,1.03-.31.34-.13.58-.46.92-.6s.76-.05,1.08-.21c.31-.15.49-.53.78-.69s.64-.25.92-.43c.28-.18.54-.41.81-.6.27-.19.59-.34.85-.55.26-.21.38-.59.63-.82.25-.23.61-.34.84-.58.24-.25.5-.47.7-.73.22-.27.45-.53.62-.81.19-.29.34-.61.48-.9.15-.32.21-.66.3-.97.1-.34.13-.67.15-.99.02-.35.09-.69.02-1.01-.05-.5.05-.5.02-1s-.18-.49-.21-.98c-.03-.49,0-.5-.03-.99s.12-.5.09-1-.17-.49-.2-.99c-.03-.5-.12-.49-.14-.99s.14-.51.11-1c-.03-.49.04-.5,0-1-.04-.5-.12-.49-.14-.99-.02-.5-.17-.49-.19-.99-.02-.5.17-.51.15-1-.02-.49-.3-.49-.32-.98-.02-.49.11-.51.09-1.01-.02-.5,0-.5-.02-1.01-.02-.51-.1-.5-.13-1-.03-.5.04-.5.01-1-.03-.5.09-.51.06-1.01-.03-.5-.13-.5-.15-1-.02-.5-.01-.5-.04-1-.03-.5-.25-.49-.28-.99-.03-.5.11-.51.08-1.01-.03-.5.15-.51.12-1.01-.03-.5-.21-.49-.24-1-.03-.51-.05-.5-.08-1.01-.03-.51.52-.84.12-1.15-.48-.36-.7.15-1.3.18-.6.03-.85-.42-1.29,0-.37.35-.06.61-.04,1.12.02.51.34.49.37,1,.03.51-.05.51-.03,1.02.02.51-.07.51-.04,1.02q.03.51.05,1.02c.02.51.13.5.16,1.01.03.51.13.5.16,1.01.03.51-.14.52-.11,1.03s-.13.52-.1,1.02c.03.5.08.5.11,1.01.03.51.12.5.15,1.01.03.51,0,.51.03,1.02.03.51,0,.51.02,1.02q.02.51.04,1.02c.02.51-.05.51-.03,1.03.02.52.21.5.24,1.01.03.51.04.51.07,1.02.03.51.07.51.09,1.01.02.5-.21.52-.18,1.03.03.51.1.51.13,1.02.03.51.05.52.16,1.02.12.53.28.56.15,1.06h.03Z" fill="url(#USGS_19_침수_지역_3)" stroke="#000" stroke-linecap="round" stroke-linejoin="round"/>
  <path d="M31.19,15.36c0-.15-.08-.53-.16-1.06-.05-.3-.18-.64-.26-1.03-.07-.32-.13-.67-.23-1.03-.09-.33-.11-.7-.23-1.04-.12-.34-.3-.64-.44-.97-.14-.33-.24-.67-.41-.98s-.41-.58-.61-.87-.46-.53-.71-.79c-.25-.26-.46-.55-.74-.76-.28-.21-.58-.43-.91-.56-.33-.14-.67-.26-.98-.41-.31-.15-.69-.23-1-.4s-.57-.46-.87-.64c-.32-.19-.63-.35-.92-.54-.31-.2-.68-.3-.95-.5-.3-.22-.56-.48-.82-.69-.3-.24-.55-.5-.79-.71-.31-.27-.57-.52-.78-.73-.48-.46-.56-1.23-.71-.73-.15.5-.05.49-.03,1,.02.51.04.51.07,1.01.03.5.12.5.14,1.01.02.51-.06.51-.03,1.02.03.51.03.5.06,1.01.03.51.02.51.05,1.01s-.04.51,0,1.02q.04.51.07,1.02c.03.51,0,.52.07,1.02.05.45.2.31.59.68.18.17.41.34.73.49.24.11.5.25.83.32.37.02.73-.02,1.07,0,.37.03.72.18,1.05.22.38.04.74-.02,1.07.03.38.06.71.19,1.03.27.38.09.71.21,1.02.32.37.14.71.24.99.4.34.2.55.5.77.73.26.27.44.55.59.85.15.3.35.61.45.96.11.35.16.76.25,1.16s.11.83.21,1.17c.16.5.42.79.75.82.29.02.52-.31.62-.83.07-.35,0-.77.03-1.15.02-.46.11-.88.11-1.14l-.04.02Z" fill="url(#USGS_19_침수_지역_3)" stroke="#000" stroke-linecap="round" stroke-linejoin="round"/>
  <g mask="url(#mask)">
    <path d="M17.67,23.47c-.3-.1-.73-.16-1.07-.22-.31-.05-.62-.29-.96-.31-.32-.02-.65.28-.98.3-.32.01-.64,0-.97.03-.33.03-.64.03-.97.09-.33.06-.69-.09-1.01,0-.32.09-.63.2-.95.3s-.63.2-.94.31c-.31.11-.61.24-.92.37-.31.13-.51.45-.81.59-.32.16-.69.24-.99.41-.3.17-.64.33-.94.52-.3.19-.5.55-.78.75-.28.2-.53.48-.8.7s-.62.38-.88.62c-.26.25-.53.49-.76.75-.24.27-.45.56-.66.84-.22.3-.33.64-.5.94-.18.32-.44.59-.56.9-.13.35-.21.7-.26,1.03-.06.37-.15.72-.11,1.06s.2.68.36,1c.16.32.26.72.52.97.26.25.64.35.96.52.3.16.6.39.96.5.33.09.69.19,1.06.24.34.05.71-.14,1.08-.13.34,0,.7.08,1.06.06.34-.03.71,0,1.07-.06.36-.06.69-.16,1.05-.24s.7-.12,1.05-.23c.35-.11.69-.18,1.03-.31.34-.13.58-.46.92-.6s.76-.05,1.08-.21c.31-.15.49-.53.78-.69s.64-.25.92-.43c.28-.18.54-.41.81-.6.27-.19.59-.34.85-.55.26-.21.38-.59.63-.82.25-.23.61-.34.84-.58.24-.25.5-.47.7-.73.22-.27.45-.53.62-.81.19-.29.34-.61.48-.9.15-.32.21-.66.3-.97.1-.34.13-.67.15-.99.02-.35.09-.69.02-1.01-.05-.5.05-.5.02-1s-.18-.49-.21-.98c-.03-.49,0-.5-.03-.99s.12-.5.09-1-.17-.49-.2-.99c-.03-.5-.12-.49-.14-.99s.14-.51.11-1c-.03-.49.04-.5,0-1-.04-.5-.12-.49-.14-.99-.02-.5-.17-.49-.19-.99-.02-.5.17-.51.15-1-.02-.49-.3-.49-.32-.98-.02-.49.11-.51.09-1.01-.02-.5,0-.5-.02-1.01-.02-.51-.1-.5-.13-1-.03-.5.04-.5.01-1-.03-.5.09-.51.06-1.01-.03-.5-.13-.5-.15-1-.02-.5-.01-.5-.04-1-.03-.5-.25-.49-.28-.99-.03-.5.11-.51.08-1.01-.03-.5.15-.51.12-1.01-.03-.5-.21-.49-.24-1-.03-.51-.05-.5-.08-1.01-.03-.51.52-.84.12-1.15-.48-.36-.7.15-1.3.18-.6.03-.85-.42-1.29,0-.37.35-.06.61-.04,1.12.02.51.34.49.37,1,.03.51-.05.51-.03,1.02.02.51-.07.51-.04,1.02q.03.51.05,1.02c.02.51.13.5.16,1.01.03.51.13.5.16,1.01.03.51-.14.52-.11,1.03s-.13.52-.1,1.02c.03.5.08.5.11,1.01.03.51.12.5.15,1.01.03.51,0,.51.03,1.02.03.51,0,.51.02,1.02q.02.51.04,1.02c.02.51-.05.51-.03,1.03.02.52.21.5.24,1.01.03.51.04.51.07,1.02.03.51.07.51.09,1.01.02.5-.21.52-.18,1.03.03.51.1.51.13,1.02.03.51.05.52.16,1.02.12.53.28.56.15,1.06h.03Z" fill="none" stroke="#000" stroke-width="2"/>
  </g>
  <g mask="url(#mask-1)">
    <path d="M31.19,15.36c0-.15-.08-.53-.16-1.06-.05-.3-.18-.64-.26-1.03-.07-.32-.13-.67-.23-1.03-.09-.33-.11-.7-.23-1.04-.12-.34-.3-.64-.44-.97-.14-.33-.24-.67-.41-.98s-.41-.58-.61-.87-.46-.53-.71-.79c-.25-.26-.46-.55-.74-.76-.28-.21-.58-.43-.91-.56-.33-.14-.67-.26-.98-.41-.31-.15-.69-.23-1-.4s-.57-.46-.87-.64c-.32-.19-.63-.35-.92-.54-.31-.2-.68-.3-.95-.5-.3-.22-.56-.48-.82-.69-.3-.24-.55-.5-.79-.71-.31-.27-.57-.52-.78-.73-.48-.46-.56-1.23-.71-.73-.15.5-.05.49-.03,1,.02.51.04.51.07,1.01.03.5.12.5.14,1.01.02.51-.06.51-.03,1.02.03.51.03.5.06,1.01.03.51.02.51.05,1.01s-.04.51,0,1.02q.04.51.07,1.02c.03.51,0,.52.07,1.02.05.45.2.31.59.68.18.17.41.34.73.49.24.11.5.25.83.32.37.02.73-.02,1.07,0,.37.03.72.18,1.05.22.38.04.74-.02,1.07.03.38.06.71.19,1.03.27.38.09.71.21,1.02.32.37.14.71.24.99.4.34.2.55.5.77.73.26.27.44.55.59.85.15.3.35.61.45.96.11.35.16.76.25,1.16s.11.83.21,1.17c.16.5.42.79.75.82.29.02.52-.31.62-.83.07-.35,0-.77.03-1.15.02-.46.11-.88.11-1.14l-.04.02Z" fill="none" stroke="#000" stroke-width="2"/>
  </g>
</svg>