<svg width="32" height="39" viewBox="0 0 32 39" fill="none" xmlns="http://www.w3.org/2000/svg">
<mask id="path-1-inside-1_1886_4132" fill="white">
<path d="M17.6698 23.4697C17.3698 23.3697 16.9398 23.3097 16.5998 23.2497C16.2898 23.1997 15.9798 22.9597 15.6398 22.9397C15.3198 22.9197 14.9898 23.2197 14.6598 23.2397C14.3398 23.2497 14.0198 23.2397 13.6898 23.2697C13.3598 23.2997 13.0498 23.2997 12.7198 23.3597C12.3898 23.4197 12.0298 23.2697 11.7098 23.3597C11.3898 23.4497 11.0798 23.5597 10.7598 23.6597C10.4398 23.7597 10.1298 23.8597 9.81976 23.9697C9.50976 24.0797 9.20976 24.2097 8.89976 24.3397C8.58976 24.4697 8.38976 24.7897 8.08976 24.9297C7.76976 25.0897 7.39976 25.1697 7.09976 25.3397C6.79976 25.5097 6.45976 25.6697 6.15976 25.8597C5.85976 26.0497 5.65976 26.4097 5.37976 26.6097C5.09976 26.8097 4.84976 27.0897 4.57976 27.3097C4.30976 27.5297 3.95976 27.6897 3.69976 27.9297C3.43976 28.1797 3.16976 28.4197 2.93976 28.6797C2.69976 28.9497 2.48976 29.2397 2.27976 29.5197C2.05976 29.8197 1.94976 30.1597 1.77976 30.4597C1.59976 30.7797 1.33976 31.0497 1.21976 31.3597C1.08976 31.7097 1.00976 32.0597 0.95976 32.3897C0.89976 32.7597 0.80976 33.1097 0.84976 33.4497C0.88976 33.7897 1.04976 34.1297 1.20976 34.4497C1.36976 34.7697 1.46976 35.1697 1.72976 35.4197C1.98976 35.6697 2.36976 35.7697 2.68976 35.9397C2.98976 36.0997 3.28976 36.3297 3.64976 36.4397C3.97976 36.5297 4.33976 36.6297 4.70976 36.6797C5.04976 36.7297 5.41976 36.5397 5.78976 36.5497C6.12976 36.5497 6.48976 36.6297 6.84976 36.6097C7.18976 36.5797 7.55976 36.6097 7.91976 36.5497C8.27976 36.4897 8.60976 36.3897 8.96976 36.3097C9.32976 36.2297 9.66976 36.1897 10.0198 36.0797C10.3698 35.9697 10.7098 35.8997 11.0498 35.7697C11.3898 35.6397 11.6298 35.3097 11.9698 35.1697C12.3098 35.0297 12.7298 35.1197 13.0498 34.9597C13.3598 34.8097 13.5398 34.4297 13.8298 34.2697C14.1198 34.1097 14.4698 34.0197 14.7498 33.8397C15.0298 33.6597 15.2898 33.4297 15.5598 33.2397C15.8298 33.0497 16.1498 32.8997 16.4098 32.6897C16.6698 32.4797 16.7898 32.0997 17.0398 31.8697C17.2898 31.6397 17.6498 31.5297 17.8798 31.2897C18.1198 31.0397 18.3798 30.8197 18.5798 30.5597C18.7998 30.2897 19.0298 30.0297 19.1998 29.7497C19.3898 29.4597 19.5398 29.1397 19.6798 28.8497C19.8298 28.5297 19.8898 28.1897 19.9798 27.8797C20.0798 27.5397 20.1098 27.2097 20.1298 26.8897C20.1498 26.5397 20.2198 26.1997 20.1498 25.8797C20.0998 25.3797 20.1998 25.3797 20.1698 24.8797C20.1398 24.3797 19.9898 24.3897 19.9598 23.8997C19.9298 23.4097 19.9598 23.3997 19.9298 22.9097C19.8998 22.4197 20.0498 22.4097 20.0198 21.9097C19.9898 21.4097 19.8498 21.4197 19.8198 20.9197C19.7898 20.4197 19.6998 20.4297 19.6798 19.9297C19.6598 19.4297 19.8198 19.4197 19.7898 18.9297C19.7598 18.4397 19.8298 18.4297 19.7898 17.9297C19.7498 17.4297 19.6698 17.4397 19.6498 16.9397C19.6298 16.4397 19.4798 16.4497 19.4598 15.9497C19.4398 15.4497 19.6298 15.4397 19.6098 14.9497C19.5898 14.4597 19.3098 14.4597 19.2898 13.9697C19.2698 13.4797 19.3998 13.4597 19.3798 12.9597C19.3598 12.4597 19.3798 12.4597 19.3598 11.9497C19.3398 11.4397 19.2598 11.4497 19.2298 10.9497C19.1998 10.4497 19.2698 10.4497 19.2398 9.94969C19.2098 9.44969 19.3298 9.43969 19.2998 8.93969C19.2698 8.43969 19.1698 8.43969 19.1498 7.93969C19.1298 7.43969 19.1398 7.43969 19.1098 6.93969C19.0798 6.43969 18.8598 6.44969 18.8298 5.94969C18.7998 5.44969 18.9398 5.43969 18.9098 4.93969C18.8798 4.43969 19.0598 4.4297 19.0298 3.9297C18.9998 3.4297 18.8198 3.4397 18.7898 2.9297C18.7598 2.4197 18.7398 2.4297 18.7098 1.9197C18.6798 1.4097 19.2298 1.0797 18.8298 0.769695C18.3498 0.409695 18.1298 0.919695 17.5298 0.949695C16.9298 0.979695 16.6798 0.529695 16.2398 0.939695C15.8698 1.2897 16.1798 1.5497 16.1998 2.0597C16.2198 2.56969 16.5398 2.5497 16.5698 3.0597C16.5998 3.56969 16.5198 3.56969 16.5398 4.07969C16.5598 4.58969 16.4698 4.58969 16.4998 5.09969C16.5298 5.60969 16.5298 5.60969 16.5498 6.11969C16.5698 6.62969 16.6798 6.61969 16.7098 7.12969C16.7398 7.63969 16.8398 7.6297 16.8698 8.1397C16.8998 8.6497 16.7298 8.65969 16.7598 9.16969C16.7898 9.67969 16.6298 9.68969 16.6598 10.1897C16.6898 10.6897 16.7398 10.6897 16.7698 11.1997C16.7998 11.7097 16.8898 11.6997 16.9198 12.2097C16.9498 12.7197 16.9198 12.7197 16.9498 13.2297C16.9798 13.7397 16.9498 13.7397 16.9698 14.2497C16.9898 14.7597 16.9898 14.7597 17.0098 15.2697C17.0298 15.7797 16.9598 15.7797 16.9798 16.2997C16.9998 16.8197 17.1898 16.7997 17.2198 17.3097C17.2498 17.8197 17.2598 17.8197 17.2898 18.3297C17.3198 18.8397 17.3598 18.8397 17.3798 19.3397C17.3998 19.8397 17.1698 19.8597 17.1998 20.3697C17.2298 20.8797 17.2998 20.8797 17.3298 21.3897C17.3598 21.8997 17.3798 21.9097 17.4898 22.4097C17.6098 22.9397 17.7698 22.9697 17.6398 23.4697H17.6698Z"/>
<path d="M31.1898 15.3597C31.1898 15.2097 31.1098 14.8297 31.0298 14.2997C30.9798 13.9997 30.8498 13.6597 30.7698 13.2697C30.6998 12.9497 30.6398 12.5997 30.5398 12.2397C30.4498 11.9097 30.4298 11.5397 30.3098 11.1997C30.1898 10.8597 30.0098 10.5597 29.8698 10.2297C29.7298 9.89969 29.6298 9.55969 29.4598 9.24969C29.2898 8.93969 29.0498 8.6697 28.8498 8.3797C28.6498 8.0897 28.3898 7.8497 28.1398 7.5897C27.8898 7.3297 27.6798 7.0397 27.3998 6.8297C27.1198 6.6197 26.8198 6.3997 26.4898 6.2697C26.1598 6.1297 25.8198 6.0097 25.5098 5.8597C25.1998 5.7097 24.8198 5.6297 24.5098 5.4597C24.1998 5.2897 23.9398 4.9997 23.6398 4.8197C23.3198 4.6297 23.0098 4.4697 22.7198 4.2797C22.4098 4.0797 22.0398 3.97969 21.7698 3.77969C21.4698 3.55969 21.2098 3.29969 20.9498 3.08969C20.6498 2.84969 20.3998 2.5897 20.1598 2.3797C19.8498 2.1097 19.5898 1.8597 19.3798 1.6497C18.8998 1.1897 18.8198 0.419695 18.6698 0.919695C18.5198 1.4197 18.6198 1.4097 18.6398 1.9197C18.6598 2.4297 18.6798 2.42969 18.7098 2.92969C18.7398 3.42969 18.8298 3.42969 18.8498 3.93969C18.8698 4.44969 18.7898 4.4497 18.8198 4.9597C18.8498 5.4697 18.8498 5.4597 18.8798 5.9697C18.9098 6.4797 18.8998 6.4797 18.9298 6.9797C18.9598 7.4797 18.8898 7.4897 18.9298 7.9997C18.9698 8.5097 18.9698 8.5097 18.9998 9.0197C19.0298 9.5297 18.9998 9.53969 19.0698 10.0397C19.1198 10.4897 19.2698 10.3497 19.6598 10.7197C19.8398 10.8897 20.0698 11.0597 20.3898 11.2097C20.6298 11.3197 20.8898 11.4597 21.2198 11.5297C21.5898 11.5497 21.9498 11.5097 22.2898 11.5297C22.6598 11.5597 23.0098 11.7097 23.3398 11.7497C23.7198 11.7897 24.0798 11.7297 24.4098 11.7797C24.7898 11.8397 25.1198 11.9697 25.4398 12.0497C25.8198 12.1397 26.1498 12.2597 26.4598 12.3697C26.8298 12.5097 27.1698 12.6097 27.4498 12.7697C27.7898 12.9697 27.9998 13.2697 28.2198 13.4997C28.4798 13.7697 28.6598 14.0497 28.8098 14.3497C28.9598 14.6497 29.1598 14.9597 29.2598 15.3097C29.3698 15.6597 29.4198 16.0697 29.5098 16.4697C29.5998 16.8697 29.6198 17.2997 29.7198 17.6397C29.8798 18.1397 30.1398 18.4297 30.4698 18.4597C30.7598 18.4797 30.9898 18.1497 31.0898 17.6297C31.1598 17.2797 31.0898 16.8597 31.1198 16.4797C31.1398 16.0197 31.2298 15.5997 31.2298 15.3397L31.1898 15.3597Z"/>
</mask>
<path d="M17.6698 23.4697C17.3698 23.3697 16.9398 23.3097 16.5998 23.2497C16.2898 23.1997 15.9798 22.9597 15.6398 22.9397C15.3198 22.9197 14.9898 23.2197 14.6598 23.2397C14.3398 23.2497 14.0198 23.2397 13.6898 23.2697C13.3598 23.2997 13.0498 23.2997 12.7198 23.3597C12.3898 23.4197 12.0298 23.2697 11.7098 23.3597C11.3898 23.4497 11.0798 23.5597 10.7598 23.6597C10.4398 23.7597 10.1298 23.8597 9.81976 23.9697C9.50976 24.0797 9.20976 24.2097 8.89976 24.3397C8.58976 24.4697 8.38976 24.7897 8.08976 24.9297C7.76976 25.0897 7.39976 25.1697 7.09976 25.3397C6.79976 25.5097 6.45976 25.6697 6.15976 25.8597C5.85976 26.0497 5.65976 26.4097 5.37976 26.6097C5.09976 26.8097 4.84976 27.0897 4.57976 27.3097C4.30976 27.5297 3.95976 27.6897 3.69976 27.9297C3.43976 28.1797 3.16976 28.4197 2.93976 28.6797C2.69976 28.9497 2.48976 29.2397 2.27976 29.5197C2.05976 29.8197 1.94976 30.1597 1.77976 30.4597C1.59976 30.7797 1.33976 31.0497 1.21976 31.3597C1.08976 31.7097 1.00976 32.0597 0.95976 32.3897C0.89976 32.7597 0.80976 33.1097 0.84976 33.4497C0.88976 33.7897 1.04976 34.1297 1.20976 34.4497C1.36976 34.7697 1.46976 35.1697 1.72976 35.4197C1.98976 35.6697 2.36976 35.7697 2.68976 35.9397C2.98976 36.0997 3.28976 36.3297 3.64976 36.4397C3.97976 36.5297 4.33976 36.6297 4.70976 36.6797C5.04976 36.7297 5.41976 36.5397 5.78976 36.5497C6.12976 36.5497 6.48976 36.6297 6.84976 36.6097C7.18976 36.5797 7.55976 36.6097 7.91976 36.5497C8.27976 36.4897 8.60976 36.3897 8.96976 36.3097C9.32976 36.2297 9.66976 36.1897 10.0198 36.0797C10.3698 35.9697 10.7098 35.8997 11.0498 35.7697C11.3898 35.6397 11.6298 35.3097 11.9698 35.1697C12.3098 35.0297 12.7298 35.1197 13.0498 34.9597C13.3598 34.8097 13.5398 34.4297 13.8298 34.2697C14.1198 34.1097 14.4698 34.0197 14.7498 33.8397C15.0298 33.6597 15.2898 33.4297 15.5598 33.2397C15.8298 33.0497 16.1498 32.8997 16.4098 32.6897C16.6698 32.4797 16.7898 32.0997 17.0398 31.8697C17.2898 31.6397 17.6498 31.5297 17.8798 31.2897C18.1198 31.0397 18.3798 30.8197 18.5798 30.5597C18.7998 30.2897 19.0298 30.0297 19.1998 29.7497C19.3898 29.4597 19.5398 29.1397 19.6798 28.8497C19.8298 28.5297 19.8898 28.1897 19.9798 27.8797C20.0798 27.5397 20.1098 27.2097 20.1298 26.8897C20.1498 26.5397 20.2198 26.1997 20.1498 25.8797C20.0998 25.3797 20.1998 25.3797 20.1698 24.8797C20.1398 24.3797 19.9898 24.3897 19.9598 23.8997C19.9298 23.4097 19.9598 23.3997 19.9298 22.9097C19.8998 22.4197 20.0498 22.4097 20.0198 21.9097C19.9898 21.4097 19.8498 21.4197 19.8198 20.9197C19.7898 20.4197 19.6998 20.4297 19.6798 19.9297C19.6598 19.4297 19.8198 19.4197 19.7898 18.9297C19.7598 18.4397 19.8298 18.4297 19.7898 17.9297C19.7498 17.4297 19.6698 17.4397 19.6498 16.9397C19.6298 16.4397 19.4798 16.4497 19.4598 15.9497C19.4398 15.4497 19.6298 15.4397 19.6098 14.9497C19.5898 14.4597 19.3098 14.4597 19.2898 13.9697C19.2698 13.4797 19.3998 13.4597 19.3798 12.9597C19.3598 12.4597 19.3798 12.4597 19.3598 11.9497C19.3398 11.4397 19.2598 11.4497 19.2298 10.9497C19.1998 10.4497 19.2698 10.4497 19.2398 9.94969C19.2098 9.44969 19.3298 9.43969 19.2998 8.93969C19.2698 8.43969 19.1698 8.43969 19.1498 7.93969C19.1298 7.43969 19.1398 7.43969 19.1098 6.93969C19.0798 6.43969 18.8598 6.44969 18.8298 5.94969C18.7998 5.44969 18.9398 5.43969 18.9098 4.93969C18.8798 4.43969 19.0598 4.4297 19.0298 3.9297C18.9998 3.4297 18.8198 3.4397 18.7898 2.9297C18.7598 2.4197 18.7398 2.4297 18.7098 1.9197C18.6798 1.4097 19.2298 1.0797 18.8298 0.769695C18.3498 0.409695 18.1298 0.919695 17.5298 0.949695C16.9298 0.979695 16.6798 0.529695 16.2398 0.939695C15.8698 1.2897 16.1798 1.5497 16.1998 2.0597C16.2198 2.56969 16.5398 2.5497 16.5698 3.0597C16.5998 3.56969 16.5198 3.56969 16.5398 4.07969C16.5598 4.58969 16.4698 4.58969 16.4998 5.09969C16.5298 5.60969 16.5298 5.60969 16.5498 6.11969C16.5698 6.62969 16.6798 6.61969 16.7098 7.12969C16.7398 7.63969 16.8398 7.6297 16.8698 8.1397C16.8998 8.6497 16.7298 8.65969 16.7598 9.16969C16.7898 9.67969 16.6298 9.68969 16.6598 10.1897C16.6898 10.6897 16.7398 10.6897 16.7698 11.1997C16.7998 11.7097 16.8898 11.6997 16.9198 12.2097C16.9498 12.7197 16.9198 12.7197 16.9498 13.2297C16.9798 13.7397 16.9498 13.7397 16.9698 14.2497C16.9898 14.7597 16.9898 14.7597 17.0098 15.2697C17.0298 15.7797 16.9598 15.7797 16.9798 16.2997C16.9998 16.8197 17.1898 16.7997 17.2198 17.3097C17.2498 17.8197 17.2598 17.8197 17.2898 18.3297C17.3198 18.8397 17.3598 18.8397 17.3798 19.3397C17.3998 19.8397 17.1698 19.8597 17.1998 20.3697C17.2298 20.8797 17.2998 20.8797 17.3298 21.3897C17.3598 21.8997 17.3798 21.9097 17.4898 22.4097C17.6098 22.9397 17.7698 22.9697 17.6398 23.4697H17.6698Z" fill="#FF7F81"/>
<path d="M31.1898 15.3597C31.1898 15.2097 31.1098 14.8297 31.0298 14.2997C30.9798 13.9997 30.8498 13.6597 30.7698 13.2697C30.6998 12.9497 30.6398 12.5997 30.5398 12.2397C30.4498 11.9097 30.4298 11.5397 30.3098 11.1997C30.1898 10.8597 30.0098 10.5597 29.8698 10.2297C29.7298 9.89969 29.6298 9.55969 29.4598 9.24969C29.2898 8.93969 29.0498 8.6697 28.8498 8.3797C28.6498 8.0897 28.3898 7.8497 28.1398 7.5897C27.8898 7.3297 27.6798 7.0397 27.3998 6.8297C27.1198 6.6197 26.8198 6.3997 26.4898 6.2697C26.1598 6.1297 25.8198 6.0097 25.5098 5.8597C25.1998 5.7097 24.8198 5.6297 24.5098 5.4597C24.1998 5.2897 23.9398 4.9997 23.6398 4.8197C23.3198 4.6297 23.0098 4.4697 22.7198 4.2797C22.4098 4.0797 22.0398 3.97969 21.7698 3.77969C21.4698 3.55969 21.2098 3.29969 20.9498 3.08969C20.6498 2.84969 20.3998 2.5897 20.1598 2.3797C19.8498 2.1097 19.5898 1.8597 19.3798 1.6497C18.8998 1.1897 18.8198 0.419695 18.6698 0.919695C18.5198 1.4197 18.6198 1.4097 18.6398 1.9197C18.6598 2.4297 18.6798 2.42969 18.7098 2.92969C18.7398 3.42969 18.8298 3.42969 18.8498 3.93969C18.8698 4.44969 18.7898 4.4497 18.8198 4.9597C18.8498 5.4697 18.8498 5.4597 18.8798 5.9697C18.9098 6.4797 18.8998 6.4797 18.9298 6.9797C18.9598 7.4797 18.8898 7.4897 18.9298 7.9997C18.9698 8.5097 18.9698 8.5097 18.9998 9.0197C19.0298 9.5297 18.9998 9.53969 19.0698 10.0397C19.1198 10.4897 19.2698 10.3497 19.6598 10.7197C19.8398 10.8897 20.0698 11.0597 20.3898 11.2097C20.6298 11.3197 20.8898 11.4597 21.2198 11.5297C21.5898 11.5497 21.9498 11.5097 22.2898 11.5297C22.6598 11.5597 23.0098 11.7097 23.3398 11.7497C23.7198 11.7897 24.0798 11.7297 24.4098 11.7797C24.7898 11.8397 25.1198 11.9697 25.4398 12.0497C25.8198 12.1397 26.1498 12.2597 26.4598 12.3697C26.8298 12.5097 27.1698 12.6097 27.4498 12.7697C27.7898 12.9697 27.9998 13.2697 28.2198 13.4997C28.4798 13.7697 28.6598 14.0497 28.8098 14.3497C28.9598 14.6497 29.1598 14.9597 29.2598 15.3097C29.3698 15.6597 29.4198 16.0697 29.5098 16.4697C29.5998 16.8697 29.6198 17.2997 29.7198 17.6397C29.8798 18.1397 30.1398 18.4297 30.4698 18.4597C30.7598 18.4797 30.9898 18.1497 31.0898 17.6297C31.1598 17.2797 31.0898 16.8597 31.1198 16.4797C31.1398 16.0197 31.2298 15.5997 31.2298 15.3397L31.1898 15.3597Z" fill="#FF7F81"/>
<path d="M17.6698 23.4697C17.3698 23.3697 16.9398 23.3097 16.5998 23.2497C16.2898 23.1997 15.9798 22.9597 15.6398 22.9397C15.3198 22.9197 14.9898 23.2197 14.6598 23.2397C14.3398 23.2497 14.0198 23.2397 13.6898 23.2697C13.3598 23.2997 13.0498 23.2997 12.7198 23.3597C12.3898 23.4197 12.0298 23.2697 11.7098 23.3597C11.3898 23.4497 11.0798 23.5597 10.7598 23.6597C10.4398 23.7597 10.1298 23.8597 9.81976 23.9697C9.50976 24.0797 9.20976 24.2097 8.89976 24.3397C8.58976 24.4697 8.38976 24.7897 8.08976 24.9297C7.76976 25.0897 7.39976 25.1697 7.09976 25.3397C6.79976 25.5097 6.45976 25.6697 6.15976 25.8597C5.85976 26.0497 5.65976 26.4097 5.37976 26.6097C5.09976 26.8097 4.84976 27.0897 4.57976 27.3097C4.30976 27.5297 3.95976 27.6897 3.69976 27.9297C3.43976 28.1797 3.16976 28.4197 2.93976 28.6797C2.69976 28.9497 2.48976 29.2397 2.27976 29.5197C2.05976 29.8197 1.94976 30.1597 1.77976 30.4597C1.59976 30.7797 1.33976 31.0497 1.21976 31.3597C1.08976 31.7097 1.00976 32.0597 0.95976 32.3897C0.89976 32.7597 0.80976 33.1097 0.84976 33.4497C0.88976 33.7897 1.04976 34.1297 1.20976 34.4497C1.36976 34.7697 1.46976 35.1697 1.72976 35.4197C1.98976 35.6697 2.36976 35.7697 2.68976 35.9397C2.98976 36.0997 3.28976 36.3297 3.64976 36.4397C3.97976 36.5297 4.33976 36.6297 4.70976 36.6797C5.04976 36.7297 5.41976 36.5397 5.78976 36.5497C6.12976 36.5497 6.48976 36.6297 6.84976 36.6097C7.18976 36.5797 7.55976 36.6097 7.91976 36.5497C8.27976 36.4897 8.60976 36.3897 8.96976 36.3097C9.32976 36.2297 9.66976 36.1897 10.0198 36.0797C10.3698 35.9697 10.7098 35.8997 11.0498 35.7697C11.3898 35.6397 11.6298 35.3097 11.9698 35.1697C12.3098 35.0297 12.7298 35.1197 13.0498 34.9597C13.3598 34.8097 13.5398 34.4297 13.8298 34.2697C14.1198 34.1097 14.4698 34.0197 14.7498 33.8397C15.0298 33.6597 15.2898 33.4297 15.5598 33.2397C15.8298 33.0497 16.1498 32.8997 16.4098 32.6897C16.6698 32.4797 16.7898 32.0997 17.0398 31.8697C17.2898 31.6397 17.6498 31.5297 17.8798 31.2897C18.1198 31.0397 18.3798 30.8197 18.5798 30.5597C18.7998 30.2897 19.0298 30.0297 19.1998 29.7497C19.3898 29.4597 19.5398 29.1397 19.6798 28.8497C19.8298 28.5297 19.8898 28.1897 19.9798 27.8797C20.0798 27.5397 20.1098 27.2097 20.1298 26.8897C20.1498 26.5397 20.2198 26.1997 20.1498 25.8797C20.0998 25.3797 20.1998 25.3797 20.1698 24.8797C20.1398 24.3797 19.9898 24.3897 19.9598 23.8997C19.9298 23.4097 19.9598 23.3997 19.9298 22.9097C19.8998 22.4197 20.0498 22.4097 20.0198 21.9097C19.9898 21.4097 19.8498 21.4197 19.8198 20.9197C19.7898 20.4197 19.6998 20.4297 19.6798 19.9297C19.6598 19.4297 19.8198 19.4197 19.7898 18.9297C19.7598 18.4397 19.8298 18.4297 19.7898 17.9297C19.7498 17.4297 19.6698 17.4397 19.6498 16.9397C19.6298 16.4397 19.4798 16.4497 19.4598 15.9497C19.4398 15.4497 19.6298 15.4397 19.6098 14.9497C19.5898 14.4597 19.3098 14.4597 19.2898 13.9697C19.2698 13.4797 19.3998 13.4597 19.3798 12.9597C19.3598 12.4597 19.3798 12.4597 19.3598 11.9497C19.3398 11.4397 19.2598 11.4497 19.2298 10.9497C19.1998 10.4497 19.2698 10.4497 19.2398 9.94969C19.2098 9.44969 19.3298 9.43969 19.2998 8.93969C19.2698 8.43969 19.1698 8.43969 19.1498 7.93969C19.1298 7.43969 19.1398 7.43969 19.1098 6.93969C19.0798 6.43969 18.8598 6.44969 18.8298 5.94969C18.7998 5.44969 18.9398 5.43969 18.9098 4.93969C18.8798 4.43969 19.0598 4.4297 19.0298 3.9297C18.9998 3.4297 18.8198 3.4397 18.7898 2.9297C18.7598 2.4197 18.7398 2.4297 18.7098 1.9197C18.6798 1.4097 19.2298 1.0797 18.8298 0.769695C18.3498 0.409695 18.1298 0.919695 17.5298 0.949695C16.9298 0.979695 16.6798 0.529695 16.2398 0.939695C15.8698 1.2897 16.1798 1.5497 16.1998 2.0597C16.2198 2.56969 16.5398 2.5497 16.5698 3.0597C16.5998 3.56969 16.5198 3.56969 16.5398 4.07969C16.5598 4.58969 16.4698 4.58969 16.4998 5.09969C16.5298 5.60969 16.5298 5.60969 16.5498 6.11969C16.5698 6.62969 16.6798 6.61969 16.7098 7.12969C16.7398 7.63969 16.8398 7.6297 16.8698 8.1397C16.8998 8.6497 16.7298 8.65969 16.7598 9.16969C16.7898 9.67969 16.6298 9.68969 16.6598 10.1897C16.6898 10.6897 16.7398 10.6897 16.7698 11.1997C16.7998 11.7097 16.8898 11.6997 16.9198 12.2097C16.9498 12.7197 16.9198 12.7197 16.9498 13.2297C16.9798 13.7397 16.9498 13.7397 16.9698 14.2497C16.9898 14.7597 16.9898 14.7597 17.0098 15.2697C17.0298 15.7797 16.9598 15.7797 16.9798 16.2997C16.9998 16.8197 17.1898 16.7997 17.2198 17.3097C17.2498 17.8197 17.2598 17.8197 17.2898 18.3297C17.3198 18.8397 17.3598 18.8397 17.3798 19.3397C17.3998 19.8397 17.1698 19.8597 17.1998 20.3697C17.2298 20.8797 17.2998 20.8797 17.3298 21.3897C17.3598 21.8997 17.3798 21.9097 17.4898 22.4097C17.6098 22.9397 17.7698 22.9697 17.6398 23.4697H17.6698Z" stroke="black" stroke-width="2" mask="url(#path-1-inside-1_1886_4132)"/>
<path d="M31.1898 15.3597C31.1898 15.2097 31.1098 14.8297 31.0298 14.2997C30.9798 13.9997 30.8498 13.6597 30.7698 13.2697C30.6998 12.9497 30.6398 12.5997 30.5398 12.2397C30.4498 11.9097 30.4298 11.5397 30.3098 11.1997C30.1898 10.8597 30.0098 10.5597 29.8698 10.2297C29.7298 9.89969 29.6298 9.55969 29.4598 9.24969C29.2898 8.93969 29.0498 8.6697 28.8498 8.3797C28.6498 8.0897 28.3898 7.8497 28.1398 7.5897C27.8898 7.3297 27.6798 7.0397 27.3998 6.8297C27.1198 6.6197 26.8198 6.3997 26.4898 6.2697C26.1598 6.1297 25.8198 6.0097 25.5098 5.8597C25.1998 5.7097 24.8198 5.6297 24.5098 5.4597C24.1998 5.2897 23.9398 4.9997 23.6398 4.8197C23.3198 4.6297 23.0098 4.4697 22.7198 4.2797C22.4098 4.0797 22.0398 3.97969 21.7698 3.77969C21.4698 3.55969 21.2098 3.29969 20.9498 3.08969C20.6498 2.84969 20.3998 2.5897 20.1598 2.3797C19.8498 2.1097 19.5898 1.8597 19.3798 1.6497C18.8998 1.1897 18.8198 0.419695 18.6698 0.919695C18.5198 1.4197 18.6198 1.4097 18.6398 1.9197C18.6598 2.4297 18.6798 2.42969 18.7098 2.92969C18.7398 3.42969 18.8298 3.42969 18.8498 3.93969C18.8698 4.44969 18.7898 4.4497 18.8198 4.9597C18.8498 5.4697 18.8498 5.4597 18.8798 5.9697C18.9098 6.4797 18.8998 6.4797 18.9298 6.9797C18.9598 7.4797 18.8898 7.4897 18.9298 7.9997C18.9698 8.5097 18.9698 8.5097 18.9998 9.0197C19.0298 9.5297 18.9998 9.53969 19.0698 10.0397C19.1198 10.4897 19.2698 10.3497 19.6598 10.7197C19.8398 10.8897 20.0698 11.0597 20.3898 11.2097C20.6298 11.3197 20.8898 11.4597 21.2198 11.5297C21.5898 11.5497 21.9498 11.5097 22.2898 11.5297C22.6598 11.5597 23.0098 11.7097 23.3398 11.7497C23.7198 11.7897 24.0798 11.7297 24.4098 11.7797C24.7898 11.8397 25.1198 11.9697 25.4398 12.0497C25.8198 12.1397 26.1498 12.2597 26.4598 12.3697C26.8298 12.5097 27.1698 12.6097 27.4498 12.7697C27.7898 12.9697 27.9998 13.2697 28.2198 13.4997C28.4798 13.7697 28.6598 14.0497 28.8098 14.3497C28.9598 14.6497 29.1598 14.9597 29.2598 15.3097C29.3698 15.6597 29.4198 16.0697 29.5098 16.4697C29.5998 16.8697 29.6198 17.2997 29.7198 17.6397C29.8798 18.1397 30.1398 18.4297 30.4698 18.4597C30.7598 18.4797 30.9898 18.1497 31.0898 17.6297C31.1598 17.2797 31.0898 16.8597 31.1198 16.4797C31.1398 16.0197 31.2298 15.5997 31.2298 15.3397L31.1898 15.3597Z" stroke="black" stroke-width="2" mask="url(#path-1-inside-1_1886_4132)"/>
</svg>
