<?xml version="1.0" encoding="UTF-8"?>
<svg id="_아이콘" data-name="아이콘" xmlns="http://www.w3.org/2000/svg" width="70" height="52" xmlns:xlink="http://www.w3.org/1999/xlink" viewBox="0 0 70 52">
  <defs>
    <pattern id="_6_dpi_90_dot_pink" data-name="6 dpi 90 dot pink" x="0" y="0" width="48" height="48" patternTransform="translate(-1724.78 515.56)" patternUnits="userSpaceOnUse" viewBox="0 0 48 48">
      <g>
        <rect width="48" height="48" fill="none"/>
        <g>
          <path d="M24,58.8c5.96,0,10.8-4.83,10.8-10.8s-4.84-10.8-10.8-10.8-10.8,4.84-10.8,10.8,4.83,10.8,10.8,10.8Z" fill="#fcc"/>
          <circle cx="48" cy="48" r="10.8" fill="#fcc"/>
          <path d="M24,34.8c5.96,0,10.8-4.83,10.8-10.8s-4.84-10.8-10.8-10.8-10.8,4.84-10.8,10.8,4.83,10.8,10.8,10.8Z" fill="#fcc"/>
          <circle cx="48" cy="24" r="10.8" fill="#fcc"/>
          <path d="M36,46.8c5.96,0,10.8-4.83,10.8-10.8s-4.84-10.8-10.8-10.8-10.8,4.84-10.8,10.8,4.83,10.8,10.8,10.8Z" fill="#fcc"/>
          <path d="M12,46.8c5.96,0,10.8-4.83,10.8-10.8s-4.84-10.8-10.8-10.8S1.2,30.04,1.2,36s4.83,10.8,10.8,10.8Z" fill="#fcc"/>
          <path d="M36,22.8c5.96,0,10.8-4.83,10.8-10.8S41.96,1.2,36,1.2s-10.8,4.84-10.8,10.8,4.83,10.8,10.8,10.8Z" fill="#fcc"/>
          <path d="M12,22.8c5.96,0,10.8-4.83,10.8-10.8S17.96,1.2,12,1.2,1.2,6.04,1.2,12s4.83,10.8,10.8,10.8Z" fill="#fcc"/>
        </g>
        <g>
          <circle cy="48" r="10.8" fill="#fcc"/>
          <circle cy="24" r="10.8" fill="#fcc"/>
        </g>
        <g>
          <path d="M24,10.8c5.96,0,10.8-4.83,10.8-10.8s-4.84-10.8-10.8-10.8S13.2-5.96,13.2,0s4.83,10.8,10.8,10.8Z" fill="#fcc"/>
          <circle cx="48" r="10.8" fill="#fcc"/>
        </g>
        <circle r="10.8" fill="#fcc"/>
      </g>
    </pattern>
  </defs>
  <g>
    <path d="M25.57,1.33c-.17,1.09-.5,1.04-.67,2.13s.09,1.13-.07,2.22-.2,1.09-.37,2.18-.24,1.08-.4,2.18.5,1.44-.38,2.11c-.81.62-.91-.23-1.91-.43s-1.06.09-2.06-.11-.97-.37-1.97-.57-1.01-.13-2.02-.33-1.02-.11-2.02-.31-.95-.47-1.95-.67-.99-.29-1.99-.49c-.83-.17-1.57.81-1.16,1.46.55.86.56.85,1.11,1.71s.7.76,1.25,1.62.58.84,1.12,1.7.44.93.99,1.79.38.97.93,1.83.72.75,1.28,1.61.5.9,1.05,1.76,1.47.75,1.07,1.69c-.44,1-1.04.13-2.09.41s-1.01.44-2.06.72-1.08.17-2.14.45-.97.58-2.03.86-1.13,0-2.19.28-1.02.42-2.07.7c-.82.22-.92,1.17-.16,1.53.97.46.9.6,1.87,1.06s1.04.32,2,.78.95.5,1.92.96,1.03.34,2,.8.91.59,1.88,1.05,1.43-.05,1.79.97c.33.95-.34.82-.84,1.69s-.52.86-1.02,1.73-.53.86-1.03,1.73-.56.84-1.06,1.71-.42.92-.93,1.79c-.41.71.5,1.64,1.34,1.33.93-.35.87-.51,1.81-.86s.88-.48,1.81-.83,1.03-.08,1.97-.42.88-.5,1.81-.85.92-.38,1.85-.73,1-.17,1.94-.52.89-.48,1.82-.83,1.03-1.22,1.87-.69.15.98.23,1.97-.06,1,.03,1.99.36.97.45,1.96-.06,1,.03,1.99.12.99.21,1.98-.09,1.01,0,2c.07.77,1.23,1.02,1.78.41.7-.76.79-.67,1.49-1.43s.74-.72,1.44-1.48.72-.74,1.42-1.5.63-.83,1.33-1.59.68-.78,1.38-1.54.36-1.4,1.39-1.48c1.09-.09.97.47,1.87,1.09s.92.6,1.82,1.23.71.91,1.61,1.53,1.11.34,2.01.97.73.89,1.63,1.51.99.51,1.89,1.14c.64.45,1.56.05,1.56-.66,0-.96.14-.96.14-1.91s.05-.96.05-1.91-.17-.96-.17-1.92.11-.96.11-1.91.01-.96.01-1.92-.3-.96-.3-1.92-.5-1.24.18-1.92c.77-.78,1.09-.11,2.18-.24s1.1-.03,2.19-.16,1.08-.2,2.17-.33,1.08-.23,2.17-.36,1.08-.24,2.17-.37,1.11,0,2.2-.14,1.07-.3,2.16-.43c.83-.1,1.07-.7.43-1.18-.77-.58-.69-.7-1.46-1.28s-.79-.56-1.56-1.15-.85-.49-1.63-1.07-.7-.68-1.48-1.26-.73-.64-1.51-1.23-.69-.7-1.47-1.28-1.68-.06-1.59-1.03c.11-1.13.8-.74,1.69-1.44s.93-.66,1.83-1.35.83-.79,1.73-1.49.99-.58,1.89-1.28c.62-.48.31-1.52-.51-1.62-.96-.12-.95-.15-1.91-.27s-.98.09-1.94-.03-.94-.25-1.9-.37-.95-.18-1.91-.3-.98.09-1.94-.03-.95-.17-1.91-.29-.97-.01-1.93-.13-1.41.48-1.94-.32c-.6-.9.31-1.07.49-2.13s.23-1.06.41-2.12.03-1.09.2-2.15.31-1.04.49-2.11.1-1.08.27-2.15.1-1.08.27-2.15c.13-.79-.82-1.14-1.5-.6-.83.66-.98.47-1.81,1.13s-.89.59-1.72,1.25-.63.91-1.47,1.57-.94.53-1.77,1.18-.84.65-1.67,1.31-.78.72-1.62,1.38-.67,1.36-1.73,1.31c-.97-.05-.57-.85-1.21-1.58s-.75-.64-1.39-1.37-.61-.76-1.25-1.49-.77-.62-1.41-1.35-.52-.84-1.16-1.57-.56-.81-1.2-1.54-.73-.66-1.38-1.39c-.53-.6-1.46-.34-1.58.41Z" fill="url(#_6_dpi_90_dot_pink)"/>
    <path d="M25.57,1.33c-.17,1.09-.5,1.04-.67,2.13s.09,1.13-.07,2.22-.2,1.09-.37,2.18-.24,1.08-.4,2.18.5,1.44-.38,2.11c-.81.62-.91-.23-1.91-.43s-1.06.09-2.06-.11-.97-.37-1.97-.57-1.01-.13-2.02-.33-1.02-.11-2.02-.31-.95-.47-1.95-.67-.99-.29-1.99-.49c-.83-.17-1.57.81-1.16,1.46.55.86.56.85,1.11,1.71s.7.76,1.25,1.62.58.84,1.12,1.7.44.93.99,1.79.38.97.93,1.83.72.75,1.28,1.61.5.9,1.05,1.76,1.47.75,1.07,1.69c-.44,1-1.04.13-2.09.41s-1.01.44-2.06.72-1.08.17-2.14.45-.97.58-2.03.86-1.13,0-2.19.28-1.02.42-2.07.7c-.82.22-.92,1.17-.16,1.53.97.46.9.6,1.87,1.06s1.04.32,2,.78.95.5,1.92.96,1.03.34,2,.8.91.59,1.88,1.05,1.43-.05,1.79.97c.33.95-.34.82-.84,1.69s-.52.86-1.02,1.73-.53.86-1.03,1.73-.56.84-1.06,1.71-.42.92-.93,1.79c-.41.71.5,1.64,1.34,1.33.93-.35.87-.51,1.81-.86s.88-.48,1.81-.83,1.03-.08,1.97-.42.88-.5,1.81-.85.92-.38,1.85-.73,1-.17,1.94-.52.89-.48,1.82-.83,1.03-1.22,1.87-.69.15.98.23,1.97-.06,1,.03,1.99.36.97.45,1.96-.06,1,.03,1.99.12.99.21,1.98-.09,1.01,0,2c.07.77,1.23,1.02,1.78.41.7-.76.79-.67,1.49-1.43s.74-.72,1.44-1.48.72-.74,1.42-1.5.63-.83,1.33-1.59.68-.78,1.38-1.54.36-1.4,1.39-1.48c1.09-.09.97.47,1.87,1.09s.92.6,1.82,1.23.71.91,1.61,1.53,1.11.34,2.01.97.73.89,1.63,1.51.99.51,1.89,1.14c.64.45,1.56.05,1.56-.66,0-.96.14-.96.14-1.91s.05-.96.05-1.91-.17-.96-.17-1.92.11-.96.11-1.91.01-.96.01-1.92-.3-.96-.3-1.92-.5-1.24.18-1.92c.77-.78,1.09-.11,2.18-.24s1.1-.03,2.19-.16,1.08-.2,2.17-.33,1.08-.23,2.17-.36,1.08-.24,2.17-.37,1.11,0,2.2-.14,1.07-.3,2.16-.43c.83-.1,1.07-.7.43-1.18-.77-.58-.69-.7-1.46-1.28s-.79-.56-1.56-1.15-.85-.49-1.63-1.07-.7-.68-1.48-1.26-.73-.64-1.51-1.23-.69-.7-1.47-1.28-1.68-.06-1.59-1.03c.11-1.13.8-.74,1.69-1.44s.93-.66,1.83-1.35.83-.79,1.73-1.49.99-.58,1.89-1.28c.62-.48.31-1.52-.51-1.62-.96-.12-.95-.15-1.91-.27s-.98.09-1.94-.03-.94-.25-1.9-.37-.95-.18-1.91-.3-.98.09-1.94-.03-.95-.17-1.91-.29-.97-.01-1.93-.13-1.41.48-1.94-.32c-.6-.9.31-1.07.49-2.13s.23-1.06.41-2.12.03-1.09.2-2.15.31-1.04.49-2.11.1-1.08.27-2.15.1-1.08.27-2.15c.13-.79-.82-1.14-1.5-.6-.83.66-.98.47-1.81,1.13s-.89.59-1.72,1.25-.63.91-1.47,1.57-.94.53-1.77,1.18-.84.65-1.67,1.31-.78.72-1.62,1.38-.67,1.36-1.73,1.31c-.97-.05-.57-.85-1.21-1.58s-.75-.64-1.39-1.37-.61-.76-1.25-1.49-.77-.62-1.41-1.35-.52-.84-1.16-1.57-.56-.81-1.2-1.54-.73-.66-1.38-1.39c-.53-.6-1.46-.34-1.58.41Z" fill="none" stroke="#000" stroke-linecap="round" stroke-linejoin="bevel" stroke-width="1.01"/>
  </g>
  <path d="M29.24,20.29c0-3.39,3-3.39,3,0" fill="none" stroke="#000" stroke-miterlimit="10" stroke-width=".68"/>
  <path d="M39.06,20.25c0-3.39,3-3.39,3,0" fill="none" stroke="#000" stroke-miterlimit="10" stroke-width=".68"/>
  <circle cx="31.19" cy="23.86" r=".86" stroke="#000" stroke-miterlimit="10" stroke-width=".68"/>
  <circle cx="41.01" cy="23.86" r=".86" stroke="#000" stroke-miterlimit="10" stroke-width=".68"/>
  <circle cx="36.04" cy="33.69" r=".86" stroke="#000" stroke-miterlimit="10" stroke-width=".68"/>
  <polyline points="24.72 29.37 24.96 27.07 22.87 25.92 20.86 27.67 21.71 29.91 23.05 29.5 23.1 27.88" fill="none" stroke="#ff6464" stroke-linecap="round" stroke-linejoin="bevel" stroke-width=".75"/>
  <polyline points="50.43 29.69 51.09 27.49 49.2 26.03 46.94 27.45 47.45 29.8 48.83 29.6 49.12 28" fill="none" stroke="#ff6464" stroke-linecap="round" stroke-linejoin="bevel" stroke-width=".75"/>
</svg>