<svg width="228" height="235" viewBox="0 0 228 235" fill="none" xmlns="http://www.w3.org/2000/svg">
<path d="M10.0596 51.4891C10.0596 44.6576 8.4241 38.1578 8.13499 31.3636C7.9868 27.8813 6.08647 17.4 12.0941 21.9057C19.349 27.3469 23.9472 36.4961 31.6147 41.1514C36.1896 43.929 47.3422 40.6333 51.8502 39.5568C56.3031 38.4934 60.4495 36.5827 64.8823 35.5977C67.449 35.0273 68.8195 28.9865 69.5012 27.2395C71.504 22.1074 73.9151 17.1379 75.9348 12.008C76.9649 9.39152 77.3618 5.47971 78.8491 3.09995C81.6846 -1.43674 86.3166 9.40127 87.2623 11.3481C89.547 16.0519 88.085 21.7777 91.6613 25.8649C93.2411 27.6704 93.53 30.5918 94.4107 32.6833C95.2886 34.7684 97.1651 36.4097 98.3698 38.402C101.725 43.9515 109.364 46.8585 111.017 53.4687" stroke="#414141" stroke-width="3" stroke-linecap="round"/>
<path d="M11.0482 51.4902C7.18287 55.7851 4.37684 65.7673 2.63513 71.3408C1.60176 74.6476 2.14024 78.5167 2.14024 81.9534C2.14024 87.0896 7.02698 88.5567 9.83852 92.0711C22.0729 107.364 41.1337 103.948 58.7775 103.948C66.7333 103.948 72.7736 100.601 80.2777 98.6147C86.3762 97.0004 92.4639 95.4581 98.5336 93.6108C105.215 91.5775 114.494 86.9457 114.975 78.7641C115.49 70.004 119.757 58.0331 109.036 54.4596" stroke="#414141" stroke-width="3" stroke-linecap="round"/>
<path d="M51.629 59.4082C50.0259 59.5863 48.1319 61.9815 47.6699 63.3673" stroke="#414141" stroke-width="3" stroke-linecap="round"/>
<path d="M74.3945 50.5H79.3434" stroke="#414141" stroke-width="3" stroke-linecap="round"/>
<path d="M71.4258 63.3672H74.3951" stroke="#414141" stroke-width="3" stroke-linecap="round"/>
<path d="M20.9473 80.1926C25.5992 80.1926 29.3333 76.5814 32.8246 74.2539" stroke="#414141" stroke-width="3" stroke-linecap="round"/>
<path d="M28.8652 85.1427C29.1386 82.6821 32.8267 81.6779 34.8039 81.1836" stroke="#414141" stroke-width="3" stroke-linecap="round"/>
<path d="M94.1895 50.4998C94.4489 48.4245 98.5106 48.5202 100.128 48.5202" stroke="#414141" stroke-width="3" stroke-linecap="round"/>
<path d="M98.1484 53.4683C100.522 53.3365 102.675 52.4785 105.077 52.4785" stroke="#414141" stroke-width="3" stroke-linecap="round"/>
<path d="M49.0254 106.38C52.711 106.38 54.9565 111.095 56.4764 113.831C58.0295 116.627 65.6619 115.051 68.2413 114.964C74.1222 114.765 76.9252 115.051 79.4396 110.302C80.2477 108.775 81.2924 108.67 82.9255 108.733C87.2704 108.9 88.225 109.217 91.7709 106.38C93.3218 105.139 92.1631 96.8608 92.1631 94.6152" stroke="#414141" stroke-width="3" stroke-linecap="round"/>
<path d="M35.6915 104.027C35.6915 106.651 33.925 108.962 33.1643 111.435C31.4955 116.858 29.4476 121.612 28.2405 127.165C27.345 131.284 27.1345 137.584 29.5912 141.152C32.643 145.584 35.4089 149.156 36.8244 154.616C41.3099 171.917 62.0035 179.623 75.6048 188.691C80.1082 191.693 96.3023 181.245 92.5984 175.226C91.3273 173.161 90.2861 171.074 89.7661 168.734C89.0314 165.427 82.1312 164.522 79.6135 163.984C71.2096 162.189 63.954 158.778 61.3998 150.477C59.7463 145.103 56.8754 138.545 52.9466 134.616" stroke="#414141" stroke-width="3" stroke-linecap="round"/>
<path d="M28.6328 134.616C31.2444 133.455 38.0792 132.917 40.8334 133.919C44.0271 135.08 44.9087 147.339 45.7136 150.738C46.3665 153.494 43.0573 152.655 41.182 152.655" stroke="#414141" stroke-width="3" stroke-linecap="round"/>
<path d="M37.2598 125.988V134.616" stroke="#414141" stroke-width="3" stroke-linecap="round"/>
<path d="M39.6133 142.459H45.8879" stroke="#414141" stroke-width="3" stroke-linecap="round"/>
<path d="M63.1426 180.106C64.468 173.53 64.4706 166.454 71.7701 164.463C74.7018 163.663 76.486 162.066 79.5698 162.066C83.0255 162.066 88.1142 165.077 90.5503 167.513C96.2205 173.183 91.12 183.681 86.3236 188.385C79.5225 195.055 74.2608 190.44 68.6328 184.812" stroke="#414141" stroke-width="3" stroke-linecap="round"/>
<path d="M108.635 91.4777C124.292 88.9725 172.949 78.3562 172.949 107.164" stroke="#414141" stroke-width="3" stroke-linecap="round"/>
<path d="M123.535 103.242C133.448 101.843 141.278 100.085 150.507 103.634C153.165 104.657 157.146 105.651 157.871 108.733C158.141 109.88 158.045 111.092 158.045 112.262C158.045 115.146 165.63 110.968 166.804 110.432C169.185 109.343 171.545 109.432 167.762 110.693C165.786 111.352 162.561 111.207 160.834 112.306C153.214 117.155 162.654 122.959 167.457 124.332C170.195 125.114 175.215 122.778 175.3 119.713C175.451 114.289 173.972 112.291 169.81 109.517" stroke="#414141" stroke-width="3" stroke-linecap="round"/>
<path d="M121.183 104.811C121.078 111.025 118.981 115.735 120.399 121.761C121.617 126.938 123.763 131.203 125.802 135.791C126.791 138.017 126.143 142.775 127.632 144.637C130.388 148.081 129.955 151.299 125.889 152.654" stroke="#414141" stroke-width="3" stroke-linecap="round"/>
<path d="M128.242 152.655C136.104 142.082 143.185 129.434 152.556 120.062C156.738 115.88 161.149 115.008 166.674 115.008" stroke="#414141" stroke-width="3" stroke-linecap="round"/>
<path d="M176.086 121.281C178.253 127.003 180.418 133.083 183.145 138.536C184.162 140.57 185.155 142.638 185.846 144.811C186.482 146.81 186.06 150.102 187.894 151.478C189.435 152.634 190.39 155.557 191.772 156.401C194.632 158.149 198.428 158.352 201.489 159.713C203.42 160.571 205.788 161.944 206.674 163.94C206.901 164.45 208.585 164.466 207.459 165.029C206.244 165.636 204.055 165.203 202.753 165.203C197.062 165.203 192.229 165.988 186.631 165.988C183.116 165.988 179.601 165.988 176.086 165.988C173.05 165.988 174.517 159.268 174.517 156.924C174.517 153.69 174.593 150.877 173.559 147.774C171.705 142.214 166.917 147.728 164.234 149.517C157.837 153.781 153.413 162.093 146.717 165.813C144.3 167.156 140.478 168.454 138.831 170.65C137.74 172.105 135.52 174.615 133.732 174.615" stroke="#414141" stroke-width="3" stroke-linecap="round"/>
<path d="M63.1427 187.166C59.0235 187.331 55.4467 190.714 55.2995 194.835C55.0579 201.6 58.3483 203.555 65.4957 203.637C76.899 203.768 88.6421 204.304 100.006 203.462C108.163 202.858 116.26 199.715 124.32 199.715" stroke="#414141" stroke-width="3" stroke-linecap="round"/>
<path d="M92.9473 183.244C103.518 180.479 114.272 180.891 125.104 180.891C128.554 180.891 131.036 178.849 134.429 177.492C139.935 175.29 143.381 178 146.673 182.024C149.523 185.507 148.931 188.648 150.638 192.307C153.908 199.314 150.127 206.742 142.403 207.514C136.408 208.114 132.495 200.499 125.889 200.499" stroke="#414141" stroke-width="3" stroke-linecap="round"/>
<path d="M96.084 169.126C96.3738 172.313 100.242 168.633 101.836 167.731C104.193 166.398 106.267 164.982 108.938 164.42C110.738 164.041 112.721 162.622 113.165 160.76C113.961 157.414 113.307 152.241 117.653 152.698C120.966 153.047 128.488 153.483 129.81 149.518" stroke="#414141" stroke-width="3" stroke-linecap="round"/>
<path d="M61.5747 183.244C54.6737 185.873 47.8309 188.736 40.4416 189.475C38.3545 189.684 36.0508 189.092 34.0799 189.954C28.9312 192.207 21.7928 195.014 17.6527 198.931C11.2187 205.017 11.5816 206.733 16.4327 213.789C20.6207 219.881 28.0947 220.107 34.9078 220.107C35.9829 220.107 42.751 220.931 42.751 219.323C42.751 215.188 36.4344 212.908 33.3392 211.48C30.9954 210.398 29.4175 210.884 29.4175 207.95C29.4175 205.237 34.018 204.453 35.9971 203.593C37.9573 202.741 40.2806 200.931 42.141 199.715C44.8458 197.946 47.7093 196.164 50.0714 193.963C52.845 191.379 56.4608 189.916 60.0061 188.734" stroke="#414141" stroke-width="3" stroke-linecap="round"/>
<path d="M69.418 183.243C72.0292 183.113 74.6522 182.676 77.2612 182.459" stroke="#414141" stroke-width="3" stroke-linecap="round"/>
<path d="M204.322 187.949C197.971 189.318 191.259 191.628 184.714 191.871C182.22 191.963 179.141 192.716 176.87 193.788C174.846 194.744 170.797 198.259 173.385 200.847C178.734 206.196 188.384 204.42 195.694 204.42C198.439 204.42 201.184 204.42 203.93 204.42C206.871 204.42 207.764 201.863 210.161 200.585C212.09 199.556 214.262 199.458 215.476 197.361C217.184 194.412 214.058 189.767 211.293 188.385C206.238 185.857 198.714 189.321 194.125 191.086" stroke="#414141" stroke-width="3" stroke-linecap="round"/>
<path d="M173.732 204.421C174.37 208.034 175.29 209.936 176.87 212.7C177.625 214.022 178.393 215.424 178.438 216.97C178.538 220.363 178.438 223.772 178.438 227.166C178.438 233.161 178.556 232.657 185.149 232.657C188.777 232.657 193.04 233.154 196.652 232.482C200.037 231.853 204.128 232.654 206.848 230.478C210.025 227.937 206.972 222.935 208.417 219.323C210.274 214.681 206.725 211.173 210.944 207.384C214.421 204.262 214.517 202.658 214.517 198.146" stroke="#414141" stroke-width="3" stroke-linecap="round"/>
<path d="M184.713 211.479C188.624 211.709 192.45 212.263 196.478 212.263" stroke="#414141" stroke-width="3" stroke-linecap="round"/>
<path d="M182.359 216.969C187.08 216.969 190.365 218.537 194.909 218.537" stroke="#414141" stroke-width="3" stroke-linecap="round"/>
<path d="M174.518 205.205C182.226 205.205 185.877 208.654 192.121 212.177C194.773 213.673 197.491 215.24 200.269 216.491C201.71 217.139 203.328 216.755 204.627 217.754C206.139 218.918 208.804 220.107 210.771 220.107C215.823 220.107 218.781 215.457 222.971 214.007C224.411 213.509 226.196 217.67 226.196 218.844C226.196 220.322 218.918 222.221 217.655 222.852C213.748 224.806 208.243 226.222 208.243 220.107" stroke="#414141" stroke-width="3" stroke-linecap="round"/>
<path d="M226.281 214.617C226.281 204.134 220.381 200.277 215.301 192.656" stroke="#414141" stroke-width="3" stroke-linecap="round"/>
<path d="M158.047 222.459H161.968" stroke="#414141" stroke-width="3" stroke-linecap="round"/>
<path d="M160.398 228.734C161.695 229.886 163.47 229.519 165.104 229.519" stroke="#414141" stroke-width="3" stroke-linecap="round"/>
<path d="M107.85 135.4H110.203" stroke="#414141" stroke-width="3" stroke-linecap="round"/>
<path d="M112.555 140.105H113.339" stroke="#414141" stroke-width="3" stroke-linecap="round"/>
<path d="M95.3008 128.342H97.6537" stroke="#414141" stroke-width="3" stroke-linecap="round"/>
<path d="M47.998 82.0366C50.4625 81.3325 52.9262 81.4151 55.4562 81.4151C59.3325 81.4151 59.426 85.3849 61.6713 87.6302" stroke="#414141" stroke-width="3" stroke-linecap="round"/>
<path d="M77.8301 79.5508H82.1807" stroke="#414141" stroke-width="3" stroke-linecap="round"/>
<path d="M61.6719 216.906H66.0225" stroke="#414141" stroke-width="3" stroke-linecap="round"/>
<path d="M63.5352 224.986C65.6639 224.422 67.5986 223.48 69.7503 223.121" stroke="#414141" stroke-width="3" stroke-linecap="round"/>
<path d="M84.6665 13.0488C84.4507 14.8836 82.3949 16.9017 81.2827 18.3317C80.4118 19.4515 85.0283 23.757 85.7715 24.9957C87.1099 27.2264 88.4417 32.3157 91.5032 32.3157" stroke="#414141" stroke-width="3" stroke-linecap="round"/>
<path d="M77.8301 26.102C80.1374 26.102 82.683 26.4723 84.6667 25.4805" stroke="#414141" stroke-width="3" stroke-linecap="round"/>
<path d="M79.0742 33.5603C81.5755 32.3475 85.0173 31.0742 87.7754 31.0742" stroke="#414141" stroke-width="3" stroke-linecap="round"/>
</svg>
