<svg width="422" height="493" viewBox="0 0 422 493" fill="none" xmlns="http://www.w3.org/2000/svg">
<path d="M51.3113 466.436L40.5801 213.41L207.212 34.1836L379.508 213.41L372.95 466.436H51.3113Z" fill="white" stroke="#1B1B1B" stroke-width="2.38472"/>
<path d="M71 218.169L207.679 85.0488L348 218.169L346.039 448.37H76.5131L71 218.169Z" fill="#DADADA"/>
<rect x="71.4902" y="244.484" width="276.832" height="17.4879" fill="#FFFEFC"/>
<rect x="71.4902" y="348.508" width="276.832" height="17.4879" fill="#FFFEFC"/>
<ellipse cx="209.903" cy="175.834" rx="31.3818" ry="32.6441" fill="#F0F0F0"/>
<rect x="178.521" y="173.502" width="62.7635" height="4.66345" fill="#B8B8B8"/>
<rect x="212.143" y="143.189" width="65.2883" height="4.48311" transform="rotate(90 212.143 143.189)" fill="#B8B8B8"/>
<path d="M373.806 461.162H51.0215V491.55H373.806V461.162Z" fill="white" stroke="#1B1B1B" stroke-width="2.38472"/>
<path d="M206.542 2L2 212.852L24.1353 233.546L206.542 51.5491L395.393 233.546L419.77 212.852L206.542 2Z" fill="white" stroke="#1B1B1B" stroke-width="2.24155"/>
</svg>
