<?xml version="1.0" encoding="iso-8859-1"?>
<!-- Uploaded to: SVG Repo, www.svgrepo.com, Generator: SVG Repo Mixer Tools -->
<!DOCTYPE svg PUBLIC "-//W3C//DTD SVG 1.1//EN" "http://www.w3.org/Graphics/SVG/1.1/DTD/svg11.dtd">
<svg fill="#000000" version="1.1" id="Capa_1" xmlns="http://www.w3.org/2000/svg" xmlns:xlink="http://www.w3.org/1999/xlink" 
	 width="800px" height="800px" viewBox="0 0 505.603 505.603"
	 xml:space="preserve">
<g>
	<g>
		<path d="M404.971,263.752h45.74c3.314,0,6.495-1.316,8.839-3.66l23.159-23.16c2.344-2.344,3.661-5.523,3.661-8.839V95.464
			c0-3.315-1.317-6.495-3.661-8.839l-19.77-19.769c-2.344-2.344-5.522-3.661-8.839-3.661h-77.756c-2.32,0-4.594,0.646-6.568,1.864
			l-116.975,72.242L135.826,65.06c-1.975-1.219-4.248-1.864-6.568-1.864H51.502c-3.315,0-6.495,1.317-8.839,3.661L22.895,86.625
			c-2.344,2.344-3.661,5.523-3.661,8.839v132.629c0,3.315,1.317,6.495,3.661,8.839l23.159,23.16c2.344,2.344,5.523,3.66,8.839,3.66
			h45.74L3.662,360.725c-3.87,3.869-4.772,9.807-2.228,14.65c2.546,4.846,7.943,7.467,13.328,6.481l56.108-10.322l-10.322,56.11
			c-0.99,5.383,1.636,10.783,6.481,13.328c4.845,2.545,10.782,1.643,14.651-2.229l171.122-171.121l171.12,171.123
			c2.402,2.4,5.603,3.66,8.843,3.66c0.077,0,0.155,0,0.232-0.002c6.804-0.115,12.282-5.668,12.282-12.498
			c0-1.033-0.125-2.037-0.36-2.996l-10.188-55.376l56.108,10.322c5.387,0.985,10.783-1.638,13.328-6.481s1.643-10.781-2.229-14.65
			L404.971,263.752z M421.419,343.666c-4.046-0.744-8.193,0.549-11.102,3.454c-2.906,2.907-4.197,7.058-3.455,11.101l6.338,34.447
			L262.947,242.413c-2.344-2.344-5.522-3.661-8.839-3.661h-2.613c-3.315,0-6.495,1.317-8.839,3.661L92.404,392.668l6.337-34.447
			c0.743-4.043-0.548-8.192-3.455-11.101c-2.906-2.907-7.06-4.198-11.101-3.454l-34.445,6.336l89.91-89.91
			c3.575-3.576,4.645-8.952,2.71-13.623c-1.936-4.671-6.493-7.717-11.549-7.717h-70.74l-15.837-15.837V100.642L56.68,88.196h69.029
			l120.524,74.433c4.025,2.484,9.111,2.484,13.136,0l120.524-74.433h69.029l12.446,12.446v122.273l-15.837,15.837h-70.74
			c-5.057,0-9.613,3.046-11.549,7.717s-0.865,10.046,2.71,13.623l89.909,89.91L421.419,343.666z"/>
		<path d="M212.299,184.523l-59.088-30.448c-2.82-1.454-5.989-2.223-9.164-2.223H91.464c-11.028,0-20,8.972-20,20v30.449
			c0,11.028,8.972,20,20,20h111.674c9.26,0,17.252-6.285,19.438-15.288C224.756,198.014,220.531,188.765,212.299,184.523z
			 M96.464,197.301v-20.449h46.371l39.685,20.449H96.464z"/>
		<path d="M434.14,202.301v-30.449c0-11.028-8.972-20-20-20h-52.583c-3.175,0-6.344,0.769-9.161,2.222l-59.092,30.449
			c-8.231,4.242-12.456,13.491-10.274,22.494c2.186,8.999,10.177,15.284,19.438,15.284h111.674
			C425.168,222.301,434.14,213.329,434.14,202.301z M409.14,197.301h-86.056l39.685-20.449h46.371V197.301z"/>
	</g>
</g>
</svg>