<?xml version="1.0" encoding="UTF-8"?>
<svg id="_레이어_7" data-name="레이어 7" xmlns="http://www.w3.org/2000/svg" width="248.89" height="282.67" xmlns:xlink="http://www.w3.org/1999/xlink" viewBox="0 0 248.89 282.67">
  <defs>
    <pattern id="_6_dpi_90_" data-name="6 dpi 90%" x="0" y="0" width="48" height="48" patternTransform="translate(-2498.22 385.78)" patternUnits="userSpaceOnUse" viewBox="0 0 48 48">
      <g>
        <rect width="48" height="48" fill="none"/>
        <g>
          <path d="M24,58.8c5.96,0,10.8-4.83,10.8-10.8s-4.84-10.8-10.8-10.8-10.8,4.84-10.8,10.8,4.84,10.8,10.8,10.8Z" fill="#231815"/>
          <circle cx="48" cy="48" r="10.8" fill="#231815"/>
          <path d="M24,34.8c5.96,0,10.8-4.83,10.8-10.8s-4.84-10.8-10.8-10.8-10.8,4.84-10.8,10.8,4.84,10.8,10.8,10.8Z" fill="#231815"/>
          <circle cx="48" cy="24" r="10.8" fill="#231815"/>
          <path d="M36,46.8c5.96,0,10.8-4.83,10.8-10.8s-4.84-10.8-10.8-10.8-10.8,4.84-10.8,10.8,4.84,10.8,10.8,10.8Z" fill="#231815"/>
          <path d="M12,46.8c5.96,0,10.8-4.83,10.8-10.8s-4.84-10.8-10.8-10.8S1.2,30.04,1.2,36s4.84,10.8,10.8,10.8Z" fill="#231815"/>
          <path d="M36,22.8c5.96,0,10.8-4.83,10.8-10.8S41.96,1.2,36,1.2s-10.8,4.84-10.8,10.8,4.84,10.8,10.8,10.8Z" fill="#231815"/>
          <path d="M12,22.8c5.96,0,10.8-4.83,10.8-10.8S17.96,1.2,12,1.2,1.2,6.04,1.2,12s4.84,10.8,10.8,10.8Z" fill="#231815"/>
        </g>
        <g>
          <circle cy="48" r="10.8" fill="#231815"/>
          <circle cy="24" r="10.8" fill="#231815"/>
        </g>
        <g>
          <path d="M24,10.8c5.96,0,10.8-4.83,10.8-10.8s-4.84-10.8-10.8-10.8S13.2-5.96,13.2,0s4.84,10.8,10.8,10.8Z" fill="#231815"/>
          <circle cx="48" r="10.8" fill="#231815"/>
        </g>
        <circle r="10.8" fill="#231815"/>
      </g>
    </pattern>
    <pattern id="_10_lpi_90_" data-name="10 lpi 90%" x="0" y="0" width="72" height="72" patternTransform="translate(-3676.86 -12927.36) rotate(-90) scale(.63)" patternUnits="userSpaceOnUse" viewBox="0 0 72 72">
      <g>
        <rect width="72" height="72" fill="none"/>
        <g>
          <line x1="71.75" y1="68.4" x2="144.25" y2="68.4" fill="none" stroke="#231815" stroke-width="6.48"/>
          <line x1="71.75" y1="54" x2="144.25" y2="54" fill="none" stroke="#231815" stroke-width="6.48"/>
          <line x1="71.75" y1="39.6" x2="144.25" y2="39.6" fill="none" stroke="#231815" stroke-width="6.48"/>
          <line x1="71.75" y1="25.2" x2="144.25" y2="25.2" fill="none" stroke="#231815" stroke-width="6.48"/>
          <line x1="71.75" y1="10.8" x2="144.25" y2="10.8" fill="none" stroke="#231815" stroke-width="6.48"/>
          <line x1="71.75" y1="61.2" x2="144.25" y2="61.2" fill="none" stroke="#231815" stroke-width="6.48"/>
          <line x1="71.75" y1="46.8" x2="144.25" y2="46.8" fill="none" stroke="#231815" stroke-width="6.48"/>
          <line x1="71.75" y1="32.4" x2="144.25" y2="32.4" fill="none" stroke="#231815" stroke-width="6.48"/>
          <line x1="71.75" y1="18" x2="144.25" y2="18" fill="none" stroke="#231815" stroke-width="6.48"/>
          <line x1="71.75" y1="3.6" x2="144.25" y2="3.6" fill="none" stroke="#231815" stroke-width="6.48"/>
        </g>
        <g>
          <line x1="-.25" y1="68.4" x2="72.25" y2="68.4" fill="none" stroke="#231815" stroke-width="6.48"/>
          <line x1="-.25" y1="54" x2="72.25" y2="54" fill="none" stroke="#231815" stroke-width="6.48"/>
          <line x1="-.25" y1="39.6" x2="72.25" y2="39.6" fill="none" stroke="#231815" stroke-width="6.48"/>
          <line x1="-.25" y1="25.2" x2="72.25" y2="25.2" fill="none" stroke="#231815" stroke-width="6.48"/>
          <line x1="-.25" y1="10.8" x2="72.25" y2="10.8" fill="none" stroke="#231815" stroke-width="6.48"/>
          <line x1="-.25" y1="61.2" x2="72.25" y2="61.2" fill="none" stroke="#231815" stroke-width="6.48"/>
          <line x1="-.25" y1="46.8" x2="72.25" y2="46.8" fill="none" stroke="#231815" stroke-width="6.48"/>
          <line x1="-.25" y1="32.4" x2="72.25" y2="32.4" fill="none" stroke="#231815" stroke-width="6.48"/>
          <line x1="-.25" y1="18" x2="72.25" y2="18" fill="none" stroke="#231815" stroke-width="6.48"/>
          <line x1="-.25" y1="3.6" x2="72.25" y2="3.6" fill="none" stroke="#231815" stroke-width="6.48"/>
        </g>
        <g>
          <line x1="-72.25" y1="68.4" x2=".25" y2="68.4" fill="none" stroke="#231815" stroke-width="6.48"/>
          <line x1="-72.25" y1="54" x2=".25" y2="54" fill="none" stroke="#231815" stroke-width="6.48"/>
          <line x1="-72.25" y1="39.6" x2=".25" y2="39.6" fill="none" stroke="#231815" stroke-width="6.48"/>
          <line x1="-72.25" y1="25.2" x2=".25" y2="25.2" fill="none" stroke="#231815" stroke-width="6.48"/>
          <line x1="-72.25" y1="10.8" x2=".25" y2="10.8" fill="none" stroke="#231815" stroke-width="6.48"/>
          <line x1="-72.25" y1="61.2" x2=".25" y2="61.2" fill="none" stroke="#231815" stroke-width="6.48"/>
          <line x1="-72.25" y1="46.8" x2=".25" y2="46.8" fill="none" stroke="#231815" stroke-width="6.48"/>
          <line x1="-72.25" y1="32.4" x2=".25" y2="32.4" fill="none" stroke="#231815" stroke-width="6.48"/>
          <line x1="-72.25" y1="18" x2=".25" y2="18" fill="none" stroke="#231815" stroke-width="6.48"/>
          <line x1="-72.25" y1="3.6" x2=".25" y2="3.6" fill="none" stroke="#231815" stroke-width="6.48"/>
        </g>
      </g>
    </pattern>
    <pattern id="_6_dpi_20_" data-name="6 dpi 20%" x="0" y="0" width="50" height="50" patternTransform="translate(-7564.86 -6552.91) scale(.2)" patternUnits="userSpaceOnUse" viewBox="0 0 50 50">
      <g>
        <rect y="0" width="50" height="50" fill="none"/>
        <path d="M19,45.4c1.32,0,2.4-1.07,2.4-2.4s-1.08-2.4-2.4-2.4-2.4,1.08-2.4,2.4,1.07,2.4,2.4,2.4Z" fill="#231815"/>
        <path d="M43,45.4c1.32,0,2.4-1.07,2.4-2.4s-1.08-2.4-2.4-2.4-2.4,1.08-2.4,2.4,1.07,2.4,2.4,2.4Z" fill="#231815"/>
        <path d="M19,21.4c1.32,0,2.4-1.07,2.4-2.4s-1.08-2.4-2.4-2.4-2.4,1.08-2.4,2.4,1.07,2.4,2.4,2.4Z" fill="#231815"/>
        <path d="M43,21.4c1.32,0,2.4-1.07,2.4-2.4s-1.08-2.4-2.4-2.4-2.4,1.08-2.4,2.4,1.07,2.4,2.4,2.4Z" fill="#231815"/>
        <path d="M31,33.4c1.32,0,2.4-1.07,2.4-2.4s-1.08-2.4-2.4-2.4-2.4,1.08-2.4,2.4,1.07,2.4,2.4,2.4Z" fill="#231815"/>
        <path d="M7,33.4c1.32,0,2.4-1.07,2.4-2.4s-1.08-2.4-2.4-2.4-2.4,1.08-2.4,2.4,1.07,2.4,2.4,2.4Z" fill="#231815"/>
        <path d="M31,9.4c1.32,0,2.4-1.07,2.4-2.4s-1.08-2.4-2.4-2.4-2.4,1.08-2.4,2.4,1.07,2.4,2.4,2.4Z" fill="#231815"/>
        <path d="M7,9.4c1.32,0,2.4-1.07,2.4-2.4s-1.08-2.4-2.4-2.4-2.4,1.08-2.4,2.4,1.07,2.4,2.4,2.4Z" fill="#231815"/>
      </g>
    </pattern>
    <pattern id="_10_dpi_40_" data-name="10 dpi 40%" x="0" y="0" width="28.8" height="28.8" patternTransform="translate(-9687.4 -7276.19) rotate(49.16) scale(.08) skewX(-3.25)" patternUnits="userSpaceOnUse" viewBox="0 0 28.8 28.8">
      <g>
        <rect x="0" width="28.8" height="28.8" fill="none"/>
        <g>
          <path d="M28.8,31.68c1.59,0,2.88-1.29,2.88-2.88s-1.29-2.88-2.88-2.88-2.88,1.29-2.88,2.88,1.29,2.88,2.88,2.88Z" fill="#231815"/>
          <path d="M14.4,31.68c1.59,0,2.88-1.29,2.88-2.88s-1.29-2.88-2.88-2.88-2.88,1.29-2.88,2.88,1.29,2.88,2.88,2.88Z" fill="#231815"/>
          <path d="M28.8,17.28c1.59,0,2.88-1.29,2.88-2.88s-1.29-2.88-2.88-2.88-2.88,1.29-2.88,2.88,1.29,2.88,2.88,2.88Z" fill="#231815"/>
          <path d="M14.4,17.28c1.59,0,2.88-1.29,2.88-2.88s-1.29-2.88-2.88-2.88-2.88,1.29-2.88,2.88,1.29,2.88,2.88,2.88Z" fill="#231815"/>
          <path d="M7.2,24.48c1.59,0,2.88-1.29,2.88-2.88s-1.29-2.88-2.88-2.88-2.88,1.29-2.88,2.88,1.29,2.88,2.88,2.88Z" fill="#231815"/>
          <path d="M21.6,24.48c1.59,0,2.88-1.29,2.88-2.88s-1.29-2.88-2.88-2.88-2.88,1.29-2.88,2.88,1.29,2.88,2.88,2.88Z" fill="#231815"/>
          <path d="M7.2,10.08c1.59,0,2.88-1.29,2.88-2.88s-1.29-2.88-2.88-2.88-2.88,1.29-2.88,2.88,1.29,2.88,2.88,2.88Z" fill="#231815"/>
          <path d="M21.6,10.08c1.59,0,2.88-1.29,2.88-2.88s-1.29-2.88-2.88-2.88-2.88,1.29-2.88,2.88,1.29,2.88,2.88,2.88Z" fill="#231815"/>
        </g>
        <g>
          <path d="M0,31.68c1.59,0,2.88-1.29,2.88-2.88S1.59,25.92,0,25.92s-2.88,1.29-2.88,2.88S-1.59,31.68,0,31.68Z" fill="#231815"/>
          <path d="M0,17.28c1.59,0,2.88-1.29,2.88-2.88S1.59,11.52,0,11.52s-2.88,1.29-2.88,2.88S-1.59,17.28,0,17.28Z" fill="#231815"/>
        </g>
        <g>
          <path d="M28.8,2.88c1.59,0,2.88-1.29,2.88-2.88s-1.29-2.88-2.88-2.88-2.88,1.29-2.88,2.88,1.29,2.88,2.88,2.88Z" fill="#231815"/>
          <path d="M14.4,2.88c1.59,0,2.88-1.29,2.88-2.88s-1.29-2.88-2.88-2.88-2.88,1.29-2.88,2.88,1.29,2.88,2.88,2.88Z" fill="#231815"/>
        </g>
        <path d="M0,2.88c1.59,0,2.88-1.29,2.88-2.88S1.59-2.88,0-2.88-2.88-1.59-2.88,0-1.59,2.88,0,2.88Z" fill="#231815"/>
      </g>
    </pattern>
  </defs>
  <ellipse cx="197.85" cy="277.11" rx="25.93" ry="3.63"/>
  <ellipse cx="43.64" cy="277.11" rx="25.93" ry="3.63"/>
  <path d="M53.1,3.75l-.79,5.92-6.6-1.52c-.39-.09-.7.32-.51.67l4.15,7.46-5.95,1.85c-.39.12-.44.65-.08.84l5.48,2.99-2.36,4.73c-.19.38.2.8.59.63l7.04-3.02.5,6.44c.03.42.56.58.82.25l3.95-4.94,5.1,4.08c.3.24.75.03.75-.36v-7.27l7.19-1c.39-.05.54-.54.24-.8l-5.12-4.43,3.39-3.02c.29-.26.15-.74-.24-.8l-7.21-1.03.99-6.93c.06-.43-.45-.7-.77-.41l-5.49,4.99-4.23-5.55c-.25-.33-.77-.19-.82.22Z" fill="#f6ffa4" stroke="#000" stroke-linecap="round" stroke-linejoin="round"/>
  <polygon points="216.9 60.93 209.08 60.92 214.57 54.41 211.95 52.21 205.97 59.31 202.93 51.62 199.51 53.41 202.48 60.91 194.18 60.89 193.66 64.62 201.48 64.63 195.99 71.15 198.61 73.34 204.59 66.24 207.63 73.94 211.05 72.14 208.08 64.64 216.38 64.66 216.9 60.93" fill="#f6ffa4" stroke="#000" stroke-miterlimit="10"/>
  <g>
    <path d="M46.71,76.64s3.31-9.69-5.77-14.36c-1.89-.98-3.73-1.16-5.43-.86l1.62,2.29c1.77-.15,3.63.46,5.33,2.52,5.12,6.2-.8,12.72-.8,12.72l2.19,2.65c2.16-2.65,2.86-4.97,2.86-4.97Z" fill="#ffabe3" stroke="#000" stroke-linecap="round" stroke-linejoin="round"/>
    <path d="M36.99,63.8c-1.61-2.77-3.75-4.57-5.75-5.73-3.65-2.1-8.15-2.11-11.89-.17-1.46.76-3.02,1.82-4.49,3.3-4.74,4.79-3.58,12.52-3.58,12.52l2.83.27c-1.01-4.38,1.24-7.98,1.24-7.98,0,0,6.32-11.3,14.79-5.25,8.47,6.05,2.6,12.63,2.6,12.63,0,0-2.68,3.08-4.38,1.01-.85-1.03-.75-2.09-.67-2.92.09-.94,1.75-3.08,2.25-3.6.7-.72,2.07-2.05,3.77-3.02l-1.65-2.17c-2.52,1.42-4.49,3.59-5.58,4.95-.96,1.2-1.66,2.61-1.92,4.13-.28,1.64-.11,3.68,1.64,5.28,3.5,3.19,8.16-.65,8.16-.65,0,0,6.72-5.55,2.63-12.61Z" fill="#ffabe3" stroke="#000" stroke-linecap="round" stroke-linejoin="round"/>
  </g>
  <polygon points="118.02 45.44 30.71 135.22 56.91 271.97 182.56 271.97 205.37 135.22 118.02 45.44" fill="#fff" stroke="#000" stroke-miterlimit="10" stroke-width="2"/>
  <path d="M219.33,131.34c1.31-1.31,1.31-3.42,0-4.73l-90.22-90.22h0s-8.83-8.84-8.83-8.84c-1.31-1.31-3.42-1.31-4.73,0L16.5,126.59c-1.31,1.31-1.31,3.42,0,4.73l6.47,6.47c1.31,1.31,3.42,1.31,4.73,0L115.54,49.95c1.31-1.31,3.42-1.31,4.73,0l87.86,87.86c1.31,1.31,3.42,1.31,4.73,0l6.47-6.47Z" fill="url(#_6_dpi_90_)"/>
  <g>
    <path d="M99.92,121.4c.23,5.41-4.52,7.87-9.52,7.19-.35-.19-.87.43-.72.67-.12,3.37,1.03,4.3-3.48,4.07-2.06-.3-3.87.65-4-1.23-.11-.68-.13-15.59,0-16.37-.13-.31.35-1.1.79-.88,4.53-.79,18.26-.33,16.92,6.55ZM92.7,121.82c0-1.85-2.54-1.42-2.54-1.42-.74.07-.68,2.27-.34,2.78.4.3,2.64.79,2.88-1.36Z" fill="url(#_10_lpi_90_)" stroke="#000" stroke-miterlimit="10" stroke-width=".63"/>
    <path d="M122.12,123.83c-.03,12.76-19.71,12.77-19.92.08.13-11.99,19.83-12.42,19.92-.08ZM114.4,123.99c.02-3.06-4.46-3.02-4.39.08.02,2.89,4.41,2.79,4.39-.08Z" fill="url(#_10_lpi_90_)" stroke="#000" stroke-miterlimit="10" stroke-width=".63"/>
    <path d="M140.17,127.79c.57,6.57-12.33,7.06-15.32,4.6-.25-1.73-.63-4.41.17-5.91,1.16-.26,2.35,1.51,5.11,1.6,2.82-.55.3-2.01-1.75-2.78-9.89-6.5,2.94-12.6,9.76-10.3,1.2-.46,1.18,6.71.05,5.94-.29-.23-3.74-1.01-3.55.35,1.54,1.82,6.03,2.87,5.54,6.5Z" fill="url(#_10_lpi_90_)" stroke="#000" stroke-miterlimit="10" stroke-width=".63"/>
    <path d="M158.46,118.13c.42,4.66-1.42,2.63-4.43,3.4-.32.08.03,9.93-.02,10.41.06,1.95-1.67,1.13-3.69,1.34-1.92-.12-2.71.19-3.62-.27-.22-.24-.19-.78-.19-.78l.24-9.95c.35-1.44-2.35-.68-3.04-.86-2.01.04-1.15-4.92-.94-6.23,1.05-.82,13.25-.26,14.58-.32,1.48-.37,1.07,2.52,1.13,3.26Z" fill="url(#_10_lpi_90_)" stroke="#000" stroke-miterlimit="10" stroke-width=".63"/>
  </g>
  <path d="M118.45,57.1l84.23,86.12c.48.5.63-.95.76-1.63l1.42-5.75c.06-.28-3.82-1.83-3.59-4.11L118.71,49.29c-.33-.33-2.55-.32-2.89,0L31.07,134.58c-.22.21,0,0,.07.29l.71,3.08c.15.65-.69,5.83-.21,5.36" fill="url(#_6_dpi_20_)"/>
  <path d="M149.87,271.86l5.48-74.31c.25-1.69.38-3.41.38-5.17,0-19.43-15.75-35.17-35.17-35.17s-35.17,15.75-35.17,35.17c0,1.35.08,2.68.23,3.99l4.39,75.64,59.86-.15Z" fill="#ffabe3" stroke="#000" stroke-miterlimit="10" stroke-width="2"/>
  <line x1="120.56" y1="157.21" x2="120.56" y2="271.94" fill="#f6ffa4" stroke="#000" stroke-miterlimit="10" stroke-width="2"/>
  <line x1="141.87" y1="164.4" x2="135.98" y2="271.9" fill="#f6ffa4" stroke="#000" stroke-miterlimit="10" stroke-width="2"/>
  <line x1="98.67" y1="164.4" x2="103.49" y2="271.87" fill="#f6ffa4" stroke="#000" stroke-miterlimit="10" stroke-width="2"/>
  <circle cx="142.23" cy="219.13" r="6.25" fill="#f6ffa4" stroke="#000" stroke-miterlimit="10" stroke-width="2"/>
  <g>
    <g>
      <polygon points="216.37 252.96 218.5 253.19 220.58 253.6 222.39 254.63 223.78 256.28 224.29 258.38 224.54 260.53 224.84 262.82 224.2 265.01 222.74 266.82 221.75 268.81 220.84 270.94 218.99 272.32 217.14 273.57 215.64 275.33 213.64 276.42 211.33 276.57 209.18 277.11 206.94 276.91 204.86 275.92 203.4 274.3 203.27 272.11 202.45 270.11 203.09 268.06 203 265.86 203.97 263.95 205.35 262.08 203.12 261.13 201.75 259.29 199.88 258.12 198.43 256.45 196.8 255 194.92 253.72 194.08 251.59 192.28 250.17 191.19 248.25 190.36 246.2 189.03 245.81 188.05 246.58 187.36 248.66 186.96 250.8 187.22 253.02 186.31 255.12 186.98 257.33 186.95 259.48 186.48 261.67 187.37 263.58 188.66 264.98 189.65 266.67 190.62 268.37 191 270.38 190.09 272.54 188.89 274.51 186.72 275.37 184.99 276.87 182.75 277.2 180.65 278.25 178.35 277.79 176.12 277.87 173.82 277.97 171.66 277.24 169.54 276.43 167.75 275.03 166.01 273.68 164.6 272.03 163.33 270.19 162.88 267.94 164.06 266.09 164.99 264.26 166.55 262.85 168.26 261.51 170.48 261.43 172.4 260.34 172.12 260.61 171.97 258.48 172.21 256.3 171.98 254.2 171.33 252.13 171.25 250 170.96 247.89 170.98 245.76 170.68 243.65 170.42 241.53 170.93 239.38 170.24 237.28 170.14 235.16 170.06 233.04 170.17 230.9 169.94 228.78 170.32 226.64 169.86 224.51 170.41 222.38 170.01 220.25 169.93 218.13 170.16 216 170.31 213.88 170.06 211.75 170.17 209.63 170.44 207.5 170.5 205.38 170.14 203.25 170.32 201.12 170.76 199.01 170.36 196.88 170.62 194.74 172.62 195.38 174.65 195.91 176.71 196.3 178.82 196.53 180.72 197.54 182.74 198.09 184.77 198.6 186.92 198.68 188.86 199.55 190.93 199.9 192.81 201 194.97 201.03 196.91 201.9 199.05 201.99 201.03 202.73 203.05 203.35 203.24 205.48 202.55 207.54 202.89 209.65 202.43 211.73 202.67 213.82 202.6 215.92 202.47 218.01 202.73 220.1 202.74 222.2 203.22 224.27 203.15 226.38 203.07 228.5 203.54 230.56 203.75 232.66 204.56 234.64 205.25 236.63 205.34 238.78 206.37 240.66 207.05 242.62 207.77 244.59 208.91 246.35 209.78 248.28 210.92 250.09 212.98 250.94 214.37 252.58 216.37 252.96" fill="#eaeaea"/>
      <polygon points="216.37 252.96 218.5 253.19 220.58 253.6 222.39 254.63 223.78 256.28 224.29 258.38 224.54 260.53 224.84 262.82 224.2 265.01 222.74 266.82 221.75 268.81 220.84 270.94 218.99 272.32 217.14 273.57 215.64 275.33 213.64 276.42 211.33 276.57 209.18 277.11 206.94 276.91 204.86 275.92 203.4 274.3 203.27 272.11 202.45 270.11 203.09 268.06 203 265.86 203.97 263.95 205.35 262.08 203.12 261.13 201.75 259.29 199.88 258.12 198.43 256.45 196.8 255 194.92 253.72 194.08 251.59 192.28 250.17 191.19 248.25 190.36 246.2 189.03 245.81 188.05 246.58 187.36 248.66 186.96 250.8 187.22 253.02 186.31 255.12 186.98 257.33 186.95 259.48 186.48 261.67 187.37 263.58 188.66 264.98 189.65 266.67 190.62 268.37 191 270.38 190.09 272.54 188.89 274.51 186.72 275.37 184.99 276.87 182.75 277.2 180.65 278.25 178.35 277.79 176.12 277.87 173.82 277.97 171.66 277.24 169.54 276.43 167.75 275.03 166.01 273.68 164.6 272.03 163.33 270.19 162.88 267.94 164.06 266.09 164.99 264.26 166.55 262.85 168.26 261.51 170.48 261.43 172.4 260.34 172.12 260.61 171.97 258.48 172.21 256.3 171.98 254.2 171.33 252.13 171.25 250 170.96 247.89 170.98 245.76 170.68 243.65 170.42 241.53 170.93 239.38 170.24 237.28 170.14 235.16 170.06 233.04 170.17 230.9 169.94 228.78 170.32 226.64 169.86 224.51 170.41 222.38 170.01 220.25 169.93 218.13 170.16 216 170.31 213.88 170.06 211.75 170.17 209.63 170.44 207.5 170.5 205.38 170.14 203.25 170.32 201.12 170.76 199.01 170.36 196.88 170.62 194.74 172.62 195.38 174.65 195.91 176.71 196.3 178.82 196.53 180.72 197.54 182.74 198.09 184.77 198.6 186.92 198.68 188.86 199.55 190.93 199.9 192.81 201 194.97 201.03 196.91 201.9 199.05 201.99 201.03 202.73 203.05 203.35 203.24 205.48 202.55 207.54 202.89 209.65 202.43 211.73 202.67 213.82 202.6 215.92 202.47 218.01 202.73 220.1 202.74 222.2 203.22 224.27 203.15 226.38 203.07 228.5 203.54 230.56 203.75 232.66 204.56 234.64 205.25 236.63 205.34 238.78 206.37 240.66 207.05 242.62 207.77 244.59 208.91 246.35 209.78 248.28 210.92 250.09 212.98 250.94 214.37 252.58 216.37 252.96" fill="none" stroke="#000" stroke-linecap="round" stroke-linejoin="round" stroke-width="2"/>
    </g>
    <g>
      <polygon points="158.94 183.57 159.97 181.95 160.49 180.15 160.99 178.34 160.86 176.25 160.41 174.22 159.68 172.26 158.59 170.45 156.9 169.19 155.15 168.11 153.28 167.21 151.24 166.73 149.14 166.81 147.05 167.09 145.21 168.12 143.58 169.4 141.93 170.7 140.94 172.54 139.98 174.41 139.67 176.49 139.69 178.67 140.04 180.85 141.17 182.73 142.48 184.44 144.1 185.86 145.85 187.15 147.98 187.73 149.06 189.63 149.89 191.61 150.93 193.49 152.17 195.25 153.63 196.83 154.79 198.65 156.32 200.16 157.59 201.91 159.31 203.22 160.84 204.73 162.74 205.77 164.51 207.13 166.35 205.83 168.05 204.38 169.93 203.17 171.54 201.57 173.47 200.4 171.82 199.14 170.23 197.86 168.7 196.54 167.31 195.06 165.87 193.62 164.32 192.27 163.05 190.66 162.12 188.83 160.97 187.15 159.75 185.49 158.94 183.57" fill="#eaeaea"/>
      <polygon points="158.94 183.57 159.97 181.95 160.49 180.15 160.99 178.34 160.86 176.25 160.41 174.22 159.68 172.26 158.59 170.45 156.9 169.19 155.15 168.11 153.28 167.21 151.24 166.73 149.14 166.81 147.05 167.09 145.21 168.12 143.58 169.4 141.93 170.7 140.94 172.54 139.98 174.41 139.67 176.49 139.69 178.67 140.04 180.85 141.17 182.73 142.48 184.44 144.1 185.86 145.85 187.15 147.98 187.73 149.06 189.63 149.89 191.61 150.93 193.49 152.17 195.25 153.63 196.83 154.79 198.65 156.32 200.16 157.59 201.91 159.31 203.22 160.84 204.73 162.74 205.77 164.51 207.13 166.35 205.83 168.05 204.38 169.93 203.17 171.54 201.57 173.47 200.4 171.82 199.14 170.23 197.86 168.7 196.54 167.31 195.06 165.87 193.62 164.32 192.27 163.05 190.66 162.12 188.83 160.97 187.15 159.75 185.49 158.94 183.57" fill="none" stroke="#000" stroke-linecap="round" stroke-linejoin="round" stroke-width="2"/>
    </g>
    <g>
      <polygon points="209.05 175.22 208.88 173.13 209.54 171.11 209.76 169.05 209.89 166.98 209.98 164.91 210.09 162.83 208.69 162.01 207.18 163.61 205.31 164.76 203.85 166.41 202.18 167.82 200.45 169.17 199.44 169.09 197.69 168.6 196.19 167.52 194.37 167.27 192.76 166.76 191.19 166.09 190.51 165.48 190.49 163.27 189.85 161.14 190.03 158.91 189.47 156.77 189.14 154.59 187.55 154.01 186.68 155.84 185.09 157.11 183.94 158.72 182.9 160.42 181.57 161.89 180.36 163.47 179.29 165.16 178.56 165.28 176.39 165.5 174.34 166.28 172.24 166.82 170.17 167.49 168.29 168.58 166.51 169.84 164.95 171.33 163.47 172.92 162.34 174.77 161.78 176.86 160.98 178.81 160.66 180.9 160.95 183 161.21 185.1 162.21 186.98 162.77 189.03 163.85 190.85 165.43 192.3 166.55 194.08 168.17 195.42 169.66 196.89 171.14 198.39 172.97 199.45 174.71 200.61 176.58 201.58 178.55 202.3 180.39 203.33 182.44 203.86 184.36 204.76 186.4 205.32 188.54 205.28 190.58 205.8 192.68 205.88 194.78 205.68 196.89 206.1 198.98 205.8 201 205.16 203.04 204.7 205.06 204.14 206.89 203.13 208.84 202.33 210.46 200.99 211.98 199.57 213.42 198.05 214.66 196.34 215.1 194.25 215.52 192.29 215.89 190.29 215.91 188.25 215.45 186.25 215.04 184.23 213.93 182.48 212.78 180.8 211.93 178.92 210.45 177.49 209.26 175.81 209.05 175.22" fill="#eaeaea"/>
      <polygon points="209.05 175.22 208.88 173.13 209.54 171.11 209.76 169.05 209.89 166.98 209.98 164.91 210.09 162.83 208.69 162.01 207.18 163.61 205.31 164.76 203.85 166.41 202.18 167.82 200.45 169.17 199.44 169.09 197.69 168.6 196.19 167.52 194.37 167.27 192.76 166.76 191.19 166.09 190.51 165.48 190.49 163.27 189.85 161.14 190.03 158.91 189.47 156.77 189.14 154.59 187.55 154.01 186.68 155.84 185.09 157.11 183.94 158.72 182.9 160.42 181.57 161.89 180.36 163.47 179.29 165.16 178.56 165.28 176.39 165.5 174.34 166.28 172.24 166.82 170.17 167.49 168.29 168.58 166.51 169.84 164.95 171.33 163.47 172.92 162.34 174.77 161.78 176.86 160.98 178.81 160.66 180.9 160.95 183 161.21 185.1 162.21 186.98 162.77 189.03 163.85 190.85 165.43 192.3 166.55 194.08 168.17 195.42 169.66 196.89 171.14 198.39 172.97 199.45 174.71 200.61 176.58 201.58 178.55 202.3 180.39 203.33 182.44 203.86 184.36 204.76 186.4 205.32 188.54 205.28 190.58 205.8 192.68 205.88 194.78 205.68 196.89 206.1 198.98 205.8 201 205.16 203.04 204.7 205.06 204.14 206.89 203.13 208.84 202.33 210.46 200.99 211.98 199.57 213.42 198.05 214.66 196.34 215.1 194.25 215.52 192.29 215.89 190.29 215.91 188.25 215.45 186.25 215.04 184.23 213.93 182.48 212.78 180.8 211.93 178.92 210.45 177.49 209.26 175.81 209.05 175.22" fill="none" stroke="#000" stroke-linecap="round" stroke-linejoin="round" stroke-width="2"/>
    </g>
    <g>
      <polygon points="204.41 232.85 206.64 232.49 208.67 231.74 210.62 230.83 212.61 230 214.56 229.08 216.41 227.96 218.24 226.81 219.87 225.39 221.62 224.1 223 222.43 224.54 220.9 225.79 219.1 226.96 220.84 227.94 222.68 228.46 224.7 228.76 226.75 228.85 228.82 228.8 230.89 228.5 232.95 227.89 234.94 227.35 236.94 226.69 238.9 225.75 240.79 225.82 238.68 225.94 236.59 225.57 234.54 225.11 232.5 224.36 230.54 223.31 228.84 221.73 229.97 219.96 230.97 218.19 231.95 216.3 232.68 214.43 233.48 212.41 233.78 210.43 234.16 208.42 234.45 206.4 234.64 204.34 234.68 204.41 232.85" fill="#eaeaea"/>
      <polygon points="204.41 232.85 206.64 232.49 208.67 231.74 210.62 230.83 212.61 230 214.56 229.08 216.41 227.96 218.24 226.81 219.87 225.39 221.62 224.1 223 222.43 224.54 220.9 225.79 219.1 226.96 220.84 227.94 222.68 228.46 224.7 228.76 226.75 228.85 228.82 228.8 230.89 228.5 232.95 227.89 234.94 227.35 236.94 226.69 238.9 225.75 240.79 225.82 238.68 225.94 236.59 225.57 234.54 225.11 232.5 224.36 230.54 223.31 228.84 221.73 229.97 219.96 230.97 218.19 231.95 216.3 232.68 214.43 233.48 212.41 233.78 210.43 234.16 208.42 234.45 206.4 234.64 204.34 234.68 204.41 232.85" fill="none" stroke="#000" stroke-linecap="round" stroke-linejoin="round" stroke-width="1.73"/>
    </g>
    <g>
      <polygon points="204.68 205.62 202.45 205.12 200.25 205.49 198.09 205.98 195.86 206.06 193.75 206.2 191.65 206.1 189.53 206.08 187.47 205.54 185.45 204.91 183.39 204.46 181.4 203.72 179.55 202.67 177.72 201.64 175.78 200.68 175.61 198.56 175.45 196.43 174.2 194.7 173.13 192.87 171.55 191.43 169.5 190.8 167.55 190.09 165.58 190.11 163.6 190.07 161.76 190.8 160.07 191.8 158.3 192.8 157.22 194.5 156.17 196.22 155.63 198.16 155.67 200.17 156 202.1 156.67 203.93 157.35 205.81 158.55 207.43 160.18 208.62 162.07 209.26 163.9 210.09 165.75 210.06 167.57 209.89 169.35 209.54 171.17 210.67 173.02 211.82 175.05 212.6 176.96 213.65 178.87 214.72 180.96 215.34 183.1 215.8 185.21 216.28 187.36 216.55 189.43 217.39 191.62 217.44 193.81 217.31 195.97 217.53 197.74 217.6 199.47 217.27 201.59 216.86 203.54 215.89 205.57 215.04 206.46 213.09 207.36 211.18 206.99 209.1 206.11 207.23 204.68 205.62" fill="#eaeaea"/>
      <polygon points="204.68 205.62 202.45 205.12 200.25 205.49 198.09 205.98 195.86 206.06 193.75 206.2 191.65 206.1 189.53 206.08 187.47 205.54 185.45 204.91 183.39 204.46 181.4 203.72 179.55 202.67 177.72 201.64 175.78 200.68 175.61 198.56 175.45 196.43 174.2 194.7 173.13 192.87 171.55 191.43 169.5 190.8 167.55 190.09 165.58 190.11 163.6 190.07 161.76 190.8 160.07 191.8 158.3 192.8 157.22 194.5 156.17 196.22 155.63 198.16 155.67 200.17 156 202.1 156.67 203.93 157.35 205.81 158.55 207.43 160.18 208.62 162.07 209.26 163.9 210.09 165.75 210.06 167.57 209.89 169.35 209.54 171.17 210.67 173.02 211.82 175.05 212.6 176.96 213.65 178.87 214.72 180.96 215.34 183.1 215.8 185.21 216.28 187.36 216.55 189.43 217.39 191.62 217.44 193.81 217.31 195.97 217.53 197.74 217.6 199.47 217.27 201.59 216.86 203.54 215.89 205.57 215.04 206.46 213.09 207.36 211.18 206.99 209.1 206.11 207.23 204.68 205.62" fill="none" stroke="#000" stroke-linecap="round" stroke-linejoin="round" stroke-width="2"/>
    </g>
  </g>
  <path d="M176.88,180.67s1.94-6.95,6.1-5.65c4.16,1.3,1.14,8.07,1.14,8.07" fill="#eaeaea" stroke="#000" stroke-linecap="round" stroke-linejoin="round" stroke-width="2"/>
  <path d="M193.66,186.39s2.15-6.89,6.27-5.47c4.12,1.42.9,8.11.9,8.11" fill="#eaeaea" stroke="#000" stroke-linecap="round" stroke-linejoin="round" stroke-width="2"/>
  <circle cx="186.04" cy="192.15" r="1.12"/>
  <line x1="166.16" y1="181.27" x2="171.79" y2="183.32" fill="#eaeaea" stroke="#000" stroke-linecap="round" stroke-linejoin="round"/>
  <line x1="165.38" y1="183.43" x2="171.01" y2="185.48" fill="#eaeaea" stroke="#000" stroke-linecap="round" stroke-linejoin="round"/>
  <line x1="202.63" y1="194.58" x2="208.26" y2="196.63" fill="#eaeaea" stroke="#000" stroke-linecap="round" stroke-linejoin="round"/>
  <line x1="201.84" y1="196.74" x2="207.48" y2="198.79" fill="#eaeaea" stroke="#000" stroke-linecap="round" stroke-linejoin="round"/>
  <path d="M23.79,235.04s-11.34-.96-16.08-14.46c0,0-5.14,16.95,16.08,14.46Z" stroke="#000" stroke-linecap="round" stroke-linejoin="round" stroke-width="2"/>
  <path d="M55.65,182.35c.33.9.59,1.78,1,2.6.44.86.48,1.94,1,2.69.55.8,1.36,1.4,1.98,2.06.66.71,1.36,1.38,2.08,1.92.79.59,1.65,1.02,2.47,1.38.9.39,1.82.81,2.72.88.95.08,1.77-.63,2.66-.94s1.56-.73,2.24-1.38,1.6-1.04,2.05-1.91c.4-.79.6-1.75.83-2.7.21-.87.48-1.8.53-2.77.05-.9-.34-1.83-.43-2.79-.09-.9-.17-1.82-.38-2.75s-.24-1.85-.57-2.75-.58-1.84-.99-2.66c-.44-.86-1.18-1.53-1.69-2.28-.55-.8-.94-1.71-1.56-2.37-.66-.71-1.53-1.19-2.25-1.73-.79-.59-1.69-.86-2.51-1.22-.9-.39-1.74-.68-2.63-.75-.95-.08-1.84-.04-2.73.28s-1.45,1-2.13,1.66-1.59,1.05-2.04,1.92c-.4.79-.51,1.76-.74,2.71-.21.87-.26,1.79-.31,2.76-.05.9-.01,1.81.08,2.77.09.9.28,1.8.49,2.73s.52,1.74.84,2.64Z"/>
  <g>
    <g>
      <path d="M39.98,244.18c-1.59.38-.28,1.56-.63,3.16s-.45,1.57-.8,3.17-.28,1.61-.63,3.2-.41,1.58-.75,3.18-1.7,1.94-.71,3.24,1.61-.07,3.17-.07,1.56.04,3.12.04,1.56.04,3.13.04,2.35,1.31,3.16-.02-.8-1.34-1.55-2.67-.81-1.3-1.56-2.63-.71-1.36-1.46-2.69-.7-1.36-1.45-2.69-1.16-1.16-1.56-2.64c-.45-1.66.01-2.98-1.48-2.62Z" fill="#fff"/>
      <g>
        <path d="M41.84,246.86c-.27.94-.74,1.78-.9,2.62-.18.97-.06,1.93-.12,2.77-.07,1.01.18,1.91.24,2.72.08,1.06.18,1.94.38,2.68.45,1.69-.17,1.68.94,2.49.91.26,1.88.3,2.68.66.87.39,1.42,1.32,2.15,1.82.79.54,1.63.96,2.22,1.6.64.71,1.23,1.46,1.59,2.26.37.85.59,1.8.59,2.72,0,1-.25,2.06-.75,2.98-.45.83-1.41,1.36-2.2,2.09-.7.65-1.18,1.72-2.08,2.26-.83.5-1.77,1-2.74,1.4-.91.37-1.97.49-2.97.75s-2.01.16-3.02.29-1.98.59-3,.59-1.88-.74-2.8-.85c-.97-.12-1.86-.28-2.75-.51-.95-.24-1.98-.11-2.83-.47-.91-.38-1.92-.61-2.68-1.11-.84-.54-1.13-1.68-1.75-2.34-.68-.72-1.82-1.11-2.2-1.94-.4-.88.04-1.96.04-2.91s-.44-2.03-.05-2.9,1.21-1.5,1.88-2.22c.62-.66,1.44-1.15,2.27-1.7,0,0-.44.06-.44.05-.28-.96-.15-2.04-.38-3.02s-.71-1.9-.89-2.89-.04-2.03-.17-3.02.11-2.02.01-3.02-.62-1.95-.68-2.95-.11-2-.13-3,.05-2.01.05-3.01-.14-2.01-.11-3.01.29-2,.35-2.99.06-2.01.14-3,.06-2.02.17-3,.13-2.02.26-3,.27-2,.42-2.98.19-2.02.36-2.99.91-1.89,1.09-2.86.07-2.05.27-3.01c.21-1.01.75-1.92.96-2.86.23-1.01.61-1.95.84-2.88.26-1.02.04-2.12.28-3.03.28-1.05.74-1.96.99-2.84.32-1.1.83-2,1.08-2.8.57-1.83-.65-2.23.77-2.71s1.39-.33,2.85-.37,1.45-.37,2.91-.41,1.47.24,2.93.2,1.47.26,2.93.23,1.45-.32,2.92-.36,1.47.29,2.93.25,1.46.03,2.92,0,1.46-.14,2.92-.17,1.45-.44,2.91-.48,1.46.02,2.93-.02,1.47.12,2.93.08,1.67-.9,3.05-.39-.29,1.4-.81,3.23c-.23.81-.56,1.77-.87,2.87-.24.88-.8,1.77-1.08,2.82-.24.91-.19,1.97-.45,2.98-.24.93-.67,1.85-.92,2.86-.23.94-.46,1.92-.7,2.92s-.34,1.96-.56,2.95-.83,1.85-1.05,2.84-.03,2.03-.24,3.02-.55,1.93-.74,2.91-.08,2.02-.26,3-.6,1.93-.76,2.92-.36,1.98-.5,2.96-.04,2.03-.16,3.01.05,2.03-.04,3.01-.16,2-.22,2.98c-.06,1.03-.14,2.01-.15,2.98-.01,1.04-.7,2.06-.65,3.02.06,1.06.26,2.08.4,3,.17,1.07.92,1.92,1.22,2.78.37,1.05.71,1.91,1.3,2.59,0,0-.14.14-.14.15,1.05.19,2.16.16,3.05.53.99.41,1.57,1.45,2.35,2.03.86.64,2.08.89,2.65,1.68.62.86.43,2.09.66,3.05s.34,1.89.12,2.9-.44,1.95-.89,2.74c-.51.88-.85,1.92-1.6,2.53s-1.94.48-2.88.84c-.88.34-1.72.76-2.73.91-.93.14-1.89.28-2.9.29-.96,0-1.91-.19-2.91-.3s-1.99.14-2.96-.03" fill="#fff"/>
        <path d="M41.84,246.86c-.27.94-.74,1.78-.9,2.62-.18.97-.06,1.93-.12,2.77-.07,1.01.18,1.91.24,2.72.08,1.06.18,1.94.38,2.68.45,1.69-.17,1.68.94,2.49.91.26,1.88.3,2.68.66.87.39,1.42,1.32,2.15,1.82.79.54,1.63.96,2.22,1.6.64.71,1.23,1.46,1.59,2.26.37.85.59,1.8.59,2.72,0,1-.25,2.06-.75,2.98-.45.83-1.41,1.36-2.2,2.09-.7.65-1.18,1.72-2.08,2.26-.83.5-1.77,1-2.74,1.4-.91.37-1.97.49-2.97.75s-2.01.16-3.02.29-1.98.59-3,.59-1.88-.74-2.8-.85c-.97-.12-1.86-.28-2.75-.51-.95-.24-1.98-.11-2.83-.47-.91-.38-1.92-.61-2.68-1.11-.84-.54-1.13-1.68-1.75-2.34-.68-.72-1.82-1.11-2.2-1.94-.4-.88.04-1.96.04-2.91s-.44-2.03-.05-2.9,1.21-1.5,1.88-2.22c.62-.66,1.44-1.15,2.27-1.7,0,0-.44.06-.44.05-.28-.96-.15-2.04-.38-3.02s-.71-1.9-.89-2.89-.04-2.03-.17-3.02.11-2.02.01-3.02-.62-1.95-.68-2.95-.11-2-.13-3,.05-2.01.05-3.01-.14-2.01-.11-3.01.29-2,.35-2.99.06-2.01.14-3,.06-2.02.17-3,.13-2.02.26-3,.27-2,.42-2.98.19-2.02.36-2.99.91-1.89,1.09-2.86.07-2.05.27-3.01c.21-1.01.75-1.92.96-2.86.23-1.01.61-1.95.84-2.88.26-1.02.04-2.12.28-3.03.28-1.05.74-1.96.99-2.84.32-1.1.83-2,1.08-2.8.57-1.83-.65-2.23.77-2.71s1.39-.33,2.85-.37,1.45-.37,2.91-.41,1.47.24,2.93.2,1.47.26,2.93.23,1.45-.32,2.92-.36,1.47.29,2.93.25,1.46.03,2.92,0,1.46-.14,2.92-.17,1.45-.44,2.91-.48,1.46.02,2.93-.02,1.47.12,2.93.08,1.67-.9,3.05-.39-.29,1.4-.81,3.23c-.23.81-.56,1.77-.87,2.87-.24.88-.8,1.77-1.08,2.82-.24.91-.19,1.97-.45,2.98-.24.93-.67,1.85-.92,2.86-.23.94-.46,1.92-.7,2.92s-.34,1.96-.56,2.95-.83,1.85-1.05,2.84-.03,2.03-.24,3.02-.55,1.93-.74,2.91-.08,2.02-.26,3-.6,1.93-.76,2.92-.36,1.98-.5,2.96-.04,2.03-.16,3.01.05,2.03-.04,3.01-.16,2-.22,2.98c-.06,1.03-.14,2.01-.15,2.98-.01,1.04-.7,2.06-.65,3.02.06,1.06.26,2.08.4,3,.17,1.07.92,1.92,1.22,2.78.37,1.05.71,1.91,1.3,2.59,0,0-.14.14-.14.15,1.05.19,2.16.16,3.05.53.99.41,1.57,1.45,2.35,2.03.86.64,2.08.89,2.65,1.68.62.86.43,2.09.66,3.05s.34,1.89.12,2.9-.44,1.95-.89,2.74c-.51.88-.85,1.92-1.6,2.53s-1.94.48-2.88.84c-.88.34-1.72.76-2.73.91-.93.14-1.89.28-2.9.29-.96,0-1.91-.19-2.91-.3s-1.99.14-2.96-.03" fill="none" stroke="#000" stroke-linecap="round" stroke-linejoin="round" stroke-width="2"/>
      </g>
    </g>
    <g>
      <path d="M70.16,179.77c.2.97.49,1.93.52,2.89s-.31,1.94-.44,2.91-.18,1.94-.47,2.88-.41,1.95-.83,2.84-1.13,1.61-1.67,2.44-.91,1.76-1.55,2.51-1.42,1.36-2.14,2.04-1.58,1.13-2.37,1.73-1.51,1.21-2.36,1.73-1.67.98-2.56,1.42-1.83.63-2.75.99-1.78.75-2.73,1.03-1.82.76-2.79.95-1.96.33-2.93.44-1.98.31-2.95.33-1.99-.17-2.96-.24-1.99-.09-2.95-.24-1.9-.61-2.84-.85-1.86-.64-2.77-.98-1.9-.56-2.77-1-1.64-1.1-2.45-1.64-1.69-1.03-2.42-1.67-1.55-1.26-2.18-2-1.19-1.59-1.7-2.43-.91-1.75-1.27-2.67-.83-1.82-1.03-2.79.03-1.99,0-2.96-.13-1.96,0-2.93.29-1.94.58-2.88.63-1.86,1.06-2.75.87-1.75,1.42-2.58,1.33-1.43,1.97-2.19,1.02-1.71,1.74-2.39,1.45-1.33,2.24-1.93,1.67-1.04,2.51-1.56,1.77-.82,2.66-1.26,1.66-1.06,2.59-1.42,1.97-.24,2.92-.51,1.86-.5,2.83-.69,1.89-.64,2.86-.74,1.97-.35,2.94-.38,1.97.45,2.94.52,2.02-.29,2.98-.14,1.86.8,2.79,1.04,2.04.13,2.95.47,1.77.94,2.63,1.38,1.69,1.03,2.49,1.57,1.81.91,2.54,1.56,1.26,1.55,1.89,2.3,1.37,1.46,1.88,2.29.78,1.82,1.14,2.74.6,1.86.8,2.83Z" fill="#fff"/>
      <path d="M70.16,179.77c.2.97.49,1.93.52,2.89s-.31,1.94-.44,2.91-.18,1.94-.47,2.88-.41,1.95-.83,2.84-1.13,1.61-1.67,2.44-.91,1.76-1.55,2.51-1.42,1.36-2.14,2.04-1.58,1.13-2.37,1.73-1.51,1.21-2.36,1.73-1.67.98-2.56,1.42-1.83.63-2.75.99-1.78.75-2.73,1.03-1.82.76-2.79.95-1.96.33-2.93.44-1.98.31-2.95.33-1.99-.17-2.96-.24-1.99-.09-2.95-.24-1.9-.61-2.84-.85-1.86-.64-2.77-.98-1.9-.56-2.77-1-1.64-1.1-2.45-1.64-1.69-1.03-2.42-1.67-1.55-1.26-2.18-2-1.19-1.59-1.7-2.43-.91-1.75-1.27-2.67-.83-1.82-1.03-2.79.03-1.99,0-2.96-.13-1.96,0-2.93.29-1.94.58-2.88.63-1.86,1.06-2.75.87-1.75,1.42-2.58,1.33-1.43,1.97-2.19,1.02-1.71,1.74-2.39,1.45-1.33,2.24-1.93,1.67-1.04,2.51-1.56,1.77-.82,2.66-1.26,1.66-1.06,2.59-1.42,1.97-.24,2.92-.51,1.86-.5,2.83-.69,1.89-.64,2.86-.74,1.97-.35,2.94-.38,1.97.45,2.94.52,2.02-.29,2.98-.14,1.86.8,2.79,1.04,2.04.13,2.95.47,1.77.94,2.63,1.38,1.69,1.03,2.49,1.57,1.81.91,2.54,1.56,1.26,1.55,1.89,2.3,1.37,1.46,1.88,2.29.78,1.82,1.14,2.74.6,1.86.8,2.83Z" fill="none" stroke="#000" stroke-linecap="round" stroke-linejoin="round" stroke-width="2"/>
    </g>
    <g>
      <path d="M59.91,212.84c-.18-1.7-1.23-1.24-2.15-2.74-.66-1.07-1.08-2.3-1.21-3.15-.16-.97-.22-1.91-.06-2.83s.38-1.89.82-2.73,1.09-1.56,1.78-2.23,1.5-1.12,2.37-1.55,1.7-.78,2.67-.93,1.94-.2,2.86-.06,1.86.51,2.71.93,1.7.92,2.38,1.59,1.22,1.47,1.67,2.33.83,1.72.99,2.7,0,1.93-.15,2.85-.39,1.88-.83,2.71-.93,1.71-1.62,2.37-1.56,1.11-2.43,1.54-1.66.8-2.63.95c-1.01.98-.34,1.02-1.17,2.5-.4.71-1,1.44-1.67,2.25-.55.67-1.17,1.38-1.94,2.02-.68.57-1.44,1.1-2.31,1.58-.78.43-1.51.8-2.45,1.12-.2-1.42.24-1.37.54-2.77s.16-1.43.46-2.83.13-1.46.6-2.81.93-1.37.78-2.8Z" fill="#fff"/>
      <path d="M59.91,212.84c-.18-1.7-1.23-1.24-2.15-2.74-.66-1.07-1.08-2.3-1.21-3.15-.16-.97-.22-1.91-.06-2.83s.38-1.89.82-2.73,1.09-1.56,1.78-2.23,1.5-1.12,2.37-1.55,1.7-.78,2.67-.93,1.94-.2,2.86-.06,1.86.51,2.71.93,1.7.92,2.38,1.59,1.22,1.47,1.67,2.33.83,1.72.99,2.7,0,1.93-.15,2.85-.39,1.88-.83,2.71-.93,1.71-1.62,2.37-1.56,1.11-2.43,1.54-1.66.8-2.63.95c-1.01.98-.34,1.02-1.17,2.5-.4.71-1,1.44-1.67,2.25-.55.67-1.17,1.38-1.94,2.02-.68.57-1.44,1.1-2.31,1.58-.78.43-1.51.8-2.45,1.12-.2-1.42.24-1.37.54-2.77s.16-1.43.46-2.83.13-1.46.6-2.81.93-1.37.78-2.8Z" fill="none" stroke="#000" stroke-linecap="round" stroke-linejoin="round" stroke-width="2"/>
    </g>
    <g>
      <g>
        <path d="M27.89,205.95c-.98,1.22-.85.96-1.76,2.55-.46.81-1.01,1.72-1.43,2.77-.37.94-.81,1.93-1,2.97s-.13,2.09-.01,3.13.52,1.93,1.04,2.89c.45.85,1.01,1.67,1.86,2.43.7.62,1.43,1.41,2.45,1.95s1.99.87,2.92,1.13c1.07.3,2.12.31,3.1.33,1.09.02,2.11-.1,3.08-.34,1.04-.26,2.05-.56,2.94-1.03.95-.51,1.68-1.31,2.44-1.93.88-.72,1.85-1.24,2.46-1.93,1.22-1.37.38-1.84,1.7-2.66.98.07,2.03.22,2.94.01s1.84-.68,2.65-1.16,1.5-1.2,2.13-1.92,1.23-1.47,1.61-2.36.72-1.8.8-2.79-.12-1.96-.35-2.87-.69-1.8-1.2-2.6-1.09-1.59-1.83-2.2-1.61-1.01-2.51-1.37-1.79-.63-2.77-.71-1.93.11-2.84.33-1.91.42-2.73.9-1.52,1.2-2.15,1.92-1,1.6-1.38,2.49-.76,1.74-.84,2.72" fill="#fff"/>
        <path d="M27.89,205.95c-.98,1.22-.85.96-1.76,2.55-.46.81-1.01,1.72-1.43,2.77-.37.94-.81,1.93-1,2.97s-.13,2.09-.01,3.13.52,1.93,1.04,2.89c.45.85,1.01,1.67,1.86,2.43.7.62,1.43,1.41,2.45,1.95s1.99.87,2.92,1.13c1.07.3,2.12.31,3.1.33,1.09.02,2.11-.1,3.08-.34,1.04-.26,2.05-.56,2.94-1.03.95-.51,1.68-1.31,2.44-1.93.88-.72,1.85-1.24,2.46-1.93,1.22-1.37.38-1.84,1.7-2.66.98.07,2.03.22,2.94.01s1.84-.68,2.65-1.16,1.5-1.2,2.13-1.92,1.23-1.47,1.61-2.36.72-1.8.8-2.79-.12-1.96-.35-2.87-.69-1.8-1.2-2.6-1.09-1.59-1.83-2.2-1.61-1.01-2.51-1.37-1.79-.63-2.77-.71-1.93.11-2.84.33-1.91.42-2.73.9-1.52,1.2-2.15,1.92-1,1.6-1.38,2.49-.76,1.74-.84,2.72" fill="none" stroke="#000" stroke-linecap="round" stroke-linejoin="round" stroke-width="2"/>
      </g>
      <g>
        <path d="M33.66,216.35c1.01-.05,1.87-.24,2.58-.55.92-.41,1.6-1,2.1-1.58.98-1.13,1.38-.97,1.25-2.28-.18-1.74-.55-1.54-.36-3.47" fill="#fff"/>
        <path d="M33.66,216.35c1.01-.05,1.87-.24,2.58-.55.92-.41,1.6-1,2.1-1.58.98-1.13,1.38-.97,1.25-2.28-.18-1.74-.55-1.54-.36-3.47" fill="none" stroke="#000" stroke-linecap="round" stroke-linejoin="round" stroke-width="2"/>
      </g>
    </g>
  </g>
  <ellipse cx="55.32" cy="181.8" rx="7.04" ry="8.39" transform="translate(-87.12 56.02) rotate(-31.63)" fill="url(#_10_dpi_40_)"/>
  <path d="M44.33,170.49s2.31,1.95.68,5.07" fill="none" stroke="#000" stroke-linecap="round" stroke-miterlimit="10" stroke-width="2"/>
  <path d="M40.29,172.03s1.56,2.1.14,4.98" fill="none" stroke="#000" stroke-linecap="round" stroke-miterlimit="10" stroke-width="2"/>
  <path d="M35.43,193.66s-2.3-7.85,2.53-9.36c4.83-1.51,4.95,5.97,4.95,5.97" fill="none" stroke="#000" stroke-linecap="round" stroke-linejoin="round" stroke-width="2"/>
  <path d="M51.72,186.58s-2.3-7.85,2.53-9.36c4.83-1.51,4.95,5.97,4.95,5.97" fill="none" stroke="#000" stroke-linecap="round" stroke-linejoin="round" stroke-width="2"/>
  <path d="M52.39,193.5c.58.37.51,1.16-.17,1.76s-1.69.79-2.28.41-.51-1.16.17-1.76,1.69-.79,2.28-.41Z"/>
  <path d="M29.75,193.36c0,.92-.34,1.78-.44,2.65-.11.91.03,1.84-.18,2.68-.22.9-.17,1.89-.49,2.69-.35.87-.91,1.65-1.36,2.38-.49.8-1.48,1.15-2.08,1.75-.67.67-1.26,1.21-2.03,1.57-.82.39-1.57.91-2.47.9s-1.79-.27-2.61-.69c-.76-.39-1.3-1.12-1.96-1.8-.59-.61-1.59-1-2.08-1.81-.44-.74-.18-1.87-.51-2.74-.31-.81-.61-1.61-.82-2.51-.2-.85-.54-1.68-.64-2.6s-.17-1.76-.17-2.68.33-1.77.43-2.64c.11-.91-.17-1.86.04-2.7.22-.9.68-1.69,1-2.49.35-.87.54-1.77.99-2.5.49-.8.99-1.6,1.59-2.2.67-.67,1.53-1.06,2.3-1.43.82-.39,1.68-.58,2.59-.57s1.83.09,2.65.51c.76.39,1.39,1.08,2.05,1.77.59.61.88,1.47,1.36,2.29.44.74,1.32,1.3,1.66,2.18.31.81.75,1.66.96,2.57.2.85.23,1.8.33,2.72s-.08,1.8-.08,2.72Z"/>
  <path d="M81.11,273.48s-7.44-2.59-6.22-12.37c0,0-5.44,5.48-1.67,12.37" fill="#fff" stroke="#000" stroke-linecap="round" stroke-linejoin="round" stroke-width="2"/>
  <path d="M144.24,275.94s8.77-2.74,11.21-14.98c0,0,3.24,9.94.71,15.19" fill="#fff" stroke="#000" stroke-linecap="round" stroke-linejoin="round" stroke-width="2"/>
  <path d="M155.01,277.25s2.56-7.5,11.44-8.7c0,0-4.33,4.7-2.56,8.7" fill="#fff" stroke="#000" stroke-linecap="round" stroke-linejoin="round" stroke-width="2"/>
</svg>