<?xml version="1.0" encoding="UTF-8"?>
<svg xmlns="http://www.w3.org/2000/svg" width="249.33" height="286.38" xmlns:xlink="http://www.w3.org/1999/xlink" viewBox="0 0 249.33 286.38">
  <defs>
    <pattern id="_6_dpi_20_" data-name="6 dpi 20%" x="0" y="0" width="50" height="50" patternTransform="translate(-7509.05 -6916.88) scale(.2)" patternUnits="userSpaceOnUse" viewBox="0 0 50 50">
      <g>
        <rect y="0" width="50" height="50" fill="none"/>
        <path d="M19,45.4c1.32,0,2.4-1.07,2.4-2.4s-1.08-2.4-2.4-2.4-2.4,1.08-2.4,2.4,1.07,2.4,2.4,2.4Z" fill="#231815"/>
        <path d="M43,45.4c1.32,0,2.4-1.07,2.4-2.4s-1.08-2.4-2.4-2.4-2.4,1.08-2.4,2.4,1.07,2.4,2.4,2.4Z" fill="#231815"/>
        <path d="M19,21.4c1.32,0,2.4-1.07,2.4-2.4s-1.08-2.4-2.4-2.4-2.4,1.08-2.4,2.4,1.07,2.4,2.4,2.4Z" fill="#231815"/>
        <path d="M43,21.4c1.32,0,2.4-1.07,2.4-2.4s-1.08-2.4-2.4-2.4-2.4,1.08-2.4,2.4,1.07,2.4,2.4,2.4Z" fill="#231815"/>
        <path d="M31,33.4c1.32,0,2.4-1.07,2.4-2.4s-1.08-2.4-2.4-2.4-2.4,1.08-2.4,2.4,1.07,2.4,2.4,2.4Z" fill="#231815"/>
        <path d="M7,33.4c1.32,0,2.4-1.07,2.4-2.4s-1.08-2.4-2.4-2.4-2.4,1.08-2.4,2.4,1.07,2.4,2.4,2.4Z" fill="#231815"/>
        <path d="M31,9.4c1.32,0,2.4-1.07,2.4-2.4s-1.08-2.4-2.4-2.4-2.4,1.08-2.4,2.4,1.07,2.4,2.4,2.4Z" fill="#231815"/>
        <path d="M7,9.4c1.32,0,2.4-1.07,2.4-2.4s-1.08-2.4-2.4-2.4-2.4,1.08-2.4,2.4,1.07,2.4,2.4,2.4Z" fill="#231815"/>
      </g>
    </pattern>
    <pattern id="_10_lpi_90_" data-name="10 lpi 90%" x="0" y="0" width="72" height="72" patternTransform="translate(-3723.52 -13251.45) rotate(-90) scale(.63)" patternUnits="userSpaceOnUse" viewBox="0 0 72 72">
      <g>
        <rect width="72" height="72" fill="none"/>
        <g>
          <line x1="71.75" y1="68.4" x2="144.25" y2="68.4" fill="none" stroke="#231815" stroke-width="6.48"/>
          <line x1="71.75" y1="54" x2="144.25" y2="54" fill="none" stroke="#231815" stroke-width="6.48"/>
          <line x1="71.75" y1="39.6" x2="144.25" y2="39.6" fill="none" stroke="#231815" stroke-width="6.48"/>
          <line x1="71.75" y1="25.2" x2="144.25" y2="25.2" fill="none" stroke="#231815" stroke-width="6.48"/>
          <line x1="71.75" y1="10.8" x2="144.25" y2="10.8" fill="none" stroke="#231815" stroke-width="6.48"/>
          <line x1="71.75" y1="61.2" x2="144.25" y2="61.2" fill="none" stroke="#231815" stroke-width="6.48"/>
          <line x1="71.75" y1="46.8" x2="144.25" y2="46.8" fill="none" stroke="#231815" stroke-width="6.48"/>
          <line x1="71.75" y1="32.4" x2="144.25" y2="32.4" fill="none" stroke="#231815" stroke-width="6.48"/>
          <line x1="71.75" y1="18" x2="144.25" y2="18" fill="none" stroke="#231815" stroke-width="6.48"/>
          <line x1="71.75" y1="3.6" x2="144.25" y2="3.6" fill="none" stroke="#231815" stroke-width="6.48"/>
        </g>
        <g>
          <line x1="-.25" y1="68.4" x2="72.25" y2="68.4" fill="none" stroke="#231815" stroke-width="6.48"/>
          <line x1="-.25" y1="54" x2="72.25" y2="54" fill="none" stroke="#231815" stroke-width="6.48"/>
          <line x1="-.25" y1="39.6" x2="72.25" y2="39.6" fill="none" stroke="#231815" stroke-width="6.48"/>
          <line x1="-.25" y1="25.2" x2="72.25" y2="25.2" fill="none" stroke="#231815" stroke-width="6.48"/>
          <line x1="-.25" y1="10.8" x2="72.25" y2="10.8" fill="none" stroke="#231815" stroke-width="6.48"/>
          <line x1="-.25" y1="61.2" x2="72.25" y2="61.2" fill="none" stroke="#231815" stroke-width="6.48"/>
          <line x1="-.25" y1="46.8" x2="72.25" y2="46.8" fill="none" stroke="#231815" stroke-width="6.48"/>
          <line x1="-.25" y1="32.4" x2="72.25" y2="32.4" fill="none" stroke="#231815" stroke-width="6.48"/>
          <line x1="-.25" y1="18" x2="72.25" y2="18" fill="none" stroke="#231815" stroke-width="6.48"/>
          <line x1="-.25" y1="3.6" x2="72.25" y2="3.6" fill="none" stroke="#231815" stroke-width="6.48"/>
        </g>
        <g>
          <line x1="-72.25" y1="68.4" x2=".25" y2="68.4" fill="none" stroke="#231815" stroke-width="6.48"/>
          <line x1="-72.25" y1="54" x2=".25" y2="54" fill="none" stroke="#231815" stroke-width="6.48"/>
          <line x1="-72.25" y1="39.6" x2=".25" y2="39.6" fill="none" stroke="#231815" stroke-width="6.48"/>
          <line x1="-72.25" y1="25.2" x2=".25" y2="25.2" fill="none" stroke="#231815" stroke-width="6.48"/>
          <line x1="-72.25" y1="10.8" x2=".25" y2="10.8" fill="none" stroke="#231815" stroke-width="6.48"/>
          <line x1="-72.25" y1="61.2" x2=".25" y2="61.2" fill="none" stroke="#231815" stroke-width="6.48"/>
          <line x1="-72.25" y1="46.8" x2=".25" y2="46.8" fill="none" stroke="#231815" stroke-width="6.48"/>
          <line x1="-72.25" y1="32.4" x2=".25" y2="32.4" fill="none" stroke="#231815" stroke-width="6.48"/>
          <line x1="-72.25" y1="18" x2=".25" y2="18" fill="none" stroke="#231815" stroke-width="6.48"/>
          <line x1="-72.25" y1="3.6" x2=".25" y2="3.6" fill="none" stroke="#231815" stroke-width="6.48"/>
        </g>
      </g>
    </pattern>
    <pattern id="_10_dpi_40_" data-name="10 dpi 40%" x="0" y="0" width="28.8" height="28.8" patternTransform="translate(-8424.02 -7979.89) scale(.08)" patternUnits="userSpaceOnUse" viewBox="0 0 28.8 28.8">
      <g>
        <rect x="0" width="28.8" height="28.8" fill="none"/>
        <g>
          <path d="M28.8,31.68c1.59,0,2.88-1.29,2.88-2.88s-1.29-2.88-2.88-2.88-2.88,1.29-2.88,2.88,1.29,2.88,2.88,2.88Z" fill="#231815"/>
          <path d="M14.4,31.68c1.59,0,2.88-1.29,2.88-2.88s-1.29-2.88-2.88-2.88-2.88,1.29-2.88,2.88,1.29,2.88,2.88,2.88Z" fill="#231815"/>
          <path d="M28.8,17.28c1.59,0,2.88-1.29,2.88-2.88s-1.29-2.88-2.88-2.88-2.88,1.29-2.88,2.88,1.29,2.88,2.88,2.88Z" fill="#231815"/>
          <path d="M14.4,17.28c1.59,0,2.88-1.29,2.88-2.88s-1.29-2.88-2.88-2.88-2.88,1.29-2.88,2.88,1.29,2.88,2.88,2.88Z" fill="#231815"/>
          <path d="M7.2,24.48c1.59,0,2.88-1.29,2.88-2.88s-1.29-2.88-2.88-2.88-2.88,1.29-2.88,2.88,1.29,2.88,2.88,2.88Z" fill="#231815"/>
          <path d="M21.6,24.48c1.59,0,2.88-1.29,2.88-2.88s-1.29-2.88-2.88-2.88-2.88,1.29-2.88,2.88,1.29,2.88,2.88,2.88Z" fill="#231815"/>
          <path d="M7.2,10.08c1.59,0,2.88-1.29,2.88-2.88s-1.29-2.88-2.88-2.88-2.88,1.29-2.88,2.88,1.29,2.88,2.88,2.88Z" fill="#231815"/>
          <path d="M21.6,10.08c1.59,0,2.88-1.29,2.88-2.88s-1.29-2.88-2.88-2.88-2.88,1.29-2.88,2.88,1.29,2.88,2.88,2.88Z" fill="#231815"/>
        </g>
        <g>
          <path d="M0,31.68c1.59,0,2.88-1.29,2.88-2.88S1.59,25.92,0,25.92s-2.88,1.29-2.88,2.88S-1.59,31.68,0,31.68Z" fill="#231815"/>
          <path d="M0,17.28c1.59,0,2.88-1.29,2.88-2.88S1.59,11.52,0,11.52s-2.88,1.29-2.88,2.88S-1.59,17.28,0,17.28Z" fill="#231815"/>
        </g>
        <g>
          <path d="M28.8,2.88c1.59,0,2.88-1.29,2.88-2.88s-1.29-2.88-2.88-2.88-2.88,1.29-2.88,2.88,1.29,2.88,2.88,2.88Z" fill="#231815"/>
          <path d="M14.4,2.88c1.59,0,2.88-1.29,2.88-2.88s-1.29-2.88-2.88-2.88-2.88,1.29-2.88,2.88,1.29,2.88,2.88,2.88Z" fill="#231815"/>
        </g>
        <path d="M0,2.88c1.59,0,2.88-1.29,2.88-2.88S1.59-2.88,0-2.88-2.88-1.59-2.88,0-1.59,2.88,0,2.88Z" fill="#231815"/>
      </g>
    </pattern>
  </defs>
  <g id="_레이어_4" data-name="레이어 4">
    <polygon points="2.64 92.66 12.08 93.33 12.08 103.45 16.81 95.35 26.25 102.78 20.85 91.31 28.95 89.28 19.5 86.59 18.83 74.44 14.11 83.89 3.99 77.82 10.06 87.93 2.64 92.66" fill="#ffabe3" stroke="#000" stroke-linecap="round" stroke-linejoin="round"/>
  </g>
  <g id="_레이어_7" data-name="레이어 7">
    <polygon points="114.84 44.2 27.52 133.99 53.73 270.74 179.37 270.74 202.18 133.99 114.84 44.2" fill="#fff" stroke="#000" stroke-miterlimit="10" stroke-width="2"/>
    <path d="M46.51,60.89s-6.03,9.55,3.5,24.3l21.99-8.15,9.43-25.36-34.92,9.21Z" fill="#fff" stroke="#000" stroke-miterlimit="10" stroke-width="2"/>
    <g>
      <polygon points="82.41 34.2 83.31 37.83 82.48 41.47 81.68 44.95 80.56 48.39 78.58 51.42 76.62 54.53 74.14 57.28 71.18 59.49 68.03 61.41 64.86 63.33 61.39 64.64 57.84 65.69 54.17 66.1 50.53 66.67 46.84 66.75 43.19 66.25 39.69 65.12 36.17 64.13 33.26 61.91 30.52 59.64 28.03 57.05 25.81 54.04 25.93 50.27 25.18 46.63 26.65 43.22 27.34 39.55 29.24 36.36 32.12 33.97 34.5 31.2 37.19 28.67 40.44 26.92 43.88 25.63 46.98 23.52 50.61 22.77 54.3 22.58 57.87 21.84 61.52 21.89 65.12 22.44 68.81 22.66 71.97 24.59 75.12 26.28 78.27 28.14 80.31 31.16 82.41 34.2" fill="#fff"/>
      <polygon points="82.41 34.2 83.31 37.83 82.48 41.47 81.68 44.95 80.56 48.39 78.58 51.42 76.62 54.53 74.14 57.28 71.18 59.49 68.03 61.41 64.86 63.33 61.39 64.64 57.84 65.69 54.17 66.1 50.53 66.67 46.84 66.75 43.19 66.25 39.69 65.12 36.17 64.13 33.26 61.91 30.52 59.64 28.03 57.05 25.81 54.04 25.93 50.27 25.18 46.63 26.65 43.22 27.34 39.55 29.24 36.36 32.12 33.97 34.5 31.2 37.19 28.67 40.44 26.92 43.88 25.63 46.98 23.52 50.61 22.77 54.3 22.58 57.87 21.84 61.52 21.89 65.12 22.44 68.81 22.66 71.97 24.59 75.12 26.28 78.27 28.14 80.31 31.16 82.41 34.2" fill="none" stroke="#000" stroke-linecap="round" stroke-linejoin="round" stroke-width="2"/>
    </g>
    <path d="M216.14,130.11c1.31-1.31,1.31-3.42,0-4.73L125.92,35.15h0s-8.83-8.84-8.83-8.84c-1.31-1.31-3.42-1.31-4.73,0L13.31,125.36c-1.31,1.31-1.31,3.42,0,4.73l6.47,6.47c1.31,1.31,3.42,1.31,4.73,0L112.35,48.72c1.31-1.31,3.42-1.31,4.73,0l87.86,87.86c1.31,1.31,3.42,1.31,4.73,0l6.47-6.47Z" stroke="#000" stroke-linecap="round" stroke-linejoin="round" stroke-width=".63"/>
    <path d="M148,270.63l5.48-74.31c.25-1.69.38-3.41.38-5.17,0-19.43-15.75-35.17-35.17-35.17s-35.17,15.75-35.17,35.17c0,1.35.08,2.68.23,3.99l4.39,75.64,59.86-.15Z" fill="url(#_6_dpi_20_)" stroke="#000" stroke-miterlimit="10" stroke-width="2"/>
    <g>
      <path d="M98.29,112.56c.23,5.41-4.52,7.87-9.52,7.19-.35-.19-.87.43-.72.67-.12,3.37,1.03,4.3-3.48,4.07-2.06-.3-3.87.65-4-1.23-.11-.68-.13-15.59,0-16.37-.13-.31.35-1.1.79-.88,4.53-.79,18.26-.33,16.92,6.55ZM91.07,112.99c0-1.85-2.54-1.42-2.54-1.42-.74.07-.68,2.27-.34,2.78.4.3,2.64.79,2.88-1.36Z" fill="url(#_10_lpi_90_)" stroke="#000" stroke-miterlimit="10" stroke-width=".63"/>
      <path d="M120.49,114.99c-.03,12.76-19.71,12.77-19.92.08.13-11.99,19.83-12.42,19.92-.08ZM112.77,115.15c.02-3.06-4.46-3.02-4.39.08.02,2.89,4.41,2.79,4.39-.08Z" fill="url(#_10_lpi_90_)" stroke="#000" stroke-miterlimit="10" stroke-width=".63"/>
      <path d="M138.54,118.95c.57,6.57-12.33,7.06-15.32,4.6-.25-1.73-.63-4.41.17-5.91,1.16-.26,2.35,1.51,5.11,1.6,2.82-.55.3-2.01-1.75-2.78-9.89-6.5,2.94-12.6,9.76-10.3,1.2-.46,1.18,6.71.05,5.94-.29-.23-3.74-1.01-3.55.35,1.54,1.82,6.03,2.87,5.54,6.5Z" fill="url(#_10_lpi_90_)" stroke="#000" stroke-miterlimit="10" stroke-width=".63"/>
      <path d="M156.83,109.29c.42,4.66-1.42,2.63-4.43,3.4-.32.08.03,9.93-.02,10.41.06,1.95-1.67,1.13-3.69,1.34-1.92-.12-2.71.19-3.62-.27-.22-.24-.19-.78-.19-.78l.24-9.95c.35-1.44-2.35-.68-3.04-.86-2.01.04-1.15-4.92-.94-6.23,1.05-.82,13.25-.26,14.58-.32,1.48-.37,1.07,2.52,1.13,3.26Z" fill="url(#_10_lpi_90_)" stroke="#000" stroke-miterlimit="10" stroke-width=".63"/>
    </g>
    <ellipse cx="63.56" cy="39.02" rx="6.55" ry="8.59" transform="translate(13.43 94.24) rotate(-79.31)" fill="url(#_10_dpi_40_)"/>
    <ellipse cx="62.67" cy="39.74" rx="1.56" ry="2.04" transform="translate(12 93.96) rotate(-79.31)"/>
    <ellipse cx="56.15" cy="49.79" rx="2.04" ry="1.56" transform="translate(-13.31 21.37) rotate(-19.31)"/>
    <ellipse cx="44.85" cy="45.99" rx="2.04" ry="1.56" transform="translate(-19.26 50.02) rotate(-49.31)"/>
    <path d="M56.87,51.83s-2.03,5.06-7.64,2.68" fill="none" stroke="#000" stroke-linecap="round" stroke-miterlimit="10" stroke-width="2"/>
    <path d="M64.52,49.15s-2.03,5.06-7.64,2.68" fill="none" stroke="#000" stroke-linecap="round" stroke-miterlimit="10" stroke-width="2"/>
    <path d="M34.86,51.43c.13,1.01-.08,2.04-.05,3.01.03,1.03-.26,2.01-.35,2.96-.09,1.04,0,2.05-.2,2.97-.23,1.04-.36,2.07-.72,2.92-.44,1.01-1.07,1.86-1.67,2.51-.74.8-1.65,1.42-2.59,1.57s-2.05-.07-2.96-.63c-.75-.46-1.1-1.54-1.77-2.39-.56-.71-1.02-1.5-1.5-2.44-.42-.82-.98-1.62-1.31-2.59-.31-.89-.5-1.84-.72-2.83-.21-.93-.68-1.84-.8-2.83s-.37-2.01-.39-2.97c-.03-1.03.07-2.05.15-3,.09-1.04.29-2.04.49-2.96.23-1.04.37-2.09.73-2.94.44-1.01,1.06-1.92,1.66-2.58.74-.8,1.76-1.39,2.7-1.53s1.95.33,2.86.89c.75.46,1.57,1.07,2.24,1.92.56.71,1.13,1.55,1.61,2.49.42.82.72,1.79,1.06,2.76.31.89.34,1.9.57,2.89.21.93.85,1.82.98,2.82Z"/>
    <path d="M75.1,38.56c.49.86,1.19,1.57,1.73,2.34.58.82.85,1.86,1.47,2.55.68.76,1.86.94,2.56,1.52.8.67,1.26,1.72,2.04,2.15.94.5,2.04.26,2.91.37,1.03.13,2.01.38,2.82-.13s1.57-1.32,1.96-2.33c.32-.84.52-1.9.55-2.99.03-.92-.69-1.86-.86-2.91-.15-.93.21-2.02-.09-3.01-.28-.91-.79-1.8-1.2-2.74-.39-.89-.76-1.82-1.26-2.71s-.89-1.78-1.44-2.55c-.58-.82-1.16-1.64-1.78-2.33-.68-.76-1.51-1.35-2.21-1.93-.8-.67-1.64-1.23-2.42-1.65-.94-.5-1.97-.48-2.84-.59-1.03-.13-1.99-.21-2.8.3s-1.61,1.27-1.99,2.28c-.32.84-.19,1.91-.22,3-.03.92,0,1.91.16,2.95.15.93.39,1.89.69,2.88.28.91.72,1.8,1.13,2.74.39.89.58,1.9,1.08,2.78Z"/>
    <path d="M46.34,34.22s.47,2.95,3.46,2.65" fill="none" stroke="#000" stroke-linecap="round" stroke-miterlimit="10" stroke-width="2"/>
    <path d="M51.16,32.46s.82,2.88,3.75,2.21" fill="none" stroke="#000" stroke-linecap="round" stroke-miterlimit="10" stroke-width="2"/>
    <g>
      <g>
        <path d="M55.58,3.79c-.92-.18-1.86-.1-2.77-.19s-1.84-.62-2.76-.62-1.85.46-2.76.56-1.89-.05-2.8.14-1.68.89-2.56,1.17-1.69.68-2.54,1.04-1.99.15-2.8.59-1.37,1.32-2.13,1.85-1.31,1.28-2.02,1.88-1.5,1.06-2.14,1.73-1.37,1.23-1.95,1.96-.96,1.57-1.46,2.35-1.31,1.37-1.73,2.2-.31,1.87-.66,2.74-.79,1.65-1.05,2.54-.64,1.73-.82,2.65c-.17.9-.25,1.8-.33,2.69s-.46,1.81-.46,2.71.18,1.83.27,2.73.38,1.72.55,2.61c1.4.02,1.24-.65,2.57-1.07s1.49.07,2.83-.35,1.3-.55,2.63-.97,1.31-.5,2.64-.92,1.42-.16,2.75-.58,1.32-.49,2.65-.91,1.33-.43,2.67-.85,1.24-.73,2.58-1.15,1.38-.28,2.72-.7,1.4-.23,2.73-.65,1.33-.45,2.66-.87,1.19-.88,2.53-1.3,1.32-.47,2.66-.89,1.38-.27,2.72-.68,1.38-.28,2.72-.7,1.35-.39,2.69-.81,1.38-.28,2.72-.7,1.27-.63,2.61-1.06,1.46-.05,2.8-.47,1.26-.56,2.4-1.39c-.37-.84-.81-1.26-1.26-2.06s-.6-1.78-1.12-2.53-1.06-1.51-1.65-2.21-1.47-1.13-2.12-1.77-1.29-1.27-2-1.85-1.46-1.07-2.23-1.57-1.41-1.19-2.23-1.62-1.6-.93-2.45-1.27-1.75-.58-2.63-.84-1.78-.42-2.69-.59Z" fill="#f6ffa4"/>
        <path d="M55.58,3.79c-.92-.18-1.86-.1-2.77-.19s-1.84-.62-2.76-.62-1.85.46-2.76.56-1.89-.05-2.8.14-1.68.89-2.56,1.17-1.69.68-2.54,1.04-1.99.15-2.8.59-1.37,1.32-2.13,1.85-1.31,1.28-2.02,1.88-1.5,1.06-2.14,1.73-1.37,1.23-1.95,1.96-.96,1.57-1.46,2.35-1.31,1.37-1.73,2.2-.31,1.87-.66,2.74-.79,1.65-1.05,2.54-.64,1.73-.82,2.65c-.17.9-.25,1.8-.33,2.69s-.46,1.81-.46,2.71.18,1.83.27,2.73.38,1.72.55,2.61c1.4.02,1.24-.65,2.57-1.07s1.49.07,2.83-.35,1.3-.55,2.63-.97,1.31-.5,2.64-.92,1.42-.16,2.75-.58,1.32-.49,2.65-.91,1.33-.43,2.67-.85,1.24-.73,2.58-1.15,1.38-.28,2.72-.7,1.4-.23,2.73-.65,1.33-.45,2.66-.87,1.19-.88,2.53-1.3,1.32-.47,2.66-.89,1.38-.27,2.72-.68,1.38-.28,2.72-.7,1.35-.39,2.69-.81,1.38-.28,2.72-.7,1.27-.63,2.61-1.06,1.46-.05,2.8-.47,1.26-.56,2.4-1.39c-.37-.84-.81-1.26-1.26-2.06s-.6-1.78-1.12-2.53-1.06-1.51-1.65-2.21-1.47-1.13-2.12-1.77-1.29-1.27-2-1.85-1.46-1.07-2.23-1.57-1.41-1.19-2.23-1.62-1.6-.93-2.45-1.27-1.75-.58-2.63-.84-1.78-.42-2.69-.59Z" fill="none" stroke="#000" stroke-miterlimit="10" stroke-width="2"/>
      </g>
      <g>
        <path d="M78.15,23.58c-1.31.41-1.13.98-2.45,1.39s-1.49-.16-2.81.26-1.2.77-2.52,1.18-1.4.15-2.71.56-1.21.74-2.53,1.15-1.38.21-2.69.62-1.38.2-2.7.62-1.14.96-2.46,1.37-1.4.15-2.72.57-1.27.56-2.59.97-1.38.2-2.7.61-1.23.69-2.55,1.1-1.38.22-2.69.63-1.27.57-2.59.98-1.42.09-2.73.5-1.34.35-2.65.76-1.28.53-2.6.94-1.22.73-2.54,1.14-1.36.28-2.68.7-1.23.7-2.55,1.12-1.4.17-2.72.58c-1.06.33-2.02-.33-2.35-1.4,0,0-.32.1-.32.1-.33-1.06.39-2.25,1.45-2.58,1.31-.41,1.21-.73,2.52-1.15s1.51.22,2.83-.19,1.24-.66,2.55-1.07,1.18-.83,2.5-1.24,1.38-.2,2.7-.61,1.33-.37,2.65-.78,1.25-.61,2.57-1.02,1.41-.11,2.73-.52,1.41-.1,2.73-.52,1.12-1.03,2.44-1.44,1.38-.21,2.7-.62,1.33-.39,2.64-.8,1.3-.48,2.61-.89,1.41-.12,2.73-.54,1.34-.33,2.66-.74,1.34-.33,2.66-.75,1.15-.95,2.47-1.36,1.37-.25,2.69-.66,1.43-.05,2.75-.46,1.21-.77,2.53-1.19,1.43-.05,2.75-.47c1.06-.33,2.21-.12,2.55.94,0,0-.34.11-.34.11.33,1.06-.16,1.77-1.22,2.1Z" fill="#f6ffa4"/>
        <path d="M78.15,23.58c-1.31.41-1.13.98-2.45,1.39s-1.49-.16-2.81.26-1.2.77-2.52,1.18-1.4.15-2.71.56-1.21.74-2.53,1.15-1.38.21-2.69.62-1.38.2-2.7.62-1.14.96-2.46,1.37-1.4.15-2.72.57-1.27.56-2.59.97-1.38.2-2.7.61-1.23.69-2.55,1.1-1.38.22-2.69.63-1.27.57-2.59.98-1.42.09-2.73.5-1.34.35-2.65.76-1.28.53-2.6.94-1.22.73-2.54,1.14-1.36.28-2.68.7-1.23.7-2.55,1.12-1.4.17-2.72.58c-1.06.33-2.02-.33-2.35-1.4,0,0-.32.1-.32.1-.33-1.06.39-2.25,1.45-2.58,1.31-.41,1.21-.73,2.52-1.15s1.51.22,2.83-.19,1.24-.66,2.55-1.07,1.18-.83,2.5-1.24,1.38-.2,2.7-.61,1.33-.37,2.65-.78,1.25-.61,2.57-1.02,1.41-.11,2.73-.52,1.41-.1,2.73-.52,1.12-1.03,2.44-1.44,1.38-.21,2.7-.62,1.33-.39,2.64-.8,1.3-.48,2.61-.89,1.41-.12,2.73-.54,1.34-.33,2.66-.74,1.34-.33,2.66-.75,1.15-.95,2.47-1.36,1.37-.25,2.69-.66,1.43-.05,2.75-.46,1.21-.77,2.53-1.19,1.43-.05,2.75-.47c1.06-.33,2.21-.12,2.55.94,0,0-.34.11-.34.11.33,1.06-.16,1.77-1.22,2.1Z" fill="none" stroke="#000" stroke-linecap="round" stroke-linejoin="round" stroke-width="1.93"/>
      </g>
    </g>
    <g>
      <path d="M91.83,52.2c.28.89.11,1.83-.01,2.74s-.06,1.9-.51,2.73c-.42.78-1.19,1.41-1.86,2.07-.63.62-1.54.88-2.36,1.36-.76.45-1.39,1.25-2.29,1.53s-1.82.67-2.7.74c-.94.07-1.94-.07-2.81-.22-.93-.16-1.84-.56-2.63-.95-.84-.42-1.78-.89-2.38-1.54s-.74-1.74-1.02-2.63-.77-1.83-.65-2.74.42-1.9.87-2.72c.42-.78,1.48-1.16,2.15-1.83.63-.62,1.27-1.22,2.08-1.69.76-.45,1.45-1.19,2.35-1.47s1.85-.51,2.73-.58c.94-.07,1.89.22,2.76.37.93.16,1.73.62,2.52,1.02.84.42,1.89.62,2.49,1.28s.97,1.64,1.25,2.53Z" fill="#fff"/>
      <path d="M91.83,52.2c.28.89.11,1.83-.01,2.74s-.06,1.9-.51,2.73c-.42.78-1.19,1.41-1.86,2.07-.63.62-1.54.88-2.36,1.36-.76.45-1.39,1.25-2.29,1.53s-1.82.67-2.7.74c-.94.07-1.94-.07-2.81-.22-.93-.16-1.84-.56-2.63-.95-.84-.42-1.78-.89-2.38-1.54s-.74-1.74-1.02-2.63-.77-1.83-.65-2.74.42-1.9.87-2.72c.42-.78,1.48-1.16,2.15-1.83.63-.62,1.27-1.22,2.08-1.69.76-.45,1.45-1.19,2.35-1.47s1.85-.51,2.73-.58c.94-.07,1.89.22,2.76.37.93.16,1.73.62,2.52,1.02.84.42,1.89.62,2.49,1.28s.97,1.64,1.25,2.53Z" fill="none" stroke="#000" stroke-miterlimit="10" stroke-width="2"/>
    </g>
    <g>
      <path d="M55.23,81.73c.28.89.43,1.66.31,2.56s-.44,1.63-.89,2.46c-.42.78-.68,1.67-1.35,2.34-.63.62-1.44,1.03-2.26,1.51-.76.45-1.48,1.07-2.38,1.35s-1.82.46-2.71.53c-.94.07-1.87-.05-2.74-.2-.93-.16-1.68-.73-2.46-1.12-.84-.42-1.98-.47-2.58-1.13s-.77-1.72-1.05-2.61-.32-1.78-.2-2.69.27-1.8.72-2.63c.42-.78.96-1.56,1.63-2.22.63-.62,1.38-1.2,2.19-1.68.76-.45,1.55-1.08,2.45-1.36s1.94.27,2.82.2c.94-.07,1.88-.69,2.75-.54.93.16,1.66.93,2.45,1.32.84.42,1.38,1.06,1.98,1.72s1.03,1.3,1.31,2.19Z" fill="#fff"/>
      <path d="M55.23,81.73c.28.89.43,1.66.31,2.56s-.44,1.63-.89,2.46c-.42.78-.68,1.67-1.35,2.34-.63.62-1.44,1.03-2.26,1.51-.76.45-1.48,1.07-2.38,1.35s-1.82.46-2.71.53c-.94.07-1.87-.05-2.74-.2-.93-.16-1.68-.73-2.46-1.12-.84-.42-1.98-.47-2.58-1.13s-.77-1.72-1.05-2.61-.32-1.78-.2-2.69.27-1.8.72-2.63c.42-.78.96-1.56,1.63-2.22.63-.62,1.38-1.2,2.19-1.68.76-.45,1.55-1.08,2.45-1.36s1.94.27,2.82.2c.94-.07,1.88-.69,2.75-.54.93.16,1.66.93,2.45,1.32.84.42,1.38,1.06,1.98,1.72s1.03,1.3,1.31,2.19Z" fill="none" stroke="#000" stroke-miterlimit="10" stroke-width="2"/>
    </g>
    <polygon points="52.61 16.52 48.29 17.87 50.19 13.31 48.36 12.56 46.29 17.52 43.27 13.79 41.69 15.38 44.63 19.01 40.04 20.44 40.4 22.59 44.73 21.24 42.82 25.8 44.66 26.56 46.73 21.59 49.75 25.32 51.33 23.74 48.38 20.1 52.97 18.67 52.61 16.52"/>
    <path d="M33.56,16.68s-1.58,6.74.93,11.2" fill="none" stroke="#000" stroke-linecap="round" stroke-linejoin="round" stroke-width="2"/>
    <path d="M56.47,11.23s4.06,5.9,3.4,10.84" fill="none" stroke="#000" stroke-linecap="round" stroke-linejoin="round" stroke-width="2"/>
    <g>
      <g>
        <path d="M21.44,284.66c-1.22,0-2.63-.6-3.52-1.48-.66-.66-1-1.85-1-3.52v-.06c.01-.05.03-.12.05-.22.03-.14.02-.29-.01-.42.01-.06.03-.13.03-.21.07-.65.08-1.08.1-1.44.02-.6.03-.93.3-1.94.24-.89.32-1.35.41-1.8.08-.42.16-.84.38-1.67.2-.75.37-1.07.57-1.45.23-.42.48-.91.74-1.87.24-.9.32-1.36.4-1.81.08-.43.15-.84.37-1.65.19-.71.37-.99.61-1.36.28-.43.59-.92.86-1.92.27-1,.24-1.58.22-2.08-.02-.43-.03-.77.16-1.48.24-.9.32-1.36.4-1.81.08-.43.15-.84.37-1.65.21-.8.36-1.18.51-1.59.17-.43.34-.88.58-1.79.21-.79.37-1.15.53-1.54.19-.44.38-.89.63-1.82.26-.98.26-1.53.27-2.02,0-.42,0-.79.2-1.52l.92-3.42c.19-.71.37-.99.6-1.36.28-.43.59-.92.85-1.92.28-1.05.2-1.68.13-2.19-.06-.44-.1-.75.08-1.42.2-.76.37-1.09.56-1.47.21-.42.45-.9.7-1.85.24-.91.31-1.38.39-1.84.07-.43.13-.83.34-1.63.2-.76.36-1.1.55-1.49.2-.42.43-.9.68-1.84.21-.79.36-1.16.53-1.55.18-.44.37-.89.62-1.81.26-.96.28-1.5.3-1.98.02-.43.03-.8.23-1.55.2-.76.37-1.09.56-1.48.21-.42.45-.9.7-1.86.25-.92.3-1.41.36-1.88.05-.42.1-.82.31-1.61.25-.94.29-1.47.33-1.93.04-.43.07-.81.27-1.58.42-1.58.45-1.71.76-3.05l.09-.41c.17-1.09,1.04-1.96,1.96-2.75,1.07-.92,2.04-1.37,2.96-1.37,1.24,0,2.54.54,3.41,1.41.73.73,1.13,1.94,1.13,3.41,0,.21.03.43.06.64.02.11.04.27.04.32,0,.02-.02.1-.02.12,0,.07-.01.28.09.5-.13.27-.27.45-.43.66-.31.41-.7.92-.98,1.97-.28,1.06-.17,1.71-.08,2.24.07.43.13.74-.04,1.38-.18.69-.37.96-.61,1.32-.29.43-.63.91-.9,1.93-.26.98-.25,1.54-.25,2.03,0,.42,0,.78-.18,1.5-.2.77-.36,1.11-.54,1.5-.19.42-.41.89-.66,1.82-.2.75-.37,1.07-.56,1.45-.22.42-.46.9-.72,1.85-.25.95-.28,1.48-.31,1.95-.02.43-.05.8-.25,1.55-.25.93-.3,1.44-.34,1.9-.04.42-.08.81-.29,1.58-.24.89-.32,1.35-.4,1.8-.08.43-.15.83-.36,1.64-.22.82-.35,1.22-.49,1.62-.15.43-.29.87-.53,1.75-.2.73-.37,1.05-.57,1.42-.23.42-.5.9-.75,1.87-.21.8-.36,1.18-.51,1.58-.16.43-.33.88-.57,1.78-.28,1.05-.19,1.68-.11,2.2.06.43.11.75-.07,1.4-.21.81-.35,1.19-.5,1.6-.16.43-.32.87-.56,1.76-.19.73-.37,1.04-.58,1.41-.24.42-.51.9-.77,1.88-.21.8-.35,1.18-.5,1.59-.16.43-.32.87-.56,1.77-.25.95-.28,1.48-.31,1.95-.02.43-.04.8-.24,1.55-.24.88-.32,1.33-.41,1.79-.08.42-.16.83-.38,1.65-.24.91-.31,1.39-.37,1.85-.06.42-.11.82-.32,1.61-.22.84-.34,1.26-.46,1.68-.12.43-.24.86-.47,1.72-.2.75-.37,1.07-.56,1.45-.22.42-.46.9-.72,1.86-.17.66-.29,1.05-.4,1.39-.17.55-.3.98-.53,2.06,0,.04-.01.08-.02.11-.11,1.17-.34,2.6-1.12,3.31-.84.76-2.2,1.28-3.38,1.28Z" fill="#f6ffa4"/>
        <path d="M41.39,200.29c.98,0,2.02.43,2.7,1.11.54.54.84,1.5.84,2.7,0,.32.04.6.08.8,0,.04.01.08.02.11,0,.03,0,.06,0,.09-.01.13,0,.28.02.44-.04.06-.09.13-.15.2-.35.45-.82,1.08-1.16,2.32-.34,1.28-.2,2.08-.1,2.66.07.38.09.53-.02.96-.14.52-.25.68-.47,1.01-.31.45-.73,1.06-1.04,2.24-.3,1.11-.29,1.77-.28,2.3,0,.39,0,.64-.15,1.23-.18.69-.32.98-.48,1.34-.21.45-.45.97-.72,1.99-.17.64-.3.9-.48,1.25-.23.44-.51.99-.79,2.05-.28,1.05-.31,1.66-.34,2.15-.02.4-.04.7-.21,1.35-.27,1.01-.32,1.56-.37,2.05-.04.41-.07.73-.26,1.43-.25.93-.34,1.44-.42,1.88-.08.42-.14.79-.35,1.56-.21.79-.34,1.16-.47,1.56-.15.44-.3.9-.55,1.81-.16.62-.29.85-.48,1.2-.25.45-.55,1.01-.84,2.1-.2.75-.33,1.09-.48,1.48-.16.43-.35.92-.6,1.88-.33,1.24-.22,2.03-.14,2.59.05.38.08.54-.04,1-.2.76-.33,1.11-.47,1.51-.16.43-.33.92-.58,1.85-.16.61-.29.83-.48,1.18-.25.45-.57,1.01-.86,2.11-.2.76-.33,1.1-.47,1.5-.16.43-.34.92-.59,1.86-.28,1.05-.31,1.66-.34,2.15-.02.4-.04.69-.21,1.35-.24.92-.34,1.39-.43,1.85-.08.41-.16.8-.37,1.59-.26.97-.33,1.51-.39,1.98-.05.41-.1.76-.3,1.49-.22.83-.34,1.25-.46,1.66-.12.43-.25.86-.48,1.73-.17.64-.3.9-.48,1.25-.23.44-.51.99-.8,2.06-.17.64-.29,1.03-.39,1.36-.17.55-.31,1.02-.55,2.14-.02.08-.03.15-.04.23-.05.52-.2,2.12-.79,2.66-.66.6-1.77,1.02-2.71,1.02s-2.11-.49-2.81-1.19c-.45-.45-.7-1.43-.7-2.76,0-.05.02-.1.03-.16.04-.2.04-.4.02-.6,0-.03,0-.07.01-.11.07-.69.09-1.14.1-1.51.02-.56.03-.82.27-1.72.25-.93.34-1.4.43-1.87.08-.41.16-.81.37-1.6.17-.64.3-.89.49-1.24.24-.45.53-1.01.82-2.08.25-.93.34-1.44.42-1.89.07-.41.14-.8.35-1.58.15-.55.27-.75.48-1.07.28-.44.67-1.05.98-2.21.31-1.15.28-1.86.25-2.38-.02-.39-.03-.62.12-1.18.25-.93.34-1.44.42-1.89.07-.41.15-.8.35-1.58.2-.75.33-1.09.48-1.48.17-.44.36-.93.62-1.9.19-.71.32-1.02.49-1.4.19-.45.41-.96.68-1.96.29-1.1.3-1.75.3-2.27,0-.4,0-.66.17-1.27.23-.85.34-1.27.46-1.7.12-.43.23-.86.46-1.73.15-.55.27-.75.48-1.07.28-.44.67-1.05.98-2.21.33-1.24.23-2.01.15-2.58-.05-.38-.07-.56.05-1.04.17-.66.31-.92.49-1.28.22-.44.5-.99.77-2.04.25-.96.34-1.48.41-1.94.06-.42.12-.78.32-1.53.18-.67.31-.96.49-1.32.21-.44.47-.98.75-2.02.19-.72.33-1.05.48-1.42.19-.45.4-.95.66-1.94.28-1.07.31-1.69.33-2.19.02-.4.03-.69.2-1.33.18-.66.31-.92.49-1.29.22-.44.49-.99.77-2.04.26-.99.33-1.53.39-2.01.05-.4.09-.75.28-1.47.27-1.03.32-1.6.36-2.1.03-.4.06-.72.24-1.41.42-1.59.46-1.73.77-3.08l.1-.41c.01-.05.02-.1.03-.15.1-.69.87-1.43,1.61-2.07.88-.76,1.63-1.13,2.3-1.13M17.92,279.56h0,0M41.39,198.29c-1.41,0-2.62.76-3.61,1.61-1,.86-2.07,1.92-2.28,3.28-.4,1.72-.39,1.72-.85,3.43-.45,1.71-.15,1.79-.6,3.51-.45,1.71-.22,1.77-.67,3.49-.45,1.71-.81,1.62-1.26,3.33-.45,1.71-.07,1.81-.53,3.53-.45,1.71-.69,1.65-1.15,3.36-.45,1.71-.78,1.62-1.23,3.33-.45,1.71-.27,1.76-.73,3.47-.45,1.71-.81,1.62-1.26,3.33-.45,1.71.25,1.9-.21,3.61-.45,1.71-1,1.57-1.46,3.28-.46,1.71-.46,1.71-.92,3.42-.45,1.71-.01,1.83-.47,3.54-.46,1.71-.71,1.65-1.16,3.36-.46,1.71-.64,1.66-1.1,3.38-.46,1.71-.32,1.75-.77,3.46-.45,1.71.08,1.85-.38,3.57-.46,1.71-1.01,1.57-1.46,3.28-.46,1.71-.32,1.75-.77,3.46-.46,1.71-.85,1.61-1.31,3.32-.46,1.72-.34,1.75-.79,3.47-.46,1.72-.24,1.76-.43,3.53-.03.31-.19.3,0,.56-.06.33-.06.11-.06.46,0,1.56.27,3.21,1.29,4.23,1.02,1.02,2.67,1.77,4.23,1.77,1.46,0,3.05-.62,4.05-1.54,1.01-.92,1.3-2.51,1.44-3.95.37-1.72.47-1.7.92-3.41.45-1.7.83-1.6,1.28-3.31.45-1.7.48-1.69.94-3.4.45-1.7.24-1.76.69-3.46.45-1.7.34-1.73.79-3.43.45-1.7.1-1.8.55-3.5.45-1.7.61-1.66,1.06-3.36.45-1.7.89-1.59,1.34-3.29.45-1.7.61-1.66,1.06-3.36.45-1.7-.27-1.89.18-3.6.45-1.7.63-1.65,1.08-3.36.45-1.7.87-1.59,1.33-3.29.45-1.7.56-1.67,1.02-3.37.45-1.7.31-1.74.76-3.44.45-1.7.18-1.78.63-3.48s.1-1.8.56-3.5c.45-1.7.83-1.6,1.28-3.3.45-1.7.75-1.63,1.2-3.33.45-1.7-.02-1.83.44-3.53.45-1.7,1.06-1.54,1.51-3.25.45-1.71-.33-1.91.12-3.62s1.15-1.52,1.63-3.22c0-.03-.28-.07-.27-.1.08-.37-.08-.77-.08-1.17,0-1.56-.4-3.1-1.43-4.12s-2.56-1.7-4.12-1.7h0Z"/>
      </g>
      <g>
        <path d="M73.88,217.96c-.12,0-.38-.1-.62-.19-.5-.2-1.18-.46-2.08-.46-.95,0-1.42.03-1.9.06-.44.03-.88.06-1.77.06s-1.34-.02-1.79-.04c-.47-.02-.94-.04-1.87-.04s-1.4.02-1.86.03c-.45.02-.9.03-1.79.03s-1.27-.05-1.71-.11c-.48-.06-.97-.12-1.95-.12s-1.44.04-1.9.07c-.45.03-.88.07-1.75.07s-1.35-.01-1.8-.02c-.46-.01-.93-.02-1.85-.02s-1.4.02-1.87.04c-.45.02-.89.04-1.78.04s-1.27-.05-1.72-.1c-.48-.05-.97-.11-1.94-.11-.85,0-1.54-.27-2.08-.8-.42-.42-.92-1.13-.92-2.08,0-.74.32-1.43.95-2.05.7-.7,1.39-1.05,2.06-1.05.85,0,1.32-.02,1.75-.04.35-.01.67-.03,1.17-.03.21,0,.45,0,.73,0,.73.01,1.17.03,1.55.04.57.02,1.02.04,2.13.04.9,0,1.35.02,1.79.03.47.02.93.03,1.86.03s1.44-.04,1.91-.08c.45-.04.87-.08,1.74-.08s1.24.07,1.66.14c.47.08,1,.16,1.99.16s1.47-.06,1.95-.12c.44-.05.85-.1,1.71-.1s1.25.06,1.69.12c.48.07.98.14,1.97.14.93,0,1.4-.02,1.86-.03.45-.02.9-.03,1.79-.03s1.52-.25,1.98-.42c.17-.07.39-.15.47-.15,0,0,.1.03.33.28.48.53.46.58.27,1.25-.13.46-.31,1.08-.31,1.95,0,.94.25,1.64.43,2.15.26.74.29.81-.14,1.28-.06.06-.24.26-.35.26Z" fill="#f6ffa4"/>
        <path d="M73.32,211.96s-.02.06-.02.08c-.14.49-.35,1.22-.35,2.23,0,1.11.29,1.93.49,2.48-.53-.2-1.28-.45-2.23-.45s-1.48.03-1.96.06c-.44.03-.85.05-1.7.05s-1.29-.02-1.74-.04c-.47-.02-.96-.04-1.91-.04s-1.43.02-1.9.03c-.44.02-.88.03-1.76.03-.79,0-1.16-.05-1.58-.1-.49-.06-1.04-.13-2.07-.13s-1.49.04-1.98.08c-.43.03-.84.06-1.68.06-.89,0-1.34-.01-1.78-.02-.47-.01-.94-.02-1.88-.02s-1.45.02-1.92.04c-.45.02-.87.04-1.74.04-.8,0-1.17-.04-1.61-.09-.48-.05-1.02-.11-2.05-.11-.58,0-1.03-.17-1.37-.51-.29-.29-.63-.76-.63-1.37,0-.46.22-.92.65-1.35.35-.35.86-.76,1.35-.76.87,0,1.36-.02,1.79-.04.33-.01.65-.03,1.13-.03.2,0,.43,0,.7,0,.72.01,1.15.03,1.53.04.58.02,1.04.04,2.17.04.88,0,1.32.02,1.76.03.47.02.95.03,1.9.03,1,0,1.53-.05,2-.09.44-.04.83-.07,1.66-.07.75,0,1.08.05,1.5.12.5.08,1.08.18,2.15.18s1.58-.07,2.07-.13c.43-.05.79-.1,1.59-.1s1.13.05,1.55.11c.49.07,1.05.15,2.11.15.95,0,1.42-.02,1.9-.03.44-.02.88-.03,1.76-.03.92,0,1.62-.22,2.12-.4M73.65,209.79c-.63,0-1.24.58-2.45.58-1.83,0-1.83.06-3.66.06s-1.83-.26-3.66-.26-1.83.22-3.66.22-1.83-.3-3.65-.3-1.83.16-3.66.16-1.83-.06-3.66-.06-1.83-.04-3.66-.08c-.29,0-.53,0-.74,0-1.14,0-1.38.07-2.92.07-1.1,0-2.04.62-2.76,1.34s-1.24,1.66-1.24,2.76.49,2.06,1.22,2.78c.72.72,1.68,1.1,2.78,1.1,1.83,0,1.83.2,3.65.2s1.83-.08,3.66-.08,1.83.04,3.66.04,1.83-.14,3.66-.14,1.83.23,3.65.23,1.83-.06,3.66-.06,1.83.08,3.66.08,1.83-.12,3.66-.12c1.24,0,1.97.66,2.69.66.34,0,.69-.15,1.08-.58,1.35-1.48-.03-2.1-.03-4.1s1.13-2.4-.22-3.88c-.42-.46-.75-.61-1.07-.61h0Z"/>
      </g>
      <g>
        <path d="M68.18,240.58c-.09,0-.32-.09-.52-.16-.47-.18-1.12-.43-2.01-.43s-1.35-.01-1.8-.03c-.46-.01-.93-.03-1.86-.03s-1.46.05-1.94.11c-.44.05-.86.09-1.72.09s-1.34-.02-1.79-.04c-.47-.02-.93-.04-1.87-.04s-1.39.01-1.86.03c-.45.01-.9.03-1.8.03s-1.3-.03-1.75-.07c-.47-.04-.95-.07-1.9-.07s-1.41.02-1.87.04c-.45.02-.89.04-1.78.04s-1.39,0-1.85.02c-.45,0-.9.02-1.81.02s-1.36,0-1.81-.02c-.46,0-.92-.02-1.85-.02-.76,0-1.5-.33-2.1-.93s-.89-1.32-.89-2.1c0-.91.29-1.71.78-2.21.57-.57,1.42-.92,2.21-.92h.82c1.06,0,1.33,0,2.82.04,1.15.03,1.59.03,2.2.03h1.49c.85,0,1.26.05,1.7.11.48.06.98.12,1.95.12s1.41-.03,1.88-.05c.44-.03.89-.05,1.77-.05.96,0,1.45-.05,1.92-.09.45-.04.87-.08,1.74-.08s1.25.06,1.68.12c.49.07.99.15,1.97.15s1.45-.05,1.93-.1c.45-.04.87-.09,1.73-.09s1.28.04,1.72.09c.47.05.96.1,1.93.1s1.68-.34,2.2-.59c.22-.1.49-.23.59-.23h0s.08.03.25.21c.42.46.39.54.12,1.27-.19.52-.45,1.22-.45,2.17s.21,1.55.36,2.03c.22.69.24.74-.22,1.24-.21.23-.32.28-.34.28Z" fill="#f6ffa4"/>
        <path d="M68.64,234.36h0,0M67.81,234.73c-.19.55-.43,1.31-.43,2.29,0,1.06.25,1.83.41,2.34,0,0,0,.02,0,.03-.51-.19-1.22-.42-2.15-.42s-1.33-.01-1.77-.03c-.47-.01-.94-.03-1.89-.03-1.02,0-1.57.06-2.05.11-.43.05-.81.09-1.61.09-.87,0-1.3-.02-1.75-.03-.47-.02-.95-.04-1.91-.04s-1.41.01-1.89.03c-.44.01-.88.03-1.77.03-.84,0-1.25-.03-1.68-.06-.49-.04-.99-.07-1.98-.07s-1.45.02-1.92.04c-.45.02-.87.04-1.74.04-.94,0-1.4.01-1.87.02-.45,0-.89.02-1.78.02s-1.34,0-1.79-.02c-.47,0-.93-.02-1.87-.02-.66,0-1.16-.4-1.4-.64-.27-.27-.6-.74-.6-1.4,0-.63.19-1.2.49-1.5.38-.38.97-.63,1.5-.63h.47s.33,0,.33,0c1.04,0,1.29,0,2.81.04,1.17.03,1.61.03,2.24.03h.51s.96,0,.96,0c.79,0,1.15.05,1.58.1.49.06,1.04.13,2.08.13.97,0,1.46-.03,1.94-.05.44-.02.86-.05,1.72-.05,1.01,0,1.54-.05,2.01-.09.44-.04.82-.08,1.64-.08.77,0,1.11.05,1.53.11.5.07,1.06.16,2.12.16s1.55-.05,2.03-.1c.44-.04.81-.08,1.63-.08s1.19.04,1.62.08c.48.05,1.02.11,2.04.11.89,0,1.61-.23,2.15-.47M68.45,232.38c-.76,0-1.5.82-2.79.82-1.83,0-1.83-.19-3.66-.19s-1.83.18-3.66.18-1.83-.27-3.66-.27-1.83.17-3.65.17-1.83.1-3.66.1-1.83-.23-3.66-.23c-.68,0-1.11,0-1.47,0-.61,0-1.04,0-2.19-.03-1.52-.04-1.78-.04-2.86-.04-.23,0-.49,0-.8,0-1.1,0-2.19.49-2.92,1.22s-1.08,1.81-1.08,2.92.46,2.09,1.18,2.81c.72.72,1.71,1.22,2.81,1.22,1.83,0,1.83.04,3.65.04s1.83-.04,3.66-.04,1.83-.08,3.66-.08,1.83.14,3.66.14,1.83-.05,3.65-.05,1.83.07,3.66.07,1.83-.2,3.66-.2,1.83.05,3.66.05c1.22,0,1.87.6,2.53.6.33,0,.67-.15,1.08-.6,1.35-1.48.12-1.95.12-3.95s1.41-2.64.06-4.12c-.36-.39-.68-.53-.99-.53h0Z"/>
      </g>
      <g>
        <path d="M62.09,263.31c-.09,0-.3-.07-.5-.15-.46-.16-1.08-.39-1.95-.39-.96,0-1.46.05-1.93.1-.45.04-.87.09-1.73.09s-1.32-.03-1.76-.06c-.47-.03-.95-.07-1.9-.07s-1.41.02-1.88.04c-.45.02-.89.04-1.78.04s-1.28-.04-1.72-.09c-.47-.05-.97-.1-1.93-.1-.9,0-1.35-.01-1.8-.03-.46-.01-.93-.03-1.86-.03s-1.45.05-1.92.09c-.45.04-.87.08-1.73.08-.94,0-1.41.03-1.88.05-.44.02-.89.05-1.77.05-.83,0-1.24-.06-1.67-.13-.46-.07-.99-.16-1.98-.16s-1.75-.23-2.2-.67c-.53-.53-.84-1.35-.84-2.2,0-.77.33-1.55.91-2.12.55-.55,1.3-.85,2.13-.85.98,0,1.47-.05,1.95-.1.44-.04.86-.09,1.72-.09h.34c.71,0,1.1.01,1.5.02.45.01.92.03,1.81.03.84,0,1.25.06,1.68.12.48.07.99.15,1.97.15.93,0,1.4-.02,1.86-.03.45-.02.9-.03,1.79-.03.94,0,1.42-.03,1.89-.06.44-.03.88-.05,1.77-.05.96,0,1.45-.04,1.92-.09.45-.04.87-.08,1.74-.08.82,0,1.19.08,1.63.16.47.09,1.01.2,2.02.2.93,0,1.39-.01,1.86-.03.45-.01.9-.03,1.8-.03s1.59-.28,2.07-.49c.19-.08.43-.18.52-.18,0,0,.1.03.3.25.44.49.42.54.2,1.23-.16.49-.39,1.15-.39,2.07s.2,1.54.35,2.01c.21.66.22.71-.24,1.22-.22.24-.35.3-.37.3Z" fill="#f6ffa4"/>
        <path d="M62.42,257.21h0,0M61.75,257.49c-.17.52-.41,1.28-.41,2.29s.24,1.81.4,2.31c0,.02.01.05.02.07-.49-.17-1.19-.39-2.12-.39-1.02,0-1.55.05-2.03.1-.44.04-.82.08-1.63.08s-1.25-.03-1.69-.06c-.48-.03-.98-.07-1.97-.07s-1.45.02-1.92.05c-.45.02-.87.04-1.73.04-.81,0-1.18-.04-1.61-.09-.48-.05-1.02-.11-2.04-.11-.88,0-1.32-.01-1.77-.03-.47-.01-.95-.03-1.89-.03-1.01,0-1.55.05-2.02.1-.44.04-.82.08-1.64.08-.97,0-1.46.03-1.94.05-.44.02-.86.05-1.72.05-.76,0-1.09-.05-1.52-.12-.5-.08-1.07-.17-2.14-.17-.71,0-1.25-.14-1.49-.38-.34-.34-.55-.91-.55-1.49,0-.51.23-1.03.62-1.42.36-.36.86-.55,1.42-.55,1.03,0,1.57-.05,2.05-.1.44-.04.81-.08,1.62-.09h.36c.68,0,1.06.01,1.45.02.46.01.93.03,1.84.03.77,0,1.12.05,1.54.11.5.07,1.06.16,2.12.16.95,0,1.43-.02,1.9-.03.44-.02.88-.03,1.76-.03.97,0,1.47-.03,1.95-.06.44-.03.85-.05,1.71-.05,1.01,0,1.54-.05,2.01-.09.44-.04.82-.08,1.64-.08.72,0,1.04.06,1.44.14.49.1,1.11.22,2.21.22.94,0,1.41-.01,1.88-.03.44-.01.89-.03,1.77-.03s1.59-.22,2.1-.42M62.24,255.23c-.68,0-1.34.67-2.59.67-1.83,0-1.83.05-3.66.05s-1.83-.36-3.66-.36-1.83.17-3.66.17-1.83.11-3.65.11-1.83.06-3.66.06-1.83-.27-3.66-.27c-1.7,0-1.82-.05-3.29-.05-.11,0-.24,0-.37,0-1.83,0-1.83.19-3.66.19-1.1,0-2.11.42-2.83,1.14-.72.72-1.2,1.73-1.2,2.83s.41,2.18,1.13,2.9c.72.72,1.8.96,2.9.96,1.83,0,1.83.29,3.65.29s1.83-.1,3.66-.1,1.83-.17,3.66-.17,1.83.06,3.66.06,1.83.2,3.65.2,1.83-.09,3.66-.09,1.83.13,3.66.13,1.83-.18,3.66-.18c1.19,0,1.81.53,2.45.53.34,0,.68-.15,1.11-.62,1.35-1.48.15-1.9.15-3.9s1.28-2.5-.07-3.97c-.39-.43-.72-.57-1.03-.57h0Z"/>
      </g>
      <g>
        <path d="M58.5,285.51c-1.33,0-2.64-.47-3.41-1.22-.91-.88-1.54-2.29-1.57-3.5,0-.11.02-.24.05-.39.12-.14.18-.3.21-.45.17-.81.24-1.26.3-1.68.07-.48.14-.89.36-1.81.2-.82.33-1.21.48-1.62.16-.44.32-.9.54-1.82.23-.94.27-1.44.31-1.92.04-.43.07-.83.26-1.63.17-.71.35-1,.58-1.37.28-.44.59-.94.83-1.97.23-.95.26-1.48.29-1.95.03-.44.05-.82.24-1.61.23-.97.24-1.52.25-2,0-.43.02-.81.2-1.57.21-.88.31-1.32.4-1.77.09-.43.19-.86.39-1.72.2-.83.33-1.23.46-1.65.14-.44.29-.89.51-1.8.18-.75.35-1.07.55-1.45.23-.44.49-.93.73-1.92.22-.92.28-1.4.35-1.86.06-.43.11-.84.31-1.66.19-.79.34-1.16.51-1.56.18-.43.38-.91.6-1.86.23-.95.26-1.48.29-1.94.03-.44.05-.82.24-1.6.19-.8.34-1.17.5-1.56.18-.45.37-.91.59-1.85.2-.84.33-1.25.45-1.67.13-.44.27-.88.48-1.78.2-.85.32-1.27.44-1.69.12-.44.25-.88.46-1.77.22-.92.28-1.41.34-1.87.05-.43.1-.83.29-1.65.22-.93.28-1.42.33-1.89.05-.43.09-.83.28-1.64.22-.93.27-1.42.32-1.9.04-.43.08-.83.28-1.64.17-.69.36-.98.6-1.33.28-.42.64-.94.89-1.99.23-.95.27-1.47.3-1.93.03-.42.07-.82.25-1.62.24-1,.22-1.56.21-2.05,0-.43-.02-.79.16-1.54.17-.7.34-.99.57-1.36.28-.45.59-.96.81-2.03l.04-.28c.14-1.14.3-2.43.96-3.03.82-.75,2.13-1.27,3.27-1.3h0c1.27,0,2.67.58,3.56,1.45.88.85,1.51,2.13,1.62,3.26-.04.03-.08.06-.11.09-.32.26-.73.59-.83,1.13-.03.14-.02.28.01.42-.11,1.04-.17,1.29-.37,2.1l-.22.88c-.25,1.05-.17,1.67-.1,2.17.06.43.1.76-.06,1.45-.17.72-.35,1.02-.56,1.4-.25.44-.54.93-.78,1.94-.2.84-.33,1.25-.45,1.66-.13.44-.27.88-.48,1.78-.21.87-.31,1.3-.42,1.74-.11.43-.21.86-.42,1.72-.2.82-.33,1.22-.46,1.63-.14.44-.29.89-.51,1.79-.25,1.04-.18,1.63-.12,2.15.05.43.09.77-.08,1.46-.2.85-.32,1.27-.44,1.69-.12.44-.24.88-.45,1.76-.19.79-.34,1.16-.5,1.55-.18.44-.36.9-.59,1.84-.21.88-.3,1.33-.39,1.78-.08.43-.17.85-.37,1.7-.19.81-.33,1.19-.48,1.59-.16.44-.33.9-.55,1.82-.19.81-.33,1.2-.48,1.6-.16.44-.32.89-.54,1.81-.22.9-.29,1.37-.36,1.82-.07.43-.13.84-.33,1.67-.24.98-.23,1.54-.22,2.02,0,.42,0,.79-.17,1.54-.18.75-.34,1.08-.54,1.47-.22.43-.46.92-.69,1.9-.22.94-.27,1.46-.3,1.91-.03.42-.07.82-.25,1.61-.19.81-.33,1.2-.47,1.61-.15.44-.31.89-.53,1.81-.19.81-.33,1.19-.48,1.59-.16.44-.33.89-.55,1.82l-.83,3.46c-.23.96-.25,1.49-.27,1.95-.02.43-.04.81-.22,1.58-.2.83-.33,1.24-.46,1.65-.14.44-.28.88-.49,1.78-.25,1.04-.23,1.6-.21,2.1.01.4.03.78-.11,1.5,0,.04-.01.08-.01.12-.09,1.3-1.13,2.48-1.74,3.07-.84.81-2.03,1.31-3.18,1.34h-.13Z" fill="#f6ffa4"/>
        <path d="M76.7,199.84c.93,0,2.08.48,2.79,1.17.58.56,1.04,1.38,1.23,2.14-.34.32-.72.77-.84,1.44-.02.09-.03.17-.03.26,0,.13,0,.25.02.38-.09.84-.15,1.07-.33,1.81-.06.24-.13.53-.22.89-.29,1.23-.19,1.98-.12,2.54.05.39.08.58-.05,1.09-.14.58-.26.79-.46,1.13-.27.47-.61,1.06-.89,2.21-.19.81-.31,1.19-.43,1.6-.14.45-.28.91-.5,1.83-.21.86-.31,1.29-.42,1.72-.11.43-.22.87-.42,1.74-.19.78-.3,1.14-.44,1.55-.14.43-.3.93-.53,1.87-.29,1.21-.2,1.95-.14,2.49.04.39.07.59-.06,1.12-.2.83-.31,1.24-.43,1.65-.12.44-.25.89-.46,1.79-.17.72-.3,1.03-.45,1.41-.18.46-.39.97-.63,1.98-.22.9-.31,1.37-.4,1.81-.08.43-.16.83-.36,1.66-.18.75-.3,1.08-.45,1.47-.17.45-.35.95-.59,1.94-.18.76-.3,1.1-.45,1.5-.16.44-.34.94-.57,1.92-.22.94-.3,1.45-.38,1.9-.06.41-.13.8-.31,1.59-.26,1.1-.26,1.75-.25,2.27,0,.4,0,.67-.14,1.29-.15.64-.28.9-.46,1.25-.23.46-.51,1.02-.77,2.11-.24,1.01-.29,1.57-.33,2.06-.03.41-.06.74-.23,1.45-.18.76-.3,1.11-.44,1.51-.15.44-.33.94-.56,1.91-.18.75-.3,1.09-.45,1.48-.16.44-.35.95-.58,1.93l-.38,1.6-.44,1.86c-.25,1.05-.28,1.66-.3,2.14-.02.4-.03.71-.19,1.39-.19.79-.31,1.17-.44,1.58-.14.45-.29.92-.51,1.85-.28,1.17-.26,1.83-.24,2.37.01.39.02.67-.09,1.28-.01.08-.02.15-.03.23-.05.71-.57,1.59-1.43,2.42-.66.64-1.6,1.04-2.51,1.06h-.11c-1.06,0-2.13-.37-2.71-.93-.72-.7-1.24-1.85-1.26-2.78.11-.19.2-.4.25-.63.18-.84.25-1.32.31-1.74.07-.48.13-.85.34-1.74.18-.77.31-1.12.45-1.52.16-.44.33-.95.57-1.92.24-1.01.29-1.57.33-2.06.04-.42.07-.75.24-1.48.13-.55.25-.74.46-1.07.29-.46.68-1.08.96-2.27.25-1.04.28-1.61.32-2.12.03-.41.05-.73.21-1.44.26-1.08.27-1.7.28-2.21,0-.41.01-.7.17-1.36.21-.89.31-1.34.41-1.79.09-.43.18-.85.39-1.7.19-.79.31-1.17.44-1.57.14-.44.3-.93.53-1.88.15-.62.27-.86.46-1.21.25-.46.55-1.04.82-2.16.23-.97.3-1.5.36-1.96.06-.42.11-.79.29-1.56.17-.72.3-1.02.46-1.41.19-.46.41-.98.65-2.01.25-1.04.28-1.61.32-2.11.03-.41.05-.73.21-1.44.17-.72.3-1.03.46-1.42.19-.46.4-.98.64-1.99.19-.81.31-1.2.44-1.61.14-.45.28-.91.5-1.84.2-.83.31-1.23.43-1.65.12-.44.25-.9.47-1.81.23-.98.3-1.51.36-1.99.05-.42.09-.78.28-1.54.24-.99.3-1.54.35-2.01.05-.41.08-.77.26-1.52.24-1,.29-1.55.34-2.03.04-.41.08-.76.25-1.5.12-.52.23-.68.45-1.01.31-.46.74-1.09,1.03-2.32.24-1.02.29-1.58.33-2.08.03-.42.06-.75.23-1.47.27-1.12.25-1.78.24-2.31,0-.4-.02-.66.13-1.28.13-.54.25-.74.45-1.07.29-.47.68-1.11.94-2.35.01-.05.02-.1.03-.15l.03-.2c.11-.87.26-2.07.64-2.42.63-.58,1.73-1.02,2.62-1.04h.06M83.72,205.66h0,0M76.7,197.84s-.07,0-.11,0c-1.41.03-2.95.67-3.92,1.56-.97.89-1.13,2.47-1.3,3.85-.36,1.75-.96,1.62-1.37,3.35-.42,1.74.04,1.85-.37,3.59-.42,1.74-.14,1.8-.56,3.54-.42,1.74-1.07,1.58-1.49,3.32-.42,1.74-.18,1.79-.6,3.53-.42,1.74-.2,1.79-.61,3.53-.42,1.74-.22,1.78-.63,3.52-.42,1.74-.49,1.72-.9,3.46-.42,1.74-.52,1.71-.94,3.45-.42,1.74-.68,1.68-1.09,3.42-.42,1.74-.11,1.81-.53,3.55-.42,1.74-.69,1.67-1.11,3.41-.42,1.74-.24,1.78-.65,3.52-.42,1.74-.87,1.63-1.28,3.37-.42,1.74-.56,1.71-.97,3.45-.42,1.74-.38,1.75-.79,3.49-.42,1.74-.04,1.83-.45,3.57-.42,1.74-.11,1.81-.53,3.55-.42,1.74-1,1.6-1.42,3.34-.42,1.74-.16,1.8-.57,3.54-.42,1.74-.6,1.7-1.01,3.45-.42,1.74-.3,1.77-.67,3.53-.01.05-.15.02-.14.06-.05.33-.16.65-.15,1,.04,1.57.83,3.19,1.87,4.2,1.01.98,2.59,1.5,4.1,1.5.05,0,.1,0,.15,0,1.47-.03,2.87-.67,3.85-1.62.98-.95,1.93-2.27,2.04-3.72.33-1.75-.1-1.83.31-3.56.41-1.73.54-1.7.95-3.43.41-1.73.08-1.81.49-3.54q.41-1.73.83-3.46c.41-1.73.61-1.68,1.03-3.41.41-1.73.59-1.69,1.01-3.42.41-1.73.14-1.79.56-3.52.41-1.73.82-1.63,1.23-3.36.41-1.73-.02-1.83.39-3.56.41-1.73.28-1.76.69-3.49.41-1.73.6-1.68,1.02-3.41.41-1.73.62-1.68,1.04-3.41.41-1.73.34-1.75.76-3.47.41-1.73.67-1.67,1.09-3.4.41-1.73.48-1.72.89-3.45.41-1.73-.21-1.88.2-3.61.41-1.73.56-1.69.97-3.42.41-1.73.43-1.73.84-3.46.41-1.73.52-1.71.93-3.44.41-1.73.93-1.61,1.34-3.34.41-1.73-.25-1.89.17-3.63.41-1.73.47-1.68.64-3.45,0-.08,0-.1,0-.1-.02,0-.05.11-.06.11,0,0,0,0,0,0,.07-.38.98-.76.97-1.16-.04-1.57-.9-3.21-1.94-4.22-1.02-.99-2.65-1.74-4.18-1.74h0Z"/>
      </g>
    </g>
    <polygon points="145.3 176.32 149.69 177.92 168.08 170.75 164.01 169.46 145.3 176.32" fill="#f6ffa4" stroke="#000" stroke-linecap="round" stroke-linejoin="round"/>
    <path d="M164.33,131.47c-.07-2.26-1.93-4.23-4.21-4.23-2.14,0-3.88,1.6-4.15,3.66l-.03.83-.03,1.96h0c-.43-.23-.91-.37-1.42-.37-1.67,0-3.02,1.35-3.02,3.02-1.55,1.79-1.5-1.63-1.5-1.63,0-1.36-1.1-2.46-2.46-2.46s-2.46,1.1-2.46,2.46v.56l-.4,21.25,4.44-1.33c5.66-2.87,15.24-4.95,15.24-4.95v-18.8h0" fill="#ffabe3" stroke="#000" stroke-miterlimit="10"/>
    <g>
      <polygon points="160.52 196.9 152.45 196.9 152.45 181.14 155.09 181.14 160.52 181.14 160.52 196.9" fill="#f6ffa4" stroke="#000" stroke-linecap="round" stroke-linejoin="round" stroke-width="1.91"/>
      <line x1="155.72" y1="181.73" x2="155.72" y2="196.9" fill="#f6ffa4" stroke="#000" stroke-linecap="round" stroke-linejoin="round" stroke-width="1.91"/>
    </g>
    <polygon points="149.69 178.24 145.41 176.75 145.02 186.23 148.95 187.76 167.23 180.32 167.95 171.14 149.69 178.24" fill="#f6ffa4" stroke="#000" stroke-linecap="round" stroke-linejoin="round" stroke-width="1.55"/>
    <g>
      <path d="M146.5,174.83l3.65.95,15.57-5.71s-1.55-10.37,4.42-18.46l-5.81-1.8s-12.96,1.31-19.31,5.21c0,0-2.52,6.29,1.48,19.82Z" fill="#fff" stroke="#000" stroke-linecap="round" stroke-linejoin="round" stroke-width="1.73"/>
      <path d="M145.9,155.58l2.91,1.33s-1.98,5.4,1.16,18.88" fill="none" stroke="#000" stroke-linecap="round" stroke-linejoin="round" stroke-width="1.73"/>
      <path d="M169.72,152.2s-13.2.69-20.91,4.71" fill="#fff" stroke="#000" stroke-linecap="round" stroke-linejoin="round" stroke-width="1.73"/>
    </g>
    <line x1="149.69" y1="178.24" x2="148.95" y2="187.76" fill="none" stroke="#000" stroke-linecap="round" stroke-linejoin="round" stroke-width="1.73"/>
    <path d="M152.87,155.67s-1.44,6.95-.33,10.67" fill="none" stroke="#000" stroke-linecap="round" stroke-miterlimit="10" stroke-width="2"/>
    <path d="M156.87,154.55s-1.02,3.92-.83,6.52" fill="none" stroke="#000" stroke-linecap="round" stroke-miterlimit="10" stroke-width="2"/>
    <g>
      <g>
        <polygon points="221.52 246.04 224.01 245.16 226.38 244.13 228.7 243 230.89 241.61 233.03 240.14 235.04 238.51 236.9 236.7 238.66 234.8 240.11 232.64 241.59 230.5 243.19 232.49 244.28 234.77 245.11 237.16 245.45 239.67 245.54 242.2 245.32 244.73 244.88 247.22 244.25 249.67 243.43 252.06 243.41 249.56 242.87 247.13 242.17 244.74 241.24 242.44 239.96 240.24 238.06 241.96 236.01 243.45 233.84 244.75 231.43 245.58 229.08 246.52 226.61 247.12 224.13 247.64 221.53 247.89 221.52 246.04" fill="#eaeaea"/>
        <polygon points="221.52 246.04 224.01 245.16 226.38 244.13 228.7 243 230.89 241.61 233.03 240.14 235.04 238.51 236.9 236.7 238.66 234.8 240.11 232.64 241.59 230.5 243.19 232.49 244.28 234.77 245.11 237.16 245.45 239.67 245.54 242.2 245.32 244.73 244.88 247.22 244.25 249.67 243.43 252.06 243.41 249.56 242.87 247.13 242.17 244.74 241.24 242.44 239.96 240.24 238.06 241.96 236.01 243.45 233.84 244.75 231.43 245.58 229.08 246.52 226.61 247.12 224.13 247.64 221.53 247.89 221.52 246.04" fill="none" stroke="#000" stroke-linecap="round" stroke-linejoin="round" stroke-width="1.73"/>
      </g>
      <g>
        <g>
          <polygon points="230.34 260.14 228.63 258.17 226.93 256.32 225.45 254.19 222.74 253.03 224.86 251.13 225.25 248.62 225.31 246.12 225.48 243.58 225.2 241.05 224.67 238.56 224.02 236.09 223.08 233.71 222.47 231.23 221.45 228.89 220.84 226.4 220.24 223.89 218.75 221.74 217.85 219.35 217.32 216.81 215.95 214.9 213.52 214.39 211 214.33 208.49 214.43 205.98 214.69 203.46 215 200.94 215.21 198.44 215.31 196 214.63 193.57 214.12 191.12 213.96 188.73 213.34 186.19 213.39 183.81 212.69 181.38 212.12 179.14 211.04 176.93 209.9 174.88 208.51 172.75 207.26 170.68 205.9 169.13 204.09 169.37 201.4 169.27 199.09 168.14 197.04 166.54 195.37 164.59 194.13 162.42 193.4 160.2 192.92 157.94 192.67 155.41 192.81 152.85 193.12 150.6 194.39 148.58 195.97 147.24 198.19 146.86 200.75 147.3 203.17 149.1 204.83 150.69 206.62 152.82 207.75 154.98 208.91 157.41 209.22 159.75 209.62 161.24 211.4 162.79 213.23 164.44 214.97 166.27 216.52 168.27 217.83 170.22 219.24 172.59 219.84 174.78 220.73 176.95 221.72 179.19 222.62 181.57 223 184 223.13 185.22 225.32 185.27 227.89 186.31 230.13 186.61 232.56 187.13 234.98 187.24 237.44 187.19 239.92 186.8 242.36 186.33 244.77 185.53 247.1 185 249.79 182.37 248.96 179.96 249.56 177.55 249.81 175.25 250.59 172.76 250.87 170.78 252.38 169.26 254.25 167.17 255.74 166.63 258.19 166.18 260.59 166.36 263.09 167.52 265.31 169.13 267.17 171.14 268.53 173.15 269.93 175.41 270.92 177.8 271.51 180.26 271.63 182.7 271.34 185.12 271.76 187.51 271.15 189.92 271.19 189.98 271.23 192.31 272.38 194.86 272.85 197.47 272.67 200.03 272.83 202.6 273.3 205.17 272.84 207.73 272.68 210.36 273.09 212.91 272.69 213.27 272.16 215.15 273.91 216.78 276.07 219.4 276.74 221.72 277.84 224.19 278.76 226.79 278.34 229.3 277.85 231.47 276.55 233.65 275.04 234.68 272.52 233.91 269.95 233.63 267.31 232.37 265 231.51 262.49 230.34 260.14" fill="#eaeaea"/>
          <polygon points="230.34 260.14 228.63 258.17 226.93 256.32 225.45 254.19 222.74 253.03 224.86 251.13 225.25 248.62 225.31 246.12 225.48 243.58 225.2 241.05 224.67 238.56 224.02 236.09 223.08 233.71 222.47 231.23 221.45 228.89 220.84 226.4 220.24 223.89 218.75 221.74 217.85 219.35 217.32 216.81 215.95 214.9 213.52 214.39 211 214.33 208.49 214.43 205.98 214.69 203.46 215 200.94 215.21 198.44 215.31 196 214.63 193.57 214.12 191.12 213.96 188.73 213.34 186.19 213.39 183.81 212.69 181.38 212.12 179.14 211.04 176.93 209.9 174.88 208.51 172.75 207.26 170.68 205.9 169.13 204.09 169.37 201.4 169.27 199.09 168.14 197.04 166.54 195.37 164.59 194.13 162.42 193.4 160.2 192.92 157.94 192.67 155.41 192.81 152.85 193.12 150.6 194.39 148.58 195.97 147.24 198.19 146.86 200.75 147.3 203.17 149.1 204.83 150.69 206.62 152.82 207.75 154.98 208.91 157.41 209.22 159.75 209.62 161.24 211.4 162.79 213.23 164.44 214.97 166.27 216.52 168.27 217.83 170.22 219.24 172.59 219.84 174.78 220.73 176.95 221.72 179.19 222.62 181.57 223 184 223.13 185.22 225.32 185.27 227.89 186.31 230.13 186.61 232.56 187.13 234.98 187.24 237.44 187.19 239.92 186.8 242.36 186.33 244.77 185.53 247.1 185 249.79 182.37 248.96 179.96 249.56 177.55 249.81 175.25 250.59 172.76 250.87 170.78 252.38 169.26 254.25 167.17 255.74 166.63 258.19 166.18 260.59 166.36 263.09 167.52 265.31 169.13 267.17 171.14 268.53 173.15 269.93 175.41 270.92 177.8 271.51 180.26 271.63 182.7 271.34 185.12 271.76 187.51 271.15 189.92 271.19 189.98 271.23 192.31 272.38 194.86 272.85 197.47 272.67 200.03 272.83 202.6 273.3 205.17 272.84 207.73 272.68 210.36 273.09 212.91 272.69 213.27 272.16 215.15 273.91 216.78 276.07 219.4 276.74 221.72 277.84 224.19 278.76 226.79 278.34 229.3 277.85 231.47 276.55 233.65 275.04 234.68 272.52 233.91 269.95 233.63 267.31 232.37 265 231.51 262.49 230.34 260.14" fill="none" stroke="#000" stroke-miterlimit="10" stroke-width="2"/>
        </g>
        <g>
          <polyline points="189.97 271.26 187.69 269.96 185.78 268.16 184.32 265.98 183.56 263.48 183.33 260.87 183.78 258.28 184.83 255.87" fill="#eaeaea"/>
          <polyline points="189.97 271.26 187.69 269.96 185.78 268.16 184.32 265.98 183.56 263.48 183.33 260.87 183.78 258.28 184.83 255.87" fill="none" stroke="#000" stroke-miterlimit="10" stroke-width="2"/>
        </g>
        <g>
          <polyline points="223.75 253.08 221.52 252.4 219.23 252.04 216.91 252.23 214.79 253.19 212.9 254.56 211.6 256.83 210.8 259.34 208.17 259.22 205.55 258.99 202.93 259" fill="#eaeaea"/>
          <polyline points="223.75 253.08 221.52 252.4 219.23 252.04 216.91 252.23 214.79 253.19 212.9 254.56 211.6 256.83 210.8 259.34 208.17 259.22 205.55 258.99 202.93 259" fill="none" stroke="#000" stroke-linecap="round" stroke-linejoin="round" stroke-width="2"/>
        </g>
      </g>
      <g>
        <polyline points="204.82 225.66 204.48 228.12 203.89 230.53 203.1 232.88 202.16 235.17 201.04 237.37 199.46 239.28 197.71 241.01 195.86 242.68 193.53 243.58 193.53 243.39 189.94 243.04 187.4 243.31 184.95 244.01 182.68 245.17 180.74 246.83 179.56 249.08 178.76 251.52 179.47 254 180.72 256.23 182.57 258.03 184.92 259.1 187.36 259.95 189.94 259.92 192.39 259.71 194.77 259.08 197.09 258.16 198.85 256.4 200.17 254.31 200.4 254.63 202.35 253.05 204.46 251.73 206.24 249.99 207.96 248.22 209.71 246.45 211.25 244.5 212.61 242.42 213.79 240.23 214.71 237.93 215.61 235.61 216.14 233.19 216.67 230.76" fill="#eaeaea"/>
        <polyline points="204.82 225.66 204.48 228.12 203.89 230.53 203.1 232.88 202.16 235.17 201.04 237.37 199.46 239.28 197.71 241.01 195.86 242.68 193.53 243.58 193.53 243.39 189.94 243.04 187.4 243.31 184.95 244.01 182.68 245.17 180.74 246.83 179.56 249.08 178.76 251.52 179.47 254 180.72 256.23 182.57 258.03 184.92 259.1 187.36 259.95 189.94 259.92 192.39 259.71 194.77 259.08 197.09 258.16 198.85 256.4 200.17 254.31 200.4 254.63 202.35 253.05 204.46 251.73 206.24 249.99 207.96 248.22 209.71 246.45 211.25 244.5 212.61 242.42 213.79 240.23 214.71 237.93 215.61 235.61 216.14 233.19 216.67 230.76" fill="none" stroke="#000" stroke-linecap="round" stroke-linejoin="round" stroke-width="2"/>
      </g>
      <g>
        <polygon points="215.83 181.95 215.92 179.23 215.55 176.52 215.64 173.81 215.45 171.09 215.66 168.39 213.84 170.19 211.99 172 210.14 173.81 208.26 175.59 206.63 177.64 204.54 179.18 202.31 178.39 199.92 177.89 197.52 177.74 194.94 178.16 194.66 175.72 194 173.42 193.18 171.16 192.22 168.95 192.06 166.5 191.15 164.31 190.11 166.65 188.69 168.83 187.83 171.3 186.71 173.64 185.63 176 184.28 178.23 181.97 179.09 179.66 179.85 177.5 180.98 175.37 182.16 173.34 183.51 171.53 185.16 170 187.06 168.43 188.94 167.3 191.12 167.01 193.58 166.53 195.93 166.23 198.35 166.85 200.71 167.67 202.97 168.75 205.12 170.05 207.14 171.55 209.04 173.47 210.52 175.03 212.44 177.24 213.49 179.26 214.83 181.36 216.07 183.7 216.76 185.93 217.75 188.38 217.97 190.73 218.48 193.11 218.88 195.49 219.47 197.93 219.23 200.34 219.06 202.78 219.28 205.11 218.53 207.55 218.43 209.83 217.6 212.09 216.78 214.41 216.08 216.6 215.06 218.66 213.8 220.59 212.34 222.26 210.6 223.93 208.89 225.16 206.83 226.39 204.77 227.35 202.54 227.3 200.1 227.32 197.61 227.22 195.06 226 192.81 225.18 190.39 223.77 188.25 222.05 186.36 220.08 184.75 217.95 183.36 215.83 181.95" fill="#eaeaea"/>
        <polygon points="215.83 181.95 215.92 179.23 215.55 176.52 215.64 173.81 215.45 171.09 215.66 168.39 213.84 170.19 211.99 172 210.14 173.81 208.26 175.59 206.63 177.64 204.54 179.18 202.31 178.39 199.92 177.89 197.52 177.74 194.94 178.16 194.66 175.72 194 173.42 193.18 171.16 192.22 168.95 192.06 166.5 191.15 164.31 190.11 166.65 188.69 168.83 187.83 171.3 186.71 173.64 185.63 176 184.28 178.23 181.97 179.09 179.66 179.85 177.5 180.98 175.37 182.16 173.34 183.51 171.53 185.16 170 187.06 168.43 188.94 167.3 191.12 167.01 193.58 166.53 195.93 166.23 198.35 166.85 200.71 167.67 202.97 168.75 205.12 170.05 207.14 171.55 209.04 173.47 210.52 175.03 212.44 177.24 213.49 179.26 214.83 181.36 216.07 183.7 216.76 185.93 217.75 188.38 217.97 190.73 218.48 193.11 218.88 195.49 219.47 197.93 219.23 200.34 219.06 202.78 219.28 205.11 218.53 207.55 218.43 209.83 217.6 212.09 216.78 214.41 216.08 216.6 215.06 218.66 213.8 220.59 212.34 222.26 210.6 223.93 208.89 225.16 206.83 226.39 204.77 227.35 202.54 227.3 200.1 227.32 197.61 227.22 195.06 226 192.81 225.18 190.39 223.77 188.25 222.05 186.36 220.08 184.75 217.95 183.36 215.83 181.95" fill="none" stroke="#000" stroke-linecap="round" stroke-linejoin="round" stroke-width="2"/>
      </g>
    </g>
    <circle cx="190.65" cy="192.46" r="1.51"/>
    <circle cx="203.47" cy="193.97" r="1.51"/>
    <circle cx="195.46" cy="206.3" r="1.51"/>
    <line x1="174.01" y1="195.96" x2="180.7" y2="197.18" fill="none" stroke="#000" stroke-linecap="round" stroke-miterlimit="10" stroke-width=".91"/>
    <line x1="173.55" y1="199.32" x2="180.25" y2="200.54" fill="none" stroke="#000" stroke-linecap="round" stroke-miterlimit="10" stroke-width=".91"/>
    <line x1="219.04" y1="201.98" x2="212.31" y2="200.91" fill="none" stroke="#000" stroke-linecap="round" stroke-miterlimit="10" stroke-width=".91"/>
    <line x1="218.36" y1="205.3" x2="211.63" y2="204.24" fill="none" stroke="#000" stroke-linecap="round" stroke-miterlimit="10" stroke-width=".91"/>
  </g>
</svg>