<svg width="23" height="22" viewBox="0 0 23 22" fill="none" xmlns="http://www.w3.org/2000/svg">
<path d="M21.5833 0H6.91667C6.67355 0 6.44039 0.0965773 6.26849 0.268486C6.09658 0.440394 6 0.673552 6 0.916667V5.5H1.41667C1.17355 5.5 0.940394 5.59658 0.768486 5.76849C0.596577 5.94039 0.5 6.17355 0.5 6.41667V21.0833C0.5 21.3264 0.596577 21.5596 0.768486 21.7315C0.940394 21.9034 1.17355 22 1.41667 22H16.0833C16.3264 22 16.5596 21.9034 16.7315 21.7315C16.9034 21.5596 17 21.3264 17 21.0833V16.5H21.5833C21.8264 16.5 22.0596 16.4034 22.2315 16.2315C22.4034 16.0596 22.5 15.8264 22.5 15.5833V0.916667C22.5 0.673552 22.4034 0.440394 22.2315 0.268486C22.0596 0.0965773 21.8264 0 21.5833 0ZM15.1667 20.1667H2.33333V7.33333H15.1667V20.1667ZM20.6667 14.6667H17V6.41667C17 6.17355 16.9034 5.94039 16.7315 5.76849C16.5596 5.59658 16.3264 5.5 16.0833 5.5H7.83333V1.83333H20.6667V14.6667Z" fill="#D0D0D0"/>
</svg>
