<svg width="21" height="21" viewBox="0 0 21 21" fill="none" xmlns="http://www.w3.org/2000/svg">
<path d="M6.88917 10.5C6.88917 10.0622 6.97539 9.62876 7.14292 9.22433C7.31044 8.81989 7.55598 8.4524 7.86553 8.14286C8.17507 7.83332 8.54255 7.58777 8.94699 7.42025C9.35143 7.25272 9.78491 7.1665 10.2227 7.1665C10.6604 7.1665 11.0939 7.25272 11.4983 7.42025C11.9028 7.58777 12.2703 7.83332 12.5798 8.14286C12.8894 8.4524 13.1349 8.81989 13.3024 9.22433C13.4699 9.62876 13.5562 10.0622 13.5562 10.5C13.5562 11.3841 13.205 12.232 12.5798 12.8571C11.9547 13.4823 11.1068 13.8335 10.2227 13.8335C9.33857 13.8335 8.49068 13.4823 7.86553 12.8571C7.24037 12.232 6.88917 11.3841 6.88917 10.5ZM5.08717 10.5C5.08717 11.1743 5.21999 11.8421 5.47805 12.4651C5.7361 13.0881 6.11435 13.6542 6.59118 14.131C7.068 14.6078 7.63408 14.9861 8.25709 15.2441C8.8801 15.5022 9.54783 15.635 10.2222 15.635C10.8965 15.635 11.5642 15.5022 12.1872 15.2441C12.8103 14.9861 13.3763 14.6078 13.8532 14.131C14.33 13.6542 14.7082 13.0881 14.9663 12.4651C15.2243 11.8421 15.3572 11.1743 15.3572 10.5C15.3572 9.13811 14.8162 7.83201 13.8532 6.86901C12.8902 5.90601 11.5841 5.365 10.2222 5.365C8.86028 5.365 7.55417 5.90601 6.59118 6.86901C5.62818 7.83201 5.08717 9.13811 5.08717 10.5ZM14.3602 5.162C14.3602 5.39934 14.4305 5.63135 14.5624 5.82868C14.6943 6.02602 14.8817 6.17983 15.1009 6.27066C15.3202 6.36148 15.5615 6.38524 15.7943 6.33894C16.0271 6.29264 16.2409 6.17835 16.4087 6.01053C16.5765 5.84271 16.6908 5.62889 16.7371 5.39611C16.7834 5.16333 16.7596 4.92205 16.6688 4.70278C16.578 4.48351 16.4242 4.29609 16.2269 4.16424C16.0295 4.03238 15.7975 3.962 15.5602 3.962C15.2419 3.962 14.9367 4.08843 14.7116 4.31347C14.4866 4.53852 14.3602 4.84374 14.3602 5.162ZM6.18217 18.64C5.20717 18.595 4.67717 18.433 4.32517 18.296C3.89078 18.1357 3.49783 17.8801 3.17517 17.548C2.84308 17.2253 2.58749 16.8324 2.42717 16.398C2.28917 16.046 2.12717 15.516 2.08317 14.541C2.03417 13.487 2.02517 13.171 2.02517 10.501C2.02517 7.831 2.03517 7.514 2.08317 6.459C2.12717 5.484 2.29117 4.955 2.42717 4.602C2.60817 4.135 2.82517 3.802 3.17517 3.452C3.52517 3.102 3.85717 2.885 4.32517 2.704C4.67717 2.566 5.20717 2.404 6.18217 2.36C7.23617 2.31 7.55217 2.3 10.2222 2.3C12.8922 2.3 13.2082 2.31 14.2632 2.359C15.2382 2.403 15.7672 2.567 16.1202 2.703C16.5872 2.883 16.9202 3.101 17.2702 3.451C17.6202 3.801 17.8372 4.134 18.0192 4.601C18.1562 4.953 18.3192 5.483 18.3622 6.458C18.4112 7.513 18.4212 7.828 18.4212 10.499C18.4212 13.169 18.4112 13.485 18.3622 14.54C18.3182 15.515 18.1552 16.045 18.0192 16.397C17.8588 16.8314 17.6033 17.2243 17.2712 17.547C16.9485 17.8791 16.5556 18.1347 16.1212 18.295C15.7682 18.432 15.2382 18.595 14.2632 18.639C13.2092 18.687 12.8932 18.697 10.2222 18.697C7.55217 18.697 7.23617 18.687 6.18217 18.639M6.09917 0.56C5.03517 0.609 4.30717 0.778 3.67217 1.025C3.00464 1.27582 2.3999 1.66931 1.90017 2.178C1.39147 2.67773 0.997984 3.28247 0.747168 3.95C0.500168 4.586 0.331168 5.313 0.283168 6.377C0.232168 7.443 0.222168 7.784 0.222168 10.5C0.222168 13.216 0.233168 13.557 0.282168 14.623C0.331168 15.687 0.500168 16.414 0.747168 17.05C0.998113 17.7172 1.3916 18.3216 1.90017 18.821C2.3998 19.3301 3.00455 19.7239 3.67217 19.975C4.30817 20.222 5.03517 20.391 6.09917 20.439C7.16617 20.488 7.50617 20.5 10.2222 20.5C12.9382 20.5 13.2792 20.489 14.3452 20.44C15.4092 20.391 16.1362 20.222 16.7722 19.975C17.4394 19.7238 18.0438 19.3299 18.5432 18.821C19.052 18.3219 19.4458 17.7179 19.6972 17.051C19.9442 16.414 20.1142 15.687 20.1612 14.623C20.2102 13.556 20.2212 13.216 20.2212 10.5C20.2212 7.784 20.2102 7.443 20.1612 6.377C20.1132 5.313 19.9442 4.585 19.6972 3.95C19.4461 3.28238 19.0522 2.67763 18.5432 2.178C18.044 1.66955 17.44 1.27607 16.7732 1.025C16.1362 0.778 15.4092 0.608 14.3462 0.561C13.2792 0.512 12.9392 0.5 10.2222 0.5C7.50517 0.5 7.16517 0.511 6.09817 0.56" fill="white"/>
</svg>
