<svg width="26" height="10" viewBox="0 0 26 10" fill="none" xmlns="http://www.w3.org/2000/svg">
<path fill-rule="evenodd" clip-rule="evenodd" d="M1.04154 9.98123H5.06936C5.64229 9.98123 6.1109 9.50421 6.1109 8.92117V8.83274C6.1109 8.2497 5.64229 7.77282 5.06936 7.77282H2.16997V1.05992C2.16997 0.476875 1.70136 0 1.12843 0H1.04154C0.468606 0 0 0.476875 0 1.05992V8.92117C0 9.50421 0.468606 9.98123 1.04154 9.98123ZM26 5.05352V4.9651C26 4.38206 25.5312 3.90518 24.9583 3.90518H22.0591V2.22703H24.9583C25.5312 2.22703 26 1.75015 26 1.16711V1.07869C26 0.495645 25.5312 0.01877 24.9583 0.01877H20.9305C20.3576 0.01877 19.889 0.495645 19.889 1.07869V8.93994C19.889 9.52298 20.3576 10 20.9305 10H24.9583C25.5312 10 26 9.52298 26 8.93994V8.85151C26 8.26847 25.5312 7.79159 24.9583 7.79159H22.0591V6.11344H24.9583C25.5312 6.11344 26 5.63657 26 5.05352ZM18.254 9.66522L18.2543 9.66478C18.447 9.46702 18.5553 9.19984 18.5555 8.92131V1.05992C18.5555 0.476875 18.0869 0 17.5138 0H17.4269C16.854 0 16.3854 0.476875 16.3854 1.05992V5.67455L12.6208 0.535971C12.441 0.216588 12.1023 0 11.7164 0H11.6296C11.0566 0 10.5879 0.476875 10.5879 1.05992V8.92117C10.5879 9.50421 11.0565 9.98123 11.6296 9.98123H11.7164C12.2894 9.98123 12.758 9.50421 12.758 8.92117V4.22031L16.5498 9.49072C16.5731 9.52767 16.5986 9.56316 16.6261 9.59689L16.6263 9.59718C16.7305 9.74177 16.873 9.8409 17.0318 9.90146C17.1538 9.95278 17.2873 9.98123 17.4269 9.98123H17.5138C17.6835 9.98133 17.8507 9.93882 18.0004 9.85747C18.1044 9.80687 18.1922 9.74191 18.254 9.66522ZM7.99311 9.98123H8.08C8.65293 9.98123 9.12153 9.50421 9.12153 8.92117V1.05992C9.12139 0.476875 8.65278 0 8.07985 0H7.99311C7.42017 0 6.95142 0.476875 6.95142 1.05992V8.92117C6.95142 9.50421 7.42017 9.98123 7.99311 9.98123Z" fill="white"/>
</svg>
