<svg width="56" height="57" viewBox="0 0 56 57" fill="none" xmlns="http://www.w3.org/2000/svg">
<path d="M56 28.5C56 43.964 43.464 56.5 28 56.5C12.536 56.5 0 43.964 0 28.5C0 13.036 12.536 0.5 28 0.5C43.464 0.5 56 13.036 56 28.5Z" fill="white"/>
<path d="M28 1.5C36.9032 1.5 44.7985 5.81039 49.7168 12.457L5.84766 43.3652L7 45L50.8457 14.1074C53.476 18.2738 55 23.2086 55 28.5C55 43.4117 42.9117 55.5 28 55.5C13.0883 55.5 1 43.4117 1 28.5C1 13.5883 13.0883 1.5 28 1.5Z" stroke="black" stroke-width="2"/>
</svg>
