<svg width="31" height="28" viewBox="0 0 31 28" fill="none" xmlns="http://www.w3.org/2000/svg">
<path d="M12.125 11.45C12.7455 11.45 13.3599 11.3278 13.9332 11.0903C14.5064 10.8529 15.0273 10.5048 15.4661 10.0661C15.9048 9.62732 16.2529 9.10644 16.4903 8.53318C16.7278 7.95992 16.85 7.3455 16.85 6.725C16.85 6.1045 16.7278 5.49008 16.4903 4.91682C16.2529 4.34356 15.9048 3.82268 15.4661 3.38392C15.0273 2.94516 14.5064 2.59712 13.9332 2.35967C13.3599 2.12222 12.7455 2 12.125 2C10.8719 2 9.67003 2.49781 8.78392 3.38392C7.89781 4.27003 7.4 5.47185 7.4 6.725C7.4 7.97815 7.89781 9.17997 8.78392 10.0661C9.67003 10.9522 10.8719 11.45 12.125 11.45ZM2 25.49V26.3H22.25V25.49C22.25 22.466 22.25 20.954 21.6614 19.7984C21.1437 18.7824 20.3176 17.9563 19.3016 17.4386C18.146 16.85 16.634 16.85 13.61 16.85H10.64C7.616 16.85 6.104 16.85 4.9484 17.4386C3.93237 17.9563 3.10631 18.7824 2.5886 19.7984C2 20.954 2 22.466 2 25.49Z" stroke="#1B1B1B" stroke-width="2.55789" stroke-linecap="round" stroke-linejoin="round"/>
<path d="M24.9494 6.72656V14.8266M20.8994 10.7766H28.9994" stroke="#1B1B1B" stroke-width="0.639474"/>
<path d="M24.9494 6.72656V14.8266M20.8994 10.7766H28.9994" stroke="#1B1B1B" stroke-width="2.55789" stroke-linecap="round" stroke-linejoin="round"/>
</svg>
