<svg width="22" height="17" viewBox="0 0 22 17" fill="none" xmlns="http://www.w3.org/2000/svg">
<path d="M7.69385 1.41868C7.69385 1.41868 7.82735 1.33652 7.83077 1.33995C7.8342 1.34679 7.78114 1.63434 7.78456 1.63948C7.78627 1.6429 7.91806 1.55732 7.92149 1.56074C7.92491 1.56759 7.86843 1.84658 7.87185 1.85343C7.87356 1.85685 8.00707 1.77127 8.00878 1.77469C8.0122 1.77983 7.91464 1.95954 7.91635 1.96468C7.91806 1.9681 8.05157 1.88252 8.05328 1.88595C8.0567 1.89108 7.96085 2.07422 7.96256 2.07936C7.96428 2.08278 8.09778 1.9972 8.09949 2.00062C8.10292 2.00576 8.03274 2.25565 8.03617 2.2625C8.03788 2.26592 8.17138 2.18034 8.17309 2.18376C8.17651 2.1889 8.08238 2.37888 8.08409 2.38231C8.0858 2.38573 8.2193 2.30015 8.22102 2.30358C8.22444 2.31042 8.16282 2.58085 8.16624 2.5877C8.16796 2.59112 8.30146 2.50554 8.30317 2.50897C8.3066 2.51581 8.23985 2.77597 8.24498 2.78111C8.24669 2.78453 8.38019 2.69895 8.38191 2.70238C8.38533 2.70922 8.32542 2.98479 8.32885 2.99164C8.33056 2.99506 8.46406 2.90948 8.46577 2.9129C8.4692 2.91804 8.38533 3.13541 8.38875 3.14054C8.39047 3.14397 8.52397 3.05839 8.52568 3.06181C8.52739 3.06523 8.42127 3.2227 8.42298 3.22784C8.42469 3.23126 8.5582 3.14568 8.55991 3.1491C8.56334 3.15595 8.4983 3.41953 8.50172 3.42638C8.50343 3.4298 8.63694 3.34422 8.64036 3.34765C8.64378 3.35449 8.5873 3.63862 8.59072 3.64375C8.59243 3.64718 8.72594 3.55988 8.72936 3.56331C8.73278 3.57015 8.67288 3.84572 8.6763 3.85257C8.67801 3.85599 8.81323 3.7687 8.81494 3.77212C8.81836 3.77726 8.72765 3.98094 8.73107 3.98607C8.73278 3.98949 8.868 3.9022 8.86971 3.90563C8.87313 3.91076 8.78071 4.10759 8.78242 4.11273C8.78413 4.11615 8.91935 4.02886 8.92106 4.03228C8.92448 4.03913 8.91421 4.31299 8.91764 4.31812C8.92277 4.32668 9.24455 4.11786 9.24969 4.12642C9.2514 4.12985 9.31302 4.26677 9.31473 4.2702C9.31986 4.27875 9.62281 4.08192 9.62623 4.09048C9.62794 4.0939 9.56633 4.24281 9.56804 4.24623C9.57317 4.25308 9.85559 4.06994 9.86072 4.07679C9.86243 4.08021 9.99423 4.21029 9.99594 4.21371C9.99936 4.22056 10.2801 4.03913 10.2852 4.04769C10.2869 4.05111 10.3656 4.19146 10.3674 4.19489C10.3708 4.20173 10.6412 4.02715 10.6446 4.034C10.6481 4.03913 10.7901 4.17777 10.7935 4.1829C10.797 4.18975 11.0537 4.02373 11.0571 4.03057C11.0588 4.034 11.0931 4.17777 11.0965 4.18119C11.0999 4.18804 11.3481 4.02715 11.3515 4.034C11.3532 4.03742 11.3875 4.18119 11.3892 4.18462C11.3926 4.19146 11.6305 4.03742 11.6339 4.04255C11.6356 4.04598 11.7212 4.19146 11.7246 4.1966C11.7281 4.20173 11.9591 4.05282 11.9626 4.05967C11.9643 4.06309 12.0036 4.20858 12.0053 4.212C12.0088 4.21714 12.2347 4.07165 12.2381 4.07679C12.2398 4.08021 12.1645 4.21885 12.1662 4.22227C12.1697 4.22741 12.3956 4.08192 12.399 4.08877C12.4007 4.09219 12.4469 4.24281 12.4487 4.24623C12.4521 4.25137 12.6797 4.10417 12.6831 4.11102C12.6849 4.11444 12.6078 4.25821 12.6095 4.26164C12.613 4.26848 12.8902 4.08877 12.8954 4.09732" stroke="#676767" stroke-width="0.659635" stroke-linecap="round" stroke-linejoin="round"/>
<path d="M13.9506 1.05199C13.9506 1.05199 14.0328 1.00065 14.0345 1.00407C14.0396 1.01263 13.824 1.34639 13.8291 1.35495C13.8325 1.36179 14.1064 1.1855 14.1098 1.19235C14.1184 1.20604 13.6888 1.66646 13.6973 1.68015C13.7008 1.68528 13.9061 1.55178 13.9096 1.55691C13.9181 1.57061 13.5347 2.04985 13.5416 2.06355C13.545 2.06868 13.7521 1.93518 13.7555 1.94031C13.7624 1.95058 13.4286 2.31686 13.4355 2.32713C13.4389 2.33227 13.6477 2.19705 13.6494 2.2039C13.6545 2.21074 13.4166 2.45208 13.4218 2.45892C13.4252 2.46406 13.5193 2.3956 13.5228 2.40073C13.5262 2.40758 13.3054 2.63351 13.3088 2.64206C13.3122 2.6472 13.521 2.51198 13.5245 2.51712C13.5313 2.52739 13.1941 2.90052 13.1993 2.91079C13.2027 2.91592 13.4132 2.7807 13.4166 2.78584C13.4235 2.79611 13.0914 3.15554 13.0966 3.16581C13.1 3.17095 13.3105 3.03402 13.3139 3.04087C13.3191 3.05114 13.0059 3.36778 13.011 3.37805C13.0144 3.38319 13.2266 3.24626 13.2301 3.25139C13.2352 3.26166 12.9374 3.59885 12.9425 3.60912C12.9459 3.61425 13.1 3.51155 13.1017 3.51669C13.1068 3.52525 12.845 3.77001 12.8501 3.77685C12.8535 3.78199 13.0675 3.64506 13.0692 3.65019C13.0743 3.66046 12.7594 3.9754 12.7662 3.98567C12.7696 3.9908 12.9836 3.85216 12.987 3.85901" stroke="#676767" stroke-width="0.659635" stroke-linecap="round" stroke-linejoin="round"/>
<path d="M14.0337 1.4033C14.0337 1.4033 14.1638 1.32285 14.1655 1.32628C14.1689 1.33141 14.0919 1.5505 14.0953 1.55563C14.097 1.55905 14.2254 1.47519 14.2271 1.47861C14.2305 1.48374 14.1689 1.74048 14.1723 1.74733C14.174 1.75075 14.3024 1.66689 14.3041 1.67031C14.3075 1.67715 14.2511 1.9493 14.2562 1.95443C14.2579 1.95786 14.3863 1.87399 14.388 1.87741C14.3914 1.88426 14.3384 2.16154 14.3418 2.16667C14.3435 2.17009 14.4719 2.08623 14.4753 2.08965C14.4787 2.09478 14.4102 2.33954 14.4137 2.34468C14.4154 2.3481 14.5455 2.26423 14.5472 2.26765C14.5506 2.2745 14.5027 2.56718 14.5061 2.57403C14.5078 2.57745 14.6379 2.49358 14.6396 2.49701C14.643 2.50214 14.5557 2.70069 14.5592 2.70411C14.5609 2.70753 14.6909 2.62367 14.6927 2.62709C14.6961 2.63222 14.6071 2.82392 14.6088 2.82906C14.6105 2.83248 14.7406 2.74861 14.7423 2.75204C14.7457 2.75888 14.6909 3.03616 14.6944 3.04301C14.6961 3.04643 14.8262 2.96256 14.8279 2.96598C14.8313 2.97112 14.7577 3.20047 14.7594 3.20561C14.7611 3.20903 14.8912 3.12516 14.8929 3.12859C14.8946 3.13372 14.7971 3.30146 14.7988 3.30659C14.8005 3.31001 14.9306 3.22615 14.9323 3.22957C14.9357 3.23642 14.8878 3.53081 14.8912 3.53766C14.8929 3.54108 15.023 3.45721 15.0247 3.46063C15.0281 3.46577 14.9511 3.6917 14.9545 3.69683C14.9562 3.70026 15.0863 3.61639 15.088 3.61981C15.0915 3.62666 15.035 3.90223 15.0401 3.90907C15.0418 3.9125 15.1719 3.82863 15.1736 3.83205C15.177 3.83719 15.0966 4.05113 15.0983 4.05627C15.1 4.05969 15.2301 3.97582 15.2318 3.97925C15.2335 3.98267 15.2472 4.1487 15.2506 4.15212C15.2523 4.15554 15.2797 4.13158 15.2814 4.135C15.2849 4.14014 15.2061 4.32328 15.2078 4.32841C15.2096 4.33184 15.3396 4.24797 15.3431 4.25139C15.3465 4.25824 15.2951 4.54578 15.2986 4.55092C15.3003 4.55434 15.4321 4.47048 15.4338 4.4739C15.4355 4.47903 15.3362 4.64677 15.3396 4.65019C15.3413 4.65362 15.4731 4.56975 15.4749 4.57317C15.4766 4.57831 15.3756 4.74091 15.379 4.74604C15.3807 4.74946 15.5125 4.6656 15.5142 4.66731C15.5176 4.67244 15.581 4.85729 15.5844 4.86243C15.5878 4.86756 15.7573 4.75631 15.7607 4.76145C15.7641 4.76658 15.8805 4.95657 15.8839 4.9617C15.8856 4.96684 16.0534 4.85901 16.0551 4.86243C16.0585 4.86756 16.1852 5.06611 16.1886 5.07124C16.1903 5.07467 16.3529 4.97026 16.3563 4.97368C16.358 4.97711 16.3563 5.13286 16.358 5.13628C16.3598 5.13971 16.5224 5.0353 16.5241 5.04044C16.5258 5.04386 16.4864 5.18421 16.4881 5.18763C16.4898 5.19106 16.649 5.08836 16.6524 5.0935C16.6559 5.09863 16.7637 5.29889 16.7671 5.30573C16.7688 5.30916 16.9263 5.20817 16.928 5.21331C16.9297 5.21673 16.9126 5.36906 16.9143 5.37248C16.916 5.37591 17.0718 5.27664 17.0735 5.28006C17.0752 5.28348 17.017 5.41699 17.0187 5.42041C17.0204 5.42383 17.1762 5.32456 17.1779 5.32798C17.1813 5.33312 17.2361 5.52139 17.2395 5.52653C17.2412 5.52995 17.3936 5.43239 17.3953 5.43581C17.397 5.43924 17.3371 5.57274 17.3388 5.57616C17.3405 5.57959 17.4928 5.48203 17.4945 5.48716C17.498 5.4923 17.5853 5.70282 17.5887 5.70796C17.5904 5.71138 17.7393 5.61553 17.741 5.62067C17.7427 5.6258 17.7769 5.81065 17.7787 5.81408C17.7804 5.8175 17.9259 5.72336 17.9293 5.72678C17.9327 5.73192 18.0131 5.94758 18.0149 5.95271C18.0166 5.95614 18.1603 5.86371 18.1621 5.86713C18.1638 5.87056 18.1809 6.0537 18.1826 6.05712C18.1843 6.06054 18.3264 5.96983 18.3281 5.97325C18.3315 5.97839 18.3674 6.17693 18.3692 6.18207C18.3709 6.18549 18.5129 6.09478 18.5146 6.0982C18.5164 6.10162 18.4513 6.23513 18.453 6.23855C18.4547 6.24197 18.5934 6.15297 18.5951 6.15639C18.5968 6.15982 18.5591 6.31386 18.5626 6.31728C18.566 6.32071 18.7029 6.2317 18.7046 6.23513C18.7081 6.24026 18.768 6.4679 18.7697 6.47304C18.7714 6.47646 18.9083 6.38917 18.91 6.39259C18.9117 6.39602 18.8655 6.54664 18.8672 6.55006C18.8689 6.55348 19.0042 6.46619 19.0076 6.46962C19.0093 6.47304 18.9802 6.63906 18.9819 6.64249C18.9836 6.64591 19.1171 6.56033 19.1188 6.56375C19.1223 6.56889 19.1462 6.78284 19.1479 6.78797C19.1496 6.7914 19.2832 6.70582 19.2849 6.70924C19.2866 6.71266 19.2387 6.86842 19.2421 6.87184C19.2438 6.87526 19.3756 6.78968 19.379 6.79311C19.3807 6.79653 19.3225 6.94544 19.3259 6.94886C19.3277 6.95229 19.4594 6.8667 19.4612 6.87013C19.4629 6.87355 19.3927 7.00877 19.3944 7.01219C19.3961 7.01561 19.5262 6.93175 19.5296 6.93517C19.533 6.93859 19.4577 7.07552 19.4594 7.07894C19.4612 7.08237 19.5912 6.9985 19.5929 7.00192C19.5964 7.00706 19.6289 7.25695 19.6323 7.26208C19.634 7.26551 19.7624 7.18164 19.7658 7.18506C19.7675 7.18848 19.7025 7.33739 19.7059 7.34082C19.7076 7.34424 19.836 7.26208 19.8377 7.2638C19.8411 7.26893 19.812 7.46576 19.8155 7.46919C19.8172 7.47261 19.9455 7.39045 19.9473 7.39388C19.949 7.3973 19.8891 7.55819 19.8908 7.56161C19.8925 7.56504 20.0208 7.48288 20.0226 7.4863C20.026 7.49144 20.026 7.73962 20.0294 7.74475C20.0311 7.74818 20.1578 7.66602 20.1595 7.66944C20.1612 7.67287 20.079 7.81493 20.0807 7.82006C20.0825 7.82349 20.2091 7.74133 20.2108 7.74475C20.2143 7.74989 20.1749 7.96041 20.1783 7.96555C20.18 7.96897 20.3067 7.88682 20.3084 7.89024C20.3101 7.89537 20.2485 8.0768 20.2502 8.08022C20.2519 8.08365 20.3786 8.00149 20.3803 8.00491C20.382 8.00834 20.3118 8.18634 20.3152 8.18977C20.3169 8.19319 20.4436 8.11103 20.4453 8.11446C20.4487 8.11959 20.4196 8.38318 20.4231 8.39002C20.4248 8.39345 20.5514 8.31129 20.5532 8.31471C20.5549 8.31814 20.4607 8.46705 20.4624 8.47047C20.4642 8.47389 20.5908 8.39173 20.5925 8.39516C20.5959 8.40029 20.5412 8.64676 20.5446 8.65361C20.5463 8.65703 20.673 8.57487 20.6747 8.5783C20.6764 8.58343 20.584 8.75459 20.5857 8.75973C20.5874 8.76315 20.7158 8.67928 20.7175 8.68271C20.7209 8.68784 20.625 8.86756 20.6285 8.87098C20.6302 8.8744 20.7585 8.79225 20.7603 8.79567C20.7637 8.80081 20.6849 9.04556 20.6867 9.05241C20.6884 9.05583 20.8184 8.97197 20.8202 8.97539C20.8236 8.98052 20.7158 9.15682 20.7175 9.16195C20.7192 9.16537 20.851 9.0798 20.8527 9.08322C20.8561 9.09006 20.7603 9.34509 20.7637 9.35194C20.7654 9.35536 20.8989 9.26978 20.9006 9.27321C20.904 9.27834 20.7945 9.51796 20.7962 9.5231C20.7979 9.52652 20.9331 9.43923 20.9348 9.44265C20.94 9.45121 20.827 9.78668 20.8321 9.79524C20.8339 9.79866 20.9742 9.70795 20.9759 9.71137C20.9811 9.71822 20.8424 10.0246 20.8458 10.0314C20.8475 10.0349 20.9913 9.94244 20.9947 9.94586C20.9982 9.95271 20.8424 10.2214 20.8476 10.2283C20.8493 10.2317 20.9982 10.1358 20.9999 10.1393C21.005 10.1461 20.8304 10.4405 20.8356 10.4491C20.8373 10.4525 20.9913 10.3532 20.9947 10.3584C20.9982 10.3652 20.8133 10.6134 20.8184 10.6202C20.8202 10.6237 20.9793 10.5227 20.981 10.5261C20.9862 10.5364 20.762 10.9095 20.7671 10.9198C20.7688 10.9249 20.9365 10.8154 20.94 10.8205C20.9451 10.8308 20.6815 11.2142 20.6884 11.2244C20.6918 11.2296 20.8732 11.1115 20.8766 11.1166C20.8818 11.1251 20.6131 11.4264 20.6182 11.4349C20.6216 11.4401 20.815 11.3151 20.8167 11.3203C20.8219 11.3288 20.5497 11.589 20.5549 11.5958C20.5583 11.601 20.7603 11.4709 20.7637 11.476C20.7705 11.4863 20.4419 11.8269 20.447 11.8372C20.4505 11.8423 20.6695 11.702 20.673 11.7071C20.6815 11.7225 20.2262 12.2086 20.2348 12.224C20.2382 12.2308 20.4915 12.0665 20.495 12.0734C20.5052 12.0905 19.9147 12.6502 19.925 12.6673C19.9301 12.6759 20.2416 12.4739 20.2468 12.4807C20.2588 12.5013 19.5296 13.0918 19.5416 13.1123C19.5467 13.1226 19.9455 12.8658 19.9507 12.8761C19.9609 12.8949 19.2472 13.3725 19.2575 13.3913C19.2643 13.4033 19.7453 13.0935 19.7521 13.1055C19.7641 13.126 18.9443 13.6652 18.9562 13.6857C18.9665 13.7028 19.4098 13.4016 19.4201 13.4187" stroke="#676767" stroke-width="0.659635" stroke-linecap="round" stroke-linejoin="round"/>
<path d="M3.5315 6.14496C3.56402 6.19973 5.29444 5.05296 5.32696 5.10944C5.36632 5.17619 2.67912 6.69609 2.71849 6.76284C2.72876 6.78167 3.12927 6.50268 3.13954 6.5198C3.15495 6.54718 2.1143 7.29686 2.1297 7.32424C2.13655 7.33451 2.55418 7.06579 2.55931 7.07606C2.56958 7.09318 1.97566 7.60666 1.98593 7.62377C1.99106 7.63233 2.06124 7.569 2.06637 7.57756C2.07322 7.58954 1.67613 7.91303 1.68297 7.92501C1.68811 7.93186 1.97737 7.7453 1.98079 7.75214C1.98764 7.76412 1.58541 8.08419 1.59226 8.09446C1.59568 8.10131 1.6282 8.06536 1.63163 8.07221C1.63676 8.08077 1.46732 8.40768 1.47245 8.41624C1.47587 8.42138 1.56659 8.35291 1.57001 8.35976C1.57515 8.36832 1.30814 8.6165 1.31327 8.62334C1.3167 8.62848 1.53235 8.48984 1.53407 8.49497C1.5392 8.50353 1.24994 8.75856 1.25507 8.76712C1.2585 8.77225 1.46389 8.63875 1.46732 8.64388C1.47245 8.65415 1.17634 8.96566 1.18319 8.97593C1.18661 8.98107 1.37831 8.85612 1.38174 8.86126C1.38687 8.87153 1.10788 9.21727 1.11301 9.22754C1.11644 9.23267 1.29273 9.11799 1.29616 9.12142C1.29958 9.12826 1.07365 9.37131 1.07878 9.37987C1.08049 9.385 1.25336 9.27375 1.25679 9.27717C1.26192 9.28573 1.03428 9.59895 1.03942 9.60751C1.04113 9.61093 1.20373 9.50653 1.20715 9.51166C1.21228 9.52022 1.00518 9.87452 1.01032 9.88479C1.01203 9.88821 1.16778 9.78894 1.16949 9.79236C1.17463 9.80092 0.996626 10.1432 1.00005 10.1518C1.00176 10.1552 1.15067 10.0594 1.15238 10.0645C1.15752 10.0731 1.0069 10.4257 1.01203 10.4342C1.01374 10.4376 1.15409 10.3469 1.1558 10.3503C1.16094 10.3589 1.0377 10.7029 1.04284 10.7115C1.04455 10.7149 1.18148 10.6259 1.18319 10.6293C1.18833 10.6362 1.08391 10.958 1.08905 10.9665C1.09076 10.9699 1.22427 10.8844 1.22598 10.8878C1.2294 10.8929 1.1113 11.0709 1.11473 11.0761C1.11644 11.0795 1.24823 10.9939 1.25165 10.9973C1.25508 11.0025 1.1404 11.177 1.14211 11.1822C1.14383 11.1856 1.27561 11.1017 1.27733 11.1052C1.28075 11.1103 1.18148 11.3191 1.1849 11.3242C1.18662 11.3277 1.31669 11.2438 1.32012 11.2472C1.32354 11.2524 1.22769 11.4509 1.23111 11.456C1.23283 11.4595 1.3612 11.3756 1.36462 11.379C1.36804 11.3859 1.32012 11.6854 1.32354 11.6922C1.32525 11.6957 1.45362 11.6135 1.45533 11.6152C1.45876 11.6203 1.37147 11.8018 1.37489 11.8052C1.3766 11.8086 1.50326 11.7265 1.50668 11.7299C1.5101 11.7367 1.47074 12.0003 1.47416 12.0072C1.47587 12.0106 1.60253 11.9284 1.60424 11.9319C1.60766 11.937 1.54776 12.1441 1.54947 12.1492C1.55118 12.1527 1.67784 12.0705 1.67955 12.0739C1.68297 12.0791 1.64703 12.3135 1.65045 12.3187C1.65216 12.3221 1.77882 12.2399 1.78054 12.2434C1.78396 12.2485 1.77711 12.5104 1.78054 12.5172C1.78225 12.5206 1.90891 12.4385 1.91233 12.4419C1.91404 12.447 1.8644 12.6336 1.86611 12.637C1.86783 12.6405 1.9962 12.5583 1.99791 12.5617C2.00133 12.5686 2.02016 12.8356 2.02358 12.8424C2.0253 12.8458 2.15366 12.7637 2.15537 12.7654C2.1588 12.7705 2.13313 12.9725 2.13655 12.9759C2.13826 12.9793 2.26663 12.8955 2.27005 12.8989C2.27177 12.9023 2.2187 13.0666 2.22042 13.0701C2.22213 13.0735 2.35221 12.9896 2.35392 12.993C2.35563 12.9965 2.30257 13.1591 2.306 13.1625C2.30771 13.1659 2.43779 13.082 2.4395 13.0855C2.44292 13.0906 2.4686 13.3285 2.47202 13.3337C2.47373 13.3371 2.60553 13.2515 2.60724 13.2549C2.61066 13.2601 2.63976 13.4911 2.64318 13.498C2.64489 13.5014 2.77839 13.4158 2.78011 13.4192C2.78182 13.4227 2.7647 13.6058 2.76641 13.6092C2.76813 13.6126 2.90163 13.5271 2.90334 13.5305C2.90505 13.5356 2.90334 13.7273 2.90505 13.7307C2.90677 13.7342 3.04198 13.6469 3.04369 13.6503C3.0454 13.6554 3.06937 13.8454 3.07108 13.8506C3.07279 13.854 3.16008 13.7941 3.16179 13.7992C3.1635 13.8026 3.16693 13.9396 3.16864 13.943C3.17035 13.9464 3.30728 13.8574 3.3107 13.8608C3.31241 13.8642 3.24395 13.9977 3.24566 14.0012C3.24737 14.0046 3.38601 13.9156 3.38772 13.919C3.39115 13.9241 3.41682 14.1227 3.41853 14.1261C3.42024 14.1295 3.55888 14.0405 3.5623 14.044C3.56573 14.0491 3.59996 14.2494 3.60338 14.2528C3.60509 14.2562 3.74716 14.1655 3.74887 14.1689C3.75229 14.174 3.82589 14.3948 3.82931 14.4C3.83102 14.4034 3.9748 14.311 3.97651 14.3144C3.97822 14.3178 3.98849 14.4958 3.9902 14.4992C3.99191 14.5027 4.1374 14.4085 4.14082 14.412C4.14254 14.4154 4.11173 14.5677 4.11344 14.5711C4.11515 14.5746 4.26064 14.4804 4.26406 14.4838C4.26748 14.489 4.32568 14.6875 4.32739 14.6909C4.3291 14.6944 4.47801 14.5985 4.47972 14.6019C4.48143 14.6054 4.43179 14.7457 4.43351 14.7491C4.43522 14.7526 4.58413 14.6567 4.58584 14.6601C4.58926 14.6653 4.67997 14.8724 4.6834 14.8775C4.68511 14.8809 4.83744 14.7834 4.83915 14.7868C4.84086 14.7902 4.85456 14.9597 4.85798 14.9631C4.86141 14.9665 5.01545 14.8672 5.01716 14.8707C5.01887 14.8741 5.03256 15.0401 5.03428 15.0435C5.03599 15.047 5.19174 14.9477 5.19345 14.9511C5.19688 14.9562 5.2893 15.1514 5.29102 15.1565C5.29273 15.1599 5.4519 15.0589 5.45361 15.0624C5.45533 15.0658 5.43136 15.213 5.43308 15.2164C5.43479 15.2198 5.59568 15.1171 5.5991 15.1206C5.60252 15.124 5.6436 15.2968 5.64702 15.3003C5.65045 15.3037 5.81134 15.1993 5.81476 15.2044C5.81647 15.2078 5.78566 15.3516 5.78738 15.355C5.78909 15.3585 5.95511 15.2523 5.95854 15.2558C5.96196 15.2609 6.05096 15.444 6.05438 15.4492C6.0561 15.4543 6.22383 15.3448 6.22726 15.3499C6.22897 15.3533 6.17933 15.4903 6.18104 15.4937C6.18275 15.4988 6.35392 15.3876 6.35563 15.3927C6.35734 15.3961 6.31797 15.5365 6.31968 15.5399C6.3214 15.545 6.49255 15.4338 6.49427 15.4389C6.49598 15.4423 6.51309 15.5998 6.5148 15.6032C6.51823 15.6084 6.69281 15.4954 6.69452 15.4988C6.69623 15.5022 6.68767 15.6511 6.68938 15.6546C6.69281 15.6597 6.86739 15.5467 6.86911 15.5502C6.87082 15.5536 6.86397 15.7025 6.86568 15.7059C6.8691 15.7111 7.04711 15.5947 7.05053 15.5998C7.05225 15.6032 7.08476 15.7453 7.08648 15.7487C7.0899 15.7538 7.12756 15.7179 7.13098 15.723C7.13269 15.7265 7.24052 15.8018 7.24223 15.8052C7.24565 15.8103 7.4288 15.6905 7.43222 15.6956C7.43393 15.6991 7.36718 15.8326 7.36889 15.836C7.37231 15.8411 7.55545 15.7213 7.55888 15.7265C7.56059 15.7299 7.52122 15.8702 7.52294 15.8719C7.52636 15.8771 7.71463 15.7556 7.71805 15.759C7.71977 15.7624 7.74031 15.9147 7.74202 15.9182C7.74544 15.9233 7.93371 15.8001 7.93714 15.8052C7.94056 15.8103 8.07407 15.9798 8.07749 15.9849C8.08091 15.99 8.27603 15.8634 8.27774 15.8685C8.27946 15.8719 8.3308 16.026 8.33252 16.0311C8.33594 16.0363 8.53619 15.9062 8.53962 15.9113C8.54133 15.9147 8.4934 16.0534 8.49683 16.0568C8.50025 16.0619 8.70222 15.9318 8.70393 15.937C8.70565 15.9404 8.70393 16.0859 8.70564 16.0893C8.70907 16.0945 8.91617 15.9609 8.91959 15.9661C8.9213 15.9712 9.02913 16.1287 9.03256 16.1321C9.03598 16.1372 9.24993 15.9986 9.25335 16.0054C9.25507 16.0089 9.23282 16.1509 9.23453 16.1544C9.23795 16.1595 9.4519 16.0209 9.45532 16.026C9.45703 16.0294 9.47757 16.1749 9.47929 16.1783C9.48271 16.1835 9.70522 16.0414 9.70864 16.0465C9.71206 16.0517 9.90718 16.1989 9.91061 16.204C9.91403 16.2091 10.0937 16.091 10.0972 16.0962C10.0989 16.0996 10.1982 16.2245 10.1999 16.2297C10.2033 16.2365 10.4412 16.0825 10.4446 16.0876C10.4463 16.091 10.3762 16.2331 10.3779 16.2365C10.3813 16.2434 10.6209 16.0876 10.6243 16.0945C10.6278 16.0996 10.8023 16.2416 10.8058 16.2468C10.8092 16.2536 11.0608 16.091 11.0642 16.0979C11.0659 16.1013 11.1549 16.2434 11.1566 16.2468C11.1601 16.2536 11.4202 16.0859 11.4237 16.0927C11.4271 16.0996 11.6599 16.228 11.6633 16.2348C11.6667 16.2416 11.944 16.0636 11.9474 16.0705C11.9491 16.0739 11.9525 16.2177 11.9542 16.2211C11.9577 16.228 12.2452 16.0431 12.2486 16.0517C12.2521 16.0602 12.5824 16.103 12.5858 16.1099C12.591 16.1184 12.5944 16.0945 12.5995 16.1013C12.6012 16.1047 12.769 16.1492 12.7724 16.1526C12.7775 16.1612 13.0993 15.9541 13.1027 15.9609C13.1061 15.9661 13.2979 16.0517 13.2996 16.0568C13.3047 16.0654 13.5614 15.8942 13.5666 15.9028C13.5683 15.9079 13.7275 16.014 13.7309 16.0174C13.736 16.0277 14.1177 15.7812 14.1228 15.7915C14.1246 15.7949 14.0818 15.949 14.0835 15.9524C14.0903 15.9627 14.5011 15.6974 14.5062 15.7076C14.5097 15.7128 14.7613 15.7829 14.7647 15.7898C14.7715 15.8018 15.042 15.6135 15.0488 15.6255C15.0591 15.6426 15.8105 15.4013 15.8207 15.4184C15.831 15.4355 15.8995 15.3499 15.908 15.367C15.92 15.3876 16.7827 15.0795 16.7946 15.1C16.8272 15.1565 18.2974 14.1586 18.3299 14.2134" stroke="#676767" stroke-width="0.659635" stroke-linecap="round" stroke-linejoin="round"/>
<path d="M5.50342 5.18086C5.51711 5.20311 5.99465 4.86593 6.00834 4.88989" stroke="#676767" stroke-width="0.659635" stroke-linecap="round" stroke-linejoin="round"/>
<path d="M7.61 1.04968C7.61 1.04968 7.69387 0.99833 7.69558 1.00004C7.70071 1.01031 7.46794 1.38002 7.47307 1.38857C7.47821 1.39713 7.77945 1.20201 7.78287 1.20886C7.78972 1.22255 7.36353 1.6282 7.37038 1.64189C7.3738 1.64702 7.57919 1.51523 7.58261 1.52037C7.58775 1.52892 7.29335 1.81476 7.29849 1.82332C7.30191 1.82845 7.5073 1.69495 7.51073 1.7018C7.51757 1.71378 7.16156 2.13483 7.16841 2.14681C7.17183 2.15194 7.37722 2.01844 7.38064 2.02357C7.38578 2.03213 7.10508 2.28545 7.1085 2.29401C7.11193 2.29914 7.31731 2.16564 7.32074 2.17077C7.32758 2.18104 7.0041 2.53021 7.00923 2.54048C7.01266 2.54561 7.21804 2.41211 7.22147 2.41724C7.22831 2.42922 6.88599 2.81775 6.89284 2.82974C6.89626 2.83487 7.10166 2.70137 7.10508 2.7065C7.11193 2.71848 6.76789 3.10873 6.77474 3.12071C6.77816 3.12584 6.98356 2.99234 6.98698 2.99747C6.99212 3.00603 6.76276 3.28844 6.7679 3.297C6.77132 3.30214 6.77474 3.28673 6.77645 3.29187C6.78159 3.30042 6.55737 3.6359 6.5625 3.64445C6.56593 3.64959 6.77303 3.51608 6.77474 3.52122C6.77987 3.52978 6.47864 3.82931 6.48377 3.83786C6.48719 3.843 6.6943 3.70949 6.69772 3.71463C6.70457 3.72661 6.34856 4.14595 6.3554 4.15793C6.35883 4.16307 6.56593 4.02956 6.56935 4.0347C6.57277 4.04154 6.39819 4.31198 6.40161 4.31882C6.40504 4.32396 6.46665 4.27432 6.47008 4.27946C6.47692 4.28972 6.13974 4.66628 6.14659 4.67826C6.15001 4.68339 6.35711 4.54989 6.36054 4.55502" stroke="#676767" stroke-width="0.659635" stroke-linecap="round" stroke-linejoin="round"/>
<path d="M9.30176 7.50251C9.30689 7.51107 9.65264 7.28856 9.65777 7.29712C9.66462 7.30739 9.37535 7.70619 9.38049 7.71817C9.38734 7.73015 9.84776 7.43233 9.8546 7.44431C9.86145 7.45458 9.51057 7.77465 9.51742 7.78492C9.52256 7.79348 9.86829 7.57097 9.87343 7.57953" stroke="#676767" stroke-width="0.659635" stroke-linecap="round" stroke-linejoin="round"/>
<path d="M12.3037 7.50446C12.3088 7.51302 12.6546 7.29051 12.6597 7.29907C12.6666 7.30934 12.379 7.70814 12.3842 7.71841C12.391 7.73039 12.8497 7.43429 12.8566 7.44455C12.8617 7.45482 12.5125 7.77489 12.5194 7.78516C12.5245 7.79372 12.8702 7.57121 12.8754 7.57977" stroke="#676767" stroke-width="0.659635" stroke-linecap="round" stroke-linejoin="round"/>
<path d="M10.8423 11.4288C10.8423 11.4288 11.1641 11.2319 11.1692 11.2405C11.176 11.2508 10.9022 11.641 10.9073 11.653C10.9125 11.665 11.3232 11.3997 11.3284 11.41C11.3335 11.4202 11.0015 11.7061 11.0066 11.7163C11.0117 11.7249 11.3284 11.5195 11.3335 11.5281" stroke="#676767" stroke-width="0.659635" stroke-linecap="round" stroke-linejoin="round"/>
<path d="M3.47705 9.87105C3.47705 9.87105 3.6465 9.76835 3.64821 9.77178C3.65163 9.77691 3.81081 9.93267 3.81423 9.9378C3.81766 9.94465 4.09836 9.76322 4.10349 9.77178C4.10521 9.7752 4.15142 9.93438 4.15313 9.9378C4.15656 9.94465 4.43726 9.76322 4.44239 9.77178C4.4441 9.7752 4.39275 9.93438 4.39618 9.9378C4.3996 9.94465 4.6803 9.76322 4.68544 9.77178C4.68886 9.77691 4.82408 9.93267 4.8275 9.9378C4.83092 9.94465 5.11162 9.76322 5.11676 9.77178C5.11847 9.7752 5.02262 9.93438 5.02604 9.9378C5.02946 9.94465 5.31017 9.76322 5.3153 9.77178C5.31701 9.7752 5.35296 9.93438 5.35638 9.9378C5.35981 9.94465 5.64051 9.76322 5.64564 9.77178C5.64735 9.77691 5.52754 9.93438 5.53096 9.9378C5.53439 9.94123 5.69699 9.83682 5.70041 9.84024" stroke="#676767" stroke-width="0.659635" stroke-linecap="round" stroke-linejoin="round"/>
<path d="M3.47705 10.8105C3.47705 10.8105 3.6465 10.7078 3.64821 10.7112C3.65163 10.7164 3.81081 10.8721 3.81423 10.8773C3.81766 10.8841 4.09836 10.7027 4.10349 10.7112C4.10521 10.7147 4.15142 10.8738 4.15313 10.8773C4.15656 10.8841 4.43726 10.7027 4.44239 10.7112C4.4441 10.7147 4.39275 10.8738 4.39618 10.8773C4.3996 10.8841 4.6803 10.7027 4.68544 10.7112C4.68886 10.7164 4.82408 10.8721 4.8275 10.8773C4.83092 10.8841 5.11162 10.7027 5.11676 10.7112C5.11847 10.7147 5.02262 10.8738 5.02604 10.8773C5.02946 10.8841 5.31017 10.7027 5.3153 10.7112C5.31701 10.7147 5.35296 10.8738 5.35638 10.8773C5.35981 10.8841 5.64051 10.7027 5.64564 10.7112C5.64735 10.7164 5.52754 10.8738 5.53096 10.8773C5.53439 10.8807 5.69699 10.7763 5.70041 10.7797" stroke="#676767" stroke-width="0.659635" stroke-linecap="round" stroke-linejoin="round"/>
<path d="M16.6558 9.87105C16.6558 9.87105 16.8252 9.76835 16.8269 9.77178C16.8303 9.77691 16.9895 9.93267 16.9929 9.9378C16.9964 9.94465 17.2771 9.76322 17.2822 9.77178C17.2839 9.7752 17.3301 9.93438 17.3318 9.9378C17.3353 9.94465 17.616 9.76322 17.6211 9.77178C17.6228 9.7752 17.5715 9.93438 17.5749 9.9378C17.5783 9.94465 17.859 9.76322 17.8641 9.77178C17.8676 9.77691 18.0028 9.93267 18.0062 9.9378C18.0096 9.94465 18.2903 9.76322 18.2955 9.77178C18.2972 9.7752 18.2013 9.93438 18.2048 9.9378C18.2082 9.94465 18.4889 9.76322 18.494 9.77178C18.4957 9.7752 18.5317 9.93438 18.5351 9.9378C18.5385 9.94465 18.8192 9.76322 18.8244 9.77178C18.8261 9.77691 18.7063 9.93438 18.7097 9.9378C18.7131 9.94123 18.8757 9.83682 18.8791 9.84024" stroke="#676767" stroke-width="0.659635" stroke-linecap="round" stroke-linejoin="round"/>
<path d="M16.6558 10.8105C16.6558 10.8105 16.8252 10.7078 16.8269 10.7112C16.8303 10.7164 16.9895 10.8721 16.9929 10.8773C16.9964 10.8841 17.2771 10.7027 17.2822 10.7112C17.2839 10.7147 17.3301 10.8738 17.3318 10.8773C17.3353 10.8841 17.616 10.7027 17.6211 10.7112C17.6228 10.7147 17.5715 10.8738 17.5749 10.8773C17.5783 10.8841 17.859 10.7027 17.8641 10.7112C17.8676 10.7164 18.0028 10.8721 18.0062 10.8773C18.0096 10.8841 18.2903 10.7027 18.2955 10.7112C18.2972 10.7147 18.2013 10.8738 18.2048 10.8773C18.2082 10.8841 18.4889 10.7027 18.494 10.7112C18.4957 10.7147 18.5317 10.8738 18.5351 10.8773C18.5385 10.8841 18.8192 10.7027 18.8244 10.7112C18.8261 10.7164 18.7063 10.8738 18.7097 10.8773C18.7131 10.8807 18.8757 10.7763 18.8791 10.7797" stroke="#676767" stroke-width="0.659635" stroke-linecap="round" stroke-linejoin="round"/>
</svg>
