<svg width="323" height="232" viewBox="0 0 323 232" fill="none" xmlns="http://www.w3.org/2000/svg">
<path d="M80.773 69.4595L67.0493 83.9859L52.0965 66.9665C51.2191 65.9741 49.5613 66.4694 49.416 67.8112L46.1096 96.1439L26.3394 89.5452C25.0507 89.1248 23.8794 90.452 24.4716 91.6734L33.5217 110.499L17.8704 118.722C16.592 119.393 16.8568 121.271 18.2527 121.576L43.2521 127.138L32.0231 145.603C31.2914 146.789 32.4015 148.262 33.7564 147.886L54.1251 142.188L60.0058 163.242C60.3636 164.487 61.9825 164.784 62.7366 163.735L76.9272 144L98.3934 155.314C99.5609 155.936 100.918 154.887 100.61 153.605L95.3719 131.591L110.468 130.007C111.776 129.863 112.316 128.275 111.381 127.362L93.8163 110.489L110.03 93.6064C111.023 92.5607 110.182 90.8472 108.736 91.0133L84.0859 93.8499L83.4248 70.4985C83.3813 69.1174 81.7088 68.4933 80.7616 69.4754L80.773 69.4595Z" fill="white" stroke="black" stroke-width="1.41662" stroke-linecap="round" stroke-linejoin="round"/>
<path d="M135.927 79.6875C135.927 79.6875 139.677 59.7134 154.048 47.5915C168.425 35.4881 167.365 68.9166 167.365 68.9166L176.626 65.7558C176.626 65.7558 183.094 40.8419 195.84 33.4106C208.586 25.9792 206.868 51.3605 206.868 51.3605L216.129 48.1997C216.129 48.1997 220.926 19.7205 233.897 15.314C246.869 10.9075 240.852 35.8119 240.852 35.8119L253.16 29.4606C253.16 29.4606 256.098 1.59503 236.318 4.16876C216.538 6.7425 212.924 27.6007 212.924 27.6007C212.924 27.6007 214.04 16.6319 201.733 17.9577C183.749 19.9183 175.266 43.4726 175.266 43.4726C175.266 43.4726 172.685 23.6737 150.472 37.4175C128.259 51.1613 123.12 84.6994 123.12 84.6994L135.921 79.669L135.927 79.6875Z" stroke="black" stroke-width="1.41662" stroke-linecap="round" stroke-linejoin="round"/>
<path d="M268.037 138.756C259.728 135.5 250.305 138.198 243.105 144.879C243.593 133.172 238.924 123.146 230.287 119.762C223.289 117.02 215.248 119.251 208.397 124.933C207.669 115.041 203.485 107.159 196.378 104.375C189.271 101.591 180.342 104.692 172.943 111.883C170.949 105.973 167.082 101.305 161.633 99.17C150.062 94.6366 135.88 103.205 129.969 118.293C124.057 133.382 128.644 149.304 140.215 153.837C145.664 155.972 151.691 155.18 157.151 152.191C157.696 162.494 161.923 170.75 169.249 173.62C176.939 176.633 186.169 172.976 193.796 164.992C195.32 172.904 199.544 179.183 206.013 181.718C214.359 184.988 224.185 181.207 231.696 172.926C232.205 183.109 237.341 191.89 245.905 195.245C258.479 200.171 273.638 191.523 279.749 175.925C285.86 160.326 280.61 143.682 268.037 138.756Z" fill="white" stroke="black" stroke-width="1.41662" stroke-linecap="round" stroke-linejoin="round"/>
<path d="M305.03 113.78C310.566 115.948 316.811 113.219 318.979 107.684C321.148 102.149 318.419 95.9038 312.884 93.7352C307.348 91.5666 301.103 94.2957 298.935 99.8309C296.766 105.366 299.495 111.611 305.03 113.78Z" fill="white" stroke="black" stroke-width="1.41662" stroke-linecap="round" stroke-linejoin="round"/>
<path d="M253.288 117.868C264.655 122.322 277.48 116.717 281.933 105.351C286.386 93.9839 280.782 81.1593 269.415 76.706C258.048 72.2527 245.224 77.857 240.771 89.2237C236.317 100.59 241.922 113.415 253.288 117.868Z" fill="white" stroke="black" stroke-width="1.41662" stroke-linecap="round" stroke-linejoin="round"/>
<path d="M146.986 181.815L130.103 186.761L123.217 171.452L117.148 186.941L101.894 188.321L110.685 198.071L102.438 213.757L119.871 212.18L130.88 227.003L136.463 208.675L153.63 206.489L141.001 196.286L146.986 181.815Z" fill="white" stroke="black" stroke-width="1.41662" stroke-linecap="round" stroke-linejoin="round"/>
</svg>
