<svg width="27" height="27" viewBox="0 0 27 27" fill="none" xmlns="http://www.w3.org/2000/svg">
<path d="M23.9959 14.9933V22.2155C23.9959 23.0099 23.3459 23.6599 22.5514 23.6599H5.2181C4.42365 23.6599 3.77365 23.0099 3.77365 22.2155V14.9933C3.77365 14.1988 3.12365 13.5488 2.32921 13.5488C1.53477 13.5488 0.884766 14.1988 0.884766 14.9933V23.6599C0.884766 25.2488 2.18477 26.5488 3.77365 26.5488H23.9959C25.5848 26.5488 26.8848 25.2488 26.8848 23.6599V14.9933C26.8848 14.1988 26.2348 13.5488 25.4403 13.5488C24.6459 13.5488 23.9959 14.1988 23.9959 14.9933ZM15.3292 14.5166L18.0448 11.8011C18.1785 11.6673 18.3373 11.5612 18.512 11.4889C18.6867 11.4165 18.874 11.3792 19.0631 11.3792C19.2522 11.3792 19.4395 11.4165 19.6142 11.4889C19.7889 11.5612 19.9477 11.6673 20.0814 11.8011C20.2152 11.9348 20.3212 12.0935 20.3936 12.2683C20.466 12.443 20.5032 12.6303 20.5032 12.8194C20.5032 13.0085 20.466 13.1958 20.3936 13.3705C20.3212 13.5452 20.2152 13.704 20.0814 13.8377L14.8959 19.0233C14.7622 19.1572 14.6035 19.2634 14.4288 19.3359C14.254 19.4084 14.0667 19.4457 13.8775 19.4457C13.6884 19.4457 13.501 19.4084 13.3263 19.3359C13.1516 19.2634 12.9928 19.1572 12.8592 19.0233L7.67365 13.8377C7.40358 13.5676 7.25185 13.2013 7.25185 12.8194C7.25185 12.4374 7.40358 12.0711 7.67365 11.8011C7.94373 11.531 8.31004 11.3792 8.69199 11.3792C9.07394 11.3792 9.44024 11.531 9.71032 11.8011L12.4403 14.5166V1.99327C12.4403 1.19883 13.0903 0.548828 13.8848 0.548828C14.6792 0.548828 15.3292 1.19883 15.3292 1.99327V14.5166Z" fill="#1B1B1B"/>
</svg>
