<svg width="22" height="20" viewBox="0 0 22 20" fill="none" xmlns="http://www.w3.org/2000/svg">
<path d="M10.667 0.589844C16.467 0.589844 21.168 4.25384 21.168 8.77484C21.168 13.2948 16.467 16.9588 10.668 16.9588C10.0906 16.9578 9.51382 16.9211 8.94097 16.8488L4.53297 19.7318C4.03197 19.9968 3.85497 19.9678 4.06097 19.3188L4.95297 15.6408C2.07297 14.1808 0.167969 11.6508 0.167969 8.77484C0.167969 4.25484 4.86797 0.589844 10.668 0.589844M16.576 8.64984L18.046 7.22584C18.1308 7.13775 18.1781 7.02018 18.178 6.89789C18.1778 6.7756 18.1302 6.65814 18.0452 6.57025C17.9601 6.48237 17.8443 6.43091 17.7221 6.42673C17.5999 6.42255 17.4808 6.46597 17.39 6.54784L15.462 8.41384V6.87184C15.462 6.74666 15.4122 6.62661 15.3237 6.53809C15.2352 6.44957 15.1152 6.39984 14.99 6.39984C14.8648 6.39984 14.7447 6.44957 14.6562 6.53809C14.5677 6.62661 14.518 6.74666 14.518 6.87184V9.42884C14.5013 9.50191 14.5013 9.57778 14.518 9.65084V11.0898C14.518 11.215 14.5677 11.3351 14.6562 11.4236C14.7447 11.5121 14.8648 11.5618 14.99 11.5618C15.1152 11.5618 15.2352 11.5121 15.3237 11.4236C15.4122 11.3351 15.462 11.215 15.462 11.0898V9.72684L15.889 9.31384L17.317 11.3468C17.3526 11.3976 17.3979 11.4408 17.4503 11.4741C17.5027 11.5073 17.5611 11.5299 17.6222 11.5406C17.6833 11.5513 17.7459 11.5498 17.8064 11.5363C17.8669 11.5228 17.9242 11.4975 17.975 11.4618C18.0257 11.4262 18.069 11.3809 18.1022 11.3285C18.1355 11.2762 18.1581 11.2178 18.1687 11.1567C18.1794 11.0956 18.178 11.033 18.1644 10.9724C18.1509 10.9119 18.1256 10.8546 18.09 10.8038L16.576 8.64984ZM13.618 10.5738H12.158V6.88684C12.1524 6.76555 12.1003 6.65108 12.0125 6.56722C11.9246 6.48336 11.8079 6.43656 11.6865 6.43656C11.565 6.43656 11.4483 6.48336 11.3605 6.56722C11.2727 6.65108 11.2206 6.76555 11.215 6.88684V11.0458C11.215 11.3058 11.425 11.5178 11.686 11.5178H13.618C13.7432 11.5178 13.8632 11.4681 13.9517 11.3796C14.0402 11.2911 14.09 11.171 14.09 11.0458C14.09 10.9207 14.0402 10.8006 13.9517 10.7121C13.8632 10.6236 13.7432 10.5738 13.618 10.5738ZM7.76097 9.48284L8.45697 7.77484L9.09497 9.48184L7.76097 9.48284ZM10.284 9.96984L10.286 9.95384C10.2856 9.83495 10.2403 9.72061 10.159 9.63384L9.11297 6.83384C9.06912 6.70041 8.9856 6.58354 8.87356 6.49884C8.76152 6.41414 8.6263 6.36565 8.48597 6.35984C8.34474 6.35978 8.20679 6.40244 8.09024 6.48221C7.9737 6.56199 7.88401 6.67516 7.83297 6.80684L6.17097 10.8818C6.12363 10.9977 6.12427 11.1277 6.17274 11.2431C6.22122 11.3586 6.31357 11.45 6.42947 11.4973C6.54537 11.5447 6.67533 11.544 6.79076 11.4956C6.90618 11.4471 6.99763 11.3547 7.04497 11.2388L7.37697 10.4258H9.44697L9.74497 11.2258C9.7653 11.2856 9.79742 11.3408 9.83943 11.3879C9.88145 11.4351 9.9325 11.4733 9.98957 11.5004C10.0466 11.5275 10.1085 11.5428 10.1716 11.5455C10.2348 11.5482 10.2978 11.5382 10.3569 11.5161C10.4161 11.494 10.4702 11.4603 10.5161 11.4169C10.562 11.3735 10.5987 11.3213 10.6241 11.2635C10.6495 11.2057 10.663 11.1433 10.6638 11.0802C10.6646 11.017 10.6528 10.9543 10.629 10.8958L10.284 9.96984ZM6.96097 6.89184C6.96123 6.82987 6.94924 6.76846 6.92567 6.71114C6.90211 6.65382 6.86744 6.60172 6.82367 6.55785C6.77989 6.51399 6.72787 6.47921 6.6706 6.45552C6.61333 6.43184 6.55194 6.41971 6.48997 6.41984H3.24497C3.11979 6.41984 2.99973 6.46957 2.91121 6.55809C2.8227 6.64661 2.77297 6.76666 2.77297 6.89184C2.77297 7.01703 2.8227 7.13708 2.91121 7.2256C2.99973 7.31412 3.11979 7.36384 3.24497 7.36384H4.40497V11.0998C4.40497 11.225 4.4547 11.3451 4.54321 11.4336C4.63173 11.5221 4.75179 11.5718 4.87697 11.5718C5.00215 11.5718 5.12221 11.5221 5.21072 11.4336C5.29924 11.3451 5.34897 11.225 5.34897 11.0998V7.36384H6.48897C6.55103 7.36411 6.61252 7.35208 6.66991 7.32845C6.72729 7.30483 6.77943 7.27007 6.82331 7.22619C6.8672 7.18231 6.90195 7.13017 6.92558 7.07278C6.9492 7.0154 6.96123 6.9539 6.96097 6.89184Z" fill="white"/>
</svg>
