<svg width="254" height="35" viewBox="0 0 254 35" fill="none" xmlns="http://www.w3.org/2000/svg">
<path d="M46.0194 16.5176C46.0194 22.6321 45.8775 31.5688 45.8775 31.5688C45.8775 31.5688 45.8775 32.5244 45.4968 32.9051C45.1608 33.2411 44.3022 33.2411 44.3022 33.2411C44.3022 33.2411 40.9128 33.5248 38.7103 33.5248C36.5079 33.5248 32.9318 33.2859 32.9318 33.2859C32.9318 33.2859 31.3042 33.2859 30.9235 33.0022C30.4457 32.6214 30.4905 31.7106 30.4905 31.7106V28.0822C30.4905 28.0822 30.6323 26.8429 29.9156 26.5069C29.1989 26.1709 28.6763 26.9399 28.1984 27.5596L23.7563 33.4352C23.7563 33.4352 22.6588 34.9657 21.6509 34.9657C20.643 34.9657 19.5978 33.5323 19.5978 33.5323C17.6418 30.5683 16.7757 29.1872 15.5812 27.2759C15.4841 27.037 15.0063 26.4621 14.2896 26.4621C13.5281 26.4621 13.6699 27.7015 13.6699 27.7015L13.7147 31.718C13.7147 31.718 13.8118 32.4796 13.3788 32.8678C12.8039 33.3456 11.4227 33.3008 11.4227 33.3008C11.4227 33.3008 8.74995 33.4426 7.02535 33.4426C5.11409 33.4426 2.10536 33.2486 2.10536 33.2486C2.10536 33.2486 1.05268 33.2486 0.71672 32.9649C0.186646 32.5318 0.238907 31.6732 0.238907 31.6732C0.238907 31.6732 0 22.6396 0 16.8611C0 11.0825 0.141851 2.42959 0.141851 2.42959C0.141851 2.42959 0.0970557 1.37692 0.522608 0.951369C0.955626 0.51835 2.0531 0.518338 2.0531 0.518338C2.0531 0.518338 5.6815 0.324219 7.98097 0.324219C10.0863 0.324219 13.4236 0.518338 13.4236 0.518338C13.4236 0.518338 14.2373 0.660196 14.6181 0.899102C14.9989 1.13801 15.4319 1.80991 15.4319 1.80991C15.4319 1.80991 17.3879 4.43789 18.6347 6.11024C19.9263 7.82738 21.8376 10.5076 21.8376 10.5076C21.8376 10.5076 22.6513 11.6051 23.3681 11.6051C24.1296 11.6051 24.8985 10.3135 24.8985 10.3135C26.765 7.92444 29.0048 4.96049 31.1101 1.80991C31.1101 1.80991 31.685 0.996156 32.1628 0.75725C32.6406 0.518343 33.4544 0.518338 33.4544 0.518338C33.4544 0.518338 36.702 0.421278 38.8074 0.421278C40.5245 0.421278 43.2496 0.518338 43.2496 0.518338C43.2496 0.518338 44.7278 0.563145 45.3549 1.13801C45.9298 1.66062 45.8775 2.90741 45.8775 2.90741C45.8775 2.90741 46.0194 11.2243 46.0194 16.5251V16.5176Z" fill="#1B1B1B"/>
<path d="M87.7306 16.5197C87.7306 26.7927 78.1296 34.0047 67.8566 34.0047C57.5836 34.0047 48.0273 26.6957 48.0273 16.6616C48.0273 6.6275 58.3451 0.0351562 68.5733 0.0351562C78.2714 0.0351562 87.7306 6.67976 87.7306 16.5197ZM72.351 16.8109C72.351 14.4218 70.3427 12.6524 67.9089 12.6524C65.475 12.6524 63.6085 14.5637 63.6085 16.9528C63.6085 19.2 65.6616 20.8201 67.9089 20.8201C70.1561 20.8201 72.351 19.1477 72.351 16.8034V16.8109Z" fill="#1B1B1B"/>
<path d="M123.956 32.2854C123.762 32.6662 123.142 32.9574 122.858 33.0022C122.858 33.0022 118.894 33.8607 116.744 34.1519C114.788 34.3908 110.196 34.8238 110.196 34.7716C109.48 34.8686 108.957 34.8164 108.621 34.5775C107.763 33.9055 107.904 32.3303 107.188 31.7106C106.852 31.4269 106.426 31.5165 106.426 31.5165C106.426 31.5165 104.799 31.8525 103.365 31.8525C102.215 31.8525 100.737 31.4717 100.737 31.4717C100.737 31.4717 100.259 31.3746 99.8786 31.6135C99.259 32.0466 99.3038 33.9055 98.7811 34.3385C98.3481 34.6745 97.6314 34.5775 97.6314 34.5775C97.6314 34.5775 94.5704 34.3833 92.9503 34.1967C91.1809 33.9578 88.4559 33.48 88.4559 33.48C88.4559 33.48 87.5003 33.3381 87.2166 33.0022C86.8358 32.5692 86.8358 32.0914 87.0225 31.4269C87.0225 31.4269 89.4563 22.1095 91.278 16.2339C93.1444 10.2612 96.0561 2.47438 96.0561 2.42959C96.295 1.80992 96.4369 1.23506 96.9147 0.899102C97.3925 0.56314 97.9674 0.518338 98.5422 0.518338C98.5422 0.518338 103.126 0.324219 105.135 0.324219C107.143 0.324219 111.682 0.518338 111.682 0.518338C112.302 0.518338 112.735 0.51835 113.213 0.951369C113.593 1.28733 113.974 2.24294 113.974 2.24294C113.974 2.24294 117.319 9.41013 119.566 15.8083C121.813 22.214 123.866 30.5683 123.866 30.5683C123.866 30.5683 124.247 31.621 123.963 32.2854H123.956ZM105.515 24.4986C105.754 24.1178 105.657 23.6848 105.321 22.8262L103.933 19.3845C103.694 18.7648 103.358 17.9062 102.693 17.9062C102.029 17.9062 101.693 18.8171 101.499 19.5786L100.543 23.0204C100.349 23.64 100.349 24.1701 100.543 24.4986C100.924 25.1705 102.41 25.2153 103.029 25.2153C103.604 25.2153 105.135 25.1182 105.515 24.4986Z" fill="#1B1B1B"/>
<path d="M175.101 16.5176C175.101 22.6321 174.96 31.5688 174.96 31.5688C174.96 31.5688 174.96 32.5244 174.579 32.9051C174.243 33.2411 173.384 33.2411 173.384 33.2411C173.384 33.2411 169.995 33.5248 167.792 33.5248C165.59 33.5248 162.014 33.2859 162.014 33.2859C162.014 33.2859 160.386 33.2859 160.006 33.0022C159.528 32.6214 159.572 31.7106 159.572 31.7106V28.0822C159.572 28.0822 159.714 26.8429 158.998 26.5069C158.281 26.1709 157.758 26.9399 157.28 27.5596L152.838 33.4352C152.838 33.4352 151.741 34.9657 150.733 34.9657C149.725 34.9657 148.68 33.5323 148.68 33.5323C146.724 30.5683 145.858 29.1872 144.663 27.2759C144.566 27.037 144.088 26.4621 143.372 26.4621C142.61 26.4621 142.752 27.7015 142.752 27.7015L142.797 31.718C142.797 31.718 142.894 32.4796 142.461 32.8678C141.886 33.3456 140.505 33.3008 140.505 33.3008C140.505 33.3008 137.832 33.4426 136.107 33.4426C134.196 33.4426 131.187 33.2486 131.187 33.2486C131.187 33.2486 130.135 33.2486 129.799 32.9649C129.269 32.5318 129.321 31.6732 129.321 31.6732C129.321 31.6732 129.082 22.6396 129.082 16.8611C129.082 11.0825 129.224 2.42959 129.224 2.42959C129.224 2.42959 129.179 1.37692 129.605 0.951369C130.038 0.51835 131.135 0.518338 131.135 0.518338C131.135 0.518338 134.764 0.324219 137.063 0.324219C139.168 0.324219 142.506 0.518338 142.506 0.518338C142.506 0.518338 143.319 0.660196 143.7 0.899102C144.081 1.13801 144.514 1.80991 144.514 1.80991C144.514 1.80991 146.47 4.43789 147.717 6.11024C149.008 7.82738 150.92 10.5076 150.92 10.5076C150.92 10.5076 151.733 11.6051 152.45 11.6051C153.212 11.6051 153.981 10.3135 153.981 10.3135C155.847 7.92444 158.087 4.96049 160.192 1.80991C160.192 1.80991 160.767 0.996156 161.245 0.75725C161.723 0.518343 162.536 0.518338 162.536 0.518338C162.536 0.518338 165.784 0.421278 167.889 0.421278C169.607 0.421278 172.332 0.518338 172.332 0.518338C172.332 0.518338 173.81 0.563145 174.437 1.13801C175.012 1.66062 174.96 2.90741 174.96 2.90741C174.96 2.90741 175.101 11.2243 175.101 16.5251V16.5176Z" fill="#1B1B1B"/>
<path d="M216.813 16.5197C216.813 26.7927 207.212 34.0047 196.939 34.0047C186.666 34.0047 177.109 26.6957 177.109 16.6616C177.109 6.6275 187.427 0.0351562 197.655 0.0351562C207.353 0.0351562 216.813 6.67976 216.813 16.5197ZM201.433 16.8109C201.433 14.4218 199.425 12.6524 196.991 12.6524C194.557 12.6524 192.691 14.5637 192.691 16.9528C192.691 19.2 194.744 20.8201 196.991 20.8201C199.238 20.8201 201.433 19.1477 201.433 16.8034V16.8109Z" fill="#1B1B1B"/>
<path d="M253.038 32.2854C252.844 32.6662 252.224 32.9574 251.94 33.0022C251.94 33.0022 247.976 33.8607 245.826 34.1519C243.87 34.3908 239.278 34.8238 239.278 34.7716C238.562 34.8686 238.039 34.8164 237.703 34.5775C236.845 33.9055 236.986 32.3303 236.27 31.7106C235.934 31.4269 235.508 31.5165 235.508 31.5165C235.508 31.5165 233.881 31.8525 232.447 31.8525C231.297 31.8525 229.819 31.4717 229.819 31.4717C229.819 31.4717 229.341 31.3746 228.961 31.6135C228.341 32.0466 228.386 33.9055 227.863 34.3385C227.43 34.6745 226.713 34.5775 226.713 34.5775C226.713 34.5775 223.652 34.3833 222.032 34.1967C220.263 33.9578 217.538 33.48 217.538 33.48C217.538 33.48 216.582 33.3381 216.299 33.0022C215.918 32.5692 215.918 32.0914 216.104 31.4269C216.104 31.4269 218.538 22.1095 220.36 16.2339C222.226 10.2612 225.138 2.47438 225.138 2.42959C225.377 1.80992 225.519 1.23506 225.997 0.899102C226.475 0.56314 227.049 0.518338 227.624 0.518338C227.624 0.518338 232.208 0.324219 234.217 0.324219C236.225 0.324219 240.764 0.518338 240.764 0.518338C241.384 0.518338 241.817 0.51835 242.295 0.951369C242.675 1.28733 243.056 2.24294 243.056 2.24294C243.056 2.24294 246.401 9.41013 248.648 15.8083C250.895 22.214 252.948 30.5683 252.948 30.5683C252.948 30.5683 253.329 31.621 253.045 32.2854H253.038ZM234.597 24.4986C234.836 24.1178 234.739 23.6848 234.403 22.8262L233.015 19.3845C232.776 18.7648 232.44 17.9062 231.775 17.9062C231.111 17.9062 230.775 18.8171 230.581 19.5786L229.625 23.0204C229.431 23.64 229.431 24.1701 229.625 24.4986C230.006 25.1705 231.492 25.2153 232.111 25.2153C232.686 25.2153 234.217 25.1182 234.597 24.4986Z" fill="#1B1B1B"/>
</svg>
