<svg width="57" height="57" viewBox="0 0 57 57" fill="none" xmlns="http://www.w3.org/2000/svg">
<path d="M25.7939 39.7461H30.4835V30.394H39.8628V25.718H30.4835V16.3659H25.7939V25.718H16.4146V30.394H25.7939V39.7461ZM28.1387 51.4362C24.895 51.4362 21.8468 50.8322 18.9939 49.6242C16.141 48.3773 13.6594 46.7017 11.5491 44.5975C9.43871 42.4932 7.75825 40.0188 6.50767 37.1743C5.29618 34.3297 4.69043 31.2902 4.69043 28.056C4.69043 24.8217 5.29618 21.7823 6.50767 18.9377C7.75825 16.0931 9.43871 13.6187 11.5491 11.5145C13.6594 9.41027 16.141 7.75417 18.9939 6.5462C21.8468 5.29925 24.895 4.67578 28.1387 4.67578C31.3824 4.67578 34.4307 5.29925 37.2835 6.5462C40.1364 7.75417 42.618 9.41027 44.7284 11.5145C46.8387 13.6187 48.4996 16.0931 49.7111 18.9377C50.9617 21.7823 51.587 24.8217 51.587 28.056C51.587 31.2902 50.9617 34.3297 49.7111 37.1743C48.4996 40.0188 46.8387 42.4932 44.7284 44.5975C42.618 46.7017 40.1364 48.3773 37.2835 49.6242C34.4307 50.8322 31.3824 51.4362 28.1387 51.4362ZM28.1387 46.7601C33.3755 46.7601 37.8111 44.9482 41.4456 41.3242C45.0801 37.7003 46.8973 33.2776 46.8973 28.056C46.8973 22.8344 45.0801 18.4116 41.4456 14.7877C37.8111 11.1638 33.3755 9.35182 28.1387 9.35182C22.9019 9.35182 18.4663 11.1638 14.8318 14.7877C11.1973 18.4116 9.38009 22.8344 9.38009 28.056C9.38009 33.2776 11.1973 37.7003 14.8318 41.3242C18.4663 44.9482 22.9019 46.7601 28.1387 46.7601Z" fill="#1B1B1B" fill-opacity="0.74"/>
</svg>
