<svg width="21" height="20" viewBox="0 0 21 20" fill="none" xmlns="http://www.w3.org/2000/svg">
<path d="M1.33621 10.6212C1.33621 10.6212 1.30225 10.5155 1.31734 10.5118C1.32866 10.5118 1.54371 10.5533 1.55126 10.5533C1.56635 10.5533 1.5173 10.4439 1.53239 10.4439C1.54371 10.4439 1.75876 10.4891 1.77007 10.4854C1.78517 10.4854 1.73612 10.3759 1.75121 10.3722C1.76253 10.3722 1.9738 10.4061 1.98512 10.4061C2.00021 10.4061 1.97003 10.4024 1.98512 10.3986C1.99644 10.3986 2.19639 10.3495 2.20771 10.3495C2.2228 10.3495 2.17375 10.2364 2.18884 10.2364C2.20016 10.2364 2.41521 10.2854 2.42653 10.2854C2.44162 10.2854 2.39257 10.1722 2.40766 10.1684C2.41898 10.1684 2.63403 10.2175 2.64534 10.2175C2.66044 10.2175 2.61139 10.1005 2.62648 10.1005C2.6378 10.1005 2.85285 10.1534 2.86416 10.1496C2.87925 10.1496 2.83021 10.0326 2.8453 10.0289C2.85662 10.0289 3.07166 10.0817 3.08298 10.0817C3.09807 10.0817 3.04903 9.96094 3.06412 9.96094C3.07544 9.96094 3.29048 10.0175 3.3018 10.0138C3.31689 10.0138 3.26785 9.89303 3.28294 9.88926C3.29425 9.88926 3.5093 9.94585 3.52062 9.94585C3.53571 9.94585 3.48666 9.82512 3.50176 9.82135C3.51307 9.82135 3.72811 9.88172 3.73943 9.87794C3.75452 9.87794 3.70548 9.75344 3.72057 9.75344C3.73189 9.75344 3.94693 9.81381 3.95825 9.81003C3.97334 9.81003 3.92053 9.68553 3.93939 9.68176C3.95071 9.68176 4.16575 9.74213 4.17707 9.74213C4.19216 9.74213 4.13934 9.61385 4.15821 9.61385C4.16952 9.61385 4.38457 9.67799 4.39589 9.67422C4.41098 9.67422 4.35816 9.54594 4.37325 9.54217C4.38457 9.54217 4.59962 9.60631 4.61094 9.60631C4.62603 9.60631 4.57321 9.47803 4.5883 9.47426C4.59961 9.47426 4.81843 9.54217 4.82598 9.5384C4.84107 9.5384 4.78825 9.40635 4.80334 9.40258C4.81466 9.40258 5.01839 9.38372 5.02971 9.38372C5.07121 9.37617 4.93916 9.0819 4.98066 9.07812" stroke="#1B1B1B" stroke-width="1.41317" stroke-linecap="round" stroke-linejoin="round"/>
<path d="M2.36948 4.52521C2.39589 4.52143 2.3393 4.51766 2.36948 4.51389C2.39212 4.51389 2.64489 4.95153 2.66752 4.94775C2.72789 4.93643 2.47512 4.14039 2.53925 4.13284C2.60339 4.1253 2.92029 5.50989 2.98443 5.49857C3.02593 5.49103 2.89389 5.19675 2.93539 5.18921C2.99198 5.18166 3.29757 6.40402 3.35416 6.39271C3.39566 6.38516 3.22211 5.83812 3.26739 5.83434C3.31643 5.8268 3.60694 6.84543 3.65598 6.83789C3.69748 6.83034 3.55411 6.47948 3.59939 6.47193C3.64466 6.46439 3.92761 7.37739 3.96911 7.36984C4.01061 7.3623 3.84839 6.89448 3.89366 6.89071C3.95025 6.88316 4.25962 8.11307 4.31621 8.10553C4.35771 8.09798 4.19548 7.63393 4.24075 7.62639C4.28602 7.61884 4.5652 8.48657 4.6067 8.47903C4.6482 8.47148 4.51616 8.18475 4.55766 8.17721" stroke="#1B1B1B" stroke-width="1.41317" stroke-linecap="round" stroke-linejoin="round"/>
<path d="M2.65617 4.19927C2.65617 4.19927 2.62599 4.09364 2.63731 4.08986C2.64862 4.08986 2.87499 4.22568 2.88631 4.22191C2.9014 4.22191 2.84858 4.09364 2.86744 4.08986C2.88253 4.08986 3.11267 4.2785 3.12776 4.27473C3.14285 4.27473 3.09003 4.14645 3.10513 4.14268C3.12022 4.14268 3.35035 4.33132 3.36544 4.33132C3.38054 4.33132 3.32772 4.19927 3.34281 4.19927C3.3579 4.19927 3.58803 4.39168 3.60312 4.38791C3.61821 4.38791 3.5654 4.25586 3.58049 4.25209C3.59558 4.25209 3.82571 4.4445 3.84081 4.44073C3.8559 4.44073 3.80308 4.30491 3.81817 4.30491C3.83326 4.30491 4.0634 4.49732 4.07849 4.49732C4.09358 4.49732 4.04076 4.3615 4.05585 4.35773C4.07094 4.35773 4.30108 4.55391 4.31617 4.55014C4.33126 4.55014 4.27844 4.41432 4.29353 4.41055C4.30862 4.41055 4.53876 4.60673 4.55385 4.60673C4.56894 4.60673 4.51612 4.46714 4.53122 4.46714C4.54631 4.46714 4.77267 4.64068 4.78776 4.64068C4.80285 4.64068 4.75381 4.5275 4.7689 4.5275C4.78399 4.5275 5.01413 4.72368 5.02922 4.71991C5.04431 4.71991 4.99149 4.57654 5.00658 4.57654C5.02167 4.57654 5.25181 4.7765 5.2669 4.7765C5.28199 4.7765 5.2254 4.63314 5.24426 4.62936C5.25558 4.62936 5.4744 4.71991 5.48572 4.71614C5.50081 4.71614 5.46308 4.68973 5.48194 4.68973C5.49704 4.68973 5.72717 4.88968 5.74226 4.88591C5.75735 4.88591 5.70076 4.73877 5.71962 4.73877C5.73471 4.73877 5.96485 4.94627 5.97994 4.9425C5.99503 4.9425 5.93844 4.79536 5.95731 4.79159C5.9724 4.79159 6.20253 4.99909 6.21763 4.99532C6.23272 4.99532 6.17613 4.84441 6.19499 4.84441C6.21008 4.84441 6.44022 5.05191 6.45531 5.05191C6.4704 5.05191 6.4138 4.901 6.43267 4.89723C6.44776 4.89723 6.68167 5.1085 6.69299 5.10473C6.71185 5.10473 6.65149 4.95382 6.67035 4.95004C6.68544 4.95004 6.91935 5.16132 6.93444 5.16132C6.9533 5.16132 6.89294 5.00664 6.90803 5.00664C6.91935 5.00664 7.10422 4.87082 7.11554 4.86704C7.16081 4.8595 7.02499 4.59918 7.07026 4.59164C7.08535 4.59164 7.23626 4.28604 7.25135 4.28604C7.30417 4.2785 7.08535 3.573 7.13817 3.56545C7.14949 3.56545 7.33435 3.43341 7.34567 3.43341C7.39849 3.42586 7.2174 2.94673 7.26644 2.93541C7.28153 2.93541 7.44376 2.70527 7.45885 2.7015C7.51167 2.69395 7.28908 1.97336 7.3419 1.96582C7.35321 1.96582 7.5494 1.90168 7.56071 1.89791C7.60976 1.89036 7.41358 1.27541 7.45885 1.26786C7.47017 1.26786 7.68522 1.30936 7.69276 1.30936C7.7154 1.30936 7.6324 1.05659 7.65126 1.05282C7.66258 1.05282 7.8814 1.12073 7.89272 1.12073C7.90781 1.12073 7.85876 1.00377 7.87385 1C7.89272 1 8.1304 1.28673 8.14926 1.28673C8.17567 1.28295 8.11531 1.26032 8.14549 1.25655C8.16813 1.25655 8.4209 1.69795 8.44353 1.69418C8.47371 1.69041 8.39449 1.59232 8.42467 1.58477C8.44354 1.58477 8.69253 1.95073 8.7114 1.94695C8.74158 1.94318 8.67367 1.90923 8.70385 1.90168C8.73026 1.89791 8.98303 2.39591 9.00944 2.38836C9.03962 2.38459 8.95285 2.24123 8.98681 2.23745C9.02076 2.23368 9.28485 2.88259 9.31881 2.87882C9.35276 2.87505 9.24712 2.62227 9.27731 2.6185C9.30372 2.61473 9.56403 3.15045 9.59044 3.14291C9.6244 3.13914 9.55271 3.12027 9.58667 3.11273C9.6093 3.11273 9.86208 3.55791 9.88472 3.55414C9.91867 3.55036 9.8319 3.43341 9.86585 3.42964C9.89226 3.42586 10.145 3.91254 10.1714 3.90877C10.2054 3.905 10.1375 3.90123 10.1714 3.89368C10.1979 3.88991 10.4544 4.403 10.4808 4.39923C10.5148 4.39545 10.3903 4.04836 10.4242 4.04082C10.4544 4.03704 10.7185 4.64823 10.7487 4.64445C10.7788 4.64068 10.7109 4.59164 10.7411 4.58786C10.7524 4.58786 10.975 4.6935 10.9864 4.68973C11.0052 4.68973 10.9411 4.52373 10.9599 4.51995C10.9713 4.51995 11.1788 4.50864 11.1863 4.50486C11.2052 4.50486 11.141 4.33886 11.1599 4.33509C11.1712 4.33509 11.3787 4.32377 11.3863 4.32C11.4051 4.32 11.341 4.154 11.3599 4.15023C11.3712 4.15023 11.5787 4.13891 11.5862 4.13514C11.6051 4.13514 11.5409 3.96914 11.5598 3.96536C11.5711 3.96536 11.7786 3.95405 11.7862 3.95027C11.805 3.95027 11.7409 3.78427 11.7598 3.7805C11.7711 3.7805 11.9786 3.76918 11.9861 3.76541C12.005 3.76541 11.9409 3.59941 11.9597 3.59564C11.971 3.59564 12.1785 3.58432 12.1861 3.58054C12.2049 3.58054 12.1408 3.41455 12.1597 3.41077C12.171 3.41077 12.3785 3.39945 12.386 3.39568C12.4049 3.39568 12.3408 3.22968 12.3596 3.22591C12.3709 3.22591 12.5784 3.21459 12.586 3.21082C12.6049 3.21082 12.5407 3.04482 12.5596 3.04105C12.5709 3.04105 12.7784 3.02973 12.7859 3.02595C12.8048 3.02595 12.7407 2.85995 12.7595 2.85618C12.7709 2.85618 12.9784 2.84486 12.9859 2.84109C13.0048 2.84109 12.9406 2.67509 12.9595 2.67132C12.9708 2.67132 13.1783 2.66 13.1859 2.65623C13.2047 2.65623 13.1406 2.49023 13.1594 2.48645C13.1708 2.48645 13.3783 2.47514 13.3858 2.47136C13.4047 2.47136 13.3405 2.30536 13.3594 2.30159C13.3707 2.30159 13.5744 2.27895 13.5858 2.27895C13.6046 2.27895 13.548 2.162 13.5669 2.15823C13.5782 2.15823 13.7555 1.98091 13.7668 1.97714C13.7857 1.97714 13.748 1.96205 13.7668 1.95827C13.7782 1.95827 13.9819 1.92432 13.9894 1.92432C14.0083 1.92432 13.9442 1.75832 13.963 1.75455C13.9744 1.75455 14.1819 1.74323 14.1894 1.73945C14.2083 1.73945 14.1441 1.57345 14.163 1.56968C14.1743 1.56968 14.378 1.55836 14.3894 1.55459C14.4044 1.55459 14.3516 1.41877 14.3667 1.415" stroke="#1B1B1B" stroke-width="1.41317" stroke-linecap="round" stroke-linejoin="round"/>
<path d="M14.4049 5.35626C14.4577 5.34872 14.2917 4.98653 14.3445 4.97899C14.3596 4.97899 14.5067 4.65831 14.5218 4.65831C14.5746 4.65076 14.4011 4.24708 14.4539 4.23953C14.4652 4.23953 14.635 4.02072 14.6463 4.02072C14.6991 4.01317 14.503 3.45481 14.5558 3.44726C14.5671 3.44726 14.7406 3.24353 14.752 3.23976C14.8048 3.23222 14.6011 2.63235 14.6539 2.62481C14.669 2.62481 14.8161 2.31167 14.835 2.3079C14.8991 2.29658 14.6463 1.52694 14.7105 1.51562" stroke="#1B1B1B" stroke-width="1.41317" stroke-linecap="round" stroke-linejoin="round"/>
<path d="M14.1325 6.1629C14.1551 6.1629 14.1023 6.11762 14.1249 6.11385C14.14 6.11385 14.3701 6.31758 14.3852 6.31758C14.4418 6.31003 14.2004 5.52908 14.2607 5.52153C14.3022 5.51399 14.5814 6.37417 14.6229 6.36662C14.638 6.36662 14.589 6.24967 14.604 6.2459C14.6154 6.2459 14.8455 6.40058 14.8568 6.40058C14.8719 6.40058 14.8229 6.28362 14.838 6.27985C14.8493 6.27985 15.0794 6.43453 15.0907 6.43453C15.1058 6.43453 15.0568 6.31758 15.0719 6.31381C15.0832 6.31381 15.3133 6.46849 15.3246 6.46849C15.3397 6.46849 15.2907 6.35153 15.3058 6.34776C15.3171 6.34776 15.5472 6.50244 15.5585 6.50244C15.5736 6.50244 15.5246 6.38549 15.5397 6.38172C15.551 6.38172 15.7811 6.5364 15.7925 6.5364C15.8075 6.5364 15.7585 6.41944 15.7736 6.41567C15.7849 6.41567 16.015 6.57035 16.0264 6.57035C16.0415 6.57035 15.9924 6.4534 16.0075 6.44962C16.0188 6.44962 16.249 6.60431 16.2603 6.60431C16.2754 6.60431 16.2263 6.48735 16.2414 6.48358C16.2527 6.48358 16.4829 6.63826 16.4942 6.63826C16.5093 6.63826 16.4602 6.52131 16.4753 6.51753C16.4866 6.51753 16.7168 6.67222 16.7281 6.67222C16.7432 6.67222 16.6941 6.55526 16.7092 6.55149C16.7205 6.55149 16.9507 6.70617 16.962 6.70617C16.9771 6.70617 16.928 6.58922 16.9431 6.58544C16.9545 6.58544 17.1846 6.74012 17.1959 6.74012C17.211 6.74012 17.162 6.62317 17.177 6.6194C17.1884 6.6194 17.4185 6.77408 17.4298 6.77408C17.4449 6.77408 17.3959 6.65712 17.411 6.65335C17.4223 6.65335 17.6524 6.80803 17.6637 6.80803C17.6788 6.80803 17.6298 6.69108 17.6449 6.68731C17.6562 6.68731 17.8863 6.84199 17.8976 6.84199C17.9127 6.84199 17.8637 6.72503 17.8788 6.72126C17.8901 6.72126 18.1051 6.77408 18.1165 6.77408C18.1315 6.77408 18.1014 6.77408 18.1165 6.77031C18.1278 6.77031 18.3541 6.9099 18.3692 6.9099C18.3843 6.9099 18.3353 6.79294 18.3504 6.78917C18.3617 6.78917 18.5918 6.94385 18.6031 6.94385C18.6182 6.94385 18.5692 6.8269 18.5843 6.82312" stroke="#1B1B1B" stroke-width="1.41317" stroke-linecap="round" stroke-linejoin="round"/>
<path d="M17.1741 9.20457C17.1741 9.20457 17.1251 9.01216 17.144 9.00839C17.1553 9.00839 17.3666 9.02348 17.3741 9.01971C17.393 9.01971 17.3251 8.83107 17.3439 8.8273C17.3552 8.8273 17.5627 8.83862 17.5741 8.83862C17.5929 8.83862 17.525 8.65376 17.5439 8.64998C17.5552 8.64998 17.7627 8.65753 17.774 8.65753C17.7929 8.65753 17.725 8.47266 17.7438 8.47266C17.7551 8.47266 17.9626 8.47266 17.974 8.47266C17.9928 8.47266 17.9287 8.31798 17.9476 8.31421C17.9589 8.31421 18.1626 8.29912 18.1739 8.29535C18.1928 8.29535 18.1286 8.11803 18.1437 8.11426C18.1551 8.11426 18.3626 8.11426 18.3739 8.11426C18.3927 8.11426 18.3286 7.94071 18.3475 7.93694C18.3588 7.93694 18.5663 7.93694 18.5776 7.93316C18.5965 7.93316 18.5323 7.75962 18.5512 7.75962C18.5625 7.75962 18.77 7.75207 18.7776 7.75207C18.7964 7.75207 18.7323 7.5823 18.7511 7.57853C18.7625 7.57853 18.97 7.57098 18.9775 7.56721C18.9964 7.56721 18.9322 7.39366 18.9511 7.38989C18.9624 7.38989 19.1511 7.27671 19.1624 7.27671C19.1926 7.27294 19.1133 7.15221 19.1435 7.14844" stroke="#1B1B1B" stroke-width="1.41317" stroke-linecap="round" stroke-linejoin="round"/>
<path d="M16.7771 9.45029C16.7771 9.45029 16.7469 9.3522 16.762 9.3522C16.7734 9.3522 16.9846 9.38616 16.9959 9.38616C17.0299 9.38238 16.9507 9.32202 16.9846 9.31447C17.011 9.3107 17.2676 9.8087 17.2902 9.80493C17.3129 9.80493 17.2638 9.78607 17.2902 9.78229C17.3091 9.78229 17.5543 10.1445 17.5769 10.1407C17.5996 10.1407 17.509 9.85775 17.5317 9.85397C17.5581 9.8502 17.8109 10.318 17.8335 10.3142C17.8561 10.3142 17.7995 10.2501 17.8222 10.2463C17.841 10.2463 18.0863 10.601 18.1089 10.5972C18.1315 10.5972 18.041 10.3142 18.0636 10.3105C18.09 10.3067 18.3428 10.7783 18.3654 10.7745C18.3881 10.7745 18.3089 10.5595 18.3315 10.5557C18.3504 10.5557 18.5956 10.899 18.6144 10.8952C18.6371 10.8952 18.5805 10.8349 18.6031 10.8311C18.6258 10.8273 18.8785 11.2876 18.9049 11.2838C18.9276 11.2838 18.837 11.0009 18.8597 10.9971C18.8823 10.9971 19.1275 11.3744 19.1464 11.3706C19.169 11.3706 19.12 11.3517 19.1464 11.348C19.1728 11.3442 19.418 11.7441 19.4369 11.7441C19.4595 11.7441 19.369 11.4612 19.3916 11.4574C19.418 11.4536 19.6746 11.978 19.701 11.9742C19.7236 11.9742 19.6331 11.6913 19.6557 11.6875" stroke="#1B1B1B" stroke-width="1.41317" stroke-linecap="round" stroke-linejoin="round"/>
<path d="M8.5113 17.1214C8.65089 17.0987 7.99443 14.7785 8.1378 14.7559" stroke="#1B1B1B" stroke-width="1.41317" stroke-linecap="round" stroke-linejoin="round"/>
<path d="M8.44458 18.7921C8.51626 18.7808 8.18049 17.5811 8.25217 17.5698C8.31253 17.5622 8.6219 18.8299 8.67849 18.8186C8.88976 18.7846 7.79944 14.6421 8.01071 14.6082C8.21067 14.578 8.73508 19.0298 8.93503 18.9996C8.95012 18.9996 8.8973 18.8751 8.91617 18.8714C8.92748 18.8714 9.13121 18.8563 9.14253 18.8525C9.1614 18.8525 9.08594 18.6375 9.10858 18.6337C9.1199 18.6337 9.32362 18.6148 9.33494 18.6148C9.3538 18.6148 9.27835 18.396 9.30099 18.396C9.3123 18.396 9.51603 18.3771 9.52735 18.3771C9.54622 18.3771 9.47076 18.1583 9.49339 18.1583C9.50471 18.1583 9.70089 18.0942 9.71221 18.0942M9.71221 18.0942C9.69335 18.0942 9.73108 18.0942 9.71221 18.0942ZM9.71221 18.0942C9.7273 18.0942 9.87822 17.7886 9.89331 17.7848C9.91217 17.7848 9.85935 17.7094 9.88199 17.7056C9.89331 17.7056 10.0933 17.6641 10.1046 17.6641C10.1234 17.6641 10.048 17.4453 10.0706 17.4453C10.0819 17.4453 10.2857 17.4264 10.297 17.4264C10.3158 17.4264 10.2404 17.2076 10.263 17.2076C10.2744 17.2076 10.4781 17.1887 10.4894 17.1887C10.5083 17.1887 10.4328 16.9699 10.4554 16.9699C10.4668 16.9699 10.6705 16.9511 10.6818 16.9511C10.7007 16.9511 10.6252 16.7322 10.6479 16.7322C10.6592 16.7322 10.8629 16.7134 10.8742 16.7134C10.8931 16.7134 10.8176 16.4946 10.8403 16.4946C10.8516 16.4946 11.0553 16.4757 11.0666 16.4757C11.0855 16.4757 11.01 16.2569 11.0327 16.2569C11.044 16.2569 11.2477 16.238 11.259 16.238C11.2779 16.238 11.2024 16.0192 11.2251 16.0192C11.2364 16.0192 11.4175 15.8532 11.4288 15.8494C11.4477 15.8494 11.3986 15.7891 11.4175 15.7853C11.4288 15.7853 11.6514 15.8947 11.6627 15.8909C11.6853 15.8909 11.6023 15.6419 11.6212 15.6381C11.6401 15.6381 11.8853 15.989 11.9042 15.9852C11.9268 15.9852 11.8627 15.8796 11.8853 15.8758C11.9079 15.8721 12.1607 16.3135 12.1833 16.3097C12.206 16.3059 12.1154 16.023 12.1381 16.0192C12.1607 16.0154 12.4135 16.4493 12.4361 16.4455C12.4588 16.4417 12.3795 16.2456 12.4059 16.2418C12.4323 16.238 12.6851 16.7285 12.7115 16.7209C12.7342 16.7209 12.6436 16.438 12.6663 16.4342C12.6889 16.4342 12.9341 16.8266 12.9568 16.8228C12.9794 16.8228 12.9341 16.8152 12.9568 16.8115C12.9756 16.8115 13.2171 17.1359 13.2359 17.1321C13.2586 17.1321 13.168 16.8567 13.1907 16.853C13.2133 16.8492 13.4661 17.3019 13.4887 17.2981C13.5114 17.2981 13.451 17.1963 13.4736 17.1925C13.4849 17.1925 13.7113 17.3321 13.7264 17.3321C13.749 17.3321 13.7038 17.3246 13.7264 17.3208C13.749 17.317 14.0018 17.7584 14.0244 17.7546C14.0471 17.7509 13.9603 17.4868 13.9829 17.483C14.0094 17.4792 14.2621 17.9659 14.2885 17.9621C14.3112 17.9621 14.2244 17.6981 14.247 17.6943C14.2734 17.6905 14.5262 18.1734 14.5526 18.1696C14.5753 18.1696 14.4885 17.9056 14.5111 17.9018C14.5375 17.898 14.7903 18.3696 14.8129 18.3658C14.8356 18.3658 14.7526 18.1131 14.7714 18.1093C14.7903 18.1093 15.0318 18.4413 15.0544 18.4375C15.0695 18.4375 15.0204 18.3168 15.0355 18.313C15.0468 18.313 15.2657 18.3847 15.277 18.3809C15.3034 18.3771 15.2015 18.0602 15.2242 18.0565C15.2393 18.0565 15.4015 17.8112 15.4128 17.8075C15.492 17.7961 15.1978 16.9775 15.2808 16.9661C15.2921 16.9661 15.4958 16.9473 15.5071 16.9435C15.6014 16.9284 15.16 15.3741 15.2543 15.359C15.2694 15.359 15.4996 15.5401 15.5109 15.5363C15.6052 15.5212 15.1563 13.9065 15.2506 13.8914C15.2619 13.8914 15.4807 13.9781 15.492 13.9744C15.5373 13.9668 15.3638 13.4726 15.4128 13.4651C15.4241 13.4651 15.6279 13.4311 15.6354 13.4311C15.6505 13.4311 15.6014 13.3104 15.6165 13.3066C15.6279 13.3066 15.8504 13.4009 15.8618 13.3971C15.8768 13.3971 15.8278 13.2764 15.8429 13.2764C15.8542 13.2764 16.073 13.367 16.0881 13.367C16.1032 13.367 16.0542 13.25 16.0693 13.2462C16.0806 13.2462 16.2994 13.3368 16.3107 13.3368C16.3258 13.3368 16.2768 13.2198 16.2918 13.2161C16.3032 13.2161 16.522 13.3066 16.5333 13.3028C16.5484 13.3028 16.4993 13.1859 16.5144 13.1821C16.5258 13.1821 16.7446 13.2726 16.7559 13.2689C16.771 13.2689 16.7219 13.1519 16.737 13.1519C16.7484 13.1519 16.9672 13.2387 16.9785 13.2387C16.9936 13.2387 16.9445 13.1255 16.9596 13.1217C16.9709 13.1217 17.1898 13.2085 17.2011 13.2085C17.2162 13.2085 17.1671 13.0953 17.1822 13.0916C17.1935 13.0916 17.4123 13.1783 17.4237 13.1746C17.4388 13.1746 17.3897 13.0614 17.4048 13.0576C17.4161 13.0576 17.6349 13.1444 17.6463 13.1406C17.6613 13.1406 17.6123 13.0274 17.6274 13.0274C17.6387 13.0274 17.8575 13.1104 17.8689 13.1104C17.8839 13.1104 17.8349 12.9972 17.85 12.9972C17.8613 12.9972 18.0801 13.0802 18.0914 13.0802C18.1065 13.0802 18.0575 12.9708 18.0726 12.9671C18.0839 12.9671 18.3027 13.0501 18.314 13.0463C18.3291 13.0463 18.2801 12.9369 18.2952 12.9331C18.3065 12.9331 18.5253 13.0161 18.5366 13.0123C18.5517 13.0123 18.5027 12.9029 18.5178 12.9029C18.5291 12.9029 18.7479 12.9821 18.7592 12.9821C18.7743 12.9821 18.7253 12.8727 18.7404 12.8727C18.7517 12.8727 18.9705 12.952 18.9818 12.952C18.9969 12.952 18.9478 12.8463 18.9629 12.8426C18.9743 12.8426 19.1931 12.9218 19.2044 12.918C19.2195 12.918 19.1742 12.8124 19.1855 12.8086C19.1968 12.8086 19.4157 12.8878 19.427 12.8841C19.4421 12.8841 19.3968 12.7784 19.4081 12.7784C19.4194 12.7784 19.6383 12.8539 19.6496 12.8539C19.6647 12.8539 19.6194 12.7482 19.6345 12.7482C19.6458 12.7482 19.8646 12.8237 19.8759 12.8237C19.891 12.8237 19.8458 12.7218 19.8609 12.7181C19.8722 12.7181 20.0872 12.7784 20.0985 12.7784C20.1136 12.7784 20.0608 12.6388 20.0759 12.6388C20.0872 12.6388 20.2683 12.4804 20.2796 12.4804C20.3098 12.4766 20.2306 12.371 20.2608 12.3672" stroke="#1B1B1B" stroke-width="1.41317" stroke-linecap="round" stroke-linejoin="round"/>
<path d="M3.18796 16.4408C3.21437 16.437 3.11251 16.1201 3.13515 16.1163C3.14646 16.1163 3.36905 16.2258 3.38037 16.222C3.42564 16.2144 3.26341 15.773 3.30869 15.7655C3.34641 15.7579 3.62183 16.5502 3.65955 16.5464C3.67464 16.5464 3.6256 16.437 3.64069 16.437C3.65201 16.437 3.86328 16.4597 3.8746 16.4597C3.88969 16.4597 3.84065 16.3465 3.85574 16.3465C3.86706 16.3465 4.07833 16.3691 4.08964 16.3691C4.10474 16.3691 4.05569 16.2559 4.07078 16.2559C4.0821 16.2559 4.29337 16.2786 4.30469 16.2786C4.31978 16.2786 4.27074 16.1654 4.28583 16.1654C4.29715 16.1654 4.50087 16.1465 4.51219 16.1428C4.52728 16.1428 4.4971 16.1352 4.51219 16.1352C4.52351 16.1352 4.70837 15.9994 4.71969 15.9994C4.73478 15.9994 4.70083 15.9881 4.71969 15.9843C4.73101 15.9843 4.94228 16.0069 4.9536 16.0032C4.96869 16.0032 4.91965 15.89 4.93474 15.89C4.94606 15.89 5.15733 15.9126 5.16864 15.9126C5.18374 15.9126 5.13469 15.7994 5.14978 15.7994C5.1611 15.7994 5.37237 15.8221 5.38369 15.8221C5.39878 15.8221 5.34974 15.7089 5.36483 15.7089C5.37615 15.7089 5.58742 15.7315 5.59874 15.7315C5.61383 15.7315 5.56478 15.6183 5.57987 15.6183C5.59119 15.6183 5.80246 15.641 5.81378 15.641C5.82887 15.641 5.77983 15.5278 5.79492 15.5278C5.80624 15.5278 6.01751 15.5504 6.02883 15.5504C6.04392 15.5504 5.99487 15.4373 6.00996 15.4373C6.02128 15.4373 6.23255 15.4599 6.24387 15.4599C6.25896 15.4599 6.20992 15.3467 6.22501 15.3467C6.23633 15.3467 6.4476 15.3693 6.45892 15.3693C6.47401 15.3693 6.42496 15.2562 6.44005 15.2562C6.45137 15.2562 6.66265 15.2788 6.67396 15.2788C6.68906 15.2788 6.64001 15.1656 6.6551 15.1656C6.66642 15.1656 6.87769 15.1883 6.88901 15.1883C6.9041 15.1883 6.85505 15.0751 6.87014 15.0751C6.88146 15.0751 7.09274 15.0977 7.10406 15.0977C7.11915 15.0977 7.0701 14.9845 7.08519 14.9845C7.09651 14.9845 7.30778 15.0072 7.3191 15.0072C7.33419 15.0072 7.28514 14.894 7.30023 14.894C7.31155 14.894 7.52283 14.9166 7.53415 14.9166C7.54924 14.9166 7.50019 14.8034 7.51528 14.8034C7.5266 14.8034 7.73787 14.8261 7.74919 14.8261C7.76428 14.8261 7.71523 14.7129 7.73032 14.7129" stroke="#1B1B1B" stroke-width="1.41317" stroke-linecap="round" stroke-linejoin="round"/>
<path d="M3.43411 15.8458C3.46052 15.8421 3.37375 15.6232 3.39639 15.6195C3.40771 15.6195 3.61143 15.6006 3.62275 15.5968C3.64916 15.5931 3.53975 15.2497 3.56616 15.246C3.57748 15.246 3.78498 15.2497 3.7963 15.2497C3.8227 15.246 3.71329 14.8989 3.7397 14.8913C3.75102 14.8913 3.95852 14.8989 3.96984 14.8951C3.99625 14.8913 3.89061 14.5556 3.91702 14.5518C3.92834 14.5518 4.13584 14.5518 4.14716 14.5518C4.17357 14.548 4.06416 14.1896 4.09057 14.1858C4.10189 14.1858 4.29052 14.0651 4.30184 14.0651C4.32825 14.0613 4.24902 13.9142 4.2792 13.9104C4.29052 13.9104 4.48293 13.8161 4.49425 13.8123C4.52066 13.8086 4.46784 13.8123 4.49425 13.8048C4.51311 13.8048 4.64516 13.4313 4.66402 13.4313C4.70552 13.4237 4.58479 13.1898 4.62629 13.1861C4.63761 13.1861 4.82248 13.054 4.8338 13.0502C4.85266 13.0502 4.81116 13.0389 4.8338 13.0352" stroke="#1B1B1B" stroke-width="1.41317" stroke-linecap="round" stroke-linejoin="round"/>
<path d="M1.05613 11.0781C1.08254 11.0743 0.980673 10.7499 1.00331 10.7461C1.0184 10.7461 1.25608 10.9875 1.27118 10.9838C1.31268 10.9762 1.20704 10.8329 1.24476 10.8291C1.27117 10.8253 1.5315 11.3761 1.56168 11.3724C1.58054 11.3724 1.51263 11.1837 1.53149 11.18C1.55036 11.18 1.78804 11.4705 1.8069 11.4667C1.82577 11.4667 1.77295 11.3648 1.79181 11.361C1.81068 11.361 2.04836 11.6478 2.06722 11.644C2.08608 11.644 2.01817 11.4554 2.03704 11.4516C2.0559 11.4478 2.29736 11.7836 2.31622 11.7798C2.33509 11.776 2.26718 11.5912 2.28604 11.5874C2.3049 11.5836 2.54635 11.9194 2.56522 11.9156C2.58408 11.9119 2.51618 11.727 2.53504 11.7232C2.5539 11.7195 2.79536 12.0552 2.81422 12.0515C2.83308 12.0477 2.76517 11.8628 2.78404 11.859C2.8029 11.8553 3.04436 12.191 3.06322 12.1873C3.08208 12.1835 3.01417 11.9986 3.03304 11.9949C3.0519 11.9911 3.29336 12.3269 3.31222 12.3231C3.33109 12.3193 3.26318 12.1345 3.28204 12.1307C3.3009 12.1269 3.54236 12.4627 3.56122 12.4589C3.58009 12.4551 3.51218 12.2703 3.53104 12.2665C3.5499 12.2627 3.79136 12.5985 3.81022 12.5947C3.82908 12.591 3.76117 12.4061 3.78004 12.4023C3.7989 12.3985 4.04036 12.7343 4.05922 12.7305C4.07808 12.7268 4.01017 12.5419 4.02904 12.5381C4.0479 12.5344 4.28936 12.8701 4.30822 12.8664C4.32709 12.8626 4.25918 12.6777 4.27804 12.674" stroke="#1B1B1B" stroke-width="1.41317" stroke-linecap="round" stroke-linejoin="round"/>
<path d="M7 5L7.5 1.5L10.5 5L14.5 2L14 6.5L18.5 7L17 9.5L20 12.5L15.5 13.5L15 18L11.5 15.5L9 18L8 14.5L4 16L5 13.5L1.5 11L5 9L2.5 4.5L7 5Z" fill="#1B1B1B" stroke="#1B1B1B" stroke-linejoin="bevel"/>
</svg>
