<svg width="18" height="21" viewBox="0 0 18 21" fill="none" xmlns="http://www.w3.org/2000/svg">
<path fill-rule="evenodd" clip-rule="evenodd" d="M14.4533 3.0357e-07C13.9346 -0.000171477 13.4222 0.112025 12.9522 0.328674C12.4822 0.545324 12.0661 0.861149 11.7332 1.25387C11.4003 1.64659 11.1588 2.10664 11.0256 2.60156C10.8925 3.09649 10.871 3.61423 10.9626 4.11827L5.80285 7.68513L5.72867 7.74221C5.20522 7.33823 4.5773 7.0876 3.91654 7.0189C3.25578 6.9502 2.58876 7.0662 1.99154 7.35368C1.39433 7.64115 0.890959 8.08852 0.538833 8.64478C0.186708 9.20104 0 9.84379 0 10.4997C0 11.1557 0.186708 11.7985 0.538833 12.3547C0.890959 12.911 1.39433 13.3583 1.99154 13.6458C2.58876 13.9333 3.25578 14.0493 3.91654 13.9806C4.5773 13.9119 5.20522 13.6613 5.72867 13.2573L5.80285 13.3154L10.9626 16.8823C10.9262 17.0833 10.908 17.2894 10.908 17.5005C10.9082 18.3302 11.2069 19.133 11.7509 19.7655C12.2949 20.398 13.0489 20.8191 13.8782 20.9536C14.7076 21.0882 15.5584 20.9276 16.2789 20.5003C16.9993 20.073 17.5426 19.4069 17.8118 18.6208C18.081 17.8348 18.0585 16.9799 17.7484 16.2086C17.4384 15.4374 16.8608 14.8 16.1189 14.4101C15.377 14.0203 14.5189 13.9034 13.6977 14.0802C12.8765 14.2571 12.1457 14.7162 11.6356 15.3756L6.74971 11.9972C6.96788 11.5428 7.09005 11.0355 7.09005 10.4992C7.09005 9.96289 6.96788 9.45456 6.74971 9.00117L11.6367 5.62385C12.0026 6.09713 12.4848 6.47043 13.0377 6.70842C13.5905 6.94642 14.1957 7.04125 14.796 6.98394C15.3963 6.92663 15.9718 6.71908 16.4682 6.38092C16.9646 6.04276 17.3654 5.58517 17.6327 5.05143C17.9001 4.51769 18.025 3.92545 17.9958 3.33073C17.9667 2.73601 17.7843 2.15847 17.466 1.65274C17.1477 1.14701 16.7039 0.729815 16.1767 0.440609C15.6496 0.151403 15.0564 -0.00024765 14.4533 3.0357e-07ZM12.5443 3.5001C12.5443 3.00025 12.7454 2.52088 13.1034 2.16743C13.4614 1.81399 13.947 1.61543 14.4533 1.61543C14.9596 1.61543 15.4451 1.81399 15.8031 2.16743C16.1611 2.52088 16.3623 3.00025 16.3623 3.5001C16.3623 3.99994 16.1611 4.47931 15.8031 4.83276C15.4451 5.1862 14.9596 5.38476 14.4533 5.38476C13.947 5.38476 13.4614 5.1862 13.1034 4.83276C12.7454 4.47931 12.5443 3.99994 12.5443 3.5001ZM3.5448 8.61562C3.03851 8.61562 2.55295 8.81418 2.19495 9.16762C1.83694 9.52107 1.63582 10.0004 1.63582 10.5003C1.63582 11.0001 1.83694 11.4795 2.19495 11.8329C2.55295 12.1864 3.03851 12.385 3.5448 12.385C4.05109 12.385 4.53665 12.1864 4.89465 11.8329C5.25266 11.4795 5.45378 11.0001 5.45378 10.5003C5.45378 10.0004 5.25266 9.52107 4.89465 9.16762C4.53665 8.81418 4.05109 8.61562 3.5448 8.61562ZM14.4533 15.6158C13.947 15.6158 13.4614 15.8144 13.1034 16.1678C12.7454 16.5213 12.5443 17.0006 12.5443 17.5005C12.5443 18.0003 12.7454 18.4797 13.1034 18.8331C13.4614 19.1866 13.947 19.3851 14.4533 19.3851C14.9596 19.3851 15.4451 19.1866 15.8031 18.8331C16.1611 18.4797 16.3623 18.0003 16.3623 17.5005C16.3623 17.0006 16.1611 16.5213 15.8031 16.1678C15.4451 15.8144 14.9596 15.6158 14.4533 15.6158Z" fill="#F0F0F0"/>
</svg>
