<svg width="14" height="15" viewBox="0 0 14 15" fill="none" xmlns="http://www.w3.org/2000/svg">
<g id="logos:spotify-icon">
<path id="Vector" d="M7 0.5C3.13403 0.5 0 3.63409 0 7.5C0 11.3662 3.13409 14.5 7 14.5C10.8662 14.5 14 11.3662 14 7.5C14 3.63436 10.8662 0.500383 6.99989 0.500383L7 0.5ZM10.2101 10.5961C10.0847 10.8017 9.81553 10.8669 9.60991 10.7407C7.96638 9.73677 5.89745 9.50938 3.46084 10.0661C3.34801 10.0918 3.22959 10.0716 3.13163 10.01C3.03367 9.94841 2.96419 9.85042 2.93847 9.73759C2.92566 9.68174 2.92399 9.62391 2.93355 9.56742C2.94312 9.51092 2.96372 9.45686 2.9942 9.40834C3.02468 9.35982 3.06442 9.31778 3.11116 9.28463C3.1579 9.25148 3.21072 9.22788 3.26659 9.21516C5.93316 8.60595 8.22035 8.86823 10.0655 9.99588C10.2711 10.1221 10.3363 10.3905 10.2101 10.5961ZM11.0669 8.69005C10.9088 8.94681 10.5728 9.02791 10.3162 8.86992C8.43467 7.71339 5.56648 7.37843 3.34097 8.05398C3.05233 8.14116 2.7475 7.97852 2.65989 7.69037C2.57294 7.40173 2.73569 7.09745 3.02384 7.00973C5.56598 6.23831 8.72637 6.61198 10.8872 7.9398C11.1438 8.09784 11.2249 8.43379 11.0669 8.69005ZM11.1404 6.70528C8.88437 5.36522 5.16217 5.24195 3.0082 5.8958C2.6623 6.00069 2.29649 5.8054 2.19171 5.4595C2.08687 5.11344 2.28195 4.74791 2.62812 4.64274C5.1007 3.8921 9.21123 4.03719 11.8086 5.57916C12.1204 5.76378 12.2224 6.16563 12.0376 6.4763C11.8538 6.78748 11.4509 6.89002 11.1408 6.70528H11.1404Z" fill="#1ED760"/>
</g>
</svg>
