<svg width="19" height="23" viewBox="0 0 19 23" fill="none" xmlns="http://www.w3.org/2000/svg">
<path d="M1.1416 5.90488H17.6933M7.3485 10.3059V16.9073M11.4864 10.3059V16.9073M2.17608 5.90488L3.21057 19.1078C3.21057 19.6914 3.42855 20.2511 3.81655 20.6638C4.20456 21.0765 4.73081 21.3083 5.27953 21.3083H13.5554C14.1041 21.3083 14.6304 21.0765 15.0184 20.6638C15.4064 20.2511 15.6244 19.6914 15.6244 19.1078L16.6588 5.90488M6.31402 5.90488V2.60415C6.31402 2.31235 6.42301 2.0325 6.61701 1.82616C6.81101 1.61982 7.07414 1.50391 7.3485 1.50391H11.4864C11.7608 1.50391 12.0239 1.61982 12.2179 1.82616C12.4119 2.0325 12.5209 2.31235 12.5209 2.60415V5.90488" stroke="#848484" stroke-width="2.20049" stroke-linecap="round" stroke-linejoin="round"/>
</svg>
