<svg width="33" height="26" viewBox="0 0 33 26" fill="none" xmlns="http://www.w3.org/2000/svg">
<path d="M11.5761 1.5L9.07613 7L6.07613 9C4.07613 10 0.376129 13.1 1.57613 17.5C2.77613 21.9 7.7428 24 10.0761 24.5C10.2428 24.6667 11.6761 25.1 16.0761 25.5C20.4761 25.9 25.2428 24 27.0761 23C28.5761 22.3333 31.6761 19.9 32.0761 15.5C32.4761 11.1 26.5761 8 23.5761 7L21.0761 1.5L19.0761 6.5C17.0761 6.1 14.5761 6.33333 13.5761 6.5L11.5761 1.5Z" fill="#EAEAEA"/>
<path d="M11.4886 1.73477C11.4886 1.73477 11.6959 1.6015 11.7013 1.60701C11.7066 1.61806 11.6254 2.08276 11.6307 2.09104C11.6334 2.09656 11.838 1.95777 11.8434 1.96328C11.8487 1.97433 11.7621 2.42522 11.7674 2.43626C11.7701 2.44179 11.9774 2.30299 11.9801 2.30851C11.9854 2.31679 11.8344 2.6075 11.8371 2.61578C11.8398 2.62131 12.0471 2.48251 12.0498 2.48803C12.0551 2.49631 11.9068 2.79254 11.9095 2.80083C11.9122 2.80635 12.1195 2.66755 12.1222 2.67307C12.1275 2.68135 12.0194 3.0853 12.0248 3.09634C12.0275 3.10187 12.2348 2.96307 12.2375 2.96859C12.2428 2.97687 12.0972 3.28415 12.0999 3.28967C12.1025 3.2952 12.3099 3.1564 12.3125 3.16192C12.3179 3.17297 12.2232 3.61005 12.2286 3.6211C12.2312 3.62662 12.4385 3.48782 12.4412 3.49334C12.4466 3.50439 12.3439 3.92491 12.3519 3.93318C12.3546 3.9387 12.5619 3.79991 12.5645 3.80543C12.5699 3.81647 12.4779 4.26185 12.4833 4.27289C12.4859 4.27842 12.6932 4.13962 12.6959 4.14514C12.7013 4.15342 12.5718 4.50489 12.5771 4.51317C12.5798 4.5187 12.7871 4.3799 12.7898 4.38542C12.7924 4.39094 12.628 4.64574 12.6307 4.65403C12.6334 4.65955 12.8407 4.52075 12.8434 4.52628C12.8487 4.53732 12.7487 4.96336 12.7541 4.97441C12.7567 4.97993 12.9641 4.84113 12.9694 4.84665C12.9747 4.85769 12.8881 5.31688 12.8935 5.32516C12.8961 5.33068 13.1034 5.18912 13.1088 5.19463C13.1141 5.20568 13.0221 5.65105 13.0275 5.66209C13.0302 5.66762 13.2401 5.52605 13.2428 5.53157C13.2482 5.53985 13.1079 5.86923 13.1133 5.87751C13.116 5.88304 13.3259 5.74147 13.3286 5.74699C13.3339 5.75527 13.191 6.0736 13.1937 6.08189C13.1964 6.08741 13.4063 5.94584 13.409 5.95136C13.4144 5.96241 13.3996 6.40481 13.4049 6.41309C13.413 6.42689 13.9126 6.08824 13.9206 6.10204C13.9233 6.10756 14.0198 6.32848 14.0224 6.33401C14.0305 6.34781 14.5009 6.02859 14.5062 6.0424C14.5089 6.04792 14.4137 6.28871 14.4164 6.29423C14.4244 6.30527 14.8629 6.00826 14.8709 6.01929C14.8736 6.02482 15.0792 6.23438 15.0819 6.2399C15.0872 6.25095 15.5231 5.9567 15.5311 5.97051C15.5338 5.97603 15.6569 6.20241 15.6596 6.20793C15.6649 6.21897 16.0848 5.93583 16.0902 5.94688C16.0955 5.95516 16.3171 6.1785 16.3225 6.18678C16.3278 6.19783 16.7265 5.92857 16.7318 5.93961C16.7345 5.94513 16.7884 6.17723 16.7937 6.18274C16.7991 6.19379 17.1845 5.93286 17.1898 5.9439C17.1925 5.94942 17.2464 6.18152 17.249 6.18704C17.2544 6.19809 17.6238 5.94826 17.6292 5.95654C17.6318 5.96206 17.7656 6.1967 17.7709 6.20498C17.7763 6.21326 18.1351 5.97176 18.1404 5.9828C18.1431 5.98833 18.205 6.22316 18.2077 6.22868C18.213 6.23696 18.5638 6.00101 18.5692 6.00929C18.5719 6.01481 18.4553 6.23907 18.458 6.2446C18.4633 6.25288 18.8142 6.01692 18.8195 6.02797C18.8222 6.03349 18.8947 6.27659 18.8974 6.28211C18.9028 6.29039 19.2562 6.05167 19.2616 6.06271C19.2643 6.06824 19.1451 6.3008 19.1478 6.30632C19.1531 6.31736 19.5837 6.0259 19.5917 6.0397" stroke="#1B1B1B" stroke-width="0.562157" stroke-linecap="round" stroke-linejoin="round"/>
<path d="M21.2178 1.11371C21.2178 1.11371 21.3454 1.03042 21.3481 1.03594C21.3561 1.04975 21.0221 1.58978 21.0301 1.60358C21.0355 1.61462 21.4607 1.3287 21.4661 1.33975C21.4794 1.36183 20.8132 2.10735 20.8265 2.12943C20.8319 2.13771 21.1508 1.9212 21.1561 1.92948C21.1695 1.95156 20.5752 2.7273 20.5859 2.74939C20.5913 2.75767 20.9128 2.54115 20.9182 2.54943C20.9289 2.56599 20.4113 3.15905 20.422 3.17561C20.4273 3.18389 20.7516 2.9646 20.7543 2.97565C20.7623 2.98668 20.3932 3.37751 20.4013 3.38855C20.4066 3.39683 20.5527 3.28585 20.5581 3.29413C20.5634 3.30517 20.221 3.67104 20.2263 3.68485C20.2317 3.69313 20.5559 3.47384 20.5613 3.48212C20.572 3.49868 20.0491 4.10281 20.0571 4.11938C20.0624 4.12766 20.3893 3.90836 20.3947 3.91664C20.4054 3.9332 19.8904 4.51519 19.8985 4.53176C19.9038 4.54004 20.2307 4.31797 20.236 4.32902C20.2441 4.34558 19.7582 4.85838 19.7662 4.87495C19.7716 4.88323 20.1012 4.66115 20.1065 4.66943C20.1145 4.686 19.6527 5.23191 19.6607 5.24847C19.6661 5.25675 19.9053 5.09022 19.908 5.09851C19.916 5.11231 19.5097 5.50877 19.5177 5.51981C19.5231 5.52809 19.8553 5.30601 19.858 5.31429C19.866 5.33086 19.3775 5.8409 19.3881 5.85746C19.3935 5.86574 19.7257 5.64089 19.7311 5.65194" stroke="#1B1B1B" stroke-width="0.562157" stroke-linecap="round" stroke-linejoin="round"/>
<path d="M21.3499 1.68611C21.3499 1.68611 21.552 1.55562 21.5546 1.56114C21.56 1.56942 21.4411 1.92363 21.4465 1.93191C21.4491 1.93743 21.6485 1.80142 21.6511 1.80694C21.6565 1.81522 21.5618 2.23019 21.5671 2.24124C21.5698 2.24676 21.7691 2.11075 21.7718 2.11627C21.7771 2.12731 21.6905 2.56715 21.6985 2.57542C21.7012 2.58094 21.9005 2.44493 21.9032 2.45045C21.9085 2.4615 21.8272 2.90961 21.8325 2.91789C21.8352 2.92341 22.0345 2.7874 22.0399 2.79291C22.0452 2.80119 21.9398 3.19684 21.9451 3.20512C21.9478 3.21064 22.1498 3.07462 22.1525 3.08014C22.1578 3.09119 22.0845 3.56416 22.0899 3.5752C22.0926 3.58073 22.2946 3.44471 22.2972 3.45023C22.3026 3.45851 22.1677 3.77959 22.173 3.7851C22.1757 3.79062 22.3777 3.6546 22.3803 3.66012C22.3857 3.6684 22.2481 3.97843 22.2508 3.98672C22.2534 3.99224 22.4554 3.85622 22.4581 3.86174C22.4635 3.87279 22.3795 4.32091 22.3848 4.33195C22.3875 4.33747 22.5895 4.20145 22.5922 4.20697C22.5975 4.21525 22.484 4.58604 22.4867 4.59433C22.4894 4.59985 22.6914 4.46383 22.694 4.46935C22.6967 4.47764 22.5457 4.74899 22.5484 4.75728C22.5511 4.7628 22.753 4.62678 22.7557 4.63231C22.7611 4.64335 22.6878 5.11909 22.6932 5.13013C22.6958 5.13565 22.8978 4.99963 22.9005 5.00516C22.9058 5.01344 22.787 5.37871 22.7924 5.38699C22.795 5.39251 22.997 5.25649 22.9997 5.26201C23.0051 5.27306 22.9184 5.71842 22.9264 5.72945C22.9291 5.73498 23.1311 5.59896 23.1338 5.60448C23.1391 5.61276 23.0149 5.95869 23.0176 5.96698C23.0203 5.9725 23.2222 5.83648 23.2249 5.842C23.2276 5.84752 23.2496 6.11565 23.255 6.12116C23.2576 6.12668 23.3001 6.08786 23.3028 6.09338C23.3082 6.10166 23.1865 6.39782 23.1892 6.40611C23.1918 6.41163 23.3938 6.27561 23.3992 6.28113C23.4045 6.29217 23.3259 6.75686 23.3312 6.76514C23.3339 6.77067 23.5386 6.63464 23.5413 6.64016C23.5439 6.64845 23.3902 6.91981 23.3956 6.92533C23.3983 6.93085 23.6029 6.79482 23.6056 6.80034C23.6083 6.80863 23.4519 7.07171 23.4572 7.07999C23.4599 7.08551 23.6646 6.94948 23.6672 6.95224C23.6726 6.96052 23.7719 7.25884 23.7772 7.26712C23.7826 7.2754 24.0457 7.09498 24.051 7.10326C24.0564 7.11154 24.2383 7.41794 24.2436 7.42622C24.2463 7.43451 24.5068 7.25962 24.5094 7.26514C24.5148 7.27342 24.7127 7.5936 24.718 7.60188C24.7207 7.6074 24.9732 7.43807 24.9785 7.44358C24.9812 7.44911 24.9792 7.70071 24.9819 7.70623C24.9846 7.71175 25.2371 7.54242 25.2397 7.5507C25.2424 7.55623 25.1818 7.7831 25.1845 7.78862C25.1871 7.79414 25.4343 7.62759 25.4397 7.63587C25.445 7.64415 25.6136 7.96717 25.619 7.97822C25.6216 7.98374 25.8662 7.81996 25.8688 7.82824C25.8715 7.83376 25.8456 8.0799 25.8482 8.08542C25.8509 8.09094 26.0928 7.92993 26.0955 7.93546C26.0981 7.94098 26.0082 8.15687 26.0109 8.1624C26.0135 8.16792 26.2554 8.00691 26.2581 8.01243C26.2634 8.02071 26.3494 8.3246 26.3548 8.33288C26.3575 8.3384 26.594 8.18017 26.5967 8.18569C26.5994 8.19122 26.5068 8.40712 26.5094 8.41264C26.5121 8.41816 26.7486 8.25993 26.7513 8.26822C26.7567 8.2765 26.8934 8.61619 26.8987 8.62447C26.9014 8.63 27.1326 8.47454 27.1353 8.48283C27.138 8.49112 27.1921 8.78957 27.1947 8.79509C27.1974 8.80061 27.4233 8.64794 27.4287 8.65345C27.434 8.66173 27.5601 9.00975 27.5628 9.01804C27.5654 9.02356 27.7887 8.87366 27.7914 8.87918C27.794 8.8847 27.8215 9.18046 27.8242 9.18598C27.8268 9.1915 28.0474 9.04437 28.0501 9.0499C28.0554 9.05818 28.1122 9.37873 28.1149 9.38702C28.1176 9.39254 28.3382 9.24542 28.3409 9.25094C28.3435 9.25646 28.2429 9.47238 28.2456 9.47791C28.2483 9.48343 28.4636 9.33908 28.4662 9.3446C28.4689 9.35012 28.411 9.59911 28.4164 9.60462C28.4217 9.61014 28.6343 9.4658 28.637 9.47132C28.6423 9.4796 28.7365 9.84706 28.7392 9.85534C28.7419 9.86087 28.9545 9.71929 28.9572 9.72481C28.9599 9.73033 28.8886 9.97382 28.8913 9.97935C28.894 9.98487 29.1039 9.8433 29.1093 9.84881C29.112 9.85433 29.0674 10.1226 29.0701 10.1282C29.0728 10.1337 29.2801 9.99488 29.2828 10.0004C29.2881 10.0087 29.3263 10.3542 29.329 10.3625C29.3317 10.368 29.539 10.2292 29.5417 10.2347C29.5443 10.2402 29.4705 10.492 29.4758 10.4975C29.4785 10.5031 29.6831 10.3643 29.6885 10.3698C29.6911 10.3753 29.6013 10.6161 29.6066 10.6216C29.6093 10.6271 29.8139 10.4883 29.8166 10.4939C29.8193 10.4994 29.7107 10.7181 29.7134 10.7236C29.7161 10.7291 29.918 10.5931 29.9234 10.5986C29.9287 10.6041 29.8122 10.8256 29.8148 10.8312C29.8175 10.8367 30.0195 10.7007 30.0222 10.7062C30.0275 10.7145 30.0792 11.118 30.0845 11.1263C30.0872 11.1318 30.2866 10.9958 30.2919 11.0013C30.2946 11.0068 30.194 11.2476 30.1994 11.2531C30.202 11.2586 30.4014 11.1254 30.4041 11.1282C30.4094 11.1364 30.365 11.4545 30.3703 11.46C30.373 11.4655 30.5723 11.3323 30.575 11.3378C30.5777 11.3433 30.4852 11.6035 30.4879 11.609C30.4906 11.6145 30.6899 11.4813 30.6926 11.4868C30.6979 11.4951 30.699 11.896 30.7043 11.9042C30.707 11.9098 30.9037 11.7765 30.9064 11.782C30.9091 11.7876 30.7819 12.0174 30.7845 12.0257C30.7872 12.0312 30.9839 11.898 30.9866 11.9035C30.9919 11.9118 30.9316 12.252 30.9369 12.2603C30.9396 12.2658 31.1363 12.1326 31.139 12.1381C31.1417 12.1464 31.0466 12.4397 31.0493 12.4452C31.052 12.4507 31.2486 12.3175 31.2513 12.323C31.254 12.3285 31.1456 12.6164 31.1509 12.6219C31.1536 12.6274 31.3503 12.4942 31.3529 12.4997C31.3583 12.508 31.3142 12.9339 31.3195 12.9449C31.3222 12.9504 31.5189 12.8172 31.5216 12.8227C31.5242 12.8282 31.3785 13.0692 31.3811 13.0747C31.3838 13.0802 31.5805 12.947 31.5832 12.9525C31.5885 12.9608 31.5044 13.3591 31.5097 13.3702C31.5124 13.3757 31.7091 13.2424 31.7118 13.248C31.7144 13.2562 31.5714 13.5331 31.5741 13.5414C31.5768 13.5469 31.7761 13.4109 31.7788 13.4164C31.7841 13.4247 31.6358 13.7154 31.6411 13.7209C31.6438 13.7264 31.8431 13.5932 31.8458 13.5987C31.8512 13.607 31.7298 14.0027 31.7325 14.0137C31.7351 14.0193 31.9371 13.8832 31.9398 13.8888C31.9451 13.897 31.7782 14.1823 31.7809 14.1906C31.7835 14.1961 31.9882 14.0573 31.9908 14.0628C31.9962 14.0739 31.8482 14.4862 31.8536 14.4972C31.8563 14.5028 32.0636 14.364 32.0662 14.3695C32.0716 14.3778 31.9022 14.7653 31.9049 14.7736C31.9076 14.7791 32.1175 14.6375 32.1202 14.6431C32.1282 14.6569 31.954 15.1992 31.962 15.213C31.9647 15.2185 32.1826 15.0714 32.1853 15.0769C32.1933 15.088 31.979 15.5835 31.9843 15.5945C31.987 15.6 32.2103 15.4501 32.2156 15.4556C32.2209 15.4667 31.9798 15.9014 31.9878 15.9124C31.9905 15.918 32.2217 15.7625 32.2244 15.768C32.2324 15.7791 31.9621 16.2553 31.9702 16.2691C31.9728 16.2747 32.212 16.1137 32.2174 16.1219C32.2227 16.133 31.9363 16.5347 31.9443 16.5457C31.947 16.5512 32.1941 16.3874 32.1968 16.3929C32.2048 16.4095 31.8577 17.0132 31.8657 17.0297C31.8684 17.038 32.1288 16.8604 32.1342 16.8687C32.1422 16.8852 31.7339 17.5056 31.7446 17.5222C31.7499 17.5305 32.0316 17.3389 32.037 17.3472C32.045 17.361 31.6283 17.8487 31.6363 17.8625C31.6417 17.8708 31.942 17.6682 31.9447 17.6765C31.9527 17.6903 31.5305 18.1117 31.5385 18.1227C31.5438 18.131 31.8575 17.92 31.8628 17.9283C31.8735 17.9448 31.3638 18.4964 31.3718 18.513C31.3772 18.5213 31.7174 18.2936 31.7227 18.3019C31.7361 18.3268 31.03 19.1139 31.0433 19.1387C31.0487 19.1497 31.442 18.8833 31.4474 18.8943C31.4634 18.9219 30.5473 19.8285 30.5634 19.8561C30.5714 19.8699 31.0551 19.5423 31.0631 19.5534C31.0818 19.5865 29.9502 20.5434 29.9689 20.5765C29.9769 20.5931 30.5962 20.1767 30.6042 20.1933C30.6203 20.2236 29.5121 20.998 29.5281 21.0284C29.5388 21.0477 30.2856 20.5453 30.2963 20.5646C30.3151 20.5977 29.0421 21.472 29.0608 21.5052C29.0769 21.5328 29.7651 21.0443 29.7812 21.0719" stroke="#1B1B1B" stroke-width="0.562157" stroke-linecap="round" stroke-linejoin="round"/>
<path d="M5.03328 9.38794C5.08411 9.47627 7.77093 7.61662 7.82176 7.70772C7.88329 7.81538 3.70974 10.2818 3.77127 10.3894C3.78733 10.4198 4.40914 9.96746 4.42519 9.99506C4.44928 10.0392 2.83373 11.2546 2.85781 11.2987C2.8685 11.3153 3.51699 10.8795 3.52502 10.896C3.54107 10.9237 2.61941 11.7556 2.63546 11.7832C2.64348 11.797 2.75237 11.6944 2.7604 11.7082C2.7711 11.7275 2.1548 12.2517 2.1655 12.271C2.17352 12.2821 2.62268 11.9795 2.62803 11.9906C2.63873 12.0099 2.01443 12.5286 2.02512 12.5451C2.03048 12.5562 2.08091 12.498 2.08627 12.509C2.09429 12.5228 1.83213 13.0516 1.84015 13.0654C1.8455 13.0737 1.98632 12.9627 1.99167 12.9738C1.9997 12.9876 1.58542 13.3896 1.59344 13.4006C1.59879 13.4089 1.93366 13.184 1.93634 13.1923C1.94437 13.2061 1.49551 13.6193 1.50353 13.6331C1.50888 13.6414 1.82781 13.4249 1.83316 13.4331C1.84119 13.4497 1.38193 13.9541 1.39262 13.9707C1.39797 13.979 1.69563 13.7763 1.70097 13.7846C1.70901 13.8012 1.27652 14.3608 1.28455 14.3774C1.2899 14.3857 1.56364 14.1997 1.56898 14.2052C1.57434 14.2163 1.22394 14.6098 1.23196 14.6236C1.23464 14.6319 1.50308 14.4515 1.50842 14.457C1.51644 14.4708 1.16369 14.9777 1.17172 14.9915C1.17439 14.997 1.42687 14.8277 1.43222 14.836C1.44025 14.8498 1.11963 15.4229 1.12766 15.4395C1.13033 15.445 1.37219 15.284 1.37487 15.2895C1.38289 15.3033 1.10748 15.857 1.11284 15.8708C1.11552 15.8764 1.34675 15.7209 1.34943 15.7292C1.35746 15.743 1.12469 16.3132 1.13271 16.327C1.13539 16.3325 1.35332 16.1854 1.356 16.1909C1.36402 16.2047 1.17382 16.7609 1.18184 16.7747C1.18452 16.7803 1.39714 16.6359 1.39981 16.6414C1.40783 16.6525 1.24681 17.1727 1.25484 17.1865C1.25752 17.192 1.46482 17.0532 1.4675 17.0587C1.47285 17.067 1.28991 17.355 1.29526 17.3633C1.29794 17.3688 1.50257 17.2301 1.50791 17.2356C1.51326 17.2438 1.33564 17.5263 1.33832 17.5346C1.341 17.5401 1.54564 17.4041 1.54832 17.4096C1.55367 17.4179 1.40016 17.7556 1.4055 17.7639C1.40818 17.7694 1.61016 17.6334 1.6155 17.6389C1.62085 17.6472 1.47261 17.9683 1.47796 17.9766C1.48064 17.9821 1.67996 17.8461 1.6853 17.8516C1.69066 17.8627 1.61741 18.3467 1.62277 18.3577C1.62545 18.3633 1.82477 18.23 1.82744 18.2328C1.83279 18.2411 1.69779 18.5345 1.70313 18.54C1.70581 18.5455 1.90248 18.4123 1.90782 18.4178C1.91317 18.4288 1.85308 18.8548 1.85843 18.8658C1.86111 18.8714 2.05778 18.7381 2.06046 18.7436C2.06581 18.7519 1.97352 19.0867 1.9762 19.095C1.97888 19.1005 2.17555 18.9673 2.17823 18.9728C2.18358 18.9811 2.12868 19.36 2.13403 19.3683C2.13671 19.3738 2.33338 19.2405 2.33605 19.2461C2.3414 19.2544 2.33189 19.6774 2.33725 19.6884C2.33992 19.694 2.5366 19.5607 2.54194 19.5662C2.54462 19.5745 2.46822 19.8761 2.47089 19.8816C2.47357 19.8871 2.67291 19.7539 2.67559 19.7594C2.68094 19.7704 2.71139 20.2017 2.71674 20.2127C2.71942 20.2182 2.91875 20.085 2.92142 20.0877C2.92677 20.096 2.88771 20.4224 2.89305 20.4279C2.89573 20.4334 3.09505 20.2974 3.10039 20.3029C3.10307 20.3084 3.02124 20.5741 3.02392 20.5796C3.0266 20.5851 3.22859 20.4491 3.23126 20.4546C3.23394 20.4601 3.15211 20.723 3.15745 20.7285C3.16013 20.734 3.36211 20.598 3.36479 20.6036C3.37014 20.6118 3.41111 20.996 3.41646 21.0043C3.41914 21.0098 3.62378 20.871 3.62646 20.8766C3.63181 20.8848 3.67807 21.258 3.68343 21.269C3.6861 21.2745 3.89341 21.1357 3.89608 21.1412C3.89876 21.1468 3.87294 21.4427 3.87561 21.4482C3.87829 21.4537 4.08559 21.3149 4.08827 21.3204C4.09095 21.3287 4.08913 21.6384 4.09181 21.6439C4.09448 21.6494 4.30444 21.5079 4.30712 21.5134C4.3098 21.5217 4.34791 21.8284 4.35059 21.8367C4.35327 21.8423 4.4888 21.7451 4.49148 21.7534C4.49416 21.7589 4.50008 21.9801 4.50276 21.9856C4.50544 21.9911 4.71805 21.8468 4.72339 21.8523C4.72606 21.8578 4.62014 22.0738 4.62282 22.0793C4.6255 22.0848 4.84078 21.9405 4.84346 21.946C4.8488 21.9543 4.8896 22.2749 4.89228 22.2804C4.89496 22.2859 5.11024 22.1416 5.11558 22.1471C5.12092 22.1554 5.17504 22.4787 5.18038 22.4842C5.18306 22.4897 5.40366 22.3426 5.40633 22.3481C5.41168 22.3564 5.52713 22.7127 5.53248 22.721C5.53515 22.7265 5.75841 22.5766 5.76109 22.5822C5.76376 22.5877 5.78051 22.8752 5.78319 22.8807C5.78586 22.8862 6.01177 22.7336 6.01711 22.7391C6.01979 22.7446 5.97252 22.9908 5.9752 22.9963C5.97788 23.0018 6.20378 22.8492 6.20912 22.8547C6.21447 22.8629 6.30586 23.1834 6.30854 23.1889C6.31121 23.1945 6.54244 23.039 6.54512 23.0445C6.5478 23.05 6.47119 23.277 6.47387 23.2825C6.47654 23.288 6.70777 23.1326 6.71045 23.1381C6.71579 23.1464 6.8578 23.4805 6.86315 23.4888C6.86583 23.4943 7.10237 23.3361 7.10505 23.3416C7.10772 23.3471 7.12976 23.6208 7.1351 23.6263C7.14044 23.6318 7.37964 23.4708 7.38232 23.4763C7.38499 23.4819 7.40702 23.75 7.40969 23.7555C7.41237 23.761 7.65423 23.6 7.6569 23.6055C7.66225 23.6138 7.80688 23.9286 7.80956 23.9369C7.81224 23.9424 8.05941 23.7786 8.06209 23.7841C8.06477 23.7897 8.02813 24.0275 8.03081 24.0331C8.03349 24.0386 8.28332 23.872 8.28866 23.8775C8.294 23.8831 8.35865 24.1621 8.36399 24.1676C8.36933 24.1731 8.61916 24.0038 8.6245 24.0121C8.62718 24.0176 8.57988 24.25 8.58256 24.2555C8.58523 24.261 8.84304 24.0889 8.84838 24.0944C8.85373 24.1027 8.99297 24.3982 8.99832 24.4065C9.001 24.4147 9.26146 24.2371 9.26681 24.2454C9.26948 24.2509 9.19286 24.4723 9.19554 24.4778C9.19822 24.4861 9.464 24.3057 9.46668 24.3139C9.46936 24.3195 9.40873 24.5463 9.41141 24.5519C9.4141 24.5602 9.67986 24.3797 9.68255 24.388C9.68522 24.3935 9.71253 24.6478 9.71521 24.6533C9.72056 24.6616 9.99164 24.4784 9.99432 24.4839C9.99699 24.4895 9.98433 24.73 9.98701 24.7355C9.99235 24.7438 10.2634 24.5606 10.2661 24.5661C10.2688 24.5717 10.2588 24.8122 10.2615 24.8177C10.2668 24.826 10.5432 24.6373 10.5486 24.6456C10.5512 24.6511 10.6024 24.8804 10.6051 24.8859C10.6105 24.8942 10.6689 24.836 10.6742 24.8443C10.6769 24.8498 10.845 24.971 10.8477 24.9765C10.853 24.9848 11.1374 24.7905 11.1427 24.7988C11.1454 24.8043 11.0421 25.0202 11.0448 25.0258C11.0502 25.034 11.3345 24.8397 11.3399 24.848C11.3426 24.8535 11.2819 25.0804 11.2846 25.0832C11.29 25.0914 11.5823 24.8944 11.5876 24.8999C11.5903 24.9054 11.6229 25.1514 11.6256 25.1569C11.631 25.1652 11.9233 24.9653 11.9286 24.9736C11.934 24.9819 12.1424 25.255 12.1478 25.2633C12.1531 25.2716 12.4561 25.0662 12.4588 25.0745C12.4614 25.08 12.542 25.3286 12.5447 25.3369C12.55 25.3452 12.861 25.1342 12.8663 25.1425C12.869 25.148 12.795 25.3721 12.8004 25.3777C12.8057 25.3859 13.1193 25.175 13.122 25.1833C13.1247 25.1888 13.1227 25.4238 13.1253 25.4293C13.1307 25.4376 13.4523 25.2211 13.4576 25.2293C13.4603 25.2376 13.6287 25.4915 13.6341 25.4971C13.6394 25.5053 13.9716 25.2805 13.977 25.2915C13.9797 25.2971 13.9457 25.5266 13.9484 25.5321C13.9537 25.5404 14.2859 25.3156 14.2913 25.3239C14.2939 25.3294 14.3265 25.5643 14.3292 25.5698C14.3345 25.5781 14.6801 25.3477 14.6854 25.356C14.6908 25.3642 14.9949 25.6012 15.0003 25.6095C15.0056 25.6178 15.2847 25.4262 15.29 25.4345C15.2927 25.44 15.4477 25.6414 15.4503 25.6497C15.4557 25.6608 15.8251 25.4109 15.8305 25.4192C15.8331 25.4247 15.7246 25.6545 15.7273 25.66C15.7326 25.6711 16.1047 25.4185 16.1101 25.4295C16.1154 25.4378 16.3876 25.6665 16.393 25.6748C16.3983 25.6859 16.789 25.4222 16.7943 25.4332C16.797 25.4387 16.9361 25.6678 16.9388 25.6734C16.9441 25.6844 17.3481 25.4124 17.3534 25.4234C17.3588 25.4344 17.7215 25.6408 17.7268 25.6519C17.7322 25.6629 18.1627 25.3742 18.1681 25.3853C18.1708 25.3908 18.1767 25.623 18.1794 25.6285C18.1847 25.6396 18.6312 25.3398 18.6366 25.3536C18.642 25.3674 19.156 25.4351 19.1614 25.4462C19.1694 25.46 19.1746 25.4212 19.1826 25.4323C19.1853 25.4378 19.4464 25.509 19.4518 25.5145C19.4598 25.5283 19.9595 25.1924 19.9648 25.2035C19.9702 25.2117 20.2687 25.3492 20.2714 25.3574C20.2794 25.3713 20.6781 25.0937 20.6861 25.1075C20.6888 25.1158 20.9369 25.2865 20.9422 25.292C20.9502 25.3086 21.5429 24.9089 21.5509 24.9255C21.5536 24.931 21.4877 25.18 21.4904 25.1855C21.5011 25.2021 22.1389 24.7718 22.147 24.7884C22.1523 24.7966 22.544 24.9089 22.5494 24.92C22.5601 24.9393 22.9799 24.6341 22.9906 24.6534C23.0067 24.681 24.1745 24.288 24.1905 24.3156C24.2066 24.3432 24.3127 24.2047 24.3261 24.2323C24.3448 24.2654 25.6854 23.7641 25.7041 23.7973C25.755 23.8884 28.0377 22.2703 28.0885 22.3587" stroke="#1B1B1B" stroke-width="0.562157" stroke-linecap="round" stroke-linejoin="round"/>
<path d="M8.096 7.82089C8.11741 7.85679 8.85922 7.30981 8.88064 7.34848" stroke="#1B1B1B" stroke-width="0.562157" stroke-linecap="round" stroke-linejoin="round"/>
<path d="M11.3559 1.14049C11.3559 1.14049 11.4862 1.0572 11.4888 1.05996C11.4969 1.07652 11.1364 1.67469 11.1444 1.68849C11.1524 1.70229 11.6202 1.38584 11.6255 1.39689C11.6363 1.41898 10.975 2.07601 10.9858 2.0981C10.9911 2.10638 11.31 1.89263 11.3154 1.90091C11.3234 1.91472 10.8667 2.37767 10.8747 2.39147C10.8801 2.39975 11.199 2.18323 11.2043 2.19428C11.215 2.2136 10.6631 2.89523 10.6738 2.91455C10.6791 2.92283 10.998 2.70632 11.0034 2.7146C11.0114 2.7284 10.5759 3.13876 10.5812 3.15257C10.5866 3.16085 10.9055 2.94434 10.9108 2.95262C10.9215 2.96918 10.4198 3.53454 10.4279 3.55111C10.4332 3.55939 10.7521 3.34288 10.7575 3.35116C10.7682 3.37048 10.2374 3.99952 10.2481 4.01884C10.2534 4.02712 10.5724 3.81061 10.5777 3.81889C10.5884 3.83821 10.0549 4.47002 10.0656 4.48934C10.071 4.49762 10.3899 4.28111 10.3953 4.28939C10.4033 4.30319 10.0477 4.76034 10.0558 4.77414C10.0611 4.78242 10.0664 4.75752 10.069 4.76581C10.0771 4.77961 9.72973 5.32244 9.73776 5.33625C9.74311 5.34453 10.0647 5.12801 10.0674 5.13629C10.0754 5.15009 9.6081 5.63519 9.61613 5.64899C9.62147 5.65727 9.94306 5.44075 9.94841 5.44903C9.95911 5.46836 9.40713 6.14722 9.41783 6.16654C9.42318 6.17482 9.74476 5.9583 9.75011 5.96658C9.75546 5.97762 9.48506 6.41519 9.49042 6.42623C9.49576 6.43451 9.5914 6.35407 9.59674 6.36235C9.60744 6.37891 9.08456 6.98858 9.09527 7.0079C9.10061 7.01618 9.4222 6.79966 9.42755 6.80794" stroke="#1B1B1B" stroke-width="0.562157" stroke-linecap="round" stroke-linejoin="round"/>
<path d="M14.0146 11.557C14.0226 11.5708 14.5598 11.2097 14.5678 11.2235C14.5785 11.2401 14.13 11.8858 14.1381 11.9052C14.1488 11.9245 14.8641 11.4412 14.8748 11.4606C14.8855 11.4771 14.3408 11.9959 14.3515 12.0125C14.3595 12.0263 14.8967 11.6652 14.9047 11.679" stroke="#1B1B1B" stroke-width="0.562157" stroke-linecap="round" stroke-linejoin="round"/>
<path d="M18.6845 11.5472C18.6925 11.561 19.2297 11.1999 19.2377 11.2137C19.2484 11.2303 18.8026 11.8761 18.8106 11.8927C18.8213 11.912 19.534 11.4315 19.5447 11.448C19.5528 11.4646 19.0107 11.9834 19.0214 12C19.0294 12.0138 19.5666 11.6527 19.5746 11.6665" stroke="#1B1B1B" stroke-width="0.562157" stroke-linecap="round" stroke-linejoin="round"/>
<path d="M16.4286 17.8926C16.4286 17.8926 16.9285 17.5731 16.9366 17.587C16.9473 17.6035 16.5227 18.2354 16.5308 18.2547C16.5388 18.2741 17.177 17.8436 17.1851 17.8602C17.1931 17.8767 16.6775 18.3401 16.6856 18.3567C16.6936 18.3705 17.1855 18.0372 17.1936 18.051" stroke="#1B1B1B" stroke-width="0.562157" stroke-linecap="round" stroke-linejoin="round"/>
<path d="M4.9643 15.405C4.9643 15.405 5.22751 15.2384 5.23019 15.2439C5.23554 15.2522 5.48389 15.5032 5.48924 15.5114C5.4946 15.5225 5.93057 15.2282 5.9386 15.242C5.94128 15.2475 6.01388 15.5045 6.01656 15.51C6.02192 15.5211 6.45789 15.2267 6.46592 15.2406C6.4686 15.2461 6.38939 15.5035 6.39473 15.509C6.40009 15.52 6.83606 15.2257 6.84409 15.2395C6.84944 15.2478 7.06051 15.4989 7.06586 15.5072C7.07122 15.5182 7.50719 15.2239 7.51521 15.2377C7.51789 15.2432 7.36944 15.5008 7.37479 15.5063C7.38014 15.5174 7.81612 15.2231 7.82415 15.2369C7.82682 15.2424 7.88345 15.4994 7.88879 15.505C7.89415 15.516 8.33012 15.2217 8.33815 15.2355C8.34084 15.2438 8.15509 15.4987 8.16043 15.5042C8.16578 15.5097 8.41832 15.3404 8.42366 15.3459" stroke="#1B1B1B" stroke-width="0.562157" stroke-linecap="round" stroke-linejoin="round"/>
<path d="M4.96821 16.9255C4.96821 16.9255 5.23142 16.7589 5.23409 16.7644C5.23944 16.7727 5.4878 17.0237 5.49315 17.032C5.4985 17.043 5.93448 16.7487 5.94251 16.7625C5.94519 16.768 6.01779 17.025 6.02047 17.0305C6.02582 17.0416 6.4618 16.7473 6.46982 16.7611C6.4725 16.7666 6.39329 17.024 6.39864 17.0295C6.40399 17.0406 6.83997 16.7462 6.84799 16.76C6.85334 16.7683 7.06442 17.0194 7.06977 17.0277C7.07512 17.0387 7.51109 16.7444 7.51912 16.7582C7.5218 16.7637 7.37335 17.0213 7.37869 17.0269C7.38405 17.0379 7.82002 16.7436 7.82805 16.7574C7.83073 16.7629 7.88736 17.0199 7.8927 17.0255C7.89805 17.0365 8.33403 16.7422 8.34206 16.756C8.34474 16.7643 8.159 17.0192 8.16434 17.0247C8.16968 17.0302 8.42223 16.8609 8.42757 16.8664" stroke="#1B1B1B" stroke-width="0.562157" stroke-linecap="round" stroke-linejoin="round"/>
<path d="M25.4653 15.3493C25.4653 15.3493 25.7285 15.1827 25.7312 15.1882C25.7365 15.1965 25.9849 15.4475 25.9902 15.4558C25.9956 15.4668 26.4316 15.1725 26.4396 15.1863C26.4423 15.1918 26.5149 15.4488 26.5175 15.4544C26.5229 15.4654 26.9589 15.1711 26.9669 15.1849C26.9696 15.1904 26.8904 15.4478 26.8957 15.4533C26.9011 15.4644 27.337 15.1701 27.3451 15.1839C27.3504 15.1921 27.5615 15.4432 27.5668 15.4515C27.5722 15.4626 28.0082 15.1682 28.0162 15.1821C28.0189 15.1876 27.8704 15.4452 27.8758 15.4507C27.8811 15.4617 28.3171 15.1674 28.3251 15.1812C28.3278 15.1867 28.3844 15.4438 28.3898 15.4493C28.3951 15.4603 28.8311 15.166 28.8391 15.1798C28.8418 15.1881 28.6561 15.443 28.6614 15.4486C28.6668 15.4541 28.9193 15.2847 28.9246 15.2902" stroke="#1B1B1B" stroke-width="0.562157" stroke-linecap="round" stroke-linejoin="round"/>
<path d="M25.4702 16.8699C25.4702 16.8699 25.7334 16.7032 25.736 16.7087C25.7414 16.717 25.9898 16.968 25.9951 16.9763C26.0005 16.9873 26.4364 16.693 26.4445 16.7068C26.4471 16.7123 26.5197 16.9693 26.5224 16.9749C26.5278 16.9859 26.9638 16.6916 26.9718 16.7054C26.9745 16.7109 26.8952 16.9683 26.9006 16.9738C26.9059 16.9849 27.3419 16.6906 27.3499 16.7044C27.3553 16.7127 27.5664 16.9637 27.5717 16.972C27.5771 16.9831 28.013 16.6888 28.0211 16.7026C28.0238 16.7081 27.8753 16.9657 27.8806 16.9712C27.886 16.9822 28.322 16.6879 28.33 16.7017C28.3327 16.7072 28.3893 16.9643 28.3946 16.9698C28.4 16.9808 28.836 16.6865 28.844 16.7003C28.8467 16.7086 28.661 16.9635 28.6663 16.9691C28.6716 16.9746 28.9242 16.8052 28.9295 16.8107" stroke="#1B1B1B" stroke-width="0.562157" stroke-linecap="round" stroke-linejoin="round"/>
</svg>
