<svg width="12" height="12" viewBox="0 0 12 12" fill="none" xmlns="http://www.w3.org/2000/svg">
<path d="M11.212 2.13317L11.4244 1.92104L11.2121 1.70874L10.2913 0.787868L10.079 0.575568L9.86683 0.788036L6 4.661L2.13317 0.788036L1.92104 0.575568L1.70874 0.787868L0.787868 1.70874L0.575568 1.92104L0.788036 2.13317L4.661 6L0.788036 9.86683L0.575568 10.079L0.787868 10.2913L1.70874 11.2121L1.92104 11.4244L2.13317 11.212L6 7.339L9.86683 11.212L10.079 11.4244L10.2913 11.2121L11.2121 10.2913L11.4244 10.079L11.212 9.86683L7.339 6L11.212 2.13317Z" fill="white" stroke="white" stroke-width="0.6"/>
</svg>
