<svg version="1.1" id="Layer_1" xmlns="http://www.w3.org/2000/svg" xmlns:xlink="http://www.w3.org/1999/xlink" x="0px" y="0px"
	 width="100%" viewBox="0 0 1280 1280" enable-background="new 0 0 1280 1280" xml:space="preserve">
<path fill="#33C6F4" opacity="1.000000" stroke="none" 
	d="
M1.000000,359.000000 
	C1.000000,309.979095 1.000000,260.958221 1.247582,211.737885 
	C8.635187,241.418808 33.109657,255.777802 60.993454,254.919373 
	C72.283157,254.571793 81.398010,248.216156 90.025780,241.597565 
	C106.536087,228.932114 117.820694,205.963318 108.895126,182.765152 
	C97.193359,152.351471 80.282906,140.579834 52.032696,142.487946 
	C27.732382,144.129272 8.981771,156.205811 1.000000,181.000000 
	C1.000000,121.099205 1.000000,61.198406 1.000000,1.000000 
	C29.020191,1.000000 57.041439,1.000000 85.491531,1.350175 
	C86.553467,2.454929 87.038544,3.479520 87.843414,3.920748 
	C93.538460,7.042739 97.693924,11.453756 101.052208,17.085777 
	C102.433655,19.402536 106.012489,20.680231 108.841667,21.798357 
	C112.987610,23.436874 117.453804,24.262331 121.607140,25.885592 
	C126.143211,27.658440 130.402496,27.993168 135.168259,26.492397 
	C138.707962,25.377718 142.667038,25.637547 146.421967,25.151150 
	C149.985428,24.689552 153.783707,24.679153 157.016998,23.348433 
	C161.901810,21.337992 166.435013,18.438023 171.027512,15.761443 
	C176.685593,12.463811 179.664490,7.264684 181.000000,1.000000 
	C291.354218,1.000000 401.708466,1.000000 512.679199,1.346885 
	C513.378784,3.019608 514.011353,4.659471 513.460632,5.623180 
	C507.265198,16.464046 510.286926,27.347551 513.018127,38.260090 
	C513.177734,38.897736 513.138123,39.584869 513.194824,40.248669 
	C513.560059,44.520271 515.516174,47.590412 519.261230,49.951160 
	C522.289856,51.860264 524.870667,54.535946 527.473267,57.054276 
	C535.060242,64.395470 540.944031,74.550705 554.098206,72.347801 
	C555.763428,72.068916 557.625732,73.268829 559.432007,73.475883 
	C566.502625,74.286407 574.162781,77.058556 580.553528,75.295204 
	C596.440002,70.911743 610.725098,63.289280 615.274292,45.174183 
	C615.552429,44.066788 616.112915,42.976101 616.757385,42.023308 
	C623.169434,32.543144 622.770752,22.327656 620.338379,11.771561 
	C619.530273,8.264434 619.426025,4.595149 619.000000,1.000001 
	C654.354248,1.000000 689.708435,1.000000 725.492065,1.350080 
	C727.810608,3.268370 729.765503,4.764859 731.572266,6.422863 
	C733.865723,8.527567 736.866333,10.376497 738.101562,13.018548 
	C741.207886,19.662472 746.692322,21.625374 753.191467,22.865561 
	C759.295288,24.030321 765.247253,25.974430 771.311279,27.380569 
	C772.307556,27.611589 773.519104,26.703289 774.661621,26.552725 
	C778.575684,26.036934 782.511108,25.681202 786.423645,25.155054 
	C789.985474,24.676071 793.785889,24.680597 797.019165,23.349724 
	C801.903809,21.339113 806.436890,18.438799 811.028320,15.760556 
	C816.683472,12.461794 819.678711,7.273777 821.000000,1.000000 
	C931.354248,1.000000 1041.708496,1.000000 1152.679199,1.346893 
	C1153.378784,3.019588 1154.010742,4.658177 1153.460815,5.623346 
	C1147.282959,16.465519 1150.290039,27.347067 1153.012085,38.265251 
	C1153.372192,39.708916 1153.130005,41.381374 1153.752686,42.663269 
	C1154.801636,44.822739 1156.021118,47.056587 1157.702881,48.719135 
	C1161.329712,52.304768 1165.406738,55.431099 1169.098999,58.955544 
	C1176.205444,65.739113 1182.108276,74.547974 1194.103394,72.352379 
	C1195.753540,72.050339 1197.628418,73.269630 1199.434692,73.476768 
	C1206.505371,74.287651 1214.166626,77.061707 1220.556152,75.296829 
	C1236.439453,70.909676 1250.725830,63.288250 1255.274414,45.173897 
	C1255.552490,44.066517 1256.112427,42.975380 1256.757568,42.023136 
	C1263.178345,32.545128 1262.763794,22.327587 1260.341919,11.773467 
	C1259.536621,8.264452 1259.427368,4.595728 1259.000000,1.000000 
	C1266.317627,1.000000 1273.635376,1.000000 1281.000000,1.000000 
	C1281.000000,61.687553 1281.000000,122.375114 1280.999512,183.931458 
	C1278.627808,192.533585 1278.192017,200.266861 1281.000000,208.000000 
	C1281.000000,258.020905 1281.000000,308.041779 1280.663818,358.653381 
	C1268.584351,363.263184 1260.844482,372.915985 1251.236328,379.938995 
	C1250.851440,380.220306 1250.445679,380.668915 1250.341309,381.108826 
	C1248.151733,390.331085 1245.973022,399.556335 1243.898804,408.804932 
	C1243.698853,409.696625 1244.076538,410.787323 1244.393311,411.714905 
	C1249.226196,425.873322 1253.631104,440.253662 1264.681030,451.229889 
	C1265.617798,452.160492 1266.467407,453.243378 1267.111084,454.393433 
	C1270.195312,459.903687 1275.205444,461.249878 1281.000000,461.000000 
	C1281.000000,581.687561 1281.000000,702.375122 1280.999512,823.931396 
	C1278.624512,832.533569 1278.192139,840.266846 1281.000000,848.000000 
	C1281.000000,898.020874 1281.000000,948.041809 1280.663818,998.653503 
	C1268.581787,1003.259827 1260.846436,1012.918823 1251.236328,1019.939148 
	C1250.851440,1020.220276 1250.445923,1020.669189 1250.341309,1021.109009 
	C1248.151855,1030.331421 1245.973022,1039.556763 1243.898682,1048.805420 
	C1243.698730,1049.697021 1244.077026,1050.787720 1244.393555,1051.715332 
	C1249.225220,1065.874512 1253.633057,1080.253540 1264.680542,1091.231323 
	C1265.617188,1092.162109 1266.467407,1093.244263 1267.111694,1094.393921 
	C1270.197388,1099.900513 1275.201904,1101.257935 1281.000000,1101.000000 
	C1281.000000,1161.000000 1281.000000,1221.000000 1281.000000,1281.000000 
	C1273.572510,1281.000000 1266.255005,1281.000000 1258.529541,1280.602295 
	C1257.312134,1277.329224 1256.449097,1274.467773 1255.702271,1271.576294 
	C1252.334106,1258.535645 1236.871460,1245.773926 1223.463257,1245.216064 
	C1216.192871,1244.913574 1208.803223,1245.654785 1201.664917,1244.595459 
	C1196.348755,1243.806396 1191.846069,1244.032104 1187.454102,1247.007080 
	C1181.004639,1251.375244 1174.658813,1255.914062 1168.036621,1260.004395 
	C1160.020508,1264.955200 1154.118164,1271.209351 1153.000000,1281.000000 
	C1042.979126,1281.000000 932.958191,1281.000000 822.588928,1280.685059 
	C834.827881,1266.432007 835.835144,1251.108032 827.638855,1234.727539 
	C825.114990,1229.683594 822.246582,1224.804932 819.873840,1219.693726 
	C815.023804,1209.246094 806.470276,1203.782593 796.326538,1198.820190 
	C785.855286,1193.697632 776.251587,1193.402832 765.360596,1196.003052 
	C750.482910,1199.555054 736.338623,1205.218384 727.961243,1217.882812 
	C722.346069,1226.371704 719.004761,1237.753052 718.673157,1247.970947 
	C718.318481,1258.900635 722.690918,1269.983765 725.000000,1281.000000 
	C689.645752,1281.000000 654.291565,1281.000000 618.529541,1280.602295 
	C617.312195,1277.329468 616.449219,1274.467896 615.702393,1271.576416 
	C612.334351,1258.536133 596.870850,1245.773804 583.462585,1245.215942 
	C576.192139,1244.913330 568.802979,1245.653809 561.664246,1244.595581 
	C556.348999,1243.807861 551.846191,1244.029663 547.453308,1247.006592 
	C541.005188,1251.376465 534.660278,1255.917236 528.035889,1260.003418 
	C520.013733,1264.951904 514.122498,1271.212524 513.000000,1281.000000 
	C402.979095,1281.000000 292.958221,1281.000000 182.588959,1280.685059 
	C194.824020,1266.431030 195.836838,1251.106201 187.637146,1234.727051 
	C185.037827,1229.534790 182.095779,1224.508545 179.629730,1219.256470 
	C174.889481,1209.160645 166.643951,1203.750366 156.765793,1199.037964 
	C146.427612,1194.106201 136.902100,1193.178711 125.835503,1195.875610 
	C110.782234,1199.543945 96.491798,1205.132812 87.963066,1217.890869 
	C82.314995,1226.339844 79.002136,1237.754150 78.671013,1247.971313 
	C78.316788,1258.901001 82.690140,1269.984009 85.000000,1281.000000 
	C57.046638,1281.000000 29.093281,1281.000000 1.000000,1281.000000 
	C1.000000,1221.645874 1.000000,1162.291504 1.416152,1102.415405 
	C13.070262,1104.493164 24.131975,1105.084229 35.776695,1103.069458 
	C45.689358,1101.354370 53.066494,1097.824951 58.213688,1089.172729 
	C61.331379,1083.932007 65.939224,1079.476562 68.475830,1074.017090 
	C71.673225,1067.135376 73.528397,1059.616211 75.757446,1052.309326 
	C76.249428,1050.696655 76.373474,1048.650146 75.831848,1047.094116 
	C70.738106,1032.459229 64.949661,1018.334961 52.725189,1007.688843 
	C48.517330,1004.024231 44.117962,1001.380249 39.304939,998.735046 
	C26.266127,991.569092 13.718384,991.361450 1.000000,999.000000 
	C1.000000,949.979126 1.000000,900.958191 1.247586,851.737915 
	C8.631981,881.416382 33.106323,895.777832 60.991661,894.919556 
	C72.281601,894.572083 81.395607,888.216003 90.024773,881.599060 
	C106.510117,868.957764 117.827698,845.981750 108.895706,822.766602 
	C97.193748,792.352112 80.280518,780.576416 52.034145,782.488892 
	C27.739754,784.133850 8.984522,796.208557 1.000000,821.000000 
	C1.000000,701.645752 1.000000,582.291565 1.416145,462.415375 
	C13.070087,464.493408 24.131866,465.087219 35.776241,463.068665 
	C45.685982,461.350800 53.068623,457.826202 58.215073,449.170776 
	C61.331463,443.929565 65.940155,439.474640 68.476669,434.015167 
	C71.673950,427.133514 73.529045,419.614380 75.757904,412.307617 
	C76.249771,410.695160 76.372841,408.648773 75.831352,407.092529 
	C70.739151,392.456909 64.947975,378.334473 52.724586,367.688202 
	C48.516945,364.023468 44.117493,361.379761 39.304470,358.734619 
	C26.265547,351.568726 13.718150,351.361908 1.000000,359.000000 
M830.894165,269.538940 
	C839.289062,281.487366 852.046326,287.540619 864.356445,294.134186 
	C874.753418,299.702972 885.074585,299.265015 895.253052,293.209869 
	C902.546692,288.870941 909.938721,284.689728 917.381653,280.611115 
	C936.940247,269.893372 944.210022,241.985352 932.335999,223.030197 
	C928.890320,217.529739 924.921997,212.243088 922.293884,206.366257 
	C915.505371,191.186096 903.741821,184.037308 887.605957,182.600586 
	C865.306763,180.615082 847.050293,186.938782 834.030090,206.247284 
	C820.302246,226.605164 817.355530,247.228821 830.894165,269.538940 
M238.605469,182.159088 
	C217.918701,182.612213 202.242050,191.559372 191.988586,209.678696 
	C190.595718,212.140121 189.207977,214.608566 187.932938,217.131897 
	C175.662399,241.415802 182.754288,268.281921 205.555115,283.212708 
	C211.529816,287.125122 217.793106,290.628052 224.089035,294.011719 
	C234.634735,299.679443 245.083282,299.315521 255.417877,293.123291 
	C262.693115,288.764130 270.097046,284.612518 277.528015,280.521729 
	C296.831604,269.894958 304.128510,242.088013 292.544586,223.330582 
	C288.175995,216.256683 283.771942,209.185013 279.831085,201.871445 
	C274.566345,192.100891 266.616028,186.128311 255.861389,184.059555 
	C250.496536,183.027588 244.983612,182.765289 238.605469,182.159088 
M911.947876,923.409729 
	C913.277405,922.718872 914.611511,922.036682 915.935730,921.335815 
	C937.602722,909.866272 944.664856,882.144226 931.340210,861.438721 
	C927.291199,855.146912 923.441589,848.698242 919.943054,842.087341 
	C914.657166,832.098816 906.537659,826.179138 895.602417,823.956116 
	C892.345032,823.294006 889.049561,822.665039 885.742310,822.426941 
	C862.896667,820.782471 844.540894,828.337952 832.579346,848.729309 
	C830.979492,851.456543 829.418335,854.213379 827.986755,857.031372 
	C815.652710,881.310242 822.715210,908.230530 845.492310,923.174438 
	C851.329102,927.003967 857.438721,930.444336 863.574036,933.786438 
	C874.433777,939.702393 885.208496,939.444336 895.813049,932.898193 
	C900.910889,929.751343 906.136841,926.812012 911.947876,923.409729 
M219.714920,931.825073 
	C233.376541,940.321228 246.607376,939.782715 259.864685,930.573914 
	C265.579987,926.603882 271.969910,923.600098 278.077576,920.200867 
	C296.603424,909.890137 303.931915,882.225159 292.968689,864.041321 
	C288.329193,856.346252 283.628265,848.682800 279.211426,840.860352 
	C274.528381,832.566467 267.773956,827.063904 258.556488,824.773987 
	C254.371094,823.734192 250.096252,822.783569 245.811554,822.459717 
	C222.979324,820.733765 204.598526,828.278748 192.618195,848.668701 
	C191.016373,851.394836 189.444183,854.145813 188.014908,856.964722 
	C175.665680,881.320679 182.696396,908.141968 205.420166,923.152954 
	C209.861526,926.086914 214.519028,928.693665 219.714920,931.825073 
M1179.434448,796.136169 
	C1176.416260,792.619385 1173.132935,789.293396 1170.434082,785.546631 
	C1164.552979,777.381897 1157.378174,771.191589 1147.015991,770.251038 
	C1140.781128,769.685181 1134.355347,769.318665 1128.204224,770.192383 
	C1119.557129,771.420593 1110.837280,773.161743 1102.599365,775.994324 
	C1091.306641,779.877197 1086.292358,791.233276 1078.090210,798.857605 
	C1077.229614,799.657654 1076.899902,801.255737 1076.730103,802.537415 
	C1074.829956,816.873901 1072.407349,831.258057 1077.074829,845.506165 
	C1079.990967,854.407898 1082.984497,863.294678 1093.454956,866.557922 
	C1095.648560,867.241516 1097.660156,869.292297 1099.186035,871.174805 
	C1102.637451,875.433350 1106.913208,877.797302 1112.305542,878.552063 
	C1115.753662,879.034668 1119.112305,880.144836 1122.558228,880.656250 
	C1132.898193,882.190918 1143.464600,884.781860 1151.988403,875.577332 
	C1152.528198,874.994324 1153.386719,874.398254 1154.128052,874.356201 
	C1164.379761,873.775146 1170.007690,867.215088 1174.385864,858.939270 
	C1174.840454,858.079895 1175.616333,857.359497 1176.341187,856.678955 
	C1180.724121,852.564148 1182.730225,847.605835 1182.608154,841.517456 
	C1182.553345,838.788269 1183.337036,835.884521 1184.376587,833.317749 
	C1189.678711,820.227539 1185.889282,808.335144 1179.434448,796.136169 
M1142.634766,241.717682 
	C1143.836182,241.154816 1145.275513,240.847107 1146.198975,239.986115 
	C1150.848755,235.650848 1156.323975,233.418991 1162.493652,231.974014 
	C1165.163086,231.348831 1167.569702,228.527176 1169.536621,226.225449 
	C1172.542969,222.707245 1175.417114,218.974152 1177.687866,214.959305 
	C1179.735718,211.338593 1181.131836,207.290207 1182.384399,203.295380 
	C1183.610962,199.383301 1184.257080,195.291855 1185.229858,191.296631 
	C1185.736816,189.214554 1187.042480,187.119446 1186.884888,185.116943 
	C1185.923706,172.897919 1185.999756,160.227081 1174.791626,151.650024 
	C1173.640869,150.769302 1172.747925,149.435867 1172.004639,148.156097 
	C1163.279297,133.133377 1150.012451,127.714027 1133.232422,129.817825 
	C1126.151123,130.705627 1119.105835,131.877609 1112.029907,132.811630 
	C1104.288086,133.833542 1097.740967,137.360626 1092.402100,142.809509 
	C1083.121582,152.281372 1074.961670,161.797913 1074.598145,176.772705 
	C1074.237061,191.652084 1074.339722,206.487885 1083.228760,218.302414 
	C1089.269897,226.331558 1098.685913,233.070953 1108.016357,237.041290 
	C1118.329224,241.429642 1130.136353,243.017807 1142.634766,241.717682 
M477.044495,879.311890 
	C480.455261,880.052124 483.832855,881.102478 487.283295,881.471619 
	C495.901306,882.393433 504.519165,883.488708 511.527405,876.091553 
	C513.257751,874.265198 516.544434,873.547180 519.246399,873.086914 
	C524.245361,872.235168 527.664612,869.758362 530.220276,865.398315 
	C532.305420,861.840942 534.847961,858.490784 537.570068,855.383728 
	C540.679321,851.834900 542.216797,847.989197 542.568359,843.243408 
	C542.868469,839.191345 544.282776,835.216675 545.262939,831.222168 
	C545.773621,829.140991 547.045776,827.040710 546.887024,825.035034 
	C545.919739,812.811340 545.944763,800.162231 534.743591,791.576111 
	C533.345947,790.504761 532.367737,788.795898 531.417175,787.246338 
	C525.325439,777.315979 516.975891,770.745056 505.010254,769.967529 
	C499.581909,769.614746 494.009735,769.311707 488.677948,770.128845 
	C480.032257,771.453735 471.282227,772.982727 463.028534,775.766479 
	C451.542511,779.640381 446.372925,791.089478 438.090546,798.855652 
	C437.231750,799.661011 436.900513,801.253662 436.730560,802.534790 
	C434.829407,816.866089 432.409149,831.243835 437.070251,845.488770 
	C439.982605,854.389343 442.952545,863.331787 453.442474,866.508484 
	C455.224426,867.048035 457.054504,868.503052 458.151489,870.041809 
	C462.622040,876.312866 468.964050,878.553528 477.044495,879.311890 
M542.702393,161.030472 
	C539.108398,156.711624 534.918640,152.755081 532.030945,148.006714 
	C523.000549,133.157440 509.887878,127.686592 493.108398,129.827225 
	C486.357330,130.688507 479.464203,131.120178 472.940033,132.877258 
	C466.815979,134.526566 460.298859,136.633469 455.391907,140.407608 
	C449.028229,145.302139 444.019409,151.985901 438.594025,158.048584 
	C437.559631,159.204544 436.951263,161.006012 436.736298,162.589737 
	C434.791016,176.920410 432.429932,191.307236 437.085449,205.549240 
	C439.996552,214.454849 443.028351,223.283829 453.482391,226.603561 
	C455.946411,227.386017 457.648010,230.319016 459.973114,231.847931 
	C463.484222,234.156647 467.054138,236.569031 470.934937,238.067581 
	C474.763458,239.545929 478.976624,240.167053 483.078979,240.769867 
	C493.268494,242.267181 503.680908,244.626404 512.013245,235.554977 
	C512.549316,234.971359 513.415039,234.382721 514.157043,234.342529 
	C524.430176,233.786148 529.986145,227.151611 534.418396,218.924881 
	C535.110901,217.639450 536.296143,216.592422 537.354248,215.535980 
	C540.832520,212.063034 542.307617,207.938889 542.570984,202.993851 
	C542.769470,199.266541 544.208313,195.618073 544.928467,191.902206 
	C545.674988,188.049591 547.041931,184.076996 546.669067,180.301865 
	C546.052490,174.058167 544.257690,167.930817 542.702393,161.030472 
M981.085632,1018.365356 
	C990.270935,1028.471924 1001.795227,1035.048218 1014.339478,1039.886841 
	C1023.667603,1043.485107 1033.125000,1042.772461 1042.019775,1038.434204 
	C1049.489990,1034.790894 1056.692383,1030.567139 1063.857788,1026.337036 
	C1074.302368,1020.171204 1080.165161,1010.867615 1081.698364,998.867798 
	C1082.098999,995.732483 1082.259644,992.561401 1082.419189,989.401123 
	C1083.479004,968.423035 1076.903809,950.980896 1058.603027,939.278625 
	C1053.007568,935.700684 1047.105713,932.527466 1041.102783,929.677612 
	C1030.618652,924.700623 1020.077271,925.080078 1009.921631,930.762573 
	C1002.218811,935.072449 994.216858,939.052429 987.200806,944.315918 
	C982.183655,948.079773 976.675476,953.050354 974.685425,958.654053 
	C967.459290,979.001709 967.792419,999.187439 981.085632,1018.365356 
M1076.093506,317.486481 
	C1067.819946,302.819275 1053.933838,295.335541 1039.279907,288.941803 
	C1029.656982,284.743134 1020.002563,285.359528 1010.846497,290.306610 
	C1002.645386,294.737671 994.602661,299.488739 986.690796,304.420807 
	C978.493958,309.530457 973.559875,317.066620 971.889771,326.607208 
	C971.230652,330.372498 970.627075,334.180237 970.441833,337.990234 
	C969.498474,357.392639 973.374146,374.990753 990.519714,386.860321 
	C996.655823,391.108246 1003.226868,394.835724 1009.926270,398.137512 
	C1020.720398,403.457306 1031.903931,403.569916 1042.685547,398.120239 
	C1050.696045,394.071228 1058.509888,389.564911 1066.095703,384.763519 
	C1073.374023,380.156769 1078.444336,373.532928 1080.354980,364.978394 
	C1083.925781,348.991089 1083.857544,333.244812 1076.093506,317.486481 
M762.354004,556.756104 
	C748.783813,560.184387 735.661316,565.856018 728.190918,577.591187 
	C722.611267,586.356323 719.519897,597.682068 718.613586,608.152588 
	C717.813538,617.395874 721.114014,627.152588 723.548523,636.434875 
	C724.453369,639.884644 727.894104,642.759888 730.445068,645.662842 
	C733.240356,648.843811 736.818176,651.428101 739.183655,654.871033 
	C741.709412,658.547363 744.598572,660.914673 748.921814,661.962646 
	C753.260864,663.014404 757.571350,664.318848 761.733276,665.928833 
	C766.101257,667.618652 770.216003,667.971375 774.825745,666.611023 
	C778.555237,665.510437 782.634521,665.554504 786.568787,665.204529 
	C788.704956,665.014526 791.122375,665.679077 792.967346,664.901184 
	C804.271179,660.135559 816.236267,656.096191 820.896484,642.817688 
	C821.483521,641.145020 822.674438,639.604858 823.851685,638.231323 
	C834.630798,625.654297 835.312744,611.827271 828.745361,597.273865 
	C825.743530,590.621704 822.158630,584.233398 818.858948,577.714905 
	C814.775940,569.648926 808.241272,564.458679 800.199585,560.492920 
	C788.566589,554.756104 776.907532,551.319214 764.143005,556.335632 
	C763.836792,556.455994 763.495850,556.487732 762.354004,556.756104 
M391.859436,1041.630859 
	C403.775543,1039.320190 413.577148,1032.553467 423.698395,1026.479370 
	C434.076904,1020.250977 440.103241,1011.100281 441.655975,999.088745 
	C442.082336,995.790649 442.292480,992.456543 442.441376,989.131836 
	C443.361176,968.597717 437.094330,951.337646 419.211975,939.723450 
	C413.507202,936.018372 407.471924,932.747925 401.341614,929.788818 
	C390.713745,924.658752 380.031891,925.064575 369.722137,930.858521 
	C362.175690,935.099548 354.689941,939.460083 347.314453,943.990845 
	C338.767670,949.241089 333.533661,956.901917 331.842743,966.833740 
	C331.201324,970.601196 330.635864,974.405823 330.409546,978.215759 
	C329.047333,1001.151245 336.214325,1019.742065 357.273651,1031.507324 
	C367.827301,1037.403320 378.202148,1043.418579 391.859436,1041.630859 
M189.249207,598.320068 
	C186.099945,592.097412 182.789124,585.950195 179.838135,579.634888 
	C175.043961,569.374939 166.762161,563.776489 156.684158,558.993469 
	C146.308517,554.069153 136.768494,553.203918 125.720184,555.899780 
	C110.658730,559.574829 96.360992,565.207397 87.865913,578.007996 
	C82.242203,586.481873 79.467606,597.839844 78.594856,608.175049 
	C77.826553,617.273438 80.939758,626.888977 83.420845,635.980835 
	C84.438271,639.709167 88.147583,642.793335 90.908524,645.927185 
	C93.173317,648.497925 96.776634,650.266846 98.153999,653.166626 
	C101.432945,660.069885 107.241676,661.828064 113.853973,662.951294 
	C120.113556,664.014587 125.413284,669.357117 132.430557,667.153137 
	C133.064453,666.954102 133.707199,666.732788 134.361465,666.657349 
	C138.607101,666.167908 142.853302,665.676453 147.107315,665.269409 
	C149.079453,665.080566 151.305069,665.632385 153.013458,664.904358 
	C164.300140,660.094055 176.277267,656.067688 180.912369,642.769897 
	C181.495270,641.097595 182.700562,639.561768 183.882446,638.191284 
	C194.113129,626.328064 195.093262,613.147766 189.249207,598.320068 
M386.501282,401.979492 
	C391.813568,400.764252 397.466095,400.318268 402.358826,398.154358 
	C409.783325,394.870819 416.762634,390.533783 423.781494,386.390869 
	C434.213318,380.233490 440.133057,370.975800 441.678284,358.977203 
	C442.102997,355.678986 442.309204,352.344421 442.452484,349.019531 
	C443.337433,328.482025 437.024597,311.236511 419.124298,299.662567 
	C413.273407,295.879486 407.095459,292.511047 400.788757,289.544739 
	C390.475586,284.694031 380.066742,285.121246 370.079468,290.682922 
	C362.372375,294.974762 354.745667,299.424927 347.232056,304.046661 
	C338.686829,309.302948 333.500702,316.999146 331.822021,326.928497 
	C331.212708,330.532593 330.791046,334.174347 330.429260,337.813385 
	C326.672607,375.599976 354.114899,396.747620 386.501282,401.979492 
M824.570374,1114.615601 
	C825.983154,1116.243652 827.623474,1117.726196 828.772644,1119.522827 
	C837.768188,1133.586548 848.906921,1144.020264 866.489868,1146.854248 
	C879.051453,1148.879028 891.351257,1149.931641 902.234558,1143.097290 
	C910.327881,1138.015015 917.438110,1131.425903 923.473083,1123.374268 
	C938.324341,1103.560059 934.094971,1075.206787 922.383240,1058.867188 
	C915.878479,1049.791992 907.142456,1041.678223 894.997070,1039.415649 
	C893.078247,1039.058228 891.342651,1037.766479 889.425964,1037.338867 
	C885.291382,1036.416504 881.096008,1035.186768 876.922058,1035.173218 
	C872.145569,1035.157715 867.230957,1035.837402 862.622253,1037.107300 
	C857.409058,1038.543701 851.592834,1039.909790 847.603821,1043.202515 
	C840.659241,1048.934570 834.915771,1056.121704 828.667480,1062.697632 
	C821.768677,1069.958374 820.103394,1079.289185 819.777283,1088.570190 
	C819.555237,1094.888428 821.599121,1101.293823 822.707092,1107.646851 
	C823.077148,1109.768433 823.686829,1111.848145 824.570374,1114.615601 
M908.521301,405.984406 
	C906.978455,404.724579 905.626404,402.856506 903.862061,402.303162 
	C892.002136,398.583801 880.597839,391.920624 867.366394,396.357147 
	C860.958130,398.505859 853.472229,398.990570 848.227844,402.704742 
	C839.949768,408.567535 832.224487,415.724884 827.112854,424.850647 
	C824.636230,429.272095 822.887939,434.132050 821.104553,438.903625 
	C818.788757,445.100067 820.637512,451.179871 821.570923,457.425995 
	C822.742676,465.266846 823.238770,472.530640 828.474304,479.635315 
	C838.362000,493.052917 848.837219,503.958466 866.408630,506.835236 
	C878.973572,508.892365 890.879150,509.351440 902.267212,503.278748 
	C905.522339,501.542908 907.878296,498.197754 910.995605,496.112213 
	C921.000854,489.418549 927.523926,479.972900 930.603638,468.746063 
	C934.766479,453.570648 933.362671,438.842590 925.419495,424.537933 
	C921.218628,416.972595 915.772888,411.342560 908.521301,405.984406 
M183.224335,430.957062 
	C181.062988,439.086426 178.810150,446.824890 181.271835,455.755951 
	C183.503525,463.852570 182.925385,472.098297 188.558624,479.879974 
	C198.864685,494.116608 210.365723,504.593628 228.614151,507.258362 
	C240.421768,508.982605 251.468613,508.869629 262.032440,503.391022 
	C265.446411,501.620453 267.942505,498.163879 271.206757,496.005188 
	C280.818787,489.648529 287.036865,480.512665 290.234070,469.952698 
	C294.904785,454.525970 293.583710,439.454651 285.531281,424.770874 
	C281.456055,417.339661 275.896973,412.109741 269.826385,406.734039 
	C265.086792,402.537079 259.604523,400.790283 253.867493,399.108459 
	C249.296326,397.768433 244.640503,394.717773 240.258682,395.104553 
	C226.888321,396.284851 213.410004,396.731567 202.444489,407.393066 
	C195.194489,414.442078 189.167648,422.083923 183.224335,430.957062 
M240.518539,1149.004150 
	C247.728912,1147.162476 255.116760,1145.807007 262.072479,1143.267700 
	C265.397278,1142.053955 267.707336,1138.306396 270.813751,1136.204102 
	C281.204498,1129.171875 287.927246,1119.425049 290.909851,1107.511353 
	C294.608551,1092.737427 292.841553,1078.684326 285.567230,1064.721436 
	C280.343140,1054.693970 272.778229,1047.154297 263.638336,1042.627319 
	C252.494003,1037.107422 240.222244,1031.855591 226.856018,1036.460327 
	C220.484207,1038.655640 213.106888,1039.336060 207.867508,1043.066162 
	C201.015793,1047.943970 195.875259,1055.205933 189.913727,1061.359863 
	C184.744171,1066.696411 182.134399,1073.059692 180.723831,1080.333008 
	C179.670837,1085.762573 180.587723,1090.635742 181.383453,1095.921875 
	C182.686920,1104.580811 182.769547,1112.932129 188.949814,1120.482910 
	C195.396133,1128.358643 201.068787,1137.320801 210.437912,1141.302856 
	C219.605637,1145.199341 229.863937,1146.529907 240.518539,1149.004150 
M1258.920532,644.523560 
	C1257.834839,640.174255 1256.768433,635.819946 1255.659912,631.476440 
	C1252.353638,618.522156 1236.779419,605.776306 1223.339478,605.210083 
	C1216.067871,604.903625 1208.690308,605.577332 1201.534668,604.571350 
	C1196.420288,603.852173 1192.058350,603.989868 1187.764771,606.821106 
	C1179.875854,612.023254 1171.596313,616.707458 1164.134521,622.457520 
	C1158.936401,626.463013 1153.936401,631.525940 1153.407837,638.697571 
	C1152.437134,651.867065 1146.504517,665.013123 1152.973511,678.306335 
	C1153.668335,679.734314 1153.197266,681.725159 1153.879517,683.164490 
	C1154.837158,685.184387 1156.112549,687.196228 1157.706909,688.742737 
	C1161.369995,692.296021 1165.428711,695.440552 1169.108765,698.977722 
	C1176.204590,705.797913 1182.156006,714.524963 1194.132080,712.357788 
	C1195.784180,712.058838 1197.657593,713.280029 1199.464111,713.485901 
	C1206.536743,714.291992 1214.194458,717.050110 1220.592407,715.291077 
	C1236.500366,710.917297 1250.712769,703.211426 1255.297729,685.132385 
	C1255.658081,683.711243 1256.409668,682.319397 1257.250854,681.101501 
	C1262.689331,673.227783 1262.562500,664.510193 1261.156616,655.626404 
	C1260.611572,652.181824 1259.734985,648.789612 1258.920532,644.523560 
M516.849182,630.437683 
	C515.677063,633.148621 513.667664,635.801697 513.475342,638.580444 
	C512.563782,651.754639 506.495789,664.905457 512.976562,678.195618 
	C513.528931,679.328308 513.002136,681.012939 513.604248,682.090515 
	C515.004883,684.596985 516.507812,687.160767 518.482422,689.205688 
	C521.565063,692.397949 525.160217,695.087891 528.382507,698.154236 
	C535.702454,705.119995 541.543823,714.591187 554.044739,712.340393 
	C555.699646,712.042419 557.575256,713.301575 559.381042,713.452209 
	C567.094971,714.096069 574.921509,715.639099 582.520081,714.909241 
	C594.944031,713.715942 601.976257,702.889587 611.444336,696.383423 
	C612.300659,695.795044 612.734741,694.465454 613.160706,693.398560 
	C615.612122,687.259033 618.178955,681.155945 620.331787,674.911194 
	C621.289001,672.134521 622.131836,668.941895 621.713623,666.133545 
	C620.005981,654.666260 618.194031,643.184143 615.659180,631.878235 
	C612.623047,618.335999 596.994934,605.796692 583.215942,605.203979 
	C575.943542,604.891113 568.577209,605.499573 561.405212,604.547668 
	C556.492188,603.895569 552.192566,603.831177 548.091675,606.656128 
	C542.213562,610.705200 536.251160,614.644409 530.535706,618.913086 
	C525.949585,622.338257 521.677124,626.183472 516.849182,630.437683 
M655.539856,798.024780 
	C652.631104,801.166748 648.999084,803.897888 646.940063,807.522583 
	C638.442078,822.482910 637.476196,838.287354 642.354553,854.742554 
	C650.366211,881.766541 672.471619,894.673157 698.851074,895.074707 
	C710.987183,895.259399 720.706421,888.684387 729.912964,881.687439 
	C746.424316,869.138916 757.632568,846.071777 748.980530,822.869385 
	C737.483643,792.037598 716.930603,778.731323 685.194641,783.036316 
	C673.777283,784.585083 664.934570,791.004761 655.539856,798.024780 
M744.055359,171.481964 
	C734.703369,154.147781 720.777771,144.271942 700.676636,142.099548 
	C680.523682,139.921555 653.942688,153.629303 645.581604,169.863174 
	C638.663391,183.295746 638.410095,197.525589 641.645447,212.559128 
	C649.196472,247.645691 695.426331,268.706268 726.653625,244.478867 
	C737.519897,236.048370 745.372070,225.997498 749.985657,213.486328 
	C755.343689,198.956406 750.540527,185.351807 744.055359,171.481964 
M1125.483398,1091.917236 
	C1119.687378,1090.027588 1113.989624,1087.723877 1108.078003,1086.320923 
	C1083.946167,1080.594604 1060.626343,1093.262085 1049.042725,1109.962158 
	C1039.393311,1123.873657 1039.092529,1140.115479 1043.674683,1156.504272 
	C1051.392944,1184.109985 1071.954590,1196.878540 1097.242310,1197.837646 
	C1118.180664,1198.631958 1133.598267,1186.602661 1144.925293,1169.704712 
	C1151.026978,1160.602051 1155.432495,1150.465942 1153.638672,1139.165527 
	C1150.606201,1120.062622 1142.391724,1103.743896 1125.483398,1091.917236 
M1048.523560,470.121185 
	C1040.500244,484.886353 1039.204346,500.203735 1043.635742,516.438721 
	C1051.130371,543.896423 1073.063721,557.212646 1099.657471,558.063416 
	C1112.006226,558.458435 1121.922974,551.891296 1131.268799,544.795349 
	C1148.008789,532.085449 1159.982056,508.727844 1150.112427,484.703430 
	C1142.157104,465.338745 1131.062378,450.248413 1108.430908,446.089264 
	C1084.514893,441.694031 1063.159302,452.566925 1048.523560,470.121185 
M432.830841,1090.199097 
	C420.333893,1098.392456 407.002838,1105.648926 403.316925,1122.174805 
	C400.729553,1133.775513 400.410950,1145.016602 403.663513,1156.635986 
	C411.330688,1184.026489 432.778656,1197.569336 458.847443,1197.850952 
	C478.355377,1198.061523 493.012451,1186.728516 503.873291,1171.256592 
	C508.065521,1165.284546 511.385803,1158.043457 512.814392,1150.921509 
	C516.049255,1134.794434 510.034576,1120.490601 501.077240,1107.358398 
	C495.554871,1099.262329 488.851929,1092.088989 479.353394,1088.931763 
	C464.086182,1083.857544 448.672333,1083.332153 432.830841,1090.199097 
M446.288635,556.141846 
	C450.366943,556.819946 454.429230,557.945801 458.526581,558.092651 
	C471.096344,558.543152 481.185150,552.302551 490.754547,545.178528 
	C507.998199,532.341248 519.798889,508.882782 510.075500,484.355316 
	C498.171387,454.326996 477.904022,441.571991 446.285980,446.093170 
	C435.651215,447.613861 427.398651,453.660461 418.890686,459.618378 
	C412.294037,464.237854 407.692535,469.998688 404.952637,477.320374 
	C392.660583,510.167999 410.539917,550.592957 446.288635,556.141846 
M364.071228,749.723938 
	C365.888184,747.133240 367.824127,744.614929 369.466736,741.918030 
	C370.179810,740.747253 370.732422,739.164368 370.599579,737.844971 
	C369.849945,730.398682 369.353302,722.873047 367.806305,715.578979 
	C366.690216,710.316467 364.485901,705.160400 362.015442,700.342163 
	C359.146881,694.747681 355.541321,689.518738 352.071869,684.252197 
	C351.046722,682.696106 349.621857,681.104492 347.998322,680.294556 
	C341.768646,677.186523 335.408173,674.334534 329.040009,671.514587 
	C327.414246,670.794678 325.585297,670.526001 323.841888,670.080688 
	C315.344452,667.910217 307.989380,672.482605 300.090546,673.945312 
	C289.015472,675.996216 279.964813,681.170044 273.500275,690.102844 
	C265.604187,701.013855 254.892639,711.166138 259.967773,726.966553 
	C260.209045,727.717712 260.071930,728.636230 259.947479,729.451843 
	C258.815186,736.874573 260.771881,743.585388 264.445068,749.969910 
	C265.937073,752.563293 267.262115,755.269897 268.455505,758.015198 
	C277.335266,778.442444 301.563293,784.289551 317.631561,783.447876 
	C326.474213,782.984802 333.639282,778.192200 341.601074,775.453857 
	C348.247681,773.167969 353.518829,769.337585 357.294006,763.791260 
	C360.051544,759.739990 361.610077,754.872620 364.071228,749.723938 
M898.500916,716.413513 
	C898.999084,720.538086 900.277710,724.749146 899.832153,728.769104 
	C898.920410,736.993835 901.170715,744.183289 905.030701,751.161499 
	C906.399780,753.636475 907.686646,756.166809 908.846924,758.745667 
	C917.720703,778.467834 941.283997,784.036926 956.962952,783.542297 
	C967.038818,783.224304 975.188904,777.625366 984.167542,774.274902 
	C992.357971,771.218628 997.213013,765.131653 1000.824524,757.480835 
	C1003.841125,751.090332 1009.153748,745.295837 1010.359558,738.674683 
	C1011.580566,731.969482 1009.324524,724.513611 1007.993164,717.500061 
	C1007.011230,712.327637 1006.216187,706.529602 1003.328003,702.424316 
	C995.904236,691.871887 991.666016,677.674377 975.925781,675.445190 
	C975.314758,675.358704 974.745544,674.843018 974.197205,674.468201 
	C965.679077,668.647217 956.689453,668.185852 947.220764,671.871460 
	C944.286194,673.013733 941.221619,674.005798 938.125854,674.515869 
	C928.604309,676.084595 920.817322,680.774902 915.175171,688.301392 
	C909.211853,696.256348 904.105042,704.855408 898.693481,713.217957 
	C898.293884,713.835510 898.454773,714.815735 898.500916,716.413513 
M990.744568,41.693901 
	C982.961182,37.997837 975.192993,34.269180 967.375854,30.645840 
	C966.368469,30.178873 965.086182,30.346014 963.968323,30.069628 
	C955.475342,27.969797 948.112915,32.487984 940.208740,33.896622 
	C928.309753,36.017208 918.962280,41.978992 912.270630,51.508331 
	C904.925232,61.968628 894.898865,71.886330 899.976318,86.839493 
	C900.178894,87.435997 900.083252,88.176720 899.980835,88.827316 
	C898.729675,96.776459 900.873413,103.941711 904.836792,110.752579 
	C906.341309,113.337944 907.636292,116.057457 908.867249,118.787804 
	C917.748291,138.486526 941.388428,144.057602 957.017944,143.535004 
	C967.622009,143.180435 976.169678,137.205750 985.597473,133.649368 
	C992.504211,131.043961 996.670715,125.515663 1000.023682,119.239906 
	C1002.986938,113.693466 1006.048828,108.199524 1008.989441,102.641296 
	C1009.729736,101.241966 1010.784241,99.627563 1010.650574,98.210495 
	C1009.916565,90.430016 1009.304688,82.589340 1007.751709,74.952187 
	C1006.744995,70.001389 1004.625671,65.138420 1002.243713,60.639072 
	C998.910278,54.342636 994.867920,48.421516 990.744568,41.693901 
M364.992798,65.629333 
	C360.327789,57.793663 355.702942,49.933395 350.941833,42.156548 
	C350.405548,41.280609 349.158325,40.750584 348.140778,40.273212 
	C341.685638,37.244713 335.224335,34.226860 328.711609,31.325445 
	C327.237152,30.668577 325.552002,30.484104 323.963440,30.083803 
	C315.475311,27.944857 308.113251,32.492329 300.209564,33.896786 
	C288.308411,36.011574 278.964874,41.979229 272.273071,51.506062 
	C264.926880,61.964542 254.900894,71.880936 259.972351,86.833504 
	C260.174622,87.429817 260.076721,88.170471 259.974304,88.821136 
	C258.722870,96.770164 260.870911,103.933907 264.833221,110.744057 
	C266.337372,113.329330 267.632599,116.048538 268.862579,118.778976 
	C277.730743,138.465210 301.339813,144.062988 317.001862,143.532959 
	C327.772644,143.168472 336.461060,137.082581 346.035065,133.448837 
	C352.583771,130.963333 356.560913,125.610451 359.822113,119.714607 
	C362.945282,114.068275 365.960449,108.361877 368.990295,102.664467 
	C369.671265,101.383904 370.903473,99.923271 370.716248,98.728119 
	C369.023468,87.921349 367.071259,77.155212 364.992798,65.629333 
M607.873840,1031.332764 
	C606.688171,1036.180176 605.428650,1041.011230 604.359131,1045.884155 
	C604.011414,1047.468506 603.629089,1049.364136 604.165527,1050.773804 
	C608.920898,1063.270386 612.361938,1076.106079 621.027832,1087.152832 
	C628.054199,1096.109497 635.318848,1102.234131 646.860901,1102.853149 
	C652.460083,1103.153687 658.077271,1105.002930 663.586487,1104.639038 
	C671.177734,1104.137573 678.688171,1102.275757 686.200439,1100.827026 
	C687.729126,1100.532227 689.614075,1099.866211 690.484863,1098.723633 
	C698.985840,1087.569214 708.562866,1077.413330 712.668518,1063.071655 
	C715.492920,1053.205322 716.502319,1044.700073 711.448914,1035.641235 
	C708.799988,1030.892578 707.564819,1025.234253 704.427185,1020.902100 
	C694.851257,1007.680847 682.667664,997.746338 666.319519,993.863098 
	C665.038879,993.558899 663.877930,992.678955 662.595825,992.471375 
	C661.026245,992.217285 659.225281,991.937866 657.803772,992.448120 
	C643.544922,997.566223 629.671326,1003.147278 618.214722,1013.831055 
	C613.005920,1018.688477 608.557678,1023.179688 607.873840,1031.332764 
M617.906189,374.415771 
	C611.739929,377.854858 608.938354,383.349396 608.042297,390.143799 
	C607.696167,392.768494 607.081116,395.414459 606.170654,397.897491 
	C603.320496,405.670135 603.913696,413.059662 607.483337,420.523315 
	C610.265076,426.339966 611.693665,432.894806 615.002869,438.344879 
	C619.039612,444.993011 624.381897,450.854553 629.241638,456.991241 
	C630.129272,458.112152 631.304871,459.579590 632.525085,459.774261 
	C645.845825,461.899353 658.612793,466.342590 672.846191,463.564636 
	C684.504272,461.289307 693.852173,457.870117 699.788635,447.147614 
	C702.419556,442.395538 706.501770,438.372070 708.686646,433.466278 
	C711.649902,426.812714 713.527405,419.660614 715.635925,412.651794 
	C716.168274,410.882080 716.340576,408.669250 715.776733,406.956970 
	C710.849792,391.994171 704.750916,377.684509 692.100830,367.303802 
	C691.080933,366.466919 690.384216,365.234772 689.360596,364.404083 
	C687.838989,363.169220 686.296753,361.796875 684.523254,361.063965 
	C677.451050,358.141388 670.327271,355.328217 663.124878,352.747253 
	C661.416260,352.135010 659.131348,352.026245 657.446472,352.626312 
	C643.327698,357.654633 629.209106,362.760590 617.906189,374.415771 
z"/>
<path fill="#FAF7C0" opacity="1.000000" stroke="none" 
	d="
M1.000000,181.468658 
	C8.981771,156.205811 27.732382,144.129272 52.032696,142.487946 
	C80.282906,140.579834 97.193359,152.351471 108.895126,182.765152 
	C117.820694,205.963318 106.536087,228.932114 90.025780,241.597565 
	C81.398010,248.216156 72.283157,254.571793 60.993454,254.919373 
	C33.109657,255.777802 8.635187,241.418808 1.247582,211.269226 
	C1.000000,201.312439 1.000000,191.624878 1.000000,181.468658 
z"/>
<path fill="#FAF7C0" opacity="1.000000" stroke="none" 
	d="
M1.000000,821.468628 
	C8.984522,796.208557 27.739754,784.133850 52.034145,782.488892 
	C80.280518,780.576416 97.193748,792.352112 108.895706,822.766602 
	C117.827698,845.981750 106.510117,868.957764 90.024773,881.599060 
	C81.395607,888.216003 72.281601,894.572083 60.991661,894.919556 
	C33.106323,895.777832 8.631981,881.416382 1.247586,851.269226 
	C1.000000,841.312439 1.000000,831.624878 1.000000,821.468628 
z"/>
<path fill="#F8C0AB" opacity="1.000000" stroke="none" 
	d="
M85.468658,1281.000000 
	C82.690140,1269.984009 78.316788,1258.901001 78.671013,1247.971313 
	C79.002136,1237.754150 82.314995,1226.339844 87.963066,1217.890869 
	C96.491798,1205.132812 110.782234,1199.543945 125.835503,1195.875610 
	C136.902100,1193.178711 146.427612,1194.106201 156.765793,1199.037964 
	C166.643951,1203.750366 174.889481,1209.160645 179.629730,1219.256470 
	C182.095779,1224.508545 185.037827,1229.534790 187.637146,1234.727051 
	C195.836838,1251.106201 194.824020,1266.431030 182.120300,1280.685059 
	C149.979111,1281.000000 117.958214,1281.000000 85.468658,1281.000000 
z"/>
<path fill="#F8C0AB" opacity="1.000000" stroke="none" 
	d="
M725.468628,1281.000000 
	C722.690918,1269.983765 718.318481,1258.900635 718.673157,1247.970947 
	C719.004761,1237.753052 722.346069,1226.371704 727.961243,1217.882812 
	C736.338623,1205.218384 750.482910,1199.555054 765.360596,1196.003052 
	C776.251587,1193.402832 785.855286,1193.697632 796.326538,1198.820190 
	C806.470276,1203.782593 815.023804,1209.246094 819.873840,1219.693726 
	C822.246582,1224.804932 825.114990,1229.683594 827.638855,1234.727539 
	C835.835144,1251.108032 834.827881,1266.432007 822.120239,1280.685059 
	C789.979126,1281.000000 757.958191,1281.000000 725.468628,1281.000000 
z"/>
<path fill="#F7EF6B" opacity="1.000000" stroke="none" 
	d="
M618.531372,1.000001 
	C619.426025,4.595149 619.530273,8.264434 620.338379,11.771561 
	C622.770752,22.327656 623.169434,32.543144 616.757385,42.023308 
	C616.112915,42.976101 615.552429,44.066788 615.274292,45.174183 
	C610.725098,63.289280 596.440002,70.911743 580.553528,75.295204 
	C574.162781,77.058556 566.502625,74.286407 559.432007,73.475883 
	C557.625732,73.268829 555.763428,72.068916 554.098206,72.347801 
	C540.944031,74.550705 535.060242,64.395470 527.473267,57.054276 
	C524.870667,54.535946 522.289856,51.860264 519.261230,49.951160 
	C515.516174,47.590412 513.560059,44.520271 513.194824,40.248669 
	C513.138123,39.584869 513.177734,38.897736 513.018127,38.260090 
	C510.286926,27.347551 507.265198,16.464046 513.460632,5.623180 
	C514.011353,4.659471 513.378784,3.019608 513.147888,1.346885 
	C548.020874,1.000000 583.041809,1.000000 618.531372,1.000001 
z"/>
<path fill="#F7EF6B" opacity="1.000000" stroke="none" 
	d="
M1258.531372,1.000000 
	C1259.427368,4.595728 1259.536621,8.264452 1260.341919,11.773467 
	C1262.763794,22.327587 1263.178345,32.545128 1256.757568,42.023136 
	C1256.112427,42.975380 1255.552490,44.066517 1255.274414,45.173897 
	C1250.725830,63.288250 1236.439453,70.909676 1220.556152,75.296829 
	C1214.166626,77.061707 1206.505371,74.287651 1199.434692,73.476768 
	C1197.628418,73.269630 1195.753540,72.050339 1194.103394,72.352379 
	C1182.108276,74.547974 1176.205444,65.739113 1169.098999,58.955544 
	C1165.406738,55.431099 1161.329712,52.304768 1157.702881,48.719135 
	C1156.021118,47.056587 1154.801636,44.822739 1153.752686,42.663269 
	C1153.130005,41.381374 1153.372192,39.708916 1153.012085,38.265251 
	C1150.290039,27.347067 1147.282959,16.465519 1153.460815,5.623346 
	C1154.010742,4.658177 1153.378784,3.019588 1153.147827,1.346893 
	C1188.020874,1.000000 1223.041870,1.000000 1258.531372,1.000000 
z"/>
<path fill="#F9CFE2" opacity="1.000000" stroke="none" 
	d="
M1.000000,999.468628 
	C13.718384,991.361450 26.266127,991.569092 39.304939,998.735046 
	C44.117962,1001.380249 48.517330,1004.024231 52.725189,1007.688843 
	C64.949661,1018.334961 70.738106,1032.459229 75.831848,1047.094116 
	C76.373474,1048.650146 76.249428,1050.696655 75.757446,1052.309326 
	C73.528397,1059.616211 71.673225,1067.135376 68.475830,1074.017090 
	C65.939224,1079.476562 61.331379,1083.932007 58.213688,1089.172729 
	C53.066494,1097.824951 45.689358,1101.354370 35.776695,1103.069458 
	C24.131975,1105.084229 13.070262,1104.493164 1.416152,1101.946777 
	C1.000000,1067.979126 1.000000,1033.958252 1.000000,999.468628 
z"/>
<path fill="#F9CFE2" opacity="1.000000" stroke="none" 
	d="
M1.000000,359.468658 
	C13.718150,351.361908 26.265547,351.568726 39.304470,358.734619 
	C44.117493,361.379761 48.516945,364.023468 52.724586,367.688202 
	C64.947975,378.334473 70.739151,392.456909 75.831352,407.092529 
	C76.372841,408.648773 76.249771,410.695160 75.757904,412.307617 
	C73.529045,419.614380 71.673950,427.133514 68.476669,434.015167 
	C65.940155,439.474640 61.331463,443.929565 58.215073,449.170776 
	C53.068623,457.826202 45.685982,461.350800 35.776241,463.068665 
	C24.131866,465.087219 13.070087,464.493408 1.416145,461.946716 
	C1.000000,427.979095 1.000000,393.958221 1.000000,359.468658 
z"/>
<path fill="#F7EF6B" opacity="1.000000" stroke="none" 
	d="
M513.468628,1281.000000 
	C514.122498,1271.212524 520.013733,1264.951904 528.035889,1260.003418 
	C534.660278,1255.917236 541.005188,1251.376465 547.453308,1247.006592 
	C551.846191,1244.029663 556.348999,1243.807861 561.664246,1244.595581 
	C568.802979,1245.653809 576.192139,1244.913330 583.462585,1245.215942 
	C596.870850,1245.773804 612.334351,1258.536133 615.702393,1271.576416 
	C616.449219,1274.467896 617.312195,1277.329468 618.060852,1280.602295 
	C583.312439,1281.000000 548.624878,1281.000000 513.468628,1281.000000 
z"/>
<path fill="#F7EF6B" opacity="1.000000" stroke="none" 
	d="
M1153.468628,1281.000000 
	C1154.118164,1271.209351 1160.020508,1264.955200 1168.036621,1260.004395 
	C1174.658813,1255.914062 1181.004639,1251.375244 1187.454102,1247.007080 
	C1191.846069,1244.032104 1196.348755,1243.806396 1201.664917,1244.595459 
	C1208.803223,1245.654785 1216.192871,1244.913574 1223.463257,1245.216064 
	C1236.871460,1245.773926 1252.334106,1258.535645 1255.702271,1271.576294 
	C1256.449097,1274.467773 1257.312134,1277.329224 1258.060791,1280.602295 
	C1223.312378,1281.000000 1188.624878,1281.000000 1153.468628,1281.000000 
z"/>
<path fill="#F9CFE2" opacity="1.000000" stroke="none" 
	d="
M1281.000000,1100.531372 
	C1275.201904,1101.257935 1270.197388,1099.900513 1267.111694,1094.393921 
	C1266.467407,1093.244263 1265.617188,1092.162109 1264.680542,1091.231323 
	C1253.633057,1080.253540 1249.225220,1065.874512 1244.393555,1051.715332 
	C1244.077026,1050.787720 1243.698730,1049.697021 1243.898682,1048.805420 
	C1245.973022,1039.556763 1248.151855,1030.331421 1250.341309,1021.109009 
	C1250.445923,1020.669189 1250.851440,1020.220276 1251.236328,1019.939148 
	C1260.846436,1012.918823 1268.581787,1003.259827 1280.663818,999.122192 
	C1281.000000,1032.687622 1281.000000,1066.375122 1281.000000,1100.531372 
z"/>
<path fill="#F9CFE2" opacity="1.000000" stroke="none" 
	d="
M1281.000000,460.531342 
	C1275.205444,461.249878 1270.195312,459.903687 1267.111084,454.393433 
	C1266.467407,453.243378 1265.617798,452.160492 1264.681030,451.229889 
	C1253.631104,440.253662 1249.226196,425.873322 1244.393311,411.714905 
	C1244.076538,410.787323 1243.698853,409.696625 1243.898804,408.804932 
	C1245.973022,399.556335 1248.151733,390.331085 1250.341309,381.108826 
	C1250.445679,380.668915 1250.851440,380.220306 1251.236328,379.938995 
	C1260.844482,372.915985 1268.584351,363.263184 1280.663818,359.122009 
	C1281.000000,392.687561 1281.000000,426.375122 1281.000000,460.531342 
z"/>
<path fill="#F8C0AB" opacity="1.000000" stroke="none" 
	d="
M820.531372,1.000000 
	C819.678711,7.273777 816.683472,12.461794 811.028320,15.760556 
	C806.436890,18.438799 801.903809,21.339113 797.019165,23.349724 
	C793.785889,24.680597 789.985474,24.676071 786.423645,25.155054 
	C782.511108,25.681202 778.575684,26.036934 774.661621,26.552725 
	C773.519104,26.703289 772.307556,27.611589 771.311279,27.380569 
	C765.247253,25.974430 759.295288,24.030321 753.191467,22.865561 
	C746.692322,21.625374 741.207886,19.662472 738.101562,13.018548 
	C736.866333,10.376497 733.865723,8.527567 731.572266,6.422863 
	C729.765503,4.764859 727.810608,3.268370 725.960754,1.350080 
	C757.354248,1.000000 788.708435,1.000000 820.531372,1.000000 
z"/>
<path fill="#F8C0AB" opacity="1.000000" stroke="none" 
	d="
M180.531342,1.000000 
	C179.664490,7.264684 176.685593,12.463811 171.027512,15.761443 
	C166.435013,18.438023 161.901810,21.337992 157.016998,23.348433 
	C153.783707,24.679153 149.985428,24.689552 146.421967,25.151150 
	C142.667038,25.637547 138.707962,25.377718 135.168259,26.492397 
	C130.402496,27.993168 126.143211,27.658440 121.607140,25.885592 
	C117.453804,24.262331 112.987610,23.436874 108.841667,21.798357 
	C106.012489,20.680231 102.433655,19.402536 101.052208,17.085777 
	C97.693924,11.453756 93.538460,7.042739 87.843414,3.920748 
	C87.038544,3.479520 86.553467,2.454929 85.960190,1.350175 
	C117.354225,1.000000 148.708450,1.000000 180.531342,1.000000 
z"/>
<path fill="#DCF0C8" opacity="1.000000" stroke="none" 
	d="
M1281.000000,847.531372 
	C1278.192139,840.266846 1278.624512,832.533569 1280.999512,824.400085 
	C1281.000000,831.687561 1281.000000,839.375183 1281.000000,847.531372 
z"/>
<path fill="#DCF0C8" opacity="1.000000" stroke="none" 
	d="
M1281.000000,207.531372 
	C1278.192017,200.266861 1278.627808,192.533585 1280.999512,184.400116 
	C1281.000000,191.687576 1281.000000,199.375168 1281.000000,207.531372 
z"/>
<path fill="#D28BBC" opacity="1.000000" stroke="none" 
	d="
M830.692505,269.237122 
	C817.355530,247.228821 820.302246,226.605164 834.030090,206.247284 
	C847.050293,186.938782 865.306763,180.615082 887.605957,182.600586 
	C903.741821,184.037308 915.505371,191.186096 922.293884,206.366257 
	C924.921997,212.243088 928.890320,217.529739 932.335999,223.030197 
	C944.210022,241.985352 936.940247,269.893372 917.381653,280.611115 
	C909.938721,284.689728 902.546692,288.870941 895.253052,293.209869 
	C885.074585,299.265015 874.753418,299.702972 864.356445,294.134186 
	C852.046326,287.540619 839.289062,281.487366 830.692505,269.237122 
z"/>
<path fill="#D28BBC" opacity="1.000000" stroke="none" 
	d="
M239.071564,182.156967 
	C244.983612,182.765289 250.496536,183.027588 255.861389,184.059555 
	C266.616028,186.128311 274.566345,192.100891 279.831085,201.871445 
	C283.771942,209.185013 288.175995,216.256683 292.544586,223.330582 
	C304.128510,242.088013 296.831604,269.894958 277.528015,280.521729 
	C270.097046,284.612518 262.693115,288.764130 255.417877,293.123291 
	C245.083282,299.315521 234.634735,299.679443 224.089035,294.011719 
	C217.793106,290.628052 211.529816,287.125122 205.555115,283.212708 
	C182.754288,268.281921 175.662399,241.415802 187.932938,217.131897 
	C189.207977,214.608566 190.595718,212.140121 191.988586,209.678696 
	C202.242050,191.559372 217.918701,182.612213 239.071564,182.156967 
z"/>
<path fill="#D28BBC" opacity="1.000000" stroke="none" 
	d="
M911.626343,923.594238 
	C906.136841,926.812012 900.910889,929.751343 895.813049,932.898193 
	C885.208496,939.444336 874.433777,939.702393 863.574036,933.786438 
	C857.438721,930.444336 851.329102,927.003967 845.492310,923.174438 
	C822.715210,908.230530 815.652710,881.310242 827.986755,857.031372 
	C829.418335,854.213379 830.979492,851.456543 832.579346,848.729309 
	C844.540894,828.337952 862.896667,820.782471 885.742310,822.426941 
	C889.049561,822.665039 892.345032,823.294006 895.602417,823.956116 
	C906.537659,826.179138 914.657166,832.098816 919.943054,842.087341 
	C923.441589,848.698242 927.291199,855.146912 931.340210,861.438721 
	C944.664856,882.144226 937.602722,909.866272 915.935730,921.335815 
	C914.611511,922.036682 913.277405,922.718872 911.626343,923.594238 
z"/>
<path fill="#D28BBC" opacity="1.000000" stroke="none" 
	d="
M219.395874,931.638184 
	C214.519028,928.693665 209.861526,926.086914 205.420166,923.152954 
	C182.696396,908.141968 175.665680,881.320679 188.014908,856.964722 
	C189.444183,854.145813 191.016373,851.394836 192.618195,848.668701 
	C204.598526,828.278748 222.979324,820.733765 245.811554,822.459717 
	C250.096252,822.783569 254.371094,823.734192 258.556488,824.773987 
	C267.773956,827.063904 274.528381,832.566467 279.211426,840.860352 
	C283.628265,848.682800 288.329193,856.346252 292.968689,864.041321 
	C303.931915,882.225159 296.603424,909.890137 278.077576,920.200867 
	C271.969910,923.600098 265.579987,926.603882 259.864685,930.573914 
	C246.607376,939.782715 233.376541,940.321228 219.395874,931.638184 
z"/>
<path fill="#F8C0AB" opacity="1.000000" stroke="none" 
	d="
M1179.681152,796.400452 
	C1185.889282,808.335144 1189.678711,820.227539 1184.376587,833.317749 
	C1183.337036,835.884521 1182.553345,838.788269 1182.608154,841.517456 
	C1182.730225,847.605835 1180.724121,852.564148 1176.341187,856.678955 
	C1175.616333,857.359497 1174.840454,858.079895 1174.385864,858.939270 
	C1170.007690,867.215088 1164.379761,873.775146 1154.128052,874.356201 
	C1153.386719,874.398254 1152.528198,874.994324 1151.988403,875.577332 
	C1143.464600,884.781860 1132.898193,882.190918 1122.558228,880.656250 
	C1119.112305,880.144836 1115.753662,879.034668 1112.305542,878.552063 
	C1106.913208,877.797302 1102.637451,875.433350 1099.186035,871.174805 
	C1097.660156,869.292297 1095.648560,867.241516 1093.454956,866.557922 
	C1082.984497,863.294678 1079.990967,854.407898 1077.074829,845.506165 
	C1072.407349,831.258057 1074.829956,816.873901 1076.730103,802.537415 
	C1076.899902,801.255737 1077.229614,799.657654 1078.090210,798.857605 
	C1086.292358,791.233276 1091.306641,779.877197 1102.599365,775.994324 
	C1110.837280,773.161743 1119.557129,771.420593 1128.204224,770.192383 
	C1134.355347,769.318665 1140.781128,769.685181 1147.015991,770.251038 
	C1157.378174,771.191589 1164.552979,777.381897 1170.434082,785.546631 
	C1173.132935,789.293396 1176.416260,792.619385 1179.681152,796.400452 
z"/>
<path fill="#F8C0AB" opacity="1.000000" stroke="none" 
	d="
M1142.215942,241.801239 
	C1130.136353,243.017807 1118.329224,241.429642 1108.016357,237.041290 
	C1098.685913,233.070953 1089.269897,226.331558 1083.228760,218.302414 
	C1074.339722,206.487885 1074.237061,191.652084 1074.598145,176.772705 
	C1074.961670,161.797913 1083.121582,152.281372 1092.402100,142.809509 
	C1097.740967,137.360626 1104.288086,133.833542 1112.029907,132.811630 
	C1119.105835,131.877609 1126.151123,130.705627 1133.232422,129.817825 
	C1150.012451,127.714027 1163.279297,133.133377 1172.004639,148.156097 
	C1172.747925,149.435867 1173.640869,150.769302 1174.791626,151.650024 
	C1185.999756,160.227081 1185.923706,172.897919 1186.884888,185.116943 
	C1187.042480,187.119446 1185.736816,189.214554 1185.229858,191.296631 
	C1184.257080,195.291855 1183.610962,199.383301 1182.384399,203.295380 
	C1181.131836,207.290207 1179.735718,211.338593 1177.687866,214.959305 
	C1175.417114,218.974152 1172.542969,222.707245 1169.536621,226.225449 
	C1167.569702,228.527176 1165.163086,231.348831 1162.493652,231.974014 
	C1156.323975,233.418991 1150.848755,235.650848 1146.198975,239.986115 
	C1145.275513,240.847107 1143.836182,241.154816 1142.215942,241.801239 
z"/>
<path fill="#F8C0AB" opacity="1.000000" stroke="none" 
	d="
M476.630280,879.221313 
	C468.964050,878.553528 462.622040,876.312866 458.151489,870.041809 
	C457.054504,868.503052 455.224426,867.048035 453.442474,866.508484 
	C442.952545,863.331787 439.982605,854.389343 437.070251,845.488770 
	C432.409149,831.243835 434.829407,816.866089 436.730560,802.534790 
	C436.900513,801.253662 437.231750,799.661011 438.090546,798.855652 
	C446.372925,791.089478 451.542511,779.640381 463.028534,775.766479 
	C471.282227,772.982727 480.032257,771.453735 488.677948,770.128845 
	C494.009735,769.311707 499.581909,769.614746 505.010254,769.967529 
	C516.975891,770.745056 525.325439,777.315979 531.417175,787.246338 
	C532.367737,788.795898 533.345947,790.504761 534.743591,791.576111 
	C545.944763,800.162231 545.919739,812.811340 546.887024,825.035034 
	C547.045776,827.040710 545.773621,829.140991 545.262939,831.222168 
	C544.282776,835.216675 542.868469,839.191345 542.568359,843.243408 
	C542.216797,847.989197 540.679321,851.834900 537.570068,855.383728 
	C534.847961,858.490784 532.305420,861.840942 530.220276,865.398315 
	C527.664612,869.758362 524.245361,872.235168 519.246399,873.086914 
	C516.544434,873.547180 513.257751,874.265198 511.527405,876.091553 
	C504.519165,883.488708 495.901306,882.393433 487.283295,881.471619 
	C483.832855,881.102478 480.455261,880.052124 476.630280,879.221313 
z"/>
<path fill="#F8C0AB" opacity="1.000000" stroke="none" 
	d="
M542.830933,161.392456 
	C544.257690,167.930817 546.052490,174.058167 546.669067,180.301865 
	C547.041931,184.076996 545.674988,188.049591 544.928467,191.902206 
	C544.208313,195.618073 542.769470,199.266541 542.570984,202.993851 
	C542.307617,207.938889 540.832520,212.063034 537.354248,215.535980 
	C536.296143,216.592422 535.110901,217.639450 534.418396,218.924881 
	C529.986145,227.151611 524.430176,233.786148 514.157043,234.342529 
	C513.415039,234.382721 512.549316,234.971359 512.013245,235.554977 
	C503.680908,244.626404 493.268494,242.267181 483.078979,240.769867 
	C478.976624,240.167053 474.763458,239.545929 470.934937,238.067581 
	C467.054138,236.569031 463.484222,234.156647 459.973114,231.847931 
	C457.648010,230.319016 455.946411,227.386017 453.482391,226.603561 
	C443.028351,223.283829 439.996552,214.454849 437.085449,205.549240 
	C432.429932,191.307236 434.791016,176.920410 436.736298,162.589737 
	C436.951263,161.006012 437.559631,159.204544 438.594025,158.048584 
	C444.019409,151.985901 449.028229,145.302139 455.391907,140.407608 
	C460.298859,136.633469 466.815979,134.526566 472.940033,132.877258 
	C479.464203,131.120178 486.357330,130.688507 493.108398,129.827225 
	C509.887878,127.686592 523.000549,133.157440 532.030945,148.006714 
	C534.918640,152.755081 539.108398,156.711624 542.830933,161.392456 
z"/>
<path fill="#BEB7DB" opacity="1.000000" stroke="none" 
	d="
M980.863525,1018.083374 
	C967.792419,999.187439 967.459290,979.001709 974.685425,958.654053 
	C976.675476,953.050354 982.183655,948.079773 987.200806,944.315918 
	C994.216858,939.052429 1002.218811,935.072449 1009.921631,930.762573 
	C1020.077271,925.080078 1030.618652,924.700623 1041.102783,929.677612 
	C1047.105713,932.527466 1053.007568,935.700684 1058.603027,939.278625 
	C1076.903809,950.980896 1083.479004,968.423035 1082.419189,989.401123 
	C1082.259644,992.561401 1082.098999,995.732483 1081.698364,998.867798 
	C1080.165161,1010.867615 1074.302368,1020.171204 1063.857788,1026.337036 
	C1056.692383,1030.567139 1049.489990,1034.790894 1042.019775,1038.434204 
	C1033.125000,1042.772461 1023.667603,1043.485107 1014.339478,1039.886841 
	C1001.795227,1035.048218 990.270935,1028.471924 980.863525,1018.083374 
z"/>
<path fill="#BEB7DB" opacity="1.000000" stroke="none" 
	d="
M1076.266846,317.816101 
	C1083.857544,333.244812 1083.925781,348.991089 1080.354980,364.978394 
	C1078.444336,373.532928 1073.374023,380.156769 1066.095703,384.763519 
	C1058.509888,389.564911 1050.696045,394.071228 1042.685547,398.120239 
	C1031.903931,403.569916 1020.720398,403.457306 1009.926270,398.137512 
	C1003.226868,394.835724 996.655823,391.108246 990.519714,386.860321 
	C973.374146,374.990753 969.498474,357.392639 970.441833,337.990234 
	C970.627075,334.180237 971.230652,330.372498 971.889771,326.607208 
	C973.559875,317.066620 978.493958,309.530457 986.690796,304.420807 
	C994.602661,299.488739 1002.645386,294.737671 1010.846497,290.306610 
	C1020.002563,285.359528 1029.656982,284.743134 1039.279907,288.941803 
	C1053.933838,295.335541 1067.819946,302.819275 1076.266846,317.816101 
z"/>
<path fill="#F8C0AB" opacity="1.000000" stroke="none" 
	d="
M762.762573,556.658447 
	C763.495850,556.487732 763.836792,556.455994 764.143005,556.335632 
	C776.907532,551.319214 788.566589,554.756104 800.199585,560.492920 
	C808.241272,564.458679 814.775940,569.648926 818.858948,577.714905 
	C822.158630,584.233398 825.743530,590.621704 828.745361,597.273865 
	C835.312744,611.827271 834.630798,625.654297 823.851685,638.231323 
	C822.674438,639.604858 821.483521,641.145020 820.896484,642.817688 
	C816.236267,656.096191 804.271179,660.135559 792.967346,664.901184 
	C791.122375,665.679077 788.704956,665.014526 786.568787,665.204529 
	C782.634521,665.554504 778.555237,665.510437 774.825745,666.611023 
	C770.216003,667.971375 766.101257,667.618652 761.733276,665.928833 
	C757.571350,664.318848 753.260864,663.014404 748.921814,661.962646 
	C744.598572,660.914673 741.709412,658.547363 739.183655,654.871033 
	C736.818176,651.428101 733.240356,648.843811 730.445068,645.662842 
	C727.894104,642.759888 724.453369,639.884644 723.548523,636.434875 
	C721.114014,627.152588 717.813538,617.395874 718.613586,608.152588 
	C719.519897,597.682068 722.611267,586.356323 728.190918,577.591187 
	C735.661316,565.856018 748.783813,560.184387 762.762573,556.658447 
z"/>
<path fill="#BEB7DB" opacity="1.000000" stroke="none" 
	d="
M391.424011,1041.700195 
	C378.202148,1043.418579 367.827301,1037.403320 357.273651,1031.507324 
	C336.214325,1019.742065 329.047333,1001.151245 330.409546,978.215759 
	C330.635864,974.405823 331.201324,970.601196 331.842743,966.833740 
	C333.533661,956.901917 338.767670,949.241089 347.314453,943.990845 
	C354.689941,939.460083 362.175690,935.099548 369.722137,930.858521 
	C380.031891,925.064575 390.713745,924.658752 401.341614,929.788818 
	C407.471924,932.747925 413.507202,936.018372 419.211975,939.723450 
	C437.094330,951.337646 443.361176,968.597717 442.441376,989.131836 
	C442.292480,992.456543 442.082336,995.790649 441.655975,999.088745 
	C440.103241,1011.100281 434.076904,1020.250977 423.698395,1026.479370 
	C413.577148,1032.553467 403.775543,1039.320190 391.424011,1041.700195 
z"/>
<path fill="#F8C0AB" opacity="1.000000" stroke="none" 
	d="
M189.433487,598.662598 
	C195.093262,613.147766 194.113129,626.328064 183.882446,638.191284 
	C182.700562,639.561768 181.495270,641.097595 180.912369,642.769897 
	C176.277267,656.067688 164.300140,660.094055 153.013458,664.904358 
	C151.305069,665.632385 149.079453,665.080566 147.107315,665.269409 
	C142.853302,665.676453 138.607101,666.167908 134.361465,666.657349 
	C133.707199,666.732788 133.064453,666.954102 132.430557,667.153137 
	C125.413284,669.357117 120.113556,664.014587 113.853973,662.951294 
	C107.241676,661.828064 101.432945,660.069885 98.153999,653.166626 
	C96.776634,650.266846 93.173317,648.497925 90.908524,645.927185 
	C88.147583,642.793335 84.438271,639.709167 83.420845,635.980835 
	C80.939758,626.888977 77.826553,617.273438 78.594856,608.175049 
	C79.467606,597.839844 82.242203,586.481873 87.865913,578.007996 
	C96.360992,565.207397 110.658730,559.574829 125.720184,555.899780 
	C136.768494,553.203918 146.308517,554.069153 156.684158,558.993469 
	C166.762161,563.776489 175.043961,569.374939 179.838135,579.634888 
	C182.789124,585.950195 186.099945,592.097412 189.433487,598.662598 
z"/>
<path fill="#BEB7DB" opacity="1.000000" stroke="none" 
	d="
M386.044678,401.977844 
	C354.114899,396.747620 326.672607,375.599976 330.429260,337.813385 
	C330.791046,334.174347 331.212708,330.532593 331.822021,326.928497 
	C333.500702,316.999146 338.686829,309.302948 347.232056,304.046661 
	C354.745667,299.424927 362.372375,294.974762 370.079468,290.682922 
	C380.066742,285.121246 390.475586,284.694031 400.788757,289.544739 
	C407.095459,292.511047 413.273407,295.879486 419.124298,299.662567 
	C437.024597,311.236511 443.337433,328.482025 442.452484,349.019531 
	C442.309204,352.344421 442.102997,355.678986 441.678284,358.977203 
	C440.133057,370.975800 434.213318,380.233490 423.781494,386.390869 
	C416.762634,390.533783 409.783325,394.870819 402.358826,398.154358 
	C397.466095,400.318268 391.813568,400.764252 386.044678,401.977844 
z"/>
<path fill="#B2E3F9" opacity="1.000000" stroke="none" 
	d="
M824.378662,1114.281250 
	C823.686829,1111.848145 823.077148,1109.768433 822.707092,1107.646851 
	C821.599121,1101.293823 819.555237,1094.888428 819.777283,1088.570190 
	C820.103394,1079.289185 821.768677,1069.958374 828.667480,1062.697632 
	C834.915771,1056.121704 840.659241,1048.934570 847.603821,1043.202515 
	C851.592834,1039.909790 857.409058,1038.543701 862.622253,1037.107300 
	C867.230957,1035.837402 872.145569,1035.157715 876.922058,1035.173218 
	C881.096008,1035.186768 885.291382,1036.416504 889.425964,1037.338867 
	C891.342651,1037.766479 893.078247,1039.058228 894.997070,1039.415649 
	C907.142456,1041.678223 915.878479,1049.791992 922.383240,1058.867188 
	C934.094971,1075.206787 938.324341,1103.560059 923.473083,1123.374268 
	C917.438110,1131.425903 910.327881,1138.015015 902.234558,1143.097290 
	C891.351257,1149.931641 879.051453,1148.879028 866.489868,1146.854248 
	C848.906921,1144.020264 837.768188,1133.586548 828.772644,1119.522827 
	C827.623474,1117.726196 825.983154,1116.243652 824.378662,1114.281250 
z"/>
<path fill="#B2E3F9" opacity="1.000000" stroke="none" 
	d="
M908.808655,406.200806 
	C915.772888,411.342560 921.218628,416.972595 925.419495,424.537933 
	C933.362671,438.842590 934.766479,453.570648 930.603638,468.746063 
	C927.523926,479.972900 921.000854,489.418549 910.995605,496.112213 
	C907.878296,498.197754 905.522339,501.542908 902.267212,503.278748 
	C890.879150,509.351440 878.973572,508.892365 866.408630,506.835236 
	C848.837219,503.958466 838.362000,493.052917 828.474304,479.635315 
	C823.238770,472.530640 822.742676,465.266846 821.570923,457.425995 
	C820.637512,451.179871 818.788757,445.100067 821.104553,438.903625 
	C822.887939,434.132050 824.636230,429.272095 827.112854,424.850647 
	C832.224487,415.724884 839.949768,408.567535 848.227844,402.704742 
	C853.472229,398.990570 860.958130,398.505859 867.366394,396.357147 
	C880.597839,391.920624 892.002136,398.583801 903.862061,402.303162 
	C905.626404,402.856506 906.978455,404.724579 908.808655,406.200806 
z"/>
<path fill="#B2E3F9" opacity="1.000000" stroke="none" 
	d="
M183.381104,430.609161 
	C189.167648,422.083923 195.194489,414.442078 202.444489,407.393066 
	C213.410004,396.731567 226.888321,396.284851 240.258682,395.104553 
	C244.640503,394.717773 249.296326,397.768433 253.867493,399.108459 
	C259.604523,400.790283 265.086792,402.537079 269.826385,406.734039 
	C275.896973,412.109741 281.456055,417.339661 285.531281,424.770874 
	C293.583710,439.454651 294.904785,454.525970 290.234070,469.952698 
	C287.036865,480.512665 280.818787,489.648529 271.206757,496.005188 
	C267.942505,498.163879 265.446411,501.620453 262.032440,503.391022 
	C251.468613,508.869629 240.421768,508.982605 228.614151,507.258362 
	C210.365723,504.593628 198.864685,494.116608 188.558624,479.879974 
	C182.925385,472.098297 183.503525,463.852570 181.271835,455.755951 
	C178.810150,446.824890 181.062988,439.086426 183.381104,430.609161 
z"/>
<path fill="#B2E3F9" opacity="1.000000" stroke="none" 
	d="
M240.081055,1148.995361 
	C229.863937,1146.529907 219.605637,1145.199341 210.437912,1141.302856 
	C201.068787,1137.320801 195.396133,1128.358643 188.949814,1120.482910 
	C182.769547,1112.932129 182.686920,1104.580811 181.383453,1095.921875 
	C180.587723,1090.635742 179.670837,1085.762573 180.723831,1080.333008 
	C182.134399,1073.059692 184.744171,1066.696411 189.913727,1061.359863 
	C195.875259,1055.205933 201.015793,1047.943970 207.867508,1043.066162 
	C213.106888,1039.336060 220.484207,1038.655640 226.856018,1036.460327 
	C240.222244,1031.855591 252.494003,1037.107422 263.638336,1042.627319 
	C272.778229,1047.154297 280.343140,1054.693970 285.567230,1064.721436 
	C292.841553,1078.684326 294.608551,1092.737427 290.909851,1107.511353 
	C287.927246,1119.425049 281.204498,1129.171875 270.813751,1136.204102 
	C267.707336,1138.306396 265.397278,1142.053955 262.072479,1143.267700 
	C255.116760,1145.807007 247.728912,1147.162476 240.081055,1148.995361 
z"/>
<path fill="#F7EF6B" opacity="1.000000" stroke="none" 
	d="
M1258.964966,644.948547 
	C1259.734985,648.789612 1260.611572,652.181824 1261.156616,655.626404 
	C1262.562500,664.510193 1262.689331,673.227783 1257.250854,681.101501 
	C1256.409668,682.319397 1255.658081,683.711243 1255.297729,685.132385 
	C1250.712769,703.211426 1236.500366,710.917297 1220.592407,715.291077 
	C1214.194458,717.050110 1206.536743,714.291992 1199.464111,713.485901 
	C1197.657593,713.280029 1195.784180,712.058838 1194.132080,712.357788 
	C1182.156006,714.524963 1176.204590,705.797913 1169.108765,698.977722 
	C1165.428711,695.440552 1161.369995,692.296021 1157.706909,688.742737 
	C1156.112549,687.196228 1154.837158,685.184387 1153.879517,683.164490 
	C1153.197266,681.725159 1153.668335,679.734314 1152.973511,678.306335 
	C1146.504517,665.013123 1152.437134,651.867065 1153.407837,638.697571 
	C1153.936401,631.525940 1158.936401,626.463013 1164.134521,622.457520 
	C1171.596313,616.707458 1179.875854,612.023254 1187.764771,606.821106 
	C1192.058350,603.989868 1196.420288,603.852173 1201.534668,604.571350 
	C1208.690308,605.577332 1216.067871,604.903625 1223.339478,605.210083 
	C1236.779419,605.776306 1252.353638,618.522156 1255.659912,631.476440 
	C1256.768433,635.819946 1257.834839,640.174255 1258.964966,644.948547 
z"/>
<path fill="#F7EF6B" opacity="1.000000" stroke="none" 
	d="
M517.057312,630.140015 
	C521.677124,626.183472 525.949585,622.338257 530.535706,618.913086 
	C536.251160,614.644409 542.213562,610.705200 548.091675,606.656128 
	C552.192566,603.831177 556.492188,603.895569 561.405212,604.547668 
	C568.577209,605.499573 575.943542,604.891113 583.215942,605.203979 
	C596.994934,605.796692 612.623047,618.335999 615.659180,631.878235 
	C618.194031,643.184143 620.005981,654.666260 621.713623,666.133545 
	C622.131836,668.941895 621.289001,672.134521 620.331787,674.911194 
	C618.178955,681.155945 615.612122,687.259033 613.160706,693.398560 
	C612.734741,694.465454 612.300659,695.795044 611.444336,696.383423 
	C601.976257,702.889587 594.944031,713.715942 582.520081,714.909241 
	C574.921509,715.639099 567.094971,714.096069 559.381042,713.452209 
	C557.575256,713.301575 555.699646,712.042419 554.044739,712.340393 
	C541.543823,714.591187 535.702454,705.119995 528.382507,698.154236 
	C525.160217,695.087891 521.565063,692.397949 518.482422,689.205688 
	C516.507812,687.160767 515.004883,684.596985 513.604248,682.090515 
	C513.002136,681.012939 513.528931,679.328308 512.976562,678.195618 
	C506.495789,664.905457 512.563782,651.754639 513.475342,638.580444 
	C513.667664,635.801697 515.677063,633.148621 517.057312,630.140015 
z"/>
<path fill="#FAF7C0" opacity="1.000000" stroke="none" 
	d="
M655.842163,797.836182 
	C664.934570,791.004761 673.777283,784.585083 685.194641,783.036316 
	C716.930603,778.731323 737.483643,792.037598 748.980530,822.869385 
	C757.632568,846.071777 746.424316,869.138916 729.912964,881.687439 
	C720.706421,888.684387 710.987183,895.259399 698.851074,895.074707 
	C672.471619,894.673157 650.366211,881.766541 642.354553,854.742554 
	C637.476196,838.287354 638.442078,822.482910 646.940063,807.522583 
	C648.999084,803.897888 652.631104,801.166748 655.842163,797.836182 
z"/>
<path fill="#FAF7C0" opacity="1.000000" stroke="none" 
	d="
M744.226929,171.810394 
	C750.540527,185.351807 755.343689,198.956406 749.985657,213.486328 
	C745.372070,225.997498 737.519897,236.048370 726.653625,244.478867 
	C695.426331,268.706268 649.196472,247.645691 641.645447,212.559128 
	C638.410095,197.525589 638.663391,183.295746 645.581604,169.863174 
	C653.942688,153.629303 680.523682,139.921555 700.676636,142.099548 
	C720.777771,144.271942 734.703369,154.147781 744.226929,171.810394 
z"/>
<path fill="#FAF7C0" opacity="1.000000" stroke="none" 
	d="
M1125.791504,1092.111816 
	C1142.391724,1103.743896 1150.606201,1120.062622 1153.638672,1139.165527 
	C1155.432495,1150.465942 1151.026978,1160.602051 1144.925293,1169.704712 
	C1133.598267,1186.602661 1118.180664,1198.631958 1097.242310,1197.837646 
	C1071.954590,1196.878540 1051.392944,1184.109985 1043.674683,1156.504272 
	C1039.092529,1140.115479 1039.393311,1123.873657 1049.042725,1109.962158 
	C1060.626343,1093.262085 1083.946167,1080.594604 1108.078003,1086.320923 
	C1113.989624,1087.723877 1119.687378,1090.027588 1125.791504,1092.111816 
z"/>
<path fill="#FAF7C0" opacity="1.000000" stroke="none" 
	d="
M1048.725586,469.817963 
	C1063.159302,452.566925 1084.514893,441.694031 1108.430908,446.089264 
	C1131.062378,450.248413 1142.157104,465.338745 1150.112427,484.703430 
	C1159.982056,508.727844 1148.008789,532.085449 1131.268799,544.795349 
	C1121.922974,551.891296 1112.006226,558.458435 1099.657471,558.063416 
	C1073.063721,557.212646 1051.130371,543.896423 1043.635742,516.438721 
	C1039.204346,500.203735 1040.500244,484.886353 1048.725586,469.817963 
z"/>
<path fill="#FAF7C0" opacity="1.000000" stroke="none" 
	d="
M433.183807,1090.058838 
	C448.672333,1083.332153 464.086182,1083.857544 479.353394,1088.931763 
	C488.851929,1092.088989 495.554871,1099.262329 501.077240,1107.358398 
	C510.034576,1120.490601 516.049255,1134.794434 512.814392,1150.921509 
	C511.385803,1158.043457 508.065521,1165.284546 503.873291,1171.256592 
	C493.012451,1186.728516 478.355377,1198.061523 458.847443,1197.850952 
	C432.778656,1197.569336 411.330688,1184.026489 403.663513,1156.635986 
	C400.410950,1145.016602 400.729553,1133.775513 403.316925,1122.174805 
	C407.002838,1105.648926 420.333893,1098.392456 433.183807,1090.058838 
z"/>
<path fill="#FAF7C0" opacity="1.000000" stroke="none" 
	d="
M445.880035,556.063354 
	C410.539917,550.592957 392.660583,510.167999 404.952637,477.320374 
	C407.692535,469.998688 412.294037,464.237854 418.890686,459.618378 
	C427.398651,453.660461 435.651215,447.613861 446.285980,446.093170 
	C477.904022,441.571991 498.171387,454.326996 510.075500,484.355316 
	C519.798889,508.882782 507.998199,532.341248 490.754547,545.178528 
	C481.185150,552.302551 471.096344,558.543152 458.526581,558.092651 
	C454.429230,557.945801 450.366943,556.819946 445.880035,556.063354 
z"/>
<path fill="#D2EADC" opacity="1.000000" stroke="none" 
	d="
M363.887146,750.046509 
	C361.610077,754.872620 360.051544,759.739990 357.294006,763.791260 
	C353.518829,769.337585 348.247681,773.167969 341.601074,775.453857 
	C333.639282,778.192200 326.474213,782.984802 317.631561,783.447876 
	C301.563293,784.289551 277.335266,778.442444 268.455505,758.015198 
	C267.262115,755.269897 265.937073,752.563293 264.445068,749.969910 
	C260.771881,743.585388 258.815186,736.874573 259.947479,729.451843 
	C260.071930,728.636230 260.209045,727.717712 259.967773,726.966553 
	C254.892639,711.166138 265.604187,701.013855 273.500275,690.102844 
	C279.964813,681.170044 289.015472,675.996216 300.090546,673.945312 
	C307.989380,672.482605 315.344452,667.910217 323.841888,670.080688 
	C325.585297,670.526001 327.414246,670.794678 329.040009,671.514587 
	C335.408173,674.334534 341.768646,677.186523 347.998322,680.294556 
	C349.621857,681.104492 351.046722,682.696106 352.071869,684.252197 
	C355.541321,689.518738 359.146881,694.747681 362.015442,700.342163 
	C364.485901,705.160400 366.690216,710.316467 367.806305,715.578979 
	C369.353302,722.873047 369.849945,730.398682 370.599579,737.844971 
	C370.732422,739.164368 370.179810,740.747253 369.466736,741.918030 
	C367.824127,744.614929 365.888184,747.133240 363.887146,750.046509 
z"/>
<path fill="#D2EADC" opacity="1.000000" stroke="none" 
	d="
M898.427979,716.020447 
	C898.454773,714.815735 898.293884,713.835510 898.693481,713.217957 
	C904.105042,704.855408 909.211853,696.256348 915.175171,688.301392 
	C920.817322,680.774902 928.604309,676.084595 938.125854,674.515869 
	C941.221619,674.005798 944.286194,673.013733 947.220764,671.871460 
	C956.689453,668.185852 965.679077,668.647217 974.197205,674.468201 
	C974.745544,674.843018 975.314758,675.358704 975.925781,675.445190 
	C991.666016,677.674377 995.904236,691.871887 1003.328003,702.424316 
	C1006.216187,706.529602 1007.011230,712.327637 1007.993164,717.500061 
	C1009.324524,724.513611 1011.580566,731.969482 1010.359558,738.674683 
	C1009.153748,745.295837 1003.841125,751.090332 1000.824524,757.480835 
	C997.213013,765.131653 992.357971,771.218628 984.167542,774.274902 
	C975.188904,777.625366 967.038818,783.224304 956.962952,783.542297 
	C941.283997,784.036926 917.720703,778.467834 908.846924,758.745667 
	C907.686646,756.166809 906.399780,753.636475 905.030701,751.161499 
	C901.170715,744.183289 898.920410,736.993835 899.832153,728.769104 
	C900.277710,724.749146 898.999084,720.538086 898.427979,716.020447 
z"/>
<path fill="#D2EADC" opacity="1.000000" stroke="none" 
	d="
M990.936768,42.016869 
	C994.867920,48.421516 998.910278,54.342636 1002.243713,60.639072 
	C1004.625671,65.138420 1006.744995,70.001389 1007.751709,74.952187 
	C1009.304688,82.589340 1009.916565,90.430016 1010.650574,98.210495 
	C1010.784241,99.627563 1009.729736,101.241966 1008.989441,102.641296 
	C1006.048828,108.199524 1002.986938,113.693466 1000.023682,119.239906 
	C996.670715,125.515663 992.504211,131.043961 985.597473,133.649368 
	C976.169678,137.205750 967.622009,143.180435 957.017944,143.535004 
	C941.388428,144.057602 917.748291,138.486526 908.867249,118.787804 
	C907.636292,116.057457 906.341309,113.337944 904.836792,110.752579 
	C900.873413,103.941711 898.729675,96.776459 899.980835,88.827316 
	C900.083252,88.176720 900.178894,87.435997 899.976318,86.839493 
	C894.898865,71.886330 904.925232,61.968628 912.270630,51.508331 
	C918.962280,41.978992 928.309753,36.017208 940.208740,33.896622 
	C948.112915,32.487984 955.475342,27.969797 963.968323,30.069628 
	C965.086182,30.346014 966.368469,30.178873 967.375854,30.645840 
	C975.192993,34.269180 982.961182,37.997837 990.936768,42.016869 
z"/>
<path fill="#D2EADC" opacity="1.000000" stroke="none" 
	d="
M365.093964,66.003250 
	C367.071259,77.155212 369.023468,87.921349 370.716248,98.728119 
	C370.903473,99.923271 369.671265,101.383904 368.990295,102.664467 
	C365.960449,108.361877 362.945282,114.068275 359.822113,119.714607 
	C356.560913,125.610451 352.583771,130.963333 346.035065,133.448837 
	C336.461060,137.082581 327.772644,143.168472 317.001862,143.532959 
	C301.339813,144.062988 277.730743,138.465210 268.862579,118.778976 
	C267.632599,116.048538 266.337372,113.329330 264.833221,110.744057 
	C260.870911,103.933907 258.722870,96.770164 259.974304,88.821136 
	C260.076721,88.170471 260.174622,87.429817 259.972351,86.833504 
	C254.900894,71.880936 264.926880,61.964542 272.273071,51.506062 
	C278.964874,41.979229 288.308411,36.011574 300.209564,33.896786 
	C308.113251,32.492329 315.475311,27.944857 323.963440,30.083803 
	C325.552002,30.484104 327.237152,30.668577 328.711609,31.325445 
	C335.224335,34.226860 341.685638,37.244713 348.140778,40.273212 
	C349.158325,40.750584 350.405548,41.280609 350.941833,42.156548 
	C355.702942,49.933395 360.327789,57.793663 365.093964,66.003250 
z"/>
<path fill="#F9CFE2" opacity="1.000000" stroke="none" 
	d="
M607.945557,1030.922485 
	C608.557678,1023.179688 613.005920,1018.688477 618.214722,1013.831055 
	C629.671326,1003.147278 643.544922,997.566223 657.803772,992.448120 
	C659.225281,991.937866 661.026245,992.217285 662.595825,992.471375 
	C663.877930,992.678955 665.038879,993.558899 666.319519,993.863098 
	C682.667664,997.746338 694.851257,1007.680847 704.427185,1020.902100 
	C707.564819,1025.234253 708.799988,1030.892578 711.448914,1035.641235 
	C716.502319,1044.700073 715.492920,1053.205322 712.668518,1063.071655 
	C708.562866,1077.413330 698.985840,1087.569214 690.484863,1098.723633 
	C689.614075,1099.866211 687.729126,1100.532227 686.200439,1100.827026 
	C678.688171,1102.275757 671.177734,1104.137573 663.586487,1104.639038 
	C658.077271,1105.002930 652.460083,1103.153687 646.860901,1102.853149 
	C635.318848,1102.234131 628.054199,1096.109497 621.027832,1087.152832 
	C612.361938,1076.106079 608.920898,1063.270386 604.165527,1050.773804 
	C603.629089,1049.364136 604.011414,1047.468506 604.359131,1045.884155 
	C605.428650,1041.011230 606.688171,1036.180176 607.945557,1030.922485 
z"/>
<path fill="#F9CFE2" opacity="1.000000" stroke="none" 
	d="
M618.182251,374.190979 
	C629.209106,362.760590 643.327698,357.654633 657.446472,352.626312 
	C659.131348,352.026245 661.416260,352.135010 663.124878,352.747253 
	C670.327271,355.328217 677.451050,358.141388 684.523254,361.063965 
	C686.296753,361.796875 687.838989,363.169220 689.360596,364.404083 
	C690.384216,365.234772 691.080933,366.466919 692.100830,367.303802 
	C704.750916,377.684509 710.849792,391.994171 715.776733,406.956970 
	C716.340576,408.669250 716.168274,410.882080 715.635925,412.651794 
	C713.527405,419.660614 711.649902,426.812714 708.686646,433.466278 
	C706.501770,438.372070 702.419556,442.395538 699.788635,447.147614 
	C693.852173,457.870117 684.504272,461.289307 672.846191,463.564636 
	C658.612793,466.342590 645.845825,461.899353 632.525085,459.774261 
	C631.304871,459.579590 630.129272,458.112152 629.241638,456.991241 
	C624.381897,450.854553 619.039612,444.993011 615.002869,438.344879 
	C611.693665,432.894806 610.265076,426.339966 607.483337,420.523315 
	C603.913696,413.059662 603.320496,405.670135 606.170654,397.897491 
	C607.081116,395.414459 607.696167,392.768494 608.042297,390.143799 
	C608.938354,383.349396 611.739929,377.854858 618.182251,374.190979 
z"/>
</svg>