<svg version="1.1" id="Layer_1" xmlns="http://www.w3.org/2000/svg" xmlns:xlink="http://www.w3.org/1999/xlink" x="0px" y="0px"
	 width="100%" viewBox="0 0 1280 1280" enable-background="new 0 0 1280 1280" xml:space="preserve">
<path fill="#E2D7F7" opacity="1.000000" stroke="none" 
	d="
M1.000000,1030.000000 
	C1.000000,991.979126 1.000000,953.958191 1.468632,915.474182 
	C39.638599,915.031311 77.339935,915.051575 115.032822,915.532715 
	C115.037163,953.958557 115.049934,991.923645 114.590881,1029.915039 
	C76.412697,1029.960938 38.706348,1029.980469 1.000000,1030.000000 
z"/>
<path fill="#FFFFFF" opacity="1.000000" stroke="none" 
	d="
M1.000000,687.000000 
	C1.000000,648.979126 1.000000,610.958191 1.468545,572.480347 
	C39.598721,572.050232 77.260353,572.077026 114.952858,572.560181 
	C114.969780,610.988525 114.955826,648.960510 114.477188,686.949524 
	C76.341667,686.977661 38.670834,686.988831 1.000000,687.000000 
z"/>
<path fill="#FFFFFF" opacity="1.000000" stroke="none" 
	d="
M1.000000,230.000000 
	C1.000000,191.979111 1.000000,153.958206 1.468615,115.475891 
	C39.619801,115.014046 77.302368,115.013626 114.994171,115.011215 
	C115.003395,115.009216 115.008652,115.027832 115.008499,115.493652 
	C114.978859,153.940338 114.949371,191.921188 114.456802,229.923370 
	C76.329147,229.963135 38.664574,229.981567 1.000000,230.000000 
z"/>
<path fill="#E2D7F7" opacity="1.000000" stroke="none" 
	d="
M915.000000,1.000000 
	C953.020874,1.000000 991.041748,1.000000 1029.521240,1.468574 
	C1029.933960,39.655285 1029.888062,77.373421 1029.390747,115.070206 
	C990.999634,115.057541 953.059875,115.066238 915.090576,114.602493 
	C915.040649,76.420036 915.020325,38.710018 915.000000,1.000000 
z"/>
<path fill="#B5CAF5" opacity="1.000000" stroke="none" 
	d="
M572.000000,1.000000 
	C610.020874,1.000000 648.041809,1.000000 686.525696,1.468631 
	C686.966553,39.609940 686.944397,77.282623 686.462646,114.978363 
	C648.033447,114.983345 610.063782,114.965263 572.070923,114.482452 
	C572.031799,76.345146 572.015869,38.672573 572.000000,1.000000 
z"/>
<path fill="#B5CAF5" opacity="1.000000" stroke="none" 
	d="
M115.000000,1.000000 
	C153.020889,1.000000 191.041794,1.000000 229.521973,1.468585 
	C229.955704,39.606808 229.930145,77.276443 229.447128,114.971306 
	C190.996002,115.006966 153.002319,115.017403 115.008652,115.027832 
	C115.008652,115.027832 115.003395,115.009216 115.002792,114.541214 
	C115.001450,76.382149 115.000725,38.691074 115.000000,1.000000 
z"/>
<path fill="#FFFFFF" opacity="1.000000" stroke="none" 
	d="
M115.041267,915.071838 
	C77.339935,915.051575 39.638599,915.031311 1.468632,915.005493 
	C1.000000,877.312439 1.000000,839.624878 1.468657,801.469360 
	C39.612476,801.015747 77.287643,801.030151 114.982391,801.507996 
	C115.027313,839.663330 115.052650,877.355225 115.065964,915.047791 
	C115.053947,915.048462 115.041267,915.071838 115.041267,915.071838 
z"/>
<path fill="#E2D7F7" opacity="1.000000" stroke="none" 
	d="
M1.000000,1258.000000 
	C1.000000,1220.312378 1.000000,1182.624878 1.468656,1144.467163 
	C39.628796,1144.004883 77.320282,1144.012573 115.011368,1144.486816 
	C115.035408,1182.618164 115.059837,1220.282959 115.055267,1257.973267 
	C115.026260,1257.998657 114.967598,1258.048828 114.502472,1258.031982 
	C76.358238,1258.010010 38.679119,1258.005005 1.000000,1258.000000 
z"/>
<path fill="#FFFFFF" opacity="1.000000" stroke="none" 
	d="
M115.011765,1144.020264 
	C77.320282,1144.012573 39.628796,1144.004883 1.468656,1143.998535 
	C1.000000,1106.312378 1.000000,1068.624878 1.000000,1030.468628 
	C38.706348,1029.980469 76.412697,1029.960938 114.600456,1029.930176 
	C115.081871,1029.918945 115.112999,1029.933472 115.077942,1030.408447 
	C115.040428,1068.591431 115.037987,1106.299438 115.027458,1144.006104 
	C115.019371,1144.004639 115.011765,1144.020264 115.011765,1144.020264 
z"/>
<path fill="#FFFFFF" opacity="1.000000" stroke="none" 
	d="
M1.000000,458.000000 
	C1.000000,420.312439 1.000000,382.624878 1.468657,344.468140 
	C39.613792,344.012726 77.290276,344.026489 114.984863,344.504242 
	C114.990234,382.632202 114.977478,420.296173 114.498489,457.974548 
	C76.354836,457.992584 38.677418,457.996277 1.000000,458.000000 
z"/>
<path fill="#E2D7F7" opacity="1.000000" stroke="none" 
	d="
M114.966751,344.040283 
	C77.290276,344.026489 39.613792,344.012726 1.468657,343.999451 
	C1.000000,306.312439 1.000000,268.624878 1.000000,230.468658 
	C38.664574,229.981567 76.329147,229.963135 114.487869,229.952423 
	C114.982018,229.960129 115.047920,230.009369 115.032707,230.476868 
	C115.044891,268.605103 115.072281,306.265869 115.066513,343.955139 
	C115.033363,343.983643 114.966751,344.040283 114.966751,344.040283 
z"/>
<path fill="#E2D7F7" opacity="1.000000" stroke="none" 
	d="
M1144.000000,1.000000 
	C1181.687622,1.000000 1219.375122,1.000000 1257.531494,1.468657 
	C1258.014648,39.619858 1258.029297,77.302406 1258.012695,115.013138 
	C1257.981567,115.041321 1257.919312,115.097939 1257.459473,115.068359 
	C1219.347290,115.036713 1181.695068,115.034653 1144.029541,114.562065 
	C1144.010986,76.394356 1144.005493,38.697178 1144.000000,1.000000 
z"/>
<path fill="#B5CAF5" opacity="1.000000" stroke="none" 
	d="
M1143.531372,1.000000 
	C1144.005493,38.697178 1144.010986,76.394356 1144.017578,114.561386 
	C1144.018799,115.031250 1144.018311,115.048477 1143.548096,115.038101 
	C1105.358398,115.061668 1067.638916,115.095604 1029.902466,115.115990 
	C1029.885376,115.102440 1029.842163,115.091560 1029.842163,115.091560 
	C1029.888062,77.373421 1029.933960,39.655285 1029.989990,1.468574 
	C1067.687622,1.000000 1105.375122,1.000000 1143.531372,1.000000 
z"/>
<path fill="#B5CAF5" opacity="1.000000" stroke="none" 
	d="
M914.531372,1.000000 
	C915.020325,38.710018 915.040649,76.420036 915.073425,114.605835 
	C915.085876,115.081612 915.067261,115.107239 914.592712,115.078445 
	C876.425659,115.026665 838.733154,115.003677 801.025635,114.513458 
	C801.007080,76.364159 801.003540,38.682079 801.000000,1.000000 
	C838.687561,1.000000 876.375122,1.000000 914.531372,1.000000 
z"/>
<path fill="#E2D7F7" opacity="1.000000" stroke="none" 
	d="
M800.531372,1.000000 
	C801.003540,38.682079 801.007080,76.364159 800.992004,114.544937 
	C800.973389,115.043640 800.907654,115.107033 800.449219,115.074326 
	C762.340576,115.051308 724.690430,115.061012 687.011475,115.041153 
	C686.982605,115.011589 686.922180,114.955299 686.922180,114.955299 
	C686.944397,77.282623 686.966553,39.609940 686.994385,1.468631 
	C724.687561,1.000000 762.375122,1.000000 800.531372,1.000000 
z"/>
<path fill="#E2D7F7" opacity="1.000000" stroke="none" 
	d="
M571.531311,1.000000 
	C572.015869,38.672573 572.031799,76.345146 572.040039,114.510536 
	C572.032349,115.003357 571.974915,115.063995 571.509033,115.046890 
	C533.383484,115.035583 495.723785,115.041389 458.046509,114.575890 
	C458.019287,76.403053 458.009644,38.701527 458.000000,1.000000 
	C495.687561,1.000000 533.375122,1.000000 571.531311,1.000000 
z"/>
<path fill="#B5CAF5" opacity="1.000000" stroke="none" 
	d="
M457.531342,1.000000 
	C458.009644,38.701527 458.019287,76.403053 458.033386,114.576263 
	C458.037903,115.047935 458.034393,115.067276 457.562622,115.051636 
	C419.403503,115.019897 381.716125,115.003799 344.014954,114.520004 
	C344.000793,76.368195 344.000397,38.684097 344.000000,1.000000 
	C381.687561,1.000000 419.375122,1.000000 457.531342,1.000000 
z"/>
<path fill="#E2D7F7" opacity="1.000000" stroke="none" 
	d="
M343.531342,1.000000 
	C344.000397,38.684097 344.000793,76.368195 343.980042,114.552429 
	C343.958923,115.052567 343.890228,115.117706 343.433624,115.082138 
	C305.326019,115.051895 267.675018,115.057213 229.995300,115.032257 
	C229.966568,115.001984 229.904587,114.946075 229.904587,114.946075 
	C229.930145,77.276443 229.955704,39.606808 229.990631,1.468585 
	C267.687561,1.000000 305.375122,1.000000 343.531342,1.000000 
z"/>
<path fill="#E2D7F7" opacity="1.000000" stroke="none" 
	d="
M114.531342,1.000000 
	C115.000725,38.691074 115.001450,76.382149 114.993561,114.543213 
	C77.302368,115.013626 39.619801,115.014046 1.468615,115.007233 
	C1.000000,77.073044 1.000000,39.146091 1.000000,1.000000 
	C38.687279,1.000000 76.374977,1.000000 114.531342,1.000000 
z"/>
<path fill="#E2D7F7" opacity="1.000000" stroke="none" 
	d="
M114.962807,801.044556 
	C77.287643,801.030151 39.612476,801.015747 1.468657,801.000671 
	C1.000000,763.312439 1.000000,725.624878 1.000000,687.468628 
	C38.670834,686.988831 76.341667,686.977661 114.508148,686.975830 
	C115.003792,686.985046 115.067413,687.035461 115.045181,687.499756 
	C115.046867,725.620300 115.070786,763.276550 115.061752,800.960693 
	C115.028786,800.988647 114.962807,801.044556 114.962807,801.044556 
z"/>
<path fill="#E2D7F7" opacity="1.000000" stroke="none" 
	d="
M1.000000,458.468658 
	C38.677418,457.996277 76.354836,457.992584 114.531540,458.002747 
	C115.030838,458.016632 115.096466,458.073639 115.065262,458.533966 
	C115.040810,496.660645 115.047569,534.327026 115.019653,572.019043 
	C114.984985,572.044800 114.921982,572.103882 114.921982,572.103882 
	C77.260353,572.077026 39.598721,572.050232 1.468545,572.011719 
	C1.000000,534.312439 1.000000,496.624878 1.000000,458.468658 
z"/>
<path fill="#CCF0FC" opacity="1.000000" stroke="none" 
	d="
M1281.000000,572.000000 
	C1281.000000,610.020874 1281.000000,648.041809 1280.531372,686.525452 
	C1272.703003,686.977051 1265.343140,686.965820 1257.987305,686.490906 
	C1257.983521,648.044983 1257.975708,610.062805 1258.438354,572.064575 
	C1266.272461,572.032349 1273.636230,572.016174 1281.000000,572.000000 
z"/>
<path fill="#FFFFFF" opacity="1.000000" stroke="none" 
	d="
M1030.000000,1281.000000 
	C991.979126,1281.000000 953.958191,1281.000000 915.476746,1280.531372 
	C915.047424,1272.741211 915.078674,1265.419556 915.565796,1258.065674 
	C953.968201,1258.061279 991.914612,1258.089355 1029.892578,1258.577393 
	C1029.949341,1266.358276 1029.974609,1273.679199 1030.000000,1281.000000 
z"/>
<path fill="#CCF0FC" opacity="1.000000" stroke="none" 
	d="
M687.000000,1281.000000 
	C648.979126,1281.000000 610.958191,1281.000000 572.478577,1280.531494 
	C572.035583,1272.701782 572.051331,1265.340576 572.528381,1257.985962 
	C610.978577,1257.991211 648.967468,1257.989990 686.965210,1258.458008 
	C686.982605,1266.284790 686.991333,1273.642456 687.000000,1281.000000 
z"/>
<path fill="#CCF0FC" opacity="1.000000" stroke="none" 
	d="
M230.000000,1281.000000 
	C191.979111,1281.000000 153.958206,1281.000000 115.474213,1280.531372 
	C114.996605,1272.724731 114.982101,1265.386841 114.967598,1258.048828 
	C114.967598,1258.048828 115.026260,1257.998657 115.513885,1257.993896 
	C153.976135,1257.984375 191.950760,1257.979614 229.939392,1258.444824 
	C229.968933,1266.276611 229.984467,1273.638306 230.000000,1281.000000 
z"/>
<path fill="#B5CAF5" opacity="1.000000" stroke="none" 
	d="
M1281.000000,915.000000 
	C1281.000000,953.020874 1281.000000,991.041748 1280.531494,1029.522217 
	C1272.743164,1029.953857 1265.423462,1029.925659 1258.068726,1029.441040 
	C1258.050049,991.016174 1258.066406,953.047913 1258.545654,915.058838 
	C1266.339111,915.025330 1273.669556,915.012695 1281.000000,915.000000 
z"/>
<path fill="#CCF0FC" opacity="1.000000" stroke="none" 
	d="
M1281.000000,115.000000 
	C1281.000000,153.020889 1281.000000,191.041794 1280.531494,229.522141 
	C1272.696045,229.959213 1265.329102,229.936829 1257.972412,229.455139 
	C1257.961426,191.029861 1257.940430,153.063904 1257.919434,115.097939 
	C1257.919312,115.097939 1257.981567,115.041321 1258.476196,115.025490 
	C1266.313843,115.006439 1273.656982,115.003220 1281.000000,115.000000 
z"/>
<path fill="#FFFFFF" opacity="1.000000" stroke="none" 
	d="
M230.468658,1281.000000 
	C229.984467,1273.638306 229.968933,1266.276611 229.955902,1258.445068 
	C229.958374,1257.975342 229.961075,1257.951050 230.433258,1257.969727 
	C268.576660,1258.017944 306.247864,1258.047241 343.942627,1258.539795 
	C343.977448,1266.335327 343.988739,1273.667725 344.000000,1281.000000 
	C306.312439,1281.000000 268.624878,1281.000000 230.468658,1281.000000 
z"/>
<path fill="#FFFFFF" opacity="1.000000" stroke="none" 
	d="
M1258.000000,1281.000000 
	C1220.312378,1281.000000 1182.624878,1281.000000 1144.468506,1280.531372 
	C1144.020874,1272.729248 1144.041992,1265.395752 1144.524414,1258.040161 
	C1182.651733,1258.013916 1220.317749,1258.009766 1257.990845,1258.003906 
	C1257.998047,1258.002075 1258.003540,1258.014771 1258.001709,1258.481934 
	C1258.000000,1266.299316 1258.000000,1273.649658 1258.000000,1281.000000 
z"/>
<path fill="#CCF0FC" opacity="1.000000" stroke="none" 
	d="
M1144.062988,1258.062256 
	C1144.041992,1265.395752 1144.020874,1272.729248 1143.999878,1280.531372 
	C1106.312378,1281.000000 1068.624878,1281.000000 1030.468628,1281.000000 
	C1029.974609,1273.679199 1029.949341,1266.358276 1029.926758,1258.547363 
	C1029.929688,1258.057129 1029.995117,1257.993530 1030.464355,1257.999634 
	C1068.604492,1257.989990 1106.275391,1257.974243 1143.975708,1257.984131 
	C1144.005127,1258.009888 1144.062988,1258.062256 1144.062988,1258.062256 
z"/>
<path fill="#B5CAF5" opacity="1.000000" stroke="none" 
	d="
M1281.000000,114.531342 
	C1273.656982,115.003220 1266.313843,115.006439 1258.507324,114.997299 
	C1258.029297,77.302406 1258.014648,39.619858 1258.000000,1.468657 
	C1265.642090,1.000000 1273.284180,1.000000 1281.000000,1.000000 
	C1281.000000,38.687531 1281.000000,76.375107 1281.000000,114.531342 
z"/>
<path fill="#CCF0FC" opacity="1.000000" stroke="none" 
	d="
M915.109985,1258.098022 
	C915.078674,1265.419556 915.047424,1272.741211 915.008057,1280.531372 
	C877.312439,1281.000000 839.624878,1281.000000 801.468384,1280.531372 
	C800.998413,1272.715820 800.997437,1265.369019 801.465332,1258.016113 
	C839.619812,1258.001831 877.305298,1257.993652 915.020386,1258.013916 
	C915.049866,1258.042358 915.109985,1258.098022 915.109985,1258.098022 
z"/>
<path fill="#FFFFFF" opacity="1.000000" stroke="none" 
	d="
M800.996460,1258.022095 
	C800.997437,1265.369019 800.998413,1272.715820 800.999756,1280.531372 
	C763.312439,1281.000000 725.624878,1281.000000 687.468628,1281.000000 
	C686.991333,1273.642456 686.982605,1266.284790 686.979919,1258.459717 
	C686.985901,1257.992065 686.981323,1257.973511 687.451904,1257.984131 
	C725.606934,1258.000610 763.291443,1258.006348 800.982666,1258.009766 
	C800.989441,1258.007446 800.996460,1258.022095 800.996460,1258.022095 
z"/>
<path fill="#FFFFFF" opacity="1.000000" stroke="none" 
	d="
M572.067139,1257.979370 
	C572.051331,1265.340576 572.035583,1272.701782 572.009888,1280.531494 
	C534.312439,1281.000000 496.624878,1281.000000 458.470062,1280.531372 
	C458.026031,1272.732300 458.049255,1265.401855 458.532776,1258.046753 
	C496.673370,1258.000732 534.353638,1257.979370 572.034241,1257.969482 
	C572.034546,1257.980835 572.067139,1257.979370 572.067139,1257.979370 
z"/>
<path fill="#CCF0FC" opacity="1.000000" stroke="none" 
	d="
M458.072510,1258.071411 
	C458.049255,1265.401855 458.026031,1272.732300 458.001404,1280.531372 
	C420.312439,1281.000000 382.624878,1281.000000 344.468658,1281.000000 
	C343.988739,1273.667725 343.977448,1266.335327 343.971558,1258.513062 
	C343.976929,1258.023071 344.033844,1257.972046 344.498535,1257.985596 
	C382.628021,1257.989624 420.292847,1257.979858 457.986847,1257.994873 
	C458.016022,1258.019653 458.072479,1258.071411 458.072510,1258.071411 
z"/>
<path fill="#CCF0FC" opacity="1.000000" stroke="none" 
	d="
M1258.103638,1029.897583 
	C1265.423462,1029.925659 1272.743164,1029.953857 1280.531494,1029.990967 
	C1281.000000,1067.687622 1281.000000,1105.375122 1280.531372,1143.530762 
	C1272.729248,1144.015747 1265.395752,1144.032471 1258.032227,1144.022217 
	C1258.002319,1143.995239 1257.942261,1143.941528 1257.963989,1143.479248 
	C1257.984009,1105.346191 1257.982178,1067.675415 1258.012329,1029.979004 
	C1258.044189,1029.953613 1258.103638,1029.897583 1258.103638,1029.897583 
z"/>
<path fill="#FFFFFF" opacity="1.000000" stroke="none" 
	d="
M114.502472,1258.031982 
	C114.982101,1265.386841 114.996605,1272.724731 115.005554,1280.531372 
	C77.121788,1281.000000 39.243580,1281.000000 1.000000,1281.000000 
	C1.000000,1273.649902 1.000000,1266.293701 1.000000,1258.468750 
	C38.679119,1258.005005 76.358238,1258.010010 114.502472,1258.031982 
z"/>
<path fill="#B5CAF5" opacity="1.000000" stroke="none" 
	d="
M1258.062256,1144.049316 
	C1265.395752,1144.032471 1272.729248,1144.015747 1280.531372,1143.999512 
	C1281.000000,1181.687622 1281.000000,1219.375122 1280.531372,1257.533325 
	C1272.709717,1258.007568 1265.356567,1258.011108 1258.003540,1258.014771 
	C1258.003540,1258.014771 1257.998047,1258.002075 1257.996948,1257.534668 
	C1258.017944,1219.394531 1258.040161,1181.721924 1258.062256,1144.049316 
z"/>
<path fill="#B5CAF5" opacity="1.000000" stroke="none" 
	d="
M1257.962158,229.914459 
	C1265.329102,229.936829 1272.696045,229.959213 1280.531494,229.990799 
	C1281.000000,267.687561 1281.000000,305.375122 1280.531372,343.530304 
	C1272.731934,343.979492 1265.401123,343.961060 1258.044800,343.480743 
	C1257.989380,305.327332 1257.959473,267.635803 1257.941040,229.942551 
	C1257.952515,229.940842 1257.962158,229.914444 1257.962158,229.914459 
z"/>
<path fill="#CCF0FC" opacity="1.000000" stroke="none" 
	d="
M1258.070312,343.942627 
	C1265.401123,343.961060 1272.731934,343.979492 1280.531372,343.998962 
	C1281.000000,381.687561 1281.000000,419.375122 1280.531372,457.532166 
	C1272.713379,458.000610 1265.364014,457.999603 1258.009521,457.530151 
	C1257.986938,419.389526 1257.969482,381.717316 1257.981567,344.019409 
	C1258.011108,343.993683 1258.070312,343.942627 1258.070312,343.942627 
z"/>
<path fill="#B5CAF5" opacity="1.000000" stroke="none" 
	d="
M1258.014648,457.998596 
	C1265.364014,457.999603 1272.713379,458.000610 1280.531372,458.000793 
	C1281.000000,495.687561 1281.000000,533.375122 1281.000000,571.531372 
	C1273.636230,572.016174 1266.272461,572.032349 1258.433594,572.051392 
	C1257.958618,572.054199 1257.935913,572.051941 1257.958862,571.578186 
	C1257.986206,533.405823 1257.990601,495.707184 1257.997925,458.004395 
	C1258.000732,458.000214 1258.014648,457.998596 1258.014648,457.998596 
z"/>
<path fill="#B5CAF5" opacity="1.000000" stroke="none" 
	d="
M1257.983398,686.954590 
	C1265.343140,686.965820 1272.703003,686.977051 1280.531372,686.994141 
	C1281.000000,724.687561 1281.000000,762.375122 1280.531372,800.531372 
	C1272.730103,800.982788 1265.397339,800.965637 1258.040527,800.485840 
	C1257.997559,762.338562 1257.978760,724.653809 1257.967773,686.971741 
	C1257.975586,686.974365 1257.983398,686.954651 1257.983398,686.954590 
z"/>
<path fill="#CCF0FC" opacity="1.000000" stroke="none" 
	d="
M1258.064697,800.948425 
	C1265.397339,800.965637 1272.730103,800.982788 1280.531372,801.000000 
	C1281.000000,838.687561 1281.000000,876.375122 1281.000000,914.531372 
	C1273.669556,915.012695 1266.339111,915.025330 1258.517090,915.033142 
	C1258.025635,915.028259 1257.965820,914.980042 1257.979614,914.513794 
	C1257.977661,876.382935 1257.962036,838.718262 1257.975830,801.027222 
	C1258.005249,801.000793 1258.064697,800.948425 1258.064697,800.948425 
z"/>
<path fill="#CCF0FC" opacity="1.000000" stroke="none" 
	d="
M1258.001709,1258.481934 
	C1265.356567,1258.011108 1272.709717,1258.007568 1280.531372,1258.001953 
	C1281.000000,1265.592896 1281.000000,1273.185913 1281.000000,1281.000000 
	C1273.647339,1281.000000 1266.292358,1281.000000 1258.468750,1281.000000 
	C1258.000000,1273.649658 1258.000000,1266.299316 1258.001709,1258.481934 
z"/>
<path fill="#B5CAF5" opacity="1.000000" stroke="none" 
	d="
M115.072296,1029.903809 
	C115.049934,991.923645 115.037163,953.958557 115.032822,915.532715 
	C115.041267,915.071838 115.053947,915.048462 115.526146,915.037476 
	C153.949219,915.055115 191.900101,915.083740 229.895569,915.567505 
	C229.903870,953.970398 229.867599,991.918030 229.374481,1029.898682 
	C190.982758,1029.932373 153.047882,1029.932861 115.112999,1029.933472 
	C115.112999,1029.933472 115.081871,1029.918945 115.072296,1029.903809 
z"/>
<path fill="#CCF0FC" opacity="1.000000" stroke="none" 
	d="
M114.972832,686.958740 
	C114.955826,648.960510 114.969780,610.988525 114.952858,572.560181 
	C114.921982,572.103882 114.984985,572.044800 115.481979,572.030640 
	C153.978592,572.021973 191.978226,572.027527 229.980682,572.497986 
	C229.970673,610.978333 229.957840,648.993774 229.479828,687.003174 
	C191.032242,687.009888 153.049835,687.022644 115.067413,687.035400 
	C115.067413,687.035461 115.003792,686.985046 114.972832,686.958740 
z"/>
<path fill="#CCF0FC" opacity="1.000000" stroke="none" 
	d="
M115.008499,115.493652 
	C153.002319,115.017403 190.996002,115.006966 229.447128,114.971306 
	C229.904587,114.946075 229.966568,115.001984 229.977966,115.493454 
	C229.985336,153.980698 229.981323,191.976486 229.510101,229.974823 
	C191.044556,229.988037 153.046234,229.998703 115.047920,230.009369 
	C115.047920,230.009369 114.982018,229.960129 114.950951,229.931091 
	C114.949371,191.921188 114.978859,153.940338 115.008499,115.493652 
z"/>
<path fill="#FFFFFF" opacity="1.000000" stroke="none" 
	d="
M915.103027,115.078278 
	C953.059875,115.066238 990.999634,115.057541 1029.390747,115.070206 
	C1029.842163,115.091560 1029.885376,115.102440 1029.917114,115.570732 
	C1029.962646,153.667145 1029.976440,191.295258 1029.765991,229.048264 
	C1029.338257,229.443588 1029.134766,229.714035 1028.466919,229.978638 
	C990.383789,229.928009 952.765015,229.883209 915.106934,229.381592 
	C915.067444,190.985611 915.067383,153.046417 915.067261,115.107239 
	C915.067261,115.107239 915.085876,115.081612 915.103027,115.078278 
z"/>
<path fill="#CCF0FC" opacity="1.000000" stroke="none" 
	d="
M572.063232,114.975273 
	C610.063782,114.965263 648.033447,114.983345 686.462646,114.978363 
	C686.922180,114.955299 686.982605,115.011589 686.992188,115.501343 
	C687.002930,153.977661 687.004028,191.964233 686.536133,229.960587 
	C648.050049,229.967819 610.033081,229.965256 572.016296,229.496384 
	C572.002625,191.041382 571.988770,153.052689 571.974854,115.063995 
	C571.974915,115.063995 572.032349,115.003357 572.063232,114.975273 
z"/>
<path fill="#CCF0FC" opacity="1.000000" stroke="none" 
	d="
M229.850967,915.112427 
	C191.900101,915.083740 153.949219,915.055115 115.538162,915.036804 
	C115.052650,877.355225 115.027313,839.663330 114.982391,801.507996 
	C114.962807,801.044556 115.028786,800.988647 115.519112,800.984863 
	C153.979034,800.977051 191.948639,800.973083 229.937561,801.440674 
	C229.968765,839.608215 229.980652,877.304077 229.958023,915.029175 
	C229.923492,915.058411 229.850967,915.112427 229.850967,915.112427 
z"/>
<path fill="#B5CAF5" opacity="1.000000" stroke="none" 
	d="
M229.941879,1257.975098 
	C191.950760,1257.979614 153.976135,1257.984375 115.542892,1257.968506 
	C115.059837,1220.282959 115.035408,1182.618164 115.011368,1144.486816 
	C115.011765,1144.020264 115.019371,1144.004639 115.492203,1144.004028 
	C153.937607,1144.027588 191.910187,1144.051636 229.917816,1144.535400 
	C229.955582,1182.646973 229.958328,1220.299072 229.961075,1257.951050 
	C229.961075,1257.951050 229.958374,1257.975342 229.941879,1257.975098 
z"/>
<path fill="#CCF0FC" opacity="1.000000" stroke="none" 
	d="
M229.882767,1144.075684 
	C191.910187,1144.051636 153.937607,1144.027588 115.500290,1144.005493 
	C115.037987,1106.299438 115.040428,1068.591431 115.077942,1030.408447 
	C153.047882,1029.932861 190.982758,1029.932373 229.414566,1029.929810 
	C229.911484,1029.927856 229.989166,1029.993164 229.981781,1030.462402 
	C229.984695,1068.613037 229.994995,1106.294312 229.976166,1144.002441 
	C229.947052,1144.029297 229.882767,1144.075806 229.882767,1144.075684 
z"/>
<path fill="#CCF0FC" opacity="1.000000" stroke="none" 
	d="
M114.997787,457.988403 
	C114.977478,420.296173 114.990234,382.632202 114.984863,344.504242 
	C114.966751,344.040283 115.033363,343.983643 115.523331,343.980530 
	C153.978104,343.972321 191.942932,343.967255 229.930756,344.434387 
	C229.939911,382.616516 229.926041,420.326477 229.449081,458.028076 
	C191.022812,458.037720 153.059647,458.055664 115.096466,458.073639 
	C115.096466,458.073639 115.030838,458.016632 114.997787,457.988403 
z"/>
<path fill="#B5CAF5" opacity="1.000000" stroke="none" 
	d="
M229.907745,343.962219 
	C191.942932,343.967255 153.978104,343.972321 115.556480,343.952026 
	C115.072281,306.265869 115.044891,268.605103 115.032707,230.476868 
	C153.046234,229.998703 191.044556,229.988037 229.517456,229.985168 
	C229.992035,229.992966 230.006546,229.990936 229.995453,230.460480 
	C229.972504,268.596741 229.960663,306.263428 229.945145,343.943939 
	C229.941483,343.957733 229.907745,343.962219 229.907745,343.962219 
z"/>
<path fill="#FFFFFF" opacity="1.000000" stroke="none" 
	d="
M1257.459473,115.068359 
	C1257.940430,153.063904 1257.961426,191.029861 1257.972412,229.455139 
	C1257.962158,229.914444 1257.952515,229.940842 1257.479980,229.951523 
	C1219.369141,229.935471 1181.730957,229.908737 1144.064819,229.421524 
	C1144.030762,190.990204 1144.024536,153.019333 1144.018311,115.048477 
	C1144.018311,115.048477 1144.018799,115.031250 1144.030762,115.031921 
	C1181.695068,115.034653 1219.347290,115.036713 1257.459473,115.068359 
z"/>
<path fill="#CCF0FC" opacity="1.000000" stroke="none" 
	d="
M1143.548096,115.038101 
	C1144.024536,153.019333 1144.030762,190.990204 1144.037109,229.453415 
	C1144.037231,229.945770 1143.971680,229.999237 1143.506348,229.989319 
	C1105.358521,229.982376 1067.676147,229.985367 1029.996826,229.994156 
	C1030.000000,229.999954 1030.011230,230.006454 1030.008545,229.735626 
	C1030.000610,229.284332 1029.995483,229.103851 1029.990234,228.923370 
	C1029.976440,191.295258 1029.962646,153.667145 1029.934204,115.584282 
	C1067.638916,115.095604 1105.358398,115.061668 1143.548096,115.038101 
z"/>
<path fill="#CCF0FC" opacity="1.000000" stroke="none" 
	d="
M914.592712,115.078445 
	C915.067383,153.046417 915.067444,190.985611 915.072998,229.420868 
	C915.078369,229.916962 915.003967,229.989243 914.534973,229.981140 
	C876.362976,229.951248 838.660034,229.929459 800.966553,229.444901 
	C800.953308,191.023758 800.930481,153.065399 800.907654,115.107033 
	C800.907654,115.107033 800.973389,115.043640 801.007019,115.012161 
	C838.733154,115.003677 876.425659,115.026665 914.592712,115.078445 
z"/>
<path fill="#FFFFFF" opacity="1.000000" stroke="none" 
	d="
M800.449219,115.074326 
	C800.930481,153.065399 800.953308,191.023758 800.959595,229.457306 
	C800.942993,229.932510 800.919495,229.938934 800.458679,229.948792 
	C762.342773,229.962265 724.687622,229.965881 687.023560,229.972397 
	C687.014587,229.975296 687.005127,229.950790 687.005127,229.950790 
	C687.004028,191.964233 687.002930,153.977661 687.021057,115.530907 
	C724.690430,115.061012 762.340576,115.051308 800.449219,115.074326 
z"/>
<path fill="#FFFFFF" opacity="1.000000" stroke="none" 
	d="
M571.509033,115.046890 
	C571.988770,153.052689 572.002625,191.041382 572.010803,229.509277 
	C572.005066,229.988495 571.986206,229.983658 571.518921,229.978790 
	C533.402588,229.939301 495.753571,229.904678 458.075256,229.410431 
	C458.042114,190.989639 458.038269,153.028458 458.034393,115.067276 
	C458.034393,115.067276 458.037903,115.047935 458.050995,115.047562 
	C495.723785,115.041389 533.383484,115.035583 571.509033,115.046890 
z"/>
<path fill="#CCF0FC" opacity="1.000000" stroke="none" 
	d="
M457.562622,115.051636 
	C458.038269,153.028458 458.042114,190.989639 458.046936,229.444962 
	C458.047913,229.939102 457.982391,229.994400 457.515625,229.985321 
	C419.368988,229.981308 381.689148,229.986389 343.974792,229.960510 
	C343.940277,229.929550 343.881653,229.857742 343.914795,229.399170 
	C343.928711,190.999634 343.909454,153.058670 343.890228,115.117706 
	C343.890228,115.117706 343.958923,115.052567 343.993835,115.020142 
	C381.716125,115.003799 419.403503,115.019897 457.562622,115.051636 
z"/>
<path fill="#FFFFFF" opacity="1.000000" stroke="none" 
	d="
M343.433624,115.082138 
	C343.909454,153.058670 343.928711,190.999634 343.460022,229.439606 
	C305.316925,229.956070 267.661743,229.973495 230.006546,229.990936 
	C230.006546,229.990936 229.992035,229.992966 229.984680,229.982620 
	C229.981323,191.976486 229.985336,153.980698 230.006683,115.523727 
	C267.675018,115.057213 305.326019,115.051895 343.433624,115.082138 
z"/>
<path fill="#B5CAF5" opacity="1.000000" stroke="none" 
	d="
M229.918228,800.969055 
	C191.948639,800.973083 153.979034,800.977051 115.552078,800.956909 
	C115.070786,763.276550 115.046867,725.620300 115.045181,687.499756 
	C153.049835,687.022644 191.032242,687.009888 229.495987,687.001892 
	C229.977310,687.006714 229.975388,687.028076 229.975784,687.493774 
	C229.969208,725.620117 229.962234,763.280884 229.953217,800.954346 
	C229.951157,800.967102 229.918228,800.969055 229.918228,800.969055 
z"/>
<path fill="#B5CAF5" opacity="1.000000" stroke="none" 
	d="
M115.065262,458.533966 
	C153.059647,458.055664 191.022812,458.037720 229.465668,458.029785 
	C229.945358,458.039795 229.951233,458.066406 229.958878,458.528534 
	C229.980713,496.664337 229.994904,534.338013 230.000000,572.010742 
	C229.990921,572.009827 229.977844,572.033081 229.977844,572.033081 
	C191.978226,572.027527 153.978592,572.021973 115.516647,572.004883 
	C115.047569,534.327026 115.040810,496.660645 115.065262,458.533966 
z"/>
<path fill="#FFFFFF" opacity="1.000000" stroke="none" 
	d="
M1257.963379,572.067383 
	C1257.975708,610.062805 1257.983521,648.044983 1257.987305,686.490967 
	C1257.983398,686.954651 1257.975586,686.974365 1257.503296,686.976929 
	C1219.380127,686.959900 1181.729248,686.940430 1144.050537,686.461548 
	C1144.048218,648.040100 1144.073730,610.078064 1144.561035,572.089478 
	C1182.660400,572.059265 1220.298096,572.055603 1257.935913,572.051941 
	C1257.935913,572.051941 1257.958618,572.054199 1257.963379,572.067383 
z"/>
<path fill="#E2D7F7" opacity="1.000000" stroke="none" 
	d="
M1029.895386,1258.087280 
	C991.914612,1258.089355 953.968201,1258.061279 915.565857,1258.065674 
	C915.109985,1258.098022 915.049866,1258.042358 915.031494,1257.546997 
	C915.032593,1219.354980 915.052124,1181.658203 915.532593,1143.971680 
	C953.955994,1143.967651 991.918335,1143.953369 1029.906494,1144.410767 
	C1029.953125,1182.586182 1029.974121,1220.289917 1029.995117,1257.993530 
	C1029.995117,1257.993530 1029.929688,1258.057129 1029.895386,1258.087280 
z"/>
<path fill="#B5CAF5" opacity="1.000000" stroke="none" 
	d="
M686.971191,1257.990356 
	C648.967468,1257.989990 610.978577,1257.991211 572.528381,1257.985962 
	C572.067139,1257.979370 572.034546,1257.980835 572.029785,1257.505127 
	C572.052063,1219.378418 572.079102,1181.727417 572.562500,1144.048828 
	C610.983521,1144.036987 648.948181,1144.052368 686.936218,1144.531616 
	C686.966797,1182.654785 686.974060,1220.314209 686.981323,1257.973511 
	C686.981323,1257.973511 686.985901,1257.992065 686.971191,1257.990356 
z"/>
<path fill="#E2D7F7" opacity="1.000000" stroke="none" 
	d="
M1258.054199,915.053955 
	C1258.066406,953.047913 1258.050049,991.016174 1258.068726,1029.441040 
	C1258.103638,1029.897583 1258.044189,1029.953613 1257.546021,1029.968750 
	C1219.353760,1029.964478 1181.659790,1029.945068 1143.974365,1029.465088 
	C1143.983398,991.017883 1143.983643,953.031067 1144.453491,915.035889 
	C1182.604004,915.011658 1220.284912,914.995850 1257.965820,914.980042 
	C1257.965820,914.980042 1258.025635,915.028259 1258.054199,915.053955 
z"/>
<path fill="#E2D7F7" opacity="1.000000" stroke="none" 
	d="
M230.433258,1257.969727 
	C229.958328,1220.299072 229.955582,1182.646973 229.917816,1144.535400 
	C229.882767,1144.075806 229.947052,1144.029297 230.444214,1144.010986 
	C268.615051,1143.988281 306.288696,1143.984131 343.971191,1144.449829 
	C343.997955,1182.603760 344.015900,1220.287964 344.033844,1257.972046 
	C344.033844,1257.972046 343.976929,1258.023071 343.947998,1258.049805 
	C306.247864,1258.047241 268.576660,1258.017944 230.433258,1257.969727 
z"/>
<path fill="#E2D7F7" opacity="1.000000" stroke="none" 
	d="
M1258.032227,1144.022217 
	C1258.040161,1181.721924 1258.017944,1219.394531 1257.989746,1257.536377 
	C1220.317749,1258.009766 1182.651733,1258.013916 1144.524414,1258.040161 
	C1144.062988,1258.062256 1144.005127,1258.009888 1143.996338,1257.520508 
	C1143.996826,1219.353271 1144.006104,1181.675293 1144.482300,1143.997314 
	C1182.613525,1143.978516 1220.277954,1143.959961 1257.942261,1143.941528 
	C1257.942261,1143.941528 1258.002319,1143.995239 1258.032227,1144.022217 
z"/>
<path fill="#B5CAF5" opacity="1.000000" stroke="none" 
	d="
M1144.015381,1143.997437 
	C1144.006104,1181.675293 1143.996826,1219.353271 1143.966919,1257.494873 
	C1106.275391,1257.974243 1068.604492,1257.989990 1030.464355,1257.999634 
	C1029.974121,1220.289917 1029.953125,1182.586182 1029.924316,1144.409912 
	C1029.916504,1143.937256 1029.932495,1143.911011 1030.407715,1143.940308 
	C1068.587036,1143.975342 1106.291016,1143.981079 1143.998047,1143.991943 
	C1144.000977,1143.997070 1144.015381,1143.997437 1144.015381,1143.997437 
z"/>
<path fill="#B5CAF5" opacity="1.000000" stroke="none" 
	d="
M915.071655,1143.961548 
	C915.052124,1181.658203 915.032593,1219.354980 915.001953,1257.518555 
	C877.305298,1257.993652 839.619812,1258.001831 801.465332,1258.016113 
	C800.996460,1258.022095 800.989441,1258.007446 800.990356,1257.539795 
	C801.013123,1219.397339 801.034912,1181.722412 801.518921,1144.028076 
	C839.668335,1143.986816 877.355652,1143.965088 915.043152,1143.952881 
	C915.043335,1143.962402 915.071655,1143.961548 915.071655,1143.961548 
z"/>
<path fill="#E2D7F7" opacity="1.000000" stroke="none" 
	d="
M801.056763,1144.047485 
	C801.034912,1181.722412 801.013123,1219.397339 800.983643,1257.542236 
	C763.291443,1258.006348 725.606934,1258.000610 687.451904,1257.984131 
	C686.974060,1220.314209 686.966797,1182.654785 686.964722,1144.505371 
	C686.969971,1144.015381 687.025330,1143.961060 687.490967,1143.975098 
	C725.616699,1143.971558 763.276672,1143.954224 800.966675,1143.964478 
	C800.996704,1143.992188 801.056763,1144.047485 801.056763,1144.047485 
z"/>
<path fill="#E2D7F7" opacity="1.000000" stroke="none" 
	d="
M572.106140,1144.076294 
	C572.079102,1181.727417 572.052063,1219.378418 572.029541,1257.493896 
	C534.353638,1257.979370 496.673370,1258.000732 458.532776,1258.046753 
	C458.072479,1258.071411 458.016022,1258.019653 458.005127,1257.529907 
	C458.005310,1219.355957 458.016418,1181.671753 458.493225,1143.990479 
	C496.636200,1143.985840 534.313477,1143.978271 572.018616,1143.998169 
	C572.046448,1144.025635 572.106140,1144.076294 572.106140,1144.076294 
z"/>
<path fill="#B5CAF5" opacity="1.000000" stroke="none" 
	d="
M458.027557,1143.987549 
	C458.016418,1181.671753 458.005310,1219.355957 457.975952,1257.505127 
	C420.292847,1257.979858 382.628021,1257.989624 344.498535,1257.985596 
	C344.015900,1220.287964 343.997955,1182.603760 343.983917,1144.452271 
	C343.987823,1143.984863 343.983429,1143.968262 344.453735,1143.977783 
	C382.618652,1143.983887 420.313293,1143.980469 458.006622,1143.985107 
	C458.005310,1143.993042 458.027557,1143.987549 458.027557,1143.987549 
z"/>
<path fill="#FFFFFF" opacity="1.000000" stroke="none" 
	d="
M1257.963989,1143.479248 
	C1220.277954,1143.959961 1182.613525,1143.978516 1144.482300,1143.997314 
	C1144.015381,1143.997437 1144.000977,1143.997070 1144.000244,1143.524658 
	C1143.976318,1105.352417 1143.953125,1067.652344 1143.942383,1029.952148 
	C1143.954712,1029.952026 1143.965698,1029.925659 1143.965698,1029.925659 
	C1181.659790,1029.945068 1219.353760,1029.964478 1257.514160,1029.994141 
	C1257.982178,1067.675415 1257.984009,1105.346191 1257.963989,1143.479248 
z"/>
<path fill="#E2D7F7" opacity="1.000000" stroke="none" 
	d="
M1144.064941,229.913879 
	C1181.730957,229.908737 1219.369141,229.935471 1257.468506,229.953232 
	C1257.959473,267.635803 1257.989380,305.327332 1258.044800,343.480743 
	C1258.070312,343.942627 1258.011108,343.993683 1257.518555,344.001556 
	C1219.352051,344.002838 1181.678101,343.996277 1144.001709,343.522186 
	C1143.989990,305.369537 1143.980835,267.684387 1143.971680,229.999237 
	C1143.971680,229.999237 1144.037231,229.945770 1144.064941,229.913879 
z"/>
<path fill="#FFFFFF" opacity="1.000000" stroke="none" 
	d="
M1144.004272,343.989685 
	C1181.678101,343.996277 1219.352051,344.002838 1257.489014,344.027283 
	C1257.969482,381.717316 1257.986938,419.389526 1258.009521,457.530151 
	C1258.014648,457.998596 1258.000732,458.000214 1257.529785,458.002197 
	C1219.391602,457.986145 1181.724487,457.968079 1144.035156,457.487183 
	C1144.003174,419.349640 1143.993164,381.674866 1143.989502,344.000305 
	C1143.995850,344.000519 1144.004272,343.989685 1144.004272,343.989685 
z"/>
<path fill="#E2D7F7" opacity="1.000000" stroke="none" 
	d="
M1144.057251,457.950012 
	C1181.724487,457.968079 1219.391602,457.986145 1257.526978,458.006378 
	C1257.990601,495.707184 1257.986206,533.405823 1257.958862,571.578186 
	C1220.298096,572.055603 1182.660400,572.059265 1144.530762,572.058838 
	C1144.039062,572.054688 1143.970703,572.002441 1143.982788,571.533569 
	C1143.975464,533.395447 1143.956055,495.726227 1143.966553,458.030121 
	C1143.996582,458.003204 1144.057251,457.950043 1144.057251,457.950012 
z"/>
<path fill="#E2D7F7" opacity="1.000000" stroke="none" 
	d="
M1144.078369,686.920898 
	C1181.729248,686.940430 1219.380127,686.959900 1257.495483,686.974243 
	C1257.978760,724.653809 1257.997559,762.338562 1258.040527,800.485840 
	C1258.064697,800.948425 1258.005249,801.000793 1257.513550,801.007202 
	C1219.351440,801.008667 1181.681152,801.003662 1144.007080,800.530273 
	C1143.987671,762.381531 1143.971924,724.701355 1143.987427,686.996826 
	C1144.018555,686.972534 1144.078369,686.920898 1144.078369,686.920898 
z"/>
<path fill="#FFFFFF" opacity="1.000000" stroke="none" 
	d="
M1144.010742,800.998718 
	C1181.681152,801.003662 1219.351440,801.008667 1257.484131,801.033630 
	C1257.962036,838.718262 1257.977661,876.382935 1257.979614,914.513794 
	C1220.284912,914.995850 1182.604004,915.011658 1144.448975,915.024963 
	C1143.974976,915.022461 1143.957153,915.028809 1143.972046,914.557251 
	C1143.988037,876.393677 1143.989136,838.701721 1143.994507,801.006226 
	C1143.998779,801.002625 1144.010742,800.998718 1144.010742,800.998718 
z"/>
<path fill="#E2D7F7" opacity="1.000000" stroke="none" 
	d="
M229.871399,1029.896729 
	C229.867599,991.918030 229.903870,953.970398 229.895569,915.567566 
	C229.850967,915.112427 229.923492,915.058411 230.427490,915.034973 
	C268.621399,915.016602 306.311279,915.021606 344.000549,915.492310 
	C344.029938,953.937134 344.060028,991.916260 344.057434,1029.927246 
	C344.024719,1029.959106 343.957855,1030.021362 343.492035,1030.006836 
	C305.347198,1029.992432 267.668182,1029.992798 229.989166,1029.993164 
	C229.989166,1029.993164 229.911484,1029.927856 229.871399,1029.896729 
z"/>
<path fill="#FFFFFF" opacity="1.000000" stroke="none" 
	d="
M229.961151,687.007935 
	C229.957840,648.993774 229.970673,610.978333 229.980682,572.497986 
	C229.977844,572.033081 229.990921,572.009827 230.467651,572.017456 
	C268.588013,572.061096 306.231628,572.097107 343.916077,572.586060 
	C343.935608,610.992371 343.914307,648.945862 343.431793,686.925049 
	C305.305511,686.976562 267.640442,687.002319 229.975388,687.028076 
	C229.975388,687.028076 229.977310,687.006714 229.961151,687.007935 
z"/>
<path fill="#E2D7F7" opacity="1.000000" stroke="none" 
	d="
M915.112305,229.877686 
	C952.765015,229.883209 990.383789,229.928009 1028.737183,229.986572 
	C1029.651733,230.002380 1029.831543,230.004425 1030.011230,230.006454 
	C1030.011230,230.006454 1030.000000,229.999954 1029.986450,230.463867 
	C1029.987305,268.608276 1030.001831,306.288727 1029.978027,344.001404 
	C1029.939575,344.033600 1029.862793,344.098022 1029.409058,344.065460 
	C990.987122,344.029480 953.018921,344.026062 915.041138,343.552673 
	C915.022339,305.384888 915.013123,267.687073 915.003967,229.989243 
	C915.003967,229.989243 915.078369,229.916962 915.112305,229.877686 
z"/>
<path fill="#B5CAF5" opacity="1.000000" stroke="none" 
	d="
M1030.008545,229.735626 
	C1029.831543,230.004425 1029.651733,230.002380 1029.201538,229.992401 
	C1029.134766,229.714035 1029.338257,229.443588 1029.765991,229.048264 
	C1029.995483,229.103851 1030.000610,229.284332 1030.008545,229.735626 
z"/>
<path fill="#B5CAF5" opacity="1.000000" stroke="none" 
	d="
M572.010559,229.975586 
	C610.033081,229.965256 648.050049,229.967819 686.536133,229.960587 
	C687.005127,229.950790 687.014587,229.975296 687.007019,230.444107 
	C686.967773,268.582703 686.936096,306.252502 686.446838,343.948914 
	C648.031494,343.954865 610.073792,343.934235 572.087036,343.451294 
	C572.034119,305.320557 572.010193,267.652100 571.986206,229.983658 
	C571.986206,229.983658 572.005066,229.988495 572.010559,229.975586 
z"/>
<path fill="#FFFFFF" opacity="1.000000" stroke="none" 
	d="
M344.001190,915.026611 
	C306.311279,915.021606 268.621399,915.016602 230.462021,915.005737 
	C229.980652,877.304077 229.968765,839.608215 229.937561,801.440674 
	C229.918228,800.969055 229.951157,800.967102 230.426300,800.975708 
	C268.575897,801.010620 306.250366,801.036987 343.951050,801.524597 
	C343.992859,839.662109 344.008392,877.338379 344.016541,915.010742 
	C344.009125,915.006714 344.001190,915.026611 344.001190,915.026611 
z"/>
<path fill="#FFFFFF" opacity="1.000000" stroke="none" 
	d="
M229.981781,1030.462402 
	C267.668182,1029.992798 305.347198,1029.992432 343.505859,1030.472900 
	C343.984772,1068.625244 343.984100,1106.296753 343.983429,1143.968262 
	C343.983429,1143.968262 343.987823,1143.984863 343.975098,1143.982422 
	C306.288696,1143.984131 268.615051,1143.988281 230.473343,1143.984131 
	C229.994995,1106.294312 229.984695,1068.613037 229.981781,1030.462402 
z"/>
<path fill="#FFFFFF" opacity="1.000000" stroke="none" 
	d="
M229.928772,458.038086 
	C229.926041,420.326477 229.939911,382.616516 229.930756,344.434387 
	C229.907745,343.962219 229.941483,343.957733 230.418854,343.968384 
	C268.590179,343.987793 306.284149,343.996552 343.987610,344.003998 
	C343.997101,344.002716 343.997772,344.015381 343.996796,344.482483 
	C343.973389,382.613220 343.950928,420.276855 343.464661,457.959839 
	C305.317657,458.008270 267.634430,458.037323 229.951233,458.066406 
	C229.951233,458.066406 229.945358,458.039795 229.928772,458.038086 
z"/>
<path fill="#E2D7F7" opacity="1.000000" stroke="none" 
	d="
M343.978119,344.005280 
	C306.284149,343.996552 268.590179,343.987793 230.422516,343.954590 
	C229.960663,306.263428 229.972504,268.596741 229.995453,230.460480 
	C267.661743,229.973495 305.316925,229.956070 343.426880,229.898193 
	C343.881653,229.857742 343.940277,229.929550 343.966797,230.430084 
	C343.988220,268.622192 343.983185,306.313721 343.978119,344.005280 
z"/>
<path fill="#B5CAF5" opacity="1.000000" stroke="none" 
	d="
M1030.016357,343.969208 
	C1030.001831,306.288727 1029.987305,268.608276 1029.983398,230.458069 
	C1067.676147,229.985367 1105.358521,229.982376 1143.506348,229.989319 
	C1143.980835,267.684387 1143.989990,305.369537 1144.001709,343.522186 
	C1144.004272,343.989685 1143.995850,344.000519 1143.522705,343.999329 
	C1105.371826,343.988495 1067.694092,343.978851 1030.016357,343.969208 
z"/>
<path fill="#B5CAF5" opacity="1.000000" stroke="none" 
	d="
M914.534973,229.981140 
	C915.013123,267.687073 915.022339,305.384888 915.027100,343.551300 
	C915.022705,344.019897 915.027344,344.036316 914.556152,344.023590 
	C876.410950,343.988495 838.736877,343.966095 801.042297,343.479004 
	C800.987671,305.322510 800.953613,267.630737 800.919556,229.938934 
	C800.919495,229.938934 800.942993,229.932510 800.950012,229.920105 
	C838.660034,229.929459 876.362976,229.951248 914.534973,229.981140 
z"/>
<path fill="#E2D7F7" opacity="1.000000" stroke="none" 
	d="
M800.458740,229.948792 
	C800.953613,267.630737 800.987671,305.322510 801.012634,343.506104 
	C801.003540,343.997864 800.944824,344.049896 800.482117,344.030792 
	C762.351868,344.017029 724.684326,344.022339 686.989136,344.000854 
	C686.961426,343.974060 686.904419,343.922302 686.904419,343.922302 
	C686.936096,306.252502 686.967773,268.582703 687.015991,230.441208 
	C724.687622,229.965881 762.342773,229.962265 800.458740,229.948792 
z"/>
<path fill="#E2D7F7" opacity="1.000000" stroke="none" 
	d="
M571.518921,229.978790 
	C572.010193,267.652100 572.034119,305.320557 572.056152,343.477295 
	C572.054138,343.965576 571.997253,344.023041 571.528931,344.013611 
	C533.394714,344.020996 495.728851,344.037842 458.032715,344.028198 
	C458.002472,344.001678 457.942810,343.947662 457.962769,343.482666 
	C457.982635,305.343262 457.982513,267.668823 457.982391,229.994400 
	C457.982391,229.994400 458.047913,229.939102 458.076233,229.904572 
	C495.753571,229.904678 533.402588,229.939301 571.518921,229.978790 
z"/>
<path fill="#B5CAF5" opacity="1.000000" stroke="none" 
	d="
M457.515625,229.985321 
	C457.982513,267.668823 457.982635,305.343262 457.500671,343.502258 
	C419.345001,343.996368 381.671387,344.005890 343.997772,344.015381 
	C343.997772,344.015381 343.997101,344.002716 343.987610,344.003998 
	C343.983185,306.313721 343.988220,268.622192 344.001282,230.461044 
	C381.689148,229.986389 419.368988,229.981308 457.515625,229.985321 
z"/>
<path fill="#E2D7F7" opacity="1.000000" stroke="none" 
	d="
M343.924805,801.063416 
	C306.250366,801.036987 268.575897,801.010620 230.428345,800.962891 
	C229.962234,763.280884 229.969208,725.620117 229.975784,687.493774 
	C267.640442,687.002319 305.305511,686.976562 343.462524,686.952576 
	C343.954498,686.954407 344.018555,687.006592 344.007751,687.474487 
	C344.012421,725.615173 344.027893,763.288086 344.013916,800.986816 
	C343.984467,801.012634 343.924805,801.063416 343.924805,801.063416 
z"/>
<path fill="#E2D7F7" opacity="1.000000" stroke="none" 
	d="
M229.958878,458.528534 
	C267.634430,458.037323 305.317657,458.008270 343.494934,457.985779 
	C343.989044,457.992371 344.047272,458.043945 344.027100,458.507751 
	C344.009003,496.650940 344.011047,534.330322 343.976624,572.038330 
	C343.940125,572.066895 343.875244,572.133118 343.875244,572.133118 
	C306.231628,572.097107 268.588013,572.061096 230.476746,572.018311 
	C229.994904,534.338013 229.980713,496.664337 229.958878,458.528534 
z"/>
<path fill="#CCF0FC" opacity="1.000000" stroke="none" 
	d="
M1144.069214,572.085327 
	C1144.073730,610.078064 1144.048218,648.040100 1144.050537,686.461548 
	C1144.078369,686.920898 1144.018555,686.972534 1143.523926,686.982849 
	C1105.319702,686.945740 1067.610352,686.898315 1029.920654,686.398315 
	C1029.923584,648.025330 1029.906982,610.104919 1030.363770,572.138672 
	C1068.548218,572.062683 1106.259521,572.032532 1143.970703,572.002441 
	C1143.970703,572.002441 1144.039062,572.054688 1144.069214,572.085327 
z"/>
<path fill="#FFFFFF" opacity="1.000000" stroke="none" 
	d="
M1029.898682,1143.938110 
	C991.918335,1143.953369 953.955994,1143.967651 915.532593,1143.971680 
	C915.071655,1143.961548 915.043335,1143.962402 915.036255,1143.490234 
	C915.041199,1105.357910 915.053162,1067.697876 915.526184,1030.017212 
	C953.978088,1029.993652 991.968933,1029.990723 1029.968506,1029.990723 
	C1029.977173,1029.993774 1029.990234,1030.006470 1029.980835,1030.474487 
	C1029.958496,1068.598633 1029.945435,1106.254883 1029.932373,1143.911011 
	C1029.932495,1143.911011 1029.916504,1143.937256 1029.898682,1143.938110 
z"/>
<path fill="#CCF0FC" opacity="1.000000" stroke="none" 
	d="
M686.941406,1144.041504 
	C648.948181,1144.052368 610.983521,1144.036987 572.562500,1144.048828 
	C572.106140,1144.076294 572.046448,1144.025635 572.031616,1143.532959 
	C572.064392,1105.332520 572.112061,1067.624634 572.610718,1029.935303 
	C611.000549,1029.946045 648.939331,1029.938232 686.910400,1030.402344 
	C686.970276,1068.569824 686.997803,1106.265503 687.025330,1143.961060 
	C687.025330,1143.961060 686.969971,1144.015381 686.941406,1144.041504 
z"/>
<path fill="#B5CAF5" opacity="1.000000" stroke="none" 
	d="
M1143.979492,915.033386 
	C1143.983643,953.031067 1143.983398,991.017883 1143.974365,1029.465088 
	C1143.965698,1029.925659 1143.954712,1029.952026 1143.481201,1029.960205 
	C1105.335083,1029.981201 1067.662720,1029.993774 1029.990234,1030.006348 
	C1029.990234,1030.006470 1029.977173,1029.993774 1029.976074,1029.523682 
	C1029.990723,991.052185 1030.006348,953.050903 1030.489258,915.037354 
	C1068.623291,915.026367 1106.290283,915.027588 1143.957153,915.028809 
	C1143.957153,915.028809 1143.974976,915.022461 1143.979492,915.033386 
z"/>
<path fill="#CCF0FC" opacity="1.000000" stroke="none" 
	d="
M1029.980835,1030.474365 
	C1067.662720,1029.993774 1105.335083,1029.981201 1143.468750,1029.960449 
	C1143.953125,1067.652344 1143.976318,1105.352417 1143.997314,1143.519531 
	C1106.291016,1143.981079 1068.587036,1143.975342 1030.407715,1143.940308 
	C1029.945435,1106.254883 1029.958496,1068.598633 1029.980835,1030.474365 
z"/>
<path fill="#CCF0FC" opacity="1.000000" stroke="none" 
	d="
M915.065063,1030.037842 
	C915.053162,1067.697876 915.041199,1105.357910 915.036133,1143.480591 
	C877.355652,1143.965088 839.668335,1143.986816 801.518921,1144.028076 
	C801.056763,1144.047485 800.996704,1143.992188 800.989807,1143.503418 
	C801.009521,1105.328735 801.036072,1067.642822 801.524597,1029.963379 
	C839.637939,1029.951782 877.289429,1029.933716 914.971313,1029.946777 
	C915.001831,1029.977905 915.065063,1030.037842 915.065063,1030.037842 
z"/>
<path fill="#FFFFFF" opacity="1.000000" stroke="none" 
	d="
M801.062683,1029.956909 
	C801.036072,1067.642822 801.009521,1105.328735 800.959839,1143.475708 
	C763.276672,1143.954224 725.616699,1143.971558 687.490967,1143.975098 
	C686.997803,1106.265503 686.970276,1068.569824 686.928772,1030.395996 
	C686.914795,1029.917603 686.935608,1029.886841 687.410522,1029.918701 
	C725.600159,1029.944336 763.315002,1029.937988 801.031799,1029.943481 
	C801.033813,1029.955322 801.062683,1029.956909 801.062683,1029.956909 
z"/>
<path fill="#FFFFFF" opacity="1.000000" stroke="none" 
	d="
M572.159729,1029.916870 
	C572.112061,1067.624634 572.064392,1105.332520 572.003784,1143.505493 
	C534.313477,1143.978271 496.636200,1143.985840 458.493225,1143.990479 
	C458.027557,1143.987549 458.005310,1143.993042 458.005859,1143.519043 
	C457.987061,1105.351196 457.967743,1067.657593 457.962006,1029.963745 
	C457.975616,1029.963623 457.977570,1029.941895 458.448425,1029.955322 
	C496.638947,1029.933228 534.358582,1029.897827 572.096375,1029.879395 
	C572.114563,1029.896118 572.159729,1029.916870 572.159729,1029.916870 
z"/>
<path fill="#CCF0FC" opacity="1.000000" stroke="none" 
	d="
M457.948425,1029.963867 
	C457.967743,1067.657593 457.987061,1105.351196 458.007141,1143.510986 
	C420.313293,1143.980469 382.618652,1143.983887 344.453735,1143.977783 
	C343.984100,1106.296753 343.984772,1068.625244 343.971680,1030.487549 
	C343.957855,1030.021362 344.024719,1029.959106 344.515320,1029.957886 
	C382.653412,1029.959106 420.300903,1029.961548 457.948425,1029.963867 
z"/>
<path fill="#CCF0FC" opacity="1.000000" stroke="none" 
	d="
M1029.978027,344.001404 
	C1067.694092,343.978851 1105.371826,343.988495 1143.516357,343.999146 
	C1143.993164,381.674866 1144.003174,419.349640 1144.035156,457.487213 
	C1144.057251,457.950043 1143.996582,458.003204 1143.505371,458.009125 
	C1105.320801,457.982788 1067.627441,457.950531 1029.943604,457.458313 
	C1029.923096,419.364899 1029.892944,381.731476 1029.862793,344.098022 
	C1029.862793,344.098022 1029.939575,344.033600 1029.978027,344.001404 
z"/>
<path fill="#B5CAF5" opacity="1.000000" stroke="none" 
	d="
M1029.933960,457.918274 
	C1067.627441,457.950531 1105.320801,457.982788 1143.475464,458.036041 
	C1143.956055,495.726227 1143.975464,533.395447 1143.982788,571.533569 
	C1106.259521,572.032532 1068.548218,572.062683 1030.348999,572.115967 
	C1029.860962,572.139221 1029.831787,572.093811 1029.878784,571.617615 
	C1029.916382,533.410889 1029.906982,495.680328 1029.908813,457.944458 
	C1029.919922,457.939178 1029.933960,457.918274 1029.933960,457.918274 
z"/>
<path fill="#B5CAF5" opacity="1.000000" stroke="none" 
	d="
M1029.900879,686.850891 
	C1067.610352,686.898315 1105.319702,686.945740 1143.492676,687.007141 
	C1143.971924,724.701355 1143.987671,762.381531 1144.007080,800.530273 
	C1144.010742,800.998718 1143.998779,801.002625 1143.526978,801.002869 
	C1105.371338,800.995422 1067.687500,800.987732 1029.990967,800.513794 
	C1029.935669,762.337524 1029.892944,724.627686 1029.864136,686.902222 
	C1029.878052,686.886597 1029.900879,686.850891 1029.900879,686.850891 
z"/>
<path fill="#CCF0FC" opacity="1.000000" stroke="none" 
	d="
M1030.003662,800.980103 
	C1067.687500,800.987732 1105.371338,800.995422 1143.522705,801.006470 
	C1143.989136,838.701721 1143.988037,876.393677 1143.972046,914.557251 
	C1106.290283,915.027588 1068.623291,915.026367 1030.451172,915.006226 
	C1029.945923,914.987244 1029.868408,914.926453 1029.904297,914.466919 
	C1029.909668,876.375610 1029.879272,838.743835 1029.887451,801.078979 
	C1029.926147,801.045959 1030.003662,800.980103 1030.003662,800.980103 
z"/>
<path fill="#B5CAF5" opacity="1.000000" stroke="none" 
	d="
M457.962036,1029.963745 
	C420.300903,1029.961548 382.653412,1029.959106 344.548004,1029.926025 
	C344.060028,991.916260 344.029938,953.937134 344.000549,915.492310 
	C344.001190,915.026611 344.009125,915.006714 344.482635,915.010071 
	C382.613220,915.033569 420.270294,915.053711 457.954041,915.533813 
	C457.979645,953.976501 457.978607,991.959167 457.977570,1029.941895 
	C457.977570,1029.941895 457.975616,1029.963623 457.962036,1029.963745 
z"/>
<path fill="#CCF0FC" opacity="1.000000" stroke="none" 
	d="
M343.923767,686.926880 
	C343.914307,648.945862 343.935608,610.992371 343.916077,572.586060 
	C343.875244,572.133118 343.940125,572.066895 344.443756,572.046448 
	C382.648895,572.052673 420.350433,572.079346 458.039124,572.563171 
	C458.027588,610.994141 458.028870,648.968018 457.559814,686.953247 
	C419.399139,686.978638 381.708832,686.992615 344.018555,687.006592 
	C344.018555,687.006592 343.954498,686.954407 343.923767,686.926880 
z"/>
<path fill="#FFFFFF" opacity="1.000000" stroke="none" 
	d="
M1029.409058,344.065460 
	C1029.892944,381.731476 1029.923096,419.364899 1029.943604,457.458313 
	C1029.933960,457.918274 1029.919922,457.939178 1029.451416,457.958496 
	C991.020874,457.959686 953.058960,457.941559 915.073181,457.460236 
	C915.041992,419.343445 915.034668,381.689880 915.027344,344.036316 
	C915.027344,344.036316 915.022705,344.019897 915.036743,344.021271 
	C953.018921,344.026062 990.987122,344.029480 1029.409058,344.065460 
z"/>
<path fill="#CCF0FC" opacity="1.000000" stroke="none" 
	d="
M572.085083,343.939575 
	C610.073792,343.934235 648.031494,343.954865 686.446838,343.948914 
	C686.904419,343.922302 686.961426,343.974060 686.976562,344.466248 
	C686.976685,382.646484 686.961670,420.334534 686.483765,458.017090 
	C648.041016,458.019104 610.061096,458.026581 572.065491,457.563568 
	C572.032227,419.403076 572.014709,381.713043 571.997253,344.023041 
	C571.997253,344.023041 572.054138,343.965576 572.085083,343.939575 
z"/>
<path fill="#CCF0FC" opacity="1.000000" stroke="none" 
	d="
M457.927368,915.073853 
	C420.270294,915.053711 382.613220,915.033569 344.490051,915.014038 
	C344.008392,877.338379 343.992859,839.662109 343.951050,801.524597 
	C343.924805,801.063416 343.984467,801.012634 344.477478,801.002747 
	C382.647705,801.000671 420.324951,801.008545 458.003021,801.483215 
	C458.017944,839.624695 458.032013,877.299377 458.015747,914.998169 
	C457.985413,915.022339 457.927368,915.073853 457.927368,915.073853 
z"/>
<path fill="#CCF0FC" opacity="1.000000" stroke="none" 
	d="
M343.996796,344.482483 
	C381.671387,344.005890 419.345001,343.996368 457.480713,343.967255 
	C457.942810,343.947662 458.002472,344.001678 458.010193,344.490234 
	C458.010864,382.649506 458.003815,420.320221 457.528503,457.994263 
	C419.389252,458.013000 381.718262,458.028473 344.047272,458.043945 
	C344.047272,458.043945 343.989044,457.992371 343.958740,457.966431 
	C343.950928,420.276855 343.973389,382.613220 343.996796,344.482483 
z"/>
<path fill="#CCF0FC" opacity="1.000000" stroke="none" 
	d="
M914.556152,344.023590 
	C915.034668,381.689880 915.041992,419.343445 915.042969,457.486938 
	C915.036560,457.976868 914.981140,458.031738 914.514526,458.019165 
	C876.367737,458.002380 838.687500,457.998138 801.004761,457.525635 
	C800.983093,419.388184 800.963928,381.719055 800.944824,344.049896 
	C800.944824,344.049896 801.003540,343.997864 801.033203,343.970795 
	C838.736877,343.966095 876.410950,343.988495 914.556152,344.023590 
z"/>
<path fill="#FFFFFF" opacity="1.000000" stroke="none" 
	d="
M800.482056,344.030792 
	C800.963928,381.719055 800.983093,419.388184 801.000183,457.528534 
	C800.998108,457.999725 800.988953,458.003418 800.521362,458.002563 
	C762.360291,458.014435 724.666809,458.027191 686.974731,458.030182 
	C686.976135,458.020416 686.946594,458.022583 686.946594,458.022583 
	C686.961670,420.334534 686.976685,382.646484 687.004272,344.493042 
	C724.684326,344.022339 762.351868,344.017029 800.482056,344.030792 
z"/>
<path fill="#FFFFFF" opacity="1.000000" stroke="none" 
	d="
M457.996796,457.990936 
	C458.003815,420.320221 458.010864,382.649506 458.040466,344.516754 
	C495.728851,344.037842 533.394714,344.020996 571.528931,344.013611 
	C572.014709,381.713043 572.032227,419.403076 572.048950,457.563690 
	C572.048218,458.034302 572.043945,458.059296 571.571289,458.039368 
	C533.404480,458.013153 495.710297,458.006927 458.010437,458.000000 
	C458.004730,457.999359 457.996796,457.990936 457.996796,457.990936 
z"/>
<path fill="#B5CAF5" opacity="1.000000" stroke="none" 
	d="
M458.002167,801.016357 
	C420.324951,801.008545 382.647705,801.000671 344.506958,800.976929 
	C344.027893,763.288086 344.012421,725.615173 344.007751,687.474487 
	C381.708832,686.992615 419.399139,686.978638 457.564056,686.962891 
	C458.038696,686.961121 458.056396,686.958984 458.038391,687.431702 
	C458.020874,725.605103 458.021362,763.305786 458.015259,801.005005 
	C458.008667,801.003601 458.002167,801.016357 458.002167,801.016357 
z"/>
<path fill="#B5CAF5" opacity="1.000000" stroke="none" 
	d="
M344.027100,458.507751 
	C381.718262,458.028473 419.389252,458.013000 457.528503,457.994263 
	C457.996796,457.990936 458.004730,457.999359 458.005280,458.468506 
	C458.033752,496.647186 458.061676,534.356750 458.076782,572.071655 
	C458.063965,572.077087 458.051941,572.106018 458.051941,572.106018 
	C420.350433,572.079346 382.648895,572.052673 344.480225,572.017883 
	C344.011047,534.330322 344.009003,496.650940 344.027100,458.507751 
z"/>
<path fill="#FFFFFF" opacity="1.000000" stroke="none" 
	d="
M1029.875732,572.161865 
	C1029.906982,610.104919 1029.923584,648.025330 1029.920654,686.398315 
	C1029.900879,686.850891 1029.878052,686.886597 1029.411865,686.922485 
	C991.010193,686.933167 953.074524,686.908081 915.097046,686.428223 
	C915.063599,648.030884 915.072083,610.088379 915.098633,572.131897 
	C915.116699,572.117920 915.153931,572.090942 915.612610,572.074646 
	C953.991455,572.070129 991.911621,572.081970 1029.831787,572.093750 
	C1029.831787,572.093811 1029.860962,572.139221 1029.875732,572.161865 
z"/>
<path fill="#E2D7F7" opacity="1.000000" stroke="none" 
	d="
M1029.983887,915.018433 
	C1030.006348,953.050903 1029.990723,991.052185 1029.967285,1029.520508 
	C991.968933,1029.990723 953.978088,1029.993652 915.526184,1030.017212 
	C915.065063,1030.037842 915.001831,1029.977905 914.998291,1029.488525 
	C915.006531,991.000244 915.018372,953.001282 915.495483,915.004272 
	C953.929993,914.979553 991.899231,914.953003 1029.868408,914.926453 
	C1029.868408,914.926453 1029.945923,914.987244 1029.983887,915.018433 
z"/>
<path fill="#B5CAF5" opacity="1.000000" stroke="none" 
	d="
M686.896484,1029.924072 
	C648.939331,1029.938232 611.000549,1029.946045 572.610718,1029.935303 
	C572.159729,1029.916870 572.114563,1029.896118 572.079590,1029.425781 
	C572.049927,991.003479 572.055115,953.051697 572.072388,915.087708 
	C572.084534,915.075562 572.115540,915.062195 572.572571,915.047180 
	C610.982056,915.057068 648.934570,915.081970 686.916443,915.567871 
	C686.942444,953.981506 686.939026,991.934204 686.935608,1029.886841 
	C686.935608,1029.886841 686.914795,1029.917603 686.896484,1029.924072 
z"/>
<path fill="#B5CAF5" opacity="1.000000" stroke="none" 
	d="
M915.030151,915.002380 
	C915.018372,953.001282 915.006531,991.000244 914.967773,1029.457520 
	C877.289429,1029.933716 839.637939,1029.951782 801.524597,1029.963379 
	C801.062683,1029.956909 801.033813,1029.955322 801.023804,1029.482300 
	C801.034607,991.033203 801.055420,953.057068 801.536133,915.055481 
	C839.666626,915.016785 877.337219,915.003601 915.007446,914.995972 
	C915.007080,915.001526 915.030212,915.002380 915.030151,915.002380 
z"/>
<path fill="#E2D7F7" opacity="1.000000" stroke="none" 
	d="
M801.076294,915.080994 
	C801.055420,953.057068 801.034607,991.033203 801.021790,1029.470459 
	C763.315002,1029.937988 725.600159,1029.944336 687.410522,1029.918701 
	C686.939026,991.934204 686.942444,953.981506 686.946167,915.538696 
	C686.946411,915.048462 687.004883,914.993835 687.472900,915.002136 
	C725.614319,914.999634 763.287598,914.988831 800.990845,915.002563 
	C801.020752,915.027161 801.076294,915.080994 801.076294,915.080994 
z"/>
<path fill="#E2D7F7" opacity="1.000000" stroke="none" 
	d="
M572.060303,915.099854 
	C572.055115,953.051697 572.049927,991.003479 572.061401,1029.408936 
	C534.358582,1029.897827 496.638947,1029.933228 458.448425,1029.955322 
	C457.978607,991.959167 457.979645,953.976501 457.954041,915.533813 
	C457.927368,915.073853 457.985413,915.022339 458.478973,915.013184 
	C496.668457,915.036011 534.364380,915.067932 572.060303,915.099854 
z"/>
<path fill="#E2D7F7" opacity="1.000000" stroke="none" 
	d="
M1029.878784,571.617554 
	C991.911621,572.081970 953.991455,572.070129 915.566284,571.598389 
	C915.034607,533.436218 915.007874,495.733978 914.981201,458.031738 
	C914.981140,458.031738 915.036560,457.976868 915.066772,457.950165 
	C953.058960,457.941559 991.020874,457.959686 1029.440186,457.963806 
	C1029.906982,495.680328 1029.916382,533.410889 1029.878784,571.617554 
z"/>
<path fill="#E2D7F7" opacity="1.000000" stroke="none" 
	d="
M915.138916,686.882996 
	C953.074524,686.908081 991.010193,686.933167 1029.397949,686.938049 
	C1029.892944,724.627686 1029.935669,762.337524 1029.990967,800.513794 
	C1030.003662,800.980103 1029.926147,801.045959 1029.436768,801.041687 
	C991.000977,801.051331 953.054749,801.065186 915.077026,801.054443 
	C915.045532,801.029907 914.986938,800.975586 914.999390,800.509583 
	C915.007874,762.362366 915.003967,724.681213 915.034424,686.970337 
	C915.068787,686.940674 915.138916,686.882996 915.138916,686.882996 
z"/>
<path fill="#FFFFFF" opacity="1.000000" stroke="none" 
	d="
M915.108459,801.079102 
	C953.054749,801.065186 991.000977,801.051331 1029.398071,801.074707 
	C1029.879272,838.743835 1029.909668,876.375610 1029.904297,914.466919 
	C991.899231,914.953003 953.929993,914.979553 915.495483,915.004272 
	C915.030212,915.002380 915.007080,915.001526 915.011658,914.528320 
	C915.046997,876.396423 915.077759,838.737732 915.108459,801.079102 
z"/>
<path fill="#FFFFFF" opacity="1.000000" stroke="none" 
	d="
M458.034424,686.951477 
	C458.028870,648.968018 458.027588,610.994141 458.039124,572.563171 
	C458.051941,572.106018 458.063965,572.077087 458.535950,572.060181 
	C496.665985,572.035583 534.324036,572.027771 571.994385,572.020386 
	C572.006714,572.020813 572.014771,572.044189 572.014282,572.508301 
	C571.997803,610.963745 571.981873,648.955078 571.499634,686.958984 
	C533.374390,686.967407 495.715393,686.963196 458.056396,686.958984 
	C458.056396,686.958984 458.038696,686.961121 458.034424,686.951477 
z"/>
<path fill="#B5CAF5" opacity="1.000000" stroke="none" 
	d="
M572.064697,458.034180 
	C610.061096,458.026581 648.041016,458.019104 686.483765,458.017090 
	C686.946594,458.022583 686.976135,458.020416 686.978271,458.494568 
	C686.965149,496.636871 686.949951,534.305054 686.473633,571.992310 
	C648.013306,572.022339 610.014038,572.033264 572.014771,572.044189 
	C572.014771,572.044189 572.006714,572.020813 572.008179,571.549744 
	C572.020996,533.405518 572.032471,495.732422 572.043945,458.059296 
	C572.043945,458.059296 572.048218,458.034302 572.064697,458.034180 
z"/>
<path fill="#FFFFFF" opacity="1.000000" stroke="none" 
	d="
M572.072388,915.087708 
	C534.364380,915.067932 496.668457,915.036011 458.509308,914.989014 
	C458.032013,877.299377 458.017944,839.624695 458.003021,801.483215 
	C458.002167,801.016357 458.008667,801.003601 458.481567,801.003662 
	C496.630951,801.013672 534.307434,801.023621 571.999817,801.498352 
	C572.049011,839.662842 572.082275,877.362488 572.115540,915.062195 
	C572.115540,915.062195 572.084534,915.075562 572.072388,915.087708 
z"/>
<path fill="#B5CAF5" opacity="1.000000" stroke="none" 
	d="
M914.514526,458.019165 
	C915.007874,495.733978 915.034607,533.436218 915.107666,571.614746 
	C915.153931,572.090942 915.116699,572.117920 914.622559,572.091919 
	C876.427795,572.044495 838.727295,572.023071 801.016113,571.533081 
	C801.000000,533.377441 800.994507,495.690430 800.988953,458.003418 
	C800.988953,458.003418 800.998108,457.999725 801.002686,457.996826 
	C838.687500,457.998138 876.367737,458.002380 914.514526,458.019165 
z"/>
<path fill="#E2D7F7" opacity="1.000000" stroke="none" 
	d="
M800.521362,458.002563 
	C800.994507,495.690430 801.000000,533.377441 800.980591,571.567627 
	C800.955566,572.070801 800.885010,572.140503 800.430054,572.099731 
	C762.337646,572.073975 724.700073,572.088989 687.031189,572.070679 
	C686.999817,572.037415 686.934753,571.973206 686.934753,571.973206 
	C686.949951,534.305054 686.965149,496.636871 686.976807,458.504333 
	C724.666809,458.027191 762.360291,458.014435 800.521362,458.002563 
z"/>
<path fill="#E2D7F7" opacity="1.000000" stroke="none" 
	d="
M571.571289,458.039368 
	C572.032471,495.732422 572.020996,533.405518 571.995850,571.549316 
	C534.324036,572.027771 496.665985,572.035583 458.548767,572.054810 
	C458.061676,534.356750 458.033752,496.647186 458.010986,458.469177 
	C495.710297,458.006927 533.404480,458.013153 571.571289,458.039368 
z"/>
<path fill="#E2D7F7" opacity="1.000000" stroke="none" 
	d="
M571.983887,801.033569 
	C534.307434,801.023621 496.630951,801.013672 458.488159,801.005066 
	C458.021362,763.305786 458.020874,725.605103 458.038391,687.431702 
	C495.715393,686.963196 533.374390,686.967407 571.534424,686.987061 
	C572.035461,687.002441 572.104736,687.056641 572.072998,687.518677 
	C572.069031,725.625793 572.096802,763.270752 572.089600,800.945435 
	C572.054565,800.975159 571.983887,801.033630 571.983887,801.033569 
z"/>
<path fill="#CCF0FC" opacity="1.000000" stroke="none" 
	d="
M800.991150,572.036255 
	C838.727295,572.023071 876.427795,572.044495 914.604492,572.105896 
	C915.072083,610.088379 915.063599,648.030884 915.097046,686.428223 
	C915.138916,686.882996 915.068787,686.940674 914.565796,686.962402 
	C876.366699,686.970703 838.670532,686.957275 800.980652,686.481201 
	C800.952942,648.059265 800.919006,610.099915 800.885010,572.140503 
	C800.885010,572.140503 800.955566,572.070801 800.991150,572.036255 
z"/>
<path fill="#CCF0FC" opacity="1.000000" stroke="none" 
	d="
M572.572571,915.047180 
	C572.082275,877.362488 572.049011,839.662842 571.999817,801.498413 
	C571.983887,801.033630 572.054565,800.975159 572.543457,800.974609 
	C611.004578,800.976868 648.976807,800.979553 686.959412,801.451965 
	C686.981445,839.612366 686.993164,877.303101 687.004883,914.993835 
	C687.004883,914.993835 686.946411,915.048462 686.916748,915.077637 
	C648.934570,915.081970 610.982056,915.057068 572.572571,915.047180 
z"/>
<path fill="#CCF0FC" opacity="1.000000" stroke="none" 
	d="
M915.077026,801.054504 
	C915.077759,838.737732 915.046997,876.396423 915.012085,914.522705 
	C877.337219,915.003601 839.666626,915.016785 801.536133,915.055481 
	C801.076294,915.080994 801.020752,915.027161 801.005554,914.536621 
	C800.994812,876.368347 800.999207,838.690613 801.471863,801.008911 
	C839.622375,800.995117 877.304626,800.985352 914.986938,800.975586 
	C914.986938,800.975586 915.045532,801.029907 915.077026,801.054504 
z"/>
<path fill="#FFFFFF" opacity="1.000000" stroke="none" 
	d="
M801.003662,801.012878 
	C800.999207,838.690613 800.994812,876.368347 800.975647,914.512085 
	C763.287598,914.988831 725.614319,914.999634 687.472900,915.002136 
	C686.993164,877.303101 686.981445,839.612366 686.974548,801.452881 
	C686.979309,800.984192 686.975403,800.965454 687.446411,800.977844 
	C725.606140,800.994446 763.294983,800.998657 800.989746,801.002441 
	C800.995728,801.001892 801.003662,801.012878 801.003662,801.012878 
z"/>
<path fill="#B5CAF5" opacity="1.000000" stroke="none" 
	d="
M914.999390,800.509583 
	C877.304626,800.985352 839.622375,800.995117 801.471863,801.008911 
	C801.003662,801.012878 800.995728,801.001892 800.994995,800.533508 
	C800.978943,762.363525 800.963562,724.661987 800.956909,686.961853 
	C800.965637,686.963318 800.974426,686.943848 800.974426,686.943848 
	C838.670532,686.957275 876.366699,686.970703 914.531372,686.992065 
	C915.003967,724.681213 915.007874,762.362366 914.999390,800.509583 
z"/>
<path fill="#CCF0FC" opacity="1.000000" stroke="none" 
	d="
M572.014282,572.508301 
	C610.014038,572.033264 648.013306,572.022339 686.473633,571.992310 
	C686.934753,571.973206 686.999817,572.037415 687.005249,572.526794 
	C686.998535,611.008545 686.986389,649.000916 686.508484,686.991699 
	C648.063416,687.012329 610.084045,687.034485 572.104736,687.056641 
	C572.104736,687.056641 572.035461,687.002441 572.000732,686.974426 
	C571.981873,648.955078 571.997803,610.963745 572.014282,572.508301 
z"/>
<path fill="#FFFFFF" opacity="1.000000" stroke="none" 
	d="
M686.974243,686.993286 
	C686.986389,649.000916 686.998535,611.008545 687.036621,572.560059 
	C724.700073,572.088989 762.337646,572.073975 800.430115,572.099731 
	C800.919006,610.099915 800.952942,648.059265 800.980652,686.481262 
	C800.974426,686.943848 800.965637,686.963318 800.493774,686.969177 
	C762.347046,686.985352 724.672058,686.995728 686.995850,687.001587 
	C686.994507,686.997070 686.974304,686.993286 686.974243,686.993286 
z"/>
<path fill="#B5CAF5" opacity="1.000000" stroke="none" 
	d="
M572.072998,687.518677 
	C610.084045,687.034485 648.063416,687.012329 686.508545,686.991699 
	C686.974304,686.993286 686.994507,686.997070 686.991821,687.469543 
	C686.984558,725.616516 686.979980,763.290955 686.975403,800.965454 
	C686.975403,800.965454 686.979309,800.984192 686.964172,800.983276 
	C648.976807,800.979553 611.004578,800.976868 572.578491,800.944946 
	C572.096802,763.270752 572.069031,725.625793 572.072998,687.518677 
z"/>
<path fill="#E2D7F7" opacity="1.000000" stroke="none" 
	d="
M687.446411,800.977844 
	C686.979980,763.290955 686.984558,725.616516 686.993164,687.473999 
	C724.672058,686.995728 762.347046,686.985352 800.485107,686.967712 
	C800.963562,724.661987 800.978943,762.363525 800.989014,800.534058 
	C763.294983,800.998657 725.606140,800.994446 687.446411,800.977844 
z"/>
</svg>