<svg version="1.1" id="Layer_1" xmlns="http://www.w3.org/2000/svg" xmlns:xlink="http://www.w3.org/1999/xlink" x="0px" y="0px"
	 width="100%" viewBox="0 0 1280 1280" enable-background="new 0 0 1280 1280" xml:space="preserve">
<path fill="#FFF3E7" opacity="1.000000" stroke="none" 
	d="
M709.000000,1281.000000 
	C472.666656,1281.000000 236.833328,1281.000000 1.000000,1281.000000 
	C1.000000,854.333313 1.000000,427.666656 1.000000,1.000000 
	C427.666656,1.000000 854.333313,1.000000 1281.000000,1.000000 
	C1281.000000,427.666656 1281.000000,854.333313 1281.000000,1281.000000 
	C1090.500000,1281.000000 900.000000,1281.000000 709.000000,1281.000000 
M1000.039551,670.307739 
	C1000.089600,669.547729 1000.139648,668.787659 1000.959412,667.977600 
	C1015.185669,666.111633 1020.244568,654.785706 1025.329102,643.804932 
	C1039.205444,648.015930 1045.519165,642.819092 1050.554932,636.512390 
	C1057.939453,627.263916 1060.723877,617.433228 1052.772827,607.067444 
	C1071.813599,586.267700 1070.071777,567.488586 1048.050171,553.821594 
	C1050.526123,543.812744 1048.344360,537.238647 1039.846802,531.347473 
	C1028.440796,523.440002 1019.992065,531.163757 1011.369263,537.617371 
	C1009.867981,523.027039 1005.312927,517.085022 994.210754,516.368042 
	C990.447693,516.125000 986.198364,517.184937 982.798645,518.895935 
	C976.546021,522.042725 975.848816,528.816406 974.595032,534.750854 
	C969.230713,532.954712 964.306641,530.880615 959.178894,529.668396 
	C943.569397,525.978271 932.851685,532.747375 929.897339,548.403748 
	C928.893005,553.726562 928.570618,559.424561 929.317261,564.757812 
	C929.981140,569.500244 928.574402,571.708191 924.823853,574.245728 
	C912.174316,582.804260 907.978882,595.315613 913.364136,606.915161 
	C917.275574,615.340332 924.391785,620.027588 932.800659,623.025635 
	C935.988342,624.162231 939.313049,624.914429 942.168701,625.726196 
	C940.354248,630.446167 938.332031,634.823669 936.990784,639.400696 
	C934.929016,646.436096 936.059387,653.306824 941.465698,658.319458 
	C946.591919,663.072327 953.090454,661.596375 958.969666,659.416138 
	C964.373657,657.411987 969.523254,654.721558 975.032471,652.221191 
	C979.746582,661.590454 986.827698,667.714478 998.021790,668.796570 
	C998.157837,669.575134 998.293884,670.353760 998.358154,671.967957 
	C998.615845,679.634583 998.873474,687.301147 998.980042,695.897949 
	C999.354736,711.386902 999.685303,726.877075 1000.115662,742.364502 
	C1000.620117,760.518799 1001.284668,778.668884 1001.731628,796.824463 
	C1001.929993,804.883301 1001.765076,812.951172 1001.765076,821.830505 
	C1000.389771,814.994690 999.336548,808.947083 997.941589,802.979431 
	C993.825256,785.369141 988.261902,768.323181 977.237244,753.620422 
	C969.329041,743.073853 959.272217,735.515930 945.793884,734.460083 
	C936.531738,733.734497 927.126282,733.884033 917.854126,734.573853 
	C911.565247,735.041748 905.396423,737.124634 898.961609,738.531738 
	C901.703247,748.011658 904.087219,756.254639 906.297424,763.897095 
	C920.636108,763.897095 934.270264,763.814697 947.902893,763.924805 
	C957.665588,764.003662 965.120483,767.846924 969.499634,777.122131 
	C978.235168,795.624023 987.278870,813.980042 996.085266,832.448853 
	C998.969360,838.497620 1001.512878,844.708801 1004.655457,851.853577 
	C1005.309998,849.046387 1005.628174,847.421936 1006.068848,845.831360 
	C1011.351135,826.765076 1016.631042,807.698059 1021.958008,788.644226 
	C1023.968994,781.451172 1028.774414,776.585205 1035.240601,773.196899 
	C1038.484741,771.497009 1041.648071,769.572937 1045.039917,768.237305 
	C1056.798218,763.606812 1068.662109,759.244568 1080.422852,754.619934 
	C1081.829834,754.066589 1083.891724,752.517334 1083.880493,751.448547 
	C1083.805176,744.358337 1083.246826,737.273132 1082.822266,729.771057 
	C1079.256958,730.052185 1076.270874,730.108643 1073.342407,730.548706 
	C1058.875854,732.722473 1045.456177,738.088745 1032.221558,744.068909 
	C1024.780151,747.431335 1018.917542,752.550720 1015.431763,759.807434 
	C1012.426514,766.063721 1009.993042,772.667664 1008.033264,779.331543 
	C1006.287659,785.266968 1005.537781,791.495300 1004.348511,797.594360 
	C1003.559265,795.984375 1003.372009,794.381897 1003.330444,792.775635 
	C1002.839050,773.794922 1002.423706,754.812134 1001.875916,735.833191 
	C1001.482178,722.192810 1000.919434,708.557312 1000.555908,694.116455 
	C1000.327209,686.427368 1000.098511,678.738342 1000.039551,670.307739 
M400.340088,216.814163 
	C400.398560,216.713226 400.531281,216.563217 400.502625,216.519882 
	C400.380249,216.334671 400.210205,216.180954 399.692322,215.433334 
	C373.699097,198.805420 338.202179,195.018982 311.501282,219.840866 
	C304.594849,226.261292 297.700562,232.694763 290.578430,239.329285 
	C288.295746,236.809113 286.145538,234.284500 283.837158,231.913895 
	C275.643951,223.499680 267.134186,215.097092 255.156204,212.874985 
	C244.260880,210.853729 233.098785,209.511688 222.035522,209.373657 
	C211.526718,209.242523 201.240234,211.783997 192.295334,218.096893 
	C189.558395,220.028503 188.544464,222.008560 190.295074,225.110199 
	C193.726593,231.189957 196.499878,237.726730 200.538605,243.362778 
	C214.641647,263.043671 233.464401,274.180542 258.302185,272.950500 
	C270.342224,272.354279 282.348419,271.074768 294.300812,270.110199 
	C293.911835,295.829956 272.282410,366.298706 258.537384,385.787476 
	C254.734161,382.105865 251.100189,378.230347 247.098831,374.780975 
	C234.526230,363.942657 221.031097,355.710510 203.239471,359.005219 
	C183.184174,362.719116 169.497162,373.667847 164.144577,393.578735 
	C161.959747,401.705994 160.985214,410.222321 160.132812,418.629852 
	C158.672714,433.031677 165.297134,443.603302 176.876373,451.551697 
	C187.968811,459.165955 200.632660,462.591522 213.506897,465.503662 
	C232.171600,469.725677 250.247940,470.098328 267.569214,459.812653 
	C289.520294,446.777740 301.173950,428.053070 300.882324,402.417633 
	C300.732941,389.285767 292.642273,381.824615 279.589691,382.025085 
	C276.808624,382.067810 274.033661,382.507385 272.284485,382.669067 
	C281.211914,356.617584 290.207947,330.365967 298.962341,304.819550 
	C302.872650,346.133148 313.476959,386.109406 340.569611,420.896179 
	C337.010101,421.381866 334.572571,421.780548 332.120270,422.039032 
	C302.252319,425.187073 292.560760,455.154022 299.695282,473.795898 
	C304.168427,485.483856 311.944580,494.642944 320.404816,503.463287 
	C331.847198,515.392761 345.337524,516.873108 360.320984,511.802277 
	C371.679749,507.958191 381.378784,501.310059 391.192291,494.639618 
	C401.951172,487.326508 407.692902,477.286591 410.531921,464.941650 
	C415.972565,441.283997 405.250458,414.035126 385.522980,402.096069 
	C377.402130,397.181274 369.639191,397.890076 363.532532,405.029633 
	C360.362152,408.736298 358.171967,413.376251 356.009949,417.823547 
	C353.893707,422.176697 352.345673,422.680817 349.481506,418.694275 
	C335.220978,398.845520 322.923798,378.029114 316.690796,354.043182 
	C310.515198,330.278046 307.355988,306.068604 305.110779,281.700470 
	C304.574036,275.874603 304.460327,270.009796 304.129547,263.735962 
	C306.201050,264.115631 307.328156,264.297211 308.444427,264.530640 
	C320.251526,267.000305 332.278442,268.818573 344.112366,266.190094 
	C360.141876,262.629761 373.191101,253.190155 384.906036,242.085022 
	C391.330170,235.995316 396.688538,228.929245 399.445984,219.662292 
	C399.618225,219.067703 399.790436,218.473129 399.938416,217.429550 
	C399.938416,217.429550 400.033752,216.990143 400.340088,216.814163 
M238.880600,662.249573 
	C234.211609,664.006836 229.412506,665.482117 224.894394,667.566467 
	C191.914139,682.781555 170.065399,708.471619 156.055283,741.378662 
	C150.032562,755.524841 145.392914,770.178040 144.211639,785.544739 
	C142.548965,807.173767 150.881805,825.556458 164.394516,841.898193 
	C177.735580,858.032288 194.398651,870.162354 212.137268,880.893311 
	C232.282379,893.080139 253.506393,903.247253 275.721161,910.868774 
	C305.876831,921.214783 336.037354,918.007812 365.833008,908.231506 
	C384.540833,902.093201 397.991394,889.999817 407.100494,872.699585 
	C415.581451,856.592407 419.162262,839.251038 419.864136,821.309570 
	C421.008301,792.061707 415.773285,763.669312 407.167145,735.840576 
	C400.089417,712.954224 388.614624,692.547241 370.210327,676.977783 
	C350.160889,660.016541 327.915497,647.769958 300.164429,652.071777 
	C279.968872,655.202332 259.833008,658.717834 238.880600,662.249573 
M486.006927,946.382996 
	C476.712952,952.152283 475.269470,959.201477 481.567596,968.570862 
	C484.904724,973.535217 488.618500,978.260803 491.733887,983.356018 
	C494.989410,988.680298 499.411591,991.906860 505.490875,993.131287 
	C517.586670,995.567505 529.069458,992.533508 540.217102,988.640747 
	C563.366028,980.556885 585.328430,969.736267 606.188599,956.935852 
	C614.899841,951.590393 622.972656,944.872742 630.340332,937.749390 
	C640.707764,927.725708 647.012939,915.599121 646.135864,900.378662 
	C645.176941,883.738708 636.653931,876.508789 620.440430,880.771118 
	C611.200745,883.200134 601.934021,886.607300 593.607788,891.241760 
	C558.578247,910.739563 523.915344,930.898560 486.006927,946.382996 
M594.499878,1009.985596 
	C572.751465,1020.288635 559.397888,1037.237305 553.764954,1060.613403 
	C552.729980,1064.908691 553.920288,1066.964111 557.300476,1069.087402 
	C576.316956,1081.033203 595.209473,1079.948120 614.538086,1069.601807 
	C620.885742,1066.203979 627.949097,1062.895142 634.943115,1062.220825 
	C648.276611,1060.935059 661.799500,1061.300659 675.236572,1061.490845 
	C688.025513,1061.671875 700.822754,1063.188477 713.584412,1062.863770 
	C727.438354,1062.510986 734.041138,1052.451050 730.183228,1039.046753 
	C729.230530,1035.736694 728.035217,1032.149902 725.874756,1029.603882 
	C720.853760,1023.686768 715.751526,1017.576660 709.646790,1012.894897 
	C696.489929,1002.804932 681.415466,997.720825 664.564209,998.002441 
	C640.823059,998.399170 617.301697,999.738281 594.499878,1009.985596 
M1036.042480,943.360840 
	C1046.415771,946.974670 1056.774536,950.630432 1067.166138,954.190918 
	C1078.452271,958.057983 1088.020996,964.271179 1095.642944,973.618469 
	C1108.034424,988.815125 1115.061768,1006.523926 1120.001099,1025.142944 
	C1123.015625,1036.506104 1125.136353,1048.106323 1127.684082,1059.716675 
	C1132.950439,1059.716675 1138.343384,1059.716675 1144.043945,1059.716675 
	C1144.285278,1045.616333 1142.450684,1032.128784 1138.887451,1018.942566 
	C1124.622437,966.152649 1092.371704,930.580444 1038.642944,916.736084 
	C1014.406799,910.491089 989.476379,910.937378 964.660156,913.014221 
	C938.339844,915.216980 915.473389,925.058716 896.552063,943.859497 
	C869.150696,971.086243 853.110107,1004.479980 843.030823,1041.177734 
	C841.377930,1047.195801 840.051880,1053.303833 838.565918,1059.406494 
	C850.705994,1061.497803 850.624817,1061.339478 855.114624,1051.748169 
	C866.968323,1026.425903 878.808167,1001.093140 891.058960,975.962158 
	C900.103577,957.408142 915.006714,945.179321 934.968384,940.247070 
	C948.638306,936.869385 962.672363,934.582947 976.679382,933.043091 
	C997.026001,930.806335 1016.214172,937.026306 1036.042480,943.360840 
M729.368530,690.058838 
	C728.160645,688.260559 726.961975,686.455994 725.743469,684.664917 
	C713.939331,667.314270 702.116211,649.976440 690.336121,632.609436 
	C687.350708,628.208130 685.708984,623.529663 688.234131,617.087280 
	C711.301086,643.819763 733.843445,669.944336 756.545227,696.253662 
	C760.159058,691.296448 763.372375,686.639404 766.837646,682.177979 
	C782.255554,662.327820 795.675659,641.519104 801.847595,616.635559 
	C805.802734,600.689209 810.833557,585.009644 815.398682,569.153198 
	C790.873840,556.486938 766.813965,544.318054 743.002686,531.680786 
	C724.341309,521.776672 706.086609,511.106598 687.430969,501.191071 
	C682.478882,498.559021 676.715271,497.453979 670.523254,495.379425 
	C672.953735,514.723267 676.366882,532.609497 675.098328,550.891113 
	C663.973389,530.050232 660.809204,507.620331 661.417847,484.300598 
	C638.671021,477.115570 616.299866,477.629303 593.885132,486.442780 
	C595.493042,493.723145 596.851929,500.742279 598.612610,507.659149 
	C601.814148,520.236694 605.353149,532.728333 608.537292,545.310059 
	C609.549011,549.307678 610.901245,554.655212 606.306152,556.485657 
	C602.068909,558.173584 600.597107,552.947388 599.024963,549.861511 
	C594.491516,540.963013 590.266968,531.907715 585.842712,522.952759 
	C581.509766,514.182495 577.080444,505.459961 572.389832,496.111481 
	C560.801636,501.419006 549.569824,506.414948 538.478943,511.706329 
	C533.013000,514.314148 532.565063,515.705139 535.749451,521.026123 
	C540.363159,528.735474 545.517212,536.119141 550.270264,543.748047 
	C554.228088,550.100464 558.180054,556.479431 561.671082,563.091309 
	C563.755066,567.038452 562.780334,571.053955 559.036804,573.748413 
	C555.334045,576.413635 551.439697,575.912354 547.964355,573.139099 
	C546.562195,572.020203 545.435364,570.501831 544.362732,569.034180 
	C539.841675,562.848145 535.466980,556.554016 530.891541,550.409058 
	C524.275452,541.523438 517.531860,532.732849 510.744873,523.772461 
	C498.175995,534.650696 486.039764,545.068787 474.042572,555.644531 
	C472.512604,556.993225 471.347382,559.030823 470.623566,560.976318 
	C463.598755,579.859192 460.037933,599.429688 458.913971,619.525574 
	C458.594727,625.233154 460.709076,629.158936 465.281097,632.092468 
	C468.923462,634.429504 472.713531,636.553162 476.238098,639.053406 
	C482.184113,643.271240 482.810547,646.463684 478.832245,652.460083 
	C475.520264,657.452087 471.869659,662.218201 468.454651,667.143677 
	C465.610626,671.245605 464.877777,675.585144 466.900848,680.374207 
	C469.554352,686.655579 471.667480,693.176941 474.525879,699.357971 
	C485.751740,723.632385 503.233643,743.404114 521.416687,762.451477 
	C547.343567,789.610962 555.392517,793.449646 586.527344,796.824097 
	C578.269409,768.569641 570.024292,740.358948 561.495911,711.179077 
	C568.591064,713.422668 571.792786,718.044495 574.288940,723.391296 
	C581.823792,739.531494 589.347534,755.676880 596.880066,771.818176 
	C599.889038,778.265991 602.909790,784.708252 606.103088,791.533264 
	C622.778076,783.773987 639.014526,776.218750 655.473999,768.559753 
	C654.927551,765.696594 654.558716,763.073486 653.918518,760.518372 
	C649.070679,741.170776 644.402527,721.773438 639.191040,702.523499 
	C636.411377,692.256165 632.575500,682.278625 629.389832,672.115784 
	C627.718811,666.784790 630.219971,660.410889 634.710388,657.162781 
	C637.129028,655.413208 639.238586,655.752380 640.643433,658.142212 
	C642.318420,660.991516 643.884033,663.994019 644.908630,667.122803 
	C653.351440,692.904480 661.668945,718.727173 669.995361,744.546875 
	C671.601501,749.527344 673.080566,754.548828 674.766968,760.035278 
	C698.135132,743.273743 722.544983,729.109192 741.895935,708.260620 
	C737.713074,702.160278 733.760376,696.395630 729.368530,690.058838 
M493.230591,1032.217041 
	C482.418518,1027.489502 471.671936,1022.604370 460.776611,1018.077209 
	C449.093872,1013.222839 437.586456,1008.411804 427.623444,1000.099854 
	C417.067932,991.293640 404.220184,988.444275 390.568573,990.089783 
	C384.510559,990.820068 378.863617,992.635742 375.412964,998.415039 
	C366.853973,1012.750244 368.393097,1028.477661 380.646515,1039.815430 
	C386.544403,1045.272583 393.469543,1050.016357 400.673218,1053.579712 
	C414.072052,1060.207397 427.783936,1066.366089 441.810486,1071.505737 
	C451.864014,1075.189575 462.515594,1077.942871 473.128296,1079.225830 
	C487.138702,1080.919678 499.068573,1075.952393 506.637390,1063.172607 
	C511.876801,1054.325806 510.879211,1046.754272 503.387299,1039.800049 
	C500.484680,1037.105713 497.038910,1034.996582 493.230591,1032.217041 
M590.716370,142.234024 
	C587.271301,152.826797 583.355835,163.293762 580.481750,174.039246 
	C574.960938,194.680267 573.821228,215.114716 582.069885,235.768494 
	C585.488647,244.328659 586.975220,254.342560 586.614014,263.588837 
	C585.854492,283.026611 583.735291,302.448578 581.351318,321.775574 
	C578.723389,343.079681 569.969238,362.424957 559.715698,380.993469 
	C552.337219,394.355438 544.018860,407.198425 535.971741,420.517944 
	C537.661072,423.342316 539.180908,421.741272 540.924500,419.793121 
	C556.033081,402.911926 571.338318,386.204376 586.291443,369.187134 
	C606.564941,346.115143 630.365234,328.281647 659.692200,318.339874 
	C669.302551,315.082001 679.000488,312.040039 688.455505,308.375916 
	C705.673523,301.703430 723.142761,298.342163 741.735291,300.941620 
	C748.499023,301.887238 755.775208,301.484467 762.483154,300.089081 
	C784.921875,295.421417 804.106262,283.621368 822.767151,270.951904 
	C831.697998,264.888489 831.494995,255.405655 821.937195,250.324387 
	C810.788940,244.397614 799.534424,238.452774 787.786316,233.912018 
	C746.920105,218.116882 708.434753,223.930542 672.496216,248.342926 
	C666.489441,252.423233 660.952148,257.194885 654.724731,262.013184 
	C655.002502,259.890015 655.243042,258.282166 655.419495,256.667267 
	C657.783691,235.032471 656.810608,213.635391 648.611511,193.260101 
	C639.961304,171.763885 625.653137,153.944016 609.668701,137.483200 
	C603.518738,131.149933 595.423584,133.150192 590.716370,142.234024 
M1150.096069,310.226379 
	C1149.044434,306.720856 1147.993042,303.215302 1146.941528,299.709778 
	C1141.027100,279.993042 1130.538330,263.040436 1116.047119,248.492355 
	C1110.269287,242.691849 1103.498535,238.770615 1095.513550,236.752518 
	C1086.819214,234.555176 1078.255737,231.838287 1069.554810,229.670059 
	C1062.302368,227.862823 1054.996338,226.060684 1047.605103,225.060303 
	C1025.691650,222.094467 1004.161987,225.593796 982.546143,229.007141 
	C946.010559,234.776489 917.577026,253.171463 895.291260,282.193512 
	C874.592957,309.148254 859.742188,339.159943 848.033447,370.848145 
	C844.314087,380.914032 841.235840,391.216766 837.687500,401.945374 
	C947.609497,403.897858 1056.625244,405.834259 1165.840088,407.774170 
	C1162.712280,374.676331 1159.037720,342.438660 1150.096069,310.226379 
z"/>
<path fill="#FCB561" opacity="1.000000" stroke="none" 
	d="
M239.275574,662.155640 
	C259.833008,658.717834 279.968872,655.202332 300.164429,652.071777 
	C327.915497,647.769958 350.160889,660.016541 370.210327,676.977783 
	C388.614624,692.547241 400.089417,712.954224 407.167145,735.840576 
	C415.773285,763.669312 421.008301,792.061707 419.864136,821.309570 
	C419.162262,839.251038 415.581451,856.592407 407.100494,872.699585 
	C397.991394,889.999817 384.540833,902.093201 365.833008,908.231506 
	C336.037354,918.007812 305.876831,921.214783 275.721161,910.868774 
	C253.506393,903.247253 232.282379,893.080139 212.137268,880.893311 
	C194.398651,870.162354 177.735580,858.032288 164.394516,841.898193 
	C150.881805,825.556458 142.548965,807.173767 144.211639,785.544739 
	C145.392914,770.178040 150.032562,755.524841 156.055283,741.378662 
	C170.065399,708.471619 191.914139,682.781555 224.894394,667.566467 
	C229.412506,665.482117 234.211609,664.006836 239.275574,662.155640 
M323.083466,769.289429 
	C318.175903,769.019287 314.837646,771.403870 312.743042,775.628967 
	C309.864899,781.434509 310.913483,786.928223 314.429108,792.100525 
	C317.442200,796.533508 322.532959,798.496460 326.387482,796.796204 
	C332.322144,794.178406 336.302338,788.100586 334.679352,782.990479 
	C332.849762,777.229736 330.015656,771.917725 323.083466,769.289429 
M273.965637,700.504944 
	C275.391998,704.273621 276.226318,708.436035 278.401764,711.706421 
	C280.855194,715.394653 284.947571,715.892395 289.116852,713.904541 
	C293.607361,711.763428 297.465973,708.715576 296.722290,703.383301 
	C296.120270,699.066772 294.492767,694.667969 292.353851,690.846436 
	C289.476501,685.705505 282.716217,684.771729 278.779388,689.165283 
	C276.329956,691.898926 275.514343,696.096497 273.965637,700.504944 
M190.537521,790.638672 
	C195.510010,796.506897 199.989456,797.950439 206.197510,795.685547 
	C211.323975,793.815125 214.700317,788.168762 214.009369,782.621094 
	C213.234299,776.397888 209.319977,771.448303 204.837021,771.022644 
	C194.340103,770.025940 186.631714,779.961914 190.537521,790.638672 
M248.757050,748.593567 
	C247.465729,754.484863 248.425629,759.898193 253.134979,763.895264 
	C256.076416,766.391846 265.135498,765.428406 268.742340,762.652283 
	C272.790741,759.536316 274.306610,755.446228 273.040680,750.382324 
	C271.656281,744.844543 267.858643,741.273987 261.886261,740.635071 
	C256.018616,740.007263 251.616989,742.431335 248.757050,748.593567 
M389.274506,768.465515 
	C389.014282,767.676208 388.842316,766.843628 388.479980,766.104370 
	C385.362976,759.745239 378.531036,756.885559 372.158447,759.237732 
	C365.923798,761.538940 363.269257,768.251831 365.544037,775.964417 
	C367.472748,782.503601 371.727325,784.567139 379.743683,782.851562 
	C387.188629,781.258179 390.393677,776.790833 389.274506,768.465515 
M339.332123,736.213623 
	C345.596283,732.061401 349.229980,718.653259 345.881958,712.044922 
	C343.461548,707.267578 339.829193,705.929932 335.230682,708.702759 
	C328.652985,712.669067 325.947510,719.025757 326.081665,726.432556 
	C326.222229,734.190918 330.833374,737.689514 339.332123,736.213623 
M316.787476,857.688232 
	C311.823914,853.737610 306.389221,853.830872 300.808289,855.976257 
	C295.031860,858.196838 291.671692,864.709229 293.133057,870.560486 
	C294.345093,875.413452 298.875092,878.766174 304.047272,877.906372 
	C309.989258,876.918701 314.847595,873.769287 318.185394,868.644958 
	C320.546326,865.020447 320.461670,861.454590 316.787476,857.688232 
M206.965057,703.702881 
	C205.427536,708.538513 205.569626,713.211914 208.374725,717.598450 
	C210.407822,720.777771 213.092911,722.603394 217.113007,722.086731 
	C221.001999,721.586914 224.330429,719.573792 224.679626,715.928101 
	C225.267807,709.787415 225.649460,703.293579 224.256943,697.387024 
	C222.754913,691.015869 216.518066,690.029358 211.882782,694.882751 
	C209.792633,697.071350 208.696259,700.209045 206.965057,703.702881 
M363.844482,837.325500 
	C357.766296,834.500122 351.826660,836.774719 350.003082,843.055359 
	C347.850250,850.469971 350.302734,857.268982 354.486206,863.219421 
	C357.370789,867.322266 361.565735,867.053284 365.138611,863.475403 
	C371.732452,856.872131 371.402069,845.132385 363.844482,837.325500 
M217.145615,858.162048 
	C224.081604,858.697205 229.062515,855.545227 229.956070,850.055420 
	C231.046188,843.357910 227.856796,837.924133 221.274063,836.513123 
	C217.615829,835.729065 213.648331,835.690308 209.915436,836.127869 
	C205.216354,836.678711 202.452881,841.561829 203.652496,846.108765 
	C205.404388,852.749023 210.044601,856.302917 217.145615,858.162048 
M255.872955,815.819519 
	C256.288635,824.349304 262.762726,830.168518 271.688873,830.120422 
	C276.762817,830.093140 280.306213,827.651367 282.196747,823.125793 
	C284.153442,818.441833 282.632751,814.188904 279.189514,810.841248 
	C273.299408,805.114868 259.780853,807.653198 255.872955,815.819519 
z"/>
<path fill="#FCB561" opacity="1.000000" stroke="none" 
	d="
M398.936615,220.037399 
	C396.688538,228.929245 391.330170,235.995316 384.906036,242.085022 
	C373.191101,253.190155 360.141876,262.629761 344.112366,266.190094 
	C332.278442,268.818573 320.251526,267.000305 308.444427,264.530640 
	C307.328156,264.297211 306.201050,264.115631 304.129547,263.735962 
	C304.460327,270.009796 304.574036,275.874603 305.110779,281.700470 
	C307.355988,306.068604 310.515198,330.278046 316.690796,354.043182 
	C322.923798,378.029114 335.220978,398.845520 349.481506,418.694275 
	C352.345673,422.680817 353.893707,422.176697 356.009949,417.823547 
	C358.171967,413.376251 360.362152,408.736298 363.532532,405.029633 
	C369.639191,397.890076 377.402130,397.181274 385.522980,402.096069 
	C405.250458,414.035126 415.972565,441.283997 410.531921,464.941650 
	C407.692902,477.286591 401.951172,487.326508 391.192291,494.639618 
	C381.378784,501.310059 371.679749,507.958191 360.320984,511.802277 
	C345.337524,516.873108 331.847198,515.392761 320.404816,503.463287 
	C311.944580,494.642944 304.168427,485.483856 299.695282,473.795898 
	C292.560760,455.154022 302.252319,425.187073 332.120270,422.039032 
	C334.572571,421.780548 337.010101,421.381866 340.569611,420.896179 
	C313.476959,386.109406 302.872650,346.133148 298.962341,304.819550 
	C290.207947,330.365967 281.211914,356.617584 272.284485,382.669067 
	C274.033661,382.507385 276.808624,382.067810 279.589691,382.025085 
	C292.642273,381.824615 300.732941,389.285767 300.882324,402.417633 
	C301.173950,428.053070 289.520294,446.777740 267.569214,459.812653 
	C250.247940,470.098328 232.171600,469.725677 213.506897,465.503662 
	C200.632660,462.591522 187.968811,459.165955 176.876373,451.551697 
	C165.297134,443.603302 158.672714,433.031677 160.132812,418.629852 
	C160.985214,410.222321 161.959747,401.705994 164.144577,393.578735 
	C169.497162,373.667847 183.184174,362.719116 203.239471,359.005219 
	C221.031097,355.710510 234.526230,363.942657 247.098831,374.780975 
	C251.100189,378.230347 254.734161,382.105865 258.537384,385.787476 
	C272.282410,366.298706 293.911835,295.829956 294.300812,270.110199 
	C282.348419,271.074768 270.342224,272.354279 258.302185,272.950500 
	C233.464401,274.180542 214.641647,263.043671 200.538605,243.362778 
	C196.499878,237.726730 193.726593,231.189957 190.295074,225.110199 
	C188.544464,222.008560 189.558395,220.028503 192.295334,218.096893 
	C201.240234,211.783997 211.526718,209.242523 222.035522,209.373657 
	C233.098785,209.511688 244.260880,210.853729 255.156204,212.874985 
	C267.134186,215.097092 275.643951,223.499680 283.837158,231.913895 
	C286.145538,234.284500 288.295746,236.809113 290.578430,239.329285 
	C297.700562,232.694763 304.594849,226.261292 311.501282,219.840866 
	C338.202179,195.018982 373.699097,198.805420 399.837280,215.967331 
	C399.982239,216.501328 400.033752,216.990143 400.033752,216.990143 
	C400.033752,216.990143 399.938416,217.429550 399.594727,217.580276 
	C397.515167,217.367081 395.576050,216.316147 394.078918,216.759079 
	C387.860474,218.598816 381.776550,220.892624 375.641083,223.013672 
	C351.273193,231.437714 326.904449,239.859406 302.202820,248.397156 
	C302.764587,250.005783 303.219086,251.307175 303.743774,252.809555 
	C305.507141,252.207825 306.910248,251.732895 308.310760,251.250565 
	C338.519562,240.846664 368.728058,230.441956 398.936615,220.037399 
M204.920120,226.465561 
	C205.461670,227.027496 205.899704,227.859573 206.559662,228.112473 
	C234.952454,238.992645 263.362000,249.829178 291.778900,260.646271 
	C295.217560,261.955200 295.666504,259.862549 295.802734,257.092285 
	C287.808136,254.054779 280.050110,251.112839 272.296234,248.160004 
	C251.334152,240.177200 230.369965,232.199951 209.419174,224.187637 
	C207.428284,223.426239 205.556534,222.522766 204.920120,226.465561 
M183.307373,390.879852 
	C191.532623,377.366058 202.548492,369.367493 219.193054,373.016113 
	C220.404419,368.548676 220.413544,368.484070 216.602585,367.945953 
	C205.906342,366.435577 195.905563,368.651245 188.802582,376.841003 
	C182.781342,383.783539 178.167557,392.002502 173.390106,399.933197 
	C172.000198,402.240479 172.188538,405.498505 171.653412,408.320740 
	C172.252670,408.667938 172.851929,409.015137 173.451172,409.362335 
	C174.525543,408.258270 175.982300,407.335175 176.605637,406.017731 
	C178.861908,401.248993 180.838272,396.347778 183.307373,390.879852 
M326.143311,484.375671 
	C328.457550,486.410767 330.810028,488.860931 332.552704,483.866394 
	C321.205261,473.782745 319.697937,463.859070 327.175659,449.966400 
	C327.615662,449.148895 327.006805,447.766846 326.886047,446.647522 
	C325.763092,446.810059 324.508728,446.719482 323.557709,447.213226 
	C322.763702,447.625427 322.289154,448.697815 321.734497,449.519257 
	C314.843536,459.724091 316.252533,472.055695 326.143311,484.375671 
z"/>
<path fill="#FCB561" opacity="1.000000" stroke="none" 
	d="
M997.864868,668.013611 
	C986.827698,667.714478 979.746582,661.590454 975.032471,652.221191 
	C969.523254,654.721558 964.373657,657.411987 958.969666,659.416138 
	C953.090454,661.596375 946.591919,663.072327 941.465698,658.319458 
	C936.059387,653.306824 934.929016,646.436096 936.990784,639.400696 
	C938.332031,634.823669 940.354248,630.446167 942.168701,625.726196 
	C939.313049,624.914429 935.988342,624.162231 932.800659,623.025635 
	C924.391785,620.027588 917.275574,615.340332 913.364136,606.915161 
	C907.978882,595.315613 912.174316,582.804260 924.823853,574.245728 
	C928.574402,571.708191 929.981140,569.500244 929.317261,564.757812 
	C928.570618,559.424561 928.893005,553.726562 929.897339,548.403748 
	C932.851685,532.747375 943.569397,525.978271 959.178894,529.668396 
	C964.306641,530.880615 969.230713,532.954712 974.595032,534.750854 
	C975.848816,528.816406 976.546021,522.042725 982.798645,518.895935 
	C986.198364,517.184937 990.447693,516.125000 994.210754,516.368042 
	C1005.312927,517.085022 1009.867981,523.027039 1011.369263,537.617371 
	C1019.992065,531.163757 1028.440796,523.440002 1039.846802,531.347473 
	C1048.344360,537.238647 1050.526123,543.812744 1048.050171,553.821594 
	C1070.071777,567.488586 1071.813599,586.267700 1052.772827,607.067444 
	C1060.723877,617.433228 1057.939453,627.263916 1050.554932,636.512390 
	C1045.519165,642.819092 1039.205444,648.015930 1025.329102,643.804932 
	C1020.244568,654.785706 1015.185669,666.111633 1000.519531,667.548462 
	C1000.079590,663.904114 1000.079590,660.688782 1000.079590,657.473511 
	C999.341370,657.486267 998.603088,657.499023 997.864868,657.511841 
	C997.864868,661.012390 997.864868,664.513000 997.864868,668.013611 
M1010.950623,602.278320 
	C1013.921082,598.234802 1014.173279,593.903198 1011.546997,589.754578 
	C1009.244690,586.117554 1005.567566,584.494324 1001.253174,585.180847 
	C996.709778,585.903809 993.870911,588.795410 992.719360,593.182678 
	C991.464661,597.962708 993.452087,601.649475 997.264771,604.341858 
	C1001.242065,607.150513 1005.643005,606.539673 1010.950623,602.278320 
z"/>
<path fill="#7E8E65" opacity="1.000000" stroke="none" 
	d="
M486.338043,946.219727 
	C523.915344,930.898560 558.578247,910.739563 593.607788,891.241760 
	C601.934021,886.607300 611.200745,883.200134 620.440430,880.771118 
	C636.653931,876.508789 645.176941,883.738708 646.135864,900.378662 
	C647.012939,915.599121 640.707764,927.725708 630.340332,937.749390 
	C622.972656,944.872742 614.899841,951.590393 606.188599,956.935852 
	C585.328430,969.736267 563.366028,980.556885 540.217102,988.640747 
	C529.069458,992.533508 517.586670,995.567505 505.490875,993.131287 
	C499.411591,991.906860 494.989410,988.680298 491.733887,983.356018 
	C488.618500,978.260803 484.904724,973.535217 481.567596,968.570862 
	C475.269470,959.201477 476.712952,952.152283 486.338043,946.219727 
z"/>
<path fill="#7E8E65" opacity="1.000000" stroke="none" 
	d="
M594.850159,1009.842285 
	C617.301697,999.738281 640.823059,998.399170 664.564209,998.002441 
	C681.415466,997.720825 696.489929,1002.804932 709.646790,1012.894897 
	C715.751526,1017.576660 720.853760,1023.686768 725.874756,1029.603882 
	C728.035217,1032.149902 729.230530,1035.736694 730.183228,1039.046753 
	C734.041138,1052.451050 727.438354,1062.510986 713.584412,1062.863770 
	C700.822754,1063.188477 688.025513,1061.671875 675.236572,1061.490845 
	C661.799500,1061.300659 648.276611,1060.935059 634.943115,1062.220825 
	C627.949097,1062.895142 620.885742,1066.203979 614.538086,1069.601807 
	C595.209473,1079.948120 576.316956,1081.033203 557.300476,1069.087402 
	C553.920288,1066.964111 552.729980,1064.908691 553.764954,1060.613403 
	C559.397888,1037.237305 572.751465,1020.288635 594.850159,1009.842285 
z"/>
<path fill="#FCB561" opacity="1.000000" stroke="none" 
	d="
M1035.667114,943.233398 
	C1016.214172,937.026306 997.026001,930.806335 976.679382,933.043091 
	C962.672363,934.582947 948.638306,936.869385 934.968384,940.247070 
	C915.006714,945.179321 900.103577,957.408142 891.058960,975.962158 
	C878.808167,1001.093140 866.968323,1026.425903 855.114624,1051.748169 
	C850.624817,1061.339478 850.705994,1061.497803 838.565918,1059.406494 
	C840.051880,1053.303833 841.377930,1047.195801 843.030823,1041.177734 
	C853.110107,1004.479980 869.150696,971.086243 896.552063,943.859497 
	C915.473389,925.058716 938.339844,915.216980 964.660156,913.014221 
	C989.476379,910.937378 1014.406799,910.491089 1038.642944,916.736084 
	C1092.371704,930.580444 1124.622437,966.152649 1138.887451,1018.942566 
	C1142.450684,1032.128784 1144.285278,1045.616333 1144.043945,1059.716675 
	C1138.343384,1059.716675 1132.950439,1059.716675 1127.684082,1059.716675 
	C1125.136353,1048.106323 1123.015625,1036.506104 1120.001099,1025.142944 
	C1115.061768,1006.523926 1108.034424,988.815125 1095.642944,973.618469 
	C1088.020996,964.271179 1078.452271,958.057983 1067.166138,954.190918 
	C1056.774536,950.630432 1046.415771,946.974670 1035.667114,943.233398 
z"/>
<path fill="#F19820" opacity="1.000000" stroke="none" 
	d="
M729.588135,690.344910 
	C733.760376,696.395630 737.713074,702.160278 741.895935,708.260620 
	C722.544983,729.109192 698.135132,743.273743 674.766968,760.035278 
	C673.080566,754.548828 671.601501,749.527344 669.995361,744.546875 
	C661.668945,718.727173 653.351440,692.904480 644.908630,667.122803 
	C643.884033,663.994019 642.318420,660.991516 640.643433,658.142212 
	C639.238586,655.752380 637.129028,655.413208 634.710388,657.162781 
	C630.219971,660.410889 627.718811,666.784790 629.389832,672.115784 
	C632.575500,682.278625 636.411377,692.256165 639.191040,702.523499 
	C644.402527,721.773438 649.070679,741.170776 653.918518,760.518372 
	C654.558716,763.073486 654.927551,765.696594 655.473999,768.559753 
	C639.014526,776.218750 622.778076,783.773987 606.103088,791.533264 
	C602.909790,784.708252 599.889038,778.265991 596.880066,771.818176 
	C589.347534,755.676880 581.823792,739.531494 574.288940,723.391296 
	C571.792786,718.044495 568.591064,713.422668 561.495911,711.179077 
	C570.024292,740.358948 578.269409,768.569641 586.527344,796.824097 
	C555.392517,793.449646 547.343567,789.610962 521.416687,762.451477 
	C503.233643,743.404114 485.751740,723.632385 474.525879,699.357971 
	C471.667480,693.176941 469.554352,686.655579 466.900848,680.374207 
	C464.877777,675.585144 465.610626,671.245605 468.454651,667.143677 
	C471.869659,662.218201 475.520264,657.452087 478.832245,652.460083 
	C482.810547,646.463684 482.184113,643.271240 476.238098,639.053406 
	C472.713531,636.553162 468.923462,634.429504 465.281097,632.092468 
	C460.709076,629.158936 458.594727,625.233154 458.913971,619.525574 
	C460.037933,599.429688 463.598755,579.859192 470.623566,560.976318 
	C471.347382,559.030823 472.512604,556.993225 474.042572,555.644531 
	C486.039764,545.068787 498.175995,534.650696 510.744873,523.772461 
	C517.531860,532.732849 524.275452,541.523438 530.891541,550.409058 
	C535.466980,556.554016 539.841675,562.848145 544.362732,569.034180 
	C545.435364,570.501831 546.562195,572.020203 547.964355,573.139099 
	C551.439697,575.912354 555.334045,576.413635 559.036804,573.748413 
	C562.780334,571.053955 563.755066,567.038452 561.671082,563.091309 
	C558.180054,556.479431 554.228088,550.100464 550.270264,543.748047 
	C545.517212,536.119141 540.363159,528.735474 535.749451,521.026123 
	C532.565063,515.705139 533.013000,514.314148 538.478943,511.706329 
	C549.569824,506.414948 560.801636,501.419006 572.389832,496.111481 
	C577.080444,505.459961 581.509766,514.182495 585.842712,522.952759 
	C590.266968,531.907715 594.491516,540.963013 599.024963,549.861511 
	C600.597107,552.947388 602.068909,558.173584 606.306152,556.485657 
	C610.901245,554.655212 609.549011,549.307678 608.537292,545.310059 
	C605.353149,532.728333 601.814148,520.236694 598.612610,507.659149 
	C596.851929,500.742279 595.493042,493.723145 593.885132,486.442780 
	C616.299866,477.629303 638.671021,477.115570 661.417847,484.300598 
	C660.809204,507.620331 663.973389,530.050232 675.098328,550.891113 
	C676.366882,532.609497 672.953735,514.723267 670.523254,495.379425 
	C676.715271,497.453979 682.478882,498.559021 687.430969,501.191071 
	C706.086609,511.106598 724.341309,521.776672 743.002686,531.680786 
	C766.813965,544.318054 790.873840,556.486938 815.398682,569.153198 
	C810.833557,585.009644 805.802734,600.689209 801.847595,616.635559 
	C795.675659,641.519104 782.255554,662.327820 766.837646,682.177979 
	C763.372375,686.639404 760.159058,691.296448 756.545227,696.253662 
	C733.843445,669.944336 711.301086,643.819763 688.234131,617.087280 
	C685.708984,623.529663 687.350708,628.208130 690.336121,632.609436 
	C702.116211,649.976440 713.939331,667.314270 725.743469,684.664917 
	C726.961975,686.455994 728.160645,688.260559 729.588135,690.344910 
M516.771973,751.712280 
	C527.346069,763.528625 538.297607,774.931396 551.700928,783.654907 
	C560.345032,789.280884 569.722900,791.931641 580.663696,790.799988 
	C572.553467,762.972839 564.518982,735.405396 556.471497,707.793457 
	C564.718323,706.316040 571.881042,710.289001 576.441162,719.098206 
	C580.187866,726.336121 583.473633,733.813293 586.935181,741.197815 
	C593.916504,756.090881 600.878296,770.993103 608.013489,786.244934 
	C621.893433,779.793091 635.466187,773.561707 648.914612,767.072632 
	C649.900696,766.596802 650.667480,764.113708 650.389587,762.807800 
	C647.063782,747.180725 644.090759,731.443604 639.869263,716.052368 
	C635.915833,701.638550 630.456421,687.643372 625.903625,673.386108 
	C623.571350,666.082397 626.374573,658.549744 632.512878,654.020264 
	C636.531128,651.055298 640.463562,651.294189 643.446960,655.304443 
	C645.397888,657.926758 646.985962,660.996094 648.007935,664.104736 
	C657.102173,691.766968 666.033630,719.482727 675.014221,747.182312 
	C675.650757,749.145447 676.296387,751.105591 677.136902,753.675903 
	C697.939697,738.596985 719.585815,725.997864 736.867920,707.794189 
	C720.226868,683.291077 703.774048,659.235474 687.575867,635.009644 
	C685.430054,631.800232 683.672546,627.788086 683.408447,624.030090 
	C683.184875,620.848145 684.438538,616.240479 686.732239,614.514038 
	C690.158264,611.935303 692.517151,616.277161 694.583191,618.649231 
	C710.340393,636.739929 725.999329,654.916321 741.683289,673.070801 
	C746.445068,678.582703 751.189514,684.109497 756.295227,690.039856 
	C763.732727,679.710144 771.227173,670.138794 777.766846,659.954346 
	C783.028320,651.760620 788.336365,643.243103 791.505188,634.132385 
	C798.277527,614.661499 803.620789,594.695801 809.693848,574.977234 
	C810.708923,571.681580 809.523926,570.329651 806.718933,568.898560 
	C785.513489,558.079773 764.279297,547.308350 743.271912,536.113342 
	C723.895691,525.787537 704.822693,514.894165 685.532043,504.405212 
	C682.492310,502.752380 679.007751,501.917542 675.277405,500.537445 
	C676.445129,509.716125 677.800232,517.771301 678.412415,525.882629 
	C679.074402,534.651855 679.154419,543.472900 679.191345,552.272644 
	C679.196838,553.573425 677.678894,555.839050 676.668091,555.956421 
	C675.222961,556.124268 672.975281,555.134216 672.165588,553.912598 
	C669.977539,550.611633 667.993286,547.068970 666.593628,543.370361 
	C660.218689,526.524841 657.398682,508.989349 657.363647,491.024841 
	C657.357544,487.903412 656.444702,486.462158 653.416016,486.037018 
	C647.152405,485.157654 640.937622,483.802032 634.649475,483.252258 
	C622.206970,482.164398 610.349548,485.088745 597.764160,489.012360 
	C602.372131,506.968933 606.891052,524.331299 611.240784,541.735962 
	C612.115173,545.234741 612.860229,548.912231 612.734802,552.474548 
	C612.601013,556.273499 610.656311,560.304321 606.561584,560.431458 
	C603.797791,560.517151 600.682007,558.190247 598.233093,556.286987 
	C596.658936,555.063599 595.914795,552.697083 594.961670,550.762573 
	C590.473572,541.653687 586.074707,532.500793 581.579590,523.395386 
	C577.987122,516.118347 574.301880,508.887085 570.408630,501.139496 
	C559.177124,506.212250 548.366882,511.094727 536.781128,516.327515 
	C542.375610,524.905579 547.475891,532.475586 552.309875,540.211914 
	C556.714478,547.260925 561.153076,554.323547 564.965088,561.696411 
	C567.717834,567.020691 565.848083,573.060486 561.427795,576.524475 
	C557.056946,579.949707 550.740540,580.183716 546.069946,576.730591 
	C544.105286,575.278137 542.443726,573.303040 540.966980,571.324768 
	C536.783264,565.720215 532.835510,559.939880 528.666809,554.323853 
	C522.536255,546.064880 516.294739,537.888306 509.854858,529.350891 
	C499.162323,538.619324 488.773071,547.447205 478.633240,556.552734 
	C476.401398,558.556946 474.399017,561.315002 473.407135,564.120483 
	C467.097198,581.968567 463.636658,600.393921 462.693939,619.326660 
	C462.474915,623.725403 463.943604,626.685974 467.508972,628.919250 
	C471.457825,631.392883 475.547821,633.685974 479.268555,636.469177 
	C486.038879,641.533630 486.985016,646.641357 482.469452,653.718323 
	C479.249023,658.765564 475.608643,663.545105 472.149811,668.439941 
	C469.668976,671.950745 468.962189,675.560486 470.778229,679.705444 
	C472.911896,684.575500 474.541290,689.664856 476.626221,694.558167 
	C485.856598,716.221680 501.055664,733.724792 516.771973,751.712280 
z"/>
<path fill="#7E8E65" opacity="1.000000" stroke="none" 
	d="
M493.535583,1032.418945 
	C497.038910,1034.996582 500.484680,1037.105713 503.387299,1039.800049 
	C510.879211,1046.754272 511.876801,1054.325806 506.637390,1063.172607 
	C499.068573,1075.952393 487.138702,1080.919678 473.128296,1079.225830 
	C462.515594,1077.942871 451.864014,1075.189575 441.810486,1071.505737 
	C427.783936,1066.366089 414.072052,1060.207397 400.673218,1053.579712 
	C393.469543,1050.016357 386.544403,1045.272583 380.646515,1039.815430 
	C368.393097,1028.477661 366.853973,1012.750244 375.412964,998.415039 
	C378.863617,992.635742 384.510559,990.820068 390.568573,990.089783 
	C404.220184,988.444275 417.067932,991.293640 427.623444,1000.099854 
	C437.586456,1008.411804 449.093872,1013.222839 460.776611,1018.077209 
	C471.671936,1022.604370 482.418518,1027.489502 493.535583,1032.418945 
z"/>
<path fill="#7E8E65" opacity="1.000000" stroke="none" 
	d="
M590.843323,141.879456 
	C595.423584,133.150192 603.518738,131.149933 609.668701,137.483200 
	C625.653137,153.944016 639.961304,171.763885 648.611511,193.260101 
	C656.810608,213.635391 657.783691,235.032471 655.419495,256.667267 
	C655.243042,258.282166 655.002502,259.890015 654.724731,262.013184 
	C660.952148,257.194885 666.489441,252.423233 672.496216,248.342926 
	C708.434753,223.930542 746.920105,218.116882 787.786316,233.912018 
	C799.534424,238.452774 810.788940,244.397614 821.937195,250.324387 
	C831.494995,255.405655 831.697998,264.888489 822.767151,270.951904 
	C804.106262,283.621368 784.921875,295.421417 762.483154,300.089081 
	C755.775208,301.484467 748.499023,301.887238 741.735291,300.941620 
	C723.142761,298.342163 705.673523,301.703430 688.455505,308.375916 
	C679.000488,312.040039 669.302551,315.082001 659.692200,318.339874 
	C630.365234,328.281647 606.564941,346.115143 586.291443,369.187134 
	C571.338318,386.204376 556.033081,402.911926 540.924500,419.793121 
	C539.180908,421.741272 537.661072,423.342316 535.971741,420.517944 
	C544.018860,407.198425 552.337219,394.355438 559.715698,380.993469 
	C569.969238,362.424957 578.723389,343.079681 581.351318,321.775574 
	C583.735291,302.448578 585.854492,283.026611 586.614014,263.588837 
	C586.975220,254.342560 585.488647,244.328659 582.069885,235.768494 
	C573.821228,215.114716 574.960938,194.680267 580.481750,174.039246 
	C583.355835,163.293762 587.271301,152.826797 590.843323,141.879456 
M575.271240,373.955322 
	C575.028992,374.196869 574.881287,374.486603 574.293030,375.107513 
	C573.716553,375.925079 573.140076,376.742645 572.165344,377.950043 
	C572.178833,378.199890 572.192322,378.449768 572.205811,378.699615 
	C572.498413,378.497101 572.790955,378.294586 573.641479,377.859528 
	C574.265869,377.076874 574.890320,376.294189 575.866272,375.193420 
	C576.093628,374.961823 576.263184,374.693665 576.779053,374.111755 
	C577.024048,373.880920 577.191711,373.603363 577.848938,372.914276 
	C579.727173,370.727539 581.605347,368.540802 583.483582,366.354065 
	C583.034485,365.994232 582.585388,365.634399 582.136292,365.274567 
	C580.264099,367.692413 578.391907,370.110229 576.161743,372.856293 
	C575.941162,373.104095 575.786987,373.387939 575.271240,373.955322 
M610.075073,332.229004 
	C624.220825,322.532104 638.145386,312.491150 652.565735,303.221344 
	C672.718018,290.266754 692.564636,276.584625 713.773071,265.587952 
	C741.038696,251.450638 768.891602,255.714554 796.289490,268.182556 
	C795.525940,269.587982 794.999023,270.557800 794.472107,271.527679 
	C793.767761,271.328796 793.267029,271.254822 792.824829,271.052887 
	C761.455688,256.730347 730.914673,257.155914 701.558228,276.406128 
	C673.994995,294.480530 646.504639,312.666748 619.037292,330.886749 
	C606.705322,339.066956 594.036377,346.916412 586.116882,360.097382 
	C585.336060,361.397095 584.440491,362.627960 583.598206,363.890747 
	C584.395508,364.619812 585.192871,365.348877 585.990173,366.077911 
	C586.640808,364.556305 586.935303,362.695343 588.004822,361.572845 
	C592.244019,357.123627 596.490845,352.629822 601.159668,348.651154 
	C617.726868,334.532959 635.411926,322.200592 656.349426,315.245361 
	C666.925964,311.731934 677.561707,308.349670 687.961975,304.363556 
	C705.194824,297.758728 722.664246,294.440735 741.244751,296.908020 
	C748.338135,297.849945 755.953491,297.522491 762.953064,296.016785 
	C785.023621,291.269196 803.856995,279.504456 822.020020,266.700012 
	C827.013611,263.179688 826.256042,257.349518 820.691650,254.068741 
	C805.875732,245.333267 790.410950,237.971588 773.822510,233.248306 
	C761.570374,229.759705 749.189392,228.460358 736.314636,229.638641 
	C697.106506,233.226929 666.166687,250.137421 644.067505,283.304596 
	C633.002869,299.910797 620.435791,315.515961 608.154663,332.015900 
	C608.591614,332.187378 609.028625,332.358826 610.075073,332.229004 
M619.865662,245.280884 
	C617.248840,276.597260 608.834045,306.607697 599.460083,336.583923 
	C615.770691,315.213409 631.521423,293.557983 647.105286,271.783173 
	C648.591553,269.706451 649.421143,266.956390 649.904358,264.396057 
	C655.720886,233.572800 653.269592,203.829208 635.736755,177.015762 
	C627.578674,164.539413 617.699158,153.145737 608.131348,141.651337 
	C602.964966,135.444687 596.766418,136.767197 594.159790,144.409454 
	C590.191406,156.044037 586.159729,167.716873 583.260925,179.642303 
	C579.001221,197.167084 577.931824,214.694336 585.230652,232.072113 
	C590.664185,245.009033 592.014893,258.727966 590.205994,272.756531 
	C588.908081,282.822083 587.468079,292.930847 587.172607,303.051880 
	C586.448120,327.869385 579.486694,350.878876 568.488037,372.878326 
	C567.896912,374.060760 567.457886,375.319275 566.948059,376.542358 
	C573.706848,369.368988 579.814331,361.903595 585.555786,354.166565 
	C588.091248,350.749786 590.425781,346.987488 591.926636,343.031189 
	C601.684387,317.309021 609.464233,290.989410 613.538818,263.741638 
	C618.954285,227.526886 616.741394,192.047928 601.933105,157.980347 
	C601.454041,156.878265 602.230957,155.230240 602.422424,153.836700 
	C603.024536,153.848831 603.626587,153.860962 604.228699,153.873093 
	C605.826416,157.489288 607.610901,161.035721 608.991821,164.732895 
	C618.592529,190.437057 621.043518,217.139008 619.865662,245.280884 
z"/>
<path fill="#7E8E65" opacity="1.000000" stroke="none" 
	d="
M1000.432129,694.919678 
	C1000.919434,708.557312 1001.482178,722.192810 1001.875916,735.833191 
	C1002.423706,754.812134 1002.839050,773.794922 1003.330444,792.775635 
	C1003.372009,794.381897 1003.559265,795.984375 1004.348511,797.594360 
	C1005.537781,791.495300 1006.287659,785.266968 1008.033264,779.331543 
	C1009.993042,772.667664 1012.426514,766.063721 1015.431763,759.807434 
	C1018.917542,752.550720 1024.780151,747.431335 1032.221558,744.068909 
	C1045.456177,738.088745 1058.875854,732.722473 1073.342407,730.548706 
	C1076.270874,730.108643 1079.256958,730.052185 1082.822266,729.771057 
	C1083.246826,737.273132 1083.805176,744.358337 1083.880493,751.448547 
	C1083.891724,752.517334 1081.829834,754.066589 1080.422852,754.619934 
	C1068.662109,759.244568 1056.798218,763.606812 1045.039917,768.237305 
	C1041.648071,769.572937 1038.484741,771.497009 1035.240601,773.196899 
	C1028.774414,776.585205 1023.968994,781.451172 1021.958008,788.644226 
	C1016.631042,807.698059 1011.351135,826.765076 1006.068848,845.831360 
	C1005.628174,847.421936 1005.309998,849.046387 1004.655457,851.853577 
	C1001.512878,844.708801 998.969360,838.497620 996.085266,832.448853 
	C987.278870,813.980042 978.235168,795.624023 969.499634,777.122131 
	C965.120483,767.846924 957.665588,764.003662 947.902893,763.924805 
	C934.270264,763.814697 920.636108,763.897095 906.297424,763.897095 
	C904.087219,756.254639 901.703247,748.011658 898.961609,738.531738 
	C905.396423,737.124634 911.565247,735.041748 917.854126,734.573853 
	C927.126282,733.884033 936.531738,733.734497 945.793884,734.460083 
	C959.272217,735.515930 969.329041,743.073853 977.237244,753.620422 
	C988.261902,768.323181 993.825256,785.369141 997.941589,802.979431 
	C999.336548,808.947083 1000.389771,814.994690 1001.765076,821.830505 
	C1001.765076,812.951172 1001.929993,804.883301 1001.731628,796.824463 
	C1001.284668,778.668884 1000.620117,760.518799 1000.115662,742.364502 
	C999.685303,726.877075 999.354736,711.386902 999.273071,695.432739 
	C999.566101,694.967529 999.997498,694.914612 999.997498,694.914612 
	C999.997498,694.914612 1000.432129,694.919678 1000.432129,694.919678 
z"/>
<path fill="#D73739" opacity="1.000000" stroke="none" 
	d="
M1150.197754,310.618530 
	C1159.037720,342.438660 1162.712280,374.676331 1165.840088,407.774170 
	C1056.625244,405.834259 947.609497,403.897858 837.687500,401.945374 
	C841.235840,391.216766 844.314087,380.914032 848.033447,370.848145 
	C859.742188,339.159943 874.592957,309.148254 895.291260,282.193512 
	C917.577026,253.171463 946.010559,234.776489 982.546143,229.007141 
	C1004.161987,225.593796 1025.691650,222.094467 1047.605103,225.060303 
	C1054.996338,226.060684 1062.302368,227.862823 1069.554810,229.670059 
	C1078.255737,231.838287 1086.819214,234.555176 1095.513550,236.752518 
	C1103.498535,238.770615 1110.269287,242.691849 1116.047119,248.492355 
	C1130.538330,263.040436 1141.027100,279.993042 1146.941528,299.709778 
	C1147.993042,303.215302 1149.044434,306.720856 1150.197754,310.618530 
M931.401855,251.825592 
	C922.311829,260.105225 912.289612,267.577698 904.297729,276.808136 
	C874.310120,311.443481 856.588013,352.593384 843.158936,395.844574 
	C842.898315,396.683838 843.126282,397.674805 843.126282,398.693909 
	C949.533997,400.610260 1055.609375,402.520599 1161.937988,404.435516 
	C1161.937988,402.984772 1162.006226,402.175232 1161.927979,401.380096 
	C1158.909668,370.699371 1154.953491,340.184357 1146.809814,310.342560 
	C1140.787842,288.275146 1131.075928,268.339691 1114.799683,251.892746 
	C1108.520996,245.548157 1101.334351,241.248489 1092.530029,239.404175 
	C1086.365723,238.112885 1080.335693,236.176697 1074.253296,234.500290 
	C1068.803955,232.998337 1063.427124,231.168396 1057.910767,229.984589 
	C1034.485107,224.957458 1011.164917,227.254379 987.929993,231.494781 
	C968.215576,235.092682 948.695740,239.330261 931.401855,251.825592 
z"/>
<path fill="#FFF9E9" opacity="1.000000" stroke="none" 
	d="
M399.191284,219.849854 
	C368.728058,230.441956 338.519562,240.846664 308.310760,251.250565 
	C306.910248,251.732895 305.507141,252.207825 303.743774,252.809555 
	C303.219086,251.307175 302.764587,250.005783 302.202820,248.397156 
	C326.904449,239.859406 351.273193,231.437714 375.641083,223.013672 
	C381.776550,220.892624 387.860474,218.598816 394.078918,216.759079 
	C395.576050,216.316147 397.515167,217.367081 399.606842,217.804779 
	C399.790436,218.473129 399.618225,219.067703 399.191284,219.849854 
z"/>
<path fill="#607747" opacity="1.000000" stroke="none" 
	d="
M1000.494019,694.518066 
	C1000.432129,694.919678 999.997498,694.914612 999.997498,694.914612 
	C999.997498,694.914612 999.566101,694.967529 999.348633,694.967651 
	C998.873474,687.301147 998.615845,679.634583 998.634888,671.543274 
	C998.911621,671.118591 999.387878,671.045288 999.387878,671.045288 
	C999.387878,671.045288 999.869751,671.049255 999.869751,671.049255 
	C1000.098511,678.738342 1000.327209,686.427368 1000.494019,694.518066 
z"/>
<path fill="#8F9972" opacity="1.000000" stroke="none" 
	d="
M999.954651,670.678467 
	C999.869751,671.049255 999.387878,671.045288 999.387878,671.045288 
	C999.387878,671.045288 998.911621,671.118591 998.670776,671.125488 
	C998.293884,670.353760 998.157837,669.575134 997.943359,668.405090 
	C997.864868,664.513000 997.864868,661.012390 997.864868,657.511841 
	C998.603088,657.499023 999.341370,657.486267 1000.079590,657.473511 
	C1000.079590,660.688782 1000.079590,663.904114 1000.134644,667.573486 
	C1000.139648,668.787659 1000.089600,669.547729 999.954651,670.678467 
z"/>
<path fill="#FFF9E9" opacity="1.000000" stroke="none" 
	d="
M400.186920,216.902161 
	C400.033752,216.990143 399.982239,216.501328 400.019897,216.258545 
	C400.210205,216.180954 400.380249,216.334671 400.502625,216.519882 
	C400.531281,216.563217 400.398560,216.713226 400.186920,216.902161 
z"/>
<path fill="#7E8E65" opacity="1.000000" stroke="none" 
	d="
M323.436707,769.417847 
	C330.015656,771.917725 332.849762,777.229736 334.679352,782.990479 
	C336.302338,788.100586 332.322144,794.178406 326.387482,796.796204 
	C322.532959,798.496460 317.442200,796.533508 314.429108,792.100525 
	C310.913483,786.928223 309.864899,781.434509 312.743042,775.628967 
	C314.837646,771.403870 318.175903,769.019287 323.436707,769.417847 
z"/>
<path fill="#7E8E65" opacity="1.000000" stroke="none" 
	d="
M273.965576,700.070984 
	C275.514343,696.096497 276.329956,691.898926 278.779388,689.165283 
	C282.716217,684.771729 289.476501,685.705505 292.353851,690.846436 
	C294.492767,694.667969 296.120270,699.066772 296.722290,703.383301 
	C297.465973,708.715576 293.607361,711.763428 289.116852,713.904541 
	C284.947571,715.892395 280.855194,715.394653 278.401764,711.706421 
	C276.226318,708.436035 275.391998,704.273621 273.965576,700.070984 
z"/>
<path fill="#7E8E65" opacity="1.000000" stroke="none" 
	d="
M190.337692,790.304138 
	C186.631714,779.961914 194.340103,770.025940 204.837021,771.022644 
	C209.319977,771.448303 213.234299,776.397888 214.009369,782.621094 
	C214.700317,788.168762 211.323975,793.815125 206.197510,795.685547 
	C199.989456,797.950439 195.510010,796.506897 190.337692,790.304138 
z"/>
<path fill="#7E8E65" opacity="1.000000" stroke="none" 
	d="
M248.897919,748.231628 
	C251.616989,742.431335 256.018616,740.007263 261.886261,740.635071 
	C267.858643,741.273987 271.656281,744.844543 273.040680,750.382324 
	C274.306610,755.446228 272.790741,759.536316 268.742340,762.652283 
	C265.135498,765.428406 256.076416,766.391846 253.134979,763.895264 
	C248.425629,759.898193 247.465729,754.484863 248.897919,748.231628 
z"/>
<path fill="#7E8E65" opacity="1.000000" stroke="none" 
	d="
M389.401489,768.839233 
	C390.393677,776.790833 387.188629,781.258179 379.743683,782.851562 
	C371.727325,784.567139 367.472748,782.503601 365.544037,775.964417 
	C363.269257,768.251831 365.923798,761.538940 372.158447,759.237732 
	C378.531036,756.885559 385.362976,759.745239 388.479980,766.104370 
	C388.842316,766.843628 389.014282,767.676208 389.401489,768.839233 
z"/>
<path fill="#7E8E65" opacity="1.000000" stroke="none" 
	d="
M338.973969,736.375488 
	C330.833374,737.689514 326.222229,734.190918 326.081665,726.432556 
	C325.947510,719.025757 328.652985,712.669067 335.230682,708.702759 
	C339.829193,705.929932 343.461548,707.267578 345.881958,712.044922 
	C349.229980,718.653259 345.596283,732.061401 338.973969,736.375488 
z"/>
<path fill="#7E8E65" opacity="1.000000" stroke="none" 
	d="
M317.052307,857.952271 
	C320.461670,861.454590 320.546326,865.020447 318.185394,868.644958 
	C314.847595,873.769287 309.989258,876.918701 304.047272,877.906372 
	C298.875092,878.766174 294.345093,875.413452 293.133057,870.560486 
	C291.671692,864.709229 295.031860,858.196838 300.808289,855.976257 
	C306.389221,853.830872 311.823914,853.737610 317.052307,857.952271 
z"/>
<path fill="#7E8E65" opacity="1.000000" stroke="none" 
	d="
M207.057037,703.309509 
	C208.696259,700.209045 209.792633,697.071350 211.882782,694.882751 
	C216.518066,690.029358 222.754913,691.015869 224.256943,697.387024 
	C225.649460,703.293579 225.267807,709.787415 224.679626,715.928101 
	C224.330429,719.573792 221.001999,721.586914 217.113007,722.086731 
	C213.092911,722.603394 210.407822,720.777771 208.374725,717.598450 
	C205.569626,713.211914 205.427536,708.538513 207.057037,703.309509 
z"/>
<path fill="#7E8E65" opacity="1.000000" stroke="none" 
	d="
M364.130859,837.584839 
	C371.402069,845.132385 371.732452,856.872131 365.138611,863.475403 
	C361.565735,867.053284 357.370789,867.322266 354.486206,863.219421 
	C350.302734,857.268982 347.850250,850.469971 350.003082,843.055359 
	C351.826660,836.774719 357.766296,834.500122 364.130859,837.584839 
z"/>
<path fill="#7E8E65" opacity="1.000000" stroke="none" 
	d="
M216.772903,858.090027 
	C210.044601,856.302917 205.404388,852.749023 203.652496,846.108765 
	C202.452881,841.561829 205.216354,836.678711 209.915436,836.127869 
	C213.648331,835.690308 217.615829,835.729065 221.274063,836.513123 
	C227.856796,837.924133 231.046188,843.357910 229.956070,850.055420 
	C229.062515,855.545227 224.081604,858.697205 216.772903,858.090027 
z"/>
<path fill="#7E8E65" opacity="1.000000" stroke="none" 
	d="
M255.921204,815.416870 
	C259.780853,807.653198 273.299408,805.114868 279.189514,810.841248 
	C282.632751,814.188904 284.153442,818.441833 282.196747,823.125793 
	C280.306213,827.651367 276.762817,830.093140 271.688873,830.120422 
	C262.762726,830.168518 256.288635,824.349304 255.921204,815.416870 
z"/>
<path fill="#FFF9E9" opacity="1.000000" stroke="none" 
	d="
M204.966888,226.090363 
	C205.556534,222.522766 207.428284,223.426239 209.419174,224.187637 
	C230.369965,232.199951 251.334152,240.177200 272.296234,248.160004 
	C280.050110,251.112839 287.808136,254.054779 295.802734,257.092285 
	C295.666504,259.862549 295.217560,261.955200 291.778900,260.646271 
	C263.362000,249.829178 234.952454,238.992645 206.559662,228.112473 
	C205.899704,227.859573 205.461670,227.027496 204.966888,226.090363 
z"/>
<path fill="#FFF9E9" opacity="1.000000" stroke="none" 
	d="
M183.113815,391.188232 
	C180.838272,396.347778 178.861908,401.248993 176.605637,406.017731 
	C175.982300,407.335175 174.525543,408.258270 173.451172,409.362335 
	C172.851929,409.015137 172.252670,408.667938 171.653412,408.320740 
	C172.188538,405.498505 172.000198,402.240479 173.390106,399.933197 
	C178.167557,392.002502 182.781342,383.783539 188.802582,376.841003 
	C195.905563,368.651245 205.906342,366.435577 216.602585,367.945953 
	C220.413544,368.484070 220.404419,368.548676 219.193054,373.016113 
	C202.548492,369.367493 191.532623,377.366058 183.113815,391.188232 
z"/>
<path fill="#FFF9E9" opacity="1.000000" stroke="none" 
	d="
M325.894592,484.117920 
	C316.252533,472.055695 314.843536,459.724091 321.734497,449.519257 
	C322.289154,448.697815 322.763702,447.625427 323.557709,447.213226 
	C324.508728,446.719482 325.763092,446.810059 326.886047,446.647522 
	C327.006805,447.766846 327.615662,449.148895 327.175659,449.966400 
	C319.697937,463.859070 321.205261,473.782745 332.552704,483.866394 
	C330.810028,488.860931 328.457550,486.410767 325.894592,484.117920 
z"/>
<path fill="#FFFDFB" opacity="1.000000" stroke="none" 
	d="
M1010.691772,602.567444 
	C1005.643005,606.539673 1001.242065,607.150513 997.264771,604.341858 
	C993.452087,601.649475 991.464661,597.962708 992.719360,593.182678 
	C993.870911,588.795410 996.709778,585.903809 1001.253174,585.180847 
	C1005.567566,584.494324 1009.244690,586.117554 1011.546997,589.754578 
	C1014.173279,593.903198 1013.921082,598.234802 1010.691772,602.567444 
z"/>
<path fill="#FFF3E7" opacity="1.000000" stroke="none" 
	d="
M516.532654,751.452332 
	C501.055664,733.724792 485.856598,716.221680 476.626221,694.558167 
	C474.541290,689.664856 472.911896,684.575500 470.778229,679.705444 
	C468.962189,675.560486 469.668976,671.950745 472.149811,668.439941 
	C475.608643,663.545105 479.249023,658.765564 482.469452,653.718323 
	C486.985016,646.641357 486.038879,641.533630 479.268555,636.469177 
	C475.547821,633.685974 471.457825,631.392883 467.508972,628.919250 
	C463.943604,626.685974 462.474915,623.725403 462.693939,619.326660 
	C463.636658,600.393921 467.097198,581.968567 473.407135,564.120483 
	C474.399017,561.315002 476.401398,558.556946 478.633240,556.552734 
	C488.773071,547.447205 499.162323,538.619324 509.854858,529.350891 
	C516.294739,537.888306 522.536255,546.064880 528.666809,554.323853 
	C532.835510,559.939880 536.783264,565.720215 540.966980,571.324768 
	C542.443726,573.303040 544.105286,575.278137 546.069946,576.730591 
	C550.740540,580.183716 557.056946,579.949707 561.427795,576.524475 
	C565.848083,573.060486 567.717834,567.020691 564.965088,561.696411 
	C561.153076,554.323547 556.714478,547.260925 552.309875,540.211914 
	C547.475891,532.475586 542.375610,524.905579 536.781128,516.327515 
	C548.366882,511.094727 559.177124,506.212250 570.408630,501.139496 
	C574.301880,508.887085 577.987122,516.118347 581.579590,523.395386 
	C586.074707,532.500793 590.473572,541.653687 594.961670,550.762573 
	C595.914795,552.697083 596.658936,555.063599 598.233093,556.286987 
	C600.682007,558.190247 603.797791,560.517151 606.561584,560.431458 
	C610.656311,560.304321 612.601013,556.273499 612.734802,552.474548 
	C612.860229,548.912231 612.115173,545.234741 611.240784,541.735962 
	C606.891052,524.331299 602.372131,506.968933 597.764160,489.012360 
	C610.349548,485.088745 622.206970,482.164398 634.649475,483.252258 
	C640.937622,483.802032 647.152405,485.157654 653.416016,486.037018 
	C656.444702,486.462158 657.357544,487.903412 657.363647,491.024841 
	C657.398682,508.989349 660.218689,526.524841 666.593628,543.370361 
	C667.993286,547.068970 669.977539,550.611633 672.165588,553.912598 
	C672.975281,555.134216 675.222961,556.124268 676.668091,555.956421 
	C677.678894,555.839050 679.196838,553.573425 679.191345,552.272644 
	C679.154419,543.472900 679.074402,534.651855 678.412415,525.882629 
	C677.800232,517.771301 676.445129,509.716125 675.277405,500.537445 
	C679.007751,501.917542 682.492310,502.752380 685.532043,504.405212 
	C704.822693,514.894165 723.895691,525.787537 743.271912,536.113342 
	C764.279297,547.308350 785.513489,558.079773 806.718933,568.898560 
	C809.523926,570.329651 810.708923,571.681580 809.693848,574.977234 
	C803.620789,594.695801 798.277527,614.661499 791.505188,634.132385 
	C788.336365,643.243103 783.028320,651.760620 777.766846,659.954346 
	C771.227173,670.138794 763.732727,679.710144 756.295227,690.039856 
	C751.189514,684.109497 746.445068,678.582703 741.683289,673.070801 
	C725.999329,654.916321 710.340393,636.739929 694.583191,618.649231 
	C692.517151,616.277161 690.158264,611.935303 686.732239,614.514038 
	C684.438538,616.240479 683.184875,620.848145 683.408447,624.030090 
	C683.672546,627.788086 685.430054,631.800232 687.575867,635.009644 
	C703.774048,659.235474 720.226868,683.291077 736.867920,707.794189 
	C719.585815,725.997864 697.939697,738.596985 677.136902,753.675903 
	C676.296387,751.105591 675.650757,749.145447 675.014221,747.182312 
	C666.033630,719.482727 657.102173,691.766968 648.007935,664.104736 
	C646.985962,660.996094 645.397888,657.926758 643.446960,655.304443 
	C640.463562,651.294189 636.531128,651.055298 632.512878,654.020264 
	C626.374573,658.549744 623.571350,666.082397 625.903625,673.386108 
	C630.456421,687.643372 635.915833,701.638550 639.869263,716.052368 
	C644.090759,731.443604 647.063782,747.180725 650.389587,762.807800 
	C650.667480,764.113708 649.900696,766.596802 648.914612,767.072632 
	C635.466187,773.561707 621.893433,779.793091 608.013489,786.244934 
	C600.878296,770.993103 593.916504,756.090881 586.935181,741.197815 
	C583.473633,733.813293 580.187866,726.336121 576.441162,719.098206 
	C571.881042,710.289001 564.718323,706.316040 556.471497,707.793457 
	C564.518982,735.405396 572.553467,762.972839 580.663696,790.799988 
	C569.722900,791.931641 560.345032,789.280884 551.700928,783.654907 
	C538.297607,774.931396 527.346069,763.528625 516.532654,751.452332 
M570.140442,605.661621 
	C573.175781,600.251404 576.574402,595.003662 579.095764,589.363708 
	C580.390320,586.467834 578.421814,583.324829 575.189270,583.066895 
	C570.341064,582.680176 565.253235,582.591980 560.567444,583.675110 
	C556.340393,584.652222 553.485779,588.484863 553.387939,592.959656 
	C553.268433,598.431946 563.721558,606.480591 570.140442,605.661621 
z"/>
<path fill="#FEF3E7" opacity="1.000000" stroke="none" 
	d="
M608.548279,331.573853 
	C620.435791,315.515961 633.002869,299.910797 644.067505,283.304596 
	C666.166687,250.137421 697.106506,233.226929 736.314636,229.638641 
	C749.189392,228.460358 761.570374,229.759705 773.822510,233.248306 
	C790.410950,237.971588 805.875732,245.333267 820.691650,254.068741 
	C826.256042,257.349518 827.013611,263.179688 822.020020,266.700012 
	C803.856995,279.504456 785.023621,291.269196 762.953064,296.016785 
	C755.953491,297.522491 748.338135,297.849945 741.244751,296.908020 
	C722.664246,294.440735 705.194824,297.758728 687.961975,304.363556 
	C677.561707,308.349670 666.925964,311.731934 656.349426,315.245361 
	C635.411926,322.200592 617.726868,334.532959 601.159668,348.651154 
	C596.490845,352.629822 592.244019,357.123627 588.004822,361.572845 
	C586.935303,362.695343 586.640808,364.556305 585.990173,366.077911 
	C585.192871,365.348877 584.395508,364.619812 583.598206,363.890747 
	C584.440491,362.627960 585.336060,361.397095 586.116882,360.097382 
	C594.036377,346.916412 606.705322,339.066956 619.037292,330.886749 
	C646.504639,312.666748 673.994995,294.480530 701.558228,276.406128 
	C730.914673,257.155914 761.455688,256.730347 792.824829,271.052887 
	C793.267029,271.254822 793.767761,271.328796 794.472107,271.527679 
	C794.999023,270.557800 795.525940,269.587982 796.289490,268.182556 
	C768.891602,255.714554 741.038696,251.450638 713.773071,265.587952 
	C692.564636,276.584625 672.718018,290.266754 652.565735,303.221344 
	C638.145386,312.491150 624.220825,322.532104 609.547852,332.133972 
	C608.863159,331.883911 608.705688,331.728882 608.548279,331.573853 
z"/>
<path fill="#FEF3E7" opacity="1.000000" stroke="none" 
	d="
M619.887817,244.802887 
	C621.043518,217.139008 618.592529,190.437057 608.991821,164.732895 
	C607.610901,161.035721 605.826416,157.489288 604.228699,153.873093 
	C603.626587,153.860962 603.024536,153.848831 602.422424,153.836700 
	C602.230957,155.230240 601.454041,156.878265 601.933105,157.980347 
	C616.741394,192.047928 618.954285,227.526886 613.538818,263.741638 
	C609.464233,290.989410 601.684387,317.309021 591.926636,343.031189 
	C590.425781,346.987488 588.091248,350.749786 585.555786,354.166565 
	C579.814331,361.903595 573.706848,369.368988 566.948059,376.542358 
	C567.457886,375.319275 567.896912,374.060760 568.488037,372.878326 
	C579.486694,350.878876 586.448120,327.869385 587.172607,303.051880 
	C587.468079,292.930847 588.908081,282.822083 590.205994,272.756531 
	C592.014893,258.727966 590.664185,245.009033 585.230652,232.072113 
	C577.931824,214.694336 579.001221,197.167084 583.260925,179.642303 
	C586.159729,167.716873 590.191406,156.044037 594.159790,144.409454 
	C596.766418,136.767197 602.964966,135.444687 608.131348,141.651337 
	C617.699158,153.145737 627.578674,164.539413 635.736755,177.015762 
	C653.269592,203.829208 655.720886,233.572800 649.904358,264.396057 
	C649.421143,266.956390 648.591553,269.706451 647.105286,271.783173 
	C631.521423,293.557983 615.770691,315.213409 599.460083,336.583923 
	C608.834045,306.607697 617.248840,276.597260 619.887817,244.802887 
z"/>
<path fill="#FEF3E7" opacity="1.000000" stroke="none" 
	d="
M576.519653,372.528076 
	C578.391907,370.110229 580.264099,367.692413 582.136292,365.274567 
	C582.585388,365.634399 583.034485,365.994232 583.483582,366.354065 
	C581.605347,368.540802 579.727173,370.727539 577.376526,372.906921 
	C576.776001,372.775757 576.647827,372.651917 576.519653,372.528076 
z"/>
<path fill="#FEF3E7" opacity="1.000000" stroke="none" 
	d="
M572.563599,377.560211 
	C573.140076,376.742645 573.716553,375.925079 574.728455,375.141541 
	C575.163879,375.175537 575.514709,375.511505 575.514709,375.511505 
	C574.890320,376.294189 574.265869,377.076874 573.234558,377.840851 
	C572.827637,377.822174 572.563599,377.560211 572.563599,377.560211 
z"/>
<path fill="#FEF3E7" opacity="1.000000" stroke="none" 
	d="
M572.955566,377.957123 
	C572.790955,378.294586 572.498413,378.497101 572.205811,378.699615 
	C572.192322,378.449768 572.178833,378.199890 572.364502,377.755127 
	C572.563599,377.560211 572.827637,377.822174 572.955566,377.957123 
z"/>
<path fill="#FEF3E7" opacity="1.000000" stroke="none" 
	d="
M609.243042,332.284607 
	C609.028625,332.358826 608.591614,332.187378 608.351440,331.794861 
	C608.705688,331.728882 608.863159,331.883911 609.243042,332.284607 
z"/>
<path fill="#FEF3E7" opacity="1.000000" stroke="none" 
	d="
M574.995972,375.000031 
	C574.881287,374.486603 575.028992,374.196869 575.655029,374.001038 
	C576.038757,374.046722 576.374878,374.388916 576.374878,374.388916 
	C576.263184,374.693665 576.093628,374.961823 575.690491,375.352478 
	C575.514709,375.511505 575.163879,375.175537 574.995972,375.000031 
z"/>
<path fill="#FEF3E7" opacity="1.000000" stroke="none" 
	d="
M575.869019,373.877319 
	C575.786987,373.387939 575.941162,373.104095 576.340698,372.692200 
	C576.647827,372.651917 576.776001,372.775757 577.093140,373.089325 
	C577.191711,373.603363 577.024048,373.880920 576.576965,374.250336 
	C576.374878,374.388916 576.038757,374.046722 575.869019,373.877319 
z"/>
<path fill="#FFF3E7" opacity="1.000000" stroke="none" 
	d="
M931.685425,251.602051 
	C948.695740,239.330261 968.215576,235.092682 987.929993,231.494781 
	C1011.164917,227.254379 1034.485107,224.957458 1057.910767,229.984589 
	C1063.427124,231.168396 1068.803955,232.998337 1074.253296,234.500290 
	C1080.335693,236.176697 1086.365723,238.112885 1092.530029,239.404175 
	C1101.334351,241.248489 1108.520996,245.548157 1114.799683,251.892746 
	C1131.075928,268.339691 1140.787842,288.275146 1146.809814,310.342560 
	C1154.953491,340.184357 1158.909668,370.699371 1161.927979,401.380096 
	C1162.006226,402.175232 1161.937988,402.984772 1161.937988,404.435516 
	C1055.609375,402.520599 949.533997,400.610260 843.126282,398.693909 
	C843.126282,397.674805 842.898315,396.683838 843.158936,395.844574 
	C856.588013,352.593384 874.310120,311.443481 904.297729,276.808136 
	C912.289612,267.577698 922.311829,260.105225 931.685425,251.602051 
z"/>
<path fill="#F19820" opacity="1.000000" stroke="none" 
	d="
M569.812195,605.800537 
	C563.721558,606.480591 553.268433,598.431946 553.387939,592.959656 
	C553.485779,588.484863 556.340393,584.652222 560.567444,583.675110 
	C565.253235,582.591980 570.341064,582.680176 575.189270,583.066895 
	C578.421814,583.324829 580.390320,586.467834 579.095764,589.363708 
	C576.574402,595.003662 573.175781,600.251404 569.812195,605.800537 
M558.864197,589.574524 
	C557.229309,593.560791 563.183411,602.484070 567.380127,602.138794 
	C568.358032,602.058350 569.661316,601.226746 570.122009,600.368713 
	C572.294617,596.322937 574.226379,592.147827 576.508667,587.477356 
	C569.955139,585.360107 564.475708,584.726257 558.864197,589.574524 
z"/>
<path fill="#FFF3E7" opacity="1.000000" stroke="none" 
	d="
M559.122864,589.276001 
	C564.475708,584.726257 569.955139,585.360107 576.508667,587.477356 
	C574.226379,592.147827 572.294617,596.322937 570.122009,600.368713 
	C569.661316,601.226746 568.358032,602.058350 567.380127,602.138794 
	C563.183411,602.484070 557.229309,593.560791 559.122864,589.276001 
z"/>
</svg>