<svg version="1.1" id="Layer_1" xmlns="http://www.w3.org/2000/svg" xmlns:xlink="http://www.w3.org/1999/xlink" x="0px" y="0px"
	 width="100%" viewBox="0 0 896 1280" enable-background="new 0 0 896 1280" xml:space="preserve">
<path fill="#EAD9DF" opacity="1.000000" stroke="none" 
	d="
M897.000000,495.000000 
	C897.000000,757.333313 897.000000,1019.166687 897.000000,1281.000000 
	C598.333313,1281.000000 299.666656,1281.000000 1.000000,1281.000000 
	C1.000000,854.333313 1.000000,427.666656 1.000000,1.000000 
	C299.666656,1.000000 598.333313,1.000000 897.000000,1.000000 
	C897.000000,165.500000 897.000000,330.000000 897.000000,495.000000 
M291.003540,1089.179321 
	C290.348969,1088.759521 289.694366,1088.339722 289.010681,1087.990356 
	C289.010681,1087.990356 289.076660,1087.952148 288.717590,1087.381226 
	C286.231537,1085.735840 283.908081,1083.736572 281.231232,1082.506348 
	C269.703369,1077.208374 260.050385,1083.003662 259.916718,1095.654175 
	C259.869141,1100.160034 260.935303,1105.039673 262.815826,1109.142456 
	C271.945923,1129.062256 281.466980,1148.804321 290.994110,1168.539429 
	C292.898590,1172.484497 295.432678,1176.125732 297.932434,1180.338379 
	C302.452545,1174.484131 306.395325,1169.377686 310.275635,1164.171143 
	C310.275635,1164.171143 310.189758,1164.252075 310.780487,1164.119385 
	C311.016052,1163.796997 311.251587,1163.474487 311.813293,1163.041504 
	C311.813293,1163.041504 312.018951,1162.765259 312.599030,1162.497925 
	C315.154358,1159.413452 317.709717,1156.328979 320.218475,1153.165283 
	C320.218475,1153.165283 320.154053,1153.230835 320.677795,1153.046753 
	C320.850525,1152.730225 321.023285,1152.413696 321.119324,1152.139038 
	C321.119324,1152.139038 321.180786,1152.201172 321.761536,1151.892456 
	C327.277100,1144.663086 332.792694,1137.433838 338.163849,1130.245239 
	C338.163849,1130.245239 338.311798,1130.270264 338.883148,1129.955444 
	C341.722931,1124.542603 345.103607,1119.336060 347.267487,1113.665283 
	C350.060608,1106.345459 348.792908,1099.289185 343.207764,1093.135132 
	C343.207764,1093.135132 343.015747,1093.009766 342.734314,1092.386841 
	C335.963379,1086.276855 328.129120,1086.650024 320.633118,1093.636108 
	C315.950806,1097.999756 311.463348,1102.572266 306.842163,1107.096436 
	C305.869629,1106.250244 305.018280,1105.509399 304.270752,1104.816772 
	C304.270752,1104.816772 304.308533,1104.708740 304.141968,1104.047119 
	C301.090424,1100.381958 298.038910,1096.716797 295.007690,1093.004395 
	C295.007690,1093.004395 294.956696,1093.011475 294.753235,1092.402954 
	C293.598846,1091.502808 292.444458,1090.602661 291.313843,1089.801392 
	C291.313843,1089.801392 291.264008,1089.716187 291.003540,1089.179321 
M175.770050,96.434578 
	C174.541443,95.262207 173.312836,94.089844 171.908661,92.451675 
	C171.708298,92.165375 171.438217,91.981392 170.870193,91.275192 
	C169.292328,89.805756 167.787491,88.247459 166.124817,86.881233 
	C155.014267,77.751686 141.817612,82.257668 139.887421,96.574669 
	C139.121445,102.256226 140.179871,109.398880 143.168701,114.133263 
	C150.749878,126.141975 159.892639,137.164856 168.767700,149.130676 
	C174.081177,155.196793 179.394653,161.262894 184.926880,167.959076 
	C186.406769,169.875900 187.886673,171.792725 189.606827,174.020721 
	C190.886108,172.183273 192.001953,170.921204 192.740799,169.467529 
	C201.778732,151.685806 210.980743,133.981812 219.646530,116.019501 
	C222.950211,109.171715 225.581467,101.862999 227.433090,94.491539 
	C229.112915,87.804131 228.182587,80.916405 221.713943,76.664192 
	C215.695236,72.707748 209.664108,74.446854 203.294998,78.110863 
	C195.560410,85.344788 187.825806,92.578712 179.730682,100.149834 
	C179.613266,100.067574 178.550842,99.323120 177.208710,98.107811 
	C176.798035,97.748474 176.387344,97.389145 175.770050,96.434578 
M615.091736,400.198273 
	C609.534729,396.602814 603.553772,397.026581 598.582703,400.437897 
	C592.216248,404.806885 586.456787,410.141541 580.835510,415.481018 
	C578.052429,418.124634 576.164551,421.710724 573.489319,425.397308 
	C567.971497,419.736908 563.273682,414.007935 557.669739,409.375031 
	C548.497559,401.792236 537.354309,405.488739 533.422974,416.739349 
	C530.990234,423.701263 532.262451,430.308380 535.436340,436.531342 
	C547.230896,459.656738 567.002136,476.559875 582.967224,497.773499 
	C587.181580,489.678833 591.207764,482.432007 594.787476,474.970947 
	C602.914490,458.032379 611.105408,441.113617 618.692383,423.931580 
	C622.207581,415.970673 622.489136,407.666138 615.091736,400.198273 
M103.886673,857.098572 
	C95.977928,861.301086 91.403244,869.173950 93.501701,877.745605 
	C95.049133,884.066345 97.414589,890.745789 101.292236,895.835754 
	C114.770790,913.528320 129.067276,930.597656 143.416306,948.354004 
	C145.057800,945.847046 146.502106,944.024475 147.540634,941.994385 
	C155.565582,926.307251 163.879227,910.751587 171.339355,894.797974 
	C175.534042,885.827515 178.754349,876.316040 181.498047,866.784790 
	C183.128906,861.119324 181.195679,855.381165 176.428406,851.466797 
	C171.657913,847.549805 166.094467,848.050659 160.887329,850.520447 
	C157.325531,852.209717 153.656250,854.206299 150.892685,856.934326 
	C145.036224,862.715454 139.740601,869.064758 135.033783,874.274719 
	C131.039841,870.746155 126.628845,866.706665 122.061508,862.852539 
	C117.053093,858.626038 111.922905,854.505249 103.886673,857.098572 
M612.005249,968.498230 
	C617.139160,974.527588 622.273071,980.556885 627.639587,986.859314 
	C628.960571,984.753784 630.243286,983.007324 631.220581,981.104126 
	C639.041260,965.874634 647.182190,950.792786 654.442749,935.299011 
	C658.785278,926.032104 662.203857,916.249146 665.114319,906.424500 
	C666.943848,900.248718 665.370972,893.938965 659.644531,889.969849 
	C653.899963,885.988220 647.829956,887.453369 642.216187,890.573669 
	C633.762451,895.272766 627.246887,902.096008 621.912598,910.099060 
	C620.867920,911.666260 619.756714,913.189148 618.308228,915.257935 
	C612.770447,909.539673 608.122986,903.771118 602.517090,899.170654 
	C593.172913,891.502441 581.659790,895.270142 578.173828,906.924561 
	C577.121155,910.443909 576.719788,914.684143 577.657959,918.150940 
	C579.109863,923.516174 581.143372,929.106934 584.391296,933.528992 
	C593.038391,945.301880 602.465454,956.501831 612.005249,968.498230 
M555.388123,173.055511 
	C556.432617,171.560303 557.669495,170.163452 558.491760,168.554672 
	C566.666626,152.560318 575.021240,136.650055 582.792542,120.460457 
	C586.589111,112.551147 589.743530,104.249168 592.296936,95.853737 
	C594.423218,88.862671 593.768372,81.595863 587.214966,76.890961 
	C580.726685,72.232857 573.756042,74.433159 568.169189,78.568542 
	C562.097107,83.063057 556.902283,88.782387 551.552246,94.192375 
	C549.529785,96.237465 548.142273,98.910477 546.281128,101.559464 
	C545.141846,100.489243 544.430725,99.833122 543.732605,99.163452 
	C538.939819,94.566177 534.523438,89.475029 529.273254,85.479370 
	C520.938538,79.136337 511.569427,81.728958 506.835632,91.106735 
	C503.056610,98.593063 504.128265,106.060890 507.791779,113.151772 
	C519.630066,136.065475 538.832642,153.263962 555.388123,173.055511 
M619.498596,1085.033936 
	C615.694092,1089.678833 615.107605,1095.134521 616.400818,1100.627441 
	C617.612549,1105.774170 619.146423,1110.971313 621.429871,1115.717407 
	C630.792053,1135.175903 640.471130,1154.482422 650.107422,1173.807983 
	C651.107361,1175.813354 652.597656,1177.574219 654.500671,1180.398804 
	C669.259460,1161.780396 683.750732,1144.034668 697.523926,1125.748047 
	C700.967590,1121.175659 702.777405,1115.022339 704.127075,1109.309448 
	C705.929382,1101.680664 701.489075,1092.976440 695.284729,1089.683716 
	C689.455383,1086.590088 682.979614,1088.076904 676.296265,1094.196289 
	C673.968994,1096.327148 671.765381,1098.609619 669.659241,1100.960693 
	C667.581604,1103.279785 665.698669,1105.773193 663.378235,1108.622437 
	C661.657410,1105.998779 660.871887,1104.755371 660.041687,1103.542603 
	C654.626221,1095.632202 648.233521,1088.702881 639.846924,1083.859253 
	C632.175110,1079.428467 625.769958,1079.683960 619.498596,1085.033936 
M384.887909,594.378662 
	C389.569763,587.439087 394.010376,580.367981 394.412964,571.668091 
	C394.764252,564.076050 391.828918,557.852356 385.298859,553.963928 
	C379.114807,550.281555 373.374237,552.602722 368.302551,556.791260 
	C365.617950,559.008362 363.126343,561.480469 360.705475,563.989685 
	C358.103424,566.686768 355.686249,569.562195 352.909332,572.672363 
	C351.861267,570.901855 351.459045,570.186218 351.023315,569.491638 
	C344.716858,559.439209 336.986176,550.817749 325.759186,546.232056 
	C315.252045,541.940430 306.228394,547.737915 305.998474,559.080078 
	C305.909912,563.448486 306.693634,568.212280 308.467072,572.175110 
	C315.932770,588.857544 323.799286,605.365295 331.777985,621.811340 
	C335.203064,628.871094 339.259613,635.624573 343.705933,643.754578 
	C358.160461,626.860352 372.551758,611.975403 384.887909,594.378662 
M263.249573,330.170715 
	C272.821136,354.077301 285.442719,376.429626 297.536743,399.653595 
	C303.315216,392.860870 308.543671,387.069122 313.374237,380.962585 
	C323.478241,368.189728 333.578369,355.403046 343.254120,342.307343 
	C347.276733,336.862885 348.927185,330.278381 348.112915,323.348999 
	C347.343903,316.804688 344.385468,311.537140 338.219849,308.816223 
	C332.441681,306.266327 327.110474,308.005463 322.420685,311.824066 
	C320.107208,313.707794 317.928192,315.779510 315.847443,317.920837 
	C312.867523,320.987488 310.033295,324.195740 306.776489,327.735168 
	C305.138611,325.177673 304.117554,323.480286 302.997284,321.851105 
	C296.852173,312.914642 289.454071,305.225616 279.171875,301.285278 
	C268.651001,297.253479 259.692749,303.632477 260.044769,314.893677 
	C260.197083,319.765381 261.960785,324.586670 263.249573,330.170715 
M629.685791,676.806458 
	C632.114807,681.209473 634.543762,685.612488 637.139404,690.317566 
	C642.210449,684.298584 646.765808,679.014282 651.186340,673.619507 
	C660.461365,662.300232 670.125244,651.256104 678.697998,639.424072 
	C682.775146,633.796875 685.396240,626.829346 687.443420,620.094055 
	C689.645142,612.850952 685.272705,603.585022 679.049805,600.222961 
	C672.186340,596.514893 666.041626,598.642395 660.846619,603.634644 
	C655.982971,608.308411 651.535950,613.415588 646.526550,618.734558 
	C644.675476,615.961548 643.533447,614.155518 642.297791,612.415894 
	C636.743347,604.595764 630.311218,597.661011 621.595398,593.328308 
	C616.177734,590.635132 610.426575,589.358093 605.051819,593.328125 
	C599.633057,597.330688 598.319214,603.304199 599.525208,609.436584 
	C600.635742,615.083435 602.344421,620.769592 604.789368,625.968201 
	C612.713562,642.816650 621.097229,659.449036 629.685791,676.806458 
M366.151825,182.509460 
	C362.260590,175.359436 358.369354,168.209412 353.978943,160.142136 
	C350.491089,167.158295 347.108429,172.916824 344.738373,179.065674 
	C342.883545,183.877838 339.647552,185.416962 335.079285,186.019562 
	C328.578064,186.877121 322.116791,188.037659 315.065582,189.159927 
	C316.093445,190.758789 316.548340,191.857849 317.331787,192.618607 
	C321.124786,196.301910 324.892975,200.025177 328.889679,203.480072 
	C332.476746,206.580811 334.805450,209.506744 333.359741,214.942886 
	C331.602661,221.550034 331.116791,228.495239 329.884888,236.581345 
	C336.235382,233.189667 341.898132,230.991287 346.562134,227.470062 
	C352.709167,222.829163 357.740234,224.112198 363.584351,227.774399 
	C368.181641,230.655273 373.421417,232.510803 379.775940,235.474838 
	C378.319824,227.748993 377.602539,221.644165 375.942261,215.807571 
	C374.412018,210.428192 375.593903,206.680054 379.861969,203.173126 
	C383.830536,199.912292 387.317352,196.055313 390.923187,192.369736 
	C391.838287,191.434387 392.399536,190.152817 393.476654,188.482483 
	C389.764984,187.902618 386.976959,187.579681 384.238495,187.016068 
	C378.331696,185.800293 372.450348,184.460922 366.151825,182.509460 
M184.067886,696.420105 
	C190.140854,699.549988 196.213821,702.679871 203.578278,706.475342 
	C202.345703,698.206787 201.531525,691.491089 200.285126,684.856628 
	C199.544113,680.912354 199.924408,677.770386 203.250946,675.070618 
	C206.858337,672.143005 210.222519,668.905640 213.585144,665.690735 
	C215.279678,664.070679 216.736176,662.201599 219.089218,659.559204 
	C212.877930,658.579468 208.033951,657.626648 203.144287,657.089539 
	C196.254959,656.332703 190.462357,654.989563 188.095459,646.847900 
	C186.490921,641.328735 182.773300,636.423767 179.610657,630.515442 
	C176.312164,636.625366 172.680359,641.599792 170.858719,647.166565 
	C168.533447,654.272461 163.710648,655.749451 157.316757,656.216370 
	C151.699997,656.626526 146.137054,657.773804 140.550354,658.595520 
	C140.463120,659.115112 140.375900,659.634705 140.288681,660.154297 
	C145.694916,665.428345 151.203995,670.603882 156.426300,676.054138 
	C157.559219,677.236511 158.255768,679.453064 158.121078,681.109314 
	C157.813950,684.885925 156.747665,688.593506 156.212738,692.360840 
	C155.642944,696.373596 155.330017,700.422791 154.809372,705.362915 
	C157.145950,704.462341 158.534790,704.049561 159.812225,703.413086 
	C164.855103,700.900635 170.018219,698.575195 174.829422,695.671265 
	C178.043915,693.731140 180.638596,693.752625 184.067886,696.420105 
M491.972992,1170.628540 
	C491.265656,1169.496338 490.558319,1168.364258 489.491486,1166.656616 
	C486.873993,1171.408203 484.020538,1175.097168 482.712677,1179.270508 
	C479.926819,1188.160034 474.614532,1192.516602 465.113739,1192.397705 
	C460.176361,1192.335693 455.221680,1193.652344 449.375610,1194.472412 
	C453.136871,1198.551758 455.591187,1202.354858 459.033508,1204.719849 
	C467.321411,1210.414185 470.182709,1217.258423 466.710754,1227.009277 
	C465.227356,1231.175171 465.275269,1235.886475 464.519897,1241.090576 
	C466.508209,1240.567139 467.330292,1240.496216 468.011017,1240.148560 
	C473.629700,1237.278809 479.268738,1234.443115 484.803497,1231.417480 
	C487.700226,1229.833984 490.117096,1229.748779 493.132172,1231.526611 
	C499.347809,1235.191528 505.863403,1238.347778 513.384399,1242.307495 
	C512.736633,1236.824951 512.965210,1232.197021 511.556885,1228.136719 
	C508.087250,1218.134033 511.153381,1211.031128 519.431152,1205.113159 
	C522.756226,1202.735962 525.283752,1199.243164 529.061218,1195.342163 
	C521.427612,1194.085693 515.278503,1192.772705 509.060242,1192.143799 
	C503.947754,1191.626953 500.533203,1189.826782 498.674316,1184.687866 
	C496.998566,1180.055176 494.397949,1175.757080 491.972992,1170.628540 
M325.397278,959.173157 
	C320.932190,959.741882 319.479156,956.567322 317.873993,953.336853 
	C314.824127,947.198914 311.591217,941.151917 307.823273,933.889282 
	C304.343689,941.062622 301.080200,946.831055 298.728058,952.949707 
	C296.919342,957.654907 293.880768,959.644409 289.218079,960.241943 
	C282.707184,961.076477 276.223206,962.120605 269.727692,963.075073 
	C269.245026,963.777100 268.762360,964.479126 268.279694,965.181213 
	C272.557861,968.769714 276.666504,972.588684 281.155518,975.890503 
	C287.272980,980.390320 288.932648,985.853516 286.932587,993.163879 
	C285.535339,998.270996 285.282806,1003.691284 284.518951,1008.971680 
	C284.993378,1009.214966 285.467834,1009.458191 285.942261,1009.701477 
	C291.299042,1006.778870 296.865021,1004.174622 301.948029,1000.835266 
	C306.195770,998.044556 310.047760,997.541321 314.338898,1000.217773 
	C315.465515,1000.920471 316.656494,1001.526794 317.846741,1002.119446 
	C322.610352,1004.491577 327.385315,1006.840759 332.156097,1009.198486 
	C332.536438,1008.843811 332.916779,1008.489197 333.297119,1008.134583 
	C332.784515,1005.090576 332.574402,1001.956970 331.704254,999.018860 
	C328.730652,988.978149 327.606659,979.580627 338.271301,972.955750 
	C340.064240,971.841980 341.434174,970.011475 342.904175,968.423767 
	C344.399414,966.808716 345.776764,965.084595 347.939880,962.546936 
	C339.893585,961.359436 333.062592,960.351318 325.397278,959.173157 
M770.926636,528.521240 
	C776.320557,523.421936 781.714539,518.322632 788.091370,512.294006 
	C784.816833,511.614929 783.400330,511.252045 781.961853,511.034760 
	C775.568787,510.069000 769.149963,509.253967 762.787170,508.122009 
	C761.366394,507.869232 759.631714,506.862915 758.908508,505.675507 
	C756.672607,502.004791 754.900513,498.054779 752.861145,494.260040 
	C751.141907,491.060852 749.300903,487.927124 746.830627,483.555420 
	C742.867371,491.552002 739.759277,498.143463 736.316162,504.554993 
	C735.401917,506.257446 733.658264,508.244995 731.949829,508.652313 
	C726.975952,509.838196 721.813965,510.211975 716.752075,511.060883 
	C713.964050,511.528442 711.228882,512.311035 708.799255,512.875122 
	C714.103699,518.521118 718.979919,523.730103 723.879150,528.917358 
	C725.992859,531.155212 727.314087,533.244995 726.546875,536.839600 
	C725.033630,543.930176 724.375183,551.203247 723.174316,559.744263 
	C730.322266,555.873169 736.476685,552.721130 742.439697,549.241150 
	C745.879272,547.233826 748.724243,546.675720 752.506287,548.941833 
	C758.400879,552.473755 764.778076,555.200256 770.950806,558.268005 
	C771.412781,557.982788 771.874817,557.697571 772.336792,557.412354 
	C771.437073,552.463562 770.165161,547.545898 769.748230,542.556702 
	C769.374084,538.080566 766.228943,533.318237 770.926636,528.521240 
M141.271240,1181.583496 
	C138.901611,1176.774780 136.531967,1171.965942 133.645966,1166.109375 
	C130.545410,1171.935059 127.288116,1176.344482 125.770012,1181.287964 
	C123.149940,1189.819702 117.262390,1191.942017 109.365746,1192.247070 
	C104.547798,1192.433472 99.770103,1193.661133 94.179924,1194.546875 
	C95.479370,1196.389526 96.006447,1197.394775 96.766541,1198.172241 
	C101.169563,1202.675903 105.789291,1206.981689 109.970886,1211.679321 
	C111.268410,1213.136963 112.139542,1215.672241 111.965385,1217.602295 
	C111.549866,1222.207153 110.296829,1226.729736 109.573906,1231.315796 
	C109.096954,1234.341309 108.953087,1237.419434 108.556686,1241.551880 
	C115.804390,1237.952881 121.667458,1235.233643 127.339333,1232.161499 
	C131.562500,1229.874023 135.144989,1229.986816 139.308716,1232.661499 
	C144.520264,1236.009644 150.248016,1238.554199 155.752884,1241.445679 
	C156.219208,1241.128174 156.685516,1240.810669 157.151840,1240.493286 
	C156.632431,1236.837402 156.532379,1233.059814 155.512619,1229.549438 
	C152.786240,1220.163940 153.266052,1211.996704 162.324020,1206.044922 
	C164.655579,1204.512939 166.629333,1202.395508 168.620514,1200.400269 
	C170.042526,1198.975464 171.218948,1197.305542 173.018021,1195.122314 
	C167.399841,1194.306763 162.830566,1193.446655 158.221176,1193.018799 
	C150.709991,1192.321899 143.555649,1191.317383 141.271240,1181.583496 
M453.493958,749.008911 
	C456.927521,747.328003 460.718475,746.123169 463.721649,743.868896 
	C470.338409,738.902100 476.096283,740.528442 482.294403,744.658813 
	C486.630585,747.548340 491.513733,749.616943 497.433258,752.724548 
	C496.653442,748.347961 496.395477,745.387634 495.579376,742.589966 
	C492.536835,732.159973 491.769745,722.608826 502.594482,715.600281 
	C506.197296,713.267761 508.876190,709.508179 512.853088,705.523560 
	C506.141815,704.532837 500.811279,703.379028 495.429626,703.041992 
	C488.291870,702.595093 483.019440,700.117859 480.885406,692.781433 
	C480.379364,691.041748 479.528900,689.393066 478.749115,687.743958 
	C477.083679,684.222046 475.360809,680.727234 473.147064,676.160034 
	C469.438934,683.315063 465.991119,689.163391 463.328430,695.349670 
	C461.026062,700.698975 457.119293,701.848694 451.901489,702.140625 
	C445.916687,702.475403 439.978790,703.648682 432.495331,704.664795 
	C437.131348,709.402649 440.196991,713.443481 444.110718,716.337219 
	C451.187592,721.569763 453.333130,727.595459 450.363770,736.046326 
	C448.770447,740.580750 448.685486,745.645203 447.749939,751.541626 
	C450.225586,750.512695 451.539886,749.966431 453.493958,749.008911 
M812.250610,1046.254639 
	C813.523376,1046.871094 814.796082,1047.487671 817.379150,1048.738770 
	C816.211121,1042.189087 814.935364,1036.924927 814.432373,1031.587769 
	C814.062744,1027.664917 811.413696,1023.497925 814.735962,1019.680237 
	C816.796997,1017.311768 819.044495,1015.106506 821.178223,1012.800171 
	C824.463562,1009.249084 827.723083,1005.674072 831.623108,1001.422974 
	C827.292969,1000.826294 824.206970,1000.246582 821.094543,999.998047 
	C804.707520,998.689331 804.728577,998.706848 797.428833,983.886841 
	C795.788818,980.557251 793.922913,977.338806 791.660522,973.140381 
	C788.178162,980.049072 784.520203,985.561890 782.595276,991.624878 
	C780.741150,997.464966 777.097046,998.651245 771.938599,999.193665 
	C765.649292,999.854980 759.423279,1001.118103 753.369141,1002.088989 
	C758.591553,1007.758362 763.088684,1013.084778 768.086304,1017.890808 
	C770.858337,1020.556580 772.318726,1022.787964 771.394226,1026.922363 
	C769.872559,1033.727417 769.205933,1040.723633 767.942383,1049.231323 
	C775.818604,1045.121094 782.338135,1041.970093 788.586304,1038.350586 
	C791.641296,1036.581055 794.115601,1036.887329 796.961914,1038.434448 
	C801.769714,1041.047974 806.670776,1043.489746 812.250610,1046.254639 
M691.776123,187.117706 
	C688.257141,187.955811 684.738220,188.793915 681.219238,189.632004 
	C681.123230,190.150421 681.027222,190.668839 680.931274,191.187256 
	C683.155029,193.169769 685.218201,195.377853 687.630798,197.095139 
	C697.217529,203.918961 701.481384,212.363007 697.236816,224.207245 
	C696.039734,227.547668 696.343567,231.425919 695.848328,236.102905 
	C700.983459,233.426773 705.286621,231.830276 708.827515,229.205383 
	C716.361023,223.620758 723.345154,222.880936 731.161987,228.833374 
	C734.811035,231.612061 739.546509,232.964050 745.070374,235.566010 
	C743.968811,229.864883 743.566284,225.588654 742.285461,221.594055 
	C739.310181,212.314713 741.085815,204.926514 749.217102,198.987854 
	C752.700989,196.443390 755.401611,192.826538 759.166687,188.971420 
	C756.610718,188.103531 755.295837,187.425949 753.912415,187.228149 
	C748.500671,186.454407 743.074707,185.376678 737.639771,185.288818 
	C732.733643,185.209503 730.725403,182.752563 728.930725,178.718689 
	C726.267151,172.731705 722.964478,167.029053 719.293091,159.974152 
	C717.435242,163.773941 715.991333,166.321014 714.908813,169.013443 
	C710.819275,179.184509 706.125854,188.515182 691.776123,187.117706 
z"/>
<path fill="#C4624A" opacity="1.000000" stroke="none" 
	d="
M615.390076,400.431427 
	C622.489136,407.666138 622.207581,415.970673 618.692383,423.931580 
	C611.105408,441.113617 602.914490,458.032379 594.787476,474.970947 
	C591.207764,482.432007 587.181580,489.678833 582.967224,497.773499 
	C567.002136,476.559875 547.230896,459.656738 535.436340,436.531342 
	C532.262451,430.308380 530.990234,423.701263 533.422974,416.739349 
	C537.354309,405.488739 548.497559,401.792236 557.669739,409.375031 
	C563.273682,414.007935 567.971497,419.736908 573.489319,425.397308 
	C576.164551,421.710724 578.052429,418.124634 580.835510,415.481018 
	C586.456787,410.141541 592.216248,404.806885 598.582703,400.437897 
	C603.553772,397.026581 609.534729,396.602814 615.390076,400.431427 
z"/>
<path fill="#C4624A" opacity="1.000000" stroke="none" 
	d="
M104.251099,856.967102 
	C111.922905,854.505249 117.053093,858.626038 122.061508,862.852539 
	C126.628845,866.706665 131.039841,870.746155 135.033783,874.274719 
	C139.740601,869.064758 145.036224,862.715454 150.892685,856.934326 
	C153.656250,854.206299 157.325531,852.209717 160.887329,850.520447 
	C166.094467,848.050659 171.657913,847.549805 176.428406,851.466797 
	C181.195679,855.381165 183.128906,861.119324 181.498047,866.784790 
	C178.754349,876.316040 175.534042,885.827515 171.339355,894.797974 
	C163.879227,910.751587 155.565582,926.307251 147.540634,941.994385 
	C146.502106,944.024475 145.057800,945.847046 143.416306,948.354004 
	C129.067276,930.597656 114.770790,913.528320 101.292236,895.835754 
	C97.414589,890.745789 95.049133,884.066345 93.501701,877.745605 
	C91.403244,869.173950 95.977928,861.301086 104.251099,856.967102 
z"/>
<path fill="#C4624A" opacity="1.000000" stroke="none" 
	d="
M611.793823,968.213867 
	C602.465454,956.501831 593.038391,945.301880 584.391296,933.528992 
	C581.143372,929.106934 579.109863,923.516174 577.657959,918.150940 
	C576.719788,914.684143 577.121155,910.443909 578.173828,906.924561 
	C581.659790,895.270142 593.172913,891.502441 602.517090,899.170654 
	C608.122986,903.771118 612.770447,909.539673 618.308228,915.257935 
	C619.756714,913.189148 620.867920,911.666260 621.912598,910.099060 
	C627.246887,902.096008 633.762451,895.272766 642.216187,890.573669 
	C647.829956,887.453369 653.899963,885.988220 659.644531,889.969849 
	C665.370972,893.938965 666.943848,900.248718 665.114319,906.424500 
	C662.203857,916.249146 658.785278,926.032104 654.442749,935.299011 
	C647.182190,950.792786 639.041260,965.874634 631.220581,981.104126 
	C630.243286,983.007324 628.960571,984.753784 627.639587,986.859314 
	C622.273071,980.556885 617.139160,974.527588 611.793823,968.213867 
z"/>
<path fill="#C4624A" opacity="1.000000" stroke="none" 
	d="
M555.016479,173.076340 
	C538.832642,153.263962 519.630066,136.065475 507.791779,113.151772 
	C504.128265,106.060890 503.056610,98.593063 506.835632,91.106735 
	C511.569427,81.728958 520.938538,79.136337 529.273254,85.479370 
	C534.523438,89.475029 538.939819,94.566177 543.732605,99.163452 
	C544.430725,99.833122 545.141846,100.489243 546.281128,101.559464 
	C548.142273,98.910477 549.529785,96.237465 551.552246,94.192375 
	C556.902283,88.782387 562.097107,83.063057 568.169189,78.568542 
	C573.756042,74.433159 580.726685,72.232857 587.214966,76.890961 
	C593.768372,81.595863 594.423218,88.862671 592.296936,95.853737 
	C589.743530,104.249168 586.589111,112.551147 582.792542,120.460457 
	C575.021240,136.650055 566.666626,152.560318 558.491760,168.554672 
	C557.669495,170.163452 556.432617,171.560303 555.016479,173.076340 
z"/>
<path fill="#C4624A" opacity="1.000000" stroke="none" 
	d="
M619.762817,1084.763428 
	C625.769958,1079.683960 632.175110,1079.428467 639.846924,1083.859253 
	C648.233521,1088.702881 654.626221,1095.632202 660.041687,1103.542603 
	C660.871887,1104.755371 661.657410,1105.998779 663.378235,1108.622437 
	C665.698669,1105.773193 667.581604,1103.279785 669.659241,1100.960693 
	C671.765381,1098.609619 673.968994,1096.327148 676.296265,1094.196289 
	C682.979614,1088.076904 689.455383,1086.590088 695.284729,1089.683716 
	C701.489075,1092.976440 705.929382,1101.680664 704.127075,1109.309448 
	C702.777405,1115.022339 700.967590,1121.175659 697.523926,1125.748047 
	C683.750732,1144.034668 669.259460,1161.780396 654.500671,1180.398804 
	C652.597656,1177.574219 651.107361,1175.813354 650.107422,1173.807983 
	C640.471130,1154.482422 630.792053,1135.175903 621.429871,1115.717407 
	C619.146423,1110.971313 617.612549,1105.774170 616.400818,1100.627441 
	C615.107605,1095.134521 615.694092,1089.678833 619.762817,1084.763428 
z"/>
<path fill="#C4624A" opacity="1.000000" stroke="none" 
	d="
M384.697449,594.684631 
	C372.551758,611.975403 358.160461,626.860352 343.705933,643.754578 
	C339.259613,635.624573 335.203064,628.871094 331.777985,621.811340 
	C323.799286,605.365295 315.932770,588.857544 308.467072,572.175110 
	C306.693634,568.212280 305.909912,563.448486 305.998474,559.080078 
	C306.228394,547.737915 315.252045,541.940430 325.759186,546.232056 
	C336.986176,550.817749 344.716858,559.439209 351.023315,569.491638 
	C351.459045,570.186218 351.861267,570.901855 352.909332,572.672363 
	C355.686249,569.562195 358.103424,566.686768 360.705475,563.989685 
	C363.126343,561.480469 365.617950,559.008362 368.302551,556.791260 
	C373.374237,552.602722 379.114807,550.281555 385.298859,553.963928 
	C391.828918,557.852356 394.764252,564.076050 394.412964,571.668091 
	C394.010376,580.367981 389.569763,587.439087 384.697449,594.684631 
z"/>
<path fill="#C46249" opacity="1.000000" stroke="none" 
	d="
M263.121033,329.800781 
	C261.960785,324.586670 260.197083,319.765381 260.044769,314.893677 
	C259.692749,303.632477 268.651001,297.253479 279.171875,301.285278 
	C289.454071,305.225616 296.852173,312.914642 302.997284,321.851105 
	C304.117554,323.480286 305.138611,325.177673 306.776489,327.735168 
	C310.033295,324.195740 312.867523,320.987488 315.847443,317.920837 
	C317.928192,315.779510 320.107208,313.707794 322.420685,311.824066 
	C327.110474,308.005463 332.441681,306.266327 338.219849,308.816223 
	C344.385468,311.537140 347.343903,316.804688 348.112915,323.348999 
	C348.927185,330.278381 347.276733,336.862885 343.254120,342.307343 
	C333.578369,355.403046 323.478241,368.189728 313.374237,380.962585 
	C308.543671,387.069122 303.315216,392.860870 297.536743,399.653595 
	C285.442719,376.429626 272.821136,354.077301 263.121033,329.800781 
z"/>
<path fill="#C4624A" opacity="1.000000" stroke="none" 
	d="
M629.494873,676.485596 
	C621.097229,659.449036 612.713562,642.816650 604.789368,625.968201 
	C602.344421,620.769592 600.635742,615.083435 599.525208,609.436584 
	C598.319214,603.304199 599.633057,597.330688 605.051819,593.328125 
	C610.426575,589.358093 616.177734,590.635132 621.595398,593.328308 
	C630.311218,597.661011 636.743347,604.595764 642.297791,612.415894 
	C643.533447,614.155518 644.675476,615.961548 646.526550,618.734558 
	C651.535950,613.415588 655.982971,608.308411 660.846619,603.634644 
	C666.041626,598.642395 672.186340,596.514893 679.049805,600.222961 
	C685.272705,603.585022 689.645142,612.850952 687.443420,620.094055 
	C685.396240,626.829346 682.775146,633.796875 678.697998,639.424072 
	C670.125244,651.256104 660.461365,662.300232 651.186340,673.619507 
	C646.765808,679.014282 642.210449,684.298584 637.139404,690.317566 
	C634.543762,685.612488 632.114807,681.209473 629.494873,676.485596 
z"/>
<path fill="#C56149" opacity="1.000000" stroke="none" 
	d="
M343.015747,1093.009766 
	C343.015747,1093.009766 343.207764,1093.135132 343.185577,1093.663574 
	C348.517731,1105.642700 346.669067,1116.195801 339.354401,1126.173218 
	C338.581665,1127.227295 338.639313,1128.889893 338.311798,1130.270264 
	C338.311798,1130.270264 338.163849,1130.245239 337.887482,1130.288940 
	C333.691528,1134.894653 329.619110,1139.336914 325.915314,1144.067871 
	C323.999664,1146.514771 322.737946,1149.473633 321.180786,1152.201172 
	C321.180786,1152.201172 321.119324,1152.139038 320.903595,1152.222534 
	C320.509918,1152.614258 320.332001,1152.922607 320.154053,1153.230835 
	C320.154053,1153.230835 320.218475,1153.165283 319.870941,1153.168457 
	C315.078247,1154.849121 312.590973,1158.058105 312.018951,1162.765259 
	C312.018951,1162.765259 311.813293,1163.041504 311.351990,1163.170410 
	C310.657043,1163.616821 310.423401,1163.934448 310.189758,1164.252075 
	C310.189758,1164.252075 310.275635,1164.171143 309.947540,1164.250000 
	C306.606293,1167.572266 303.462799,1170.706299 300.623291,1174.095093 
	C298.537598,1176.584351 297.366791,1176.303955 295.976440,1173.529175 
	C293.456848,1168.500488 290.577606,1163.649048 288.136230,1158.584839 
	C285.535461,1153.190063 282.591187,1148.016479 279.597534,1142.834473 
	C276.478302,1137.435059 273.965302,1131.647583 271.591766,1125.863770 
	C267.563324,1116.047241 261.616638,1106.920898 261.834442,1095.581177 
	C261.934814,1090.355591 263.356873,1086.311401 267.786560,1083.946777 
	C272.273895,1081.551392 276.901398,1081.911377 281.396667,1084.805420 
	C283.683929,1086.277954 286.499756,1086.929443 289.076660,1087.952148 
	C289.076660,1087.952148 289.010681,1087.990356 289.068237,1088.293091 
	C289.838562,1088.969238 290.551300,1089.342651 291.264038,1089.716187 
	C291.264008,1089.716187 291.313843,1089.801392 291.253326,1090.125854 
	C292.447449,1091.304077 293.702057,1092.157715 294.956696,1093.011475 
	C294.956696,1093.011475 295.007690,1093.004395 295.044861,1093.375244 
	C297.732422,1097.758179 299.278015,1102.699951 304.308533,1104.708740 
	C304.308533,1104.708740 304.270752,1104.816772 304.296936,1105.144897 
	C306.975800,1109.912598 308.264954,1109.661743 311.871674,1105.847168 
	C316.814453,1100.619507 322.256927,1095.851562 327.656860,1091.080811 
	C328.615784,1090.233643 330.507721,1089.834961 331.800598,1090.088135 
	C335.584534,1090.829468 339.283508,1092.004639 343.015747,1093.009766 
z"/>
<path fill="#E9989A" opacity="1.000000" stroke="none" 
	d="
M366.355194,182.840790 
	C372.450348,184.460922 378.331696,185.800293 384.238495,187.016068 
	C386.976959,187.579681 389.764984,187.902618 393.476654,188.482483 
	C392.399536,190.152817 391.838287,191.434387 390.923187,192.369736 
	C387.317352,196.055313 383.830536,199.912292 379.861969,203.173126 
	C375.593903,206.680054 374.412018,210.428192 375.942261,215.807571 
	C377.602539,221.644165 378.319824,227.748993 379.775940,235.474838 
	C373.421417,232.510803 368.181641,230.655273 363.584351,227.774399 
	C357.740234,224.112198 352.709167,222.829163 346.562134,227.470062 
	C341.898132,230.991287 336.235382,233.189667 329.884888,236.581345 
	C331.116791,228.495239 331.602661,221.550034 333.359741,214.942886 
	C334.805450,209.506744 332.476746,206.580811 328.889679,203.480072 
	C324.892975,200.025177 321.124786,196.301910 317.331787,192.618607 
	C316.548340,191.857849 316.093445,190.758789 315.065582,189.159927 
	C322.116791,188.037659 328.578064,186.877121 335.079285,186.019562 
	C339.647552,185.416962 342.883545,183.877838 344.738373,179.065674 
	C347.108429,172.916824 350.491089,167.158295 353.978943,160.142136 
	C358.369354,168.209412 362.260590,175.359436 366.355194,182.840790 
z"/>
<path fill="#EA989A" opacity="1.000000" stroke="none" 
	d="
M183.732651,696.242920 
	C180.638596,693.752625 178.043915,693.731140 174.829422,695.671265 
	C170.018219,698.575195 164.855103,700.900635 159.812225,703.413086 
	C158.534790,704.049561 157.145950,704.462341 154.809372,705.362915 
	C155.330017,700.422791 155.642944,696.373596 156.212738,692.360840 
	C156.747665,688.593506 157.813950,684.885925 158.121078,681.109314 
	C158.255768,679.453064 157.559219,677.236511 156.426300,676.054138 
	C151.203995,670.603882 145.694916,665.428345 140.288681,660.154297 
	C140.375900,659.634705 140.463120,659.115112 140.550354,658.595520 
	C146.137054,657.773804 151.699997,656.626526 157.316757,656.216370 
	C163.710648,655.749451 168.533447,654.272461 170.858719,647.166565 
	C172.680359,641.599792 176.312164,636.625366 179.610657,630.515442 
	C182.773300,636.423767 186.490921,641.328735 188.095459,646.847900 
	C190.462357,654.989563 196.254959,656.332703 203.144287,657.089539 
	C208.033951,657.626648 212.877930,658.579468 219.089218,659.559204 
	C216.736176,662.201599 215.279678,664.070679 213.585144,665.690735 
	C210.222519,668.905640 206.858337,672.143005 203.250946,675.070618 
	C199.924408,677.770386 199.544113,680.912354 200.285126,684.856628 
	C201.531525,691.491089 202.345703,698.206787 203.578278,706.475342 
	C196.213821,702.679871 190.140854,699.549988 183.732651,696.242920 
z"/>
<path fill="#EA989A" opacity="1.000000" stroke="none" 
	d="
M492.089111,1170.969971 
	C494.397949,1175.757080 496.998566,1180.055176 498.674316,1184.687866 
	C500.533203,1189.826782 503.947754,1191.626953 509.060242,1192.143799 
	C515.278503,1192.772705 521.427612,1194.085693 529.061218,1195.342163 
	C525.283752,1199.243164 522.756226,1202.735962 519.431152,1205.113159 
	C511.153381,1211.031128 508.087250,1218.134033 511.556885,1228.136719 
	C512.965210,1232.197021 512.736633,1236.824951 513.384399,1242.307495 
	C505.863403,1238.347778 499.347809,1235.191528 493.132172,1231.526611 
	C490.117096,1229.748779 487.700226,1229.833984 484.803497,1231.417480 
	C479.268738,1234.443115 473.629700,1237.278809 468.011017,1240.148560 
	C467.330292,1240.496216 466.508209,1240.567139 464.519897,1241.090576 
	C465.275269,1235.886475 465.227356,1231.175171 466.710754,1227.009277 
	C470.182709,1217.258423 467.321411,1210.414185 459.033508,1204.719849 
	C455.591187,1202.354858 453.136871,1198.551758 449.375610,1194.472412 
	C455.221680,1193.652344 460.176361,1192.335693 465.113739,1192.397705 
	C474.614532,1192.516602 479.926819,1188.160034 482.712677,1179.270508 
	C484.020538,1175.097168 486.873993,1171.408203 489.491486,1166.656616 
	C490.558319,1168.364258 491.265656,1169.496338 492.089111,1170.969971 
z"/>
<path fill="#EA9899" opacity="1.000000" stroke="none" 
	d="
M325.814453,959.258179 
	C333.062592,960.351318 339.893585,961.359436 347.939880,962.546936 
	C345.776764,965.084595 344.399414,966.808716 342.904175,968.423767 
	C341.434174,970.011475 340.064240,971.841980 338.271301,972.955750 
	C327.606659,979.580627 328.730652,988.978149 331.704254,999.018860 
	C332.574402,1001.956970 332.784515,1005.090576 333.297119,1008.134583 
	C332.916779,1008.489197 332.536438,1008.843811 332.156097,1009.198486 
	C327.385315,1006.840759 322.610352,1004.491577 317.846741,1002.119446 
	C316.656494,1001.526794 315.465515,1000.920471 314.338898,1000.217773 
	C310.047760,997.541321 306.195770,998.044556 301.948029,1000.835266 
	C296.865021,1004.174622 291.299042,1006.778870 285.942261,1009.701477 
	C285.467834,1009.458191 284.993378,1009.214966 284.518951,1008.971680 
	C285.282806,1003.691284 285.535339,998.270996 286.932587,993.163879 
	C288.932648,985.853516 287.272980,980.390320 281.155518,975.890503 
	C276.666504,972.588684 272.557861,968.769714 268.279694,965.181213 
	C268.762360,964.479126 269.245026,963.777100 269.727692,963.075073 
	C276.223206,962.120605 282.707184,961.076477 289.218079,960.241943 
	C293.880768,959.644409 296.919342,957.654907 298.728058,952.949707 
	C301.080200,946.831055 304.343689,941.062622 307.823273,933.889282 
	C311.591217,941.151917 314.824127,947.198914 317.873993,953.336853 
	C319.479156,956.567322 320.932190,959.741882 325.814453,959.258179 
z"/>
<path fill="#EA9899" opacity="1.000000" stroke="none" 
	d="
M770.660767,528.771973 
	C766.228943,533.318237 769.374084,538.080566 769.748230,542.556702 
	C770.165161,547.545898 771.437073,552.463562 772.336792,557.412354 
	C771.874817,557.697571 771.412781,557.982788 770.950806,558.268005 
	C764.778076,555.200256 758.400879,552.473755 752.506287,548.941833 
	C748.724243,546.675720 745.879272,547.233826 742.439697,549.241150 
	C736.476685,552.721130 730.322266,555.873169 723.174316,559.744263 
	C724.375183,551.203247 725.033630,543.930176 726.546875,536.839600 
	C727.314087,533.244995 725.992859,531.155212 723.879150,528.917358 
	C718.979919,523.730103 714.103699,518.521118 708.799255,512.875122 
	C711.228882,512.311035 713.964050,511.528442 716.752075,511.060883 
	C721.813965,510.211975 726.975952,509.838196 731.949829,508.652313 
	C733.658264,508.244995 735.401917,506.257446 736.316162,504.554993 
	C739.759277,498.143463 742.867371,491.552002 746.830627,483.555420 
	C749.300903,487.927124 751.141907,491.060852 752.861145,494.260040 
	C754.900513,498.054779 756.672607,502.004791 758.908508,505.675507 
	C759.631714,506.862915 761.366394,507.869232 762.787170,508.122009 
	C769.149963,509.253967 775.568787,510.069000 781.961853,511.034760 
	C783.400330,511.252045 784.816833,511.614929 788.091370,512.294006 
	C781.714539,518.322632 776.320557,523.421936 770.660767,528.771973 
z"/>
<path fill="#EA989A" opacity="1.000000" stroke="none" 
	d="
M141.441193,1181.885254 
	C143.555649,1191.317383 150.709991,1192.321899 158.221176,1193.018799 
	C162.830566,1193.446655 167.399841,1194.306763 173.018021,1195.122314 
	C171.218948,1197.305542 170.042526,1198.975464 168.620514,1200.400269 
	C166.629333,1202.395508 164.655579,1204.512939 162.324020,1206.044922 
	C153.266052,1211.996704 152.786240,1220.163940 155.512619,1229.549438 
	C156.532379,1233.059814 156.632431,1236.837402 157.151840,1240.493286 
	C156.685516,1240.810669 156.219208,1241.128174 155.752884,1241.445679 
	C150.248016,1238.554199 144.520264,1236.009644 139.308716,1232.661499 
	C135.144989,1229.986816 131.562500,1229.874023 127.339333,1232.161499 
	C121.667458,1235.233643 115.804390,1237.952881 108.556686,1241.551880 
	C108.953087,1237.419434 109.096954,1234.341309 109.573906,1231.315796 
	C110.296829,1226.729736 111.549866,1222.207153 111.965385,1217.602295 
	C112.139542,1215.672241 111.268410,1213.136963 109.970886,1211.679321 
	C105.789291,1206.981689 101.169563,1202.675903 96.766541,1198.172241 
	C96.006447,1197.394775 95.479370,1196.389526 94.179924,1194.546875 
	C99.770103,1193.661133 104.547798,1192.433472 109.365746,1192.247070 
	C117.262390,1191.942017 123.149940,1189.819702 125.770012,1181.287964 
	C127.288116,1176.344482 130.545410,1171.935059 133.645966,1166.109375 
	C136.531967,1171.965942 138.901611,1176.774780 141.441193,1181.885254 
z"/>
<path fill="#EA989A" opacity="1.000000" stroke="none" 
	d="
M453.174072,749.214600 
	C451.539886,749.966431 450.225586,750.512695 447.749939,751.541626 
	C448.685486,745.645203 448.770447,740.580750 450.363770,736.046326 
	C453.333130,727.595459 451.187592,721.569763 444.110718,716.337219 
	C440.196991,713.443481 437.131348,709.402649 432.495331,704.664795 
	C439.978790,703.648682 445.916687,702.475403 451.901489,702.140625 
	C457.119293,701.848694 461.026062,700.698975 463.328430,695.349670 
	C465.991119,689.163391 469.438934,683.315063 473.147064,676.160034 
	C475.360809,680.727234 477.083679,684.222046 478.749115,687.743958 
	C479.528900,689.393066 480.379364,691.041748 480.885406,692.781433 
	C483.019440,700.117859 488.291870,702.595093 495.429626,703.041992 
	C500.811279,703.379028 506.141815,704.532837 512.853088,705.523560 
	C508.876190,709.508179 506.197296,713.267761 502.594482,715.600281 
	C491.769745,722.608826 492.536835,732.159973 495.579376,742.589966 
	C496.395477,745.387634 496.653442,748.347961 497.433258,752.724548 
	C491.513733,749.616943 486.630585,747.548340 482.294403,744.658813 
	C476.096283,740.528442 470.338409,738.902100 463.721649,743.868896 
	C460.718475,746.123169 456.927521,747.328003 453.174072,749.214600 
z"/>
<path fill="#EA989A" opacity="1.000000" stroke="none" 
	d="
M811.891602,1046.129150 
	C806.670776,1043.489746 801.769714,1041.047974 796.961914,1038.434448 
	C794.115601,1036.887329 791.641296,1036.581055 788.586304,1038.350586 
	C782.338135,1041.970093 775.818604,1045.121094 767.942383,1049.231323 
	C769.205933,1040.723633 769.872559,1033.727417 771.394226,1026.922363 
	C772.318726,1022.787964 770.858337,1020.556580 768.086304,1017.890808 
	C763.088684,1013.084778 758.591553,1007.758362 753.369141,1002.088989 
	C759.423279,1001.118103 765.649292,999.854980 771.938599,999.193665 
	C777.097046,998.651245 780.741150,997.464966 782.595276,991.624878 
	C784.520203,985.561890 788.178162,980.049072 791.660522,973.140381 
	C793.922913,977.338806 795.788818,980.557251 797.428833,983.886841 
	C804.728577,998.706848 804.707520,998.689331 821.094543,999.998047 
	C824.206970,1000.246582 827.292969,1000.826294 831.623108,1001.422974 
	C827.723083,1005.674072 824.463562,1009.249084 821.178223,1012.800171 
	C819.044495,1015.106506 816.796997,1017.311768 814.735962,1019.680237 
	C811.413696,1023.497925 814.062744,1027.664917 814.432373,1031.587769 
	C814.935364,1036.924927 816.211121,1042.189087 817.379150,1048.738770 
	C814.796082,1047.487671 813.523376,1046.871094 811.891602,1046.129150 
z"/>
<path fill="#EA989A" opacity="1.000000" stroke="none" 
	d="
M692.210938,187.093933 
	C706.125854,188.515182 710.819275,179.184509 714.908813,169.013443 
	C715.991333,166.321014 717.435242,163.773941 719.293091,159.974152 
	C722.964478,167.029053 726.267151,172.731705 728.930725,178.718689 
	C730.725403,182.752563 732.733643,185.209503 737.639771,185.288818 
	C743.074707,185.376678 748.500671,186.454407 753.912415,187.228149 
	C755.295837,187.425949 756.610718,188.103531 759.166687,188.971420 
	C755.401611,192.826538 752.700989,196.443390 749.217102,198.987854 
	C741.085815,204.926514 739.310181,212.314713 742.285461,221.594055 
	C743.566284,225.588654 743.968811,229.864883 745.070374,235.566010 
	C739.546509,232.964050 734.811035,231.612061 731.161987,228.833374 
	C723.345154,222.880936 716.361023,223.620758 708.827515,229.205383 
	C705.286621,231.830276 700.983459,233.426773 695.848328,236.102905 
	C696.343567,231.425919 696.039734,227.547668 697.236816,224.207245 
	C701.481384,212.363007 697.217529,203.918961 687.630798,197.095139 
	C685.218201,195.377853 683.155029,193.169769 680.931274,191.187256 
	C681.027222,190.668839 681.123230,190.150421 681.219238,189.632004 
	C684.738220,188.793915 688.257141,187.955811 692.210938,187.093933 
z"/>
<path fill="#AF6658" opacity="1.000000" stroke="none" 
	d="
M288.897125,1087.666748 
	C286.499756,1086.929443 283.683929,1086.277954 281.396667,1084.805420 
	C276.901398,1081.911377 272.273895,1081.551392 267.786560,1083.946777 
	C263.356873,1086.311401 261.934814,1090.355591 261.834442,1095.581177 
	C261.616638,1106.920898 267.563324,1116.047241 271.591766,1125.863770 
	C273.965302,1131.647583 276.478302,1137.435059 279.597534,1142.834473 
	C282.591187,1148.016479 285.535461,1153.190063 288.136230,1158.584839 
	C290.577606,1163.649048 293.456848,1168.500488 295.976440,1173.529175 
	C297.366791,1176.303955 298.537598,1176.584351 300.623291,1174.095093 
	C303.462799,1170.706299 306.606293,1167.572266 309.978760,1164.300049 
	C306.395325,1169.377686 302.452545,1174.484131 297.932434,1180.338379 
	C295.432678,1176.125732 292.898590,1172.484497 290.994110,1168.539429 
	C281.466980,1148.804321 271.945923,1129.062256 262.815826,1109.142456 
	C260.935303,1105.039673 259.869141,1100.160034 259.916718,1095.654175 
	C260.050385,1083.003662 269.703369,1077.208374 281.231232,1082.506348 
	C283.908081,1083.736572 286.231537,1085.735840 288.897125,1087.666748 
z"/>
<path fill="#AF6658" opacity="1.000000" stroke="none" 
	d="
M203.971649,77.971191 
	C209.664108,74.446854 215.695236,72.707748 221.713943,76.664192 
	C228.182587,80.916405 229.112915,87.804131 227.433090,94.491539 
	C225.581467,101.862999 222.950211,109.171715 219.646530,116.019501 
	C210.980743,133.981812 201.778732,151.685806 192.740799,169.467529 
	C192.001953,170.921204 190.886108,172.183273 189.606827,174.020721 
	C187.886673,171.792725 186.406769,169.875900 184.894226,167.558060 
	C184.861588,167.157043 185.017700,166.987488 185.334930,167.165009 
	C187.955185,169.023422 190.527115,170.514374 192.338364,167.096191 
	C197.968552,156.471024 203.440643,145.759903 208.825424,135.007675 
	C211.787933,129.092178 214.688110,123.123802 217.190796,117.005165 
	C220.296692,109.411797 224.130951,101.844650 225.534927,93.892639 
	C227.478745,82.882927 222.784805,74.337585 209.044373,77.463089 
	C207.437088,77.828697 205.767227,77.919167 204.087753,78.095627 
	C204.049133,78.054077 203.971649,77.971191 203.971649,77.971191 
z"/>
<path fill="#AF6658" opacity="1.000000" stroke="none" 
	d="
M168.410110,148.582474 
	C159.892639,137.164856 150.749878,126.141975 143.168701,114.133263 
	C140.179871,109.398880 139.121445,102.256226 139.887421,96.574669 
	C141.817612,82.257668 155.014267,77.751686 166.124817,86.881233 
	C167.787491,88.247459 169.292328,89.805756 170.940781,91.635025 
	C171.011368,91.994850 170.930542,92.095383 170.572357,92.060677 
	C168.594452,90.970474 166.884781,90.029015 165.373016,88.836655 
	C161.815460,86.030746 158.314178,83.282822 153.304688,84.377853 
	C145.225037,86.143990 139.931046,94.924805 141.241608,103.424751 
	C142.833420,113.748749 149.288513,121.255936 155.126831,129.181473 
	C159.748947,135.456009 164.397079,141.711380 168.872620,148.121796 
	C168.711594,148.268311 168.410110,148.582474 168.410110,148.582474 
z"/>
<path fill="#AF6658" opacity="1.000000" stroke="none" 
	d="
M342.875031,1092.698242 
	C339.283508,1092.004639 335.584534,1090.829468 331.800598,1090.088135 
	C330.507721,1089.834961 328.615784,1090.233643 327.656860,1091.080811 
	C322.256927,1095.851562 316.814453,1100.619507 311.871674,1105.847168 
	C308.264954,1109.661743 306.975800,1109.912598 304.245056,1105.120850 
	C305.018280,1105.509399 305.869629,1106.250244 306.842163,1107.096436 
	C311.463348,1102.572266 315.950806,1097.999756 320.633118,1093.636108 
	C328.129120,1086.650024 335.963379,1086.276855 342.875031,1092.698242 
z"/>
<path fill="#AF6658" opacity="1.000000" stroke="none" 
	d="
M338.597473,1130.112793 
	C338.639313,1128.889893 338.581665,1127.227295 339.354401,1126.173218 
	C346.669067,1116.195801 348.517731,1105.642700 343.190826,1093.778320 
	C348.792908,1099.289185 350.060608,1106.345459 347.267487,1113.665283 
	C345.103607,1119.336060 341.722931,1124.542603 338.597473,1130.112793 
z"/>
<path fill="#AF6658" opacity="1.000000" stroke="none" 
	d="
M177.488419,98.578667 
	C178.550842,99.323120 179.613266,100.067574 179.730682,100.149834 
	C187.825806,92.578712 195.560410,85.344788 203.633331,78.041031 
	C203.971649,77.971191 204.049133,78.054077 203.997757,78.420578 
	C203.707947,79.217255 203.567917,79.764206 203.216537,80.060371 
	C196.073334,86.081253 188.960861,92.066261 184.463715,100.576317 
	C182.803085,103.718758 179.134750,102.808815 177.114761,98.900993 
	C177.240219,98.794601 177.488419,98.578667 177.488419,98.578667 
z"/>
<path fill="#AF6658" opacity="1.000000" stroke="none" 
	d="
M321.471130,1152.046875 
	C322.737946,1149.473633 323.999664,1146.514771 325.915314,1144.067871 
	C329.619110,1139.336914 333.691528,1134.894653 337.959717,1130.268555 
	C332.792694,1137.433838 327.277100,1144.663086 321.471130,1152.046875 
z"/>
<path fill="#AF6658" opacity="1.000000" stroke="none" 
	d="
M184.784851,167.243027 
	C179.394653,161.262894 174.081177,155.196793 168.588898,148.856567 
	C168.410110,148.582474 168.711594,148.268311 169.161469,148.295685 
	C172.180374,150.621826 175.107758,152.633972 177.231293,155.289032 
	C180.145935,158.933243 182.451263,163.064774 185.017700,166.987488 
	C185.017700,166.987488 184.861588,167.157043 184.784851,167.243027 
z"/>
<path fill="#AF6658" opacity="1.000000" stroke="none" 
	d="
M304.225250,1104.377930 
	C299.278015,1102.699951 297.732422,1097.758179 295.034668,1093.398926 
	C298.038910,1096.716797 301.090424,1100.381958 304.225250,1104.377930 
z"/>
<path fill="#AF6658" opacity="1.000000" stroke="none" 
	d="
M312.308990,1162.631592 
	C312.590973,1158.058105 315.078247,1154.849121 319.894226,1153.208008 
	C317.709717,1156.328979 315.154358,1159.413452 312.308990,1162.631592 
z"/>
<path fill="#AF6658" opacity="1.000000" stroke="none" 
	d="
M172.084229,92.917480 
	C173.312836,94.089844 174.541443,95.262207 175.850708,96.754395 
	C175.931366,97.074219 175.887512,97.120064 175.526917,97.073479 
	C174.078445,95.707550 172.990540,94.388206 171.949326,93.032562 
	C171.996002,92.996254 172.084229,92.917480 172.084229,92.917480 
z"/>
<path fill="#AF6658" opacity="1.000000" stroke="none" 
	d="
M294.854980,1092.707275 
	C293.702057,1092.157715 292.447449,1091.304077 291.241455,1090.076416 
	C292.444458,1090.602661 293.598846,1091.502808 294.854980,1092.707275 
z"/>
<path fill="#AF6658" opacity="1.000000" stroke="none" 
	d="
M291.133789,1089.447754 
	C290.551300,1089.342651 289.838562,1088.969238 289.082794,1088.257812 
	C289.694366,1088.339722 290.348969,1088.759521 291.133789,1089.447754 
z"/>
<path fill="#AF6658" opacity="1.000000" stroke="none" 
	d="
M175.954010,97.052017 
	C176.387344,97.389145 176.798035,97.748474 177.348572,98.343239 
	C177.488419,98.578667 177.240219,98.794601 176.893219,98.725784 
	C176.326630,98.144669 176.107071,97.632370 175.887512,97.120064 
	C175.887512,97.120064 175.931366,97.074219 175.954010,97.052017 
z"/>
<path fill="#AF6658" opacity="1.000000" stroke="none" 
	d="
M320.415955,1153.138794 
	C320.332001,1152.922607 320.509918,1152.614258 320.941956,1152.201660 
	C321.023285,1152.413696 320.850525,1152.730225 320.415955,1153.138794 
z"/>
<path fill="#AF6658" opacity="1.000000" stroke="none" 
	d="
M310.485107,1164.185791 
	C310.423401,1163.934448 310.657043,1163.616821 311.188904,1163.225586 
	C311.251587,1163.474487 311.016052,1163.796997 310.485107,1164.185791 
z"/>
<path fill="#AF6658" opacity="1.000000" stroke="none" 
	d="
M171.054901,91.947281 
	C171.438217,91.981392 171.708298,92.165375 171.996445,92.684578 
	C172.084229,92.917480 171.996002,92.996254 171.759109,92.900452 
	C171.282669,92.603539 171.085449,92.367119 170.930542,92.095383 
	C170.930542,92.095383 171.011368,91.994850 171.054901,91.947281 
z"/>
<path fill="#C56149" opacity="1.000000" stroke="none" 
	d="
M170.572357,92.060677 
	C171.085449,92.367119 171.282669,92.603539 171.712433,92.936760 
	C172.990540,94.388206 174.078445,95.707550 175.526917,97.073479 
	C176.107071,97.632370 176.326630,98.144669 176.767761,98.832176 
	C179.134750,102.808815 182.803085,103.718758 184.463715,100.576317 
	C188.960861,92.066261 196.073334,86.081253 203.216537,80.060371 
	C203.567917,79.764206 203.707947,79.217255 204.036377,78.462128 
	C205.767227,77.919167 207.437088,77.828697 209.044373,77.463089 
	C222.784805,74.337585 227.478745,82.882927 225.534927,93.892639 
	C224.130951,101.844650 220.296692,109.411797 217.190796,117.005165 
	C214.688110,123.123802 211.787933,129.092178 208.825424,135.007675 
	C203.440643,145.759903 197.968552,156.471024 192.338364,167.096191 
	C190.527115,170.514374 187.955185,169.023422 185.334930,167.165009 
	C182.451263,163.064774 180.145935,158.933243 177.231293,155.289032 
	C175.107758,152.633972 172.180374,150.621826 169.322510,148.149170 
	C164.397079,141.711380 159.748947,135.456009 155.126831,129.181473 
	C149.288513,121.255936 142.833420,113.748749 141.241608,103.424751 
	C139.931046,94.924805 145.225037,86.143990 153.304688,84.377853 
	C158.314178,83.282822 161.815460,86.030746 165.373016,88.836655 
	C166.884781,90.029015 168.594452,90.970474 170.572357,92.060677 
z"/>
</svg>