<svg width="501" height="910" viewBox="0 0 501 910" fill="none" xmlns="http://www.w3.org/2000/svg">
<rect x="468.821" y="307.506" width="41.1213" height="23.1308" rx="11.5654" transform="rotate(-180 468.821 307.506)" fill="#CCCCCC"/>
<rect x="452.656" y="295.609" width="6.60879" height="6.60879" rx="2.57008" transform="rotate(-45 452.656 295.609)" fill="white"/>
<path d="M62.2256 287.324H63.7362V296.951H62.2256V287.324ZM63.3176 291.291H66.1568V292.547H63.3176V291.291ZM51.6332 288.252H53.1256V290.763H57.7666V288.252H59.259V295.932H51.6332V288.252ZM53.1256 291.965V294.713H57.7666V291.965H53.1256ZM53.435 297.861H63.8636V299.081H54.9456V303.212H53.435V297.861ZM53.435 302.339H64.173V303.558H53.435V302.339ZM67.3566 295.987H82.226V297.206H67.3566V295.987ZM69.2676 302.193H80.5698V303.431H69.2676V302.193ZM69.2676 298.662H70.7782V302.557H69.2676V298.662ZM74.7822 287.888C75.9591 287.888 76.9783 288.021 77.8398 288.288C78.7134 288.543 79.3868 288.919 79.86 289.417C80.3332 289.902 80.5698 290.484 80.5698 291.164C80.5698 291.843 80.3332 292.432 79.86 292.929C79.3868 293.427 78.7134 293.809 77.8398 294.076C76.9783 294.331 75.9591 294.458 74.7822 294.458C73.6052 294.458 72.58 294.331 71.7064 294.076C70.8449 293.809 70.1776 293.427 69.7044 292.929C69.2312 292.432 68.9946 291.843 68.9946 291.164C68.9946 290.484 69.2312 289.902 69.7044 289.417C70.1776 288.919 70.8449 288.543 71.7064 288.288C72.58 288.021 73.6052 287.888 74.7822 287.888ZM74.7822 289.107C73.9328 289.107 73.1866 289.192 72.5436 289.362C71.9126 289.52 71.4212 289.756 71.0694 290.072C70.7175 290.375 70.5416 290.739 70.5416 291.164C70.5416 291.588 70.7175 291.959 71.0694 292.274C71.4212 292.577 71.9126 292.814 72.5436 292.984C73.1866 293.142 73.9328 293.22 74.7822 293.22C75.6558 293.22 76.408 293.142 77.039 292.984C77.6699 292.814 78.1552 292.577 78.495 292.274C78.8468 291.959 79.0228 291.588 79.0228 291.164C79.0228 290.739 78.8468 290.375 78.495 290.072C78.1552 289.756 77.6699 289.52 77.039 289.362C76.408 289.192 75.6558 289.107 74.7822 289.107ZM99.3301 287.324H100.841V299.572H99.3301V287.324ZM87.7913 288.652H96.4545V289.89H87.7913V288.652ZM87.5183 297.097L87.3363 295.823C88.2463 295.823 89.2473 295.817 90.3393 295.805C91.4435 295.781 92.5658 295.738 93.7063 295.677C94.8469 295.617 95.9328 295.532 96.9641 295.423L97.0369 296.551C95.9935 296.721 94.9015 296.842 93.7609 296.915C92.6325 296.988 91.5284 297.036 90.4485 297.061C89.3808 297.085 88.4041 297.097 87.5183 297.097ZM89.4111 289.726H90.8853V296.041H89.4111V289.726ZM93.3605 289.726H94.8165V296.041H93.3605V289.726ZM96.5819 290.454H100.113V291.692H96.5819V290.454ZM96.5819 293.584H100.113V294.84H96.5819V293.584ZM90.3029 302.193H101.278V303.431H90.3029V302.193ZM90.3029 298.571H91.8135V302.976H90.3029V298.571ZM108.047 289.69H109.284V292.347C109.284 293.22 109.163 294.082 108.92 294.931C108.677 295.768 108.338 296.563 107.901 297.315C107.476 298.056 106.979 298.711 106.409 299.281C105.838 299.851 105.226 300.3 104.57 300.628L103.697 299.427C104.291 299.135 104.849 298.741 105.371 298.244C105.905 297.746 106.372 297.176 106.773 296.533C107.173 295.89 107.482 295.21 107.701 294.494C107.931 293.779 108.047 293.063 108.047 292.347V289.69ZM108.356 289.69H109.575V292.347C109.575 293.038 109.685 293.73 109.903 294.422C110.133 295.101 110.449 295.744 110.849 296.351C111.262 296.945 111.729 297.473 112.251 297.934C112.785 298.395 113.355 298.759 113.962 299.026L113.124 300.227C112.457 299.912 111.832 299.487 111.25 298.953C110.667 298.42 110.158 297.807 109.721 297.115C109.296 296.411 108.963 295.659 108.72 294.858C108.477 294.045 108.356 293.208 108.356 292.347V289.69ZM104.225 289.016H113.416V290.272H104.225V289.016ZM115.654 287.324H117.165V303.795H115.654V287.324ZM136.125 287.324H137.581V303.795H136.125V287.324ZM133.468 293.948H136.635V295.186H133.468V293.948ZM129.227 289.453H130.665C130.665 290.509 130.562 291.54 130.356 292.547C130.15 293.554 129.81 294.525 129.337 295.459C128.876 296.381 128.251 297.249 127.462 298.062C126.673 298.862 125.691 299.596 124.514 300.264L123.64 299.19C125.023 298.413 126.121 297.534 126.934 296.551C127.747 295.568 128.33 294.507 128.681 293.366C129.045 292.213 129.227 291 129.227 289.726V289.453ZM124.277 289.453H129.719V290.691H124.277V289.453ZM132.485 287.76H133.905V302.976H132.485V287.76ZM146.698 287.906H148.027V288.834C148.027 289.465 147.905 290.06 147.663 290.618C147.42 291.164 147.086 291.667 146.662 292.128C146.249 292.589 145.764 293.002 145.206 293.366C144.648 293.73 144.041 294.033 143.386 294.276C142.743 294.519 142.081 294.695 141.402 294.804L140.783 293.584C141.39 293.499 141.978 293.354 142.548 293.148C143.131 292.941 143.671 292.693 144.168 292.401C144.666 292.098 145.103 291.758 145.479 291.382C145.867 291.006 146.164 290.606 146.37 290.181C146.589 289.744 146.698 289.295 146.698 288.834V287.906ZM146.953 287.906H148.263V288.834C148.263 289.295 148.372 289.738 148.591 290.163C148.809 290.587 149.107 290.988 149.483 291.364C149.871 291.74 150.314 292.08 150.811 292.383C151.309 292.687 151.843 292.941 152.413 293.148C152.995 293.354 153.584 293.499 154.178 293.584L153.578 294.804C152.898 294.695 152.237 294.519 151.594 294.276C150.951 294.021 150.344 293.712 149.774 293.348C149.216 292.984 148.724 292.571 148.3 292.11C147.887 291.649 147.56 291.146 147.317 290.6C147.074 290.041 146.953 289.453 146.953 288.834V287.906ZM146.698 297.534H148.19V303.795H146.698V297.534ZM140.037 296.587H154.906V297.843H140.037V296.587ZM167.351 297.716C168.528 297.716 169.541 297.837 170.391 298.08C171.252 298.322 171.913 298.668 172.374 299.117C172.848 299.566 173.084 300.112 173.084 300.755C173.084 301.374 172.848 301.914 172.374 302.375C171.913 302.824 171.252 303.164 170.391 303.394C169.541 303.637 168.528 303.758 167.351 303.758C166.186 303.758 165.173 303.637 164.312 303.394C163.45 303.164 162.789 302.824 162.328 302.375C161.867 301.914 161.636 301.374 161.636 300.755C161.636 300.112 161.867 299.566 162.328 299.117C162.789 298.668 163.45 298.322 164.312 298.08C165.173 297.837 166.186 297.716 167.351 297.716ZM167.351 298.881C166.49 298.881 165.744 298.959 165.113 299.117C164.482 299.263 163.99 299.475 163.638 299.754C163.299 300.033 163.129 300.367 163.129 300.755C163.129 301.119 163.299 301.441 163.638 301.72C163.99 301.999 164.482 302.211 165.113 302.357C165.744 302.502 166.49 302.575 167.351 302.575C168.225 302.575 168.977 302.502 169.608 302.357C170.239 302.211 170.724 301.999 171.064 301.72C171.416 301.441 171.592 301.119 171.592 300.755C171.592 300.367 171.416 300.033 171.064 299.754C170.724 299.475 170.239 299.263 169.608 299.117C168.977 298.959 168.225 298.881 167.351 298.881ZM161.746 288.161H172.338V289.38H161.746V288.161ZM159.998 294.986H174.831V296.223H159.998V294.986ZM166.095 291.819H167.588V295.35H166.095V291.819ZM171.464 288.161H172.957V289.544C172.957 290.211 172.939 290.897 172.902 291.601C172.866 292.292 172.732 293.063 172.502 293.912L171.028 293.748C171.246 292.899 171.373 292.147 171.41 291.491C171.446 290.836 171.464 290.187 171.464 289.544V288.161ZM188.862 287.324H190.318V303.795H188.862V287.324ZM186.205 293.948H189.372V295.186H186.205V293.948ZM181.964 289.453H183.402C183.402 290.509 183.299 291.54 183.093 292.547C182.887 293.554 182.547 294.525 182.074 295.459C181.613 296.381 180.988 297.249 180.199 298.062C179.41 298.862 178.428 299.596 177.251 300.264L176.377 299.19C177.76 298.413 178.858 297.534 179.671 296.551C180.484 295.568 181.067 294.507 181.418 293.366C181.782 292.213 181.964 291 181.964 289.726V289.453ZM177.014 289.453H182.456V290.691H177.014V289.453ZM185.222 287.76H186.642V302.976H185.222V287.76ZM203.93 287.324H205.423V303.795H203.93V287.324ZM205.077 294.094H208.116V295.368H205.077V294.094ZM192.683 289.963H202.383V291.2H192.683V289.963ZM197.615 292.547C198.392 292.547 199.077 292.711 199.672 293.038C200.278 293.366 200.751 293.815 201.091 294.385C201.443 294.943 201.619 295.592 201.619 296.333C201.619 297.073 201.443 297.728 201.091 298.298C200.751 298.868 200.278 299.317 199.672 299.645C199.077 299.96 198.392 300.118 197.615 300.118C196.838 300.118 196.147 299.96 195.54 299.645C194.946 299.317 194.472 298.868 194.121 298.298C193.769 297.728 193.593 297.073 193.593 296.333C193.593 295.592 193.769 294.943 194.121 294.385C194.472 293.815 194.946 293.366 195.54 293.038C196.147 292.711 196.838 292.547 197.615 292.547ZM197.615 293.803C197.118 293.803 196.675 293.912 196.286 294.13C195.898 294.349 195.589 294.646 195.358 295.022C195.14 295.398 195.031 295.835 195.031 296.333C195.031 296.83 195.14 297.273 195.358 297.661C195.589 298.037 195.898 298.335 196.286 298.553C196.675 298.759 197.118 298.862 197.615 298.862C198.1 298.862 198.537 298.759 198.925 298.553C199.314 298.335 199.617 298.037 199.835 297.661C200.066 297.273 200.181 296.83 200.181 296.333C200.181 295.835 200.066 295.398 199.835 295.022C199.617 294.646 199.314 294.349 198.925 294.13C198.537 293.912 198.1 293.803 197.615 293.803ZM196.832 287.524H198.343V290.509H196.832V287.524ZM221.164 287.324H222.675V303.795H221.164V287.324ZM216.341 289.107H217.834C217.834 290.296 217.688 291.443 217.397 292.547C217.118 293.651 216.675 294.701 216.068 295.696C215.462 296.678 214.673 297.594 213.702 298.444C212.732 299.293 211.555 300.051 210.172 300.719L209.371 299.499C210.96 298.735 212.271 297.843 213.302 296.824C214.333 295.805 215.098 294.67 215.595 293.421C216.093 292.159 216.341 290.8 216.341 289.344V289.107ZM210.135 289.107H216.978V290.327H210.135V289.107Z" fill="#1B1B1B"/>
<path d="M61.8413 130.246H63.1631V141.043H61.8413V130.246ZM62.749 134.976H65.2811V136.075H62.749V134.976ZM52.0156 131.998H60.5195V133.065H52.0156V131.998ZM56.2676 133.845C56.947 133.845 57.5469 133.962 58.0671 134.196C58.5873 134.419 58.9908 134.732 59.2774 135.135C59.564 135.528 59.7074 135.995 59.7074 136.537C59.7074 137.078 59.564 137.551 59.2774 137.954C58.9908 138.347 58.5873 138.655 58.0671 138.878C57.5469 139.101 56.947 139.212 56.2676 139.212C55.5881 139.212 54.9883 139.101 54.4681 138.878C53.9478 138.655 53.5391 138.347 53.2418 137.954C52.9552 137.551 52.8119 137.078 52.8119 136.537C52.8119 135.995 52.9552 135.528 53.2418 135.135C53.5391 134.732 53.9478 134.419 54.4681 134.196C54.9883 133.962 55.5881 133.845 56.2676 133.845ZM56.2676 134.881C55.62 134.881 55.0944 135.034 54.691 135.342C54.2876 135.64 54.0859 136.038 54.0859 136.537C54.0859 137.036 54.2876 137.434 54.691 137.731C55.0944 138.028 55.62 138.177 56.2676 138.177C56.9258 138.177 57.4513 138.028 57.8441 137.731C58.2476 137.434 58.4493 137.036 58.4493 136.537C58.4493 136.038 58.2476 135.64 57.8441 135.342C57.4513 135.034 56.9258 134.881 56.2676 134.881ZM55.6147 130.246H56.9364V132.54H55.6147V130.246ZM54.1973 143.241H63.8001V144.324H54.1973V143.241ZM54.1973 140.184H55.5032V143.687H54.1973V140.184ZM76.2342 134.291H80.3587V135.374H76.2342V134.291ZM79.9606 130.246H81.2824V140.9H79.9606V130.246ZM72.03 143.241H81.6168V144.324H72.03V143.241ZM72.03 139.865H73.3517V143.783H72.03V139.865ZM70.1349 131.202H71.4567V133.734H75.3424V131.202H76.6482V138.448H70.1349V131.202ZM71.4567 134.769V137.381H75.3424V134.769H71.4567ZM94.2738 132.842H97.9684V133.925H94.2738V132.842ZM97.4111 130.23H98.7328V137.667H97.4111V130.23ZM89.4645 138.4H98.7328V141.856H90.7863V144.037H89.4963V140.852H97.427V139.451H89.4645V138.4ZM89.4963 143.384H99.2584V144.451H89.4963V143.384ZM90.4837 130.692H91.5507V132.03C91.5507 132.911 91.3861 133.734 91.057 134.498C90.7279 135.252 90.266 135.905 89.6715 136.457C89.077 136.999 88.3763 137.413 87.5694 137.699L86.8687 136.648C87.5906 136.404 88.2223 136.054 88.7638 135.597C89.3052 135.141 89.7246 134.61 90.0219 134.005C90.3297 133.389 90.4837 132.731 90.4837 132.03V130.692ZM90.6907 130.692H91.7736V132.03C91.7736 132.497 91.8585 132.954 92.0284 133.399C92.1983 133.835 92.4371 134.244 92.745 134.626C93.0635 135.008 93.4404 135.348 93.8757 135.645C94.311 135.932 94.7887 136.16 95.309 136.33L94.6083 137.365C93.8332 137.089 93.1485 136.691 92.5539 136.17C91.97 135.64 91.5135 135.024 91.1844 134.323C90.8553 133.612 90.6907 132.847 90.6907 132.03V130.692ZM108.924 133.973H112.156V135.072H108.924V133.973ZM111.758 130.23H113.08V138.814H111.758V130.23ZM108.334 139.26C109.332 139.26 110.187 139.366 110.898 139.578C111.62 139.791 112.172 140.099 112.554 140.502C112.937 140.895 113.128 141.378 113.128 141.951C113.128 142.801 112.698 143.459 111.838 143.926C110.989 144.393 109.821 144.627 108.334 144.627C106.848 144.627 105.675 144.393 104.815 143.926C103.966 143.459 103.541 142.801 103.541 141.951C103.541 141.378 103.732 140.895 104.114 140.502C104.507 140.099 105.059 139.791 105.77 139.578C106.492 139.366 107.347 139.26 108.334 139.26ZM108.334 140.295C107.612 140.295 106.991 140.359 106.471 140.486C105.951 140.614 105.547 140.799 105.261 141.043C104.985 141.288 104.847 141.59 104.847 141.951C104.847 142.291 104.985 142.583 105.261 142.827C105.547 143.071 105.951 143.262 106.471 143.4C106.991 143.528 107.612 143.591 108.334 143.591C109.067 143.591 109.688 143.528 110.198 143.4C110.718 143.262 111.116 143.071 111.392 142.827C111.679 142.583 111.822 142.291 111.822 141.951C111.822 141.59 111.679 141.288 111.392 141.043C111.116 140.799 110.718 140.614 110.198 140.486C109.688 140.359 109.067 140.295 108.334 140.295ZM104.895 131.696H105.977V132.858C105.977 133.739 105.808 134.567 105.468 135.342C105.139 136.107 104.672 136.781 104.066 137.365C103.461 137.938 102.761 138.379 101.964 138.687L101.28 137.636C101.821 137.444 102.309 137.184 102.745 136.855C103.191 136.526 103.573 136.149 103.891 135.725C104.22 135.3 104.47 134.843 104.64 134.355C104.81 133.867 104.895 133.368 104.895 132.858V131.696ZM105.149 131.696H106.232V132.842C106.232 133.458 106.376 134.058 106.662 134.642C106.949 135.226 107.358 135.74 107.888 136.186C108.419 136.632 109.03 136.983 109.72 137.237L109.051 138.288C108.265 138.002 107.581 137.588 106.997 137.046C106.413 136.494 105.956 135.857 105.627 135.135C105.309 134.413 105.149 133.649 105.149 132.842V131.696ZM101.694 131.281H109.385V132.364H101.694V131.281ZM125.437 130.246H126.758V141.043H125.437V130.246ZM126.344 134.976H128.876V136.075H126.344V134.976ZM115.611 131.998H124.115V133.065H115.611V131.998ZM119.863 133.845C120.542 133.845 121.142 133.962 121.662 134.196C122.183 134.419 122.586 134.732 122.873 135.135C123.159 135.528 123.303 135.995 123.303 136.537C123.303 137.078 123.159 137.551 122.873 137.954C122.586 138.347 122.183 138.655 121.662 138.878C121.142 139.101 120.542 139.212 119.863 139.212C119.183 139.212 118.584 139.101 118.063 138.878C117.543 138.655 117.134 138.347 116.837 137.954C116.55 137.551 116.407 137.078 116.407 136.537C116.407 135.995 116.55 135.528 116.837 135.135C117.134 134.732 117.543 134.419 118.063 134.196C118.584 133.962 119.183 133.845 119.863 133.845ZM119.863 134.881C119.215 134.881 118.69 135.034 118.286 135.342C117.883 135.64 117.681 136.038 117.681 136.537C117.681 137.036 117.883 137.434 118.286 137.731C118.69 138.028 119.215 138.177 119.863 138.177C120.521 138.177 121.047 138.028 121.439 137.731C121.843 137.434 122.045 137.036 122.045 136.537C122.045 136.038 121.843 135.64 121.439 135.342C121.047 135.034 120.521 134.881 119.863 134.881ZM119.21 130.246H120.532V132.54H119.21V130.246ZM117.793 143.241H127.395V144.324H117.793V143.241ZM117.793 140.184H119.098V143.687H117.793V140.184ZM142.887 130.23H144.209V138.066H142.887V130.23ZM143.843 133.543H146.327V134.658H143.843V133.543ZM138.874 131.09H140.307C140.307 132.301 140.036 133.378 139.495 134.323C138.954 135.268 138.179 136.064 137.17 136.712C136.172 137.36 134.967 137.858 133.555 138.209L133.061 137.126C134.303 136.818 135.354 136.404 136.214 135.884C137.085 135.364 137.743 134.753 138.189 134.052C138.646 133.352 138.874 132.587 138.874 131.759V131.09ZM133.698 131.09H139.686V132.173H133.698V131.09ZM134.59 138.814H135.832V140.534H138.317V138.814H139.527V144.436H134.59V138.814ZM135.832 141.553V143.4H138.317V141.553H135.832ZM142.107 138.655H143.142V139.865C143.142 140.481 143.036 141.097 142.823 141.712C142.622 142.328 142.314 142.885 141.9 143.384C141.486 143.883 140.96 144.282 140.323 144.579L139.606 143.576C140.169 143.331 140.631 143.008 140.992 142.604C141.364 142.19 141.64 141.744 141.82 141.266C142.011 140.789 142.107 140.322 142.107 139.865V138.655ZM142.361 138.655H143.381V139.817C143.381 140.284 143.471 140.762 143.651 141.251C143.843 141.739 144.119 142.19 144.48 142.604C144.851 143.008 145.308 143.331 145.849 143.576L145.148 144.579C144.511 144.292 143.986 143.899 143.572 143.4C143.158 142.891 142.85 142.328 142.648 141.712C142.457 141.086 142.361 140.454 142.361 139.817V138.655ZM147.377 137.811H160.387V138.878H147.377V137.811ZM149.049 143.241H158.938V144.324H149.049V143.241ZM149.049 140.152H150.371V143.56H149.049V140.152ZM153.874 130.724C154.904 130.724 155.796 130.841 156.549 131.074C157.314 131.297 157.903 131.627 158.317 132.062C158.731 132.486 158.938 132.996 158.938 133.591C158.938 134.185 158.731 134.7 158.317 135.135C157.903 135.571 157.314 135.905 156.549 136.139C155.796 136.362 154.904 136.473 153.874 136.473C152.844 136.473 151.947 136.362 151.183 136.139C150.429 135.905 149.845 135.571 149.431 135.135C149.017 134.7 148.81 134.185 148.81 133.591C148.81 132.996 149.017 132.486 149.431 132.062C149.845 131.627 150.429 131.297 151.183 131.074C151.947 130.841 152.844 130.724 153.874 130.724ZM153.874 131.791C153.131 131.791 152.478 131.865 151.915 132.014C151.363 132.152 150.933 132.359 150.625 132.635C150.317 132.901 150.163 133.219 150.163 133.591C150.163 133.962 150.317 134.286 150.625 134.562C150.933 134.827 151.363 135.034 151.915 135.183C152.478 135.321 153.131 135.39 153.874 135.39C154.638 135.39 155.297 135.321 155.849 135.183C156.401 135.034 156.825 134.827 157.123 134.562C157.431 134.286 157.585 133.962 157.585 133.591C157.585 133.219 157.431 132.901 157.123 132.635C156.825 132.359 156.401 132.152 155.849 132.014C155.297 131.865 154.638 131.791 153.874 131.791ZM170.656 130.74H171.818V131.552C171.818 132.104 171.712 132.624 171.5 133.113C171.287 133.591 170.995 134.031 170.624 134.435C170.263 134.838 169.838 135.199 169.35 135.518C168.861 135.836 168.331 136.101 167.757 136.314C167.195 136.526 166.616 136.68 166.021 136.776L165.48 135.709C166.011 135.634 166.526 135.507 167.025 135.326C167.534 135.146 168.007 134.928 168.442 134.673C168.877 134.408 169.26 134.111 169.589 133.782C169.928 133.453 170.188 133.102 170.369 132.731C170.56 132.348 170.656 131.956 170.656 131.552V130.74ZM170.879 130.74H172.025V131.552C172.025 131.956 172.121 132.343 172.312 132.715C172.503 133.086 172.763 133.437 173.092 133.766C173.432 134.095 173.819 134.392 174.255 134.658C174.69 134.923 175.157 135.146 175.656 135.326C176.166 135.507 176.681 135.634 177.201 135.709L176.675 136.776C176.081 136.68 175.502 136.526 174.939 136.314C174.377 136.091 173.846 135.82 173.347 135.502C172.859 135.183 172.429 134.822 172.057 134.419C171.696 134.015 171.409 133.575 171.197 133.097C170.985 132.609 170.879 132.094 170.879 131.552V130.74ZM170.656 139.164H171.961V144.643H170.656V139.164ZM164.827 138.336H177.838V139.435H164.827V138.336ZM186.866 133.973H190.099V135.072H186.866V133.973ZM189.701 130.23H191.022V138.814H189.701V130.23ZM186.277 139.26C187.275 139.26 188.129 139.366 188.841 139.578C189.563 139.791 190.115 140.099 190.497 140.502C190.879 140.895 191.07 141.378 191.07 141.951C191.07 142.801 190.64 143.459 189.78 143.926C188.931 144.393 187.763 144.627 186.277 144.627C184.79 144.627 183.617 144.393 182.757 143.926C181.908 143.459 181.483 142.801 181.483 141.951C181.483 141.378 181.674 140.895 182.057 140.502C182.449 140.099 183.002 139.791 183.713 139.578C184.435 139.366 185.289 139.26 186.277 139.26ZM186.277 140.295C185.555 140.295 184.934 140.359 184.414 140.486C183.893 140.614 183.49 140.799 183.203 141.043C182.927 141.288 182.789 141.59 182.789 141.951C182.789 142.291 182.927 142.583 183.203 142.827C183.49 143.071 183.893 143.262 184.414 143.4C184.934 143.528 185.555 143.591 186.277 143.591C187.009 143.591 187.63 143.528 188.14 143.4C188.66 143.262 189.058 143.071 189.334 142.827C189.621 142.583 189.764 142.291 189.764 141.951C189.764 141.59 189.621 141.288 189.334 141.043C189.058 140.799 188.66 140.614 188.14 140.486C187.63 140.359 187.009 140.295 186.277 140.295ZM182.837 131.696H183.92V132.858C183.92 133.739 183.75 134.567 183.41 135.342C183.081 136.107 182.614 136.781 182.009 137.365C181.404 137.938 180.703 138.379 179.907 138.687L179.222 137.636C179.763 137.444 180.252 137.184 180.687 136.855C181.133 136.526 181.515 136.149 181.834 135.725C182.163 135.3 182.412 134.843 182.582 134.355C182.752 133.867 182.837 133.368 182.837 132.858V131.696ZM183.092 131.696H184.175V132.842C184.175 133.458 184.318 134.058 184.605 134.642C184.891 135.226 185.3 135.74 185.831 136.186C186.362 136.632 186.972 136.983 187.662 137.237L186.993 138.288C186.208 138.002 185.523 137.588 184.939 137.046C184.355 136.494 183.899 135.857 183.57 135.135C183.251 134.413 183.092 133.649 183.092 132.842V131.696ZM179.636 131.281H187.328V132.364H179.636V131.281ZM203.379 130.183H204.701V138.145H203.379V130.183ZM204.127 133.654H206.835V134.753H204.127V133.654ZM195.544 138.878H204.701V142.095H196.882V143.83H195.592V141.139H203.395V139.865H195.544V138.878ZM195.592 143.464H205.21V144.483H195.592V143.464ZM193.553 131.536H202.057V132.571H193.553V131.536ZM197.805 133.208C198.846 133.208 199.679 133.421 200.305 133.845C200.932 134.259 201.245 134.833 201.245 135.565C201.245 136.287 200.932 136.861 200.305 137.285C199.679 137.71 198.846 137.922 197.805 137.922C196.754 137.922 195.915 137.71 195.289 137.285C194.663 136.861 194.35 136.287 194.35 135.565C194.35 134.833 194.663 134.259 195.289 133.845C195.915 133.421 196.754 133.208 197.805 133.208ZM197.805 134.18C197.147 134.18 196.616 134.307 196.213 134.562C195.82 134.806 195.624 135.141 195.624 135.565C195.624 135.99 195.82 136.33 196.213 136.584C196.616 136.829 197.147 136.951 197.805 136.951C198.474 136.951 199.005 136.829 199.398 136.584C199.791 136.33 199.987 135.99 199.987 135.565C199.987 135.141 199.791 134.806 199.398 134.562C199.005 134.307 198.474 134.18 197.805 134.18ZM197.152 130.087H198.474V132.253H197.152V130.087ZM216.8 130.74H217.963V131.552C217.963 132.104 217.857 132.624 217.644 133.113C217.432 133.591 217.14 134.031 216.769 134.435C216.408 134.838 215.983 135.199 215.495 135.518C215.006 135.836 214.475 136.101 213.902 136.314C213.339 136.526 212.761 136.68 212.166 136.776L211.625 135.709C212.156 135.634 212.671 135.507 213.169 135.326C213.679 135.146 214.152 134.928 214.587 134.673C215.022 134.408 215.404 134.111 215.733 133.782C216.073 133.453 216.333 133.102 216.514 132.731C216.705 132.348 216.8 131.956 216.8 131.552V130.74ZM217.023 130.74H218.17V131.552C218.17 131.956 218.265 132.343 218.457 132.715C218.648 133.086 218.908 133.437 219.237 133.766C219.577 134.095 219.964 134.392 220.399 134.658C220.835 134.923 221.302 135.146 221.801 135.326C222.31 135.507 222.825 135.634 223.346 135.709L222.82 136.776C222.226 136.68 221.647 136.526 221.084 136.314C220.522 136.091 219.991 135.82 219.492 135.502C219.003 135.183 218.573 134.822 218.202 134.419C217.841 134.015 217.554 133.575 217.342 133.097C217.13 132.609 217.023 132.094 217.023 131.552V130.74ZM216.8 139.164H218.106V144.643H216.8V139.164ZM210.972 138.336H223.983V139.435H210.972V138.336ZM230.063 138.687H231.305V140.47H233.821V138.687H235.047V144.451H230.063V138.687ZM231.305 141.473V143.416H233.821V141.473H231.305ZM237.834 138.591H238.869V139.801C238.869 140.449 238.758 141.086 238.535 141.712C238.312 142.328 237.977 142.885 237.531 143.384C237.096 143.883 236.549 144.276 235.891 144.563L235.222 143.56C235.796 143.315 236.279 142.992 236.671 142.588C237.064 142.185 237.356 141.739 237.547 141.251C237.738 140.762 237.834 140.279 237.834 139.801V138.591ZM238.121 138.591H239.14V139.801C239.14 140.311 239.235 140.815 239.426 141.314C239.628 141.803 239.925 142.243 240.318 142.636C240.711 143.029 241.194 143.337 241.767 143.56L241.083 144.563C240.414 144.287 239.862 143.905 239.426 143.416C238.991 142.928 238.662 142.371 238.439 141.744C238.227 141.118 238.121 140.47 238.121 139.801V138.591ZM235.652 133.607H239.522V134.705H235.652V133.607ZM232.356 130.867C233.067 130.867 233.699 131.011 234.251 131.297C234.814 131.573 235.254 131.961 235.573 132.46C235.891 132.948 236.05 133.522 236.05 134.18C236.05 134.827 235.891 135.406 235.573 135.916C235.254 136.415 234.814 136.807 234.251 137.094C233.699 137.37 233.067 137.508 232.356 137.508C231.634 137.508 230.992 137.37 230.429 137.094C229.877 136.807 229.441 136.415 229.123 135.916C228.804 135.406 228.645 134.827 228.645 134.18C228.645 133.522 228.804 132.948 229.123 132.46C229.441 131.961 229.877 131.573 230.429 131.297C230.992 131.011 231.634 130.867 232.356 130.867ZM232.356 131.966C231.878 131.966 231.453 132.062 231.082 132.253C230.721 132.433 230.434 132.693 230.222 133.033C230.009 133.362 229.903 133.745 229.903 134.18C229.903 134.615 230.009 135.003 230.222 135.342C230.434 135.671 230.721 135.932 231.082 136.123C231.453 136.314 231.878 136.409 232.356 136.409C232.823 136.409 233.237 136.314 233.598 136.123C233.969 135.932 234.261 135.671 234.474 135.342C234.686 135.003 234.792 134.615 234.792 134.18C234.792 133.745 234.686 133.362 234.474 133.033C234.261 132.693 233.969 132.433 233.598 132.253C233.237 132.062 232.823 131.966 232.356 131.966ZM238.949 130.23H240.27V137.858H238.949V130.23ZM244.41 138.878H245.716V140.534H252.77V138.878H254.076V144.451H244.41V138.878ZM245.716 141.569V143.384H252.77V141.569H245.716ZM242.769 136.792H255.78V137.874H242.769V136.792ZM248.598 130.39H249.745V131.043C249.745 131.542 249.638 132.014 249.426 132.46C249.214 132.895 248.922 133.299 248.55 133.67C248.189 134.031 247.765 134.355 247.276 134.642C246.798 134.928 246.278 135.167 245.716 135.358C245.164 135.549 244.59 135.693 243.996 135.788L243.502 134.737C244.022 134.663 244.527 134.546 245.015 134.387C245.514 134.228 245.981 134.036 246.416 133.814C246.852 133.58 247.234 133.32 247.563 133.033C247.892 132.736 248.147 132.423 248.327 132.094C248.508 131.754 248.598 131.404 248.598 131.043V130.39ZM248.821 130.39H249.952V131.043C249.952 131.393 250.042 131.738 250.222 132.078C250.413 132.407 250.674 132.72 251.003 133.017C251.332 133.304 251.709 133.564 252.133 133.798C252.569 134.031 253.03 134.233 253.519 134.403C254.018 134.562 254.522 134.673 255.032 134.737L254.554 135.788C253.959 135.693 253.381 135.549 252.818 135.358C252.266 135.167 251.746 134.928 251.257 134.642C250.78 134.344 250.355 134.01 249.983 133.638C249.623 133.267 249.336 132.863 249.124 132.428C248.922 131.993 248.821 131.531 248.821 131.043V130.39ZM267.595 130.23H268.901V144.643H267.595V130.23ZM258.024 131.648H259.33V140.566H258.024V131.648ZM258.024 139.785H259.203C260.307 139.785 261.427 139.738 262.563 139.642C263.71 139.536 264.888 139.361 266.098 139.117L266.274 140.231C265.021 140.497 263.816 140.683 262.659 140.789C261.501 140.884 260.349 140.932 259.203 140.932H258.024V139.785ZM281.21 130.23H282.532V144.658H281.21V130.23ZM282.229 135.916H284.889V137.014H282.229V135.916ZM272.085 139.945H273.216C274.097 139.945 274.904 139.934 275.636 139.913C276.379 139.881 277.091 139.828 277.77 139.754C278.46 139.679 279.161 139.578 279.872 139.451L280.031 140.582C279.288 140.709 278.566 140.81 277.866 140.884C277.176 140.959 276.454 141.006 275.7 141.028C274.946 141.049 274.118 141.059 273.216 141.059H272.085V139.945ZM272.085 131.632H278.757V132.715H273.391V140.454H272.085V131.632Z" fill="#AAAAAA"/>
<path d="M52.3068 108.433H75.2115V111.382H52.3068V108.433ZM61.9164 102.864H65.52V109.143H61.9164V102.864ZM54.7092 90.9067H72.6999V103.328H54.7092V90.9067ZM69.1236 93.7732H58.2855V100.434H69.1236V93.7732ZM83.6724 90.7702C84.9646 90.7702 86.1021 91.1433 87.0849 91.8895C88.0859 92.6175 88.8685 93.664 89.4327 95.029C90.0151 96.3758 90.3063 97.9683 90.3063 99.8065C90.3063 101.663 90.0151 103.274 89.4327 104.639C88.8685 105.985 88.0859 107.032 87.0849 107.778C86.1021 108.506 84.9646 108.87 83.6724 108.87C82.3802 108.87 81.2336 108.506 80.2326 107.778C79.2316 107.032 78.4399 105.985 77.8575 104.639C77.2933 103.274 77.0112 101.663 77.0112 99.8065C77.0112 97.9683 77.2933 96.3758 77.8575 95.029C78.4399 93.664 79.2316 92.6175 80.2326 91.8895C81.2336 91.1433 82.3802 90.7702 83.6724 90.7702ZM83.6724 94.0735C83.0536 94.0735 82.4985 94.2919 82.0071 94.7287C81.5339 95.1655 81.1608 95.8116 80.8878 96.667C80.633 97.5042 80.5056 98.5507 80.5056 99.8065C80.5056 101.044 80.633 102.1 80.8878 102.973C81.1608 103.829 81.5339 104.475 82.0071 104.912C82.4985 105.348 83.0536 105.567 83.6724 105.567C84.2912 105.567 84.8372 105.348 85.3104 104.912C85.7836 104.475 86.1476 103.829 86.4024 102.973C86.6754 102.1 86.8119 101.044 86.8119 99.8065C86.8119 98.5507 86.6754 97.5042 86.4024 96.667C86.1476 95.8116 85.7836 95.1655 85.3104 94.7287C84.8372 94.2919 84.2912 94.0735 83.6724 94.0735ZM93.0363 89.0503H96.6945V114.33H93.0363V89.0503ZM95.9028 98.578H100.353V101.554H95.9028V98.578ZM120.182 92.7358H126.407V95.6296H120.182V92.7358ZM124.796 89.0503H128.454V101.881H124.796V89.0503ZM111.747 102.919H128.454V109.744H115.378V112.91H111.774V107.123H124.851V105.731H111.747V102.919ZM111.774 111.218H129.164V114.057H111.774V111.218ZM113.057 89.842H116.006V91.6711C116.006 93.2363 115.751 94.7196 115.241 96.121C114.75 97.5224 113.985 98.7418 112.948 99.7792C111.911 100.798 110.582 101.563 108.962 102.072L107.106 99.2332C108.507 98.7964 109.645 98.1958 110.518 97.4314C111.392 96.6488 112.029 95.757 112.429 94.756C112.848 93.755 113.057 92.7267 113.057 91.6711V89.842ZM113.794 89.842H116.715V91.6711C116.715 92.3991 116.825 93.1271 117.043 93.8551C117.28 94.5831 117.625 95.2656 118.08 95.9026C118.535 96.5396 119.118 97.1038 119.828 97.5952C120.556 98.0866 121.411 98.487 122.394 98.7964L120.537 101.581C119.009 101.09 117.744 100.352 116.743 99.3697C115.742 98.3869 114.995 97.2312 114.504 95.9026C114.031 94.574 113.794 93.1635 113.794 91.6711V89.842ZM145.597 95.1382H150.401V98.0866H145.597V95.1382ZM149.391 89.0503H153.05V104.065H149.391V89.0503ZM144.477 104.611C146.261 104.611 147.799 104.802 149.091 105.185C150.383 105.567 151.375 106.122 152.067 106.85C152.777 107.578 153.131 108.451 153.131 109.471C153.131 111.036 152.358 112.237 150.811 113.074C149.264 113.93 147.153 114.357 144.477 114.357C141.802 114.357 139.691 113.93 138.144 113.074C136.597 112.237 135.823 111.036 135.823 109.471C135.823 108.451 136.169 107.578 136.861 106.85C137.57 106.122 138.571 105.567 139.864 105.185C141.156 104.802 142.694 104.611 144.477 104.611ZM144.477 107.369C143.385 107.369 142.466 107.45 141.72 107.614C140.974 107.76 140.401 107.987 140 108.297C139.618 108.606 139.427 108.997 139.427 109.471C139.427 109.944 139.618 110.344 140 110.672C140.401 110.981 140.974 111.218 141.72 111.382C142.466 111.527 143.385 111.6 144.477 111.6C145.569 111.6 146.488 111.527 147.235 111.382C147.981 111.218 148.545 110.981 148.927 110.672C149.309 110.344 149.501 109.944 149.501 109.471C149.501 108.997 149.309 108.606 148.927 108.297C148.545 107.987 147.981 107.76 147.235 107.614C146.488 107.45 145.569 107.369 144.477 107.369ZM137.734 91.5619H140.683V93.1726C140.683 94.7742 140.428 96.303 139.918 97.759C139.409 99.215 138.626 100.498 137.57 101.608C136.533 102.7 135.204 103.519 133.585 104.065L131.756 101.199C132.793 100.853 133.685 100.389 134.431 99.8065C135.195 99.2241 135.814 98.578 136.287 97.8682C136.779 97.1402 137.143 96.3758 137.379 95.575C137.616 94.7742 137.734 93.9734 137.734 93.1726V91.5619ZM138.499 91.5619H141.392V93.1453C141.392 94.1463 141.593 95.1291 141.993 96.0937C142.393 97.0583 143.012 97.9319 143.849 98.7145C144.705 99.4971 145.797 100.116 147.125 100.571L145.351 103.41C143.786 102.882 142.494 102.109 141.474 101.09C140.473 100.052 139.727 98.851 139.236 97.486C138.744 96.1028 138.499 94.6559 138.499 93.1453V91.5619ZM132.738 90.5791H146.334V93.4456H132.738V90.5791Z" fill="#1B1B1B"/>
<path d="M62.9172 238.411H64.4278V254.901H62.9172V238.411ZM51.888 239.813H53.3986V244.144H58.1488V239.813H59.6412V250.933H51.888V239.813ZM53.3986 245.346V249.677H58.1488V245.346H53.3986ZM67.3566 251.588H82.2806V252.844H67.3566V251.588ZM74.036 248.076H75.5284V252.116H74.036V248.076ZM69.1766 239.631H80.4242V244.618H70.7054V247.912H69.213V243.416H78.9318V240.868H69.1766V239.631ZM69.213 247.275H80.8064V248.512H69.213V247.275ZM85.3732 240.159H95.9656V241.396H85.3732V240.159ZM83.7534 251.224H98.6228V252.48H83.7534V251.224ZM95.1466 240.159H96.639V241.815C96.639 242.506 96.6268 243.247 96.6026 244.035C96.5904 244.812 96.5419 245.673 96.457 246.62C96.372 247.566 96.2264 248.634 96.0202 249.823L94.4914 249.659C94.7098 248.543 94.8614 247.518 94.9464 246.583C95.0434 245.649 95.098 244.788 95.1102 243.999C95.1344 243.21 95.1466 242.482 95.1466 241.815V240.159ZM112.126 238.43H113.636V250.442H112.126V238.43ZM103.062 253.281H114.146V254.518H103.062V253.281ZM103.062 249.222H104.573V253.699H103.062V249.222ZM104.809 239.576C105.634 239.576 106.368 239.746 107.012 240.086C107.655 240.426 108.164 240.905 108.54 241.524C108.916 242.13 109.105 242.828 109.105 243.617C109.105 244.405 108.916 245.109 108.54 245.728C108.164 246.335 107.655 246.814 107.012 247.166C106.368 247.505 105.634 247.675 104.809 247.675C103.996 247.675 103.262 247.505 102.607 247.166C101.964 246.814 101.454 246.335 101.078 245.728C100.702 245.109 100.514 244.405 100.514 243.617C100.514 242.828 100.702 242.13 101.078 241.524C101.454 240.905 101.964 240.426 102.607 240.086C103.262 239.746 103.996 239.576 104.809 239.576ZM104.809 240.887C104.275 240.887 103.796 241.002 103.372 241.232C102.947 241.463 102.607 241.785 102.352 242.197C102.11 242.61 101.988 243.083 101.988 243.617C101.988 244.163 102.11 244.642 102.352 245.054C102.607 245.455 102.947 245.77 103.372 246.001C103.796 246.231 104.275 246.347 104.809 246.347C105.343 246.347 105.822 246.231 106.247 246.001C106.684 245.77 107.024 245.455 107.266 245.054C107.509 244.642 107.63 244.163 107.63 243.617C107.63 243.083 107.509 242.61 107.266 242.197C107.024 241.785 106.684 241.463 106.247 241.232C105.822 241.002 105.343 240.887 104.809 240.887ZM123.915 248.603H125.462V254.882H123.915V248.603ZM129.576 248.603H131.104V254.882H129.576V248.603ZM120.075 247.784H134.999V249.022H120.075V247.784ZM127.501 239.067C128.654 239.067 129.661 239.218 130.522 239.522C131.384 239.813 132.057 240.225 132.542 240.759C133.028 241.293 133.27 241.93 133.27 242.67C133.27 243.386 133.028 244.017 132.542 244.563C132.057 245.097 131.384 245.509 130.522 245.801C129.661 246.092 128.654 246.237 127.501 246.237C126.372 246.237 125.371 246.092 124.498 245.801C123.636 245.509 122.963 245.097 122.478 244.563C121.992 244.017 121.75 243.386 121.75 242.67C121.75 241.93 121.992 241.293 122.478 240.759C122.963 240.225 123.636 239.813 124.498 239.522C125.371 239.218 126.372 239.067 127.501 239.067ZM127.501 240.286C126.676 240.286 125.942 240.383 125.299 240.577C124.668 240.771 124.176 241.05 123.824 241.414C123.473 241.766 123.297 242.185 123.297 242.67C123.297 243.143 123.473 243.562 123.824 243.926C124.176 244.278 124.668 244.551 125.299 244.745C125.942 244.927 126.676 245.018 127.501 245.018C128.35 245.018 129.09 244.927 129.721 244.745C130.352 244.551 130.844 244.278 131.195 243.926C131.547 243.562 131.723 243.143 131.723 242.67C131.723 242.185 131.547 241.766 131.195 241.414C130.844 241.05 130.352 240.771 129.721 240.577C129.09 240.383 128.35 240.286 127.501 240.286ZM148.52 238.411H150.031V254.901H148.52V238.411ZM144.99 244.399H148.957V245.637H144.99V244.399ZM140.658 240.759H141.877V243.234C141.877 244.12 141.756 244.994 141.513 245.855C141.283 246.705 140.955 247.505 140.531 248.258C140.118 249.01 139.627 249.677 139.056 250.26C138.498 250.842 137.898 251.303 137.255 251.643L136.345 250.442C136.939 250.15 137.497 249.75 138.019 249.24C138.541 248.731 138.996 248.155 139.384 247.511C139.784 246.856 140.094 246.165 140.312 245.437C140.543 244.697 140.658 243.962 140.658 243.234V240.759ZM140.986 240.759H142.187V243.234C142.187 243.914 142.296 244.606 142.514 245.309C142.733 246.001 143.036 246.656 143.424 247.275C143.825 247.894 144.286 248.452 144.808 248.949C145.329 249.435 145.888 249.817 146.482 250.096L145.59 251.297C144.935 250.969 144.328 250.527 143.77 249.968C143.212 249.41 142.721 248.773 142.296 248.057C141.884 247.329 141.562 246.553 141.331 245.728C141.101 244.903 140.986 244.072 140.986 243.234V240.759ZM136.963 240.104H145.9V241.342H136.963V240.104ZM159.566 244.818H162.66V246.055H159.566V244.818ZM165.427 238.411H166.883V254.882H165.427V238.411ZM162.151 238.757H163.589V254.045H162.151V238.757ZM156.582 239.795C157.298 239.795 157.916 240.025 158.438 240.486C158.972 240.947 159.384 241.609 159.676 242.47C159.967 243.332 160.112 244.345 160.112 245.509C160.112 246.686 159.967 247.706 159.676 248.567C159.384 249.429 158.972 250.096 158.438 250.569C157.916 251.03 157.298 251.261 156.582 251.261C155.89 251.261 155.277 251.03 154.743 250.569C154.222 250.096 153.815 249.429 153.524 248.567C153.233 247.706 153.087 246.686 153.087 245.509C153.087 244.345 153.233 243.332 153.524 242.47C153.815 241.609 154.222 240.947 154.743 240.486C155.277 240.025 155.89 239.795 156.582 239.795ZM156.582 241.196C156.157 241.196 155.787 241.372 155.471 241.724C155.156 242.076 154.913 242.573 154.743 243.216C154.574 243.859 154.489 244.624 154.489 245.509C154.489 246.395 154.574 247.166 154.743 247.821C154.913 248.464 155.156 248.961 155.471 249.313C155.787 249.665 156.157 249.841 156.582 249.841C157.018 249.841 157.395 249.665 157.71 249.313C158.038 248.961 158.286 248.464 158.456 247.821C158.626 247.166 158.711 246.395 158.711 245.509C158.711 244.624 158.626 243.859 158.456 243.216C158.286 242.573 158.038 242.076 157.71 241.724C157.395 241.372 157.018 241.196 156.582 241.196ZM181.824 238.411H183.28V254.882H181.824V238.411ZM174.671 245.145H178.821V246.365H174.671V245.145ZM178.402 238.848H179.822V254.045H178.402V238.848ZM174.871 240.504H176.327C176.327 241.936 176.121 243.313 175.708 244.636C175.308 245.946 174.653 247.172 173.743 248.312C172.833 249.441 171.638 250.448 170.157 251.333L169.284 250.241C170.57 249.465 171.626 248.591 172.451 247.621C173.276 246.638 173.882 245.576 174.271 244.436C174.671 243.283 174.871 242.064 174.871 240.777V240.504ZM169.994 240.504H175.435V241.742H169.994V240.504ZM187.573 246.11H198.876V247.329H187.573V246.11ZM185.681 251.552H200.605V252.808H185.681V251.552ZM192.36 246.638H193.852V252.043H192.36V246.638ZM187.573 239.722H198.712V240.978H189.084V246.656H187.573V239.722ZM217.654 238.411H219.165V250.66H217.654V238.411ZM206.115 239.74H214.779V240.978H206.115V239.74ZM205.842 248.185L205.66 246.911C206.57 246.911 207.571 246.905 208.663 246.893C209.767 246.868 210.89 246.826 212.03 246.765C213.171 246.705 214.257 246.62 215.288 246.51L215.361 247.639C214.317 247.809 213.225 247.93 212.085 248.003C210.957 248.076 209.852 248.124 208.773 248.148C207.705 248.173 206.728 248.185 205.842 248.185ZM207.735 240.814H209.209V247.129H207.735V240.814ZM211.685 240.814H213.141V247.129H211.685V240.814ZM214.906 241.542H218.437V242.779H214.906V241.542ZM214.906 244.672H218.437V245.928H214.906V244.672ZM208.627 253.281H219.602V254.518H208.627V253.281ZM208.627 249.659H210.138V254.063H208.627V249.659ZM226.371 240.777H227.608V243.435C227.608 244.308 227.487 245.17 227.244 246.019C227.001 246.856 226.662 247.651 226.225 248.403C225.8 249.143 225.303 249.799 224.733 250.369C224.162 250.939 223.55 251.388 222.894 251.716L222.021 250.514C222.615 250.223 223.173 249.829 223.695 249.331C224.229 248.834 224.696 248.264 225.097 247.621C225.497 246.978 225.806 246.298 226.025 245.582C226.255 244.866 226.371 244.151 226.371 243.435V240.777ZM226.68 240.777H227.899V243.435C227.899 244.126 228.009 244.818 228.227 245.509C228.457 246.189 228.773 246.832 229.173 247.439C229.586 248.033 230.053 248.561 230.575 249.022C231.109 249.483 231.679 249.847 232.286 250.114L231.448 251.315C230.781 251 230.156 250.575 229.574 250.041C228.991 249.507 228.482 248.895 228.045 248.203C227.62 247.499 227.287 246.747 227.044 245.946C226.801 245.133 226.68 244.296 226.68 243.435V240.777ZM222.549 240.104H231.74V241.36H222.549V240.104ZM233.978 238.411H235.489V254.882H233.978V238.411ZM253.23 238.411H254.74V248.039H253.23V238.411ZM254.322 242.379H257.161V243.635H254.322V242.379ZM242.637 239.34H244.13V241.851H248.771V239.34H250.263V247.02H242.637V239.34ZM244.13 243.052V245.801H248.771V243.052H244.13ZM244.439 248.949H254.868V250.169H245.95V254.3H244.439V248.949ZM244.439 253.426H255.177V254.646H244.439V253.426ZM270.355 238.411H271.865V254.882H270.355V238.411ZM265.532 240.195H267.024C267.024 241.384 266.878 242.531 266.587 243.635C266.308 244.739 265.865 245.789 265.259 246.783C264.652 247.766 263.863 248.682 262.893 249.532C261.922 250.381 260.745 251.139 259.362 251.807L258.561 250.587C260.151 249.823 261.461 248.931 262.492 247.912C263.524 246.893 264.288 245.758 264.785 244.508C265.283 243.247 265.532 241.888 265.532 240.432V240.195ZM259.325 240.195H266.169V241.414H259.325V240.195Z" fill="#1B1B1B"/>
<rect x="468.821" y="258.595" width="41.1213" height="23.1308" rx="11.5654" transform="rotate(-180 468.821 258.595)" fill="#1B1B1B"/>
<rect x="434.456" y="246.698" width="6.60879" height="6.60879" rx="2.57008" transform="rotate(-45 434.456 246.698)" fill="white"/>
<g filter="url(#filter0_d_1684_4023)">
<g clip-path="url(#clip0_1684_4023)">
<rect x="75.0752" y="738.237" width="359.45" height="71.6625" rx="35.8312" fill="#1B1B1B"/>
<path d="M224.375 767.486H229.266V769.943H224.375V767.486ZM218.46 764.301H220.894V766.576C220.894 768.001 220.69 769.344 220.28 770.602C219.871 771.861 219.234 772.961 218.369 773.901C217.52 774.826 216.428 775.532 215.093 776.017L213.501 773.651C214.38 773.348 215.131 772.953 215.753 772.468C216.375 771.983 216.883 771.429 217.277 770.807C217.672 770.17 217.967 769.495 218.164 768.782C218.362 768.07 218.46 767.334 218.46 766.576V764.301ZM219.097 764.301H221.509V766.598C221.509 767.281 221.6 767.948 221.782 768.6C221.964 769.253 222.244 769.874 222.623 770.466C223.003 771.057 223.488 771.588 224.079 772.058C224.686 772.513 225.399 772.885 226.218 773.173L224.625 775.494C223.367 775.023 222.328 774.349 221.509 773.469C220.69 772.589 220.083 771.558 219.689 770.375C219.294 769.192 219.097 767.933 219.097 766.598V764.301ZM228.22 763.027H231.268V778.565H228.22V763.027ZM217.323 781.295H231.723V783.729H217.323V781.295ZM217.323 777.018H220.348V782.66H217.323V777.018ZM235.43 772.627H236.886C237.902 772.627 238.812 772.62 239.616 772.604C240.435 772.574 241.208 772.529 241.936 772.468C242.664 772.392 243.415 772.293 244.189 772.172L244.462 774.584C243.658 774.72 242.877 774.826 242.118 774.902C241.36 774.978 240.556 775.023 239.707 775.039C238.873 775.054 237.932 775.061 236.886 775.061H235.43V772.627ZM235.43 764.414H243.711V766.826H238.342V773.969H235.43V764.414ZM237.477 768.555H243.506V770.83H237.477V768.555ZM249.785 763.004H252.674V775.88H249.785V763.004ZM247.283 768.168H250.627V770.602H247.283V768.168ZM245.303 763.391H248.124V775.744H245.303V763.391ZM238.183 776.768H252.674V784.093H249.649V779.202H238.183V776.768ZM269.303 763.027H272.329V784.093H269.303V763.027ZM271.646 771.239H275.354V773.742H271.646V771.239ZM255.698 766.121H267.983V768.532H255.698V766.121ZM261.886 769.738C262.903 769.738 263.813 769.958 264.616 770.398C265.42 770.822 266.05 771.406 266.505 772.149C266.975 772.893 267.21 773.757 267.21 774.743C267.21 775.729 266.975 776.601 266.505 777.359C266.05 778.102 265.42 778.694 264.616 779.134C263.828 779.558 262.918 779.771 261.886 779.771C260.87 779.771 259.953 779.558 259.134 779.134C258.33 778.694 257.693 778.102 257.223 777.359C256.768 776.601 256.54 775.729 256.54 774.743C256.54 773.757 256.768 772.893 257.223 772.149C257.693 771.406 258.33 770.822 259.134 770.398C259.953 769.958 260.87 769.738 261.886 769.738ZM261.886 772.195C261.401 772.195 260.976 772.293 260.612 772.491C260.248 772.688 259.96 772.976 259.748 773.355C259.536 773.734 259.429 774.197 259.429 774.743C259.429 775.274 259.536 775.736 259.748 776.131C259.96 776.51 260.248 776.806 260.612 777.018C260.976 777.215 261.401 777.314 261.886 777.314C262.357 777.314 262.774 777.215 263.138 777.018C263.502 776.806 263.79 776.51 264.002 776.131C264.215 775.736 264.321 775.274 264.321 774.743C264.321 774.197 264.215 773.734 264.002 773.355C263.79 772.976 263.502 772.688 263.138 772.491C262.774 772.293 262.357 772.195 261.886 772.195ZM260.339 763.368H263.388V767.053H260.339V763.368ZM291.414 763.004H294.44V784.07H291.414V763.004ZM285.203 765.188H288.184C288.184 766.796 288.024 768.335 287.706 769.806C287.403 771.262 286.887 772.635 286.159 773.924C285.446 775.213 284.46 776.411 283.201 777.518C281.958 778.61 280.403 779.611 278.538 780.521L276.945 778.133C278.977 777.147 280.593 776.062 281.791 774.879C283.004 773.681 283.876 772.331 284.407 770.83C284.938 769.313 285.203 767.615 285.203 765.734V765.188ZM278.083 765.188H286.614V767.599H278.083V765.188Z" fill="white"/>
</g>
</g>
<rect x="467.684" y="257.457" width="38.8463" height="20.8558" rx="10.4279" transform="rotate(-180 467.684 257.457)" fill="#1B1B1B" stroke="white" stroke-width="2.275"/>
<rect x="434.456" y="246.698" width="6.60879" height="6.60879" rx="2.57008" transform="rotate(-45 434.456 246.698)" fill="white"/>
<path d="M0 0H500.5V910H0V0Z" fill="#1B1B1B" fill-opacity="0.8"/>
<path d="M399.159 204.714L398.784 205.788L398.784 205.788L399.159 204.714ZM353.974 200.663C353.689 201.223 353.911 201.908 354.471 202.193L363.594 206.839C364.153 207.124 364.838 206.902 365.124 206.342C365.409 205.782 365.186 205.097 364.626 204.812L356.517 200.682L360.647 192.573C360.932 192.013 360.71 191.328 360.15 191.043C359.59 190.758 358.905 190.981 358.62 191.541L353.974 200.663ZM439.301 242.895C440.33 242.41 440.33 242.41 440.33 242.41C440.33 242.41 440.33 242.41 440.33 242.41C440.33 242.41 440.33 242.41 440.33 242.41C440.33 242.409 440.329 242.409 440.329 242.409C440.329 242.408 440.329 242.407 440.328 242.406C440.327 242.404 440.326 242.401 440.324 242.398C440.321 242.391 440.316 242.381 440.31 242.368C440.298 242.342 440.28 242.305 440.256 242.256C440.209 242.159 440.139 242.018 440.047 241.834C439.862 241.468 439.587 240.936 439.222 240.264L438.222 240.807L437.223 241.349C437.576 242 437.84 242.511 438.015 242.858C438.103 243.032 438.168 243.164 438.211 243.252C438.232 243.296 438.248 243.329 438.258 243.35C438.263 243.361 438.267 243.369 438.269 243.373C438.27 243.376 438.271 243.377 438.271 243.378C438.272 243.379 438.272 243.379 438.272 243.379C438.272 243.379 438.272 243.379 438.272 243.379C438.272 243.379 438.272 243.379 438.272 243.379C438.272 243.379 438.272 243.379 438.272 243.379C438.272 243.379 438.272 243.379 439.301 242.895ZM435.847 236.725L436.815 236.126C436.063 234.911 435.19 233.563 434.198 232.124L433.261 232.769L432.325 233.415C433.294 234.821 434.146 236.137 434.88 237.323L435.847 236.725ZM430.48 228.941L431.384 228.25C430.456 227.038 429.457 225.791 428.386 224.53L427.519 225.266L426.652 226.002C427.696 227.232 428.671 228.449 429.577 229.632L430.48 228.941ZM424.366 221.749L425.192 220.966C424.119 219.832 422.988 218.7 421.8 217.584L421.021 218.413L420.242 219.242C421.396 220.326 422.495 221.427 423.54 222.531L424.366 221.749ZM417.479 215.286L418.204 214.41C416.987 213.403 415.72 212.421 414.403 211.475L413.74 212.399L413.076 213.324C414.349 214.237 415.575 215.187 416.754 216.162L417.479 215.286ZM409.803 209.788L410.396 208.817C409.04 207.99 407.637 207.205 406.189 206.475L405.677 207.49L405.164 208.506C406.555 209.208 407.904 209.962 409.211 210.759L409.803 209.788ZM401.372 205.544L401.795 204.488C401.052 204.19 400.298 203.907 399.534 203.641L399.159 204.714L398.784 205.788C399.515 206.044 400.237 206.315 400.949 206.6L401.372 205.544ZM399.159 204.714L399.534 203.641C398.809 203.387 398.09 203.145 397.378 202.913L397.026 203.995L396.674 205.077C397.37 205.303 398.074 205.54 398.784 205.788L399.159 204.714ZM392.72 202.699L393.023 201.603C391.519 201.186 390.049 200.818 388.614 200.492L388.363 201.601L388.111 202.711C389.511 203.028 390.947 203.389 392.417 203.795L392.72 202.699ZM383.959 200.713L384.156 199.593C382.606 199.32 381.106 199.097 379.658 198.917L379.518 200.046L379.379 201.175C380.788 201.35 382.25 201.567 383.761 201.833L383.959 200.713ZM375.049 199.614L375.127 198.479C373.526 198.368 372.006 198.31 370.571 198.293L370.557 199.431L370.544 200.568C371.937 200.584 373.413 200.641 374.97 200.749L375.049 199.614ZM366.065 199.517L366.007 198.381C364.313 198.467 362.789 198.607 361.45 198.77L361.587 199.899L361.725 201.028C363.014 200.871 364.484 200.736 366.123 200.653L366.065 199.517ZM357.154 200.631L356.915 199.519C356.185 199.676 355.624 199.818 355.241 199.922C355.049 199.974 354.902 200.016 354.801 200.047C354.75 200.062 354.711 200.074 354.684 200.082C354.67 200.087 354.659 200.09 354.651 200.093C354.647 200.094 354.644 200.095 354.641 200.096C354.64 200.096 354.639 200.097 354.638 200.097C354.638 200.097 354.637 200.097 354.637 200.097C354.637 200.097 354.636 200.097 354.636 200.097C354.636 200.097 354.636 200.098 354.636 200.098C354.636 200.098 354.636 200.098 354.987 201.179C355.339 202.261 355.339 202.261 355.339 202.261C355.339 202.261 355.339 202.261 355.339 202.261C355.339 202.261 355.339 202.261 355.339 202.261C355.338 202.261 355.338 202.261 355.338 202.261C355.338 202.262 355.338 202.262 355.338 202.261C355.339 202.261 355.34 202.261 355.341 202.26C355.345 202.259 355.352 202.257 355.361 202.254C355.38 202.248 355.41 202.239 355.452 202.227C355.535 202.202 355.664 202.164 355.837 202.117C356.182 202.024 356.704 201.891 357.393 201.743L357.154 200.631ZM399.159 204.714L398.784 205.788L398.784 205.788L399.159 204.714ZM353.974 200.663C353.689 201.223 353.911 201.908 354.471 202.193L363.594 206.839C364.153 207.124 364.838 206.902 365.124 206.342C365.409 205.782 365.186 205.097 364.626 204.812L356.517 200.682L360.647 192.573C360.932 192.013 360.71 191.328 360.15 191.043C359.59 190.758 358.905 190.981 358.62 191.541L353.974 200.663ZM439.301 242.895C440.33 242.41 440.33 242.41 440.33 242.41C440.33 242.41 440.33 242.41 440.33 242.41C440.33 242.41 440.33 242.41 440.33 242.41C440.33 242.409 440.329 242.409 440.329 242.409C440.329 242.408 440.329 242.407 440.328 242.406C440.327 242.404 440.326 242.401 440.324 242.398C440.321 242.391 440.316 242.381 440.31 242.368C440.298 242.342 440.28 242.305 440.256 242.256C440.209 242.159 440.139 242.018 440.047 241.834C439.862 241.468 439.587 240.936 439.222 240.264L438.222 240.807L437.223 241.349C437.576 242 437.84 242.511 438.015 242.858C438.103 243.032 438.168 243.164 438.211 243.252C438.232 243.296 438.248 243.329 438.258 243.35C438.263 243.361 438.267 243.369 438.269 243.373C438.27 243.376 438.271 243.377 438.271 243.378C438.272 243.379 438.272 243.379 438.272 243.379C438.272 243.379 438.272 243.379 438.272 243.379C438.272 243.379 438.272 243.379 438.272 243.379C438.272 243.379 438.272 243.379 438.272 243.379C438.272 243.379 438.272 243.379 439.301 242.895ZM435.847 236.725L436.815 236.126C436.063 234.911 435.19 233.563 434.198 232.124L433.261 232.769L432.325 233.415C433.294 234.821 434.146 236.137 434.88 237.323L435.847 236.725ZM430.48 228.941L431.384 228.25C430.456 227.038 429.457 225.791 428.386 224.53L427.519 225.266L426.652 226.002C427.696 227.232 428.671 228.449 429.577 229.632L430.48 228.941ZM424.366 221.749L425.192 220.966C424.119 219.832 422.988 218.7 421.8 217.584L421.021 218.413L420.242 219.242C421.396 220.326 422.495 221.427 423.54 222.531L424.366 221.749ZM417.479 215.286L418.204 214.41C416.987 213.403 415.72 212.421 414.403 211.475L413.74 212.399L413.076 213.324C414.349 214.237 415.575 215.187 416.754 216.162L417.479 215.286ZM409.803 209.788L410.396 208.817C409.04 207.99 407.637 207.205 406.189 206.475L405.677 207.49L405.164 208.506C406.555 209.208 407.904 209.962 409.211 210.759L409.803 209.788ZM401.372 205.544L401.795 204.488C401.052 204.19 400.298 203.907 399.534 203.641L399.159 204.714L398.784 205.788C399.515 206.044 400.237 206.315 400.949 206.6L401.372 205.544ZM399.159 204.714L399.534 203.641C398.809 203.387 398.09 203.145 397.378 202.913L397.026 203.995L396.674 205.077C397.37 205.303 398.074 205.54 398.784 205.788L399.159 204.714ZM392.72 202.699L393.023 201.603C391.519 201.186 390.049 200.818 388.614 200.492L388.363 201.601L388.111 202.711C389.511 203.028 390.947 203.389 392.417 203.795L392.72 202.699ZM383.959 200.713L384.156 199.593C382.606 199.32 381.106 199.097 379.658 198.917L379.518 200.046L379.379 201.175C380.788 201.35 382.25 201.567 383.761 201.833L383.959 200.713ZM375.049 199.614L375.127 198.479C373.526 198.368 372.006 198.31 370.571 198.293L370.557 199.431L370.544 200.568C371.937 200.584 373.413 200.641 374.97 200.749L375.049 199.614ZM366.065 199.517L366.007 198.381C364.313 198.467 362.789 198.607 361.45 198.77L361.587 199.899L361.725 201.028C363.014 200.871 364.484 200.736 366.123 200.653L366.065 199.517ZM357.154 200.631L356.915 199.519C356.185 199.676 355.624 199.818 355.241 199.922C355.049 199.974 354.902 200.016 354.801 200.047C354.75 200.062 354.711 200.074 354.684 200.082C354.67 200.087 354.659 200.09 354.651 200.093C354.647 200.094 354.644 200.095 354.641 200.096C354.64 200.096 354.639 200.097 354.638 200.097C354.638 200.097 354.637 200.097 354.637 200.097C354.637 200.097 354.636 200.097 354.636 200.097C354.636 200.097 354.636 200.098 354.636 200.098C354.636 200.098 354.636 200.098 354.987 201.179C355.339 202.261 355.339 202.261 355.339 202.261C355.339 202.261 355.339 202.261 355.339 202.261C355.339 202.261 355.339 202.261 355.339 202.261C355.338 202.261 355.338 202.261 355.338 202.261C355.338 202.262 355.338 202.262 355.338 202.261C355.339 202.261 355.34 202.261 355.341 202.26C355.345 202.259 355.352 202.257 355.361 202.254C355.38 202.248 355.41 202.239 355.452 202.227C355.535 202.202 355.664 202.164 355.837 202.117C356.182 202.024 356.704 201.891 357.393 201.743L357.154 200.631Z" fill="white"/>
<rect x="466.634" y="259.282" width="38.8463" height="20.8558" rx="10.4279" transform="rotate(-180 466.634 259.282)" fill="#1B1B1B" stroke="white" stroke-width="2.275"/>
<rect x="433.406" y="248.523" width="6.60879" height="6.60879" rx="2.57008" transform="rotate(-45 433.406 248.523)" fill="white"/>
<path d="M162.155 179.949H163.647V196.438H162.155V179.949ZM157.823 186.064H162.592V187.301H157.823V186.064ZM150.762 181.241H152.272V185.518H156.84V181.241H158.315V192.288H150.762V181.241ZM152.272 186.719V191.051H156.84V186.719H152.272ZM166.485 189.067H181.373V190.286H166.485V189.067ZM168.414 194.818H179.807V196.056H168.414V194.818ZM168.414 191.487H169.907V195.273H168.414V191.487ZM168.451 186.355H179.625V187.538H168.451V186.355ZM168.451 180.567H179.534V181.75H169.961V186.81H168.451V180.567ZM169.506 183.443H179.098V184.608H169.506V183.443ZM190.326 180.24C192.146 180.24 193.565 180.489 194.584 180.986C195.604 181.471 196.113 182.169 196.113 183.079C196.113 184.001 195.604 184.711 194.584 185.208C193.565 185.694 192.146 185.936 190.326 185.936C188.518 185.936 187.098 185.694 186.067 185.208C185.048 184.711 184.538 184.001 184.538 183.079C184.538 182.169 185.048 181.471 186.067 180.986C187.098 180.489 188.518 180.24 190.326 180.24ZM190.326 181.368C189.44 181.368 188.682 181.435 188.051 181.568C187.42 181.702 186.934 181.896 186.595 182.151C186.267 182.406 186.103 182.715 186.103 183.079C186.103 183.443 186.267 183.758 186.595 184.025C186.934 184.28 187.42 184.474 188.051 184.608C188.682 184.729 189.44 184.79 190.326 184.79C191.224 184.79 191.988 184.729 192.619 184.608C193.25 184.474 193.729 184.28 194.057 184.025C194.396 183.758 194.566 183.443 194.566 183.079C194.566 182.715 194.396 182.406 194.057 182.151C193.729 181.896 193.25 181.702 192.619 181.568C191.988 181.435 191.224 181.368 190.326 181.368ZM182.9 187.047H197.769V188.266H182.9V187.047ZM184.702 189.667H195.858V193.38H186.212V195.364H184.738V192.27H194.384V190.832H184.702V189.667ZM184.738 195.055H196.35V196.238H184.738V195.055ZM209.687 181.022H211.27C211.27 182.393 210.961 183.637 210.342 184.753C209.723 185.858 208.843 186.804 207.703 187.593C206.574 188.381 205.222 189.006 203.644 189.467L203.025 188.284C204.409 187.884 205.598 187.362 206.593 186.719C207.588 186.076 208.352 185.33 208.886 184.48C209.42 183.619 209.687 182.679 209.687 181.659V181.022ZM203.863 181.022H210.706V182.242H203.863V181.022ZM214.874 179.967H216.384V189.34H214.874V179.967ZM211.306 184.189H215.147V185.445H211.306V184.189ZM205.774 190.05H216.384V196.183H205.774V190.05ZM214.892 191.251H207.248V194.964H214.892V191.251ZM219.24 188.612H234.11V189.831H219.24V188.612ZM221.151 194.818H232.453V196.056H221.151V194.818ZM221.151 191.287H222.662V195.182H221.151V191.287ZM226.666 180.513C227.843 180.513 228.862 180.646 229.723 180.913C230.597 181.168 231.27 181.544 231.744 182.042C232.217 182.527 232.453 183.109 232.453 183.789C232.453 184.468 232.217 185.057 231.744 185.554C231.27 186.052 230.597 186.434 229.723 186.701C228.862 186.956 227.843 187.083 226.666 187.083C225.489 187.083 224.464 186.956 223.59 186.701C222.729 186.434 222.061 186.052 221.588 185.554C221.115 185.057 220.878 184.468 220.878 183.789C220.878 183.109 221.115 182.527 221.588 182.042C222.061 181.544 222.729 181.168 223.59 180.913C224.464 180.646 225.489 180.513 226.666 180.513ZM226.666 181.732C225.816 181.732 225.07 181.817 224.427 181.987C223.796 182.145 223.305 182.381 222.953 182.697C222.601 183 222.425 183.364 222.425 183.789C222.425 184.213 222.601 184.584 222.953 184.899C223.305 185.202 223.796 185.439 224.427 185.609C225.07 185.767 225.816 185.845 226.666 185.845C227.539 185.845 228.292 185.767 228.923 185.609C229.554 185.439 230.039 185.202 230.379 184.899C230.73 184.584 230.906 184.213 230.906 183.789C230.906 183.364 230.73 183 230.379 182.697C230.039 182.381 229.554 182.145 228.923 181.987C228.292 181.817 227.539 181.732 226.666 181.732ZM239.077 180.95H240.278V183.134C240.278 183.959 240.126 184.778 239.823 185.591C239.532 186.404 239.101 187.138 238.531 187.793C237.96 188.448 237.269 188.958 236.456 189.322L235.637 188.139C236.353 187.811 236.966 187.374 237.475 186.828C237.997 186.282 238.391 185.688 238.658 185.045C238.937 184.402 239.077 183.765 239.077 183.134V180.95ZM239.332 180.95H240.533V183.134C240.533 183.752 240.66 184.365 240.915 184.972C241.182 185.566 241.564 186.106 242.062 186.592C242.559 187.077 243.154 187.459 243.845 187.738L243.044 188.903C242.256 188.575 241.582 188.114 241.024 187.52C240.466 186.925 240.041 186.252 239.75 185.5C239.471 184.747 239.332 183.959 239.332 183.134V180.95ZM248.068 179.967H249.505V189.904H248.068V179.967ZM245.41 184.244H248.504V185.5H245.41V184.244ZM244.537 180.258H245.956V189.813H244.537V180.258ZM238.476 190.814H249.505V196.42H248.013V192.052H238.476V190.814ZM259.459 181.004C260.612 181.004 261.637 181.192 262.535 181.568C263.433 181.945 264.143 182.472 264.665 183.152C265.186 183.831 265.447 184.626 265.447 185.536C265.447 186.458 265.186 187.259 264.665 187.938C264.143 188.618 263.433 189.146 262.535 189.522C261.637 189.898 260.612 190.086 259.459 190.086C258.331 190.086 257.312 189.898 256.402 189.522C255.504 189.146 254.794 188.618 254.272 187.938C253.751 187.259 253.49 186.458 253.49 185.536C253.49 184.626 253.751 183.831 254.272 183.152C254.794 182.472 255.504 181.945 256.402 181.568C257.312 181.192 258.331 181.004 259.459 181.004ZM259.459 182.224C258.598 182.224 257.827 182.363 257.148 182.642C256.468 182.921 255.929 183.31 255.528 183.807C255.128 184.292 254.928 184.869 254.928 185.536C254.928 186.191 255.128 186.768 255.528 187.265C255.929 187.762 256.468 188.151 257.148 188.43C257.827 188.709 258.598 188.848 259.459 188.848C260.333 188.848 261.109 188.709 261.789 188.43C262.468 188.151 263.002 187.762 263.391 187.265C263.791 186.768 263.991 186.191 263.991 185.536C263.991 184.869 263.791 184.292 263.391 183.807C263.002 183.31 262.468 182.921 261.789 182.642C261.109 182.363 260.333 182.224 259.459 182.224ZM252.034 192.98H266.958V194.236H252.034V192.98ZM268.431 193.125H283.355V194.381H268.431V193.125ZM275.11 189.613H276.602V193.653H275.11V189.613ZM270.251 181.168H281.498V186.155H271.779V189.449H270.287V184.954H280.006V182.406H270.251V181.168ZM270.287 188.812H281.88V190.05H270.287V188.812ZM289.047 181.441H296.618V189.049H289.047V181.441ZM295.144 182.66H290.521V187.829H295.144V182.66ZM299.64 179.949H301.15V192.015H299.64V179.949ZM300.677 184.954H303.571V186.209H300.677V184.954ZM290.904 194.818H301.878V196.056H290.904V194.818ZM290.904 190.869H292.396V195.346H290.904V190.869ZM304.771 186.828H319.658V188.048H304.771V186.828ZM306.754 184.28H317.875V185.5H306.754V184.28ZM306.754 180.495H317.711V181.714H308.247V185.245H306.754V180.495ZM306.572 189.485H317.729V193.344H308.083V195.419H306.609V192.215H316.255V190.668H306.572V189.485ZM306.609 195.018H318.22V196.219H306.609V195.018ZM325.554 181.223C326.354 181.223 327.064 181.459 327.683 181.932C328.302 182.393 328.781 183.055 329.121 183.916C329.473 184.778 329.649 185.791 329.649 186.956C329.649 188.12 329.473 189.134 329.121 189.995C328.781 190.856 328.302 191.524 327.683 191.997C327.064 192.47 326.354 192.707 325.554 192.707C324.765 192.707 324.055 192.47 323.424 191.997C322.805 191.524 322.32 190.856 321.968 189.995C321.628 189.134 321.459 188.12 321.459 186.956C321.459 185.791 321.628 184.778 321.968 183.916C322.32 183.055 322.805 182.393 323.424 181.932C324.055 181.459 324.765 181.223 325.554 181.223ZM325.554 182.569C325.032 182.569 324.571 182.751 324.17 183.115C323.77 183.467 323.455 183.977 323.224 184.644C323.006 185.299 322.896 186.07 322.896 186.956C322.896 187.841 323.006 188.618 323.224 189.285C323.455 189.94 323.77 190.45 324.17 190.814C324.571 191.178 325.032 191.36 325.554 191.36C326.087 191.36 326.555 191.178 326.955 190.814C327.355 190.45 327.665 189.94 327.883 189.285C328.114 188.618 328.229 187.841 328.229 186.956C328.229 186.07 328.114 185.299 327.883 184.644C327.665 183.977 327.355 183.467 326.955 183.115C326.555 182.751 326.087 182.569 325.554 182.569ZM333.216 179.949H334.708V196.438H333.216V179.949ZM329.157 186.228H333.889V187.447H329.157V186.228ZM155.007 206.949H156.518V223.42H155.007V206.949ZM150.184 208.732H151.677C151.677 209.921 151.531 211.068 151.24 212.172C150.961 213.276 150.518 214.326 149.911 215.321C149.304 216.303 148.516 217.219 147.545 218.069C146.574 218.918 145.398 219.676 144.014 220.344L143.214 219.124C144.803 218.36 146.113 217.468 147.145 216.449C148.176 215.43 148.94 214.295 149.438 213.046C149.935 211.784 150.184 210.425 150.184 208.969V208.732ZM143.978 208.732H150.821V209.952H143.978V208.732ZM161.43 211.517H172.587V212.754H161.43V211.517ZM161.43 207.276H162.923V212.063H161.43V207.276ZM159.41 214.665H174.298V215.903H159.41V214.665ZM166.836 217.359C168.595 217.359 169.972 217.62 170.967 218.142C171.962 218.663 172.46 219.403 172.46 220.362C172.46 221.308 171.962 222.042 170.967 222.564C169.972 223.086 168.595 223.347 166.836 223.347C165.076 223.347 163.693 223.086 162.686 222.564C161.691 222.042 161.194 221.308 161.194 220.362C161.194 219.403 161.691 218.663 162.686 218.142C163.693 217.62 165.076 217.359 166.836 217.359ZM166.818 218.56C165.968 218.56 165.234 218.633 164.615 218.779C164.009 218.912 163.542 219.112 163.214 219.379C162.886 219.646 162.723 219.974 162.723 220.362C162.723 220.738 162.886 221.066 163.214 221.345C163.542 221.612 164.009 221.818 164.615 221.964C165.234 222.097 165.968 222.164 166.818 222.164C167.691 222.164 168.431 222.097 169.038 221.964C169.657 221.818 170.13 221.612 170.458 221.345C170.785 221.066 170.949 220.738 170.949 220.362C170.949 219.974 170.785 219.646 170.458 219.379C170.13 219.112 169.657 218.912 169.038 218.779C168.431 218.633 167.691 218.56 166.818 218.56ZM183.232 207.24C185.052 207.24 186.472 207.489 187.491 207.986C188.51 208.471 189.02 209.169 189.02 210.079C189.02 211.001 188.51 211.711 187.491 212.208C186.472 212.694 185.052 212.936 183.232 212.936C181.425 212.936 180.005 212.694 178.974 212.208C177.954 211.711 177.445 211.001 177.445 210.079C177.445 209.169 177.954 208.471 178.974 207.986C180.005 207.489 181.425 207.24 183.232 207.24ZM183.232 208.368C182.347 208.368 181.588 208.435 180.957 208.568C180.327 208.702 179.841 208.896 179.501 209.151C179.174 209.406 179.01 209.715 179.01 210.079C179.01 210.443 179.174 210.758 179.501 211.025C179.841 211.28 180.327 211.474 180.957 211.608C181.588 211.729 182.347 211.79 183.232 211.79C184.13 211.79 184.895 211.729 185.526 211.608C186.157 211.474 186.636 211.28 186.963 211.025C187.303 210.758 187.473 210.443 187.473 210.079C187.473 209.715 187.303 209.406 186.963 209.151C186.636 208.896 186.157 208.702 185.526 208.568C184.895 208.435 184.13 208.368 183.232 208.368ZM175.807 214.047H190.676V215.266H175.807V214.047ZM177.609 216.667H188.765V220.38H179.119V222.364H177.645V219.27H187.291V217.832H177.609V216.667ZM177.645 222.055H189.257V223.238H177.645V222.055ZM206.998 206.949H208.508V216.667H206.998V206.949ZM207.871 211.153H210.911V212.427H207.871V211.153ZM197.843 217.414H208.508V220.744H199.372V222.473H197.88V219.743H207.016V218.469H197.843V217.414ZM197.88 222.164H209.127V223.238H197.88V222.164ZM200.064 213.701H201.556V215.794H200.064V213.701ZM195.841 216.285L195.659 215.175C196.63 215.175 197.704 215.169 198.881 215.157C200.058 215.133 201.259 215.09 202.484 215.029C203.71 214.957 204.887 214.841 206.015 214.684L206.124 215.666C204.959 215.861 203.764 216.006 202.539 216.103C201.326 216.188 200.143 216.243 198.99 216.267C197.849 216.279 196.8 216.285 195.841 216.285ZM196.078 208.204H205.524V209.278H196.078V208.204ZM200.792 209.806C201.956 209.806 202.885 209.994 203.576 210.37C204.28 210.746 204.632 211.274 204.632 211.954C204.632 212.645 204.28 213.185 203.576 213.573C202.885 213.95 201.956 214.138 200.792 214.138C199.627 214.138 198.693 213.95 197.989 213.573C197.297 213.185 196.951 212.645 196.951 211.954C196.951 211.274 197.297 210.746 197.989 210.37C198.693 209.994 199.627 209.806 200.792 209.806ZM200.792 210.807C200.052 210.807 199.463 210.91 199.026 211.116C198.602 211.323 198.389 211.602 198.389 211.954C198.389 212.318 198.602 212.609 199.026 212.827C199.463 213.033 200.052 213.137 200.792 213.137C201.532 213.137 202.114 213.033 202.539 212.827C202.976 212.609 203.194 212.318 203.194 211.954C203.194 211.602 202.976 211.323 202.539 211.116C202.114 210.91 201.532 210.807 200.792 210.807ZM200.064 206.803H201.556V208.769H200.064V206.803ZM216.297 207.877H217.552V209.569C217.552 210.637 217.358 211.62 216.97 212.518C216.594 213.416 216.06 214.204 215.368 214.884C214.689 215.551 213.876 216.061 212.93 216.413L212.129 215.193C212.978 214.89 213.712 214.459 214.331 213.901C214.95 213.343 215.429 212.694 215.769 211.954C216.121 211.201 216.297 210.407 216.297 209.569V207.877ZM216.57 207.877H217.789V209.515C217.789 210.291 217.959 211.025 218.299 211.717C218.638 212.409 219.105 213.021 219.7 213.555C220.307 214.077 221.01 214.471 221.811 214.738L220.992 215.921C220.106 215.581 219.33 215.102 218.663 214.483C217.995 213.865 217.48 213.131 217.116 212.281C216.752 211.432 216.57 210.51 216.57 209.515V207.877ZM224.177 206.949H225.688V216.686H224.177V206.949ZM220.264 217.177C221.963 217.177 223.298 217.45 224.268 217.996C225.251 218.542 225.742 219.306 225.742 220.289C225.742 221.26 225.251 222.018 224.268 222.564C223.298 223.11 221.963 223.383 220.264 223.383C218.566 223.383 217.225 223.11 216.242 222.564C215.271 222.018 214.786 221.26 214.786 220.289C214.786 219.306 215.271 218.542 216.242 217.996C217.225 217.45 218.566 217.177 220.264 217.177ZM220.264 218.378C219.439 218.378 218.729 218.457 218.135 218.615C217.54 218.76 217.079 218.979 216.752 219.27C216.436 219.549 216.278 219.889 216.278 220.289C216.278 220.677 216.436 221.017 216.752 221.308C217.079 221.587 217.54 221.806 218.135 221.964C218.729 222.109 219.439 222.182 220.264 222.182C221.101 222.182 221.811 222.109 222.394 221.964C222.988 221.806 223.443 221.587 223.759 221.308C224.086 221.017 224.25 220.677 224.25 220.289C224.25 219.889 224.086 219.549 223.759 219.27C223.443 218.979 222.988 218.76 222.394 218.615C221.811 218.457 221.101 218.378 220.264 218.378ZM220.592 210.425H224.487V211.681H220.592V210.425ZM232.803 216.758H234.313V219.434H232.803V216.758ZM239.719 206.949H241.229V223.42H239.719V206.949ZM240.756 213.937H243.795V215.211H240.756V213.937ZM228.58 220.289L228.344 219.015C229.339 219.015 230.418 219.009 231.583 218.997C232.76 218.973 233.961 218.924 235.187 218.851C236.412 218.779 237.595 218.663 238.736 218.506L238.845 219.616C237.668 219.822 236.467 219.974 235.241 220.071C234.028 220.168 232.851 220.229 231.711 220.253C230.582 220.277 229.539 220.289 228.58 220.289ZM228.635 208.951H238.463V210.17H228.635V208.951ZM233.567 211.116C234.331 211.116 235.005 211.244 235.587 211.499C236.17 211.753 236.625 212.111 236.952 212.572C237.28 213.021 237.444 213.555 237.444 214.174C237.444 214.781 237.28 215.315 236.952 215.776C236.625 216.237 236.17 216.595 235.587 216.849C235.005 217.092 234.331 217.213 233.567 217.213C232.803 217.213 232.123 217.092 231.529 216.849C230.946 216.595 230.491 216.237 230.164 215.776C229.848 215.315 229.69 214.781 229.69 214.174C229.69 213.555 229.848 213.021 230.164 212.572C230.491 212.111 230.946 211.753 231.529 211.499C232.123 211.244 232.803 211.116 233.567 211.116ZM233.567 212.299C232.827 212.299 232.232 212.469 231.783 212.809C231.334 213.149 231.11 213.604 231.11 214.174C231.11 214.732 231.334 215.181 231.783 215.521C232.232 215.861 232.827 216.03 233.567 216.03C234.295 216.03 234.883 215.861 235.332 215.521C235.781 215.181 236.006 214.732 236.006 214.174C236.006 213.604 235.781 213.149 235.332 212.809C234.883 212.469 234.295 212.299 233.567 212.299ZM232.803 206.985H234.313V209.751H232.803V206.985ZM259.753 206.894H261.264V215.994H259.753V206.894ZM260.608 210.862H263.702V212.117H260.608V210.862ZM250.799 216.831H261.264V220.508H252.327V222.491H250.853V219.416H259.771V217.96H250.799V216.831ZM250.853 222.073H261.846V223.238H250.853V222.073ZM248.524 208.441H258.242V209.624H248.524V208.441ZM253.383 210.352C254.572 210.352 255.524 210.595 256.24 211.08C256.956 211.553 257.314 212.208 257.314 213.046C257.314 213.871 256.956 214.526 256.24 215.011C255.524 215.497 254.572 215.739 253.383 215.739C252.182 215.739 251.223 215.497 250.507 215.011C249.791 214.526 249.434 213.871 249.434 213.046C249.434 212.208 249.791 211.553 250.507 211.08C251.223 210.595 252.182 210.352 253.383 210.352ZM253.383 211.462C252.631 211.462 252.024 211.608 251.563 211.899C251.114 212.178 250.89 212.56 250.89 213.046C250.89 213.531 251.114 213.919 251.563 214.21C252.024 214.489 252.631 214.629 253.383 214.629C254.147 214.629 254.754 214.489 255.203 214.21C255.652 213.919 255.876 213.531 255.876 213.046C255.876 212.56 255.652 212.178 255.203 211.899C254.754 211.608 254.147 211.462 253.383 211.462ZM252.637 206.785H254.147V209.26H252.637V206.785ZM275.092 207.531H276.42V208.459C276.42 209.09 276.299 209.685 276.056 210.243C275.814 210.789 275.48 211.292 275.055 211.753C274.643 212.214 274.157 212.627 273.599 212.991C273.041 213.355 272.435 213.658 271.779 213.901C271.136 214.144 270.475 214.32 269.796 214.429L269.177 213.209C269.783 213.124 270.372 212.979 270.942 212.773C271.525 212.566 272.064 212.318 272.562 212.026C273.059 211.723 273.496 211.383 273.872 211.007C274.261 210.631 274.558 210.231 274.764 209.806C274.983 209.369 275.092 208.92 275.092 208.459V207.531ZM275.347 207.531H276.657V208.459C276.657 208.92 276.766 209.363 276.985 209.788C277.203 210.212 277.5 210.613 277.876 210.989C278.265 211.365 278.707 211.705 279.205 212.008C279.702 212.312 280.236 212.566 280.807 212.773C281.389 212.979 281.977 213.124 282.572 213.209L281.971 214.429C281.292 214.32 280.631 214.144 279.988 213.901C279.344 213.646 278.738 213.337 278.168 212.973C277.609 212.609 277.118 212.196 276.693 211.735C276.281 211.274 275.953 210.771 275.711 210.225C275.468 209.666 275.347 209.078 275.347 208.459V207.531ZM275.092 217.159H276.584V223.42H275.092V217.159ZM268.431 216.212H283.3V217.468H268.431V216.212ZM292.469 217.086H293.652V217.96C293.652 218.675 293.506 219.379 293.215 220.071C292.924 220.762 292.499 221.381 291.941 221.927C291.395 222.473 290.722 222.892 289.921 223.183L289.175 222.073C289.866 221.818 290.455 221.466 290.94 221.017C291.438 220.568 291.814 220.083 292.068 219.561C292.335 219.027 292.469 218.493 292.469 217.96V217.086ZM292.815 217.086H293.925V217.96C293.925 218.518 294.034 219.07 294.252 219.616C294.471 220.162 294.798 220.659 295.235 221.108C295.684 221.557 296.23 221.915 296.873 222.182L296.254 223.329C295.454 223.013 294.798 222.576 294.289 222.018C293.791 221.46 293.421 220.829 293.179 220.125C292.936 219.41 292.815 218.688 292.815 217.96V217.086ZM298.566 217.086H299.676V217.96C299.676 218.603 299.549 219.276 299.294 219.98C299.051 220.684 298.675 221.339 298.165 221.945C297.668 222.54 297.031 223.001 296.254 223.329L295.599 222.182C296.254 221.879 296.8 221.49 297.237 221.017C297.674 220.532 298.002 220.022 298.22 219.488C298.451 218.942 298.566 218.433 298.566 217.96V217.086ZM298.857 217.086H300.04V217.96C300.04 218.53 300.167 219.082 300.422 219.616C300.689 220.15 301.065 220.635 301.551 221.072C302.048 221.496 302.643 221.83 303.334 222.073L302.588 223.183C301.787 222.892 301.108 222.485 300.55 221.964C299.992 221.43 299.567 220.823 299.276 220.144C298.997 219.452 298.857 218.724 298.857 217.96V217.086ZM300.349 206.967H301.86V216.358H300.349V206.967ZM293.033 207.913C293.87 207.913 294.61 208.077 295.253 208.405C295.897 208.732 296.4 209.187 296.764 209.77C297.14 210.34 297.328 211.007 297.328 211.772C297.328 212.524 297.14 213.185 296.764 213.755C296.4 214.326 295.897 214.775 295.253 215.102C294.61 215.43 293.87 215.594 293.033 215.594C292.208 215.594 291.468 215.43 290.813 215.102C290.17 214.775 289.66 214.326 289.284 213.755C288.92 213.185 288.738 212.524 288.738 211.772C288.738 211.007 288.92 210.34 289.284 209.77C289.66 209.187 290.17 208.732 290.813 208.405C291.468 208.077 292.208 207.913 293.033 207.913ZM293.033 209.187C292.499 209.187 292.02 209.296 291.595 209.515C291.171 209.733 290.831 210.037 290.576 210.425C290.333 210.801 290.212 211.25 290.212 211.772C290.212 212.281 290.333 212.73 290.576 213.118C290.831 213.495 291.171 213.792 291.595 214.01C292.02 214.229 292.499 214.338 293.033 214.338C293.579 214.338 294.064 214.229 294.489 214.01C294.914 213.792 295.247 213.495 295.49 213.118C295.733 212.73 295.854 212.281 295.854 211.772C295.854 211.25 295.733 210.801 295.49 210.425C295.247 210.037 294.914 209.733 294.489 209.515C294.064 209.296 293.579 209.187 293.033 209.187ZM309.157 208.223C309.958 208.223 310.667 208.459 311.286 208.932C311.905 209.393 312.384 210.055 312.724 210.916C313.076 211.778 313.252 212.791 313.252 213.956C313.252 215.12 313.076 216.134 312.724 216.995C312.384 217.856 311.905 218.524 311.286 218.997C310.667 219.47 309.958 219.707 309.157 219.707C308.368 219.707 307.658 219.47 307.027 218.997C306.409 218.524 305.923 217.856 305.571 216.995C305.232 216.134 305.062 215.12 305.062 213.956C305.062 212.791 305.232 211.778 305.571 210.916C305.923 210.055 306.409 209.393 307.027 208.932C307.658 208.459 308.368 208.223 309.157 208.223ZM309.157 209.569C308.635 209.569 308.174 209.751 307.774 210.115C307.373 210.467 307.058 210.977 306.827 211.644C306.609 212.299 306.5 213.07 306.5 213.956C306.5 214.841 306.609 215.618 306.827 216.285C307.058 216.94 307.373 217.45 307.774 217.814C308.174 218.178 308.635 218.36 309.157 218.36C309.691 218.36 310.158 218.178 310.558 217.814C310.959 217.45 311.268 216.94 311.486 216.285C311.717 215.618 311.832 214.841 311.832 213.956C311.832 213.07 311.717 212.299 311.486 211.644C311.268 210.977 310.959 210.467 310.558 210.115C310.158 209.751 309.691 209.569 309.157 209.569ZM316.819 206.949H318.311V223.438H316.819V206.949ZM312.76 213.228H317.492V214.447H312.76V213.228ZM324.826 215.43H326.318V220.344H324.826V215.43ZM330.904 215.43H332.415V220.344H330.904V215.43ZM321.167 220.053H336.091V221.308H321.167V220.053ZM328.593 207.986C329.758 207.986 330.789 208.162 331.687 208.514C332.585 208.866 333.289 209.357 333.798 209.988C334.32 210.619 334.581 211.365 334.581 212.227C334.581 213.076 334.32 213.822 333.798 214.465C333.289 215.096 332.585 215.588 331.687 215.939C330.789 216.279 329.758 216.449 328.593 216.449C327.44 216.449 326.409 216.279 325.499 215.939C324.601 215.588 323.897 215.096 323.388 214.465C322.878 213.822 322.623 213.076 322.623 212.227C322.623 211.365 322.878 210.619 323.388 209.988C323.897 209.357 324.601 208.866 325.499 208.514C326.409 208.162 327.44 207.986 328.593 207.986ZM328.593 209.187C327.719 209.187 326.943 209.315 326.263 209.569C325.584 209.824 325.05 210.182 324.662 210.643C324.274 211.092 324.079 211.62 324.079 212.227C324.079 212.833 324.274 213.367 324.662 213.828C325.05 214.277 325.584 214.629 326.263 214.884C326.943 215.139 327.719 215.266 328.593 215.266C329.479 215.266 330.261 215.139 330.941 214.884C331.62 214.629 332.154 214.277 332.542 213.828C332.931 213.367 333.125 212.833 333.125 212.227C333.125 211.62 332.931 211.092 332.542 210.643C332.154 210.182 331.62 209.824 330.941 209.569C330.261 209.315 329.479 209.187 328.593 209.187Z" fill="white"/>
<defs>
<filter id="filter0_d_1684_4023" x="70.5252" y="738.237" width="368.55" height="80.7621" filterUnits="userSpaceOnUse" color-interpolation-filters="sRGB">
<feFlood flood-opacity="0" result="BackgroundImageFix"/>
<feColorMatrix in="SourceAlpha" type="matrix" values="0 0 0 0 0 0 0 0 0 0 0 0 0 0 0 0 0 0 127 0" result="hardAlpha"/>
<feOffset dy="4.55"/>
<feGaussianBlur stdDeviation="2.275"/>
<feComposite in2="hardAlpha" operator="out"/>
<feColorMatrix type="matrix" values="0 0 0 0 0 0 0 0 0 0 0 0 0 0 0 0 0 0 0.25 0"/>
<feBlend mode="normal" in2="BackgroundImageFix" result="effect1_dropShadow_1684_4023"/>
<feBlend mode="normal" in="SourceGraphic" in2="effect1_dropShadow_1684_4023" result="shape"/>
</filter>
<clipPath id="clip0_1684_4023">
<rect x="75.0752" y="738.237" width="359.45" height="71.6625" rx="35.8312" fill="white"/>
</clipPath>
</defs>
</svg>
