<?xml version="1.0" encoding="UTF-8"?>
<svg id="_우편함" data-name="우편함" xmlns="http://www.w3.org/2000/svg" width="214.5" height="103.56" viewBox="0 0 214.5 103.56">
  <g>
    <path d="M52.42,101.81c-.29,0-.56-.12-.75-.34-.19-.21-.28-.5-.24-.79.96-7.61-5.2-12.69-5.27-12.74-.03-.02-.06-.05-.09-.08-6.52-6.68-16.94-8.08-24.54-8.08-6.43,0-11.39,1-11.44,1.01-.07.01-.13.02-.2.02-.31,0-.61-.14-.8-.4-.23-.31-.27-.72-.08-1.07,2.03-3.85-.88-7.6-1.01-7.76-.24-.3-.28-.71-.12-1.05.16-.34.51-.57.89-.57,1.37-.02,2.7-.03,3.99-.03,29.21,0,39.14,5.44,42.37,8.38-.02-.18-.05-.38-.1-.59-.54-2.31-3.41-7.29-16.55-14.58C18.5,52.05,4.53,51.73,3,51.73c0,0-.2,0-.21,0-.44,0-.83-.29-.96-.71-.13-.43.04-.9.43-1.14,4.29-2.68,7.92-9.17,7.95-9.23.18-.32.52-.52.88-.52.08,0,.15,0,.23.03,1.32.31,32.45,7.77,41.26,14.42,8.51,6.42,16.99,15.68,19.71,21.52.14.29.26.55.38.78-.03-4.72-4.92-11.57-5.45-12.29-6.71-6.52-8.98-12.96-9.08-13.23-.02-.06-.04-.13-.05-.2-.01-.09-1.21-8.8-6.3-12.84-5.66-4.49-7.52-10.44-7.6-10.69-.08-.26-.05-.54.08-.78s.36-.41.62-.48l17.19-4.5c.08-.02.17-.03.25-.03.25,0,.5.09.68.27,4.73,4.44,7.52,9.54,10.76,15.45,2.45,4.48,5.23,9.55,9.37,15.29,8.88,12.3,7.47,18.62,7.01,19.95.09,2.83.74,3.59,1.08,3.59.17,0,.36-.08.47-.15.3-.46,1.59-2.65,2.68-8.3,1.28-6.61-2.77-24.9-2.81-25.08-3.54-21.21,6.91-28.32,7.89-28.93,5.01-3.9,6.18-7.95,6.19-7.99.11-.4.45-.69.86-.73l20-2.02s.07,0,.1,0c.39,0,.74.22.91.58.18.39.09.84-.21,1.14-4.79,4.64-10.93,24.96-11,25.17-5.98,15.15-3,27.71-1.04,33.23,4.01-19.01,15.49-32.56,15.62-32.7C143.62,12.95,168.06,1.65,168.3,1.54c.13-.06.27-.09.42-.09.11,0,.23.02.34.06.19.07,4.77,1.72,7.23,3.59,1.82,1.38,10.86,4.14,14.19,5.08.44.12.74.53.73.99-.01.46-.34.85-.79.95-8.56,1.88-29.61,18.27-29.82,18.44-15.52,13.61-25.1,30.08-28.79,37.16,21.62-19.66,51.22-20.24,54.57-20.24h.71c18.64,0,25.29,9.33,25.57,9.73.3.44.21,1.04-.22,1.37l-10.52,7.95c-.17.13-.39.2-.6.2-.07,0-.15,0-.22-.03-.29-.06-.53-.25-.67-.52-1.27-2.46-4.98-3.7-11.04-3.7-11.97,0-28.65,5.05-28.82,5.1-13.33,4.75-18.22,12.45-20.57,16.15-.41.64-.72,1.14-1.01,1.5-1.17,1.48-2.67,10.42-3.35,15.7-.06.5-.49.87-.99.87H52.42Z" fill="#a9df9f"/>
    <path d="M168.72,2.44s4.59,1.65,6.96,3.45,14.52,5.25,14.52,5.25c-8.89,1.95-30.22,18.63-30.22,18.63-20.74,18.18-30.81,41.05-30.81,41.05l2.22-1.35c21.47-20.46,51.86-21,54.99-21,.17,0,.26,0,.26,0,.15,0,.29,0,.44,0,18.33,0,24.75,9.3,24.75,9.3l-10.52,7.95c-1.63-3.16-6.3-4.24-11.93-4.24-12.27,0-29.11,5.14-29.11,5.14-16,5.7-20.3,15.75-22.07,17.99-1.78,2.25-3.56,16.2-3.56,16.2H52.42c1.04-8.25-5.63-13.64-5.63-13.64-6.68-6.84-17.16-8.38-25.25-8.38-6.62,0-11.64,1.03-11.64,1.03,2.37-4.5-1.11-8.85-1.11-8.85,1.36-.02,2.69-.03,3.97-.03,38.96,0,42.92,9.58,42.92,9.58,0,0,4.89-6.25-16.71-18.25C18.88,51.12,4.86,50.73,3,50.73c-.14,0-.21,0-.21,0,4.57-2.85,8.3-9.6,8.3-9.6,0,0,32.15,7.65,40.89,14.25s16.89,15.75,19.41,21.14c1.01,2.16,1.56,2.81,1.87,2.81.46,0,.35-1.46.35-1.46.74-5.4-5.63-13.95-5.63-13.95-6.67-6.45-8.89-12.9-8.89-12.9,0,0-1.19-9.15-6.67-13.5-5.48-4.35-7.26-10.2-7.26-10.2l17.19-4.5c8.15,7.65,10.37,17.24,20,30.59,9.63,13.35,6.81,19.19,6.81,19.19.09,3.94,1.19,4.76,2.08,4.76.64,0,1.18-.41,1.18-.41,0,0,1.63-1.95,2.96-8.85,1.33-6.9-2.81-25.49-2.81-25.49-3.56-21.29,7.49-27.89,7.49-27.89,5.42-4.2,6.58-8.55,6.58-8.55l20-2.02c-5.04,4.88-11.26,25.6-11.26,25.6-8.3,21.03.3,37.01.3,37.01,3.26-20.69,16-35.54,16-35.54,12.74-17.69,37.04-28.79,37.04-28.79M168.72.44c-.28,0-.57.06-.83.18-1.01.46-24.87,11.5-37.78,29.38-.94,1.11-10.47,12.67-14.92,29.46-1.61-6.31-2.74-16.79,2.06-28.95.02-.05.04-.1.06-.16,1.69-5.62,6.91-21.03,10.74-24.73.61-.59.78-1.51.42-2.28-.33-.71-1.04-1.16-1.81-1.16-.07,0-.13,0-.2.01l-20,2.02c-.83.08-1.51.67-1.73,1.47,0,.02-1.12,3.77-5.8,7.43-1.35.88-11.89,8.45-8.31,29.86,0,.04.01.07.02.11,1.13,5.06,3.83,19.36,2.8,24.68-.72,3.74-1.52,5.9-2.04,7-.09-.4-.18-.98-.21-1.8.61-1.93,1.58-8.52-7.2-20.69-4.1-5.69-6.87-10.73-9.3-15.18-3.27-5.98-6.1-11.14-10.95-15.69-.38-.35-.87-.54-1.37-.54-.17,0-.34.02-.51.07l-17.19,4.5c-.53.14-.97.48-1.24.96-.27.47-.33,1.04-.17,1.56.08.26,2.03,6.5,7.93,11.18,4.77,3.78,5.92,12.11,5.93,12.19.02.13.05.27.09.39.1.28,2.43,6.9,9.27,13.56.62.84,1.54,2.22,2.43,3.81-4.02-5.11-9.86-10.86-15.71-15.27-8.97-6.77-40.3-14.28-41.63-14.6-.15-.04-.31-.05-.46-.05-.72,0-1.39.39-1.75,1.03-.03.06-3.54,6.33-7.6,8.87-.77.48-1.12,1.41-.86,2.28.26.85,1.04,1.42,1.91,1.42.02,0,.04,0,.06,0h.15c1.5,0,15.23.32,35,11.3,9.15,5.08,13.15,8.92,14.88,11.46-5.33-3.04-16.58-6.55-40.12-6.55-1.3,0-2.63.01-4,.03-.76.01-1.45.46-1.78,1.15-.32.69-.23,1.51.25,2.1.1.13,2.62,3.41.9,6.66-.36.68-.29,1.52.17,2.13.38.51.98.8,1.6.8.13,0,.27-.01.4-.04.05,0,4.92-.99,11.24-.99,7.4,0,17.54,1.35,23.82,7.78.05.06.11.11.17.16.05.04,5.78,4.84,4.9,11.84-.07.57.1,1.14.48,1.57.38.43.93.68,1.5.68h82.22c1.01,0,1.86-.75,1.98-1.75.81-6.38,2.27-14.02,3.14-15.21.32-.4.65-.92,1.07-1.58,2.29-3.6,7.05-11.1,20.06-15.75.94-.28,16.96-5.04,28.49-5.04,5.57,0,9.08,1.09,10.15,3.16.27.52.76.9,1.33,1.03.15.03.3.05.44.05.43,0,.86-.14,1.21-.4l10.52-7.95c.85-.65,1.05-1.85.44-2.73-.29-.42-7.23-10.16-26.39-10.16h-.43s-.13,0-.28,0c-3.19,0-29.77.51-51.12,17.04,4.72-8.18,13.38-21.14,26-32.21,5.87-4.59,22.47-16.7,29.37-18.22.9-.2,1.54-.98,1.57-1.89.03-.92-.57-1.73-1.45-1.98-4.89-1.39-12.43-3.83-13.86-4.92-2.58-1.96-7.3-3.67-7.5-3.74-.22-.08-.45-.12-.68-.12h0Z"/>
  </g>
  <path d="M33.13,34.56s3.56-6.11-4.22-9.67c0,0-3.56-.78-5.89,2.33,0,0-3.33-3.67-7.89-1.33s-.78,6.74-.78,6.74c0,0-3.44-.74-4.11,1.93s-.78,4.28,4.33,6.92c0,0-4,.86-1.78,4.08s9.13,3,9.13,3c0,0,2.31,3.89,7.54,2.22s2.67-6.78,2.67-6.78c0,0,3.33,0,4.11-4s-3.11-5.44-3.11-5.44Z" fill="#ccf" stroke="#000" stroke-linecap="round" stroke-linejoin="round" stroke-width="2"/>
  <circle cx="22.88" cy="38.47" r="2.53" fill="#fff" stroke="#000" stroke-linecap="round" stroke-linejoin="round" stroke-width="2"/>
  <path d="M96.96,12.59s-.95-7.01-9.27-5.04c0,0-3.28,1.57-3.21,5.46,0,0-5.37-1.88-7.54,2.76-2.16,4.64,4.01,6.82,4.01,6.82,0,0-3.4,3.24-2.29,5.76s3.75,3.12,7.9,1.09c0,0-.03,3.74,3.7,4.92s6.45-3.85,6.45-3.85c0,0,5.48,2.1,7.68-1.48,2.86-4.67-2.43-8.38-2.43-8.38,0,0,2.63-2.05.79-5.68s-5.8-2.39-5.8-2.39Z" fill="#ccf" stroke="#000" stroke-linecap="round" stroke-linejoin="round" stroke-width="2"/>
  <circle cx="90.93" cy="21.93" r="2.53" fill="#fff" stroke="#000" stroke-linecap="round" stroke-linejoin="round" stroke-width="2"/>
  <g>
    <path d="M92.29,36.17c-2.06,0-3.8-.97-3.88-1.01-.04-.02-.08-.05-.11-.07-1.22-.92-4.03-3.25-3.83-5.13.04-.39.25-1.11,1.18-1.53.52-.23,1.08-.35,1.66-.35,1.3,0,2.49.61,3.28,1.14,1.22-1.46,3.41-1.75,3.52-1.76.04,0,.08,0,.12,0,.04,0,.09,0,.13,0,.26.04,2.6.39,3.41,2.18.51,1.12.27,2.44-.71,3.92-1.13,1.71-2.78,2.61-4.78,2.61Z" fill="#a9df9f"/>
    <path d="M94.24,28.45s4.61.61,2,4.56c-1.11,1.68-2.6,2.16-3.95,2.16-1.82,0-3.38-.88-3.38-.88,0,0-5.17-3.89-2.83-4.94.41-.19.83-.26,1.24-.26,1.9,0,3.59,1.65,3.59,1.65.56-1.94,3.33-2.28,3.33-2.28M94.24,26.45c-.08,0-.16,0-.24.01-.29.03-2.14.3-3.55,1.48-.85-.47-1.94-.87-3.13-.88-.72,0-1.42.15-2.07.44-1.01.46-1.65,1.3-1.76,2.33-.24,2.18,2.16,4.49,4.22,6.04.07.05.14.1.22.14.21.12,2.08,1.14,4.37,1.14s4.29-1.06,5.62-3.05c1.47-2.23,1.24-3.89.78-4.89-1.03-2.27-3.87-2.71-4.19-2.75-.09-.01-.18-.02-.26-.02h0Z"/>
  </g>
  <path d="M178.74,31.99s2.67-9.18-8.7-11.31c0,0-4.92.14-6.97,4.99,0,0-5.61-5.26-10.83-.71-5.22,4.55,1.22,10.64,1.22,10.64,0,0-5.98,2.15-5.99,5.86,0,3.72,2.93,5.92,9.17,5.68,0,0-2.09,4.61,1.88,8.11s10.08-1.22,10.08-1.22c0,0,5.62,5.61,10.31,2.37,6.1-4.21,1.59-11.68,1.59-11.68,0,0,4.37-1.09,4.09-6.59s-5.86-6.13-5.86-6.13Z" fill="#ccf" stroke="#000" stroke-linecap="round" stroke-linejoin="round" stroke-width="2"/>
  <circle cx="166.17" cy="40.23" r="3.42" fill="#fff" stroke="#000" stroke-linecap="round" stroke-linejoin="round" stroke-width="2"/>
  <g>
    <path d="M163.2,58.92c-4.14,0-6.98-3.76-7.1-3.92-.03-.04-.05-.07-.07-.11-.76-1.37-3.15-5.98-1.92-8.09.23-.39.79-1.06,2-1.06,2.86,0,4.68,2.32,5.55,3.8.8-.47,1.79-.72,2.92-.72,1.3,0,2.37.32,2.42.34.08.02.16.06.23.1.29.18,2.83,1.8,2.86,4.26.02,1.54-.95,2.94-2.86,4.16-1.29.82-2.63,1.24-4.01,1.24h0Z" fill="#a9df9f"/>
    <path d="M156.13,46.73c3.44,0,5.18,4.37,5.18,4.37.85-1.02,2.14-1.28,3.25-1.28,1.17,0,2.12.29,2.12.29,0,0,5.37,3.28-.02,6.73-1.22.78-2.39,1.08-3.47,1.08-3.68,0-6.3-3.52-6.3-3.52,0,0-4.26-7.64-.79-7.67.01,0,.02,0,.03,0M156.13,44.73h0s-.04,0-.05,0c-1.24,0-2.28.58-2.85,1.56-1.4,2.4.6,6.72,1.91,9.08.04.08.09.15.14.22.13.18,3.27,4.33,7.9,4.33,1.57,0,3.09-.47,4.54-1.4,2.22-1.42,3.34-3.11,3.32-5.01-.03-3-3-4.9-3.33-5.1-.14-.09-.3-.16-.46-.21-.13-.04-1.28-.38-2.71-.38-.93,0-1.79.15-2.54.43-1.23-1.76-3.22-3.51-5.89-3.51h0Z"/>
  </g>
  <path d="M110.57,44.24s-1.15-4.52-6.45-2.59c0,0-2.03,1.28-1.69,3.82,0,0-3.66-.82-4.72,2.38-1.06,3.2,3.15,4.16,3.15,4.16,0,0-1.98,2.38-1.06,3.94.92,1.56,2.7,1.76,5.26.11,0,0,.26,2.45,2.8,2.94s3.93-3.01,3.93-3.01c0,0,3.75.96,4.92-1.56,1.52-3.28-2.23-5.3-2.23-5.3,0,0,1.57-1.54.08-3.78s-3.98-1.12-3.98-1.12Z" fill="#ccf" stroke="#000" stroke-linecap="round" stroke-linejoin="round" stroke-width="2"/>
  <path d="M174.02,81.08s-1.15-4.52-6.45-2.59c0,0-2.03,1.28-1.69,3.82,0,0-3.66-.82-4.72,2.38-1.06,3.2,3.15,4.16,3.15,4.16,0,0-1.98,2.38-1.06,3.94.92,1.56,2.7,1.76,5.26.11,0,0,.26,2.45,2.8,2.94s3.93-3.01,3.93-3.01c0,0,3.75.96,4.92-1.56,1.52-3.28-2.23-5.3-2.23-5.3,0,0,1.57-1.54.08-3.78s-3.98-1.12-3.98-1.12Z" fill="#ccf" stroke="#000" stroke-linecap="round" stroke-linejoin="round" stroke-width="2"/>
  <circle cx="107.34" cy="50.82" r="1.67" fill="#fff" stroke="#000" stroke-linecap="round" stroke-linejoin="round" stroke-width="2"/>
  <circle cx="170.75" cy="86.96" r="1.67" fill="#fff" stroke="#000" stroke-linecap="round" stroke-linejoin="round" stroke-width="2"/>
  <g>
    <path d="M109.12,61.74c-1.17,0-2.1-.38-2.21-.42-.04-.02-.08-.04-.12-.06-1.14-.67-3.06-1.99-3.07-3.36,0-.56.3-1.07.82-1.38.47-.28,1-.43,1.57-.43.67,0,1.3.2,1.8.43.62-.75,1.57-1.17,2.19-1.32.08-.02.15-.03.23-.03h.02c.2,0,1.92.07,2.69,1.33.48.8.43,1.8-.15,2.95-.75,1.48-2.09,2.29-3.78,2.29Z" fill="#a9df9f"/>
    <path d="M110.35,56.17s3.07.05,1.66,2.83c-.71,1.39-1.89,1.74-2.89,1.74s-1.82-.35-1.82-.35c0,0-3.68-2.15-2.23-3.02.34-.2.7-.28,1.06-.28,1.15,0,2.21.82,2.21.82.22-1.32,2.01-1.75,2.01-1.75M110.35,54.17c-.16,0-.31.02-.47.06-.73.17-1.55.54-2.22,1.12-.46-.15-.99-.25-1.54-.25-.76,0-1.46.19-2.09.57-.84.5-1.31,1.32-1.31,2.25,0,1.42,1.21,2.84,3.56,4.22.08.04.15.08.23.12.2.08,1.26.5,2.59.5,2.08,0,3.74-1.01,4.67-2.84.94-1.85.58-3.15.12-3.92-1.02-1.69-3.12-1.81-3.53-1.81-.01,0-.02,0-.03,0h0Z"/>
  </g>
</svg>