<?xml version="1.0" encoding="UTF-8"?>
<svg id="_우편함" data-name="우편함" xmlns="http://www.w3.org/2000/svg" width="222" height="99.54" viewBox="0 0 222 99.54">
  <g>
    <path d="M82.09,30.05c-16.12,1.64,1.25-14.25,21.36-2.28,16.12-1.8,1.29,14.72-21.36,2.28Z" fill="#a9df9f"/>
    <path d="M82.09,30.05c-16.12,1.64,1.25-14.25,21.36-2.28,16.12-1.8,1.29,14.72-21.36,2.28Z" fill="none" stroke="#000" stroke-linecap="round" stroke-linejoin="round"/>
  </g>
  <g>
    <path d="M153.37,29.72c-7.92,3.69-2.42-10.68,10.5-4.9,7.92-3.7,3.86,10.76-10.5,4.9Z" fill="#a9df9f"/>
    <path d="M153.37,29.72c-7.92,3.69-2.42-10.68,10.5-4.9,7.92-3.7,3.86,10.76-10.5,4.9Z" fill="none" stroke="#000" stroke-linecap="round" stroke-linejoin="round"/>
  </g>
  <g>
    <path d="M168.81,64.55c-8.74-.07,2.3-10.79,11.58-.03,8.74-.11-1.02,11.3-11.58.03Z" fill="#a9df9f"/>
    <path d="M168.81,64.55c-8.74-.07,2.3-10.79,11.58-.03,8.74-.11-1.02,11.3-11.58.03Z" fill="none" stroke="#000" stroke-linecap="round" stroke-linejoin="round"/>
  </g>
  <g>
    <path d="M38.98,89.7c-7.03,5.19-4.48-9.98,9.32-6.88,7.03-5.19,5.92,9.78-9.32,6.88Z" fill="#a9df9f"/>
    <path d="M38.98,89.7c-7.03,5.19-4.48-9.98,9.32-6.88,7.03-5.19,5.92,9.78-9.32,6.88Z" fill="none" stroke="#000" stroke-linecap="round" stroke-linejoin="round"/>
  </g>
  <g>
    <path d="M95.6,44.64c-8.54,9.35-9.21-13.55,11.3-12.39,8.51-9.35,11.16,12.9-11.3,12.39Z" fill="#a9df9f"/>
    <path d="M95.6,44.64c-8.54,9.35-9.21-13.55,11.3-12.39,8.51-9.35,11.16,12.9-11.3,12.39Z" fill="none" stroke="#000" stroke-linecap="round" stroke-linejoin="round"/>
  </g>
  <g>
    <path d="M112.41,47.1c-2.68,11.18-17.57-9.22,3.3-14.82,2.3-11.18,18.72,7.99-3.3,14.82Z" fill="#a9df9f"/>
    <path d="M112.41,47.1c-2.68,11.18-17.57-9.22,3.3-14.82,2.3-11.18,18.72,7.99-3.3,14.82Z" fill="none" stroke="#000" stroke-linecap="round" stroke-linejoin="round"/>
  </g>
  <g>
    <path d="M128.38,47.02c3.79,10.67-15.1,1.97-5.07-14.15-3.86-10.67,15.38-3.84,5.07,14.15Z" fill="#a9df9f"/>
    <path d="M128.38,47.02c3.79,10.67-15.1,1.97-5.07-14.15-3.86-10.67,15.38-3.84,5.07,14.15Z" fill="none" stroke="#000" stroke-linecap="round" stroke-linejoin="round"/>
  </g>
  <g>
    <path d="M52.64,70.96c11.18,2.03-5.63,14.26-14.82-2.48-11.18-1.72,4.18-15.17,14.82,2.48Z" fill="#a9df9f"/>
    <path d="M52.64,70.96c11.18,2.03-5.63,14.26-14.82-2.48-11.18-1.72,4.18-15.17,14.82,2.48Z" fill="none" stroke="#000" stroke-linecap="round" stroke-linejoin="round"/>
  </g>
  <g>
    <path d="M169.38,77.63c10.46,7.01-12.32,11.92-13.86-9.16-10.46-6.81,11.41-13.6,13.86,9.16Z" fill="#a9df9f"/>
    <path d="M169.38,77.63c10.46,7.01-12.32,11.92-13.86-9.16-10.46-6.81,11.41-13.6,13.86,9.16Z" fill="none" stroke="#000" stroke-linecap="round" stroke-linejoin="round"/>
  </g>
  <g>
    <path d="M116.99,70.72c-10.96,3.74-1.69-14.03,14.52-5,10.96-3.79,3.58,14.27-14.52,5Z" fill="#a9df9f"/>
    <path d="M116.99,70.72c-10.96,3.74-1.69-14.03,14.52-5,10.96-3.79,3.58,14.27-14.52,5Z" fill="none" stroke="#000" stroke-linecap="round" stroke-linejoin="round"/>
  </g>
  <g>
    <path d="M132.52,81.69c-5.88,11.21-14.82-12.54,7.57-14.86,5.55-11.21,16.36,11.53-7.57,14.86Z" fill="#a9df9f"/>
    <path d="M132.52,81.69c-5.88,11.21-14.82-12.54,7.57-14.86,5.55-11.21,16.36,11.53-7.57,14.86Z" fill="none" stroke="#000" stroke-linecap="round" stroke-linejoin="round"/>
  </g>
  <g>
    <path d="M151.76,85.1c3.29,12.08-17.11.83-4.44-16.01-3.41-12.08,17.54-2.85,4.44,16.01Z" fill="#a9df9f"/>
    <path d="M151.76,85.1c3.29,12.08-17.11.83-4.44-16.01-3.41-12.08,17.54-2.85,4.44,16.01Z" fill="none" stroke="#000" stroke-linecap="round" stroke-linejoin="round"/>
  </g>
  <g>
    <path d="M146.28,37.85c12.06,3.11-4.53,9.81-15.99-3.97-12.06-2.88,2.86-10.69,15.99,3.97Z" fill="#a9df9f"/>
    <path d="M146.28,37.85c12.06,3.11-4.53,9.81-15.99-3.97-12.06-2.88,2.86-10.69,15.99,3.97Z" fill="none" stroke="#000" stroke-linecap="round" stroke-linejoin="round"/>
  </g>
  <g>
    <path d="M63.48,84.54c-12.55,3.78-4.73-15.11,16.64-5.49,12.55-4.5,1.75,18.17-16.64,5.49Z" fill="#a9df9f"/>
    <path d="M63.48,84.54c-12.55,3.78-4.73-15.11,16.64-5.49,12.55-4.5,1.75,18.17-16.64,5.49Z" fill="none" stroke="#000" stroke-linecap="round" stroke-linejoin="round"/>
  </g>
  <g>
    <path d="M82.19,92.06c-5.54,9.66-11.63-7.39,7.31-12.8,5.5-9.66,11.91,11.58-7.31,12.8Z" fill="#a9df9f"/>
    <path d="M82.19,92.06c-5.54,9.66-11.63-7.39,7.31-12.8,5.5-9.66,11.91,11.58-7.31,12.8Z" fill="none" stroke="#000" stroke-linecap="round" stroke-linejoin="round"/>
  </g>
  <g>
    <path d="M109.9,76.66c-12.04-8.26,15.94-15.44,15.97,10.93,12.04,8.24-22.31,15.57-15.97-10.93Z" fill="#a9df9f"/>
    <path d="M109.9,76.66c-12.04-8.26,15.94-15.44,15.97,10.93,12.04,8.24-22.31,15.57-15.97-10.93Z" fill="none" stroke="#000" stroke-linecap="round" stroke-linejoin="round"/>
  </g>
  <g>
    <path d="M110.34,8.92c-15.24-14.53-30.64,2.11-3.74,11.91-14.85,16.69,1.38,20.75,8.87,6.9-7.49,13.85,23.52,22.13,18.23-5.03,30.77-13.08,7.4-27.88-5.03-13.61,12.43-14.27,5.49-4.13-2.77,4.04,8.25-8.17,1.62-18.79-2.64-4.23,4.27-14.56-4.58-2.56-3.53,4.78-1.05-7.34-10-19.78-3.57-4.96-6.44-14.82-14.49-.84-3.21,5.57-11.28-6.41-17.86-19.91-2.62-5.38Z" fill="#ffabe3"/>
    <path d="M110.34,8.92c-15.24-14.53-30.64,2.11-3.74,11.91-14.85,16.69,1.38,20.75,8.87,6.9-7.49,13.85,23.52,22.13,18.23-5.03,30.77-13.08,7.4-27.88-5.03-13.61,12.43-14.27,5.49-4.13-2.77,4.04,8.25-8.17,1.62-18.79-2.64-4.23,4.27-14.56-4.58-2.56-3.53,4.78-1.05-7.34-10-19.78-3.57-4.96-6.44-14.82-14.49-.84-3.21,5.57-11.28-6.41-17.86-19.91-2.62-5.38Z" fill="none" stroke="#000" stroke-linecap="round" stroke-linejoin="round"/>
  </g>
  <g>
    <path d="M100.99,93.4c1.06,13.65-20.97-1.47-2.1-18.1-2.11-13.65,23.92,5.84,2.1,18.1Z" fill="#a9df9f"/>
    <path d="M100.99,93.4c1.06,13.65-20.97-1.47-2.1-18.1-2.11-13.65,23.92,5.84,2.1,18.1Z" fill="none" stroke="#000" stroke-linecap="round" stroke-linejoin="round"/>
  </g>
  <g>
    <path d="M88.3,52.91c-11.28-15.53-47.35,11.16-2.05,20.07,21.45,29.97,41.47,5.94,22.26-3.51,19.21,9.45,33.38-12.66-3.12-17.21,14.49-16.52,8.17-3.17-2.52,5.32,10.69-8.49,10.69-15.05-2.05-5.51,7.59-16.8-2.48-3.68-4.02,5.23,1.54-8.91-5.49-23.67-2.8-5.88-2.69-17.79-11.82-3.74-3.64,5.6-8.18-9.34-13.33-19.64-2.05-4.11Z" fill="#ffabe3"/>
    <path d="M88.3,52.91c-11.28-15.53-47.35,11.16-2.05,20.07,21.45,29.97,41.47,5.94,22.26-3.51,19.21,9.45,33.38-12.66-3.12-17.21,14.49-16.52,8.17-3.17-2.52,5.32,10.69-8.49,10.69-15.05-2.05-5.51,7.59-16.8-2.48-3.68-4.02,5.23,1.54-8.91-5.49-23.67-2.8-5.88-2.69-17.79-11.82-3.74-3.64,5.6-8.18-9.34-13.33-19.64-2.05-4.11Z" fill="none" stroke="#000" stroke-linecap="round" stroke-linejoin="round"/>
  </g>
  <g>
    <path d="M140.37,43.85c-8.04-14.35-36.38,8.62-1.95,17.92-2.77,17.72,5.12,18.35,9.1,1.76,18.11,12.5,28.2-2.68,8.94-13.29,15.39-9.06,13.67-13.63-2.26-5.32,12.83-12.74,3.3-1.5-3.8,4.48,7.1-5.98,5.15-13.8-3.12-6.43,2.4-15.68-7.62-2.3-3.99,5.33-3.63-7.63-10.96-18.81-2.92-4.45Z" fill="#ffabe3"/>
    <path d="M140.37,43.85c-8.04-14.35-36.38,8.62-1.95,17.92-2.77,17.72,5.12,18.35,9.1,1.76,18.11,12.5,28.2-2.68,8.94-13.29,15.39-9.06,13.67-13.63-2.26-5.32,12.83-12.74,3.3-1.5-3.8,4.48,7.1-5.98,5.15-13.8-3.12-6.43,2.4-15.68-7.62-2.3-3.99,5.33-3.63-7.63-10.96-18.81-2.92-4.45Z" fill="none" stroke="#000" stroke-miterlimit="10"/>
  </g>
</svg>