<?xml version="1.0" encoding="UTF-8"?>
<svg id="_우편함" data-name="우편함" xmlns="http://www.w3.org/2000/svg" width="222" height="99.54" viewBox="0 0 222 99.54">
  <g>
    <path d="M120.79,87.76c.79,1.07,1.31-1.39,2.6-2.38.61-.47,1.1-1.45,1.96-1.95.72-.42,1.97.02,2.84-.35.78-.33,1.64-.4,2.54-.63.83-.22,1.63-.27,2.55-.36.86-.08,1.72-1.27,2.64-1.21.85.06,1.82.17,2.73.38.83.19,1.76.48,2.63.82.79.31,1.68.68,2.5,1.13.74.41,1.06,1.62,1.82,2.17s1.94.49,2.61,1.03c.73.59,1.49,1.1,2.15,1.67.7.61.81,1.85,1.47,2.42.69.61,2.03.37,2.73.92s.67,2.11,1.44,2.6,2.01,0,2.85.38c.77.36,1.26,1.57,2.17,1.84.81.25,1.91-.55,2.85-.38.83.15,1.65.37,2.6.46.84.08,1.69.53,2.64.55.85.02,1.75.31,2.69.29.85-.02,1.75-.13,2.69-.18.86-.05,1.82.65,2.76.57.86-.08,1.71-.71,2.64-.82.86-.1,1.71-.55,2.63-.67.86-.12,1.71-.47,2.63-.61.86-.13,1.76-.19,2.67-.34.86-.14,1.71-.51,2.62-.67.86-.15,1.67-.7,2.57-.87s1.82.11,2.73-.07,1.94.62,2.84.44,1.52-1.41,2.41-1.61,1.78-.19,2.67-.39,1.65-.79,2.54-.99,1.76-.27,2.65-.47,1.97.59,2.86.38,1.47-.8,2.36-1.01c-.61-1.25-.71-.4-2.22-1.41-.63-.42-1.34-.94-2.1-1.75-.56-.6-1.86-.79-2.45-1.66-.47-.7-.95-1.58-1.42-2.49-.4-.77-1.03-1.57-1.42-2.5-.33-.81-.53-1.78-.85-2.72-.28-.84-.69-1.73-.96-2.68-.25-.89.94-2.3.56-3.1s-1.19-1.53-1.7-2.27-1.67-1-2.28-1.67-1.24-1.27-1.94-1.86-1.24-1.33-1.99-1.85-1.52-.99-2.3-1.45-1.54-.99-2.34-1.39-1.74-.59-2.57-.93-1.61-.95-2.44-1.25c-.89-.32-1.64-1.02-2.47-1.27-.93-.28-1.82-.58-2.64-.79-.99-.26-2.21.95-2.97.79-1.65-.35-1.05-1.84-2.4-2.03s-1.05-.03-2.75-.07c-.75-.02-1.69-.18-2.71-.15-.81.03-1.74.18-2.7.27-.83.07-1.75.25-2.67.38-.84.12-1.54,1.35-2.45,1.53-.84.16-1.66.48-2.55.7-.84.21-2-.69-2.88-.42s-1.6.84-2.45,1.14-1.58.81-2.42,1.16-1.53.87-2.35,1.26-1.84.29-2.64.72-1.77.53-2.54,1.01-1.01,1.71-1.76,2.22-1.31,1.18-2.03,1.73-1.43,1.02-2.12,1.61-1.39,1.08-2.05,1.7-1.66.85-2.29,1.5-1.24,1.29-1.84,1.97-.22,2.11-.79,2.82-1.83.79-2.37,1.52c-.84.99-.9.57-2,1.62-.56.53-.9,1.47-1.6,2.08-.64.56-1.83.48-2.51,1.01-.72.56-.36,2.16-1.05,2.57-.86,1.16-1.57,1.4-.9,2.32Z" fill="#a9df9f"/>
    <path d="M120.79,87.76c.79,1.07,1.31-1.39,2.6-2.38.61-.47,1.1-1.45,1.96-1.95.72-.42,1.97.02,2.84-.35.78-.33,1.64-.4,2.54-.63.83-.22,1.63-.27,2.55-.36.86-.08,1.72-1.27,2.64-1.21.85.06,1.82.17,2.73.38.83.19,1.76.48,2.63.82.79.31,1.68.68,2.5,1.13.74.41,1.06,1.62,1.82,2.17s1.94.49,2.61,1.03c.73.59,1.49,1.1,2.15,1.67.7.61.81,1.85,1.47,2.42.69.61,2.03.37,2.73.92s.67,2.11,1.44,2.6,2.01,0,2.85.38c.77.36,1.26,1.57,2.17,1.84.81.25,1.91-.55,2.85-.38.83.15,1.65.37,2.6.46.84.08,1.69.53,2.64.55.85.02,1.75.31,2.69.29.85-.02,1.75-.13,2.69-.18.86-.05,1.82.65,2.76.57.86-.08,1.71-.71,2.64-.82.86-.1,1.71-.55,2.63-.67.86-.12,1.71-.47,2.63-.61.86-.13,1.76-.19,2.67-.34.86-.14,1.71-.51,2.62-.67.86-.15,1.67-.7,2.57-.87s1.82.11,2.73-.07,1.94.62,2.84.44,1.52-1.41,2.41-1.61,1.78-.19,2.67-.39,1.65-.79,2.54-.99,1.76-.27,2.65-.47,1.97.59,2.86.38,1.47-.8,2.36-1.01c-.61-1.25-.71-.4-2.22-1.41-.63-.42-1.34-.94-2.1-1.75-.56-.6-1.86-.79-2.45-1.66-.47-.7-.95-1.58-1.42-2.49-.4-.77-1.03-1.57-1.42-2.5-.33-.81-.53-1.78-.85-2.72-.28-.84-.69-1.73-.96-2.68-.25-.89.94-2.3.56-3.1s-1.19-1.53-1.7-2.27-1.67-1-2.28-1.67-1.24-1.27-1.94-1.86-1.24-1.33-1.99-1.85-1.52-.99-2.3-1.45-1.54-.99-2.34-1.39-1.74-.59-2.57-.93-1.61-.95-2.44-1.25c-.89-.32-1.64-1.02-2.47-1.27-.93-.28-1.82-.58-2.64-.79-.99-.26-2.21.95-2.97.79-1.65-.35-1.05-1.84-2.4-2.03s-1.05-.03-2.75-.07c-.75-.02-1.69-.18-2.71-.15-.81.03-1.74.18-2.7.27-.83.07-1.75.25-2.67.38-.84.12-1.54,1.35-2.45,1.53-.84.16-1.66.48-2.55.7-.84.21-2-.69-2.88-.42s-1.6.84-2.45,1.14-1.58.81-2.42,1.16-1.53.87-2.35,1.26-1.84.29-2.64.72-1.77.53-2.54,1.01-1.01,1.71-1.76,2.22-1.31,1.18-2.03,1.73-1.43,1.02-2.12,1.61-1.39,1.08-2.05,1.7-1.66.85-2.29,1.5-1.24,1.29-1.84,1.97-.22,2.11-.79,2.82-1.83.79-2.37,1.52c-.84.99-.9.57-2,1.62-.56.53-.9,1.47-1.6,2.08-.64.56-1.83.48-2.51,1.01-.72.56-.36,2.16-1.05,2.57-.86,1.16-1.57,1.4-.9,2.32Z" fill="none" stroke="#000" stroke-linecap="round" stroke-linejoin="round"/>
  </g>
  <path d="M214.3,89.3c-1.38-.18-1.01-.4-2.6-.79-.8-.19-1.62-.51-2.56-.84-.85-.29-1.87-.09-2.71-.5s-1.72-.7-2.44-1.25c-.76-.58-1.89-.79-2.39-1.55-.7-.57-.78-1.74-1.48-2.29s-1.98-.35-2.69-.87-1.24-1.31-1.97-1.82-.84-1.97-1.59-2.45-2.3.32-3.07-.14-1.15-1.58-1.93-2-1.83-.32-2.63-.71-1.32-1.42-2.14-1.76-1.86-.13-2.7-.43-1.55-.99-2.41-1.24-1.79-.18-2.67-.38-1.6-1.16-2.48-1.31-1.79-.28-2.69-.38-1.83.42-2.73.38-1.78-.55-2.68-.54-1.71,1.44-2.61,1.5-1.81-.61-2.71-.5-1.75.22-2.65.37-1.87-.32-2.76-.13-1.45,1.52-2.33,1.75-1.83-.04-2.7.22-1.97-.32-2.83-.02-1.42,1.32-2.27,1.64-1.62.71-2.46,1.06-1.97-.06-2.79.31-1.43,1.15-2.25,1.55-1.82.35-2.62.76-1.33,1.3-2.13,1.73-1.49.98-2.27,1.43-1.09,1.65-1.87,2.11-1.93.22-2.7.69-1.18,1.46-1.94,1.95-1.87.37-2.63.87" fill="none" stroke="#000" stroke-linecap="round" stroke-linejoin="round"/>
  <g>
    <path d="M116.01,83.94c-.06-1.29-1.6-.61-2.86-1.5-.6-.42-1.08-1.4-2.01-1.72-.73-.26-1.71.18-2.65.08-.78-.08-1.65-.89-2.58-.8-.79.08-1.64.49-2.54.72-.77.2-1.75.12-2.61.45-.75.29-1.57.69-2.39,1.1-.73.36-1.32,1.13-2.1,1.59-.74.43-.92,1.81-1.69,2.3-.72.47-1.78.46-2.54.96s-1.37,1.1-2.13,1.61-2.19-.14-2.95.35-.49,2.55-1.26,3.02-2.15-.17-2.94.27-1.1,1.72-1.91,2.12-2.29-.74-3.12-.38-1.5.88-2.35,1.2-1.25,1.8-2.11,2.07-1.96-.46-2.84-.24-1.75.1-2.64.26-1.67.47-2.57.58-1.67.99-2.57,1.05-1.77.07-2.68.09-1.79.38-2.7.34-1.72-.83-2.63-.91-1.74-.26-2.64-.38-1.82.23-2.71.07-1.55-1.19-2.44-1.38-1.61-.73-2.49-.95-1.84.15-2.71-.1-1.7-.42-2.57-.7-1.57-.82-2.43-1.12-1.77-.27-2.61-.59-1.96.14-2.79-.2-1.05-2.04-1.88-2.4-1.62-.66-2.44-1.04-1.88-.13-2.7-.53-1.91-.13-2.72-.53-1.51-.96-2.31-1.38-1.45-1.34-2.24-1.77c.72-1.12,1.01,1.26,2.69,1.37.75.05,1.71-1.35,2.73-1.35.81,0,1.74,1.23,2.7,1.18.84-.04,1.74-.39,2.67-.48.85-.09,1.56-1.48,2.47-1.62.85-.13,2,1.24,2.9,1.05.85-.18,1.48-1.43,2.36-1.67s1.9.2,2.76-.08,1.18-1.86,2.03-2.2,2.18.65,3,.27,1.44-1.11,2.24-1.54,1.2-1.43,1.96-1.9,1.54-.82,2.27-1.35,1.9-.42,2.6-.99.82-1.75,1.49-2.36,1.72-.73,2.35-1.38c.71-.59,1.06-1.59,1.77-2.12s1.86-.53,2.59-1.03,1.45-1.11,2.21-1.56,1.68-.69,2.47-1.1,1.23-1.69,2.04-2.04,1.9-.21,2.74-.5,1.99.38,2.85.15,1.6-.94,2.47-1.11,1.82.24,2.71.14,1.7-1.45,2.59-1.48,1.83.29,2.72.33,1.85-.12,2.73,0,1.66,1.02,2.54,1.2,1.75.35,2.61.6,2.05-.46,2.9-.16,1.21,1.87,2.04,2.22,2.05-.14,2.85.26,1.13,1.72,1.9,2.16,2.14-.03,2.88.45,1.1,1.64,1.82,2.15c.76.54,1.39,1.18,2.07,1.71.75.59,2.49-.09,3.14.47.74.63.03,2.77.64,3.34.75.71,1.45,1.22,1.98,1.77,1.18,1.23,1.24,2.02,2.53,1.6s.23-1.23.24-2.9c0-.77.64-1.71.6-2.72-.03-.83-1.14-1.68-1.22-2.63-.07-.85-.6-1.68-.72-2.61-.11-.86.48-1.85.32-2.75s-1.04-1.59-1.25-2.47-.47-1.68-.73-2.55-.11-1.82-.44-2.66-.56-1.85-.95-2.66c1.18-.76,1.64.6,3,.25s1.04-1.58,2.4-1.93,1.37.4,2.77.49c1.31.09.55.06.95,1.71.17.72-.27,1.71-.08,2.7.15.78,0,1.68.15,2.62.13.81,1.18,1.54,1.29,2.47.1.83.64,1.67.72,2.58.08.84.54,1.71.6,2.62.05.85-.52,1.77-.49,2.68.03.85.11,1.74.11,2.64s-.95,1.72-.97,2.62,1.21,1.79,1.16,2.69-.41,1.73-.48,2.62-.11,1.75-.21,2.64-1.14,1.62-1.26,2.5-.84,1.62-.98,2.5,1.63,2.07,1.46,2.94-1.02,1.59-1.22,2.46-.8,1.14-1.02,2c-1.1.23-1.09.87-2.2.7s-1.17.21-2.28.04-2.19.11-2.77-.85c-.7-1.15,1.26-1.7,1.46-3.02s-.82-1.48-.62-2.81.88-1.23,1.08-2.55.72-1.05,1.25-2.29c.6-1.4.45-1.74.38-3.08Z" fill="#a9df9f"/>
    <path d="M116.01,83.94c-.06-1.29-1.6-.61-2.86-1.5-.6-.42-1.08-1.4-2.01-1.72-.73-.26-1.71.18-2.65.08-.78-.08-1.65-.89-2.58-.8-.79.08-1.64.49-2.54.72-.77.2-1.75.12-2.61.45-.75.29-1.57.69-2.39,1.1-.73.36-1.32,1.13-2.1,1.59-.74.43-.92,1.81-1.69,2.3-.72.47-1.78.46-2.54.96s-1.37,1.1-2.13,1.61-2.19-.14-2.95.35-.49,2.55-1.26,3.02-2.15-.17-2.94.27-1.1,1.72-1.91,2.12-2.29-.74-3.12-.38-1.5.88-2.35,1.2-1.25,1.8-2.11,2.07-1.96-.46-2.84-.24-1.75.1-2.64.26-1.67.47-2.57.58-1.67.99-2.57,1.05-1.77.07-2.68.09-1.79.38-2.7.34-1.72-.83-2.63-.91-1.74-.26-2.64-.38-1.82.23-2.71.07-1.55-1.19-2.44-1.38-1.61-.73-2.49-.95-1.84.15-2.71-.1-1.7-.42-2.57-.7-1.57-.82-2.43-1.12-1.77-.27-2.61-.59-1.96.14-2.79-.2-1.05-2.04-1.88-2.4-1.62-.66-2.44-1.04-1.88-.13-2.7-.53-1.91-.13-2.72-.53-1.51-.96-2.31-1.38-1.45-1.34-2.24-1.77c.72-1.12,1.01,1.26,2.69,1.37.75.05,1.71-1.35,2.73-1.35.81,0,1.74,1.23,2.7,1.18.84-.04,1.74-.39,2.67-.48.85-.09,1.56-1.48,2.47-1.62.85-.13,2,1.24,2.9,1.05.85-.18,1.48-1.43,2.36-1.67s1.9.2,2.76-.08,1.18-1.86,2.03-2.2,2.18.65,3,.27,1.44-1.11,2.24-1.54,1.2-1.43,1.96-1.9,1.54-.82,2.27-1.35,1.9-.42,2.6-.99.82-1.75,1.49-2.36,1.72-.73,2.35-1.38c.71-.59,1.06-1.59,1.77-2.12s1.86-.53,2.59-1.03,1.45-1.11,2.21-1.56,1.68-.69,2.47-1.1,1.23-1.69,2.04-2.04,1.9-.21,2.74-.5,1.99.38,2.85.15,1.6-.94,2.47-1.11,1.82.24,2.71.14,1.7-1.45,2.59-1.48,1.83.29,2.72.33,1.85-.12,2.73,0,1.66,1.02,2.54,1.2,1.75.35,2.61.6,2.05-.46,2.9-.16,1.21,1.87,2.04,2.22,2.05-.14,2.85.26,1.13,1.72,1.9,2.16,2.14-.03,2.88.45,1.1,1.64,1.82,2.15c.76.54,1.39,1.18,2.07,1.71.75.59,2.49-.09,3.14.47.74.63.03,2.77.64,3.34.75.71,1.45,1.22,1.98,1.77,1.18,1.23,1.24,2.02,2.53,1.6s.23-1.23.24-2.9c0-.77.64-1.71.6-2.72-.03-.83-1.14-1.68-1.22-2.63-.07-.85-.6-1.68-.72-2.61-.11-.86.48-1.85.32-2.75s-1.04-1.59-1.25-2.47-.47-1.68-.73-2.55-.11-1.82-.44-2.66-.56-1.85-.95-2.66c1.18-.76,1.64.6,3,.25s1.04-1.58,2.4-1.93,1.37.4,2.77.49c1.31.09.55.06.95,1.71.17.72-.27,1.71-.08,2.7.15.78,0,1.68.15,2.62.13.81,1.18,1.54,1.29,2.47.1.83.64,1.67.72,2.58.08.84.54,1.71.6,2.62.05.85-.52,1.77-.49,2.68.03.85.11,1.74.11,2.64s-.95,1.72-.97,2.62,1.21,1.79,1.16,2.69-.41,1.73-.48,2.62-.11,1.75-.21,2.64-1.14,1.62-1.26,2.5-.84,1.62-.98,2.5,1.63,2.07,1.46,2.94-1.02,1.59-1.22,2.46-.8,1.14-1.02,2c-1.1.23-1.09.87-2.2.7s-1.17.21-2.28.04-2.19.11-2.77-.85c-.7-1.15,1.26-1.7,1.46-3.02s-.82-1.48-.62-2.81.88-1.23,1.08-2.55.72-1.05,1.25-2.29c.6-1.4.45-1.74.38-3.08Z" fill="none" stroke="#000" stroke-linecap="round" stroke-linejoin="round"/>
  </g>
  <path d="M111.39,78.11c-1.08-.77-1.01-.35-2.54-1.07-.67-.32-1.52-.67-2.48-1.02-.75-.28-1.71-.22-2.64-.48-.79-.23-1.73-.06-2.65-.26-.82-.17-1.55-1.11-2.47-1.24-.84-.12-1.78.31-2.7.24-.85-.07-1.7-.99-2.62-1.01-.85-.02-1.76.53-2.67.55-.85.03-1.76-.16-2.67-.09-.85.07-1.74.27-2.64.39-.85.11-1.63.85-2.53,1.01s-1.67.45-2.56.65-1.7.32-2.58.55-1.54.88-2.41,1.14-1.68.4-2.53.69-2.07-.58-2.91-.26-1.47,1.08-2.3,1.43-1.71.47-2.54.84-1.27,1.42-2.08,1.81-1.96-.04-2.76.38c-.85.36-1.72.5-2.56.81s-1.73.49-2.58.77-1.23,2.22-2.08,2.47-1.99-.28-2.85-.06-1.64,1.16-2.51,1.34-1.87.14-2.75.28-1.97-.79-2.85-.69-1.71,1.44-2.59,1.51c-.93.07-1.89-.63-2.78-.6-.93.03-1.84-.84-2.72-.85-.94,0-1.81-.02-2.68-.07-.95-.05-1.81-.17-2.67-.25-.95-.09-2.01,1.15-2.85,1.03-.97-.14-1.67-1.45-2.49-1.61-1.02-.2-2.1.49-2.84.3-1.68-.42-1.33-.38-2.6-.85" fill="none" stroke="#000" stroke-linecap="round" stroke-linejoin="round"/>
  <g>
    <path d="M169.15,32.25c1.1-2.77-.67-5.72-3.13-6.99-.39-.2-.79-.36-1.2-.51.2-.13.4-.28.58-.47,1.27-1.35.51-2.93-.45-4.21-1.65-2.2-4.04-3.71-6.68-4.32.35-.12.67-.29.94-.57,1.25-1.31.43-3.35-.87-4.25-.77-.54-1.7-.8-2.61-1-1.2-.26-2.43-.44-3.66-.53-1.08-.08-2.17-.09-3.26-.03.42-.19.82-.44,1.16-.8,1.04-1.09,1.09-2.75-.26-3.6-1.22-.77-2.94-.67-4.32-.7-1.41-.03-2.84.03-4.23.27.93-1.99-1.36-2.89-2.89-3.25-3.33-.78-6.97.12-9.68,2.18-.57.43-1.07.92-1.54,1.44.18-1.34-.02-2.66-1.03-3.76-1.84-2-4.36-.65-6.11.74-.16-.01-.33.04-.45.21-.66.96-1.23,1.98-1.73,3.03-.12-1.06-.38-2.11-.95-2.95-.41-.6-.98-1.06-1.69-1.23-.96-.22-2.05-.1-3.03-.11-.88,0-1.77.05-2.5.6-.59.44-.99,1.11-1.17,1.82-.18.68-.16,1.35,0,1.99-2.09-1.53-4.68-2.39-7.3-2.25-1.69.09-3.8.64-4.03,2.63-.12,1,.29,1.96.88,2.8-2.69-1.07-5.58-1.6-8.48-1.52-1.55.05-3.23.19-4.58,1.02-1.15.71-1.88,1.98-1.51,3.34.17.62.52,1.14.96,1.6-.88-.1-1.77-.11-2.66.02-1.84.27-3.87,1.05-5.11,2.49-1.09,1.27-1.23,2.99-.12,4.29.29.35.64.64,1.02.9-2.45.19-4.87,1.26-6.36,3.2-1,1.3-1.32,3.41.59,4.06.97.33,2.11.26,3.12.33.3.02.6.04.9.06-.98.33-1.95.7-2.9,1.11-1.57.69-3.21,1.44-4.47,2.63-1.08,1.02-1.83,2.47-1.41,3.98.4,1.41,1.69,2.41,3.05,2.81,1.35.4,2.74.2,4.07-.2-2.19,1.47-5.25,2.04-6.03,4.9-.74,2.74,1.83,4.56,4.29,4.7-.9,1.15-1.45,2.68-.9,4.08.62,1.58,2.37,2.27,3.97,2.11.9-.09,1.7-.42,2.45-.88-.22.5-.37,1.03-.4,1.59-.07,1.3.54,2.75,1.78,3.31,2.31,1.04,3.92-1.33,5.31-3.02-.18,1.25-1.11,2.46-1.52,3.6-.54,1.52-.21,3.13,1.2,4.03,1.31.84,3.06.83,4.43.14.89-.45,1.62-1.11,2.25-1.86-.16.57-.32,1.14-.47,1.71.04-.02.09-.03.13-.04-.06,1.09.3,2.19,1.03,3.01.99,1.11,2.72,1.42,4.12,1.02.73-.21,1.4-.69,1.59-1.46h0c.18-.17.36-.33.51-.52.25,2.08,1.65,4.04,3.74,4.56,2.06.51,4.25-.57,5.3-2.34.47,1.73,1.42,3.37,3.27,3.72,1.44.27,2.88-.41,3.85-1.45.48-.52.84-1.11,1.14-1.74.54,1.77,1.99,3.27,3.84,3.61,2.22.4,4.39-.99,5.33-2.95.77,1.92,2.34,3.53,4.47,3.82,1.75.24,3.61-.62,4.64-2.03.08.14.17.29.28.42.78,1.01,2.02,1.45,3.27,1.27,2.14-.31,3.42-1.91,4.04-3.78.16.4.35.79.62,1.13.82,1.06,2.14,1.54,3.44,1.18,1.3-.36,2.37-1.4,2.89-2.62.11-.27.2-.54.27-.82.59.99,1.53,1.58,2.97,1.16,1.64-.48,2.65-2.18,3.24-3.66.22-.54.36-1.1.48-1.67.14.19.29.37.47.53,1.42,1.25,3.3.48,4.35-.84,1.62-2.04,1.98-4.87,1.31-7.4.13.16.26.3.42.43,1.03.83,2.51.89,3.72.42,3.14-1.23,3.15-5.25,1.66-7.77-.29-.49-.64-.94-1.01-1.37.91-.13,1.77-.64,2.35-1.39,1.14-1.48,1.07-3.55.62-5.27-.56-2.13-1.77-4.01-3.4-5.44,1.6-.02,3.1-.71,3.78-2.44ZM162.35,43.74c-.11-.08-.23-.17-.35-.26-.12.11-.22.25-.3.41-.02.04-.04.1-.05.15.01-.06.03-.11.05-.16.08-.17.19-.3.3-.41.11.08.24.18.35.26,0,0,0,0,0,0ZM125.07,7.97c-.03.07-.04.14-.04.2,0-.06,0-.13.04-.21.47-1.11,1.01-2.39,1.06-3.64-.05,1.25-.59,2.54-1.06,3.65ZM139.71,4.88c-1.45.44-2.79,1.17-3.83,2.3-.08.09-.12.19-.13.3,0-.11.05-.22.13-.3,1.04-1.13,2.38-1.86,3.83-2.3.32-.32.59-.69.65-1.05-.06.36-.34.73-.66,1.05ZM163.06,24.28c-.83-.16-1.67-.27-2.51-.34-.28-.02-.45.19-.48.42.03-.24.2-.45.48-.43.84.07,1.68.17,2.51.34.72-.04,1.38-.29,1.81-.95.09-.14.16-.29.19-.45-.03.16-.09.31-.19.46-.44.66-1.1.9-1.81.95ZM157.75,14.87c-1.36.34-2.74-.19-3.95.69-.22.05-.41.24-.4.47,0,0,0,0,0,0-.01-.23.18-.43.4-.48,1.21-.87,2.59-.35,3.95-.69.62-.15.97-.59,1.04-1.13-.07.55-.42.99-1.04,1.14ZM149.62,7.38c-.46.89-1.44,1.25-2.34,1.51-.89.25-1.78.48-2.55,1.01-.17.12-.24.29-.23.45-.01-.16.06-.34.23-.46.77-.53,1.66-.75,2.55-1.01.9-.26,1.88-.61,2.34-1.51.12-.24.18-.45.19-.64,0,.19-.06.4-.19.65ZM109.26,4.15c-.04.93.36,1.81.85,2.61.32.35.62.71.89,1.1.09.13.11.26.07.37.03-.11.02-.24-.07-.37-.27-.39-.57-.75-.89-1.1-.5-.8-.89-1.69-.85-2.62ZM98.03,5.79c-.14,1.5,1.33,2.94,2.36,3.82.11.1.16.21.16.33,0-.11-.05-.22-.16-.32-1.03-.89-2.51-2.32-2.36-3.83,0,0,0,0,0,0ZM84.27,10.35s0,0,0,0c-.18,1.71,1.92,2.79,3.2,3.4.22.1.28.29.25.47.03-.17-.03-.36-.25-.46-1.28-.61-3.39-1.69-3.2-3.41ZM77.45,19.31c-.59-.55-.82-1.19-.76-1.83-.05.63.18,1.27.76,1.82.97.91,2.34,1.35,3.6,1.66.23.08.34.26.35.44-.01-.18-.12-.36-.35-.43-1.26-.31-2.63-.75-3.6-1.66ZM72.81,27.04c-.76-.07-1.64-.3-1.55-1.25,0,0,0,0,0,0-.08.94.79,1.17,1.55,1.24,1.9.17,3.82.26,5.73.39.34.02.53.35.48.62.04-.27-.15-.59-.48-.61-1.91-.13-3.82-.21-5.73-.39ZM69.9,37.69c-1.24-.49-2.12-1.57-2.07-2.78-.05,1.21.83,2.29,2.07,2.77,1.97.77,4.14-.11,5.99-.83.36-.14.7.26.62.6.07-.33-.27-.73-.62-.59-1.85.72-4.02,1.6-5.99.83ZM68.95,44.88c-.06-.25-.07-.49-.06-.71-.02.23,0,.46.06.71.38,1.65,2.4,2.49,3.95,2.33.16-.02.3-.05.46-.08,1.49-1.19,3.4-1.77,4.9-2.94.37-.29.87.02.88.37-.01-.35-.51-.65-.88-.36-1.5,1.17-3.41,1.75-4.9,2.94-.15.03-.3.07-.46.08-1.55.16-3.57-.67-3.95-2.33ZM75.49,53.35c-1.41.2-3.15-.44-3.29-2.06-.01-.16-.01-.32,0-.48-.01.15-.01.31,0,.47.14,1.61,1.88,2.26,3.29,2.06,1.69-.24,3.03-1.53,4.22-2.64.36-.34.81-.04.83.33-.03-.37-.47-.66-.83-.33-1.19,1.11-2.53,2.4-4.22,2.64ZM82.49,56.24c-.61.69-1.42,1.52-2.44,1.37-1.12-.17-1.66-1.42-1.62-2.45,0,0,0,0,0,0-.04,1.02.5,2.27,1.62,2.44,1.02.15,1.83-.67,2.44-1.37.72-.81,1.33-1.7,2.11-2.45.27-.26.73-.15.84.22.1.36.13.71.12,1.06.02-.34-.02-.69-.12-1.05-.1-.37-.56-.48-.84-.22-.78.75-1.4,1.64-2.11,2.45ZM88.22,62.23c-1.18.62-2.84.58-3.85-.37-.58-.55-.69-1.22-.58-1.9-.11.68,0,1.34.58,1.89,1.01.95,2.67.99,3.85.37,1.58-.83,2.59-2.42,3.52-3.89.27-.42.89-.23.93.2-.05-.42-.67-.6-.93-.19-.93,1.46-1.93,3.06-3.52,3.89ZM96.33,65.23c-.14.58-.8.79-1.34.86-.72.09-1.54,0-2.16-.38-.88-.55-1.32-1.62-1.28-2.65-.03,1.02.41,2.09,1.28,2.64.62.39,1.44.48,2.16.38.53-.07,1.2-.28,1.34-.86.04-.16.13-.26.23-.31,0,0,0,0,0,0-.11.05-.2.15-.24.31ZM97.99,62.78c-.31.8-.82,1.51-1.44,2.1,0,0,0,0,0,0,.62-.59,1.13-1.3,1.44-2.1.2-.52.94-.4.99.06-.05-.45-.79-.56-.99-.05ZM115.11,64.8c-.38,1.24-.76,2.53-1.54,3.59-.75,1.01-2.06,1.84-3.36,1.53-2.01-.48-2.58-3.08-2.74-4.83-.06-.63-.98-.66-1,0-.05,2.31-2.62,4.09-4.81,3.44-1.96-.58-3.07-2.71-2.87-4.67-.2,1.95.91,4.08,2.87,4.66,2.19.65,4.76-1.13,4.81-3.44.02-.66.94-.63,1,0,.17,1.75.74,4.35,2.74,4.83,1.3.31,2.61-.52,3.36-1.53.78-1.06,1.17-2.35,1.54-3.59.18-.53.93-.4.98.06-.06-.46-.81-.58-.98-.05ZM119.06,70.34c-1.99-.43-3.34-2.48-3.16-4.45-.18,1.96,1.18,4.01,3.16,4.44,2.4.51,4.64-1.69,4.7-4-.06,2.32-2.3,4.53-4.7,4.01ZM128.71,71.19c-2.42-.47-3.9-3-3.96-5.32-.07-.62-1.01-.66-1,0h0c-.02-.66.93-.63,1,0,.06,2.33,1.54,4.85,3.96,5.32,1.72.34,3.62-.73,4.27-2.32,0,0,0,0,0,0-.64,1.6-2.55,2.66-4.27,2.32ZM133.27,67.27c-.19.38-.29.79-.3,1.19.01-.4.11-.81.3-1.19.24-.48.9-.2.93.25.02.26,0,.52-.03.77.03-.25.04-.5.03-.77-.03-.46-.69-.73-.93-.25ZM137.37,70.74c-.93.31-1.98.2-2.7-.51-.33-.33-.57-.75-.67-1.2,0,0,0,0,0,0,.1.45.34.87.67,1.2.72.72,1.77.82,2.7.51,1.97-.64,2.79-2.61,3.01-4.53-.22,1.91-1.05,3.89-3.01,4.53ZM145.13,69.3c-2.55,1.1-3.6-1.95-3.69-3.9-.03-.64-.98-.65-1,0,0,0,0,0,0,0,.02-.65.97-.64,1,0,.09,1.95,1.14,5,3.69,3.9,1.63-.7,2.17-2.22,2.3-3.84-.13,1.62-.67,3.15-2.3,3.85ZM151.1,67.08c-1.65.67-2.36-.75-2.62-2.28,0-.78-.05-1.57-.12-2.34-.06-.64-.95-.65-1,0,0,0,0,0,0,0,.05-.65.94-.64,1,0,.07.77.13,1.56.12,2.34.27,1.52.97,2.95,2.62,2.28,1.35-.55,2.14-2.19,2.57-3.49.23-.69.36-1.41.4-2.13-.05.72-.18,1.44-.4,2.14-.42,1.3-1.22,2.94-2.57,3.49ZM159.45,61.06c-.62,1.16-2.19,2.69-3.48,1.45-.5-.48-.75-1.17-.89-1.89-.01-.55-.06-1.11-.15-1.66,0,0,0,0,0-.01,0,0,0,0,0,0,0-.04,0-.09-.02-.13-.11-.55-.99-.43-.98.13,0,0,0,0,0,0-.02-.56.87-.69.98-.13,0,.04,0,.09.02.13,0,0,0,0,0,0,0,0,0,0,0,.01.1.55.14,1.1.15,1.66.13.72.39,1.41.89,1.89,1.29,1.24,2.86-.29,3.48-1.45.54-1.02.83-2.14.88-3.27-.05,1.13-.33,2.26-.88,3.28ZM165.91,54.26c-.96,1.04-2.97,1.41-4.03.31-.91-.94-1.11-2.99-2.79-2.86-.25.02-.5.24-.51.49,0-.25.26-.48.52-.5,1.69-.13,1.89,1.92,2.79,2.86,1.06,1.1,3.07.73,4.03-.31.5-.54.77-1.2.86-1.9-.1.7-.37,1.37-.87,1.91ZM164.82,45.76c-.54-.5-1.1-.98-1.67-1.44-.27-.19-.53-.39-.8-.56,0,0,0,0,0,0,.27.18.53.37.8.56.58.46,1.14.94,1.67,1.44,1.3.39,2.61-.68,3.03-1.89.12-.35.19-.71.22-1.08-.03.37-.1.73-.22,1.09-.42,1.21-1.73,2.28-3.03,1.89ZM166.86,33.39c-1.03.52-2.2.42-3.28.03-.46-.27-.93-.51-1.42-.7,0,0-.02-.01-.03-.02,0,0,0,0,0,0-.04-.02-.08-.04-.12-.05-.34-.13-.58.14-.6.43.02-.3.26-.58.61-.44.04.02.08.04.12.05,0,0,0,0,0,0,0,0,.02.01.03.02.49.2.96.44,1.42.7,1.07.39,2.25.48,3.27-.03,1.03-.52,1.52-1.54,1.59-2.61-.06,1.08-.56,2.1-1.59,2.62Z" fill="#ff9"/>
    <path d="M167.07,33.48c-1.03.52-2.2.42-3.28.03-.46-.27-.93-.51-1.42-.7,0,0-.02-.01-.03-.02,0,0,0,0,0,0-.04-.02-.08-.04-.12-.05-.55-.21-.83.62-.39.91.46.31.98.56,1.53.75,1.99,1.17,3.58,3.03,4.38,5.21.49,1.36.79,2.96.31,4.36-.42,1.21-1.73,2.28-3.03,1.89-.54-.5-1.1-.98-1.67-1.44-.27-.19-.53-.39-.8-.56,0,0,0-.01.01-.02-.11-.08-.23-.18-.35-.26-.12.11-.22.24-.3.41-.09.18-.1.47.08.61.65.51,1.32,1.03,1.95,1.59-.01.16.05.32.24.42.11.06.23.09.35.13.69.68,1.31,1.42,1.77,2.27.86,1.59,1.14,3.91-.18,5.34-.96,1.04-2.97,1.41-4.03.31-.91-.94-1.11-2.99-2.79-2.86-.33.03-.68.42-.43.75,1.84,2.43,2.24,5.87.78,8.59-.62,1.16-2.19,2.69-3.48,1.45-.5-.48-.75-1.17-.89-1.89-.01-.55-.06-1.11-.15-1.66,0,0,0,0,0-.01,0,0,0,0,0,0,0-.04,0-.09-.02-.13-.11-.56-1-.43-.98.13.02.56.06,1.18.17,1.78,0,.97-.12,1.93-.42,2.86-.42,1.3-1.22,2.94-2.57,3.49-1.65.67-2.36-.75-2.62-2.28,0-.78-.05-1.57-.12-2.34-.06-.64-.95-.65-1,0-.05.65-.02,1.47.11,2.28-.03,1.87-.47,3.75-2.33,4.55-2.55,1.1-3.6-1.95-3.69-3.9-.03-.64-.98-.65-1,0-.07,2.13-.83,4.6-3.08,5.34-.93.31-1.98.2-2.7-.51-.33-.33-.57-.75-.67-1.2.16-.47.23-.98.2-1.5-.03-.46-.69-.73-.93-.25-.26.51-.34,1.06-.29,1.6-.64,1.6-2.55,2.66-4.27,2.32-2.42-.47-3.9-3-3.96-5.32-.07-.63-1.02-.66-1,0,.26,2.48-2.12,5.02-4.68,4.47-2.27-.49-3.72-3.1-2.99-5.28.19-.62-.76-.87-.96-.27-.38,1.24-.76,2.53-1.54,3.59-.75,1.01-2.06,1.84-3.36,1.53-2.01-.48-2.58-3.08-2.74-4.83-.06-.63-.98-.66-1,0-.05,2.31-2.62,4.09-4.81,3.44-2.24-.66-3.37-3.35-2.7-5.49.2-.63-.73-.85-.96-.27-.31.8-.82,1.51-1.44,2.1,0,.01.01.03.02.04-.11.05-.2.15-.24.31-.14.58-.8.79-1.34.86-.72.09-1.54,0-2.16-.38-1-.63-1.44-1.93-1.24-3.07.35-1.3.71-2.6,1.06-3.9.15-.56-.61-.86-.91-.39-.93,1.46-1.93,3.06-3.52,3.89-1.18.62-2.84.58-3.85-.37-1.17-1.1-.43-2.68.16-3.87.63-1.25,1.31-2.56.9-3.99-.1-.37-.56-.48-.84-.22-.78.75-1.4,1.64-2.11,2.45-.61.69-1.42,1.52-2.44,1.37-1.12-.17-1.66-1.42-1.62-2.45.06-1.45,1.11-2.69,1.99-3.75.4-.49-.23-1.15-.71-.71-1.19,1.11-2.53,2.4-4.22,2.64-1.41.2-3.15-.44-3.29-2.06-.11-1.28.68-2.44,1.64-3.26,1.98-.49,3.61-1.85,5.13-3.15.5-.42-.21-1.09-.71-.71-1.5,1.17-3.41,1.75-4.9,2.94-.15.03-.3.07-.46.08-1.55.16-3.57-.67-3.95-2.33-.45-1.96,1.61-3.38,3.1-4.14,1.63-.84,3.35-1.56,4.4-3.14.23-.35-.16-.89-.56-.73-1.85.72-4.02,1.6-5.99.83-1.65-.65-2.67-2.36-1.69-4.01.93-1.56,2.79-2.41,4.37-3.14,1.96-.91,4-1.61,6.1-2.13.57-.14.41-.95-.13-.98-1.91-.13-3.82-.21-5.73-.39-.76-.07-1.64-.3-1.55-1.25.07-.77.59-1.43,1.13-1.96,2.19-2.12,5.51-2.84,8.39-1.91.63.16.88-.77.27-.96-1.26-.31-2.63-.75-3.6-1.66-1.17-1.1-.93-2.56.2-3.6,2.42-2.22,6.44-2.42,9.32-1.08.58.27,1.09-.58.5-.86-1.28-.61-3.39-1.69-3.2-3.41.18-1.65,2.3-2.18,3.66-2.33,4.08-.45,8.26.42,11.86,2.38.48.26,1.05-.4.61-.79-1.03-.89-2.51-2.32-2.36-3.83.18-1.77,2.65-1.84,3.98-1.79,2.76.11,5.44,1.36,7.31,3.39.17.27.35.54.53.8.08.11.17.16.28.19,0,0,0,0,0,0,.37.52,1.24.02.86-.5-.27-.39-.57-.75-.89-1.1-.57-.92-1-1.94-.81-3.01.11-.59.39-1.18.88-1.54.65-.47,1.54-.37,2.29-.37.78,0,1.69-.12,2.45.1.57.16.95.6,1.21,1.12.65,1.27.7,2.88.71,4.27,0,.58.8.66.98.13.56-1.59,1.32-3.09,2.25-4.49.06-.02.13-.05.19-.1,1.42-1.19,3.85-2.81,5.27-.71,1.21,1.79.27,4.03-.48,5.8-.25.59.72.85.96.27,1.1-2.6,3.4-4.58,6.03-5.54,1.32-.48,2.72-.73,4.13-.68.69.02,1.37.12,2.04.3.62.16,1.57.37,1.98.9.4.52,0,1.15-.5,1.67-1.45.44-2.79,1.17-3.83,2.3-.32.35-.01.99.49.84,1-.31,1.94-.76,2.79-1.38.36-.26.74-.56,1.08-.89,1.92-.53,4.04-.54,5.98-.46,1.07.04,4.41.13,3.4,2.08-.46.89-1.44,1.25-2.34,1.51-.89.25-1.78.48-2.55,1.01-.47.32-.18,1.02.39.91,2.06-.4,4.15-.55,6.25-.45,1.06.05,2.12.17,3.17.35.89.16,1.82.32,2.65.7.75.35,1.42.9,1.59,1.74.17.81-.19,1.51-1.01,1.72-1.36.34-2.74-.19-3.95.69-.22.05-.41.24-.4.48.01.27.22.5.5.5h1.06c.29.02.58.03.87.05.07-.09.25-.15.49-.21.07.04.14.08.24.08,2.61.21,5.08,1.43,6.87,3.35.75.81,2.2,2.37,1.44,3.52-.44.66-1.1.9-1.81.95-.83-.16-1.67-.27-2.51-.34-.56-.04-.68.85-.13.98.79.19,1.66.36,2.5.35,2.49.52,4.91,1.71,5.45,4.42.28,1.42-.14,3.01-1.51,3.7ZM169.36,32.35c1.1-2.77-.67-5.72-3.13-6.99-.39-.2-.79-.36-1.2-.51.2-.13.4-.28.58-.47,1.27-1.35.51-2.93-.45-4.21-1.65-2.2-4.04-3.71-6.68-4.32.35-.12.67-.29.94-.57,1.25-1.31.43-3.35-.87-4.25-.77-.54-1.7-.8-2.61-1-1.2-.26-2.43-.44-3.66-.53-1.08-.08-2.17-.09-3.26-.03.42-.19.82-.44,1.16-.8,1.04-1.09,1.09-2.75-.26-3.6-1.22-.77-2.94-.67-4.32-.7-1.41-.03-2.84.03-4.23.27.93-1.99-1.36-2.89-2.89-3.25-3.33-.78-6.97.12-9.68,2.18-.57.43-1.07.92-1.54,1.44.18-1.34-.02-2.66-1.03-3.76-1.84-2-4.36-.65-6.11.74-.16-.01-.33.04-.45.21-.66.96-1.23,1.98-1.73,3.03-.12-1.06-.38-2.11-.95-2.95-.41-.6-.98-1.06-1.69-1.23-.96-.22-2.05-.1-3.03-.11-.88,0-1.77.05-2.5.6-.59.44-.99,1.11-1.17,1.82-.18.68-.16,1.35,0,1.99-2.09-1.53-4.68-2.39-7.3-2.25-1.69.09-3.8.64-4.03,2.63-.12,1,.29,1.96.88,2.8-2.69-1.07-5.58-1.6-8.48-1.52-1.55.05-3.23.19-4.58,1.02-1.15.71-1.88,1.98-1.51,3.34.17.62.52,1.14.96,1.6-.88-.1-1.77-.11-2.66.02-1.84.27-3.87,1.05-5.11,2.49-1.09,1.27-1.23,2.99-.12,4.29.29.35.64.64,1.02.9-2.45.19-4.87,1.26-6.36,3.2-1,1.3-1.32,3.41.59,4.06.97.33,2.11.26,3.12.33.3.02.6.04.9.06-.98.33-1.95.7-2.9,1.11-1.57.69-3.21,1.44-4.47,2.63-1.08,1.02-1.83,2.47-1.41,3.98.4,1.41,1.69,2.41,3.05,2.81,1.35.4,2.74.2,4.07-.2-2.19,1.47-5.25,2.04-6.03,4.9-.74,2.74,1.83,4.56,4.29,4.7-.9,1.15-1.45,2.68-.9,4.08.62,1.58,2.37,2.27,3.97,2.11.9-.09,1.7-.42,2.45-.88-.22.5-.37,1.03-.4,1.59-.07,1.3.54,2.75,1.78,3.31,2.31,1.04,3.92-1.33,5.31-3.02-.18,1.25-1.11,2.46-1.52,3.6-.54,1.52-.21,3.13,1.2,4.03,1.31.84,3.06.83,4.43.14.89-.45,1.62-1.11,2.25-1.86-.16.57-.32,1.14-.47,1.71.04-.02.09-.03.13-.04-.06,1.09.3,2.19,1.03,3.01.99,1.11,2.72,1.42,4.12,1.02.73-.21,1.4-.69,1.59-1.46h0c.18-.17.36-.33.51-.52.25,2.08,1.65,4.04,3.74,4.56,2.06.51,4.25-.57,5.3-2.34.47,1.73,1.42,3.37,3.27,3.72,1.44.27,2.88-.41,3.85-1.45.48-.52.84-1.11,1.14-1.74.54,1.77,1.99,3.27,3.84,3.61,2.22.4,4.39-.99,5.33-2.95.77,1.92,2.34,3.53,4.47,3.82,1.75.24,3.61-.62,4.64-2.03.08.14.17.29.28.42.78,1.01,2.02,1.45,3.27,1.27,2.14-.31,3.42-1.91,4.04-3.78.16.4.35.79.62,1.13.82,1.06,2.14,1.54,3.44,1.18,1.3-.36,2.37-1.4,2.89-2.62.11-.27.2-.54.27-.82.59.99,1.53,1.58,2.97,1.16,1.64-.48,2.65-2.18,3.24-3.66.22-.54.36-1.1.48-1.67.14.19.29.37.47.53,1.42,1.25,3.3.48,4.35-.84,1.62-2.04,1.98-4.87,1.31-7.4.13.16.26.3.42.43,1.03.83,2.51.89,3.72.42,3.14-1.23,3.15-5.25,1.66-7.77-.29-.49-.64-.94-1.01-1.37.91-.13,1.77-.64,2.35-1.39,1.14-1.48,1.07-3.55.62-5.27-.56-2.13-1.77-4.01-3.4-5.44,1.6-.02,3.1-.71,3.78-2.44Z"/>
  </g>
</svg>