<?xml version="1.0" encoding="UTF-8"?>
<svg id="_우편함" data-name="우편함" xmlns="http://www.w3.org/2000/svg" width="214.5" height="103.56" viewBox="0 0 214.5 103.56">
  <path d="M86.82,35.01c12.67-4.7,59.92-19.61,95.15,3.98,2.46,1.65,4.59,3.64,6.22,5.91,20.55,28.61-7.02,44.88-17.78,49.87-2.42,1.12-5.04,1.87-7.76,2.27-12.12,1.77-52.01,6.4-100.76-.71-7.78-1.13-14.57-5.24-18.18-11.19-.07-.11-.14-.23-.21-.34-5.29-8.96-2.24-19.86,7-26.12l30.7-20.79c1.72-1.16,3.6-2.14,5.62-2.88Z" fill="#ededed" stroke="#000" stroke-miterlimit="10" stroke-width="2"/>
  <path d="M91.27,20.98l-7.09-17.89-6,15.12c-2.69-.3-5.46-.47-8.28-.47-3.26,0-6.44.21-9.51.61l-6.05-15.26-7.29,18.38c-14.57,5.1-24.45,14.92-24.45,26.2,0,16.52,21.18,29.92,47.3,29.92s47.3-13.39,47.3-29.92c0-11.66-10.55-21.75-25.92-26.69Z" fill="#ededed" stroke="#000" stroke-miterlimit="10" stroke-width="2"/>
  <circle cx="69.9" cy="56.26" r="1.28" stroke="#000" stroke-miterlimit="10"/>
  <line x1="33.37" y1="48.62" x2="43.93" y2="48.62" stroke="#000" stroke-miterlimit="10"/>
  <line x1="57.31" y1="37.8" x2="63.96" y2="37.8" stroke="#000" stroke-linecap="round" stroke-miterlimit="10" stroke-width="2"/>
  <line x1="75.58" y1="37.8" x2="82.23" y2="37.8" stroke="#000" stroke-linecap="round" stroke-miterlimit="10" stroke-width="2"/>
  <line x1="33.37" y1="53.08" x2="43.93" y2="53.08" stroke="#000" stroke-miterlimit="10"/>
  <line x1="95.87" y1="48.62" x2="106.42" y2="48.62" stroke="#000" stroke-miterlimit="10"/>
  <line x1="95.87" y1="53.08" x2="106.42" y2="53.08" stroke="#000" stroke-miterlimit="10"/>
  <path d="M191.64,78.92s4.75,18.06-12.23,18.3-37.33.73-57.91-10.81c0,0-5.2-10.75,9.91-6.31s14.22,8.88,44.22,8.11c0,0,6.09,1.67,9.65-2s6.36-7.29,6.36-7.29Z" fill="#ededed" stroke="#000" stroke-miterlimit="10" stroke-width="2"/>
</svg>