<?xml version="1.0" encoding="UTF-8"?>
<svg id="_우편함" data-name="우편함" xmlns="http://www.w3.org/2000/svg" width="222" height="104.77" viewBox="0 0 222 104.77">
  <path d="M205.07,68.44c-.56,0-1.11.03-1.65.09-4.11-5.67-10.78-9.37-18.32-9.37-9.97,0-18.42,6.45-21.44,15.4-2.85-3.71-7.33-6.12-12.37-6.12-.56,0-1.11.03-1.65.09-4.11-5.67-10.78-9.37-18.32-9.37-9.97,0-18.42,6.45-21.44,15.4-2.85-3.71-7.33-6.12-12.37-6.12-.56,0-1.11.03-1.65.09-4.11-5.67-10.78-9.37-18.32-9.37-9.97,0-18.42,6.45-21.44,15.4-2.85-3.71-7.33-6.12-12.37-6.12-.56,0-1.11.03-1.65.09-4.11-5.67-10.78-9.37-18.32-9.37-12.5,0-22.64,10.14-22.64,22.64s10.14,22.64,22.64,22.64c5.72,0,10.93-2.14,14.91-5.63,1.59.55,3.29.86,5.06.86,5.79,0,10.84-3.16,13.53-7.85,3.7,7.47,11.38,12.62,20.28,12.62,5.72,0,10.93-2.14,14.91-5.63,1.59.55,3.29.86,5.06.86,5.79,0,10.84-3.16,13.53-7.85,3.7,7.47,11.38,12.62,20.28,12.62,5.72,0,10.93-2.14,14.91-5.63,1.59.55,3.29.86,5.06.86,5.79,0,10.84-3.16,13.53-7.85,3.7,7.47,11.38,12.62,20.28,12.62,5.72,0,10.93-2.14,14.91-5.63,1.59.55,3.29.86,5.06.86,8.62,0,15.61-6.99,15.61-15.61s-6.99-15.61-15.61-15.61Z" fill="#fff" stroke="#000" stroke-miterlimit="10" stroke-width="2"/>
  <circle cx="115.37" cy="46.08" r="36.48" fill="#ffabe3" stroke="#000" stroke-miterlimit="10" stroke-width="2"/>
  <path d="M98.99,33.37s-11.35-13.9-16.79-30.22l3.68-2.59,16.33,31.98"/>
</svg>