<?xml version="1.0" encoding="UTF-8"?>
<svg id="_우편함" data-name="우편함" xmlns="http://www.w3.org/2000/svg" width="214.5" height="103.56" viewBox="0 0 214.5 103.56">
  <g>
    <path d="M150.77,81.11c-.33,0-.64-.16-.82-.43l-6.14-8.9c-.3-.43-.21-1.01.19-1.34,18.08-14.74,39.08-22.48,62.44-22.99h.02c.51,0,.94.39.99.9.05.52-.3.99-.81,1.09-.42.08-41.62,8.08-55.01,31.18-.17.3-.48.48-.83.5-.01,0-.03,0-.04,0Z" fill="#a9df9f"/>
    <path d="M206.46,48.45s-41.91,7.89-55.69,31.67l-6.14-8.9c17.98-14.67,38.59-22.26,61.83-22.77M206.47,46.45s-.03,0-.04,0c-23.59.52-44.8,8.33-63.05,23.22-.81.66-.97,1.83-.38,2.69l6.14,8.9c.37.54.99.86,1.65.86.03,0,.05,0,.08,0,.68-.03,1.31-.4,1.65-1,13.15-22.7,53.92-30.63,54.33-30.7,1.02-.19,1.73-1.14,1.62-2.17-.11-1.02-.97-1.79-1.99-1.79h0ZM206.46,50.45h0,0Z"/>
  </g>
  <g>
    <path d="M147.05,82.26c-.21,0-.41-.06-.58-.19l-8.79-6.3c-.42-.3-.54-.88-.27-1.33,12.02-19.99,29.18-34.37,50.99-42.75.12-.04.24-.07.36-.07.37,0,.73.21.9.57.23.47.05,1.03-.39,1.3-.36.21-36.44,21.68-41.22,47.95-.06.34-.29.62-.61.75-.12.05-.25.07-.38.07Z" fill="#a9df9f"/>
    <path d="M188.75,32.63s-36.78,21.6-41.7,48.63l-8.79-6.3c11.96-19.88,28.79-33.99,50.49-42.34M188.75,30.63c-.24,0-.48.04-.72.13-22.02,8.47-39.34,22.99-51.48,43.17-.54.89-.3,2.05.55,2.66l8.79,6.3c.34.25.75.37,1.17.37.25,0,.51-.05.75-.15.64-.26,1.09-.82,1.22-1.5,4.7-25.81,40.39-47.06,40.75-47.27.9-.53,1.24-1.66.79-2.59-.34-.71-1.05-1.13-1.8-1.13h0ZM188.75,34.63h0,0Z"/>
  </g>
  <path d="M143.78,77.34L123.77,12.55c-1.64-6.31-7.36-10.97-14.18-10.97-6.47,0-11.94,4.19-13.9,10,0,.03-.02.05-.03.07v.04c-.06.13-.1.26-.14.39l-20.16,65.25c-1,3.25,1.42,6.54,4.82,6.54h58.76c3.4,0,5.82-3.29,4.82-6.54Z" fill="#ffabe3" stroke="#000" stroke-miterlimit="10" stroke-width="2"/>
  <path d="M191.67,69.31c-.5,0-1,.03-1.49.08-3.72-5.12-9.73-8.46-16.54-8.46-9,0-16.63,5.83-19.36,13.91-2.58-3.35-6.62-5.53-11.17-5.53-.5,0-1,.03-1.49.08-3.72-5.12-9.73-8.46-16.54-8.46-9,0-16.63,5.83-19.36,13.91-2.58-3.35-6.62-5.53-11.17-5.53-.5,0-1,.03-1.49.08-3.72-5.12-9.73-8.46-16.54-8.46-9,0-16.63,5.83-19.36,13.91-2.58-3.35-6.62-5.53-11.17-5.53-.5,0-1,.03-1.49.08-3.72-5.12-9.73-8.46-16.54-8.46-11.29,0-20.44,9.15-20.44,20.44,0,.51.04,1,.08,1.5-3.08.55-5.41,3.23-5.41,6.46,0,3.63,2.94,6.57,6.57,6.57,1.4,0,2.69-.44,3.75-1.18,3.75,4.34,9.28,7.1,15.47,7.1,5.16,0,9.87-1.93,13.46-5.09,1.44.49,2.97.77,4.57.77,5.23,0,9.79-2.86,12.22-7.09,3.34,6.75,10.28,11.4,18.31,11.4,5.16,0,9.87-1.93,13.46-5.09,1.44.49,2.97.77,4.57.77,5.23,0,9.79-2.86,12.22-7.09,3.34,6.75,10.28,11.4,18.31,11.4,5.16,0,9.87-1.93,13.46-5.09,1.44.49,2.97.77,4.57.77,5.23,0,9.79-2.86,12.22-7.09,3.34,6.75,10.27,11.4,18.31,11.4,5.16,0,9.87-1.93,13.46-5.09,1.44.49,2.97.77,4.57.77,7.78,0,14.1-6.31,14.1-14.1s-6.31-14.1-14.1-14.1Z" fill="#fff" stroke="#000" stroke-miterlimit="10" stroke-width="2"/>
  <circle cx="205.77" cy="89.33" r="6.57" fill="#fff" stroke="#000" stroke-miterlimit="10" stroke-width="2"/>
</svg>