<svg width="350" height="409" viewBox="0 0 350 409" fill="none" xmlns="http://www.w3.org/2000/svg">
<path d="M42.8959 387.173L33.9961 177.33L172.19 28.6914L315.08 177.33L309.642 387.173H42.8959Z" fill="white" stroke="#1B1B1B" stroke-width="1.97773"/>
<path d="M59.2246 181.276L172.578 70.875L288.95 181.276L287.324 372.189H63.7968L59.2246 181.276Z" fill="#DADADA"/>
<rect x="59.6309" y="203.101" width="229.586" height="14.5033" fill="#FFFEFC"/>
<rect x="59.6309" y="289.371" width="229.586" height="14.5033" fill="#FFFEFC"/>
<ellipse cx="174.42" cy="146.166" rx="26.026" ry="27.0729" fill="#F0F0F0"/>
<rect x="148.395" y="144.232" width="52.0519" height="3.86755" fill="#B8B8B8"/>
<rect x="176.277" y="119.093" width="54.1458" height="3.71799" transform="rotate(90 176.277 119.093)" fill="#B8B8B8"/>
<path d="M310.35 382.799H42.6543V408.001H310.35V382.799Z" fill="white" stroke="#1B1B1B" stroke-width="1.97773"/>
<path d="M171.633 2L2 176.866L20.3576 194.029L171.633 43.0928L328.254 194.029L348.47 176.866L171.633 2Z" fill="white" stroke="#1B1B1B" stroke-width="1.859"/>
</svg>
