<?xml version="1.0" encoding="UTF-8"?>
<svg id="_레이어_5" data-name="레이어 5" xmlns="http://www.w3.org/2000/svg" width="307.56" height="286.22" viewBox="0 0 307.56 286.22">
  <g>
    <polygon points="214.13 272.17 212.75 272.51 211.09 272.47 209.63 271.45 207.93 271.6 206.48 270.58 204.7 271.1 203.16 270.52 201.54 270.27 200.03 269.5 198.44 269.16 196.7 269.49 195.26 268.43 193.49 268.87 192.12 267.47 190.38 267.78 188.91 266.86 187.1 267.55 185.66 266.43 183.96 266.61 182.39 266.13 180.92 265.19 179.16 265.65 177.6 265.14 175.97 264.95 174.5 264.05 172.83 264.05 171.18 264.02 169.66 263.32 168.1 262.84 166.44 262.82 164.78 262.79 163.36 261.61 161.59 262.16 160.02 261.67 158.55 260.76 156.99 260.25 155.41 259.84 153.69 260.09 152.2 259.22 150.56 259.09 148.87 259.19 147.34 258.54 145.65 258.64 144.16 257.76 142.46 257.92 140.88 257.52 139.37 256.74 137.6 257.24 135.99 256.97 134.45 256.38 132.9 255.83 131.23 255.82 129.81 254.66 128.19 254.41 126.49 254.59 125.03 253.59 123.29 253.94 121.68 253.66 120.11 253.18 118.53 252.76 116.85 252.8 115.24 252.5 113.81 251.36 112.24 250.88 110.51 251.18 108.89 250.94 107.34 250.4 105.81 249.74 104.01 250.34 102.46 249.77 101.03 248.62 99.44 248.27 97.77 248.25 96.19 247.8 94.46 248.13 93.03 246.94 91.4 246.78 89.61 247.34 88.05 246.81 86.6 245.76 84.87 246.06 83.41 245.07 81.64 245.51 80.11 244.86 78.44 244.86 76.81 244.65 75.39 243.44 73.67 243.67 72.13 243.04 70.45 243.11 68.89 242.54 67.36 241.88 65.61 242.24 64.2 241 62.6 240.68 60.97 240.49 59.28 240.55 57.77 239.79 56 240.24 54.52 239.33 52.86 239.29 51.26 238.95 49.76 238.13 48.04 238.36 46.42 238.16 44.97 237.07 43.2 237.56 41.64 237.04 40.03 236.74 38.53 235.92 36.81 236.13 35.27 235.51 33.74 234.82 32.1 234.65 30.54 234.13 28.87 234.14 27.34 233.44 25.64 233.57 24 233.4 22.39 233.11 20.85 232.44 19.2 232.34 17.6 232.01 15.98 231.71 14.42 231.18 12.82 230.79 11.19 230.61 9.57 230.34 7.87 230.42 6.36 229.62 4.39 229.38 4.99 227.51 6.33 226.3 7.11 224.85 6.85 222.97 8.46 221.87 8.46 220.1 8.87 218.5 10.35 217.35 9.94 215.4 11.54 214.3 11.47 212.49 12.41 211.11 13.5 209.79 13.46 208 13.86 206.4 14.63 204.95 15.73 203.63 15.89 201.92 16.64 200.46 17.2 198.92 17.71 197.36 18.23 195.81 18.89 194.31 20.23 193.1 20.61 191.48 21.25 189.98 22.09 188.56 22.47 186.94 23.03 185.4 23.97 184.03 24.13 182.32 25.15 180.97 25.25 179.24 25.86 177.72 26.98 176.42 27.24 174.75 28.38 173.46 28.71 171.82 29.27 170.28 30.63 169.08 30.51 167.26 31.89 166.07 31.69 164.21 32.81 162.91 33.48 161.43 33.69 159.75 35.08 158.56 35.38 156.92 35.58 155.23 36.76 153.95 37.5 152.49 37.35 150.66 38.86 149.52 39 147.81 39.19 146.12 40.35 144.83 40.89 143.29 41.57 141.8 42.52 140.42 42.33 138.57 43.03 137.08 44.33 135.85 44.96 134.34 44.8 132.5 45.98 131.22 46.46 129.65 47.57 128.34 47.89 126.7 48.6 125.23 49.62 123.88 49.33 121.99 50.81 120.84 50.97 119.13 52.19 117.87 52.79 116.35 52.5 114.45 53.81 113.23 54.55 111.76 54.74 110.06 55.91 108.78 56.47 107.23 56.45 105.45 56.95 103.89 57.88 102.5 58.46 100.97 58.95 99.4 59.97 98.06 60.48 96.5 61.47 95.13 61.61 93.42 62.32 91.94 62.89 90.4 63.69 88.96 64.12 87.36 65.28 86.07 65.52 84.4 66.17 82.89 66.37 81.2 67.25 79.8 68.19 78.41 69.04 76.99 69.71 75.5 70.47 74.03 71.21 72.57 71.84 71.06 72.24 69.45 73 67.99 73.17 66.28 74.18 64.93 74.87 63.44 75.55 61.94 75.4 60.11 76.88 58.95 77.06 57.25 78.08 55.9 78.12 54.13 78.87 52.68 79.07 50.99 80.63 49.86 80.59 48.06 81.77 46.78 82.27 45.22 82.76 43.65 83.05 41.99 84.43 40.8 85.18 39.33 85.24 37.58 85.65 35.97 87.04 34.78 87.24 33.09 87.4 31.37 88.53 30.06 89.15 28.55 89.29 26.82 90.11 25.39 91.48 24.18 91.53 22.42 92 20.84 92.41 19.22 93.16 17.76 93.77 16.24 95.26 15.08 95.14 13.25 95.68 11.69 96.47 10.24 97.68 8.97 98.43 7.49 98.46 5.72 99.04 3.79 100.88 4.76 102.44 5.33 104.14 5.21 105.84 5.09 107.32 6.07 109.02 5.95 110.53 6.73 112.2 6.8 113.82 7.04 115.44 7.31 117.01 7.83 118.64 8.02 120.15 8.82 121.81 8.89 123.31 9.73 125.1 9.12 126.52 10.37 128.3 9.84 129.71 11.06 131.47 10.67 132.99 11.36 134.65 11.42 136.2 12.03 137.82 12.27 139.47 12.38 141.03 12.92 142.54 13.72 144.23 13.59 145.87 13.78 147.41 14.45 149.01 14.77 150.66 14.91 152.3 15.11 153.87 15.63 155.39 16.41 157.15 16 158.7 16.61 160.32 16.84 161.9 17.3 163.49 17.72 165.15 17.8 166.61 18.82 168.37 18.38 169.88 19.2 171.55 19.2 173.19 19.39 174.66 20.36 176.47 19.7 177.87 21.04 179.5 21.29 181.17 21.3 182.83 21.42 184.46 21.62 185.97 22.45 187.67 22.32 189.23 22.87 190.92 22.83 192.48 23.36 194.11 23.58 195.63 24.37 197.16 25.06 198.83 25.07 200.43 25.44 202.01 25.92 203.73 25.75 205.31 26.2 207.01 26.09 208.58 26.62 210.04 27.69 211.65 27.99 213.26 28.34 214.87 28.65 216.64 28.21 218.08 29.36 219.7 29.65 221.33 29.9 223.11 29.39 224.61 30.27 226.15 30.9 227.79 31.08 229.41 31.37 230.93 32.14 232.55 32.45 234.28 32.21 235.8 32.96 237.45 33.1 239.09 33.3 240.59 34.15 242.41 33.46 243.93 34.23 245.63 34.14 247.15 34.92 248.83 34.93 250.48 35.04 251.96 36 253.58 36.26 255.22 36.45 256.82 36.82 258.35 37.51 259.95 37.9 261.64 37.89 263.34 37.78 264.85 38.56 266.36 39.39 268.13 38.97 269.69 39.54 271.33 39.72 272.82 40.68 274.43 41 276.09 41.12 277.67 41.62 279.29 41.94 281.05 41.53 282.56 42.36 284.14 42.87 285.81 42.91 287.49 42.92 288.97 43.93 290.59 44.23 292.21 44.56 293.84 44.81 295.81 44.77 295.32 46.62 294.71 48.13 294.11 49.65 292.89 50.94 292.66 52.59 291.92 54.06 291.17 55.52 291.08 57.22 290.93 58.9 289.67 60.18 289.81 61.97 288.93 63.38 288.73 65.05 288.15 66.57 286.81 67.83 286.71 69.53 286.15 71.06 285.55 72.58 285.06 74.14 284.77 75.77 284.34 77.35 282.98 78.59 283.02 80.34 281.88 81.67 281.38 83.22 281.38 84.95 280.83 86.49 280.29 88.03 279.92 89.63 278.59 90.89 279.02 92.77 278.52 94.33 277.51 95.7 276.4 97.04 276.49 98.8 276.15 100.41 274.76 101.65 274.85 103.41 274.31 104.95 273.76 106.48 273.34 108.06 272.56 109.51 272.21 111.12 271.52 112.6 270.52 113.97 269.98 115.5 270 117.24 269.4 118.75 268.38 120.12 267.96 121.69 267.1 123.12 266.77 124.73 266.94 126.52 266.38 128.05 264.89 129.25 264.6 130.88 263.79 132.32 263.96 134.11 262.95 135.49 262.49 137.06 262.36 138.75 261.68 140.24 261.42 141.88 260.17 143.16 260.04 144.85 258.96 146.2 258.36 147.71 258.13 149.36 257.47 150.86 257.09 152.45 256.63 154.02 255.88 155.48 255.93 157.23 254.7 158.52 254.92 160.34 253.51 161.57 253.74 163.38 253.04 164.87 252.72 166.49 251.77 167.89 250.86 169.3 250.22 170.8 250.44 172.61 249.85 174.13 248.8 175.49 247.93 176.91 248.22 178.75 246.82 179.98 246.29 181.53 246.32 183.28 245.45 184.7 245.01 186.28 244.99 188.01 244.01 189.4 243.43 190.92 242.68 192.39 242.9 194.2 241.98 195.61 241.11 197.03 240.31 198.48 240.58 200.31 239.74 201.75 239.53 203.41 238.3 204.71 237.88 206.29 237.97 208.06 237.22 209.53 235.99 210.83 235.36 212.34 234.85 213.89 234.41 215.47 233.92 217.03 233.34 218.56 233.54 220.37 232.55 221.76 231.76 223.2 230.88 224.62 230.66 226.28 230.78 228.06 230.32 229.63 229.48 231.07 228.16 232.33 228.63 234.23 228 235.74 227.54 237.31 226.67 238.74 225.77 240.16 225.43 241.77 224.5 243.17 223.92 244.7 223.76 246.39 223.29 247.96 222.91 249.56 222.25 251.06 221.48 252.53 221.53 254.28 220.09 255.51 219.85 257.17 219.31 258.71 219.21 260.41 217.89 261.68 217.84 263.4 217.04 264.86 216.68 266.47 216.19 268.04 215.78 269.63 215.07 271.15 214.13 272.17" fill="#fff"/>
    <polygon points="214.13 272.17 212.75 272.51 211.09 272.47 209.63 271.45 207.93 271.6 206.48 270.58 204.7 271.1 203.16 270.52 201.54 270.27 200.03 269.5 198.44 269.16 196.7 269.49 195.26 268.43 193.49 268.87 192.12 267.47 190.38 267.78 188.91 266.86 187.1 267.55 185.66 266.43 183.96 266.61 182.39 266.13 180.92 265.19 179.16 265.65 177.6 265.14 175.97 264.95 174.5 264.05 172.83 264.05 171.18 264.02 169.66 263.32 168.1 262.84 166.44 262.82 164.78 262.79 163.36 261.61 161.59 262.16 160.02 261.67 158.55 260.76 156.99 260.25 155.41 259.84 153.69 260.09 152.2 259.22 150.56 259.09 148.87 259.19 147.34 258.54 145.65 258.64 144.16 257.76 142.46 257.92 140.88 257.52 139.37 256.74 137.6 257.24 135.99 256.97 134.45 256.38 132.9 255.83 131.23 255.82 129.81 254.66 128.19 254.41 126.49 254.59 125.03 253.59 123.29 253.94 121.68 253.66 120.11 253.18 118.53 252.76 116.85 252.8 115.24 252.5 113.81 251.36 112.24 250.88 110.51 251.18 108.89 250.94 107.34 250.4 105.81 249.74 104.01 250.34 102.46 249.77 101.03 248.62 99.44 248.27 97.77 248.25 96.19 247.8 94.46 248.13 93.03 246.94 91.4 246.78 89.61 247.34 88.05 246.81 86.6 245.76 84.87 246.06 83.41 245.07 81.64 245.51 80.11 244.86 78.44 244.86 76.81 244.65 75.39 243.44 73.67 243.67 72.13 243.04 70.45 243.11 68.89 242.54 67.36 241.88 65.61 242.24 64.2 241 62.6 240.68 60.97 240.49 59.28 240.55 57.77 239.79 56 240.24 54.52 239.33 52.86 239.29 51.26 238.95 49.76 238.13 48.04 238.36 46.42 238.16 44.97 237.07 43.2 237.56 41.64 237.04 40.03 236.74 38.53 235.92 36.81 236.13 35.27 235.51 33.74 234.82 32.1 234.65 30.54 234.13 28.87 234.14 27.34 233.44 25.64 233.57 24 233.4 22.39 233.11 20.85 232.44 19.2 232.34 17.6 232.01 15.98 231.71 14.42 231.18 12.82 230.79 11.19 230.61 9.57 230.34 7.87 230.42 6.36 229.62 4.39 229.38 4.99 227.51 6.33 226.3 7.11 224.85 6.85 222.97 8.46 221.87 8.46 220.1 8.87 218.5 10.35 217.35 9.94 215.4 11.54 214.3 11.47 212.49 12.41 211.11 13.5 209.79 13.46 208 13.86 206.4 14.63 204.95 15.73 203.63 15.89 201.92 16.64 200.46 17.2 198.92 17.71 197.36 18.23 195.81 18.89 194.31 20.23 193.1 20.61 191.48 21.25 189.98 22.09 188.56 22.47 186.94 23.03 185.4 23.97 184.03 24.13 182.32 25.15 180.97 25.25 179.24 25.86 177.72 26.98 176.42 27.24 174.75 28.38 173.46 28.71 171.82 29.27 170.28 30.63 169.08 30.51 167.26 31.89 166.07 31.69 164.21 32.81 162.91 33.48 161.43 33.69 159.75 35.08 158.56 35.38 156.92 35.58 155.23 36.76 153.95 37.5 152.49 37.35 150.66 38.86 149.52 39 147.81 39.19 146.12 40.35 144.83 40.89 143.29 41.57 141.8 42.52 140.42 42.33 138.57 43.03 137.08 44.33 135.85 44.96 134.34 44.8 132.5 45.98 131.22 46.46 129.65 47.57 128.34 47.89 126.7 48.6 125.23 49.62 123.88 49.33 121.99 50.81 120.84 50.97 119.13 52.19 117.87 52.79 116.35 52.5 114.45 53.81 113.23 54.55 111.76 54.74 110.06 55.91 108.78 56.47 107.23 56.45 105.45 56.95 103.89 57.88 102.5 58.46 100.97 58.95 99.4 59.97 98.06 60.48 96.5 61.47 95.13 61.61 93.42 62.32 91.94 62.89 90.4 63.69 88.96 64.12 87.36 65.28 86.07 65.52 84.4 66.17 82.89 66.37 81.2 67.25 79.8 68.19 78.41 69.04 76.99 69.71 75.5 70.47 74.03 71.21 72.57 71.84 71.06 72.24 69.45 73 67.99 73.17 66.28 74.18 64.93 74.87 63.44 75.55 61.94 75.4 60.11 76.88 58.95 77.06 57.25 78.08 55.9 78.12 54.13 78.87 52.68 79.07 50.99 80.63 49.86 80.59 48.06 81.77 46.78 82.27 45.22 82.76 43.65 83.05 41.99 84.43 40.8 85.18 39.33 85.24 37.58 85.65 35.97 87.04 34.78 87.24 33.09 87.4 31.37 88.53 30.06 89.15 28.55 89.29 26.82 90.11 25.39 91.48 24.18 91.53 22.42 92 20.84 92.41 19.22 93.16 17.76 93.77 16.24 95.26 15.08 95.14 13.25 95.68 11.69 96.47 10.24 97.68 8.97 98.43 7.49 98.46 5.72 99.04 3.79 100.88 4.76 102.44 5.33 104.14 5.21 105.84 5.09 107.32 6.07 109.02 5.95 110.53 6.73 112.2 6.8 113.82 7.04 115.44 7.31 117.01 7.83 118.64 8.02 120.15 8.82 121.81 8.89 123.31 9.73 125.1 9.12 126.52 10.37 128.3 9.84 129.71 11.06 131.47 10.67 132.99 11.36 134.65 11.42 136.2 12.03 137.82 12.27 139.47 12.38 141.03 12.92 142.54 13.72 144.23 13.59 145.87 13.78 147.41 14.45 149.01 14.77 150.66 14.91 152.3 15.11 153.87 15.63 155.39 16.41 157.15 16 158.7 16.61 160.32 16.84 161.9 17.3 163.49 17.72 165.15 17.8 166.61 18.82 168.37 18.38 169.88 19.2 171.55 19.2 173.19 19.39 174.66 20.36 176.47 19.7 177.87 21.04 179.5 21.29 181.17 21.3 182.83 21.42 184.46 21.62 185.97 22.45 187.67 22.32 189.23 22.87 190.92 22.83 192.48 23.36 194.11 23.58 195.63 24.37 197.16 25.06 198.83 25.07 200.43 25.44 202.01 25.92 203.73 25.75 205.31 26.2 207.01 26.09 208.58 26.62 210.04 27.69 211.65 27.99 213.26 28.34 214.87 28.65 216.64 28.21 218.08 29.36 219.7 29.65 221.33 29.9 223.11 29.39 224.61 30.27 226.15 30.9 227.79 31.08 229.41 31.37 230.93 32.14 232.55 32.45 234.28 32.21 235.8 32.96 237.45 33.1 239.09 33.3 240.59 34.15 242.41 33.46 243.93 34.23 245.63 34.14 247.15 34.92 248.83 34.93 250.48 35.04 251.96 36 253.58 36.26 255.22 36.45 256.82 36.82 258.35 37.51 259.95 37.9 261.64 37.89 263.34 37.78 264.85 38.56 266.36 39.39 268.13 38.97 269.69 39.54 271.33 39.72 272.82 40.68 274.43 41 276.09 41.12 277.67 41.62 279.29 41.94 281.05 41.53 282.56 42.36 284.14 42.87 285.81 42.91 287.49 42.92 288.97 43.93 290.59 44.23 292.21 44.56 293.84 44.81 295.81 44.77 295.32 46.62 294.71 48.13 294.11 49.65 292.89 50.94 292.66 52.59 291.92 54.06 291.17 55.52 291.08 57.22 290.93 58.9 289.67 60.18 289.81 61.97 288.93 63.38 288.73 65.05 288.15 66.57 286.81 67.83 286.71 69.53 286.15 71.06 285.55 72.58 285.06 74.14 284.77 75.77 284.34 77.35 282.98 78.59 283.02 80.34 281.88 81.67 281.38 83.22 281.38 84.95 280.83 86.49 280.29 88.03 279.92 89.63 278.59 90.89 279.02 92.77 278.52 94.33 277.51 95.7 276.4 97.04 276.49 98.8 276.15 100.41 274.76 101.65 274.85 103.41 274.31 104.95 273.76 106.48 273.34 108.06 272.56 109.51 272.21 111.12 271.52 112.6 270.52 113.97 269.98 115.5 270 117.24 269.4 118.75 268.38 120.12 267.96 121.69 267.1 123.12 266.77 124.73 266.94 126.52 266.38 128.05 264.89 129.25 264.6 130.88 263.79 132.32 263.96 134.11 262.95 135.49 262.49 137.06 262.36 138.75 261.68 140.24 261.42 141.88 260.17 143.16 260.04 144.85 258.96 146.2 258.36 147.71 258.13 149.36 257.47 150.86 257.09 152.45 256.63 154.02 255.88 155.48 255.93 157.23 254.7 158.52 254.92 160.34 253.51 161.57 253.74 163.38 253.04 164.87 252.72 166.49 251.77 167.89 250.86 169.3 250.22 170.8 250.44 172.61 249.85 174.13 248.8 175.49 247.93 176.91 248.22 178.75 246.82 179.98 246.29 181.53 246.32 183.28 245.45 184.7 245.01 186.28 244.99 188.01 244.01 189.4 243.43 190.92 242.68 192.39 242.9 194.2 241.98 195.61 241.11 197.03 240.31 198.48 240.58 200.31 239.74 201.75 239.53 203.41 238.3 204.71 237.88 206.29 237.97 208.06 237.22 209.53 235.99 210.83 235.36 212.34 234.85 213.89 234.41 215.47 233.92 217.03 233.34 218.56 233.54 220.37 232.55 221.76 231.76 223.2 230.88 224.62 230.66 226.28 230.78 228.06 230.32 229.63 229.48 231.07 228.16 232.33 228.63 234.23 228 235.74 227.54 237.31 226.67 238.74 225.77 240.16 225.43 241.77 224.5 243.17 223.92 244.7 223.76 246.39 223.29 247.96 222.91 249.56 222.25 251.06 221.48 252.53 221.53 254.28 220.09 255.51 219.85 257.17 219.31 258.71 219.21 260.41 217.89 261.68 217.84 263.4 217.04 264.86 216.68 266.47 216.19 268.04 215.78 269.63 215.07 271.15 214.13 272.17" fill="none" stroke="#000" stroke-miterlimit="10" stroke-width="2"/>
  </g>
  <g>
    <polygon points="222.92 282.45 221.08 281.76 219.4 281.83 217.78 281.64 216.31 280.66 214.61 280.84 213.06 280.26 211.44 280.04 209.95 279.16 208.23 279.41 206.75 278.53 205.04 278.74 203.5 278.1 201.78 278.36 200.29 277.53 198.78 276.73 197.11 276.75 195.53 276.29 193.8 276.61 192.18 276.39 190.67 275.64 189.08 275.27 187.46 275.08 185.82 274.94 184.21 274.67 182.57 274.6 181.08 273.74 179.56 273 177.95 272.77 176.18 273.3 174.67 272.58 173.12 272.01 171.6 271.28 169.91 271.47 168.31 271.14 166.74 270.67 165.05 270.83 163.41 270.7 161.91 269.91 160.3 269.62 158.69 269.33 157.21 268.41 155.41 269.11 153.89 268.35 152.28 268.07 150.68 267.73 149.03 267.66 147.49 267.04 145.98 266.24 144.35 266.08 142.78 265.61 141.18 265.29 139.46 265.57 137.81 265.54 136.28 264.85 134.66 264.66 133.05 264.37 131.51 263.77 129.91 263.41 128.21 263.58 126.75 262.56 125.03 262.8 123.53 261.96 121.86 261.98 120.28 261.58 118.68 261.25 117.07 260.95 115.49 260.5 113.86 260.36 112.38 259.42 110.59 260.05 109.08 259.25 107.36 259.51 105.88 258.59 104.18 258.73 102.63 258.14 100.99 258 99.54 256.92 97.8 257.31 96.23 256.81 94.59 256.68 93.06 256 91.38 256.09 89.93 254.97 88.2 255.28 86.7 254.44 85.09 254.13 83.3 254.75 81.85 253.68 80.14 253.9 78.59 253.3 76.9 253.38 75.49 252.12 73.68 252.8 72.15 252.13 70.62 251.44 69.03 251.05 67.4 250.82 65.71 250.94 64.14 250.46 62.64 249.59 60.96 249.67 59.34 249.4 57.73 249.12 56.07 249.11 54.57 248.27 53.01 247.76 51.27 248.13 49.77 247.29 48.09 247.32 46.57 246.6 44.81 247.04 43.32 246.14 41.77 245.52 40.01 245.98 38.5 245.21 36.94 244.67 35.26 244.66 33.59 244.69 32.08 243.89 30.36 244.11 28.78 243.63 27.32 242.59 25.72 242.28 24.08 242.09 22.45 241.9 20.93 241.16 19.17 241.55 17.5 241.52 16.03 240.51 14.32 240.68 13.12 239.87 12.96 238.37 13.82 236.96 14.36 235.42 15.4 234.07 16.03 232.57 16.03 230.8 17.34 229.57 17.23 227.76 18.86 226.66 18.88 224.9 20.06 223.61 19.72 221.71 21.09 220.5 21.23 218.79 22 217.33 23.19 216.06 23.07 214.23 23.87 212.79 24.36 211.22 25.51 209.93 25.82 208.29 26.17 206.66 27.14 205.29 27.9 203.84 28.23 202.21 28.58 200.58 29.99 199.39 29.79 197.54 30.57 196.09 31.73 194.8 32.52 193.36 33.22 191.88 33.3 190.14 34.43 188.84 34.86 187.24 35.08 185.56 36 184.17 36.22 182.5 37.36 181.2 37.52 179.5 38.2 178.01 39.25 176.68 39.09 174.85 39.65 173.31 40.51 171.9 41.34 170.48 41.66 168.85 43.07 167.66 43.61 166.12 43.75 164.41 45 163.16 44.98 161.39 45.56 159.86 46.32 158.41 47.03 156.93 47.3 155.28 47.89 153.75 49.28 152.56 50.04 151.1 50.07 149.34 50.61 147.79 51.42 146.35 52.36 144.97 52.1 143.09 52.95 141.67 54.35 140.48 54.99 138.98 55.32 137.35 56.05 135.88 56.05 134.11 57.48 132.93 57.94 131.35 57.72 129.5 58.54 128.07 59.83 126.83 59.86 125.07 61.11 123.81 61 122 61.93 120.61 62.24 118.96 62.75 117.4 64.2 116.23 64.3 114.5 65.2 113.1 65.45 111.43 66.29 110.01 67.23 108.63 67.2 106.85 68.67 105.68 69.29 104.17 69.78 102.59 70.03 100.93 71.06 99.58 70.95 97.76 72.12 96.47 72.46 94.84 73.1 93.33 74.18 92.01 74.27 90.27 74.78 88.71 76.12 87.49 75.97 85.65 76.76 84.21 77.36 82.68 78.44 81.35 78.56 79.63 79.45 78.23 80.41 76.85 80.88 75.27 81.69 73.83 81.99 72.18 82.96 70.8 83.15 69.11 83.62 67.53 84.21 66 85.15 64.61 85.56 63.01 86.18 61.5 86.77 59.97 87.58 58.53 88.25 57.03 88.74 55.46 89.3 53.93 89.54 52.25 90.6 50.92 90.93 49.28 91.54 47.76 92.87 46.53 93.64 45.08 93.37 43.19 94.97 42.08 94.96 40.3 95.37 38.69 96.84 37.52 96.42 35.57 98.01 34.45 97.93 32.64 98.86 31.25 99.94 29.91 99.9 28.12 100.29 26.51 101.05 25.05 102.14 23.72 102.29 22 103.03 20.53 103.59 18.98 104.09 17.4 104.61 15.83 105.48 14.07 107.27 15.1 108.93 15.15 110.54 15.47 112.11 16.01 113.77 16.06 115.4 16.31 116.94 16.96 118.65 16.78 120.18 17.51 121.9 17.27 123.51 17.56 125.02 18.4 126.7 18.33 128.2 19.18 129.87 19.18 131.49 19.42 132.94 20.52 134.71 20.04 136.16 21.14 137.94 20.58 139.44 21.42 141.03 21.79 142.73 21.66 144.17 22.78 145.85 22.76 147.54 22.62 149.04 23.51 150.62 23.95 152.39 23.45 153.81 24.69 155.53 24.5 157.23 24.35 158.73 25.23 160.36 25.46 161.96 25.83 163.5 26.48 165.29 25.93 166.88 26.32 168.35 27.35 169.96 27.66 171.73 27.15 173.23 28.04 174.87 28.2 176.37 29.03 178.05 29.01 179.64 29.41 181.16 30.15 182.97 29.49 184.4 30.71 186.11 30.53 187.6 31.47 189.21 31.76 191.02 31.11 192.49 32.14 194.08 32.57 195.78 32.43 197.28 33.31 198.9 33.55 200.65 33.19 202.29 33.37 203.83 34 205.45 34.27 207.09 34.44 208.62 35.17 210.26 35.36 211.8 36.05 213.52 35.85 215.11 36.26 216.74 36.5 218.31 37.01 219.96 37.11 221.46 37.99 223.16 37.9 224.77 38.23 226.47 38.09 228.03 38.68 229.58 39.32 231.14 39.87 232.75 40.23 234.33 40.68 235.92 41.12 237.54 41.44 239.2 41.51 240.79 41.96 242.49 41.8 244.03 42.51 245.63 42.89 247.23 43.26 249.01 42.76 250.45 43.97 252.15 43.81 253.68 44.54 255.42 44.24 257.01 44.68 258.71 44.55 260.12 45.84 261.88 45.45 263.37 46.35 265.01 46.53 266.66 46.69 268.34 46.65 269.8 47.76 271.38 48.21 273.12 47.92 274.78 48.01 276.24 49.13 277.94 48.99 279.66 48.81 281.17 49.65 282.79 49.96 284.51 49.76 286.08 50.27 287.54 51.37 289.28 51.08 290.93 51.22 292.59 51.3 294.18 51.75 295.81 52.05 297.24 53.28 299.02 52.79 300.67 53.02 302.46 53.65 301.36 55.24 300.71 56.74 300.8 58.5 300.58 60.15 299.38 61.46 298.61 62.92 298.51 64.61 298.41 66.3 297.25 67.62 297.14 69.31 296.18 70.71 295.9 72.34 295.45 73.91 294.97 75.47 294.25 76.95 293.86 78.54 292.87 79.93 292.58 81.55 291.57 82.93 291.93 84.78 290.52 86.02 290.8 87.85 289.42 89.09 289.57 90.87 288.69 92.29 288.42 93.92 287.61 95.37 287.16 96.94 286.84 98.56 286.11 100.03 285.12 101.42 285.02 103.11 284.62 104.7 283.77 106.13 283.24 107.68 282.89 109.28 282.48 110.87 281.76 112.34 280.8 113.73 280.97 115.52 280.18 116.97 279.74 118.54 279.08 120.03 278.47 121.54 278.17 123.16 276.98 124.47 277.18 126.26 276.17 127.64 275.96 129.28 275.57 130.87 274.42 132.2 274.83 134.06 273.33 135.26 272.88 136.83 272.65 138.48 272.32 140.09 271.91 141.68 270.89 143.05 270.8 144.75 270.06 146.22 269.88 147.89 269.15 149.36 268.72 150.94 267.75 152.33 266.87 153.75 266.65 155.4 266.08 156.93 265.4 158.42 265.34 160.12 264.69 161.62 264.58 163.31 263.86 164.79 262.61 166.08 262.11 167.63 261.56 169.17 261.05 170.72 261.24 172.52 259.92 173.79 259.43 175.35 258.97 176.92 259.24 178.74 258.19 180.1 257.36 181.54 256.97 183.14 256.48 184.69 255.53 186.09 255.01 187.64 255.02 189.37 254.09 190.77 253.73 192.38 253.33 193.97 252.29 195.34 252.74 197.23 251.78 198.63 251.65 200.31 250.68 201.7 250.46 203.35 250.14 204.97 248.99 206.3 248.52 207.87 248.12 209.46 247.55 211 246.68 212.42 246.08 213.95 245.88 215.6 245.76 217.3 244.79 218.69 243.78 220.07 243.97 221.86 243.21 223.33 242.81 224.93 241.68 226.26 241.15 227.81 240.81 229.43 240.12 230.92 239.6 232.46 239.78 234.25 238.76 235.63 238.06 237.12 237.8 238.76 237.58 240.41 236.39 241.72 235.89 243.28 235.36 244.82 234.9 246.4 234.88 248.12 234.38 249.68 233.77 251.2 233.18 252.72 231.98 254.04 231.75 255.69 231.02 257.17 230.27 258.64 230.19 260.35 230.05 262.04 228.81 263.34 228.95 265.12 228.08 266.56 227.89 268.22 227.32 269.75 225.99 271.03 225.9 272.73 225.35 274.28 224.75 275.81 224.27 277.37 223.99 279.02 223.58 280.58 222.92 282.45" fill="#fff"/>
    <polygon points="222.92 282.45 221.08 281.76 219.4 281.83 217.78 281.64 216.31 280.66 214.61 280.84 213.06 280.26 211.44 280.04 209.95 279.16 208.23 279.41 206.75 278.53 205.04 278.74 203.5 278.1 201.78 278.36 200.29 277.53 198.78 276.73 197.11 276.75 195.53 276.29 193.8 276.61 192.18 276.39 190.67 275.64 189.08 275.27 187.46 275.08 185.82 274.94 184.21 274.67 182.57 274.6 181.08 273.74 179.56 273 177.95 272.77 176.18 273.3 174.67 272.58 173.12 272.01 171.6 271.28 169.91 271.47 168.31 271.14 166.74 270.67 165.05 270.83 163.41 270.7 161.91 269.91 160.3 269.62 158.69 269.33 157.21 268.41 155.41 269.11 153.89 268.35 152.28 268.07 150.68 267.73 149.03 267.66 147.49 267.04 145.98 266.24 144.35 266.08 142.78 265.61 141.18 265.29 139.46 265.57 137.81 265.54 136.28 264.85 134.66 264.66 133.05 264.37 131.51 263.77 129.91 263.41 128.21 263.58 126.75 262.56 125.03 262.8 123.53 261.96 121.86 261.98 120.28 261.58 118.68 261.25 117.07 260.95 115.49 260.5 113.86 260.36 112.38 259.42 110.59 260.05 109.08 259.25 107.36 259.51 105.88 258.59 104.18 258.73 102.63 258.14 100.99 258 99.54 256.92 97.8 257.31 96.23 256.81 94.59 256.68 93.06 256 91.38 256.09 89.93 254.97 88.2 255.28 86.7 254.44 85.09 254.13 83.3 254.75 81.85 253.68 80.14 253.9 78.59 253.3 76.9 253.38 75.49 252.12 73.68 252.8 72.15 252.13 70.62 251.44 69.03 251.05 67.4 250.82 65.71 250.94 64.14 250.46 62.64 249.59 60.96 249.67 59.34 249.4 57.73 249.12 56.07 249.11 54.57 248.27 53.01 247.76 51.27 248.13 49.77 247.29 48.09 247.32 46.57 246.6 44.81 247.04 43.32 246.14 41.77 245.52 40.01 245.98 38.5 245.21 36.94 244.67 35.26 244.66 33.59 244.69 32.08 243.89 30.36 244.11 28.78 243.63 27.32 242.59 25.72 242.28 24.08 242.09 22.45 241.9 20.93 241.16 19.17 241.55 17.5 241.52 16.03 240.51 14.32 240.68 13.12 239.87 12.96 238.37 13.82 236.96 14.36 235.42 15.4 234.07 16.03 232.57 16.03 230.8 17.34 229.57 17.23 227.76 18.86 226.66 18.88 224.9 20.06 223.61 19.72 221.71 21.09 220.5 21.23 218.79 22 217.33 23.19 216.06 23.07 214.23 23.87 212.79 24.36 211.22 25.51 209.93 25.82 208.29 26.17 206.66 27.14 205.29 27.9 203.84 28.23 202.21 28.58 200.58 29.99 199.39 29.79 197.54 30.57 196.09 31.73 194.8 32.52 193.36 33.22 191.88 33.3 190.14 34.43 188.84 34.86 187.24 35.08 185.56 36 184.17 36.22 182.5 37.36 181.2 37.52 179.5 38.2 178.01 39.25 176.68 39.09 174.85 39.65 173.31 40.51 171.9 41.34 170.48 41.66 168.85 43.07 167.66 43.61 166.12 43.75 164.41 45 163.16 44.98 161.39 45.56 159.86 46.32 158.41 47.03 156.93 47.3 155.28 47.89 153.75 49.28 152.56 50.04 151.1 50.07 149.34 50.61 147.79 51.42 146.35 52.36 144.97 52.1 143.09 52.95 141.67 54.35 140.48 54.99 138.98 55.32 137.35 56.05 135.88 56.05 134.11 57.48 132.93 57.94 131.35 57.72 129.5 58.54 128.07 59.83 126.83 59.86 125.07 61.11 123.81 61 122 61.93 120.61 62.24 118.96 62.75 117.4 64.2 116.23 64.3 114.5 65.2 113.1 65.45 111.43 66.29 110.01 67.23 108.63 67.2 106.85 68.67 105.68 69.29 104.17 69.78 102.59 70.03 100.93 71.06 99.58 70.95 97.76 72.12 96.47 72.46 94.84 73.1 93.33 74.18 92.01 74.27 90.27 74.78 88.71 76.12 87.49 75.97 85.65 76.76 84.21 77.36 82.68 78.44 81.35 78.56 79.63 79.45 78.23 80.41 76.85 80.88 75.27 81.69 73.83 81.99 72.18 82.96 70.8 83.15 69.11 83.62 67.53 84.21 66 85.15 64.61 85.56 63.01 86.18 61.5 86.77 59.97 87.58 58.53 88.25 57.03 88.74 55.46 89.3 53.93 89.54 52.25 90.6 50.92 90.93 49.28 91.54 47.76 92.87 46.53 93.64 45.08 93.37 43.19 94.97 42.08 94.96 40.3 95.37 38.69 96.84 37.52 96.42 35.57 98.01 34.45 97.93 32.64 98.86 31.25 99.94 29.91 99.9 28.12 100.29 26.51 101.05 25.05 102.14 23.72 102.29 22 103.03 20.53 103.59 18.98 104.09 17.4 104.61 15.83 105.48 14.07 107.27 15.1 108.93 15.15 110.54 15.47 112.11 16.01 113.77 16.06 115.4 16.31 116.94 16.96 118.65 16.78 120.18 17.51 121.9 17.27 123.51 17.56 125.02 18.4 126.7 18.33 128.2 19.18 129.87 19.18 131.49 19.42 132.94 20.52 134.71 20.04 136.16 21.14 137.94 20.58 139.44 21.42 141.03 21.79 142.73 21.66 144.17 22.78 145.85 22.76 147.54 22.62 149.04 23.51 150.62 23.95 152.39 23.45 153.81 24.69 155.53 24.5 157.23 24.35 158.73 25.23 160.36 25.46 161.96 25.83 163.5 26.48 165.29 25.93 166.88 26.32 168.35 27.35 169.96 27.66 171.73 27.15 173.23 28.04 174.87 28.2 176.37 29.03 178.05 29.01 179.64 29.41 181.16 30.15 182.97 29.49 184.4 30.71 186.11 30.53 187.6 31.47 189.21 31.76 191.02 31.11 192.49 32.14 194.08 32.57 195.78 32.43 197.28 33.31 198.9 33.55 200.65 33.19 202.29 33.37 203.83 34 205.45 34.27 207.09 34.44 208.62 35.17 210.26 35.36 211.8 36.05 213.52 35.85 215.11 36.26 216.74 36.5 218.31 37.01 219.96 37.11 221.46 37.99 223.16 37.9 224.77 38.23 226.47 38.09 228.03 38.68 229.58 39.32 231.14 39.87 232.75 40.23 234.33 40.68 235.92 41.12 237.54 41.44 239.2 41.51 240.79 41.96 242.49 41.8 244.03 42.51 245.63 42.89 247.23 43.26 249.01 42.76 250.45 43.97 252.15 43.81 253.68 44.54 255.42 44.24 257.01 44.68 258.71 44.55 260.12 45.84 261.88 45.45 263.37 46.35 265.01 46.53 266.66 46.69 268.34 46.65 269.8 47.76 271.38 48.21 273.12 47.92 274.78 48.01 276.24 49.13 277.94 48.99 279.66 48.81 281.17 49.65 282.79 49.96 284.51 49.76 286.08 50.27 287.54 51.37 289.28 51.08 290.93 51.22 292.59 51.3 294.18 51.75 295.81 52.05 297.24 53.28 299.02 52.79 300.67 53.02 302.46 53.65 301.36 55.24 300.71 56.74 300.8 58.5 300.58 60.15 299.38 61.46 298.61 62.92 298.51 64.61 298.41 66.3 297.25 67.62 297.14 69.31 296.18 70.71 295.9 72.34 295.45 73.91 294.97 75.47 294.25 76.95 293.86 78.54 292.87 79.93 292.58 81.55 291.57 82.93 291.93 84.78 290.52 86.02 290.8 87.85 289.42 89.09 289.57 90.87 288.69 92.29 288.42 93.92 287.61 95.37 287.16 96.94 286.84 98.56 286.11 100.03 285.12 101.42 285.02 103.11 284.62 104.7 283.77 106.13 283.24 107.68 282.89 109.28 282.48 110.87 281.76 112.34 280.8 113.73 280.97 115.52 280.18 116.97 279.74 118.54 279.08 120.03 278.47 121.54 278.17 123.16 276.98 124.47 277.18 126.26 276.17 127.64 275.96 129.28 275.57 130.87 274.42 132.2 274.83 134.06 273.33 135.26 272.88 136.83 272.65 138.48 272.32 140.09 271.91 141.68 270.89 143.05 270.8 144.75 270.06 146.22 269.88 147.89 269.15 149.36 268.72 150.94 267.75 152.33 266.87 153.75 266.65 155.4 266.08 156.93 265.4 158.42 265.34 160.12 264.69 161.62 264.58 163.31 263.86 164.79 262.61 166.08 262.11 167.63 261.56 169.17 261.05 170.72 261.24 172.52 259.92 173.79 259.43 175.35 258.97 176.92 259.24 178.74 258.19 180.1 257.36 181.54 256.97 183.14 256.48 184.69 255.53 186.09 255.01 187.64 255.02 189.37 254.09 190.77 253.73 192.38 253.33 193.97 252.29 195.34 252.74 197.23 251.78 198.63 251.65 200.31 250.68 201.7 250.46 203.35 250.14 204.97 248.99 206.3 248.52 207.87 248.12 209.46 247.55 211 246.68 212.42 246.08 213.95 245.88 215.6 245.76 217.3 244.79 218.69 243.78 220.07 243.97 221.86 243.21 223.33 242.81 224.93 241.68 226.26 241.15 227.81 240.81 229.43 240.12 230.92 239.6 232.46 239.78 234.25 238.76 235.63 238.06 237.12 237.8 238.76 237.58 240.41 236.39 241.72 235.89 243.28 235.36 244.82 234.9 246.4 234.88 248.12 234.38 249.68 233.77 251.2 233.18 252.72 231.98 254.04 231.75 255.69 231.02 257.17 230.27 258.64 230.19 260.35 230.05 262.04 228.81 263.34 228.95 265.12 228.08 266.56 227.89 268.22 227.32 269.75 225.99 271.03 225.9 272.73 225.35 274.28 224.75 275.81 224.27 277.37 223.99 279.02 223.58 280.58 222.92 282.45" fill="none" stroke="#000" stroke-miterlimit="10" stroke-width="2"/>
  </g>
  <g>
    <path d="M212.78,258.46l-.41,1.58-.34,1.6-.31,1.62,1.25.18,1.22.16-.24,1.64-1.66-.11-1.63-.31-1.85-.38-1.79-.51.47-1.64,1.25.32,1.27.3.3-1.63.35-1.62.42-1.59,1.67.4Z"/>
    <path d="M206.27,259.84l-.69,1.2-1.14.77-1.37.07-1.66-.85-.38-1.79.68-1.52,1.37-.94,1.67-.06,1.45,1.21.07,1.92ZM202.93,258.93l.48,1.25,1.29-.99-.37-.84-1.4.59Z"/>
    <path d="M198.65,256.47l-1.58.97-1.12-1.46,1.68-.96,1.01,1.45Z"/>
    <path d="M180.42,258.67l-.37-1.86-.25-1.88-.21-1.89,1.64-.29.29,1.76.23,1.75,1.27-1.04,1.25-1.09.52-.16.36.37.02-.03.52,1.3.54,1.27v-.03s.49-.88.49-.88l1.11-2.13,1.46.75-.72,1.54-.85,1.49-.88,1.47h.03s-.36.61-.36.61l-.45.2-.33-.29-.82-1.54-.64-1.61-1.5,1.21-1.5,1.21-.56.21-.27-.42Z"/>
    <path d="M177.85,254.56l-.56,1.43-1.03,1.15-1.39.64-1.51-.15-1.15-.78-.72-1.19-.08-1.38.51-1.34.89-1.13,1.22-.75,1.42-.09,1.44.67.89,1.31.07,1.58ZM175.13,252.69l-1.67,1.12-.3,1.37,1,.91,1.31-.52.7-1.28-1.03-1.61Z"/>
    <path d="M163.61,249.1l1.68-.13.2,2.01,1.27.29,1.28.26,1.08-1.7,1.59.79-.97,1.68-1.2,1.53-.96,1.18-1.02,1.13-.98.33-.75-.66-.46-1.64-.32-1.68-.26-1.69-.18-1.68ZM167.11,252.97l-1.37-.29.27,1.84,1.11-1.55Z"/>
  </g>
  <g>
    <polyline points="128.5 215.63 127.05 216.32 125.41 216.77 123.73 217.06 122.02 216.99 120.4 216.46 118.9 215.63 117.63 214.5 116.53 213.2 115.61 211.75 114.86 210.24 114.13 208.62 113.42 206.98 112.93 205.26 112.71 203.52 111.01 203.72 109.4 204.35 107.93 205.23 108.34 206.82 108.83 208.41 109.57 209.91 110.3 211.41 111.19 212.83 112.16 214.19 113.17 215.53 114.35 216.72 115.57 217.86 116.89 218.89 118.26 219.86 119.77 220.4 121.29 220.86 122.88 221.07 124.48 221.16 126.06 220.97 127.62 220.65 129.13 220.1 130.5 219.26 131.76 218.27" fill="none" stroke="#1b1b1b" stroke-miterlimit="10" stroke-width="2"/>
    <polyline points="131.06 213.43 132.02 211.98 132.54 210.31 132.49 208.57 132.03 206.9 130.91 205.59 129.29 205.4 127.9 206.65 127.67 208.51 128.29 210.28 129.09 211.61 130.1 212.8 131.26 213.83 132.5 214.77 133.88 215.49 135.32 216.07 136.82 216.47 138.55 216.73 140.28 216.55 141.96 216.08 143.56 215.42 144.76 216.45 145.95 217.5 147.15 218.54 145.81 219.32 144.4 219.99 142.9 220.42 141.37 220.71 139.81 220.7 138.25 220.59 136.73 220.27 135.25 219.77 133.7 219.12 132.23 218.32 130.85 217.36 129.47 216.41 128.27 215.25 127.13 214.01 126.16 212.64 125.41 211.15 124.82 209.59 124.69 208.12 124.85 206.65 125.36 205.27 126.09 203.98 127.13 202.93 128.41 202.06 129.92 201.76 131.46 201.93 132.87 202.58 134.11 203.49 135.02 204.78 135.65 206.23 136.08 207.77 136.19 209.36 135.99 210.94 135.58 212.48 134.96 213.95 134.18 215.34" fill="none" stroke="#1b1b1b" stroke-miterlimit="10" stroke-width="2"/>
    <polyline points="150.5 215.47 151.13 213.88 151.73 212.27 152.14 210.6 152.31 208.89 152.24 207.17 151.79 205.51 150.72 204.18 149.34 203.16 147.68 202.72 146.04 202.49 144.38 202.61 142.89 203.37 141.95 204.73 141.34 206.26 141.21 207.92 141.18 209.59 141.44 211.22 142.12 212.73 142.86 214.2 143.82 215.55 145.01 216.69 146.26 217.77 147.68 218.6 149.17 219.32 150.73 219.86 152.35 220.19 154 220.33 155.66 220.43 157.23 220.09 158.73 219.56 160.21 218.96 161.6 218.16 162.94 217.29 164.2 216.3 165.43 215.27 166.45 214.03 167.37 212.72 168.23 211.35 167.11 210.24 166.01 209.1 165.11 210.53 164.07 211.83 162.94 213.06 161.61 214.09 160.21 215 158.65 215.61 157.06 216.11 155.41 216.34 153.73 216.32 152.07 216.12 150.52 215.71 149.04 215.09 147.6 214.41 146.38 213.37 145.39 212.12 144.79 210.62 144.69 209.03 144.88 207.45 146 205.96 147.85 206.26 148.73 207.64 148.72 209.32 148.16 210.92 147.48 212.46 146.61 213.27" fill="none" stroke="#1b1b1b" stroke-miterlimit="10" stroke-width="2"/>
  </g>
  <g>
    <polygon points="92.9 129.44 92.89 131.09 92.69 132.66 92.68 134.23 92.42 135.79 92.25 137.36 92.19 138.94 92.08 140.51 91.97 142.09 91.95 143.67 91.82 145.25 91.77 146.83 91.56 148.4 89.88 148.45 88.19 148.4 86.51 148.29 84.83 148.45 83.14 148.5 81.46 148.51 79.77 148.48 78.08 148.49 76.4 148.36 74.71 148.31 73.02 148.35 71.24 148.38 72.79 149.27 74.28 150.08 75.74 150.96 77.21 151.82 78.66 152.7 80.17 153.5 81.66 154.34 83.13 155.19 84.6 156.07 86.05 156.98 87.5 157.86 86.59 159.16 85.51 160.34 84.51 161.6 83.58 162.9 82.59 164.15 81.52 165.34 80.69 166.72 79.54 167.86 78.7 169.23 77.66 170.45 76.56 171.63 75.56 172.88 74.74 174.28 73.61 175.43 72.72 176.7 74.25 176.12 75.76 175.37 77.21 174.5 78.81 173.91 80.36 173.24 81.81 172.37 83.37 171.73 84.85 170.91 86.4 170.24 87.97 169.59 89.49 168.85 90.99 168.07 92.59 167.5 94.12 166.77 95.61 165.96 95.96 167.58 96.49 169.16 96.91 170.78 97.32 172.39 97.53 174.06 98.04 175.65 98.52 177.25 98.82 178.9 99.26 180.52 99.66 182.19 100.12 180.57 100.57 179 100.9 177.4 101.44 175.85 101.83 174.26 102.44 172.74 102.82 171.14 103.23 169.55 103.68 167.98 104.06 166.38 104.55 164.81 105.13 163.33 106.67 163.07 108.3 163.06 109.91 162.9 111.53 162.78 113.15 162.82 114.76 162.63 116.38 162.59 118 162.48 119.62 162.51 121.24 162.3 122.86 162.33 124.48 162.13 126.1 162.1 127.72 161.89 129.36 161.9 127.95 161.08 126.47 160.42 125.02 159.67 123.52 159.06 122.06 158.35 120.64 157.55 119.2 156.81 117.73 156.11 116.26 155.41 114.8 154.7 113.33 154.01 111.92 153.19 110.54 152.43 111.38 151.04 112.1 149.51 113.04 148.11 113.95 146.69 114.88 145.29 115.66 143.79 116.53 142.35 117.42 140.92 118.21 139.42 119.04 137.96 119.99 136.56 120.85 135.11 121.72 133.65 122.68 132.14 121.21 133.16 119.72 133.95 118.28 134.83 116.84 135.69 115.42 136.6 113.95 137.41 112.45 138.2 111.02 139.09 109.56 139.93 108.11 140.8 106.73 141.77 105.31 142.69 103.82 143.5 102.35 144.4 101.46 143.03 100.66 141.66 99.81 140.31 98.86 139.01 98.13 137.59 97.17 136.3 96.4 134.89 95.48 133.58 94.64 132.22 93.78 130.87 92.9 129.44" fill="#f6ffa4"/>
    <polygon points="92.9 129.44 92.89 131.09 92.69 132.66 92.68 134.23 92.42 135.79 92.25 137.36 92.19 138.94 92.08 140.51 91.97 142.09 91.95 143.67 91.82 145.25 91.77 146.83 91.56 148.4 89.88 148.45 88.19 148.4 86.51 148.29 84.83 148.45 83.14 148.5 81.46 148.51 79.77 148.48 78.08 148.49 76.4 148.36 74.71 148.31 73.02 148.35 71.24 148.38 72.79 149.27 74.28 150.08 75.74 150.96 77.21 151.82 78.66 152.7 80.17 153.5 81.66 154.34 83.13 155.19 84.6 156.07 86.05 156.98 87.5 157.86 86.59 159.16 85.51 160.34 84.51 161.6 83.58 162.9 82.59 164.15 81.52 165.34 80.69 166.72 79.54 167.86 78.7 169.23 77.66 170.45 76.56 171.63 75.56 172.88 74.74 174.28 73.61 175.43 72.72 176.7 74.25 176.12 75.76 175.37 77.21 174.5 78.81 173.91 80.36 173.24 81.81 172.37 83.37 171.73 84.85 170.91 86.4 170.24 87.97 169.59 89.49 168.85 90.99 168.07 92.59 167.5 94.12 166.77 95.61 165.96 95.96 167.58 96.49 169.16 96.91 170.78 97.32 172.39 97.53 174.06 98.04 175.65 98.52 177.25 98.82 178.9 99.26 180.52 99.66 182.19 100.12 180.57 100.57 179 100.9 177.4 101.44 175.85 101.83 174.26 102.44 172.74 102.82 171.14 103.23 169.55 103.68 167.98 104.06 166.38 104.55 164.81 105.13 163.33 106.67 163.07 108.3 163.06 109.91 162.9 111.53 162.78 113.15 162.82 114.76 162.63 116.38 162.59 118 162.48 119.62 162.51 121.24 162.3 122.86 162.33 124.48 162.13 126.1 162.1 127.72 161.89 129.36 161.9 127.95 161.08 126.47 160.42 125.02 159.67 123.52 159.06 122.06 158.35 120.64 157.55 119.2 156.81 117.73 156.11 116.26 155.41 114.8 154.7 113.33 154.01 111.92 153.19 110.54 152.43 111.38 151.04 112.1 149.51 113.04 148.11 113.95 146.69 114.88 145.29 115.66 143.79 116.53 142.35 117.42 140.92 118.21 139.42 119.04 137.96 119.99 136.56 120.85 135.11 121.72 133.65 122.68 132.14 121.21 133.16 119.72 133.95 118.28 134.83 116.84 135.69 115.42 136.6 113.95 137.41 112.45 138.2 111.02 139.09 109.56 139.93 108.11 140.8 106.73 141.77 105.31 142.69 103.82 143.5 102.35 144.4 101.46 143.03 100.66 141.66 99.81 140.31 98.86 139.01 98.13 137.59 97.17 136.3 96.4 134.89 95.48 133.58 94.64 132.22 93.78 130.87 92.9 129.44" fill="none" stroke="#000" stroke-linecap="round" stroke-linejoin="round" stroke-width="2"/>
  </g>
  <g>
    <polygon points="214.46 272.76 212.9 271.75 211.24 271.76 209.64 271.41 207.91 271.71 206.45 270.74 204.76 270.82 203.26 270.03 201.57 270.13 200.07 269.34 198.34 269.66 196.9 268.56 195.17 268.85 193.69 267.93 192.01 267.97 190.33 268.02 188.75 267.62 187.12 267.43 185.67 266.4 184.01 266.35 182.34 266.38 180.79 265.83 179.14 265.73 177.59 265.21 175.95 265.08 174.48 264.11 172.77 264.38 171.26 263.61 169.61 263.55 168.15 262.57 166.39 263.04 164.78 262.77 163.18 262.51 161.58 262.17 160 261.79 158.57 260.66 156.93 260.52 155.2 260.82 153.81 259.51 152.12 259.64 150.55 259.18 148.83 259.42 147.2 259.21 145.64 258.68 144.15 257.82 142.39 258.26 140.93 257.27 139.3 257.07 137.68 256.86 136.11 256.41 134.41 256.58 132.89 255.86 131.31 255.43 129.68 255.3 128.22 254.29 126.55 254.32 125.04 253.55 123.31 253.87 121.78 253.2 120.19 252.78 118.6 252.41 116.89 252.62 115.32 252.15 113.61 252.31 112.12 251.46 110.44 251.52 108.94 250.69 107.43 249.94 105.81 249.72 104.07 250.08 102.49 249.66 100.83 249.61 99.33 248.79 97.79 248.18 96.24 247.58 94.54 247.72 92.83 247.93 91.38 246.86 89.81 246.37 88.14 246.4 86.61 245.74 85.01 245.37 83.22 245.96 81.66 245.41 80.18 244.51 78.62 243.98 76.85 244.46 75.24 244.17 73.74 243.35 72.12 243.09 70.47 242.98 68.9 242.53 67.3 242.18 65.8 241.36 64.18 241.1 62.57 240.81 60.91 240.74 59.31 240.41 57.72 240.04 56.21 239.26 54.46 239.6 52.81 239.55 51.32 238.63 49.66 238.57 48.19 237.64 46.38 238.3 44.79 237.95 43.32 237.01 41.74 236.57 39.98 236.96 38.49 236.11 36.82 236.1 35.31 235.31 33.75 234.78 32.02 235.08 30.47 234.46 28.86 234.16 27.18 234.21 25.55 233.98 24.05 233.14 22.51 232.52 20.81 232.65 19.3 231.87 17.62 231.9 16.12 231.07 14.32 231.66 12.88 230.51 11.12 230.93 9.6 230.2 7.89 230.33 6.42 229.3 5.21 228.95 5.63 227.77 6.25 226.26 6.88 224.76 7.1 223.07 7.78 221.58 8.14 219.96 9.21 218.64 9.64 217.04 10.5 215.63 11.62 214.33 11.52 212.51 11.92 210.91 12.51 209.38 13.31 207.94 13.88 206.4 15.1 205.14 15.99 203.74 16.41 202.14 17.19 200.69 17.5 199.05 17.87 197.43 18.61 195.97 19.28 194.47 20.05 193.02 20.33 191.37 20.85 189.81 21.48 188.3 22.18 186.82 23.08 185.43 23.87 183.99 24.04 182.28 25.23 181.01 25.91 179.52 26.21 177.87 26.87 176.37 27.97 175.06 27.73 173.18 29.25 172.05 29.03 170.18 29.97 168.81 31.22 167.56 31.91 166.08 31.55 164.16 33 163 32.98 161.22 34.4 160.04 34.88 158.47 34.71 156.63 36.04 155.42 36.92 154.02 36.74 152.18 37.8 150.85 37.9 149.12 38.77 147.72 39.78 146.37 40.3 144.81 40.64 143.18 42.03 141.99 42.64 140.47 42.82 138.77 43.67 137.35 43.74 135.61 44.27 134.05 44.9 132.54 46.43 131.41 46.58 129.7 46.87 128.05 48.02 126.76 48.46 125.17 49.33 123.76 49.8 122.19 50.42 120.68 50.51 118.94 51.55 117.6 51.92 115.98 53.32 114.8 53.61 113.14 54.04 111.55 54.7 110.05 55 108.39 55.8 106.95 57.23 105.78 56.93 103.88 57.97 102.54 58.24 100.88 58.75 99.32 60 98.07 60.16 96.36 61.04 94.96 61.58 93.41 62.75 92.12 62.84 90.38 64.01 89.09 64.15 87.37 65.08 85.99 65.17 84.25 66.29 82.94 67.37 81.62 67.69 79.98 68.45 78.52 68.48 76.76 69.02 75.2 70.06 73.86 70.75 72.37 71.26 70.81 71.72 69.23 72.31 67.7 72.71 66.09 73.86 64.79 74.89 63.45 75.44 61.9 75.27 60.05 76.29 58.7 77.16 57.29 78.18 55.94 78.34 54.22 78.98 52.72 79.75 51.27 79.94 49.57 80.4 47.98 81.47 46.66 82.08 45.14 82.68 43.62 83.89 42.35 83.56 40.43 84.61 39.1 85.21 37.56 85.86 36.06 86.26 34.45 87.18 33.06 88.27 31.74 88.75 30.16 89.53 28.71 90.16 27.19 90.24 25.44 90.6 23.81 91.58 22.44 92.1 20.88 92.71 19.35 93.61 17.95 94.28 16.46 94.45 14.74 95.75 13.51 95.86 11.77 96.99 10.46 97.3 8.81 98.02 7.32 98.66 5.8 99.29 4.26 100.89 4.72 102.53 4.87 104.01 5.83 105.82 5.2 107.32 6.02 109.05 5.77 110.54 6.71 112.24 6.57 113.79 7.18 115.43 7.34 116.88 8.43 118.64 8.04 120.2 8.56 121.85 8.7 123.37 9.39 125.06 9.31 126.5 10.45 128.23 10.14 129.73 11 131.33 11.32 133.13 10.71 134.58 11.79 136.29 11.58 137.83 12.2 139.52 12.13 140.93 13.4 142.74 12.73 144.27 13.41 145.8 14.11 147.39 14.52 149.02 14.76 150.72 14.65 152.29 15.14 153.79 16.02 155.48 15.96 157.1 16.24 158.71 16.53 160.38 16.55 161.88 17.41 163.45 17.93 165.19 17.57 166.69 18.43 168.37 18.4 169.89 19.14 171.65 18.71 173.14 19.62 174.68 20.25 176.45 19.8 177.97 20.58 179.53 21.14 181.2 21.15 182.88 21.14 184.39 21.95 186.11 21.75 187.69 22.23 189.15 23.29 190.76 23.62 192.39 23.81 194.02 24.02 195.54 24.77 197.3 24.38 198.97 24.42 200.43 25.44 202.14 25.29 203.61 26.32 205.4 25.79 206.95 26.38 208.58 26.63 210.1 27.4 211.7 27.75 213.45 27.42 214.9 28.48 216.67 28.04 218.06 29.44 219.81 29.13 221.29 30.06 223.11 29.37 224.56 30.49 226.27 30.31 227.85 30.8 229.33 31.74 231.11 31.28 232.68 31.8 234.32 31.99 235.81 32.89 237.49 32.89 239.16 32.93 240.7 33.64 242.28 34.11 243.95 34.14 245.62 34.18 247.06 35.35 248.85 34.81 250.43 35.31 251.92 36.21 253.48 36.73 255.07 37.14 256.8 36.89 258.3 37.76 259.96 37.9 261.65 37.8 263.2 38.45 264.9 38.35 266.39 39.23 268.11 39.08 269.7 39.48 271.22 40.27 273.01 39.76 274.63 40.04 276.19 40.63 277.76 41.18 279.44 41.19 280.88 42.36 282.5 42.62 284.23 42.43 285.7 43.44 287.45 43.09 289.08 43.37 290.66 43.86 292.26 44.29 293.96 44.25 295.86 44.75 294.56 46.34 293.88 47.83 293.93 49.58 293.47 51.15 292.73 52.62 291.87 54.04 292.21 55.9 291.44 57.35 290.1 58.61 289.54 60.14 289.28 61.78 288.63 63.28 288.72 65.04 287.34 66.29 286.96 67.88 287.27 69.73 286.53 71.19 285.29 72.49 285.35 74.24 284.17 75.55 284.37 77.36 283.51 78.78 283.28 80.43 282.86 82.01 281.46 83.25 281.45 84.98 280.62 86.41 280.46 88.09 279.68 89.54 278.82 90.97 278.94 92.74 277.52 93.97 276.98 95.51 276.57 97.1 276.4 98.77 275.44 100.16 275.64 101.96 274.54 103.3 274.28 104.94 273.72 106.47 272.7 107.83 272.7 109.56 272.28 111.14 271 112.41 271.25 114.23 270.53 115.7 270.01 117.24 268.99 118.61 268.96 120.32 268.14 121.76 267.26 123.17 266.87 124.76 266.13 126.23 265.92 127.88 265.02 129.29 264.91 130.99 264.52 132.58 264.01 134.13 263.14 135.56 262.82 137.18 262.27 138.72 261.75 140.26 261.02 141.74 260.42 143.25 260.02 144.84 259.53 146.4 259.38 148.08 258.38 149.45 258.14 151.09 257.61 152.64 256.34 153.92 255.64 155.4 256.01 157.26 254.47 158.44 254.57 160.21 254.24 161.83 252.83 163.06 253.35 164.98 251.81 166.17 251.99 167.97 251.12 169.39 250.11 170.76 250.25 172.54 249.94 174.17 249.25 175.65 248.23 177.02 248.17 178.73 247.51 180.23 247.03 181.79 246.61 183.38 246.18 184.96 245.61 186.49 244.33 187.77 244.04 189.41 243.49 190.94 242.73 192.41 242.45 194.04 241.97 195.6 241.11 197.03 241.04 198.74 240.1 200.14 240.09 201.88 239.57 203.43 238.53 204.79 238.36 206.46 237.29 207.82 237.06 209.47 236.59 211.04 235.29 212.31 235.51 214.13 234.2 215.4 234.51 217.24 233.46 218.61 232.87 220.13 232.75 221.83 231.43 223.09 231.22 224.74 231.11 226.44 230.01 227.79 229.35 229.29 229.6 231.11 228.16 232.33 228.1 234.04 228.01 235.74 226.93 237.09 226.47 238.67 225.87 240.19 225 241.62 225.3 243.46 224.68 244.98 223.45 246.28 222.91 247.82 223.17 249.65 222.07 251 221.68 252.6 220.63 253.97 220.41 255.62 219.78 257.14 218.84 258.54 219.23 260.42 217.81 261.65 217.74 263.37 216.6 264.7 216.08 266.26 216.47 268.14 215.23 269.44 214.57 270.97 214.46 272.76" fill="#fff"/>
    <polygon points="214.46 272.76 212.9 271.75 211.24 271.76 209.64 271.41 207.91 271.71 206.45 270.74 204.76 270.82 203.26 270.03 201.57 270.13 200.07 269.34 198.34 269.66 196.9 268.56 195.17 268.85 193.69 267.93 192.01 267.97 190.33 268.02 188.75 267.62 187.12 267.43 185.67 266.4 184.01 266.35 182.34 266.38 180.79 265.83 179.14 265.73 177.59 265.21 175.95 265.08 174.48 264.11 172.77 264.38 171.26 263.61 169.61 263.55 168.15 262.57 166.39 263.04 164.78 262.77 163.18 262.51 161.58 262.17 160 261.79 158.57 260.66 156.93 260.52 155.2 260.82 153.81 259.51 152.12 259.64 150.55 259.18 148.83 259.42 147.2 259.21 145.64 258.68 144.15 257.82 142.39 258.26 140.93 257.27 139.3 257.07 137.68 256.86 136.11 256.41 134.41 256.58 132.89 255.86 131.31 255.43 129.68 255.3 128.22 254.29 126.55 254.32 125.04 253.55 123.31 253.87 121.78 253.2 120.19 252.78 118.6 252.41 116.89 252.62 115.32 252.15 113.61 252.31 112.12 251.46 110.44 251.52 108.94 250.69 107.43 249.94 105.81 249.72 104.07 250.08 102.49 249.66 100.83 249.61 99.33 248.79 97.79 248.18 96.24 247.58 94.54 247.72 92.83 247.93 91.38 246.86 89.81 246.37 88.14 246.4 86.61 245.74 85.01 245.37 83.22 245.96 81.66 245.41 80.18 244.51 78.62 243.98 76.85 244.46 75.24 244.17 73.74 243.35 72.12 243.09 70.47 242.98 68.9 242.53 67.3 242.18 65.8 241.36 64.18 241.1 62.57 240.81 60.91 240.74 59.31 240.41 57.72 240.04 56.21 239.26 54.46 239.6 52.81 239.55 51.32 238.63 49.66 238.57 48.19 237.64 46.38 238.3 44.79 237.95 43.32 237.01 41.74 236.57 39.98 236.96 38.49 236.11 36.82 236.1 35.31 235.31 33.75 234.78 32.02 235.08 30.47 234.46 28.86 234.16 27.18 234.21 25.55 233.98 24.05 233.14 22.51 232.52 20.81 232.65 19.3 231.87 17.62 231.9 16.12 231.07 14.32 231.66 12.88 230.51 11.12 230.93 9.6 230.2 7.89 230.33 6.42 229.3 5.21 228.95 5.63 227.77 6.25 226.26 6.88 224.76 7.1 223.07 7.78 221.58 8.14 219.96 9.21 218.64 9.64 217.04 10.5 215.63 11.62 214.33 11.52 212.51 11.92 210.91 12.51 209.38 13.31 207.94 13.88 206.4 15.1 205.14 15.99 203.74 16.41 202.14 17.19 200.69 17.5 199.05 17.87 197.43 18.61 195.97 19.28 194.47 20.05 193.02 20.33 191.37 20.85 189.81 21.48 188.3 22.18 186.82 23.08 185.43 23.87 183.99 24.04 182.28 25.23 181.01 25.91 179.52 26.21 177.87 26.87 176.37 27.97 175.06 27.73 173.18 29.25 172.05 29.03 170.18 29.97 168.81 31.22 167.56 31.91 166.08 31.55 164.16 33 163 32.98 161.22 34.4 160.04 34.88 158.47 34.71 156.63 36.04 155.42 36.92 154.02 36.74 152.18 37.8 150.85 37.9 149.12 38.77 147.72 39.78 146.37 40.3 144.81 40.64 143.18 42.03 141.99 42.64 140.47 42.82 138.77 43.67 137.35 43.74 135.61 44.27 134.05 44.9 132.54 46.43 131.41 46.58 129.7 46.87 128.05 48.02 126.76 48.46 125.17 49.33 123.76 49.8 122.19 50.42 120.68 50.51 118.94 51.55 117.6 51.92 115.98 53.32 114.8 53.61 113.14 54.04 111.55 54.7 110.05 55 108.39 55.8 106.95 57.23 105.78 56.93 103.88 57.97 102.54 58.24 100.88 58.75 99.32 60 98.07 60.16 96.36 61.04 94.96 61.58 93.41 62.75 92.12 62.84 90.38 64.01 89.09 64.15 87.37 65.08 85.99 65.17 84.25 66.29 82.94 67.37 81.62 67.69 79.98 68.45 78.52 68.48 76.76 69.02 75.2 70.06 73.86 70.75 72.37 71.26 70.81 71.72 69.23 72.31 67.7 72.71 66.09 73.86 64.79 74.89 63.45 75.44 61.9 75.27 60.05 76.29 58.7 77.16 57.29 78.18 55.94 78.34 54.22 78.98 52.72 79.75 51.27 79.94 49.57 80.4 47.98 81.47 46.66 82.08 45.14 82.68 43.62 83.89 42.35 83.56 40.43 84.61 39.1 85.21 37.56 85.86 36.06 86.26 34.45 87.18 33.06 88.27 31.74 88.75 30.16 89.53 28.71 90.16 27.19 90.24 25.44 90.6 23.81 91.58 22.44 92.1 20.88 92.71 19.35 93.61 17.95 94.28 16.46 94.45 14.74 95.75 13.51 95.86 11.77 96.99 10.46 97.3 8.81 98.02 7.32 98.66 5.8 99.29 4.26 100.89 4.72 102.53 4.87 104.01 5.83 105.82 5.2 107.32 6.02 109.05 5.77 110.54 6.71 112.24 6.57 113.79 7.18 115.43 7.34 116.88 8.43 118.64 8.04 120.2 8.56 121.85 8.7 123.37 9.39 125.06 9.31 126.5 10.45 128.23 10.14 129.73 11 131.33 11.32 133.13 10.71 134.58 11.79 136.29 11.58 137.83 12.2 139.52 12.13 140.93 13.4 142.74 12.73 144.27 13.41 145.8 14.11 147.39 14.52 149.02 14.76 150.72 14.65 152.29 15.14 153.79 16.02 155.48 15.96 157.1 16.24 158.71 16.53 160.38 16.55 161.88 17.41 163.45 17.93 165.19 17.57 166.69 18.43 168.37 18.4 169.89 19.14 171.65 18.71 173.14 19.62 174.68 20.25 176.45 19.8 177.97 20.58 179.53 21.14 181.2 21.15 182.88 21.14 184.39 21.95 186.11 21.75 187.69 22.23 189.15 23.29 190.76 23.62 192.39 23.81 194.02 24.02 195.54 24.77 197.3 24.38 198.97 24.42 200.43 25.44 202.14 25.29 203.61 26.32 205.4 25.79 206.95 26.38 208.58 26.63 210.1 27.4 211.7 27.75 213.45 27.42 214.9 28.48 216.67 28.04 218.06 29.44 219.81 29.13 221.29 30.06 223.11 29.37 224.56 30.49 226.27 30.31 227.85 30.8 229.33 31.74 231.11 31.28 232.68 31.8 234.32 31.99 235.81 32.89 237.49 32.89 239.16 32.93 240.7 33.64 242.28 34.11 243.95 34.14 245.62 34.18 247.06 35.35 248.85 34.81 250.43 35.31 251.92 36.21 253.48 36.73 255.07 37.14 256.8 36.89 258.3 37.76 259.96 37.9 261.65 37.8 263.2 38.45 264.9 38.35 266.39 39.23 268.11 39.08 269.7 39.48 271.22 40.27 273.01 39.76 274.63 40.04 276.19 40.63 277.76 41.18 279.44 41.19 280.88 42.36 282.5 42.62 284.23 42.43 285.7 43.44 287.45 43.09 289.08 43.37 290.66 43.86 292.26 44.29 293.96 44.25 295.86 44.75 294.56 46.34 293.88 47.83 293.93 49.58 293.47 51.15 292.73 52.62 291.87 54.04 292.21 55.9 291.44 57.35 290.1 58.61 289.54 60.14 289.28 61.78 288.63 63.28 288.72 65.04 287.34 66.29 286.96 67.88 287.27 69.73 286.53 71.19 285.29 72.49 285.35 74.24 284.17 75.55 284.37 77.36 283.51 78.78 283.28 80.43 282.86 82.01 281.46 83.25 281.45 84.98 280.62 86.41 280.46 88.09 279.68 89.54 278.82 90.97 278.94 92.74 277.52 93.97 276.98 95.51 276.57 97.1 276.4 98.77 275.44 100.16 275.64 101.96 274.54 103.3 274.28 104.94 273.72 106.47 272.7 107.83 272.7 109.56 272.28 111.14 271 112.41 271.25 114.23 270.53 115.7 270.01 117.24 268.99 118.61 268.96 120.32 268.14 121.76 267.26 123.17 266.87 124.76 266.13 126.23 265.92 127.88 265.02 129.29 264.91 130.99 264.52 132.58 264.01 134.13 263.14 135.56 262.82 137.18 262.27 138.72 261.75 140.26 261.02 141.74 260.42 143.25 260.02 144.84 259.53 146.4 259.38 148.08 258.38 149.45 258.14 151.09 257.61 152.64 256.34 153.92 255.64 155.4 256.01 157.26 254.47 158.44 254.57 160.21 254.24 161.83 252.83 163.06 253.35 164.98 251.81 166.17 251.99 167.97 251.12 169.39 250.11 170.76 250.25 172.54 249.94 174.17 249.25 175.65 248.23 177.02 248.17 178.73 247.51 180.23 247.03 181.79 246.61 183.38 246.18 184.96 245.61 186.49 244.33 187.77 244.04 189.41 243.49 190.94 242.73 192.41 242.45 194.04 241.97 195.6 241.11 197.03 241.04 198.74 240.1 200.14 240.09 201.88 239.57 203.43 238.53 204.79 238.36 206.46 237.29 207.82 237.06 209.47 236.59 211.04 235.29 212.31 235.51 214.13 234.2 215.4 234.51 217.24 233.46 218.61 232.87 220.13 232.75 221.83 231.43 223.09 231.22 224.74 231.11 226.44 230.01 227.79 229.35 229.29 229.6 231.11 228.16 232.33 228.1 234.04 228.01 235.74 226.93 237.09 226.47 238.67 225.87 240.19 225 241.62 225.3 243.46 224.68 244.98 223.45 246.28 222.91 247.82 223.17 249.65 222.07 251 221.68 252.6 220.63 253.97 220.41 255.62 219.78 257.14 218.84 258.54 219.23 260.42 217.81 261.65 217.74 263.37 216.6 264.7 216.08 266.26 216.47 268.14 215.23 269.44 214.57 270.97 214.46 272.76" fill="none" stroke="#000" stroke-miterlimit="10" stroke-width="2"/>
  </g>
  <g>
    <polygon points="222.49 281.7 221 282.16 219.4 281.87 217.89 281.07 216.29 280.73 214.73 280.22 213.15 279.82 211.41 280.17 209.86 279.6 208.32 278.97 206.77 278.4 205.07 278.6 203.4 278.58 201.99 277.32 200.28 277.56 198.72 277.03 196.96 277.48 195.38 277.06 193.76 276.8 192.24 276.12 190.58 276.09 189.07 275.34 187.54 274.63 185.94 274.37 184.3 274.22 182.77 273.6 181.08 273.72 179.46 273.54 177.88 273.1 176.32 272.64 174.68 272.52 173.14 271.89 171.54 271.6 169.97 271.14 168.36 270.89 166.74 270.71 165.14 270.36 163.49 270.33 161.8 270.45 160.23 269.95 158.67 269.43 157.09 269.04 155.44 268.91 153.94 268.09 152.31 267.92 150.66 267.83 149.05 267.56 147.49 267.02 145.81 267.12 144.28 266.45 142.64 266.34 141.16 265.4 139.52 265.3 137.85 265.31 136.35 264.5 134.8 263.94 133.2 263.63 131.4 264.27 129.82 263.9 128.19 263.7 126.77 262.44 125.03 262.83 123.45 262.39 121.93 261.64 120.27 261.6 118.62 261.54 117.18 260.4 115.42 260.87 113.9 260.13 112.31 259.76 110.78 259.11 109.15 258.9 107.56 258.51 105.83 258.82 104.23 258.49 102.55 258.58 101.03 257.83 99.42 257.55 97.74 257.61 96.16 257.15 94.57 256.78 93.05 256.06 91.35 256.23 89.78 255.75 88.14 255.57 86.61 254.89 85.02 254.49 83.46 253.97 81.77 254.07 80.13 253.96 78.62 253.12 77.1 252.39 75.51 252.02 73.85 251.98 72.16 252.05 70.59 251.59 68.96 251.37 67.37 250.97 65.68 251.12 64.19 250.18 62.54 250.08 61.04 249.28 59.34 249.42 57.65 249.54 56.25 248.18 54.55 248.36 52.88 248.38 51.4 247.49 49.77 247.29 48.04 247.54 46.5 246.9 44.9 246.61 43.29 246.29 41.61 246.36 40.18 245.15 38.58 244.81 36.85 245.07 35.27 244.63 33.68 244.23 32.05 244.02 30.36 244.12 28.97 242.72 27.15 243.46 25.71 242.3 24.15 241.78 22.54 241.46 20.79 241.82 19.32 240.8 17.65 240.82 16.04 240.48 14.3 240.78 12.98 239.94 13.22 238.48 14.28 237.15 14.5 235.47 15.55 234.14 15.56 232.37 16.9 231.16 16.94 229.4 18.12 228.12 18.4 226.47 18.65 224.8 19.34 223.32 19.84 221.75 21.11 220.51 21.48 218.89 21.76 217.23 22.59 215.81 22.99 214.2 23.8 212.76 24.23 211.17 25.46 209.91 25.52 208.16 26.55 206.82 26.92 205.2 28.15 203.94 28.03 202.12 28.59 200.58 29.15 199.04 29.79 197.54 30.45 196.04 31.82 194.84 32.27 193.26 32.29 191.5 33.84 190.37 34.04 188.67 34.78 187.21 34.86 185.48 35.37 183.92 36.18 182.48 37.3 181.17 37.2 179.37 38.44 178.11 38.94 176.55 39.44 174.99 40.18 173.53 40.33 171.83 41.31 170.47 42.04 169 42.47 167.42 43.72 166.17 44.01 164.52 45.04 163.18 45.05 161.42 45.99 160.04 46.69 158.56 47.36 157.07 47.47 155.35 48.22 153.89 48.38 152.19 49.49 150.87 49.75 149.21 50.84 147.88 51.86 146.53 52.38 144.98 52.35 143.19 53.06 141.72 53.42 140.1 54.5 138.77 55.38 137.37 56.26 135.97 56.43 134.27 56.55 132.55 57.87 131.33 58.64 129.87 58.92 128.22 59.85 126.84 60.52 125.34 60.27 123.47 61.1 122.04 62.25 120.74 63.07 119.31 62.93 117.48 63.52 115.95 64.6 114.62 65.15 113.08 65.56 111.48 66.3 110.02 66.94 108.51 68.02 107.18 68.58 105.65 69.16 104.11 69.54 102.5 70.16 100.98 70.83 99.48 71.87 98.14 71.86 96.36 72.22 94.74 73.39 93.45 73.76 91.83 74.95 90.55 74.64 88.65 75.29 87.15 76.49 85.87 77.21 84.39 77.15 82.59 78.27 81.28 78.59 79.64 79.64 78.3 80.45 76.86 80.49 75.11 81.38 73.7 81.97 72.17 82.24 70.51 82.77 68.95 83.87 67.63 84.76 66.23 84.95 64.53 86 63.19 86.28 61.54 87.37 60.22 87.13 58.34 88.52 57.14 88.44 55.34 89.43 53.98 89.62 52.29 90.9 51.04 91.78 49.63 92.18 48.02 92.79 46.5 93.41 44.98 93.62 43.3 94.29 41.8 94.64 40.16 95.7 38.83 96.12 37.23 96.98 35.8 98.09 34.48 97.98 32.66 98.37 31.05 98.96 29.51 99.75 28.06 100.31 26.52 101.51 25.24 102.4 23.83 102.81 22.22 103.59 20.76 103.88 19.1 104.25 17.47 104.99 15.99 105.68 14.45 107.31 14.9 108.99 14.85 110.63 15.05 112.24 15.37 113.83 15.76 115.38 16.37 116.96 16.86 118.67 16.68 120.16 17.6 121.76 17.97 123.44 17.93 125.04 18.28 126.55 19.09 128.34 18.49 129.76 19.75 131.54 19.17 133.08 19.82 134.56 20.79 136.15 21.17 137.97 20.44 139.4 21.63 141.14 21.26 142.58 22.42 144.22 22.57 145.99 22.04 147.45 23.11 149 23.69 150.78 23.15 152.3 23.92 154.02 23.68 155.58 24.25 157.11 24.97 158.74 25.17 160.41 25.19 161.87 26.3 163.48 26.61 165.19 26.45 166.75 26.99 168.48 26.72 170.11 26.93 171.72 27.24 173.13 28.52 174.84 28.32 176.52 28.29 178.02 29.15 179.67 29.27 181.22 29.85 182.87 30 184.48 30.3 186.21 30.04 187.73 30.8 189.4 30.84 190.85 31.97 192.53 31.93 194.19 32.03 195.79 32.38 197.47 32.35 199.04 32.85 200.48 34.01 202.29 33.35 203.81 34.09 205.5 34.03 207.14 34.22 208.62 35.2 210.33 35.02 211.89 35.6 213.52 35.83 215.02 36.71 216.75 36.46 218.24 37.34 219.96 37.14 221.51 37.77 223.23 37.52 224.74 38.35 226.26 39.15 227.94 39.14 229.52 39.59 231.26 39.28 232.89 39.5 234.42 40.25 236.02 40.63 237.66 40.82 239.31 40.96 240.93 41.23 242.59 41.31 244.1 42.17 245.62 42.91 247.26 43.15 249.04 42.62 250.57 43.35 252.13 43.91 253.66 44.65 255.38 44.46 256.99 44.8 258.57 45.26 260.27 45.11 261.92 45.24 263.43 46.03 265.05 46.32 266.67 46.62 268.17 47.54 269.98 46.84 271.5 47.61 273.13 47.89 274.74 48.22 276.4 48.3 277.95 48.92 279.47 49.73 281.12 49.89 282.71 50.36 284.32 50.68 286.06 50.41 287.73 50.44 289.26 51.13 290.91 51.33 292.53 51.62 294.09 52.23 295.7 52.59 297.41 52.42 298.89 53.45 300.63 53.21 301.97 53.93 301.75 55.38 301.13 56.89 300.59 58.42 300.08 59.97 299.41 61.47 299.05 63.07 297.91 64.4 298.3 66.26 297.3 67.64 297.32 69.37 296.21 70.71 296.12 72.41 295.32 73.86 294.95 75.46 293.68 76.75 293.84 78.53 293.12 80.01 292.77 81.62 291.89 83.04 291.75 84.72 290.43 85.99 290.51 87.74 289.47 89.11 288.94 90.65 289.31 92.51 288.06 93.8 288.04 95.52 287.23 96.97 287.08 98.64 285.64 99.87 286.07 101.75 285.2 103.17 284.31 104.59 283.7 106.11 283.25 107.68 283.14 109.37 282.45 110.86 281.39 112.21 281.23 113.88 280.75 115.44 280.25 116.99 280.02 118.63 278.98 120 278.27 121.47 278.39 123.24 277.35 124.6 277.16 126.25 276.24 127.66 276.43 129.45 275.34 130.79 274.52 132.23 274.74 134.03 273.77 135.42 273.02 136.88 272.79 138.53 272.58 140.18 271.59 141.57 271.57 143.29 270.89 144.78 269.66 146.08 269.12 147.63 268.72 149.21 268.3 150.8 267.36 152.2 267.52 153.98 267.27 155.62 266.07 156.93 266 158.63 264.8 159.94 265.08 161.76 264.3 163.21 263.85 164.78 262.89 166.18 262.34 167.71 262.44 169.48 261.2 170.77 261.41 172.58 259.85 173.76 259.93 175.52 258.82 176.87 259.26 178.75 257.97 180.03 257.93 181.74 257.24 183.23 256.12 184.57 256.34 186.37 255.63 187.85 255.23 189.44 254.15 190.8 253.93 192.45 253.68 194.09 252.78 195.52 252.11 197.01 251.87 198.66 251.61 200.3 250.27 201.56 250.57 203.39 249.88 204.88 248.79 206.23 248.08 207.72 247.47 209.24 247.48 210.97 246.43 212.34 246.09 213.95 245.96 215.63 245.12 217.07 245 218.76 243.93 220.12 243.87 221.83 243.26 223.35 242.29 224.74 242.56 226.57 242.07 228.13 241.29 229.59 240.54 231.06 240.32 232.71 238.98 233.97 238.52 235.54 238.47 237.26 237.3 238.58 237.41 240.35 236.92 241.91 236.24 243.4 235.62 244.91 235.44 246.58 234.93 248.14 233.61 249.41 232.94 250.91 233.01 252.66 232.55 254.24 231.82 255.72 230.96 257.15 231.32 259.01 230.55 260.48 229.23 261.75 228.67 263.29 228.43 264.94 227.78 266.45 227.88 268.22 226.51 269.47 226.14 271.08 226.46 272.93 225.72 274.4 224.5 275.72 224.56 277.48 223.39 278.81 223.58 280.66 222.49 281.7" fill="#fff"/>
    <polygon points="222.49 281.7 221 282.16 219.4 281.87 217.89 281.07 216.29 280.73 214.73 280.22 213.15 279.82 211.41 280.17 209.86 279.6 208.32 278.97 206.77 278.4 205.07 278.6 203.4 278.58 201.99 277.32 200.28 277.56 198.72 277.03 196.96 277.48 195.38 277.06 193.76 276.8 192.24 276.12 190.58 276.09 189.07 275.34 187.54 274.63 185.94 274.37 184.3 274.22 182.77 273.6 181.08 273.72 179.46 273.54 177.88 273.1 176.32 272.64 174.68 272.52 173.14 271.89 171.54 271.6 169.97 271.14 168.36 270.89 166.74 270.71 165.14 270.36 163.49 270.33 161.8 270.45 160.23 269.95 158.67 269.43 157.09 269.04 155.44 268.91 153.94 268.09 152.31 267.92 150.66 267.83 149.05 267.56 147.49 267.02 145.81 267.12 144.28 266.45 142.64 266.34 141.16 265.4 139.52 265.3 137.85 265.31 136.35 264.5 134.8 263.94 133.2 263.63 131.4 264.27 129.82 263.9 128.19 263.7 126.77 262.44 125.03 262.83 123.45 262.39 121.93 261.64 120.27 261.6 118.62 261.54 117.18 260.4 115.42 260.87 113.9 260.13 112.31 259.76 110.78 259.11 109.15 258.9 107.56 258.51 105.83 258.82 104.23 258.49 102.55 258.58 101.03 257.83 99.42 257.55 97.74 257.61 96.16 257.15 94.57 256.78 93.05 256.06 91.35 256.23 89.78 255.75 88.14 255.57 86.61 254.89 85.02 254.49 83.46 253.97 81.77 254.07 80.13 253.96 78.62 253.12 77.1 252.39 75.51 252.02 73.85 251.98 72.16 252.05 70.59 251.59 68.96 251.37 67.37 250.97 65.68 251.12 64.19 250.18 62.54 250.08 61.04 249.28 59.34 249.42 57.65 249.54 56.25 248.18 54.55 248.36 52.88 248.38 51.4 247.49 49.77 247.29 48.04 247.54 46.5 246.9 44.9 246.61 43.29 246.29 41.61 246.36 40.18 245.15 38.58 244.81 36.85 245.07 35.27 244.63 33.68 244.23 32.05 244.02 30.36 244.12 28.97 242.72 27.15 243.46 25.71 242.3 24.15 241.78 22.54 241.46 20.79 241.82 19.32 240.8 17.65 240.82 16.04 240.48 14.3 240.78 12.98 239.94 13.22 238.48 14.28 237.15 14.5 235.47 15.55 234.14 15.56 232.37 16.9 231.16 16.94 229.4 18.12 228.12 18.4 226.47 18.65 224.8 19.34 223.32 19.84 221.75 21.11 220.51 21.48 218.89 21.76 217.23 22.59 215.81 22.99 214.2 23.8 212.76 24.23 211.17 25.46 209.91 25.52 208.16 26.55 206.82 26.92 205.2 28.15 203.94 28.03 202.12 28.59 200.58 29.15 199.04 29.79 197.54 30.45 196.04 31.82 194.84 32.27 193.26 32.29 191.5 33.84 190.37 34.04 188.67 34.78 187.21 34.86 185.48 35.37 183.92 36.18 182.48 37.3 181.17 37.2 179.37 38.44 178.11 38.94 176.55 39.44 174.99 40.18 173.53 40.33 171.83 41.31 170.47 42.04 169 42.47 167.42 43.72 166.17 44.01 164.52 45.04 163.18 45.05 161.42 45.99 160.04 46.69 158.56 47.36 157.07 47.47 155.35 48.22 153.89 48.38 152.19 49.49 150.87 49.75 149.21 50.84 147.88 51.86 146.53 52.38 144.98 52.35 143.19 53.06 141.72 53.42 140.1 54.5 138.77 55.38 137.37 56.26 135.97 56.43 134.27 56.55 132.55 57.87 131.33 58.64 129.87 58.92 128.22 59.85 126.84 60.52 125.34 60.27 123.47 61.1 122.04 62.25 120.74 63.07 119.31 62.93 117.48 63.52 115.95 64.6 114.62 65.15 113.08 65.56 111.48 66.3 110.02 66.94 108.51 68.02 107.18 68.58 105.65 69.16 104.11 69.54 102.5 70.16 100.98 70.83 99.48 71.87 98.14 71.86 96.36 72.22 94.74 73.39 93.45 73.76 91.83 74.95 90.55 74.64 88.65 75.29 87.15 76.49 85.87 77.21 84.39 77.15 82.59 78.27 81.28 78.59 79.64 79.64 78.3 80.45 76.86 80.49 75.11 81.38 73.7 81.97 72.17 82.24 70.51 82.77 68.95 83.87 67.63 84.76 66.23 84.95 64.53 86 63.19 86.28 61.54 87.37 60.22 87.13 58.34 88.52 57.14 88.44 55.34 89.43 53.98 89.62 52.29 90.9 51.04 91.78 49.63 92.18 48.02 92.79 46.5 93.41 44.98 93.62 43.3 94.29 41.8 94.64 40.16 95.7 38.83 96.12 37.23 96.98 35.8 98.09 34.48 97.98 32.66 98.37 31.05 98.96 29.51 99.75 28.06 100.31 26.52 101.51 25.24 102.4 23.83 102.81 22.22 103.59 20.76 103.88 19.1 104.25 17.47 104.99 15.99 105.68 14.45 107.31 14.9 108.99 14.85 110.63 15.05 112.24 15.37 113.83 15.76 115.38 16.37 116.96 16.86 118.67 16.68 120.16 17.6 121.76 17.97 123.44 17.93 125.04 18.28 126.55 19.09 128.34 18.49 129.76 19.75 131.54 19.17 133.08 19.82 134.56 20.79 136.15 21.17 137.97 20.44 139.4 21.63 141.14 21.26 142.58 22.42 144.22 22.57 145.99 22.04 147.45 23.11 149 23.69 150.78 23.15 152.3 23.92 154.02 23.68 155.58 24.25 157.11 24.97 158.74 25.17 160.41 25.19 161.87 26.3 163.48 26.61 165.19 26.45 166.75 26.99 168.48 26.72 170.11 26.93 171.72 27.24 173.13 28.52 174.84 28.32 176.52 28.29 178.02 29.15 179.67 29.27 181.22 29.85 182.87 30 184.48 30.3 186.21 30.04 187.73 30.8 189.4 30.84 190.85 31.97 192.53 31.93 194.19 32.03 195.79 32.38 197.47 32.35 199.04 32.85 200.48 34.01 202.29 33.35 203.81 34.09 205.5 34.03 207.14 34.22 208.62 35.2 210.33 35.02 211.89 35.6 213.52 35.83 215.02 36.71 216.75 36.46 218.24 37.34 219.96 37.14 221.51 37.77 223.23 37.52 224.74 38.35 226.26 39.15 227.94 39.14 229.52 39.59 231.26 39.28 232.89 39.5 234.42 40.25 236.02 40.63 237.66 40.82 239.31 40.96 240.93 41.23 242.59 41.31 244.1 42.17 245.62 42.91 247.26 43.15 249.04 42.62 250.57 43.35 252.13 43.91 253.66 44.65 255.38 44.46 256.99 44.8 258.57 45.26 260.27 45.11 261.92 45.24 263.43 46.03 265.05 46.32 266.67 46.62 268.17 47.54 269.98 46.84 271.5 47.61 273.13 47.89 274.74 48.22 276.4 48.3 277.95 48.92 279.47 49.73 281.12 49.89 282.71 50.36 284.32 50.68 286.06 50.41 287.73 50.44 289.26 51.13 290.91 51.33 292.53 51.62 294.09 52.23 295.7 52.59 297.41 52.42 298.89 53.45 300.63 53.21 301.97 53.93 301.75 55.38 301.13 56.89 300.59 58.42 300.08 59.97 299.41 61.47 299.05 63.07 297.91 64.4 298.3 66.26 297.3 67.64 297.32 69.37 296.21 70.71 296.12 72.41 295.32 73.86 294.95 75.46 293.68 76.75 293.84 78.53 293.12 80.01 292.77 81.62 291.89 83.04 291.75 84.72 290.43 85.99 290.51 87.74 289.47 89.11 288.94 90.65 289.31 92.51 288.06 93.8 288.04 95.52 287.23 96.97 287.08 98.64 285.64 99.87 286.07 101.75 285.2 103.17 284.31 104.59 283.7 106.11 283.25 107.68 283.14 109.37 282.45 110.86 281.39 112.21 281.23 113.88 280.75 115.44 280.25 116.99 280.02 118.63 278.98 120 278.27 121.47 278.39 123.24 277.35 124.6 277.16 126.25 276.24 127.66 276.43 129.45 275.34 130.79 274.52 132.23 274.74 134.03 273.77 135.42 273.02 136.88 272.79 138.53 272.58 140.18 271.59 141.57 271.57 143.29 270.89 144.78 269.66 146.08 269.12 147.63 268.72 149.21 268.3 150.8 267.36 152.2 267.52 153.98 267.27 155.62 266.07 156.93 266 158.63 264.8 159.94 265.08 161.76 264.3 163.21 263.85 164.78 262.89 166.18 262.34 167.71 262.44 169.48 261.2 170.77 261.41 172.58 259.85 173.76 259.93 175.52 258.82 176.87 259.26 178.75 257.97 180.03 257.93 181.74 257.24 183.23 256.12 184.57 256.34 186.37 255.63 187.85 255.23 189.44 254.15 190.8 253.93 192.45 253.68 194.09 252.78 195.52 252.11 197.01 251.87 198.66 251.61 200.3 250.27 201.56 250.57 203.39 249.88 204.88 248.79 206.23 248.08 207.72 247.47 209.24 247.48 210.97 246.43 212.34 246.09 213.95 245.96 215.63 245.12 217.07 245 218.76 243.93 220.12 243.87 221.83 243.26 223.35 242.29 224.74 242.56 226.57 242.07 228.13 241.29 229.59 240.54 231.06 240.32 232.71 238.98 233.97 238.52 235.54 238.47 237.26 237.3 238.58 237.41 240.35 236.92 241.91 236.24 243.4 235.62 244.91 235.44 246.58 234.93 248.14 233.61 249.41 232.94 250.91 233.01 252.66 232.55 254.24 231.82 255.72 230.96 257.15 231.32 259.01 230.55 260.48 229.23 261.75 228.67 263.29 228.43 264.94 227.78 266.45 227.88 268.22 226.51 269.47 226.14 271.08 226.46 272.93 225.72 274.4 224.5 275.72 224.56 277.48 223.39 278.81 223.58 280.66 222.49 281.7" fill="none" stroke="#000" stroke-miterlimit="10" stroke-width="2"/>
  </g>
  <g>
    <path d="M212.78,258.46l-.4,1.58-.35,1.6-.31,1.61,1.25.18,1.23.16-.24,1.64-1.66-.11-1.63-.31-1.84-.39-1.79-.52.47-1.64,1.26.33,1.26.28.3-1.62.38-1.62.4-1.62,1.67.43Z"/>
    <path d="M206.27,259.84l-.7,1.19-1.14.78-1.38.07-1.65-.87-.38-1.78.68-1.52,1.37-.93,1.66-.08,1.43,1.23.09,1.92ZM202.94,258.94l.48,1.25,1.28-1-.36-.83-1.4.58Z"/>
    <path d="M198.64,256.47l-1.57.97-1.12-1.45,1.68-.96,1.01,1.45Z"/>
    <path d="M180.41,258.67l-.37-1.86-.24-1.88-.2-1.87,1.63-.28.28,1.73.24,1.77,1.3-1.04,1.24-1.1.52-.17.38.37h-.03s.57,1.26.57,1.26l.51,1.28v-.02s.46-.91.46-.91l1.14-2.11,1.48.73-.74,1.56-.84,1.5-.89,1.47h0s-.35.61-.35.61l-.44.18-.35-.26-.81-1.55-.64-1.61-1.5,1.2-1.49,1.22-.56.21-.28-.42Z"/>
    <path d="M177.86,254.56l-.58,1.43-1.03,1.14-1.38.67-1.52-.15-1.16-.77-.71-1.2-.09-1.38.52-1.34.9-1.12,1.22-.75,1.42-.1,1.44.67.87,1.32.1,1.58ZM175.13,252.7l-1.67,1.1-.31,1.38,1.02.9,1.3-.51.69-1.28-1.02-1.59Z"/>
    <path d="M163.61,249.09l1.69-.15.2,2.03,1.28.27,1.27.25,1.08-1.68,1.59.78-.98,1.67-1.18,1.54-.96,1.18-1.01,1.13-.98.3-.77-.64-.42-1.65-.35-1.67-.24-1.69-.2-1.69ZM167.1,252.97l-1.37-.27.27,1.82,1.1-1.55Z"/>
  </g>
  <g>
    <polyline points="128.47 215.58 127.03 216.26 125.43 216.85 123.73 217.08 122.02 216.96 120.41 216.43 118.93 215.6 117.62 214.51 116.51 213.21 115.64 211.73 114.9 210.22 114.1 208.63 113.5 206.95 112.9 205.27 112.67 203.55 111.02 203.75 109.41 204.37 107.89 205.21 108.36 206.81 108.83 208.41 109.5 209.94 110.33 211.4 111.19 212.83 112.12 214.22 113.17 215.52 114.31 216.75 115.55 217.89 116.9 218.88 118.28 219.83 119.75 220.44 121.29 220.87 122.88 221.08 124.47 221.12 126.07 221.05 127.62 220.65 129.12 220.07 130.46 219.21 131.72 218.22" fill="none" stroke="#1b1b1b" stroke-miterlimit="10" stroke-width="2"/>
    <polyline points="131.07 213.44 132.01 211.98 132.55 210.31 132.52 208.57 131.98 206.92 130.91 205.59 129.28 205.39 127.9 206.65 127.66 208.51 128.27 210.29 129.13 211.58 130.15 212.74 131.28 213.81 132.54 214.71 133.86 215.53 135.3 216.12 136.81 216.53 138.55 216.65 140.28 216.53 141.97 216.11 143.55 215.44 144.73 216.48 145.95 217.5 147.16 218.53 145.8 219.29 144.39 219.95 142.91 220.45 141.36 220.63 139.81 220.73 138.25 220.63 136.72 220.3 135.24 219.79 133.72 219.07 132.22 218.33 130.85 217.36 129.52 216.36 128.24 215.27 127.13 214.01 126.2 212.62 125.41 211.15 124.86 209.58 124.72 208.12 124.84 206.65 125.33 205.25 126.12 204 127.13 202.94 128.41 202.07 129.92 201.72 131.44 202.01 132.87 202.58 134.13 203.47 135.07 204.75 135.71 206.22 136.09 207.76 136.17 209.36 136.03 210.95 135.58 212.48 134.93 213.93 134.14 215.32" fill="none" stroke="#1b1b1b" stroke-miterlimit="10" stroke-width="2"/>
    <polyline points="150.52 215.48 151.21 213.91 151.71 212.27 152.11 210.6 152.37 208.89 152.22 207.18 151.74 205.54 150.78 204.12 149.35 203.16 147.69 202.67 146.04 202.43 144.39 202.64 142.91 203.39 141.91 204.71 141.42 206.28 141.15 207.92 141.18 209.59 141.47 211.22 142.1 212.74 142.87 214.2 143.81 215.55 144.98 216.72 146.29 217.73 147.68 218.62 149.16 219.33 150.73 219.87 152.35 220.21 154 220.36 155.65 220.36 157.2 220.01 158.72 219.52 160.18 218.89 161.63 218.21 162.98 217.34 164.24 216.35 165.36 215.2 166.43 214.02 167.4 212.74 168.26 211.34 167.14 210.21 166.01 209.1 165.12 210.54 164.04 211.81 162.9 213.02 161.64 214.12 160.17 214.92 158.66 215.65 157.07 216.16 155.41 216.37 153.73 216.35 152.08 216.07 150.51 215.73 149.04 215.09 147.64 214.34 146.35 213.4 145.39 212.12 144.85 210.61 144.69 209.03 144.94 207.47 146.02 206 147.86 206.25 148.77 207.63 148.67 209.31 148.15 210.91 147.47 212.45 146.64 213.31" fill="none" stroke="#1b1b1b" stroke-miterlimit="10" stroke-width="2"/>
  </g>
  <g>
    <polygon points="92.9 129.44 92.75 131.08 92.67 132.66 92.6 134.23 92.57 135.8 92.35 137.37 92.3 138.95 92.09 140.51 92.03 142.09 91.89 143.67 91.78 145.24 91.71 146.83 91.5 148.33 89.88 148.43 88.19 148.47 86.51 148.48 84.83 148.44 83.14 148.43 81.46 148.44 79.77 148.39 78.08 148.44 76.4 148.45 74.71 148.37 73.02 148.35 71.38 148.42 72.81 149.24 74.22 150.19 75.72 151 77.16 151.91 78.71 152.62 80.11 153.6 81.63 154.38 83.1 155.24 84.52 156.21 85.98 157.09 87.45 157.87 86.44 159.04 85.55 160.37 84.56 161.63 83.48 162.82 82.63 164.18 81.62 165.42 80.53 166.6 79.53 167.85 78.62 169.17 77.56 170.37 76.61 171.67 75.61 172.92 74.67 174.22 73.74 175.54 72.62 176.8 74.25 176.13 75.72 175.3 77.23 174.54 78.8 173.89 80.36 173.25 81.84 172.45 83.32 171.62 84.86 170.93 86.41 170.26 87.97 169.59 89.51 168.88 91.02 168.13 92.53 167.36 94.04 166.59 95.65 165.88 96.12 167.54 96.36 169.19 96.78 170.81 97.17 172.43 97.73 174.01 98.09 175.64 98.44 177.27 98.75 178.92 99.16 180.54 99.66 182.17 100.09 180.56 100.65 179.02 101.02 177.43 101.35 175.83 102.02 174.32 102.37 172.72 102.71 171.11 103.17 169.54 103.63 167.97 104.18 166.42 104.51 164.8 105.12 163.33 106.68 163.24 108.29 162.98 109.91 162.89 111.53 162.89 113.15 162.81 114.77 162.76 116.38 162.68 118 162.46 119.62 162.42 121.24 162.39 122.86 162.35 124.48 162.16 126.1 162 127.73 162.11 129.35 161.9 127.92 161.13 126.4 160.55 124.95 159.8 123.5 159.09 122.08 158.3 120.6 157.63 119.19 156.82 117.77 156.03 116.31 155.31 114.85 154.61 113.42 153.83 111.92 153.18 110.43 152.46 111.32 151.01 112.22 149.58 113.05 148.11 113.97 146.7 114.83 145.26 115.72 143.83 116.57 142.38 117.42 140.92 118.29 139.47 119.11 138 119.9 136.5 120.8 135.07 121.7 133.64 122.59 132.23 121.19 133.13 119.7 133.91 118.27 134.8 116.85 135.71 115.41 136.58 113.94 137.41 112.54 138.35 111.06 139.16 109.64 140.06 108.12 140.82 106.7 141.73 105.29 142.65 103.78 143.44 102.38 144.26 101.59 142.95 100.57 141.71 99.72 140.36 98.84 139.03 98.15 137.58 97.16 136.31 96.33 134.94 95.54 133.55 94.63 132.22 93.73 130.9 92.9 129.44" fill="#f6ffa4"/>
    <polygon points="92.9 129.44 92.75 131.08 92.67 132.66 92.6 134.23 92.57 135.8 92.35 137.37 92.3 138.95 92.09 140.51 92.03 142.09 91.89 143.67 91.78 145.24 91.71 146.83 91.5 148.33 89.88 148.43 88.19 148.47 86.51 148.48 84.83 148.44 83.14 148.43 81.46 148.44 79.77 148.39 78.08 148.44 76.4 148.45 74.71 148.37 73.02 148.35 71.38 148.42 72.81 149.24 74.22 150.19 75.72 151 77.16 151.91 78.71 152.62 80.11 153.6 81.63 154.38 83.1 155.24 84.52 156.21 85.98 157.09 87.45 157.87 86.44 159.04 85.55 160.37 84.56 161.63 83.48 162.82 82.63 164.18 81.62 165.42 80.53 166.6 79.53 167.85 78.62 169.17 77.56 170.37 76.61 171.67 75.61 172.92 74.67 174.22 73.74 175.54 72.62 176.8 74.25 176.13 75.72 175.3 77.23 174.54 78.8 173.89 80.36 173.25 81.84 172.45 83.32 171.62 84.86 170.93 86.41 170.26 87.97 169.59 89.51 168.88 91.02 168.13 92.53 167.36 94.04 166.59 95.65 165.88 96.12 167.54 96.36 169.19 96.78 170.81 97.17 172.43 97.73 174.01 98.09 175.64 98.44 177.27 98.75 178.92 99.16 180.54 99.66 182.17 100.09 180.56 100.65 179.02 101.02 177.43 101.35 175.83 102.02 174.32 102.37 172.72 102.71 171.11 103.17 169.54 103.63 167.97 104.18 166.42 104.51 164.8 105.12 163.33 106.68 163.24 108.29 162.98 109.91 162.89 111.53 162.89 113.15 162.81 114.77 162.76 116.38 162.68 118 162.46 119.62 162.42 121.24 162.39 122.86 162.35 124.48 162.16 126.1 162 127.73 162.11 129.35 161.9 127.92 161.13 126.4 160.55 124.95 159.8 123.5 159.09 122.08 158.3 120.6 157.63 119.19 156.82 117.77 156.03 116.31 155.31 114.85 154.61 113.42 153.83 111.92 153.18 110.43 152.46 111.32 151.01 112.22 149.58 113.05 148.11 113.97 146.7 114.83 145.26 115.72 143.83 116.57 142.38 117.42 140.92 118.29 139.47 119.11 138 119.9 136.5 120.8 135.07 121.7 133.64 122.59 132.23 121.19 133.13 119.7 133.91 118.27 134.8 116.85 135.71 115.41 136.58 113.94 137.41 112.54 138.35 111.06 139.16 109.64 140.06 108.12 140.82 106.7 141.73 105.29 142.65 103.78 143.44 102.38 144.26 101.59 142.95 100.57 141.71 99.72 140.36 98.84 139.03 98.15 137.58 97.16 136.31 96.33 134.94 95.54 133.55 94.63 132.22 93.73 130.9 92.9 129.44" fill="none" stroke="#000" stroke-linecap="round" stroke-linejoin="round" stroke-width="2"/>
  </g>
</svg>