<?xml version="1.0" encoding="UTF-8"?>
<svg id="_레이어_8" data-name="레이어 8" xmlns="http://www.w3.org/2000/svg" width="216" height="226.67" viewBox="0 0 216 226.67">
  <g>
    <g>
      <path d="M27.6,151.71c-.55.1-.92.26-1.44.37s-1.17-.15-1.68,0-1.09.23-1.6.4-.94.65-1.44.84-1,.45-1.48.68-1.03.39-1.5.65-1.04.41-1.49.71-.63,1-1.05,1.33-.91.59-1.3.96-1.08.48-1.43.88-.73.85-1.05,1.28-.5.99-.78,1.46-.59.93-.82,1.42-.14,1.12-.33,1.63-.76.9-.91,1.42-.19,1.09-.29,1.62.26,1.13.2,1.67-.21,1.05-.23,1.6-.39,1.08-.38,1.63.35,1.07.39,1.61-.23,1.11-.16,1.66.54,1.01.64,1.55.05,1.09.17,1.62.42,1.01.56,1.53.36,1.01.53,1.53-.07,1.17.12,1.68.64.92.85,1.42.29,1.06.52,1.55.64.9.88,1.38.39,1.02.65,1.5.39,1.03.66,1.5.86.75,1.15,1.2.22,1.16.53,1.61.64.89.97,1.33.73.83,1.07,1.25.85.72,1.21,1.12.58.96.95,1.35,1.04.5,1.43.87.61.96,1.02,1.31.93.59,1.36.92.87.66,1.31.96.79.81,1.25,1.07,1.09.29,1.57.52,1.11.48,1.6.67c.31.78-.54.66-.68,1.68-.07.48.28,1.08.24,1.71-.03.52-.13,1.07-.11,1.66.02.54.08,1.09.16,1.66.08.54-.05,1.14.09,1.7s.57.98.78,1.51.32,1.07.62,1.56.47,1.04.83,1.48c.35.42.81.78,1.24,1.16.41.36.81.78,1.3,1.1.45.29,1.04.42,1.57.67.49.23.95.62,1.5.8.51.17,1.12.11,1.69.25.52.12,1.08.15,1.66.24.53.08,1.08.13,1.67.18.54.05,1.09.25,1.67.27.54.02,1.1-.1,1.68-.11.57-.08,1.11-.18,1.65-.28.57-.11,1.1-.25,1.63-.38.56-.14,1.12-.2,1.64-.37.55-.18,1.09-.34,1.59-.54.54-.21,1.02-.51,1.51-.75.52-.25.99-.54,1.46-.82.5-.3.83-.77,1.27-1.09.47-.34,1.03-.51,1.44-.87.43-.39.7-.89,1.06-1.29.38-.43.71-.86,1.02-1.3.33-.47.94-.74,1.21-1.22.28-.51.6-1,.81-1.5.22-.53-.03-1.22.12-1.74.17-.56.8-.99.9-1.51.12-.59-.14-1.2-.09-1.72.06-.63-.03-1.19-.03-1.67,0-1.03.7-1.05.33-1.79s-.93-.39-1.38-1.06-.03-.95-.48-1.62-.76-.46-1.21-1.12-.31-.76-.77-1.42-.25-.8-.7-1.47-.74-.47-1.19-1.13-.55-.6-1-1.26-.39-.71-.84-1.38-.25-.81-.7-1.47-.66-.53-1.12-1.2-.4-.7-.85-1.37-.48-.65-.93-1.31-.51-.63-.96-1.3-.5-.63-.95-1.3-.44-.67-.89-1.34-.14-.88-.59-1.55-.57-.59-1.02-1.26-.45-.67-.9-1.34-.36-.73-.82-1.4-.56-.59-1.02-1.26-.48-.65-.94-1.32-.32-.76-.77-1.43-.66-.53-1.11-1.2-.29-.78-.74-1.45-.68-.51-1.14-1.18-.46-.66-.92-1.33-.24-.81-.69-1.48-.62-.56-1.07-1.23-.23-.82-.68-1.49-.59-.58-1.04-1.25-.48-.65-.94-1.32-.13-.89-.59-1.56-.78-.45-1.24-1.12-.13-.89-.58-1.56-.82-.42-1.27-1.1-.24-.82-.69-1.49-.44-.68-.89-1.36-.65-.54-1.1-1.22-.31-.74-.93-1.27Z" fill="#eaeaea"/>
      <path d="M27.6,151.71c-.55.1-.92.26-1.44.37s-1.17-.15-1.68,0-1.09.23-1.6.4-.94.65-1.44.84-1,.45-1.48.68-1.03.39-1.5.65-1.04.41-1.49.71-.63,1-1.05,1.33-.91.59-1.3.96-1.08.48-1.43.88-.73.85-1.05,1.28-.5.99-.78,1.46-.59.93-.82,1.42-.14,1.12-.33,1.63-.76.9-.91,1.42-.19,1.09-.29,1.62.26,1.13.2,1.67-.21,1.05-.23,1.6-.39,1.08-.38,1.63.35,1.07.39,1.61-.23,1.11-.16,1.66.54,1.01.64,1.55.05,1.09.17,1.62.42,1.01.56,1.53.36,1.01.53,1.53-.07,1.17.12,1.68.64.92.85,1.42.29,1.06.52,1.55.64.9.88,1.38.39,1.02.65,1.5.39,1.03.66,1.5.86.75,1.15,1.2.22,1.16.53,1.61.64.89.97,1.33.73.83,1.07,1.25.85.72,1.21,1.12.58.96.95,1.35,1.04.5,1.43.87.61.96,1.02,1.31.93.59,1.36.92.87.66,1.31.96.79.81,1.25,1.07,1.09.29,1.57.52,1.11.48,1.6.67c.31.78-.54.66-.68,1.68-.07.48.28,1.08.24,1.71-.03.52-.13,1.07-.11,1.66.02.54.08,1.09.16,1.66.08.54-.05,1.14.09,1.7s.57.98.78,1.51.32,1.07.62,1.56.47,1.04.83,1.48c.35.42.81.78,1.24,1.16.41.36.81.78,1.3,1.1.45.29,1.04.42,1.57.67.49.23.95.62,1.5.8.51.17,1.12.11,1.69.25.52.12,1.08.15,1.66.24.53.08,1.08.13,1.67.18.54.05,1.09.25,1.67.27.54.02,1.1-.1,1.68-.11.57-.08,1.11-.18,1.65-.28.57-.11,1.1-.25,1.63-.38.56-.14,1.12-.2,1.64-.37.55-.18,1.09-.34,1.59-.54.54-.21,1.02-.51,1.51-.75.52-.25.99-.54,1.46-.82.5-.3.83-.77,1.27-1.09.47-.34,1.03-.51,1.44-.87.43-.39.7-.89,1.06-1.29.38-.43.71-.86,1.02-1.3.33-.47.94-.74,1.21-1.22.28-.51.6-1,.81-1.5.22-.53-.03-1.22.12-1.74.17-.56.8-.99.9-1.51.12-.59-.14-1.2-.09-1.72.06-.63-.03-1.19-.03-1.67,0-1.03.7-1.05.33-1.79s-.93-.39-1.38-1.06-.03-.95-.48-1.62-.76-.46-1.21-1.12-.31-.76-.77-1.42-.25-.8-.7-1.47-.74-.47-1.19-1.13-.55-.6-1-1.26-.39-.71-.84-1.38-.25-.81-.7-1.47-.66-.53-1.12-1.2-.4-.7-.85-1.37-.48-.65-.93-1.31-.51-.63-.96-1.3-.5-.63-.95-1.3-.44-.67-.89-1.34-.14-.88-.59-1.55-.57-.59-1.02-1.26-.45-.67-.9-1.34-.36-.73-.82-1.4-.56-.59-1.02-1.26-.48-.65-.94-1.32-.32-.76-.77-1.43-.66-.53-1.11-1.2-.29-.78-.74-1.45-.68-.51-1.14-1.18-.46-.66-.92-1.33-.24-.81-.69-1.48-.62-.56-1.07-1.23-.23-.82-.68-1.49-.59-.58-1.04-1.25-.48-.65-.94-1.32-.13-.89-.59-1.56-.78-.45-1.24-1.12-.13-.89-.58-1.56-.82-.42-1.27-1.1-.24-.82-.69-1.49-.44-.68-.89-1.36-.65-.54-1.1-1.22-.31-.74-.93-1.27Z" fill="none" stroke="#000" stroke-miterlimit="10" stroke-width="2"/>
    </g>
    <g>
      <path d="M208.07,43.81c-.11-.54-.29-1.05-.42-1.57s-.31-1.04-.46-1.56-.64-.93-.8-1.44.2-1.22.01-1.72-.2-1.1-.41-1.59-1.13-.69-1.36-1.17.05-1.23-.2-1.71-.86-.76-1.13-1.23-.18-1.17-.47-1.62-1.29-.43-1.61-.86-.12-1.25-.45-1.68-.43-1.06-.78-1.47-1.36-.23-1.73-.62-.39-1.12-.78-1.5-.63-.93-1.03-1.29-1.05-.44-1.47-.78-1.08-.36-1.51-.67-.58-1.05-1.03-1.35-1.22-.08-1.68-.35-.84-.68-1.31-.93-.61-1.21-1.09-1.44-1.01-.45-1.51-.66-1.08-.26-1.59-.44-1.08-.22-1.59-.37-.94-.76-1.46-.88-1.24.54-1.76.44-1.1.14-1.63.07-1-.88-1.53-.92-1.11.48-1.64.48-1.11-.76-1.65-.72-.99,1.03-1.52,1.1-1.1-.12-1.62,0-1.01.34-1.52.5-1.19-.11-1.68.1-1.01.45-1.48.71-.52,1.16-.96,1.48-1.36.03-1.75.4-.11,1.33-.45,1.76-1.62.19-1.89.66.11,1.29-.1,1.8-1,.82-1.14,1.36.87,1.25.8,1.8c-.07.52-.98.97-.99,1.53-.01.52.57,1.05.61,1.6.04.52-.07,1.06.02,1.61.08.52-.47,1.19-.34,1.74.12.51,1.11.81,1.28,1.34.15.5.13,1.07.32,1.59.18.49.52.93.74,1.44.21.48-.14,1.23.1,1.73s.8.8,1.06,1.3.83.93,1.11,1.41c.08.81-.58.56-.97,1.54-.17.42-.52.86-.77,1.44-.2.45-.11,1.09-.36,1.63-.22.46-.16,1.1-.42,1.62-.23.46-1.31.51-1.58,1.02-.25.46.34,1.4.06,1.89-.26.46-.69.85-.98,1.33-.27.45-1.1.59-1.39,1.06s-.74.79-1.04,1.26-.66.84-.97,1.3-.09,1.25-.41,1.7-1.11.51-1.45.96-.47.99-.81,1.42-.3,1.14-.65,1.57-.96.6-1.32,1.02-.35,1.13-.72,1.54-1.18.39-1.55.79-.35,1.16-.74,1.55-.82.72-1.21,1.1-1.12.39-1.52.76-.17,1.42-.58,1.79-.78.78-1.19,1.14-1.01.49-1.44.84-1,.5-1.43.84-.64.95-1.08,1.29-1.42-.09-1.86.23-.83.7-1.28,1.01-.57,1.08-1.03,1.39-1.31-.03-1.77.26-.52,1.22-.99,1.5-.91.6-1.39.88-1.03.39-1.51.65-1.01.43-1.49.68-1.26.78-1.75,1.03c.27-.48.42-1.45.67-1.95s1.3-.6,1.53-1.11.6-.96.82-1.48-.23-1.29-.03-1.81.29-1.07.47-1.59.56-.98.73-1.51.68-.96.83-1.49-.7-1.34-.56-1.87.53-1,.66-1.54,1.14-.88,1.26-1.42.25-1.09.36-1.63-.13-1.16-.03-1.71.31-1.08.4-1.62-.56-1.21-.48-1.75,1.09-.99,1.16-1.53-.06-1.14,0-1.68-.87-1.21-.82-1.75c.05-.57.33-1.1.37-1.63.04-.57.87-1.08.9-1.6.03-.58-.64-1.17-.62-1.69.03-.6.77-1.13.79-1.63.02-.63-.84-1.2-.83-1.67,0-1.06-.02-.94.35-1.68s.25-.64.98-1.34c.33-.32.58-.78.99-1.23.33-.37,1.43-.17,1.77-.63.31-.41.11-1.21.41-1.69.27-.44.82-.75,1.07-1.25.24-.47.05-1.13.25-1.64s.6-.9.75-1.43.62-.97.71-1.51-.62-1.13-.59-1.68,1.04-1.06,1.01-1.61c-.02-.52-.09-1.11-.17-1.66-.08-.52-.35-1.06-.48-1.6-.12-.51-.69-.91-.87-1.44-.17-.49.08-1.18-.14-1.69-.21-.48-1.22-.59-1.48-1.09-.24-.46.06-1.24-.23-1.72-.27-.45-.84-.73-1.15-1.18-.29-.43-.59-.87-.93-1.31-.32-.42-.23-1.18-.58-1.6s-1.16-.4-1.54-.81-.82-.68-1.2-1.08-.16-1.35-.55-1.74-1.4-.07-1.81-.44-.65-.85-1.07-1.21c-.45-.32-.9-.59-1.34-.88s-.64-1.05-1.1-1.32-1.24-.03-1.71-.28-.82-.79-1.3-1.02-.84-.82-1.33-1.03-1.1-.25-1.6-.43-.99-.56-1.5-.71-1.17.08-1.68-.04-1.01-.63-1.53-.72-1.16.35-1.69.3-1.09.1-1.62.1-1.07.04-1.6.08-1.12-.29-1.65-.21-1.03.43-1.55.55-1.04.27-1.55.43-1,.38-1.49.6-1.07.26-1.54.52-.98.49-1.42.79-.78.76-1.2,1.11-.76.75-1.14,1.14-.38,1.07-.72,1.49-1.06.52-1.36.97-.26,1.07-.52,1.55-.45.93-.66,1.44-1.17.72-1.33,1.24-.47,1.03-.59,1.56.83,1.23.76,1.78-1.25.98-1.27,1.53.73,1.09.76,1.64.32,1.03.39,1.58-.84,1.23-.73,1.77,1.43.77,1.57,1.3-.78,1.36-.6,1.88,1.15.72,1.36,1.22.09,1.13.34,1.62.02,1.22.29,1.7,1.22.53,1.51,1,.81.73,1.12,1.18.49.95.83,1.39.2,1.1.56,1.52c.22.79.47.56.28,1.62-.08.45-.31.97-.43,1.6-.09.49-.12,1.04-.24,1.63-.1.5-.07,1.07-.19,1.64-.11.51-.1,1.08-.23,1.64-.12.51-.27,1.05-.4,1.6-.12.52-1.07.85-1.2,1.4-.13.52.03,1.12-.11,1.67-.13.52-.28,1.05-.42,1.59s-.51.98-.66,1.52,0,1.13-.15,1.66-.22,1.07-.38,1.6-.65.94-.81,1.47.21,1.2.04,1.74-.75.9-.92,1.43.26,1.23.08,1.76-.32,1.05-.49,1.57-.9.85-1.08,1.37.05,1.18-.14,1.7-.93.82-1.12,1.34-.04,1.15-.23,1.67-.31,1.05-.51,1.57-1.2.7-1.41,1.21.42,1.35.21,1.86-1.22.68-1.43,1.19.48,1.39.26,1.9-.96.78-1.18,1.28-.49.98-.71,1.48,0,1.2-.23,1.7-1.26.62-1.5,1.12-.12,1.15-.36,1.65-.02,1.21-.27,1.7-1.06.7-1.3,1.19-.61.92-.86,1.41.3,1.4.04,1.88-1.42.48-1.69.96-.02,1.24-.29,1.72-.08,1.22-.35,1.7-1.08.64-1.36,1.12-.46,1-.74,1.47-.61.91-.9,1.38-.89.74-1.18,1.2.24,1.45-.06,1.91-.66.88-.96,1.35-1.26.48-1.57.94-.6.91-.92,1.37.14,1.44-.17,1.89-1.15.53-1.47.98-.5,1-.82,1.44-1.11.54-1.44.98-.36,1.1-.7,1.54-.75.81-1.09,1.24-1.04.57-1.38,1,.15,1.54-.21,1.96-1.47.2-1.83.61-.29,1.2-.65,1.61-1.23.37-1.6.78-.71.83-1.08,1.24.05,1.55-.32,1.95-1.33.25-1.71.65-.85.7-1.24,1.09-.41,1.14-.8,1.53-1.22.32-1.61.7-.73.82-1.13,1.19-.29,1.31-.69,1.68-.71.86-1.13,1.22-1.06.47-1.48.83-.83.44-1.26.79c.71.39.77-.04,1.57.1s.72.59,1.52.74.83,0,1.63.14.73.55,1.53.7.9-.43,1.71-.28.78.23,1.58.38.81.06,1.61.21.76.34,1.56.49.84-.1,1.64.05.69.75,1.49.9.88-.31,1.68-.16.8.16,1.6.3.89-.36,1.69-.22.75.44,1.55.58.74.49,1.54.63.75.4,1.55.54.79.19,1.59.33.78.28,1.58.43.78.27,1.58.41.8.15,1.6.29.85-.13,1.65.01.77.29,1.57.43.9-.39,1.7-.25.72.58,1.52.72.79.2,1.59.34.79.2,1.59.34.96-.76,1.76-.62.62,1.12,1.42,1.26.9-.38,1.7-.24.72.59,1.52.74.92-.54,1.73-.4.78.28,1.58.42.89-.36,1.69-.21.61,1.21,1.41,1.36.94-.64,1.74-.5.69.78,1.49.92.83,0,1.63.14.83-.03,1.64.11.87-.25,1.67-.11.65,1.01,1.45,1.15.78.28,1.58.42.92-.53,1.73-.38.85-.11,1.65.03.64,1.02,1.44,1.16.89-.35,1.7-.21.9-.41,1.7-.26.7.71,1.5.86.81.13,1.61.28.91-.43,1.71-.28.77.35,1.57.5.65,1,1.46,1.14.88-.3,1.69-.39-.01-.51.5-1.46c.22-.4.24-1.02.55-1.58.23-.44.62-.86.9-1.39.24-.45.47-.95.74-1.48.24-.46,1.39-.49,1.66-1.01.24-.47-.3-1.37-.04-1.88.24-.47.4-1.01.65-1.52.24-.48.64-.89.9-1.4.24-.48,1.1-.67,1.35-1.17s.61-.92.86-1.42-.16-1.3.09-1.8.15-1.14.4-1.65,1.17-.65,1.41-1.15.71-.87.96-1.38.03-1.2.27-1.71.01-1.21.25-1.71,1.11-.69,1.35-1.19.02-1.2.26-1.71.91-.79,1.15-1.29.19-1.12.42-1.63.37-1.04.6-1.54.39-1.03.62-1.54.65-.91.88-1.42.3-1.07.53-1.58.93-.79,1.15-1.3.18-1.12.4-1.63.95-.79,1.17-1.3-.51-1.43-.29-1.94,1.37-.61,1.59-1.12-.44-1.39-.22-1.9,1.26-.51,1.48-1.03c.45-.31.33-1.17.77-1.48s1.11-.31,1.54-.62.69-.88,1.12-1.2,1.05-.41,1.47-.74.78-.76,1.2-1.09.68-.87,1.09-1.22.97-.53,1.37-.88,1.16-.33,1.56-.69.46-1.11.84-1.47.67-.86,1.06-1.23,1.03-.5,1.4-.88.75-.78,1.12-1.17.58-.94.94-1.34.62-.9.97-1.3.86-.69,1.2-1.1,1.07-.53,1.4-.95.03-1.35.35-1.78.89-.68,1.21-1.11.54-.94.85-1.38.73-.81,1.02-1.26.68-.86.96-1.3.34-1.07.61-1.52,1.21-.56,1.47-1.02-.21-1.36.04-1.83.99-.71,1.23-1.18.15-1.14.38-1.62.31-1.05.53-1.53,1.08-.72,1.28-1.21c.21-.51-.61-1.41-.42-1.9.2-.52,1.43-.64,1.61-1.13.19-.53.27-1.09.42-1.58.17-.54-.01-1.16.13-1.65.16-.55.07-1.13.19-1.62.14-.57.11-1.12.21-1.59.13-.61.77-1.03.84-1.47.17-1.03-.84-1.44-.16-1.87s.76.35,1.73.52c.45.08,1.03-.25,1.63-.18.49.06.99.33,1.55.36.51.03,1.03-.07,1.58-.07.52,0,1.07.48,1.61.45s1.13.3,1.66.22,1.01-.54,1.53-.67,1.06-.25,1.56-.43,1.09-.26,1.57-.51.65-1,1.09-1.31.91-.54,1.29-.92.32-1.06.64-1.5c.31-.42.73-.7.99-1.19.24-.46,1.21-.62,1.4-1.14.17-.48.3-1.06.43-1.6.12-.5.24-1.06.31-1.62.07-.51.09-1.08.12-1.64.03-.51-.81-1.06-.82-1.62,0-.52.42-1.06.37-1.62Z" fill="#eaeaea"/>
      <path d="M208.07,43.81c-.11-.54-.29-1.05-.42-1.57s-.31-1.04-.46-1.56-.64-.93-.8-1.44.2-1.22.01-1.72-.2-1.1-.41-1.59-1.13-.69-1.36-1.17.05-1.23-.2-1.71-.86-.76-1.13-1.23-.18-1.17-.47-1.62-1.29-.43-1.61-.86-.12-1.25-.45-1.68-.43-1.06-.78-1.47-1.36-.23-1.73-.62-.39-1.12-.78-1.5-.63-.93-1.03-1.29-1.05-.44-1.47-.78-1.08-.36-1.51-.67-.58-1.05-1.03-1.35-1.22-.08-1.68-.35-.84-.68-1.31-.93-.61-1.21-1.09-1.44-1.01-.45-1.51-.66-1.08-.26-1.59-.44-1.08-.22-1.59-.37-.94-.76-1.46-.88-1.24.54-1.76.44-1.1.14-1.63.07-1-.88-1.53-.92-1.11.48-1.64.48-1.11-.76-1.65-.72-.99,1.03-1.52,1.1-1.1-.12-1.62,0-1.01.34-1.52.5-1.19-.11-1.68.1-1.01.45-1.48.71-.52,1.16-.96,1.48-1.36.03-1.75.4-.11,1.33-.45,1.76-1.62.19-1.89.66.11,1.29-.1,1.8-1,.82-1.14,1.36.87,1.25.8,1.8c-.07.52-.98.97-.99,1.53-.01.52.57,1.05.61,1.6.04.52-.07,1.06.02,1.61.08.52-.47,1.19-.34,1.74.12.51,1.11.81,1.28,1.34.15.5.13,1.07.32,1.59.18.49.52.93.74,1.44.21.48-.14,1.23.1,1.73s.8.8,1.06,1.3.83.93,1.11,1.41c.08.81-.58.56-.97,1.54-.17.42-.52.86-.77,1.44-.2.45-.11,1.09-.36,1.63-.22.46-.16,1.1-.42,1.62-.23.46-1.31.51-1.58,1.02-.25.46.34,1.4.06,1.89-.26.46-.69.85-.98,1.33-.27.45-1.1.59-1.39,1.06s-.74.79-1.04,1.26-.66.84-.97,1.3-.09,1.25-.41,1.7-1.11.51-1.45.96-.47.99-.81,1.42-.3,1.14-.65,1.57-.96.6-1.32,1.02-.35,1.13-.72,1.54-1.18.39-1.55.79-.35,1.16-.74,1.55-.82.72-1.21,1.1-1.12.39-1.52.76-.17,1.42-.58,1.79-.78.78-1.19,1.14-1.01.49-1.44.84-1,.5-1.43.84-.64.95-1.08,1.29-1.42-.09-1.86.23-.83.7-1.28,1.01-.57,1.08-1.03,1.39-1.31-.03-1.77.26-.52,1.22-.99,1.5-.91.6-1.39.88-1.03.39-1.51.65-1.01.43-1.49.68-1.26.78-1.75,1.03c.27-.48.42-1.45.67-1.95s1.3-.6,1.53-1.11.6-.96.82-1.48-.23-1.29-.03-1.81.29-1.07.47-1.59.56-.98.73-1.51.68-.96.83-1.49-.7-1.34-.56-1.87.53-1,.66-1.54,1.14-.88,1.26-1.42.25-1.09.36-1.63-.13-1.16-.03-1.71.31-1.08.4-1.62-.56-1.21-.48-1.75,1.09-.99,1.16-1.53-.06-1.14,0-1.68-.87-1.21-.82-1.75c.05-.57.33-1.1.37-1.63.04-.57.87-1.08.9-1.6.03-.58-.64-1.17-.62-1.69.03-.6.77-1.13.79-1.63.02-.63-.84-1.2-.83-1.67,0-1.06-.02-.94.35-1.68s.25-.64.98-1.34c.33-.32.58-.78.99-1.23.33-.37,1.43-.17,1.77-.63.31-.41.11-1.21.41-1.69.27-.44.82-.75,1.07-1.25.24-.47.05-1.13.25-1.64s.6-.9.75-1.43.62-.97.71-1.51-.62-1.13-.59-1.68,1.04-1.06,1.01-1.61c-.02-.52-.09-1.11-.17-1.66-.08-.52-.35-1.06-.48-1.6-.12-.51-.69-.91-.87-1.44-.17-.49.08-1.18-.14-1.69-.21-.48-1.22-.59-1.48-1.09-.24-.46.06-1.24-.23-1.72-.27-.45-.84-.73-1.15-1.18-.29-.43-.59-.87-.93-1.31-.32-.42-.23-1.18-.58-1.6s-1.16-.4-1.54-.81-.82-.68-1.2-1.08-.16-1.35-.55-1.74-1.4-.07-1.81-.44-.65-.85-1.07-1.21c-.45-.32-.9-.59-1.34-.88s-.64-1.05-1.1-1.32-1.24-.03-1.71-.28-.82-.79-1.3-1.02-.84-.82-1.33-1.03-1.1-.25-1.6-.43-.99-.56-1.5-.71-1.17.08-1.68-.04-1.01-.63-1.53-.72-1.16.35-1.69.3-1.09.1-1.62.1-1.07.04-1.6.08-1.12-.29-1.65-.21-1.03.43-1.55.55-1.04.27-1.55.43-1,.38-1.49.6-1.07.26-1.54.52-.98.49-1.42.79-.78.76-1.2,1.11-.76.75-1.14,1.14-.38,1.07-.72,1.49-1.06.52-1.36.97-.26,1.07-.52,1.55-.45.93-.66,1.44-1.17.72-1.33,1.24-.47,1.03-.59,1.56.83,1.23.76,1.78-1.25.98-1.27,1.53.73,1.09.76,1.64.32,1.03.39,1.58-.84,1.23-.73,1.77,1.43.77,1.57,1.3-.78,1.36-.6,1.88,1.15.72,1.36,1.22.09,1.13.34,1.62.02,1.22.29,1.7,1.22.53,1.51,1,.81.73,1.12,1.18.49.95.83,1.39.2,1.1.56,1.52c.22.79.47.56.28,1.62-.08.45-.31.97-.43,1.6-.09.49-.12,1.04-.24,1.63-.1.5-.07,1.07-.19,1.64-.11.51-.1,1.08-.23,1.64-.12.51-.27,1.05-.4,1.6-.12.52-1.07.85-1.2,1.4-.13.52.03,1.12-.11,1.67-.13.52-.28,1.05-.42,1.59s-.51.98-.66,1.52,0,1.13-.15,1.66-.22,1.07-.38,1.6-.65.94-.81,1.47.21,1.2.04,1.74-.75.9-.92,1.43.26,1.23.08,1.76-.32,1.05-.49,1.57-.9.85-1.08,1.37.05,1.18-.14,1.7-.93.82-1.12,1.34-.04,1.15-.23,1.67-.31,1.05-.51,1.57-1.2.7-1.41,1.21.42,1.35.21,1.86-1.22.68-1.43,1.19.48,1.39.26,1.9-.96.78-1.18,1.28-.49.98-.71,1.48,0,1.2-.23,1.7-1.26.62-1.5,1.12-.12,1.15-.36,1.65-.02,1.21-.27,1.7-1.06.7-1.3,1.19-.61.92-.86,1.41.3,1.4.04,1.88-1.42.48-1.69.96-.02,1.24-.29,1.72-.08,1.22-.35,1.7-1.08.64-1.36,1.12-.46,1-.74,1.47-.61.91-.9,1.38-.89.74-1.18,1.2.24,1.45-.06,1.91-.66.88-.96,1.35-1.26.48-1.57.94-.6.91-.92,1.37.14,1.44-.17,1.89-1.15.53-1.47.98-.5,1-.82,1.44-1.11.54-1.44.98-.36,1.1-.7,1.54-.75.81-1.09,1.24-1.04.57-1.38,1,.15,1.54-.21,1.96-1.47.2-1.83.61-.29,1.2-.65,1.61-1.23.37-1.6.78-.71.83-1.08,1.24.05,1.55-.32,1.95-1.33.25-1.71.65-.85.7-1.24,1.09-.41,1.14-.8,1.53-1.22.32-1.61.7-.73.82-1.13,1.19-.29,1.31-.69,1.68-.71.86-1.13,1.22-1.06.47-1.48.83-.83.44-1.26.79c.71.39.77-.04,1.57.1s.72.59,1.52.74.83,0,1.63.14.73.55,1.53.7.9-.43,1.71-.28.78.23,1.58.38.81.06,1.61.21.76.34,1.56.49.84-.1,1.64.05.69.75,1.49.9.88-.31,1.68-.16.8.16,1.6.3.89-.36,1.69-.22.75.44,1.55.58.74.49,1.54.63.75.4,1.55.54.79.19,1.59.33.78.28,1.58.43.78.27,1.58.41.8.15,1.6.29.85-.13,1.65.01.77.29,1.57.43.9-.39,1.7-.25.72.58,1.52.72.79.2,1.59.34.79.2,1.59.34.96-.76,1.76-.62.62,1.12,1.42,1.26.9-.38,1.7-.24.72.59,1.52.74.92-.54,1.73-.4.78.28,1.58.42.89-.36,1.69-.21.61,1.21,1.41,1.36.94-.64,1.74-.5.69.78,1.49.92.83,0,1.63.14.83-.03,1.64.11.87-.25,1.67-.11.65,1.01,1.45,1.15.78.28,1.58.42.92-.53,1.73-.38.85-.11,1.65.03.64,1.02,1.44,1.16.89-.35,1.7-.21.9-.41,1.7-.26.7.71,1.5.86.81.13,1.61.28.91-.43,1.71-.28.77.35,1.57.5.65,1,1.46,1.14.88-.3,1.69-.39-.01-.51.5-1.46c.22-.4.24-1.02.55-1.58.23-.44.62-.86.9-1.39.24-.45.47-.95.74-1.48.24-.46,1.39-.49,1.66-1.01.24-.47-.3-1.37-.04-1.88.24-.47.4-1.01.65-1.52.24-.48.64-.89.9-1.4.24-.48,1.1-.67,1.35-1.17s.61-.92.86-1.42-.16-1.3.09-1.8.15-1.14.4-1.65,1.17-.65,1.41-1.15.71-.87.96-1.38.03-1.2.27-1.71.01-1.21.25-1.71,1.11-.69,1.35-1.19.02-1.2.26-1.71.91-.79,1.15-1.29.19-1.12.42-1.63.37-1.04.6-1.54.39-1.03.62-1.54.65-.91.88-1.42.3-1.07.53-1.58.93-.79,1.15-1.3.18-1.12.4-1.63.95-.79,1.17-1.3-.51-1.43-.29-1.94,1.37-.61,1.59-1.12-.44-1.39-.22-1.9,1.26-.51,1.48-1.03c.45-.31.33-1.17.77-1.48s1.11-.31,1.54-.62.69-.88,1.12-1.2,1.05-.41,1.47-.74.78-.76,1.2-1.09.68-.87,1.09-1.22.97-.53,1.37-.88,1.16-.33,1.56-.69.46-1.11.84-1.47.67-.86,1.06-1.23,1.03-.5,1.4-.88.75-.78,1.12-1.17.58-.94.94-1.34.62-.9.97-1.3.86-.69,1.2-1.1,1.07-.53,1.4-.95.03-1.35.35-1.78.89-.68,1.21-1.11.54-.94.85-1.38.73-.81,1.02-1.26.68-.86.96-1.3.34-1.07.61-1.52,1.21-.56,1.47-1.02-.21-1.36.04-1.83.99-.71,1.23-1.18.15-1.14.38-1.62.31-1.05.53-1.53,1.08-.72,1.28-1.21c.21-.51-.61-1.41-.42-1.9.2-.52,1.43-.64,1.61-1.13.19-.53.27-1.09.42-1.58.17-.54-.01-1.16.13-1.65.16-.55.07-1.13.19-1.62.14-.57.11-1.12.21-1.59.13-.61.77-1.03.84-1.47.17-1.03-.84-1.44-.16-1.87s.76.35,1.73.52c.45.08,1.03-.25,1.63-.18.49.06.99.33,1.55.36.51.03,1.03-.07,1.58-.07.52,0,1.07.48,1.61.45s1.13.3,1.66.22,1.01-.54,1.53-.67,1.06-.25,1.56-.43,1.09-.26,1.57-.51.65-1,1.09-1.31.91-.54,1.29-.92.32-1.06.64-1.5c.31-.42.73-.7.99-1.19.24-.46,1.21-.62,1.4-1.14.17-.48.3-1.06.43-1.6.12-.5.24-1.06.31-1.62.07-.51.09-1.08.12-1.64.03-.51-.81-1.06-.82-1.62,0-.52.42-1.06.37-1.62Z" fill="none" stroke="#000" stroke-miterlimit="10" stroke-width="2"/>
    </g>
  </g>
  <g>
    <path d="M117.28,139.88c-.34-.73-.04-.77-.21-1.56s-.18-.79-.36-1.58-.67-.68-.84-1.47-.41-.74-.59-1.53.12-.86-.05-1.65-.28-.77-.46-1.56-.2-.78-.38-1.57.05-.84-.12-1.63-.14-.8-.32-1.58-.58-.7-.76-1.48.4-.92.22-1.71-.64-.69-.81-1.48.25-.89.07-1.68-.46-.73-.64-1.52-.11-.81-.29-1.6-.17-.79-.35-1.59-.2-.79-.38-1.58.48-1.48-.31-1.68-.5.74-1.03,1.36-.92.28-1.45.9.08,1.14-.44,1.76-.84.35-1.36.97-.16.94-.68,1.55-.91.29-1.43.91-.23.87-.76,1.49-.7.47-1.23,1.09-.42.71-.94,1.33-1.01.21-1.54.83-.07,1.01-.6,1.63-.65.52-1.17,1.14-.4.73-.93,1.35-.76.42-1.29,1.04-.27.84-.8,1.46-1.04.18-1.57.81-.01,1.13-.67,1.61c-.54-.08-1.1-.57-1.64-.64s-1.09-.13-1.63-.19-1.16.67-1.71.62-1.03-.72-1.58-.76-1.12.38-1.66.34-1.08-.3-1.62-.32-1.1.3-1.65.28-1.08-.81-1.62-.82-1.09.83-1.64.84-1.09-.28-1.64-.27-.98-.21-1.52-.18c-.48-.64-.2-.73-.48-1.48s-.35-.72-.63-1.47-.63-.62-.91-1.37-.16-.79-.44-1.54.15-.91-.13-1.66-.59-.63-.87-1.38-.32-.73-.6-1.48-.31-.74-.6-1.49-.52-.66-.81-1.41.13-.9-.15-1.65-.14-.8-.42-1.55-.82-.55-1.1-1.3.13-.9-.15-1.66-.56-.65-.84-1.4.4-1.67-.4-1.74-.07,1.12-.51,1.81-.85.43-1.29,1.13-.65.56-1.09,1.25.11,1.04-.33,1.74-.76.49-1.2,1.18-.6.59-1.04,1.29-.22.84-.66,1.53-.2.85-.64,1.54-.78.48-1.22,1.17-.06.93-.51,1.63-.55.62-.99,1.31-.95.37-1.39,1.06-.44.7-.88,1.39-.34.76-.79,1.45-.35.75-.8,1.44-.74.5-1.19,1.2.07,1.02-.38,1.71-.24.83-.68,1.52-.93.39-1.38,1.08-.02,1.02-.57,1.64c-.52.2-1.34-.06-1.85.15s-.74,1.09-1.24,1.32-1.09.27-1.59.5-.96.55-1.45.8-1.15.19-1.64.46-.98.54-1.45.82-.66,1.05-1.12,1.34-1.27.09-1.72.41-.53,1.16-.97,1.49-1.43-.04-1.86.3-.52,1.12-.94,1.48-1.17.37-1.57.75-.2,1.38-.59,1.77-1.24.35-1.61.76-.4,1.12-.75,1.54-.78.79-1.11,1.23-1.06.63-1.36,1.09-.02,1.29-.29,1.77-.66.89-.9,1.39-.36,1.04-.57,1.55-.85.87-1.02,1.39-.07,1.14-.22,1.67-.02,1.12-.13,1.66-.49,1.03-.56,1.58-.23,1.09-.26,1.65c-.04.55.19,1.11.17,1.66s.24,1.09.27,1.63-.64,1.15-.58,1.69.85.99.95,1.53.07,1.09.2,1.62-.19,1.19-.03,1.71.21,1.11.4,1.62.36,1.07.59,1.56.91.78,1.17,1.27.15,1.19.44,1.66.74.85,1.05,1.3.93.68,1.27,1.11.48,1.02.84,1.44.99.57,1.37.97.44,1.1.84,1.49,1.08.44,1.49.81.79.75,1.22,1.1.63.98,1.07,1.31,1.29.08,1.74.39.92.57,1.38.86.8.76,1.27,1.04.84.71,1.32.98,1.08.29,1.57.55.65,1.12,1.15,1.37,1.02.42,1.52.65,1.17.06,1.68.28.79.94,1.3,1.15,1.23-.12,1.74.07,1.03.35,1.55.53.99.48,1.51.66,1.01.42,1.54.58,1.13.02,1.66.18,1.05.27,1.58.42.88.94,1.42,1.08,1.04.38,1.57.51,1.19-.26,1.72-.15,1.08.16,1.62.27,1.04.38,1.58.48,1.03.47,1.57.56,1.2-.59,1.75-.51,1.05.36,1.59.43,1,.83,1.54.89,1.09.15,1.64.2,1.12-.14,1.67-.09,1.09.19,1.63.23,1.13-.47,1.68-.44,1.05.78,1.6.81,1.11-.09,1.65-.08,1.11-.71,1.66-.7,1.09.19,1.64.19,1.1.6,1.65.59,1.09-.54,1.64-.56,1.12.52,1.66.5,1.07-.7,1.61-.73,1.11.2,1.66.17,1.07-.36,1.62-.4,1.08-.2,1.62-.26,1.17.62,1.72.55,1.03-.6,1.57-.67,1.12.09,1.66,0,1.03-.5,1.57-.59,1.11,0,1.65-.1,1.13.06,1.67-.05.95-.8,1.48-.92,1.25.49,1.78.35,1.07-.28,1.6-.43,1.03-.41,1.55-.57.96-.63,1.48-.8,1.16,0,1.68-.18.81-.98,1.32-1.18,1.2.06,1.7-.15.92-.65,1.42-.87,1-.44,1.5-.68,1.17-.12,1.66-.37.75-.93,1.23-1.2.9-.63,1.36-.91,1.28-.04,1.73-.34.52-1.18.97-1.5.97-.52,1.4-.86.84-.7,1.25-1.05,1.1-.43,1.49-.8.47-1.08.85-1.48.92-.64,1.28-1.05.94-.67,1.27-1.1.55-.97.85-1.43.74-.85,1.02-1.32.29-1.1.53-1.59.76-.87.97-1.37.05-1.16.23-1.68.21-1.07.35-1.6.24-1.05.35-1.59.48-1.02.56-1.56-.06-1.1-.02-1.65.07-1.08.08-1.64c.03-.54.01-1.08,0-1.62s.12-1.09.07-1.62-.07-1.08-.15-1.62-.31-1.04-.43-1.57-.3-1.03-.46-1.55-.64-.91-.83-1.42-.01-1.14-.23-1.64-.67-.86-.92-1.35-.5-.93-.77-1.41,0-1.25-.3-1.71-.49-.99-.81-1.43-1.27-.4-1.6-.83,0-1.39-.36-1.8-1.14-.44-1.51-.84-.88-.64-1.26-1.03-.25-1.3-.65-1.67-1.42-.03-1.83-.39-.27-1.35-.7-1.7-1.23-.18-1.67-.51-.7-.86-1.14-1.18-.66-.95-1.12-1.26-1.23-.1-1.69-.39-1.02-.39-1.49-.66-.87-.65-1.34-.91-.75-.88-1.24-1.13-.82-.45-1.31-.69Z" fill="#eaeaea"/>
    <path d="M117.28,139.88c-.34-.73-.04-.77-.21-1.56s-.18-.79-.36-1.58-.67-.68-.84-1.47-.41-.74-.59-1.53.12-.86-.05-1.65-.28-.77-.46-1.56-.2-.78-.38-1.57.05-.84-.12-1.63-.14-.8-.32-1.58-.58-.7-.76-1.48.4-.92.22-1.71-.64-.69-.81-1.48.25-.89.07-1.68-.46-.73-.64-1.52-.11-.81-.29-1.6-.17-.79-.35-1.59-.2-.79-.38-1.58.48-1.48-.31-1.68-.5.74-1.03,1.36-.92.28-1.45.9.08,1.14-.44,1.76-.84.35-1.36.97-.16.94-.68,1.55-.91.29-1.43.91-.23.87-.76,1.49-.7.47-1.23,1.09-.42.71-.94,1.33-1.01.21-1.54.83-.07,1.01-.6,1.63-.65.52-1.17,1.14-.4.73-.93,1.35-.76.42-1.29,1.04-.27.84-.8,1.46-1.04.18-1.57.81-.01,1.13-.67,1.61c-.54-.08-1.1-.57-1.64-.64s-1.09-.13-1.63-.19-1.16.67-1.71.62-1.03-.72-1.58-.76-1.12.38-1.66.34-1.08-.3-1.62-.32-1.1.3-1.65.28-1.08-.81-1.62-.82-1.09.83-1.64.84-1.09-.28-1.64-.27-.98-.21-1.52-.18c-.48-.64-.2-.73-.48-1.48s-.35-.72-.63-1.47-.63-.62-.91-1.37-.16-.79-.44-1.54.15-.91-.13-1.66-.59-.63-.87-1.38-.32-.73-.6-1.48-.31-.74-.6-1.49-.52-.66-.81-1.41.13-.9-.15-1.65-.14-.8-.42-1.55-.82-.55-1.1-1.3.13-.9-.15-1.66-.56-.65-.84-1.4.4-1.67-.4-1.74-.07,1.12-.51,1.81-.85.43-1.29,1.13-.65.56-1.09,1.25.11,1.04-.33,1.74-.76.49-1.2,1.18-.6.59-1.04,1.29-.22.84-.66,1.53-.2.85-.64,1.54-.78.48-1.22,1.17-.06.93-.51,1.63-.55.62-.99,1.31-.95.37-1.39,1.06-.44.7-.88,1.39-.34.76-.79,1.45-.35.75-.8,1.44-.74.5-1.19,1.2.07,1.02-.38,1.71-.24.83-.68,1.52-.93.39-1.38,1.08-.02,1.02-.57,1.64c-.52.2-1.34-.06-1.85.15s-.74,1.09-1.24,1.32-1.09.27-1.59.5-.96.55-1.45.8-1.15.19-1.64.46-.98.54-1.45.82-.66,1.05-1.12,1.34-1.27.09-1.72.41-.53,1.16-.97,1.49-1.43-.04-1.86.3-.52,1.12-.94,1.48-1.17.37-1.57.75-.2,1.38-.59,1.77-1.24.35-1.61.76-.4,1.12-.75,1.54-.78.79-1.11,1.23-1.06.63-1.36,1.09-.02,1.29-.29,1.77-.66.89-.9,1.39-.36,1.04-.57,1.55-.85.87-1.02,1.39-.07,1.14-.22,1.67-.02,1.12-.13,1.66-.49,1.03-.56,1.58-.23,1.09-.26,1.65c-.04.55.19,1.11.17,1.66s.24,1.09.27,1.63-.64,1.15-.58,1.69.85.99.95,1.53.07,1.09.2,1.62-.19,1.19-.03,1.71.21,1.11.4,1.62.36,1.07.59,1.56.91.78,1.17,1.27.15,1.19.44,1.66.74.85,1.05,1.3.93.68,1.27,1.11.48,1.02.84,1.44.99.57,1.37.97.44,1.1.84,1.49,1.08.44,1.49.81.79.75,1.22,1.1.63.98,1.07,1.31,1.29.08,1.74.39.92.57,1.38.86.8.76,1.27,1.04.84.71,1.32.98,1.08.29,1.57.55.65,1.12,1.15,1.37,1.02.42,1.52.65,1.17.06,1.68.28.79.94,1.3,1.15,1.23-.12,1.74.07,1.03.35,1.55.53.99.48,1.51.66,1.01.42,1.54.58,1.13.02,1.66.18,1.05.27,1.58.42.88.94,1.42,1.08,1.04.38,1.57.51,1.19-.26,1.72-.15,1.08.16,1.62.27,1.04.38,1.58.48,1.03.47,1.57.56,1.2-.59,1.75-.51,1.05.36,1.59.43,1,.83,1.54.89,1.09.15,1.64.2,1.12-.14,1.67-.09,1.09.19,1.63.23,1.13-.47,1.68-.44,1.05.78,1.6.81,1.11-.09,1.65-.08,1.11-.71,1.66-.7,1.09.19,1.64.19,1.1.6,1.65.59,1.09-.54,1.64-.56,1.12.52,1.66.5,1.07-.7,1.61-.73,1.11.2,1.66.17,1.07-.36,1.62-.4,1.08-.2,1.62-.26,1.17.62,1.72.55,1.03-.6,1.57-.67,1.12.09,1.66,0,1.03-.5,1.57-.59,1.11,0,1.65-.1,1.13.06,1.67-.05.95-.8,1.48-.92,1.25.49,1.78.35,1.07-.28,1.6-.43,1.03-.41,1.55-.57.96-.63,1.48-.8,1.16,0,1.68-.18.81-.98,1.32-1.18,1.2.06,1.7-.15.92-.65,1.42-.87,1-.44,1.5-.68,1.17-.12,1.66-.37.75-.93,1.23-1.2.9-.63,1.36-.91,1.28-.04,1.73-.34.52-1.18.97-1.5.97-.52,1.4-.86.84-.7,1.25-1.05,1.1-.43,1.49-.8.47-1.08.85-1.48.92-.64,1.28-1.05.94-.67,1.27-1.1.55-.97.85-1.43.74-.85,1.02-1.32.29-1.1.53-1.59.76-.87.97-1.37.05-1.16.23-1.68.21-1.07.35-1.6.24-1.05.35-1.59.48-1.02.56-1.56-.06-1.1-.02-1.65.07-1.08.08-1.64c.03-.54.01-1.08,0-1.62s.12-1.09.07-1.62-.07-1.08-.15-1.62-.31-1.04-.43-1.57-.3-1.03-.46-1.55-.64-.91-.83-1.42-.01-1.14-.23-1.64-.67-.86-.92-1.35-.5-.93-.77-1.41,0-1.25-.3-1.71-.49-.99-.81-1.43-1.27-.4-1.6-.83,0-1.39-.36-1.8-1.14-.44-1.51-.84-.88-.64-1.26-1.03-.25-1.3-.65-1.67-1.42-.03-1.83-.39-.27-1.35-.7-1.7-1.23-.18-1.67-.51-.7-.86-1.14-1.18-.66-.95-1.12-1.26-1.23-.1-1.69-.39-1.02-.39-1.49-.66-.87-.65-1.34-.91-.75-.88-1.24-1.13-.82-.45-1.31-.69Z" fill="none" stroke="#000" stroke-miterlimit="10" stroke-width="2"/>
  </g>
  <g>
    <path d="M67.89,170.85c.02.59-.19,1.03-.52,1.34-.35.34-.84.52-1.34.53s-1-.15-1.36-.47c-.34-.3-.56-.73-.56-1.32-.02-.59.17-1.04.49-1.35.35-.34.85-.53,1.35-.54s1.01.16,1.37.48c.34.3.56.74.57,1.33Z"/>
    <path d="M67.89,170.85c.02.59-.19,1.03-.52,1.34-.35.34-.84.52-1.34.53s-1-.15-1.36-.47c-.34-.3-.56-.73-.56-1.32-.02-.59.17-1.04.49-1.35.35-.34.85-.53,1.35-.54s1.01.16,1.37.48c.34.3.56.74.57,1.33Z" fill="none" stroke="#000" stroke-miterlimit="10" stroke-width="2"/>
  </g>
  <g>
    <path d="M95.42,173.9c.02.59-.18,1.04-.5,1.35-.35.34-.86.51-1.36.52s-1-.15-1.36-.48c-.34-.3-.56-.73-.57-1.32-.02-.59.18-1.03.51-1.34.35-.34.84-.52,1.34-.53s1.01.13,1.38.46c.34.3.56.74.57,1.33Z"/>
    <path d="M95.42,173.9c.02.59-.18,1.04-.5,1.35-.35.34-.86.51-1.36.52s-1-.15-1.36-.48c-.34-.3-.56-.73-.57-1.32-.02-.59.18-1.03.51-1.34.35-.34.84-.52,1.34-.53s1.01.13,1.38.46c.34.3.56.74.57,1.33Z" fill="none" stroke="#000" stroke-miterlimit="10" stroke-width="2"/>
  </g>
  <g>
    <path d="M78.62,193.42c.01.75-.58,1.12-1.16,1.12s-1.17-.38-1.16-1.12c-.01-.75.58-1.13,1.16-1.13s1.17.38,1.16,1.13Z"/>
    <path d="M78.62,193.42c.01.75-.58,1.12-1.16,1.12s-1.17-.38-1.16-1.12c-.01-.75.58-1.13,1.16-1.13s1.17.38,1.16,1.13Z" fill="none" stroke="#000" stroke-miterlimit="10" stroke-width="2"/>
  </g>
  <g>
    <path d="M37,179.01c.8.14.79.2,1.59.34s.82.04,1.63.18.8.18,1.6.32.81.14,1.61.27.81.14,1.61.28.81.12,1.61.25.8.17,1.61.31.8.19,1.61.33.81.12,1.62.26"/>
    <path d="M37,179.01c.8.14.79.2,1.59.34s.82.04,1.63.18.8.18,1.6.32.81.14,1.61.27.81.14,1.61.28.81.12,1.61.25.8.17,1.61.31.8.19,1.61.33.81.12,1.62.26" fill="none" stroke="#000" stroke-miterlimit="10" stroke-width="2"/>
  </g>
  <g>
    <path d="M37,183.32c.8.14.79.19,1.6.33s.81.14,1.61.28.8.14,1.61.28.79.2,1.6.34.82.04,1.63.18.8.18,1.6.32.81.14,1.61.28.81.14,1.61.28.81.12,1.62.26"/>
    <path d="M37,183.32c.8.14.79.19,1.6.33s.81.14,1.61.28.8.14,1.61.28.79.2,1.6.34.82.04,1.63.18.8.18,1.6.32.81.14,1.61.28.81.14,1.61.28.81.12,1.62.26" fill="none" stroke="#000" stroke-miterlimit="10" stroke-width="2"/>
  </g>
  <g>
    <path d="M109.74,185.38c.81.08.81.1,1.62.18s.82.03,1.63.12.81.06,1.62.15.81.13,1.62.21.81.08,1.63.16.81.08,1.62.16.81.14,1.62.23.83-.02,1.64.06.81.13,1.63.21"/>
    <path d="M109.74,185.38c.81.08.81.1,1.62.18s.82.03,1.63.12.81.06,1.62.15.81.13,1.62.21.81.08,1.63.16.81.08,1.62.16.81.14,1.62.23.83-.02,1.64.06.81.13,1.63.21" fill="none" stroke="#000" stroke-miterlimit="10" stroke-width="2"/>
  </g>
  <g>
    <path d="M110.05,189.72c.81.08.81.12,1.62.21s.82.03,1.63.11.81.08,1.62.17.81.1,1.62.18.82.03,1.63.12.81.06,1.63.15.81.13,1.62.21.82.08,1.63.16.82.08,1.63.16"/>
    <path d="M110.05,189.72c.81.08.81.12,1.62.21s.82.03,1.63.11.81.08,1.62.17.81.1,1.62.18.82.03,1.63.12.81.06,1.63.15.81.13,1.62.21.82.08,1.63.16.82.08,1.63.16" fill="none" stroke="#000" stroke-miterlimit="10" stroke-width="2"/>
  </g>
  <g>
    <path d="M117.07,87.26c.11-.81-.11-.6-.13-1.65,0-.46.16-1.02.11-1.65-.04-.49-.28-1.02-.37-1.61-.08-.51-.07-1.06-.19-1.63-.11-.51-.42-.99-.57-1.55-.14-.51-.12-1.08-.3-1.62-.16-.5-.19-1.08-.39-1.61-.19-.5-.5-.97-.72-1.49-.21-.49-.4-1.01-.64-1.52-.23-.48-.67-.87-.94-1.37s-.55-.93-.83-1.41-.43-1-.73-1.47-.58-.92-.9-1.38-.66-.86-1-1.31-.71-.82-1.05-1.26-.7-.83-1.06-1.25-.77-.76-1.15-1.17-.6-.92-.99-1.32-.66-.88-1.06-1.27-.8-.74-1.21-1.12-.99-.52-1.41-.89-.73-.82-1.15-1.18-.79-.76-1.22-1.11-.77-.79-1.21-1.13-.97-.52-1.42-.85-.88-.65-1.34-.97-.84-.61-1.31-.92c.48-.26.86-.61,1.34-.84s.96-.53,1.46-.75,1.07-.28,1.57-.48,1.02-.39,1.53-.57,1.03-.35,1.55-.5,1.1-.09,1.62-.22.99-.58,1.52-.69,1.1-.05,1.63-.14,1.08-.17,1.61-.23,1.08-.11,1.62-.15,1.08-.15,1.62-.17,1.09.07,1.63.07,1.08.18,1.62.2,1.09,0,1.62.04,1.08.14,1.61.2,1.08.12,1.61.2,1.11-.04,1.64.05,1.09.1,1.62.2,1.04.35,1.57.47,1.07.21,1.59.35,1.06.27,1.57.42,1.02.4,1.53.57,1.04.35,1.54.53,1.09.21,1.59.4c.52.2.94.62,1.43.82.52.21,1.1.25,1.58.46.52.22.94.61,1.41.83.52.24,1.06.37,1.52.6.53.26,1,.53,1.43.76.55.29,1.02.56,1.42.78.9.51,1.83.15,1.4.83s-.57-.23-1.57-.5c-.45-.12-1-.2-1.6-.35-.49-.12-.98-.44-1.56-.56-.51-.11-1.11.11-1.67,0-.52-.09-1.03-.34-1.59-.43-.52-.08-1.09.04-1.65-.02s-1.05-.32-1.61-.37-1.09.07-1.65.04-1.08-.14-1.63-.15-1.09.04-1.64.05-1.1-.23-1.65-.2-1.07.32-1.62.37-1.09.06-1.64.14-1.07.24-1.6.35-1.1.11-1.63.25-1.01.43-1.53.6-1.13.1-1.64.31-.92.63-1.42.87-1.13.45-1.6.73c.39.38.8.88,1.17,1.27s.97.6,1.31,1.01.49,1,.82,1.43.8.77,1.1,1.21.53.96.81,1.41.69.87.95,1.33.24,1.11.48,1.58.79.83,1,1.32.33,1.05.53,1.55.28,1.06.46,1.56.33,1.04.48,1.55.34,1.04.48,1.55.42,1.03.53,1.54c.12.54.18,1.09.28,1.61.1.55,0,1.11.08,1.63.08.56.28,1.07.34,1.59.06.57.13,1.11.17,1.62.04.58.08,1.12.1,1.62.02.62.13,1.16.12,1.62-.01,1.03-.17.8-.24,1.61" fill="#eaeaea"/>
    <path d="M117.07,87.26c.11-.81-.11-.6-.13-1.65,0-.46.16-1.02.11-1.65-.04-.49-.28-1.02-.37-1.61-.08-.51-.07-1.06-.19-1.63-.11-.51-.42-.99-.57-1.55-.14-.51-.12-1.08-.3-1.62-.16-.5-.19-1.08-.39-1.61-.19-.5-.5-.97-.72-1.49-.21-.49-.4-1.01-.64-1.52-.23-.48-.67-.87-.94-1.37s-.55-.93-.83-1.41-.43-1-.73-1.47-.58-.92-.9-1.38-.66-.86-1-1.31-.71-.82-1.05-1.26-.7-.83-1.06-1.25-.77-.76-1.15-1.17-.6-.92-.99-1.32-.66-.88-1.06-1.27-.8-.74-1.21-1.12-.99-.52-1.41-.89-.73-.82-1.15-1.18-.79-.76-1.22-1.11-.77-.79-1.21-1.13-.97-.52-1.42-.85-.88-.65-1.34-.97-.84-.61-1.31-.92c.48-.26.86-.61,1.34-.84s.96-.53,1.46-.75,1.07-.28,1.57-.48,1.02-.39,1.53-.57,1.03-.35,1.55-.5,1.1-.09,1.62-.22.99-.58,1.52-.69,1.1-.05,1.63-.14,1.08-.17,1.61-.23,1.08-.11,1.62-.15,1.08-.15,1.62-.17,1.09.07,1.63.07,1.08.18,1.62.2,1.09,0,1.62.04,1.08.14,1.61.2,1.08.12,1.61.2,1.11-.04,1.64.05,1.09.1,1.62.2,1.04.35,1.57.47,1.07.21,1.59.35,1.06.27,1.57.42,1.02.4,1.53.57,1.04.35,1.54.53,1.09.21,1.59.4c.52.2.94.62,1.43.82.52.21,1.1.25,1.58.46.52.22.94.61,1.41.83.52.24,1.06.37,1.52.6.53.26,1,.53,1.43.76.55.29,1.02.56,1.42.78.9.51,1.83.15,1.4.83s-.57-.23-1.57-.5c-.45-.12-1-.2-1.6-.35-.49-.12-.98-.44-1.56-.56-.51-.11-1.11.11-1.67,0-.52-.09-1.03-.34-1.59-.43-.52-.08-1.09.04-1.65-.02s-1.05-.32-1.61-.37-1.09.07-1.65.04-1.08-.14-1.63-.15-1.09.04-1.64.05-1.1-.23-1.65-.2-1.07.32-1.62.37-1.09.06-1.64.14-1.07.24-1.6.35-1.1.11-1.63.25-1.01.43-1.53.6-1.13.1-1.64.31-.92.63-1.42.87-1.13.45-1.6.73c.39.38.8.88,1.17,1.27s.97.6,1.31,1.01.49,1,.82,1.43.8.77,1.1,1.21.53.96.81,1.41.69.87.95,1.33.24,1.11.48,1.58.79.83,1,1.32.33,1.05.53,1.55.28,1.06.46,1.56.33,1.04.48,1.55.34,1.04.48,1.55.42,1.03.53,1.54c.12.54.18,1.09.28,1.61.1.55,0,1.11.08,1.63.08.56.28,1.07.34,1.59.06.57.13,1.11.17,1.62.04.58.08,1.12.1,1.62.02.62.13,1.16.12,1.62-.01,1.03-.17.8-.24,1.61" fill="none" stroke="#000" stroke-miterlimit="10" stroke-width="2"/>
  </g>
</svg>