<?xml version="1.0" encoding="UTF-8"?>
<svg id="_레이어_4" data-name="레이어 4" xmlns="http://www.w3.org/2000/svg" width="69.78" height="87.56" viewBox="0 0 69.78 87.56">
  <g>
    <g>
      <polyline points="30.76 14.22 29.88 15.71 29.23 17.25 28.55 18.78 27.51 20.15 27.37 21.92 26.41 23.32 25.73 24.85 25.01 26.36 24.43 27.93 23.55 29.37 22.57 30.76 21.96 32.33 21.16 33.81 20.46 35.33 20.09 37.01 19.56 38.6 18.66 40.03 18.04 41.59 17.37 43.12 16.53 44.58 15.83 46.11 15.44 47.77 14.37 49.14 14.03 50.81 13.08 52.24 12.62 53.87 11.94 55.4 11.3 56.96 10.69 58.53 10 60.06 9.51 61.67 8.56 63.11 8.55 64.89 7.71 66.38 7.52 68.08 6.66 69.57 6.45 71.26 5.84 72.84 5.54 74.5 4.74 76.05 4.91 77.78 4.66 79.43 4.84 81.09 5.1 82.74 6.46 83.58 8.13 84.08 9.61 83.17 11.26 82.7 12.69 81.8 13.73 80.37 15.34 79.73 16.44 78.43 17.84 77.48 18.94 76.19 20.08 75 20.21 73.23 21.1 71.8 21.99 70.37 22.72 68.87 23.36 67.33 23.81 65.69 24.59 64.21 25.59 62.83 26.06 61.2 26.72 59.67 27.39 58.14 27.9 56.53 28.89 55.14 29.68 53.67 29.99 51.98 30.97 50.59 31.46 48.97 32.38 47.55 32.65 45.83 33.66 44.45 34.52 43 34.78 41.28 35.72 39.86 36.54 38.39 37.06 36.79 37.56 35.18 38.51 33.77 38.9 32.12 39.68 30.63 40.78 29.29 41.47 27.76 42.08 26.21 42.7 24.65 43.63 23.24 43.91 21.54 44.44 19.95" fill="#fff"/>
      <polyline points="30.76 14.22 29.88 15.71 29.23 17.25 28.55 18.78 27.51 20.15 27.37 21.92 26.41 23.32 25.73 24.85 25.01 26.36 24.43 27.93 23.55 29.37 22.57 30.76 21.96 32.33 21.16 33.81 20.46 35.33 20.09 37.01 19.56 38.6 18.66 40.03 18.04 41.59 17.37 43.12 16.53 44.58 15.83 46.11 15.44 47.77 14.37 49.14 14.03 50.81 13.08 52.24 12.62 53.87 11.94 55.4 11.3 56.96 10.69 58.53 10 60.06 9.51 61.67 8.56 63.11 8.55 64.89 7.71 66.38 7.52 68.08 6.66 69.57 6.45 71.26 5.84 72.84 5.54 74.5 4.74 76.05 4.91 77.78 4.66 79.43 4.84 81.09 5.1 82.74 6.46 83.58 8.13 84.08 9.61 83.17 11.26 82.7 12.69 81.8 13.73 80.37 15.34 79.73 16.44 78.43 17.84 77.48 18.94 76.19 20.08 75 20.21 73.23 21.1 71.8 21.99 70.37 22.72 68.87 23.36 67.33 23.81 65.69 24.59 64.21 25.59 62.83 26.06 61.2 26.72 59.67 27.39 58.14 27.9 56.53 28.89 55.14 29.68 53.67 29.99 51.98 30.97 50.59 31.46 48.97 32.38 47.55 32.65 45.83 33.66 44.45 34.52 43 34.78 41.28 35.72 39.86 36.54 38.39 37.06 36.79 37.56 35.18 38.51 33.77 38.9 32.12 39.68 30.63 40.78 29.29 41.47 27.76 42.08 26.21 42.7 24.65 43.63 23.24 43.91 21.54 44.44 19.95" fill="none" stroke="#000" stroke-miterlimit="10" stroke-width="2"/>
    </g>
    <g>
      <polygon points="44.73 20.03 43.28 20.56 41.64 20.29 40.02 19.91 38.43 19.39 36.91 18.72 35.38 18.04 33.9 17.28 32.51 16.36 31.1 15.45 30.51 13.99 31.97 13.45 33.62 13.71 35.23 14.11 36.8 14.69 38.32 15.36 39.85 16.03 41.32 16.8 42.75 17.65 44.12 18.6 44.73 20.03" fill="#fff"/>
      <polygon points="44.73 20.03 43.28 20.56 41.64 20.29 40.02 19.91 38.43 19.39 36.91 18.72 35.38 18.04 33.9 17.28 32.51 16.36 31.1 15.45 30.51 13.99 31.97 13.45 33.62 13.71 35.23 14.11 36.8 14.69 38.32 15.36 39.85 16.03 41.32 16.8 42.75 17.65 44.12 18.6 44.73 20.03" fill="none" stroke="#000" stroke-miterlimit="10" stroke-width="2"/>
    </g>
  </g>
  <g>
    <polygon points="64.42 3.85 64.92 5.35 64.79 7.07 65.2 8.75 65.09 10.45 65.42 12.16 65.09 13.86 64.72 15.54 64.76 17.24 64.48 18.92 64.57 20.66 64.32 22.35 63.74 23.97 63.3 25.61 62.92 27.27 62.51 28.93 61.98 30.55 61.51 32.2 60.59 33.66 59.68 35.12 58.99 36.67 58.62 38.4 57.59 39.79 56.6 41.18 55.5 42.49 54.78 44.06 53.78 45.44 52.68 46.74 51.82 48.24 50.84 49.49 50.96 51.05 51.14 52.69 51.08 54.35 50.44 55.9 50.41 57.64 49.41 59 48.45 60.36 47.31 61.56 46.12 62.74 44.66 63.54 43.09 64.1 41.63 64.85 40.06 65.32 38.48 65.74 36.92 66.38 35.28 66.73 33.61 66.6 31.95 66.62 30.29 66.47 28.68 66.03 27.09 65.6 25.43 65.33 24.06 64.31 22.45 63.81 21.22 62.67 19.8 61.81 18.61 60.65 17.5 59.42 16.49 58.11 15.65 56.68 14.77 55.27 14.74 53.55 13.97 51.96 14.16 50.25 13.95 48.53 14.63 46.93 15.02 45.26 16.05 43.89 17.13 42.57 18.72 41.87 19.98 40.7 21.58 40.14 23.17 39.54 24.86 39.37 26.5 38.89 28.22 39.18 29.89 38.76 31.57 39.06 33.24 39.14 34.81 38.81 35.92 37.8 36.53 36.26 37.5 34.95 38.11 33.42 39.34 32.24 39.59 30.54 40.48 29.17 41.33 27.76 42 26.27 42.53 24.72 42.82 23.1 43.35 21.56 44.02 20.03 44.09 18.38 44.22 16.75 44.21 15.12 43.92 13.39 45.68 13.16 47.27 12.77 48.68 11.88 50.3 11.56 51.72 10.75 53.3 10.28 54.58 9.2 56.17 8.74 57.68 8.11 58.88 6.93 60.4 6.31 61.86 5.56 63.13 4.54 64.42 3.85" fill="#eaeaea"/>
    <polygon points="64.42 3.85 64.92 5.35 64.79 7.07 65.2 8.75 65.09 10.45 65.42 12.16 65.09 13.86 64.72 15.54 64.76 17.24 64.48 18.92 64.57 20.66 64.32 22.35 63.74 23.97 63.3 25.61 62.92 27.27 62.51 28.93 61.98 30.55 61.51 32.2 60.59 33.66 59.68 35.12 58.99 36.67 58.62 38.4 57.59 39.79 56.6 41.18 55.5 42.49 54.78 44.06 53.78 45.44 52.68 46.74 51.82 48.24 50.84 49.49 50.96 51.05 51.14 52.69 51.08 54.35 50.44 55.9 50.41 57.64 49.41 59 48.45 60.36 47.31 61.56 46.12 62.74 44.66 63.54 43.09 64.1 41.63 64.85 40.06 65.32 38.48 65.74 36.92 66.38 35.28 66.73 33.61 66.6 31.95 66.62 30.29 66.47 28.68 66.03 27.09 65.6 25.43 65.33 24.06 64.31 22.45 63.81 21.22 62.67 19.8 61.81 18.61 60.65 17.5 59.42 16.49 58.11 15.65 56.68 14.77 55.27 14.74 53.55 13.97 51.96 14.16 50.25 13.95 48.53 14.63 46.93 15.02 45.26 16.05 43.89 17.13 42.57 18.72 41.87 19.98 40.7 21.58 40.14 23.17 39.54 24.86 39.37 26.5 38.89 28.22 39.18 29.89 38.76 31.57 39.06 33.24 39.14 34.81 38.81 35.92 37.8 36.53 36.26 37.5 34.95 38.11 33.42 39.34 32.24 39.59 30.54 40.48 29.17 41.33 27.76 42 26.27 42.53 24.72 42.82 23.1 43.35 21.56 44.02 20.03 44.09 18.38 44.22 16.75 44.21 15.12 43.92 13.39 45.68 13.16 47.27 12.77 48.68 11.88 50.3 11.56 51.72 10.75 53.3 10.28 54.58 9.2 56.17 8.74 57.68 8.11 58.88 6.93 60.4 6.31 61.86 5.56 63.13 4.54 64.42 3.85" fill="none" stroke="#000" stroke-miterlimit="10" stroke-width="2"/>
  </g>
</svg>