<?xml version="1.0" encoding="UTF-8"?>
<svg id="_레이어_5" data-name="레이어 5" xmlns="http://www.w3.org/2000/svg" width="307.56" height="286.22" xmlns:xlink="http://www.w3.org/1999/xlink" viewBox="0 0 307.56 286.22">
  <defs>
    <pattern id="Unnamed_Pattern" data-name="Unnamed Pattern" x="0" y="0" width="798" height="851" patternTransform="translate(-6198.11 -5815.27) scale(.25)" patternUnits="userSpaceOnUse" viewBox="0 0 798 851">
      <g>
        <rect y="0" width="798" height="851" fill="none"/>
        <g>
          <path d="M528.37,89.46c-1.13,3.01-4.32,4.1-8.89,2.47-4.13-1.48-6.72-4.99-5.84-7.87.94-3.05,5.16-4.41,9.11-2.75,3.86,1.61,6.89,5.32,5.62,8.16Z"/>
          <path d="M472.08,89.45c-.72,2.9-4.59,4.07-9.03,2.49-3.75-1.34-6.66-5.36-5.66-7.87,1.32-3.29,4.01-4.27,8.92-2.65,4.49,1.48,6.76,5.32,5.77,8.03Z"/>
          <path d="M290.03,27.71c.89-2.16,3.62-3.14,7.21-1.87,3.07,1.08,5.39,4.44,4.61,6.52-.75,2.01-4.27,3.03-7.14,1.89-3.58-1.43-5.33-4.21-4.68-6.54Z"/>
          <path d="M410.1,81.6c3.56,1,6.63,4.77,5.63,7.9-.87,2.72-5.18,3.74-8.93,2.25-4.14-1.64-6.34-5.06-5.59-7.75.66-2.37,4.1-4.45,8.89-2.4Z"/>
          <path d="M554.17,60.32c-.66,2.22-3.33,3.01-6.23,1.88-2.82-1.09-4.61-3.55-3.89-5.83.57-1.8,3.82-2.53,6.28-1.52,2.77,1.13,4.48,3.47,3.84,5.47Z"/>
          <path d="M350.73,91.39c-3.91-1.02-6.2-5.17-5.42-7.66.86-2.73,4.57-3.73,8.51-2.24,4.09,1.55,6.22,4.63,5.29,7.66-.88,2.85-4.32,3.77-8.38,2.24Z"/>
          <path d="M498.52,60.53c-1.03,2.59-3.58,3.06-6.86,2.04-3.01-.94-5.08-3.93-4.42-6.04.73-2.32,3.85-3.28,6.92-2.13,3.02,1.14,5.03,3.96,4.36,6.13Z"/>
          <path d="M378.87,62.74c-3.57-1.29-5.45-4.42-4.66-6.8.74-2.23,3.84-3.35,7.69-1.99,2.82,1,5.72,4.41,4.71,6.83-1.07,2.55-4,3.45-7.73,1.96Z"/>
          <path d="M435.41,62.33c-3.1-1.17-5.08-3.83-4.42-5.96.75-2.42,4.17-2.98,6.66-2.11,3.33,1.16,5.2,3.98,4.63,6.16-.6,2.31-4.11,3.27-6.87,1.91Z"/>
          <path d="M325.53,53.31c3.74,1.4,6.28,4.8,5.51,7.37-.81,2.68-4.76,3.95-8.25,2.65-3.78-1.41-6.47-4.79-5.67-7.62.77-2.68,4.71-3.79,8.41-2.41Z"/>
          <path d="M294.04,80.83c3.99-1.4,8.29-.06,9.16,3.08.95,3.44-.76,6.08-5.26,7.91-3.92,1.6-8.49-.18-9.34-2.97-.95-3.13,1.24-6.73,5.43-8.01Z"/>
          <path d="M353.55,26.2c3.04,1.24,4.96,4.01,4.22,6.08-.86,2.42-3.31,3.13-6.98,1.78-3.29-1.21-4.7-3.57-4.11-6,.52-2.16,3.93-3,6.87-1.86Z"/>
          <path d="M522.09,26.46c3.67,1.41,5.13,3.82,4.41,6.02-.71,2.17-3.28,3.03-6.78,1.74-3.19-1.17-4.88-4.14-4.23-5.96.79-2.21,3.63-3.12,6.6-1.8Z"/>
          <path d="M403.28,28.31c.72-2.31,3.2-2.89,6.53-1.76,3.17,1.07,4.93,4.13,4.3,5.63-.98,2.35-3.19,3.3-6.73,2.13-3.16-1.04-5.15-4.29-4.1-6Z"/>
          <path d="M459.6,28.23c.68-2.14,3.39-2.85,6.46-1.69,3.03,1.14,4.97,3.79,4.29,5.85-.68,2.04-3.94,2.94-6.76,1.85-2.97-1.14-4.71-3.76-3.99-6.01Z"/>
          <path d="M469.74,146.5c-.8,1.7-3.9,1.95-6.45.37-2.95-1.82-4.01-3.93-3.44-6,.48-1.73,4.06-2.06,6.27-.73,2.86,1.71,4.47,4.55,3.62,6.37Z"/>
          <path d="M494.4,112.3c2.66,1.59,4.14,4.36,3.33,6.22-.72,1.64-4.11,1.89-6.47.33-2.96-1.95-4.1-4.36-3.31-6.23.73-1.73,3.92-1.82,6.45-.31Z"/>
          <path d="M441.71,118.49c-.68,1.59-4.1,1.74-6.57.15-2.51-1.62-3.83-4.04-3.16-5.6.91-2.13,3.64-2.56,6.29-.98,2.76,1.65,4.28,4.48,3.44,6.42Z"/>
          <path d="M522.49,140.66c2.3,1.32,3.74,3.89,3.1,5.53-.61,1.58-3.56,1.76-5.87.36-2.24-1.35-3.45-3.6-2.96-5.14.74-2.34,3.42-1.84,5.73-.75Z"/>
          <path d="M491.66,174.48c-2.23-1.04-3.7-3.92-2.98-5.33.73-1.39,2.8-2.09,5.65-.43,2.79,1.62,3.7,3.64,3.04,5.45-.54,1.49-3.15,1.93-5.71.31Z"/>
          <path d="M302.5,314.8c-.34,2.29-4.1,3.93-8.24,2.44-3.6-1.29-6.17-4.95-5.4-7.33.85-2.61,4.89-3.96,8.33-2.5,3.83,1.62,6.16,4.44,5.31,7.39Z"/>
          <path d="M302.47,258.78c-.41,2.35-3.58,3.82-8.12,2.28-3.64-1.23-6.18-5.02-5.36-7.62.72-2.28,5.21-3.57,8.42-2.16,3.59,1.58,6.06,4.46,5.05,7.5Z"/>
          <path d="M410.18,140.66c2.62,1.53,4.25,4.22,3.36,5.85-1.03,1.88-3.37,2.08-6.41.52-2.4-1.23-3.99-4.32-3.23-5.97.85-1.85,3.5-2.02,6.28-.4Z"/>
          <path d="M550.32,169.25c2.15,1.26,3.26,3.28,2.58,4.7-.71,1.5-2.82,1.64-5.03.38-1.9-1.09-3.31-3.28-2.63-4.82.61-1.37,3.33-1.53,5.07-.26Z"/>
          <path d="M437.99,168.57c2.93,1.71,4.17,3.95,3.26,5.86-.84,1.77-3.48,2.03-5.99.57-2.72-1.57-4.13-4.22-3.4-6.08.66-1.69,3.7-1.98,6.12-.35Z"/>
          <path d="M289.36,197.5c.84-2.68,4.27-3.58,8.18-2.13,3.43,1.27,5.97,4.78,4.93,7.26-1.23,2.92-3.97,3.82-8.07,2.25-4.45-1.7-6.16-5.14-5.04-7.38Z"/>
          <path d="M526.99,427.48c-.92,2.44-3.5,3.32-7.2,2-3.34-1.2-5.45-4.04-4.73-6.37.76-2.47,4.18-3.57,7.38-2.23,3.13,1.31,5.58,4.31,4.55,6.61Z"/>
          <path d="M470.1,427.25c-.53,2.11-3.35,2.97-6.58,1.82-2.74-.98-4.86-3.91-4.12-5.73.96-2.4,2.92-3.11,6.5-1.93,3.27,1.08,4.93,3.88,4.21,5.85Z"/>
          <path d="M522.24,196.07c2.87.78,4.7,4,4.1,5.57-.98,2.56-3.3,3.06-6.3,2.11-3.11-.99-5.16-3.87-4.4-5.95.79-2.15,3.13-3.04,6.59-1.73Z"/>
          <path d="M385.02,174.6c-.67,1.48-3.15,1.89-6.12.3-2.37-1.27-4.02-4.32-3.18-5.86.93-1.71,3.47-1.89,6.18-.36,2.17,1.22,4.16,3.87,3.12,5.93Z"/>
          <path d="M317.46,225.44c.71-2.37,4.22-3.58,7.85-2.18,4.28,1.66,5.82,4.42,5.33,7.08-.48,2.6-4.9,3.69-8.32,2.29-3.37-1.38-5.61-4.7-4.85-7.18Z"/>
          <path d="M466.19,195.62c2.66.66,5.11,3.98,4.5,6.27-.61,2.27-4.48,3.3-7.53,2.06-2.88-1.17-5.14-4.38-4.33-6.47.81-2.06,3.98-3.33,7.36-1.86Z"/>
          <path d="M553.02,117.99c-.93,1.91-3.24,1.71-5.49.35-2.13-1.29-3.54-3.37-2.7-5.24.64-1.42,3.41-1.56,5.5-.21,2.37,1.53,3.44,3.46,2.69,5.11Z"/>
          <path d="M289.37,366.01c.99-2.4,4.03-3.48,8.02-2.08,3.41,1.2,5.99,4.93,5.12,7.25-.84,2.24-4.75,3.37-7.94,2.09-3.98-1.59-5.92-4.68-5.2-7.27Z"/>
          <path d="M385.54,118.58c-1.21,2.01-3.89,1.92-6.76.42-2.58-1.35-4.43-4.99-3.53-6.67.85-1.6,4.43-1.72,6.91-.24,2.65,1.58,4.25,4.65,3.38,6.49Z"/>
          <path d="M409.79,421.1c2.88.81,5.37,3.86,4.56,6.4-.7,2.21-4.19,3.03-7.23,1.82-3.35-1.33-5.14-4.1-4.53-6.28.53-1.92,3.32-3.6,7.2-1.95Z"/>
          <path d="M322.65,174.69c-3.12-1.8-3.69-3.99-3.2-5.79.43-1.56,3.88-1.69,5.99-.41,2.75,1.67,4.25,4.41,3.11,6.12-.91,1.36-2.85,1.91-5.9.08Z"/>
          <path d="M353.66,140.85c2.69,1.58,4.1,3.94,3.36,5.62-.77,1.76-3.84,1.96-6.38.4-2.35-1.44-3.79-4.26-2.82-5.89.84-1.41,3.48-1.73,5.84-.14Z"/>
          <path d="M414.77,202.29c-1.12,2.88-3.76,3.43-7.77,2.18-3.28-1.02-5.81-4.81-5.05-7.09.78-2.32,4.83-3.55,7.96-2.22,3.52,1.5,5.88,4.17,4.86,7.13Z"/>
          <path d="M548.23,231.24c-3.01-.98-4.16-3.33-3.74-5.18.36-1.59,3.58-2.36,5.66-1.55,2.57,1,4.47,3.41,3.87,5.13-.63,1.81-2.96,2.82-5.79,1.59Z"/>
          <path d="M358.3,202.32c-.77,2.47-4.51,3.65-7.59,2.39-3.46-1.41-6-5.04-5.16-7.37.78-2.17,4.93-3.27,7.99-1.96,3.77,1.61,5.83,4.82,4.76,6.94Z"/>
          <path d="M291.62,141.24c.39-1.75,3.4-1.95,5.94-.36,2.44,1.52,3.83,4.08,3,5.79-.68,1.4-3.8,1.52-5.98.22-2.44-1.46-3.75-3.95-2.95-5.65Z"/>
          <path d="M322.54,344.96c-3.53-1.33-5.77-4.36-5.05-6.84.68-2.35,4.59-3.56,7.88-2.22,3.67,1.49,5.63,4.54,4.9,6.97-.73,2.44-4.8,3.69-7.73,2.09Z"/>
          <path d="M554.74,399.07c-.73,2.46-3.7,3.35-6.93,2.09-3.13-1.22-5.12-3.95-4.32-6.48.63-2,4.24-2.81,6.98-1.69,3.08,1.26,4.98,3.85,4.27,6.08Z"/>
          <path d="M351.02,429.01c-3.17-.83-5.02-4.18-4.39-6.2.69-2.21,3.7-3.02,6.89-1.81,3.31,1.25,5.04,3.75,4.28,6.2-.71,2.31-3.5,3.05-6.78,1.81Z"/>
          <path d="M494.11,224.02c3.3,1.24,5.01,3.66,4.41,5.99-.65,2.55-4.15,3.05-6.97,2-3.17-1.18-5.04-4.01-4.28-6.24.77-2.26,3.52-3,6.84-1.75Z"/>
          <path d="M346,253.81c.78-2.53,3.86-3.42,7.32-2.13,3.74,1.4,5.94,4.32,5.14,6.81-.77,2.39-4.31,3.44-7.56,2.23-3.87-1.44-5.77-4.12-4.91-6.92Z"/>
          <path d="M498.52,399.09c-1.03,2.59-3.58,3.06-6.86,2.04-3.01-.94-5.08-3.93-4.42-6.04.73-2.32,3.85-3.28,6.92-2.13,3.02,1.14,5.03,3.96,4.36,6.13Z"/>
          <path d="M381.77,223.63c3.51,1.33,5.57,4.26,4.78,6.8-.72,2.32-4.24,3.35-7.39,2.17-3.84-1.43-5.9-4.38-5-7.12.78-2.36,4.13-3.17,7.61-1.85Z"/>
          <path d="M437.88,223.96c3.35,1.14,5.03,4.12,4.32,6.14-.82,2.36-3.92,2.95-6.73,1.87-3.26-1.26-5.13-4.3-4.49-6.3.59-1.83,3.79-3.24,6.89-1.71Z"/>
          <path d="M379.03,400.86c-3.21-1.16-4.9-3.98-4.19-6.12.66-2,3.46-3.01,6.92-1.79,2.54.9,5.15,3.97,4.24,6.15-.96,2.3-3.6,3.11-6.96,1.77Z"/>
          <path d="M435.53,400.49c-2.79-1.05-4.57-3.45-3.98-5.37.67-2.18,3.75-2.68,6-1.9,2.99,1.05,4.68,3.58,4.17,5.54-.54,2.08-3.7,2.94-6.19,1.72Z"/>
          <path d="M325.26,392.81c3.03,1.13,5.09,3.89,4.46,5.97-.65,2.17-3.85,3.2-6.68,2.15-3.06-1.14-5.24-3.88-4.59-6.17.62-2.17,3.81-3.07,6.81-1.95Z"/>
          <path d="M328.92,118.51c-.63,1.32-3.3,2.2-6.25.4-2.67-1.63-4.35-4.4-3.49-6.29.72-1.58,3.77-2.01,6.58-.3,2.53,1.54,4.05,4.18,3.16,6.19Z"/>
          <path d="M294.22,419.94c3.59-1.26,7.46-.05,8.25,2.77.86,3.09-.68,5.47-4.73,7.12-3.53,1.44-7.64-.16-8.4-2.68-.86-2.81,1.11-6.06,4.89-7.21Z"/>
          <path d="M346,309.93c.83-2.78,4.9-2.96,7.72-1.85,3.13,1.23,5.46,4.48,4.62,6.8-.9,2.5-4.74,3.18-7.44,2.05-3.63-1.51-5.8-4.3-4.9-7.01Z"/>
          <path d="M353.55,364.75c3.04,1.24,4.96,4.01,4.22,6.08-.86,2.42-3.31,3.13-6.98,1.78-3.29-1.21-4.7-3.57-4.11-6,.52-2.16,3.93-3,6.87-1.86Z"/>
          <path d="M550.31,281.05c2.28.87,3.97,3.2,3.41,4.74-.75,2.08-3.17,2.45-5.61,1.65-2.14-.7-4.13-3.57-3.46-4.95.87-1.79,3.18-2.39,5.66-1.45Z"/>
          <path d="M522.24,252.56c2.37.88,4.46,3.59,3.91,5.2-.82,2.42-3.38,2.85-6.27,1.93-2.46-.79-4.52-3.78-3.86-5.35.97-2.32,3.57-2.68,6.22-1.77Z"/>
          <path d="M522.09,365.02c3.67,1.41,5.13,3.82,4.41,6.02-.71,2.17-3.28,3.03-6.78,1.74-3.19-1.17-4.88-4.14-4.23-5.96.79-2.21,3.63-3.12,6.6-1.8Z"/>
          <path d="M403.81,367.07c.65-2.08,2.88-2.6,5.88-1.58,2.85.96,4.44,3.72,3.87,5.07-.88,2.12-2.87,2.97-6.05,1.92-2.84-.94-4.64-3.86-3.69-5.4Z"/>
          <path d="M544.47,338.98c.25-1.82,3.13-2.83,6.07-1.68,2.75,1.08,4.12,3.46,3.73,5.22-.42,1.94-3.67,2.79-6.3,1.63-2.58-1.14-4.27-3.59-3.49-5.17Z"/>
          <path d="M463.57,259.8c-3.63-1.4-4.73-3.76-4.38-5.84.34-2.06,4.12-2.94,6.97-1.86,2.62.99,4.72,4.07,4.11,6.02-.65,2.09-3.64,2.84-6.7,1.69Z"/>
          <path d="M407.14,260.6c-3.05-1.14-5.6-4.6-4.91-6.63.72-2.13,4.39-3.28,7.2-2.27,3.42,1.23,6.07,4.71,5.26,6.89-.76,2.03-4.69,3.08-7.55,2.01Z"/>
          <path d="M381.56,280.29c3.47,1.31,5.25,3.76,4.5,6.19-.71,2.3-4.22,3.51-7.1,2.44-3.21-1.19-5.79-4.62-5.01-6.82.79-2.24,4.52-3.42,7.61-1.82Z"/>
          <path d="M386.05,342.84c-.79,2.51-4.04,3.56-7.27,2.35-3.03-1.14-5.52-4.79-4.75-6.94.76-2.12,4.11-2.94,7.25-1.76,3.77,1.42,5.57,3.81,4.77,6.36Z"/>
          <path d="M459.6,366.79c.68-2.14,3.39-2.85,6.46-1.69,3.03,1.14,4.97,3.79,4.29,5.85-.68,2.04-3.94,2.94-6.76,1.85-2.97-1.14-4.71-3.76-3.99-6.01Z"/>
          <path d="M522.06,308.97c3.03,1.18,4.43,3.08,3.82,5.43-.43,1.64-3.08,2.48-5.83,1.4-2.62-1.03-4.32-3.29-3.76-5.13.63-2.08,2.93-2.76,5.77-1.7Z"/>
          <path d="M491.74,344.36c-2.92-1.1-4.76-3.65-4.12-5.73.65-2.13,3.54-2.86,6.6-1.77,2.4.86,4.58,3.63,4.02,5.71-.49,1.81-4.12,2.97-6.5,1.79Z"/>
          <path d="M497.6,286.02c-.19,1.77-3.58,2.48-5.63,1.73-2.16-.79-4.52-3.67-3.93-5.34.54-1.52,3.66-2.51,5.91-1.57,2.13.9,4.47,3.24,3.64,5.18Z"/>
          <path d="M437.79,336.83c2.77,1.04,4.66,3.69,4.09,5.69-.63,2.2-4.02,2.82-6.57,1.83-2.74-1.06-4.7-4.03-4-5.81.78-2,3.56-2.81,6.48-1.71Z"/>
          <path d="M407.33,316.24c-2.6-.67-4.79-4.04-4.21-5.76.56-1.67,3.35-2.96,6.47-1.81,2.86,1.06,4.79,3.77,4.13,5.8-.64,1.98-3.62,2.8-6.39,1.76Z"/>
          <path d="M431.4,282.14c.52-1.81,3.7-2.6,6.38-1.59,2.71,1.02,4.75,3.73,4.09,5.68-.79,2.29-3.42,2.91-6.42,1.8-2.75-1.02-4.71-3.22-4.05-5.88Z"/>
          <path d="M469.97,314.57c-.9,2.02-3.44,2.75-6.11,1.75-3.53-1.32-4.99-3.26-4.32-5.71.66-2.43,3.16-3.06,6.53-1.73,2.98,1.18,4.31,3.1,3.9,5.69Z"/>
          <path d="M582.89,91.2c-4.15-1.22-5.82-5.01-5.14-7.07.83-2.5,4.93-3.75,8.2-2.29,4.24,1.88,5.76,4.96,5.09,7.22-.65,2.19-4.48,3.95-8.15,2.14Z"/>
          <path d="M666.97,55.57c.8-2.55,4.4-3.51,8.09-2.05,3.72,1.47,5.52,4.3,5.04,7.1-.39,2.3-4.74,3.53-7.95,2.21-4.18-1.72-5.8-4.54-5.18-7.27Z"/>
          <path d="M695.12,27.45c.99-2.4,4.03-3.48,8.02-2.08,3.41,1.2,5.99,4.93,5.12,7.25-.84,2.24-4.75,3.37-7.94,2.09-3.98-1.59-5.92-4.68-5.2-7.27Z"/>
          <path d="M606.89,56.34c.75-2.42,3.53-3.14,6.91-1.94,3.11,1.1,5.12,4.1,4.36,6.19-.98,2.7-3.96,3.19-7.18,1.89-3.07-1.24-4.93-3.65-4.1-6.14Z"/>
          <path d="M756.64,90.9c-3.52-.92-5.58-4.65-4.88-6.89.77-2.46,4.11-3.36,7.65-2.02,3.68,1.39,5.6,4.17,4.76,6.89-.79,2.56-3.89,3.39-7.54,2.02Z"/>
          <path d="M10.33,91.36c-3.46-.84-6.17-5.14-5.38-7.36,1.09-3.06,4.84-3.83,8.33-2.54,4.24,1.56,6.29,4.73,5.57,7.53-.66,2.6-4.2,4.17-8.53,2.37Z"/>
          <path d="M784.62,62.74c-3.57-1.29-5.45-4.42-4.66-6.8.74-2.23,3.84-3.35,7.69-1.99,2.82,1,5.72,4.41,4.71,6.83-1.07,2.55-4,3.45-7.73,1.96Z"/>
          <path d="M731.14,53.81c3.36,1.26,5.65,4.32,4.95,6.64-.73,2.41-4.28,3.56-7.42,2.39-3.4-1.27-5.83-4.31-5.1-6.86.69-2.41,4.24-3.41,7.57-2.16Z"/>
          <path d="M699.55,80.14c4.49-1.57,9.33-.07,10.31,3.46,1.07,3.87-.85,6.83-5.92,8.89-4.41,1.8-9.55-.2-10.51-3.35-1.07-3.52,1.39-7.58,6.11-9.01Z"/>
          <path d="M589.37,32.04c-.67,1.99-3.45,2.77-6.14,1.73-2.66-1.03-4.56-3.73-3.94-5.58.62-1.85,3.68-2.63,6.27-1.61,2.58,1.02,4.42,3.65,3.81,5.45Z"/>
          <path d="M759.45,25.75c3.37,1.38,5.51,4.45,4.69,6.76-.96,2.69-3.68,3.48-7.76,1.98-3.65-1.34-5.22-3.97-4.56-6.67.58-2.4,4.36-3.33,7.64-2.07Z"/>
          <path d="M10.14,34.83c-2.85-1.04-5.79-5.08-5.14-7.05.85-2.56,4.84-3.87,8.24-2.69,3.57,1.23,6.59,5.13,5.51,7.56-1.19,2.7-3.74,3.66-8.61,2.18Z"/>
          <path d="M33.72,55.65c.3-2.03,4.7-3.47,8.19-1.92,3.31,1.47,5.45,4.68,4.7,7.32-.56,1.96-4.74,3.23-8.1,1.9-3.17-1.25-6.05-4.96-4.79-7.29Z"/>
          <path d="M74.28,88.75c-.82,2.67-3.94,3.78-7.43,2.38-3.87-1.56-5.81-4.19-5.11-7.11.59-2.47,4.65-3.6,7.9-2.12,3.04,1.39,5.65,3.81,4.64,6.86Z"/>
          <path d="M642.9,33.55c-3.07-1.15-4.74-3.43-4.01-5.59.69-2.04,3.37-2.76,6.23-1.67,3.06,1.17,4.53,3.68,3.94,5.54-.67,2.12-3.21,2.82-6.16,1.72Z"/>
          <path d="M649.16,88.41c-.77,2.47-3.2,3.18-6.52,1.96-2.74-1.01-5.09-3.87-4.38-6.04.75-2.28,4.17-2.78,6.66-1.85,2.46.92,5.51,3.8,4.24,5.94Z"/>
          <path d="M97.58,53.91c3.07,1.16,5.6,4.51,4.96,6.56-.69,2.23-4.53,3.52-7.44,2.17-3.4-1.58-5.64-3.67-4.71-6.67.84-2.71,3.98-2.85,7.19-2.06Z"/>
          <path d="M118.47,27.8c.72-2.08,4.63-3.11,7.49-1.98,2.95,1.16,5.35,4.62,4.62,6.65-.72,2.02-4.53,3.06-7.37,2.02-2.89-1.05-5.45-4.67-4.75-6.69Z"/>
          <path d="M123.15,90.43c-3.44-1.29-5.04-3.62-4.24-6.17.78-2.48,3.39-3.2,6.89-1.88,3.38,1.27,5.18,3.77,4.43,6.18-.77,2.49-3.51,3.21-7.08,1.87Z"/>
          <path d="M242.75,32.13c-.94,2.6-3.57,3.21-6.86,2.01-3.06-1.11-5.07-3.61-4.44-6.3.48-2.02,4.1-2.82,7.08-1.69,3.09,1.17,4.92,3.76,4.22,5.98Z"/>
          <path d="M182.33,26.17c2.99,1.16,4.83,3.93,4.09,6.15-.65,1.94-4.07,2.89-6.84,1.85-3.11-1.16-5.22-4.36-4.46-6.28.8-2.03,4.18-2.9,7.21-1.72Z"/>
          <path d="M153.88,54.22c2.85,1.05,5.1,4.17,4.46,6.2-.64,2.04-3.97,2.89-7,1.91-2.54-.82-5.12-4.34-4.36-6.21.81-1.99,4-2.96,6.89-1.9Z"/>
          <path d="M182.17,82.47c3.15,1.49,5.08,4.4,4.21,6.33-.88,1.95-4.52,2.75-7.05,1.53-2.83-1.36-4.83-4.47-3.92-6.09,1.18-2.11,4.32-2.93,6.76-1.77Z"/>
          <path d="M231.95,84.4c.69-2.24,3.8-3.19,6.61-2.03,2.84,1.17,4.92,4.16,4.29,6.13-.64,1.99-4,3.06-6.81,1.89-2.62-1.1-5.05-3.4-4.09-5.99Z"/>
          <path d="M647.91,140.96c.61.57,1.22,1.14,1.84,1.71,1.36,1.27,1.38,2.45.04,3.26-.86.52-1.72,1.03-2.59,1.54-1.7,1.01-4.47.51-6.23-1.12-.44-.41-.87-.81-1.31-1.22-2.04-1.9-2.08-3.94-.1-5.12.81-.48,1.6-.96,2.42-1.43,1.26-.73,2.87-.46,4.1.68.61.57,1.22,1.14,1.84,1.71Z"/>
          <path d="M647.81,197.1c.53.69,1.37,1.51,1.77,2.38.71,1.54-.53,3.42-1.86,3.92-2.01.76-4.19.75-6.49-.69-2.3-1.44-3.47-3.83-2.69-5.49.84-1.8,4.4-2.84,6.85-1.87.82.33,1.49,1.06,2.43,1.75Z"/>
          <path d="M270.31,168.93c2.63,2.44,2.82,5.58.28,7-3.08,1.73-7.08,1.12-9.97-1.44-2.37-2.1-3.25-5.88.31-7.66,2.94-1.47,6.2-.86,9.39,2.1Z"/>
          <path d="M270.85,112.56c3.56,2.41,2.75,6.54.03,8.04-2.62,1.45-7.27,1.23-10.71-1.87-3.28-2.96-2.89-6.29.03-8.28,2.17-1.47,7.56-1.49,10.65,2.11Z"/>
          <path d="M232.18,138.96c2.71-1.89,7.46-.87,10.47,1.88,2.73,2.5,2.77,6.65-.05,7.97-3.08,1.44-7.3,1.02-10.59-2-2.84-2.6-2.74-6.13.16-7.86Z"/>
          <path d="M241.79,203.88c-1.96,1.35-6.42.65-8.76-1.48-2.73-2.5-2.72-5.56-.17-7.02,2.55-1.46,6.24-.93,9.05,1.66,2.37,2.18,2.5,5.21-.12,6.85Z"/>
          <path d="M214.06,112.83c2.92,2.86,2.57,5.87.22,7.52-2.37,1.66-7.74.76-10-1.63-2.85-3.02-2.87-5.83.03-7.55,2.84-1.68,6.67-.78,9.74,1.67Z"/>
          <path d="M269.95,225.05c2.84,2.64,1.74,5.64-.21,6.53-2.55,1.16-6.91.38-8.81-1.63-2.12-2.24-2.04-5.73.22-6.75,2.97-1.35,7.21-.26,8.81,1.85Z"/>
          <path d="M176.54,146.66c-3.37-3.09-2.77-5.61-.33-7.45,2.19-1.66,7.12-.73,9.65,1.7,2.98,2.86,2.71,5.63.24,7.26-2.47,1.63-7.09,1.12-9.56-1.51Z"/>
          <path d="M646.99,253.89c1.74,1.62,1.74,3.88,0,4.87-1.47.84-4.8.29-6.1-1.1-1.64-1.75-2.12-3.66.06-4.91,1.62-.92,4.37-.42,6.04,1.13Z"/>
          <path d="M176.29,202.45c-2.54-2.37-2.47-5.89.14-7.32,2.29-1.25,7.22-.36,9.39,1.76,2.23,2.18,2.78,5.79-.07,7.35-3.03,1.66-7.34.39-9.46-1.79Z"/>
          <path d="M204.51,223.49c2.82-1.76,6.79-.62,9.1,1.55,2.71,2.54,2.46,5.43.03,6.91-2.53,1.53-6.55.8-8.96-1.42-2.27-2.09-2.97-5.97-.17-7.04Z"/>
          <path d="M120.34,202.49c-2.88-2.82-2.2-5.44-.1-6.94,2.08-1.48,6.89-.62,9.09,1.64,2.51,2.57,2.82,5.33,0,6.99-2.6,1.52-6.44.8-8.99-1.68Z"/>
          <path d="M157.22,225.28c2.37,2.21,2.32,5.47-.26,6.79-2,1.03-6.19.7-8.74-1.78-2.4-2.33-2.62-5.56-.08-6.79,2.41-1.17,5.84-1.34,9.07,1.78Z"/>
          <path d="M671.93,232.06c-3.08-1-5.07-4.04-4.41-6.05.74-2.24,3.2-3.34,6.95-1.98,3.62,1.31,5.26,3.97,4.5,6.43-.63,2.02-3.42,2.96-7.03,1.61Z"/>
          <path d="M148.75,111.62c2.29-1.32,6.5-.68,8.5,1.3,2.53,2.51,2.72,5.79.09,7.08-2.68,1.32-5.97.74-9.25-1.99-2.22-1.85-1.8-4.98.66-6.4Z"/>
          <path d="M667.88,338.17c.68-2.19,3.57-2.91,6.81-1.71,3.08,1.13,4.83,3.6,4.41,6.13-.35,2.09-4.07,3.14-6.9,1.95-3.08-1.29-5.44-4.13-4.32-6.36Z"/>
          <path d="M120.6,146.34c-2.7-2.25-2.55-5.14-.27-6.55,2.33-1.43,6.3-1.02,8.91,1.56,2.34,2.32,2.34,5.13-.19,6.61-2.26,1.33-6.06.59-8.45-1.63Z"/>
          <path d="M92.33,174.45c-2.5-1.96-2.42-5.18-.09-6.4,2.66-1.4,6.24-.96,8.69,1.43,2.43,2.37,2.46,4.95.29,6.41-2.49,1.67-6.27.99-8.88-1.44Z"/>
          <path d="M92.46,230.64c-2.5-2.32-2.82-5.36-.37-6.57,2.7-1.33,5.73-1.06,8.78,1.44,2.43,1.99,2.41,5.45,0,6.67-3.03,1.53-6.67.38-8.4-1.54Z"/>
          <path d="M706.96,314.32c-.27,1.85-3.32,3.18-6.68,1.98-2.92-1.05-5-4.01-4.37-5.94.69-2.12,3.96-3.2,6.75-2.02,3.11,1.31,4.99,3.6,4.3,5.98Z"/>
          <path d="M706.95,258.29c-.33,1.9-2.9,3.09-6.58,1.85-2.95-1-5-4.07-4.34-6.17.58-1.85,4.22-2.89,6.82-1.75,2.9,1.28,4.91,3.62,4.09,6.07Z"/>
          <path d="M72.75,203.84c-2.23,1.68-6.04.75-8.33-1.37-2.23-2.07-2.38-5.3-.28-6.57,2.22-1.36,6.28-.7,8.69,1.42,2.39,2.09,2.35,5.07-.08,6.53Z"/>
          <path d="M233.54,258.14c-2.22-2.07-2.23-4.56-.13-5.9,2.16-1.38,5.55-.47,7.85,1.44,1.93,1.6,1.85,4.84-.11,5.76-2.54,1.19-5.48.65-7.62-1.3Z"/>
          <path d="M696.35,198c.68-2.17,3.46-2.9,6.63-1.72,2.78,1.03,4.84,3.87,3.99,5.88-1,2.37-3.22,3.1-6.54,1.83-3.6-1.38-4.99-4.16-4.08-5.98Z"/>
          <path d="M669.78,169.66c.65-1.38,2.85-1.55,4.84-.37,2.27,1.35,3.4,3.49,2.66,5.01-.59,1.2-3.19,1.42-4.95.26-1.96-1.29-3.51-3.28-2.54-4.9Z"/>
          <path d="M128.72,253.48c2.64,2.69,2.17,4.88.1,6.38-2.01,1.46-6.19.61-8.48-1.55-2.23-2.1-2.35-5.2-.03-6.37,3.02-1.52,6.64-.43,8.42,1.53Z"/>
          <path d="M585.38,196.48c2.64.99,4.33,3.35,3.76,5.23-.58,1.91-3.28,2.66-5.95,1.64-2.63-1-4.28-3.42-3.66-5.37.58-1.8,3.23-2.49,5.85-1.5Z"/>
          <path d="M44.37,225.61c2.22,2.06,2.27,4.99.12,6.26-2.31,1.37-6.41.73-8.48-1.44-2.03-2.14-2.63-4.8.14-6.41,2.28-1.33,5.8-.66,8.21,1.59Z"/>
          <path d="M583.05,429.29c-3.73-1.1-5.24-4.51-4.62-6.37.74-2.25,4.43-3.37,7.38-2.06,3.81,1.69,5.19,4.47,4.58,6.5-.59,1.98-4.03,3.56-7.34,1.93Z"/>
          <path d="M70.17,250.94c3.85,1.16,6.53,5.17,5.43,7.92-1.32,3.33-4.77,3.77-9.16,2.32-3.7-1.22-6.48-5.44-5.42-8.05.92-2.28,4.53-4.18,9.15-2.19Z"/>
          <path d="M184.95,259.6c-2.5,1.74-6.13.59-8.29-1.54-2.51-2.46-2.3-4.47.03-6.21,1.9-1.42,6.22-.61,8.27,1.38,2.1,2.05,2.69,5.25,0,6.36Z"/>
          <path d="M790.31,174.32c-.6,1.34-2.83,1.7-5.51.27-2.13-1.15-3.62-3.88-2.86-5.28.84-1.54,3.12-1.7,5.56-.33,1.95,1.1,3.74,3.48,2.81,5.34Z"/>
          <path d="M723.86,225.69c.64-2.13,3.8-3.22,7.06-1.96,3.86,1.49,5.23,3.97,4.79,6.37-.43,2.34-4.41,3.32-7.49,2.06-3.03-1.24-5.05-4.23-4.37-6.47Z"/>
          <path d="M668.21,394.61c.65-2.07,3.56-2.84,6.55-1.66,3.01,1.19,4.47,3.49,4.08,5.75-.32,1.86-3.84,2.86-6.44,1.79-3.38-1.39-4.7-3.67-4.2-5.89Z"/>
          <path d="M585.4,141.39c2.44,1.31,3.09,3.18,2.66,4.61-.44,1.45-2.89,1.49-4.95.4-1.83-.97-3.22-3.65-2.66-4.73.56-1.1,2.7-1.8,4.95-.27Z"/>
          <path d="M696.37,366.49c.8-1.94,3.26-2.82,6.49-1.68,2.76.98,4.85,3.99,4.15,5.87-.68,1.81-3.84,2.73-6.43,1.7-3.22-1.28-4.8-3.79-4.21-5.89Z"/>
          <path d="M790.77,118.28c-1.09,1.81-3.5,1.73-6.09.38-2.32-1.22-3.99-4.49-3.17-6,.77-1.44,3.99-1.55,6.22-.21,2.39,1.42,3.82,4.19,3.04,5.84Z"/>
          <path d="M728.55,174.39c-2.81-1.62-3.32-3.59-2.88-5.22.39-1.41,3.49-1.52,5.39-.37,2.47,1.5,3.82,3.97,2.8,5.51-.82,1.22-2.57,1.72-5.31.08Z"/>
          <path d="M607.96,226.26c.56-1.87,3.18-2.7,5.58-1.77,2.7,1.05,4.37,3.39,3.83,5.36-.47,1.7-3.61,2.57-6,1.45-2.43-1.14-4.06-2.88-3.41-5.05Z"/>
          <path d="M759.42,140.85c2.69,1.58,4.1,3.94,3.36,5.62-.77,1.76-3.84,1.96-6.38.4-2.35-1.44-3.79-4.26-2.82-5.89.84-1.41,3.48-1.73,5.84-.14Z"/>
          <path d="M10.89,261.48c-4.7-2.03-6.65-4.76-6.06-8.01.51-2.81,4.8-3.87,8.7-2.48,4.06,1.45,6.72,5.09,5.79,7.94-.82,2.53-4.98,3.79-8.44,2.55Z"/>
          <path d="M613.48,169.57c2.15,1.26,3.08,3.02,2.43,4.51-.75,1.73-2.88,1.45-4.79.4-1.85-1.01-3.24-3.49-2.59-4.64.74-1.3,2.76-1.69,4.96-.28Z"/>
          <path d="M8.01,196.2c2.04-1.28,5.89-.67,8.21,1.29,2.22,1.87,2.37,5.19.07,6.34-2.48,1.24-5.22.84-7.58-1.08-3.14-2.55-2.72-4.93-.69-6.55Z"/>
          <path d="M763.42,202.09c-.69,2.22-4.06,3.28-6.83,2.15-3.12-1.27-5.4-4.53-4.64-6.64.7-1.96,4.43-2.94,7.19-1.76,3.39,1.45,5.25,4.34,4.28,6.25Z"/>
          <path d="M261.74,286.03c-1.98-2.09-2.06-4.21.18-5.52,2.23-1.31,5.08-.43,7.06,1.26,2.08,1.78,1.97,4.54.03,5.68-1.87,1.1-5.34.42-7.27-1.42Z"/>
          <path d="M606.89,394.9c.75-2.42,3.53-3.14,6.91-1.94,3.11,1.1,5.12,4.1,4.36,6.19-.98,2.7-3.96,3.19-7.18,1.89-3.07-1.24-4.93-3.65-4.1-6.14Z"/>
          <path d="M44,169.6c2.71,2.33,2.5,4.79.09,6.21-2.13,1.25-5.76.61-7.82-1.44-2.31-2.31-2.44-4.78-.08-6.17,2.26-1.32,5.5-.74,7.81,1.41Z"/>
          <path d="M698.22,141.72c.32-1.42,2.75-1.58,4.81-.29,1.97,1.23,3.1,3.3,2.43,4.69-.55,1.14-3.08,1.23-4.85.18-1.98-1.18-3.04-3.2-2.39-4.57Z"/>
          <path d="M728.43,344.51c-3.18-1.2-5.19-3.93-4.55-6.16.61-2.12,4.13-3.2,7.1-2,3.3,1.34,5.06,4.08,4.41,6.27-.66,2.2-4.32,3.32-6.96,1.88Z"/>
          <path d="M588.85,257.76c-.19,1.76-3.02,2.57-5.6,1.52-2.53-1.03-3.95-3.08-3.52-4.96.39-1.71,2.8-2.66,5.58-1.64,2.79,1.03,4.24,3.19,3.53,5.08Z"/>
          <path d="M649.21,313.92c-.92,2.39-3.25,2.89-6.38,1.91-2.53-.8-4.66-3.85-4.09-5.56.64-1.93,3.66-2.91,6.21-1.89,3.22,1.28,4.71,3.66,4.26,5.55Z"/>
          <path d="M64.44,140.03c2.18-1.27,5.53-.65,7.74,1.44,2.74,2.6,2.26,4.63.03,6.33-1.58,1.2-5.87.25-7.85-1.63-2.13-2.02-2.1-4.88.08-6.15Z"/>
          <path d="M47.05,286.88c-.87,2.81-4.45,3.79-8.4,2.32-3.97-1.49-6.3-4.69-5.48-7.46.95-3.2,4.45-4.08,8.52-2.62,4.13,1.49,6.63,5.2,5.36,7.76Z"/>
          <path d="M89.48,281.47c1-3.33,4.78-3.79,8.47-2.41,3.64,1.36,6.36,4.25,5.41,7.61-.77,2.75-4.7,3.95-8.74,2.36-3.45-1.36-6.29-4.55-5.13-7.56Z"/>
          <path d="M756.64,429.45c-3.52-.92-5.58-4.65-4.88-6.89.77-2.46,4.11-3.36,7.65-2.02,3.68,1.39,5.6,4.17,4.76,6.89-.79,2.56-3.89,3.39-7.54,2.02Z"/>
          <path d="M752.38,254.04c.7-2.27,3.48-3.08,6.59-1.91,3.37,1.26,5.35,3.89,4.63,6.13-.69,2.15-3.88,3.1-6.8,2.01-3.48-1.3-5.19-3.71-4.42-6.23Z"/>
          <path d="M100.68,119.2c-1.89,1.44-5.69.96-7.79-1.07-2.29-2.21-2.61-5.07-.1-6.27,2.45-1.17,5.16-.93,7.95,1.55,1.91,1.7,2.46,4.52-.06,5.79Z"/>
          <path d="M787.37,224.07c3.16,1.2,5.01,3.84,4.3,6.12-.65,2.08-3.82,3.01-6.65,1.96-3.45-1.29-5.31-3.94-4.5-6.4.7-2.12,3.71-2.86,6.85-1.67Z"/>
          <path d="M10.33,429.92c-3.46-.84-6.17-5.14-5.38-7.36,1.09-3.06,4.84-3.83,8.33-2.54,4.24,1.56,6.29,4.73,5.57,7.53-.66,2.6-4.2,4.17-8.53,2.37Z"/>
          <path d="M613.44,281.02c2.6.98,4.07,3.11,3.47,5.04-.49,1.56-3.21,2.32-5.39,1.49-2.61-1-4.18-3.49-3.65-5.08.6-1.81,2.93-2.45,5.57-1.45Z"/>
          <path d="M784.78,400.86c-3.21-1.16-4.9-3.98-4.19-6.12.66-2,3.46-3.01,6.92-1.79,2.54.9,5.15,3.97,4.24,6.15-.96,2.3-3.6,3.11-6.96,1.77Z"/>
          <path d="M672.31,118.62c-2.45-1.15-3.94-3.98-3.11-5.57.79-1.52,3.58-1.85,5.81-.38,2.43,1.6,3.78,3.67,2.96,5.69-.63,1.56-3.3,1.64-5.66.26Z"/>
          <path d="M731.01,392.81c3.03,1.13,5.09,3.89,4.46,5.97-.65,2.17-3.85,3.2-6.68,2.15-3.06-1.14-5.24-3.88-4.59-6.17.62-2.17,3.81-3.07,6.81-1.95Z"/>
          <path d="M734.19,118.21c-.57,1.19-2.97,1.98-5.63.36-2.4-1.47-3.91-3.96-3.14-5.66.65-1.42,3.39-1.81,5.92-.27,2.28,1.39,3.65,3.76,2.85,5.57Z"/>
          <path d="M699.55,418.7c4.49-1.57,9.33-.07,10.31,3.46,1.07,3.87-.85,6.83-5.92,8.89-4.41,1.8-9.55-.2-10.51-3.35-1.07-3.52,1.39-7.58,6.11-9.01Z"/>
          <path d="M588.86,370.41c-.6,1.79-3.11,2.5-5.53,1.56-2.39-.93-4.11-3.35-3.54-5.02.56-1.67,3.31-2.37,5.64-1.45,2.32.92,3.98,3.29,3.43,4.91Z"/>
          <path d="M752.37,310.18c.75-2.5,4.41-2.66,6.94-1.66,2.82,1.11,4.91,4.03,4.16,6.12-.81,2.25-4.27,2.86-6.69,1.85-3.26-1.36-5.22-3.87-4.41-6.31Z"/>
          <path d="M759.3,364.75c3.04,1.24,4.96,4.01,4.22,6.08-.86,2.42-3.31,3.13-6.98,1.78-3.29-1.21-4.7-3.57-4.11-6,.52-2.16,3.93-3,6.87-1.86Z"/>
          <path d="M13.6,307.49c3.97,1.71,6.12,4.85,5.29,7.42-.99,3.07-4.96,3.73-8.34,2.47-3.69-1.38-6.4-5.29-5.38-7.78,1.09-2.69,4.84-3.36,8.43-2.1Z"/>
          <path d="M150.91,288.73c-3.84-1.14-5.83-5.02-5.06-7.33.87-2.59,4.41-3.77,8.38-2.15,4.26,1.74,6.14,4.85,5.32,7.42-.8,2.49-4.09,3.81-8.64,2.06Z"/>
          <path d="M588.89,314.1c-.88,1.87-2.78,2.44-5.68,1.51-2.11-.67-4.02-3.39-3.37-4.87.77-1.75,2.87-2.47,5.33-1.6,2.58.92,4.05,3.07,3.72,4.95Z"/>
          <path d="M205.11,280.49c2.12-1.26,5.81-.57,7.99,1.49,1.73,1.63,1.56,4.52-.29,5.65-2.04,1.24-5.58.77-7.56-1.17-2.06-2.01-2.59-4.41-.13-5.97Z"/>
          <path d="M66.63,316.9c-3.63-1.14-5.74-4.49-5.23-7.13.49-2.55,4.91-3.79,8.24-2.44,4.25,1.72,6.18,4.96,5.38,7.54-.82,2.64-4.23,3.7-8.38,2.03Z"/>
          <path d="M610.21,113.22c1.78-.61,3.4.32,4.47,1.59,1.27,1.51,1.05,2.87-.32,3.41-1.22.48-3.49-.36-4.54-1.68-.84-1.05-1.25-2.94.39-3.32Z"/>
          <path d="M10.14,373.38c-2.85-1.04-5.79-5.08-5.14-7.05.85-2.56,4.84-3.87,8.24-2.69,3.57,1.23,6.59,5.13,5.51,7.56-1.19,2.7-3.74,3.66-8.61,2.18Z"/>
          <path d="M8.3,140.32c2.39-1.46,5.68-.56,7.55,1.16,2.09,1.92,2.2,4.52.45,5.66-2.19,1.42-5.95,1.01-7.84-.86-2.39-2.36-2.2-4.69-.16-5.96Z"/>
          <path d="M791.2,342.64c-.71,2.26-3.64,3.21-6.54,2.11-2.73-1.03-4.97-4.31-4.28-6.25.68-1.91,3.7-2.64,6.52-1.58,3.39,1.28,5.01,3.43,4.3,5.72Z"/>
          <path d="M33.72,394.21c.3-2.03,4.7-3.47,8.19-1.92,3.31,1.47,5.45,4.68,4.7,7.32-.56,1.96-4.74,3.23-8.1,1.9-3.17-1.25-6.05-4.96-4.79-7.29Z"/>
          <path d="M118.01,309.99c.81-2.63,4.21-3.51,7.87-2.27,3.29,1.12,6.07,4.74,5.19,7.09-.93,2.47-4.76,3.69-8.05,2.21-3.87-1.75-5.87-4.7-5.01-7.02Z"/>
          <path d="M43.76,113.3c2.09,1.93,2.18,4.44.2,5.64-2.11,1.28-5.23.73-7.58-1.33-1.73-1.52-1.84-4.53.06-5.47,2.15-1.06,5.33-.79,7.32,1.16Z"/>
          <path d="M102.4,342.65c-.89,2.87-3.48,3.61-7.44,2.12-3.82-1.44-5.98-4.34-5.13-6.9.8-2.43,4.44-3.43,7.79-2.15,3.68,1.41,5.62,4.22,4.78,6.94Z"/>
          <path d="M74.28,427.31c-.82,2.67-3.94,3.78-7.43,2.38-3.87-1.56-5.81-4.19-5.11-7.11.59-2.47,4.65-3.6,7.9-2.12,3.04,1.39,5.65,3.81,4.64,6.86Z"/>
          <path d="M643.01,371.75c-2.76-1.04-4.26-3.09-3.61-5.03.62-1.84,3.03-2.48,5.61-1.5,2.75,1.05,4.08,3.31,3.55,4.98-.61,1.91-2.88,2.54-5.55,1.54Z"/>
          <path d="M231.02,309.84c.56-2.94,4.5-3.16,7.81-2.05,2.95,1,5.48,4.57,4.66,6.63-1.17,2.94-4.13,3.52-7.81,2.21-2.82-1-6-4.22-4.66-6.8Z"/>
          <path d="M174.65,310.01c.59-2.92,4.25-3.44,7.29-2.27,3.48,1.34,5.95,4.07,4.94,6.74-.94,2.53-4.07,3.54-7.55,2.19-2.74-1.06-6.22-4.47-4.69-6.67Z"/>
          <path d="M271.3,342.65c-.77,2.48-4.13,3.49-7.36,2.22-3.05-1.2-5.64-4.56-4.81-6.61.88-2.16,3.36-3.69,7.62-2.12,3.1,1.14,5.75,4.41,4.55,6.51Z"/>
          <path d="M648.62,426.78c-.69,2.22-2.88,2.86-5.87,1.76-2.46-.9-4.58-3.48-3.94-5.44.67-2.05,3.75-2.5,6-1.67,2.22.83,4.96,3.42,3.81,5.34Z"/>
          <path d="M97.58,392.47c3.07,1.16,5.6,4.51,4.96,6.56-.69,2.23-4.53,3.52-7.44,2.17-3.4-1.58-5.64-3.67-4.71-6.67.84-2.71,3.98-2.85,7.19-2.06Z"/>
          <path d="M154.01,336.18c3.15,1.17,5.55,4.32,4.75,6.56-.82,2.29-3.85,3.27-7.63,2.04-2.77-.91-5.41-4.67-4.44-6.52,1.25-2.37,3.21-3.42,7.32-2.08Z"/>
          <path d="M118.47,366.36c.72-2.08,4.63-3.11,7.49-1.98,2.95,1.16,5.35,4.62,4.62,6.65-.72,2.02-4.53,3.06-7.37,2.02-2.89-1.05-5.45-4.67-4.75-6.69Z"/>
          <path d="M214.57,342.65c-.73,2.33-3.53,3.11-6.74,1.91-2.76-1.03-5.52-3.48-4.62-6.44.69-2.26,4.05-2.97,6.97-2.03,2.37.77,5.94,4.33,4.39,6.56Z"/>
          <path d="M123.29,428.59c-3.09-1.16-4.53-3.26-3.81-5.55.7-2.23,3.06-2.88,6.2-1.7,3.04,1.14,4.66,3.4,3.99,5.56-.69,2.24-3.16,2.89-6.38,1.68Z"/>
          <path d="M242.75,370.68c-.94,2.6-3.57,3.21-6.86,2.01-3.06-1.11-5.07-3.61-4.44-6.3.48-2.02,4.1-2.82,7.08-1.69,3.09,1.17,4.92,3.76,4.22,5.98Z"/>
          <path d="M182.33,364.72c2.99,1.16,4.83,3.93,4.09,6.15-.65,1.94-4.07,2.89-6.84,1.85-3.11-1.16-5.22-4.36-4.46-6.28.8-2.03,4.18-2.9,7.21-1.72Z"/>
          <path d="M153.88,392.77c2.85,1.05,5.1,4.17,4.46,6.2-.64,2.04-3.97,2.89-7,1.91-2.54-.82-5.12-4.34-4.36-6.21.81-1.99,4-2.96,6.89-1.9Z"/>
          <path d="M182.05,421.42c2.83,1.34,4.57,3.96,3.79,5.7-.79,1.76-4.07,2.47-6.34,1.38-2.55-1.22-4.35-4.02-3.53-5.48,1.07-1.9,3.89-2.64,6.08-1.6Z"/>
          <path d="M232.49,423.15c.62-2.01,3.42-2.87,5.95-1.83,2.55,1.05,4.43,3.74,3.86,5.52-.58,1.79-3.6,2.76-6.13,1.7-2.36-.99-4.55-3.06-3.68-5.39Z"/>
          <path d="M469.24,485.52c-.72,1.53-3.51,1.75-5.81.33-2.65-1.64-3.61-3.54-3.1-5.4.43-1.56,3.65-1.85,5.64-.66,2.57,1.54,4.03,4.1,3.26,5.73Z"/>
          <path d="M494.1,452.22c2.15,1.29,3.36,3.53,2.7,5.04-.58,1.33-3.33,1.53-5.24.27-2.39-1.58-3.32-3.53-2.68-5.05.59-1.4,3.18-1.48,5.22-.25Z"/>
          <path d="M441.23,457.49c-.62,1.43-3.69,1.57-5.91.14-2.26-1.46-3.44-3.64-2.84-5.04.82-1.92,3.28-2.3,5.66-.88,2.48,1.48,3.85,4.03,3.1,5.78Z"/>
          <path d="M522.49,479.97c2.3,1.32,3.74,3.89,3.1,5.53-.61,1.58-3.56,1.76-5.87.36-2.24-1.35-3.45-3.6-2.96-5.14.74-2.34,3.42-1.84,5.73-.75Z"/>
          <path d="M491.66,513.79c-2.23-1.04-3.7-3.92-2.98-5.33.73-1.39,2.8-2.09,5.65-.43,2.79,1.62,3.7,3.64,3.04,5.45-.54,1.49-3.15,1.93-5.71.31Z"/>
          <path d="M301.21,653.63c-.27,1.85-3.32,3.18-6.68,1.98-2.92-1.05-5-4.01-4.37-5.94.69-2.12,3.96-3.2,6.75-2.02,3.11,1.31,4.99,3.6,4.3,5.98Z"/>
          <path d="M300.65,597.39c-.3,1.71-2.61,2.78-5.92,1.66-2.66-.9-4.5-3.66-3.9-5.56.52-1.66,3.8-2.6,6.14-1.57,2.61,1.15,4.42,3.25,3.68,5.46Z"/>
          <path d="M410.04,480.28c2.36,1.38,3.83,3.8,3.02,5.26-.93,1.69-3.03,1.88-5.77.47-2.16-1.11-3.6-3.89-2.91-5.38.77-1.67,3.15-1.82,5.65-.36Z"/>
          <path d="M550.61,507.96c2.66,1.56,4.02,4.04,3.19,5.81-.87,1.85-3.49,2.02-6.21.47-2.35-1.34-4.09-4.05-3.24-5.95.75-1.69,4.11-1.89,6.26-.32Z"/>
          <path d="M437.85,508.19c2.63,1.54,3.75,3.55,2.94,5.28-.75,1.6-3.13,1.82-5.39.51-2.45-1.42-3.71-3.79-3.06-5.47.59-1.52,3.33-1.79,5.51-.32Z"/>
          <path d="M290.01,537.07c.75-2.42,3.84-3.22,7.36-1.91,3.09,1.15,5.38,4.3,4.44,6.53-1.11,2.63-3.57,3.44-7.27,2.03-4-1.53-5.55-4.62-4.53-6.64Z"/>
          <path d="M528.37,767.32c-1.13,3.01-4.32,4.1-8.89,2.47-4.13-1.48-6.72-4.99-5.84-7.87.94-3.05,5.16-4.41,9.11-2.75,3.86,1.61,6.89,5.32,5.62,8.16Z"/>
          <path d="M472.08,767.31c-.72,2.9-4.59,4.07-9.03,2.49-3.75-1.34-6.66-5.36-5.66-7.87,1.32-3.29,4.01-4.27,8.92-2.65,4.49,1.48,6.76,5.32,5.77,8.03Z"/>
          <path d="M522.54,534.5c3.54.97,5.81,4.94,5.07,6.88-1.21,3.16-4.08,3.78-7.78,2.6-3.84-1.23-6.37-4.78-5.43-7.34.98-2.65,3.86-3.75,8.14-2.13Z"/>
          <path d="M384.56,513.62c-.6,1.34-2.83,1.7-5.51.27-2.13-1.15-3.62-3.88-2.86-5.28.84-1.54,3.12-1.7,5.56-.33,1.95,1.1,3.74,3.48,2.81,5.34Z"/>
          <path d="M318.7,565.22c.57-1.92,3.42-2.9,6.36-1.76,3.47,1.34,4.71,3.58,4.32,5.73-.39,2.11-3.97,2.99-6.74,1.85-2.73-1.12-4.54-3.8-3.93-5.82Z"/>
          <path d="M466.19,534.93c2.66.66,5.11,3.98,4.5,6.27-.61,2.27-4.48,3.3-7.53,2.06-2.88-1.17-5.14-4.38-4.33-6.47.81-2.06,3.98-3.33,7.36-1.86Z"/>
          <path d="M553.02,457.3c-.93,1.91-3.24,1.71-5.49.35-2.13-1.29-3.54-3.37-2.7-5.24.64-1.42,3.41-1.56,5.5-.21,2.37,1.53,3.44,3.46,2.69,5.11Z"/>
          <path d="M290.62,705.8c.8-1.94,3.26-2.82,6.49-1.68,2.76.98,4.85,3.99,4.15,5.87-.68,1.81-3.84,2.73-6.43,1.7-3.22-1.28-4.8-3.79-4.21-5.89Z"/>
          <path d="M384.56,457.32c-.98,1.63-3.15,1.56-5.48.34-2.09-1.09-3.59-4.04-2.86-5.4.69-1.29,3.59-1.39,5.6-.19,2.15,1.28,3.44,3.77,2.73,5.26Z"/>
          <path d="M410.1,759.46c3.56,1,6.63,4.77,5.63,7.9-.87,2.72-5.18,3.74-8.93,2.25-4.14-1.64-6.34-5.06-5.59-7.75.66-2.37,4.1-4.45,8.89-2.4Z"/>
          <path d="M322.8,513.7c-2.81-1.62-3.32-3.59-2.88-5.22.39-1.41,3.49-1.52,5.39-.37,2.47,1.5,3.82,3.97,2.8,5.51-.82,1.22-2.57,1.72-5.31.08Z"/>
          <path d="M353.66,480.16c2.69,1.58,4.1,3.94,3.36,5.62-.77,1.76-3.84,1.96-6.38.4-2.35-1.44-3.79-4.26-2.82-5.89.84-1.41,3.48-1.73,5.84-.14Z"/>
          <path d="M414.13,541.35c-1.01,2.59-3.38,3.09-6.99,1.96-2.95-.92-5.23-4.33-4.54-6.38.7-2.09,4.35-3.2,7.16-2,3.17,1.35,5.29,3.76,4.38,6.42Z"/>
          <path d="M547.85,571.75c-4.13-1.34-5.7-4.57-5.13-7.1.49-2.17,4.91-3.24,7.77-2.12,3.53,1.38,6.13,4.68,5.31,7.04-.86,2.48-4.06,3.87-7.95,2.19Z"/>
          <path d="M357.67,541.4c-.69,2.22-4.06,3.28-6.83,2.15-3.12-1.27-5.4-4.53-4.64-6.64.7-1.96,4.43-2.94,7.19-1.76,3.39,1.45,5.25,4.34,4.28,6.25Z"/>
          <path d="M291.62,480.55c.39-1.75,3.4-1.95,5.94-.36,2.44,1.52,3.83,4.08,3,5.79-.68,1.4-3.8,1.52-5.98.22-2.44-1.46-3.75-3.95-2.95-5.65Z"/>
          <path d="M322.8,683.42c-2.86-1.08-4.67-3.53-4.09-5.54.55-1.9,3.72-2.88,6.39-1.8,2.97,1.21,4.56,3.67,3.97,5.65-.59,1.98-3.88,2.99-6.26,1.7Z"/>
          <path d="M556.06,738.84c-.91,3.04-4.57,4.13-8.55,2.58-3.86-1.5-6.32-4.87-5.33-8,.78-2.47,5.24-3.46,8.61-2.09,3.8,1.55,6.14,4.76,5.27,7.51Z"/>
          <path d="M350.73,769.25c-3.91-1.02-6.2-5.17-5.42-7.66.86-2.73,4.57-3.73,8.51-2.24,4.09,1.55,6.22,4.63,5.29,7.66-.88,2.85-4.32,3.77-8.38,2.24Z"/>
          <path d="M494.11,563.33c3.3,1.24,5.01,3.66,4.41,5.99-.65,2.55-4.15,3.05-6.97,2-3.17-1.18-5.04-4.01-4.28-6.24.77-2.26,3.52-3,6.84-1.75Z"/>
          <path d="M347.18,593.56c.63-2.05,3.13-2.77,5.93-1.72,3.03,1.14,4.81,3.5,4.16,5.52-.62,1.94-3.49,2.79-6.12,1.81-3.13-1.17-4.67-3.34-3.98-5.6Z"/>
          <path d="M499.84,738.87c-1.27,3.2-4.42,3.78-8.47,2.52-3.71-1.16-6.27-4.86-5.46-7.46.9-2.87,4.75-4.05,8.55-2.62,3.73,1.4,6.22,4.89,5.38,7.56Z"/>
          <path d="M381.62,563.38c3.16,1.2,5.01,3.84,4.3,6.12-.65,2.08-3.82,3.01-6.65,1.96-3.45-1.29-5.31-3.94-4.5-6.4.7-2.12,3.71-2.86,6.85-1.67Z"/>
          <path d="M437.75,563.66c3.01,1.03,4.53,3.71,3.89,5.53-.74,2.13-3.53,2.65-6.05,1.68-2.94-1.13-4.62-3.87-4.04-5.67.53-1.65,3.41-2.92,6.2-1.54Z"/>
          <path d="M378.87,740.6c-3.57-1.29-5.45-4.42-4.66-6.8.74-2.23,3.84-3.35,7.69-1.99,2.82,1,5.72,4.41,4.71,6.83-1.07,2.55-4,3.45-7.73,1.96Z"/>
          <path d="M435.12,741.11c-3.82-1.44-6.27-4.73-5.46-7.36.92-2.99,5.15-3.68,8.23-2.6,4.11,1.43,6.41,4.92,5.72,7.6-.74,2.85-5.07,4.04-8.49,2.36Z"/>
          <path d="M325.39,731.67c3.36,1.26,5.65,4.32,4.95,6.64-.73,2.41-4.28,3.56-7.42,2.39-3.4-1.27-5.83-4.31-5.1-6.86.69-2.41,4.24-3.41,7.57-2.16Z"/>
          <path d="M328.44,457.52c-.57,1.19-2.97,1.98-5.63.36-2.4-1.47-3.91-3.96-3.14-5.66.65-1.42,3.39-1.81,5.92-.27,2.28,1.39,3.65,3.76,2.85,5.57Z"/>
          <path d="M293.57,757.31c4.99-1.75,10.36-.07,11.45,3.84,1.19,4.3-.95,7.59-6.57,9.88-4.9,1.99-10.61-.22-11.67-3.72-1.19-3.91,1.54-8.42,6.79-10.01Z"/>
          <path d="M347.17,649.72c.67-2.25,3.97-2.39,6.25-1.5,2.53,1,4.42,3.63,3.74,5.51-.73,2.02-3.84,2.57-6.02,1.66-2.94-1.23-4.7-3.48-3.97-5.68Z"/>
          <path d="M353.55,704.06c3.04,1.24,4.96,4.01,4.22,6.08-.86,2.42-3.31,3.13-6.98,1.78-3.29-1.21-4.7-3.57-4.11-6,.52-2.16,3.93-3,6.87-1.86Z"/>
          <path d="M550.73,619.18c3.12,1.19,5.44,4.39,4.67,6.51-1.03,2.85-4.34,3.36-7.7,2.27-2.94-.96-5.66-4.9-4.74-6.79,1.19-2.46,4.36-3.28,7.77-1.99Z"/>
          <path d="M522.51,591.03c2.93,1.08,5.51,4.43,4.83,6.42-1.01,2.99-4.18,3.52-7.74,2.38-3.04-.97-5.58-4.66-4.77-6.61,1.2-2.86,4.4-3.31,7.68-2.19Z"/>
          <path d="M522.35,703.41c4.53,1.75,6.33,4.71,5.45,7.43-.87,2.68-4.05,3.74-8.37,2.15-3.94-1.45-6.03-5.11-5.22-7.36.98-2.73,4.49-3.85,8.14-2.22Z"/>
          <path d="M402.69,705.94c.8-2.57,3.55-3.21,7.25-1.95,3.52,1.19,5.48,4.59,4.78,6.26-1.09,2.61-3.54,3.67-7.47,2.37-3.51-1.16-5.73-4.76-4.56-6.67Z"/>
          <path d="M542.67,677.63c.35-2.5,4.29-3.89,8.32-2.31,3.78,1.48,5.65,4.74,5.12,7.17-.58,2.66-5.03,3.83-8.65,2.23-3.54-1.56-5.86-4.92-4.79-7.09Z"/>
          <path d="M463.57,599.11c-3.63-1.4-4.73-3.76-4.38-5.84.34-2.06,4.12-2.94,6.97-1.86,2.62.99,4.72,4.07,4.11,6.02-.65,2.09-3.64,2.84-6.7,1.69Z"/>
          <path d="M407.27,599.46c-2.74-1.03-5.04-4.14-4.42-5.97.65-1.91,3.95-2.95,6.48-2.04,3.07,1.11,5.46,4.24,4.73,6.2-.68,1.83-4.22,2.78-6.79,1.81Z"/>
          <path d="M381.41,620.01c3.12,1.18,4.73,3.39,4.05,5.57-.64,2.07-3.8,3.16-6.39,2.2-2.89-1.07-5.21-4.15-4.51-6.14.71-2.02,4.07-3.08,6.85-1.63Z"/>
          <path d="M385.45,681.95c-.71,2.26-3.64,3.21-6.54,2.11-2.73-1.03-4.97-4.31-4.28-6.25.68-1.91,3.7-2.64,6.52-1.58,3.39,1.28,5.01,3.43,4.3,5.72Z"/>
          <path d="M458.34,705.6c.85-2.64,4.19-3.52,7.97-2.08,3.73,1.41,6.13,4.68,5.29,7.22-.84,2.52-4.86,3.63-8.34,2.29-3.67-1.41-5.81-4.65-4.93-7.42Z"/>
          <path d="M522.42,647.01c4.15,1.61,6.08,4.23,5.24,7.45-.59,2.25-4.22,3.4-7.99,1.92-3.59-1.41-5.92-4.51-5.16-7.04.86-2.86,4.01-3.79,7.91-2.33Z"/>
          <path d="M491.46,684.55c-3.61-1.35-5.88-4.51-5.09-7.07.81-2.63,4.37-3.53,8.15-2.18,2.96,1.06,5.66,4.49,4.96,7.05-.61,2.24-5.09,3.66-8.02,2.21Z"/>
          <path d="M498.71,625.74c-.23,2.18-4.42,3.07-6.95,2.14-2.67-.98-5.58-4.53-4.85-6.6.66-1.88,4.52-3.1,7.3-1.93,2.63,1.11,5.52,4,4.5,6.39Z"/>
          <path d="M437.92,675.72c3.08,1.16,5.18,4.1,4.54,6.33-.7,2.45-4.46,3.13-7.3,2.03-3.05-1.18-5.22-4.48-4.44-6.46.87-2.22,3.95-3.12,7.2-1.9Z"/>
          <path d="M407.33,655.54c-2.6-.67-4.79-4.04-4.21-5.76.56-1.67,3.35-2.96,6.47-1.81,2.86,1.06,4.79,3.77,4.13,5.8-.64,1.98-3.62,2.8-6.39,1.76Z"/>
          <path d="M431.4,621.45c.52-1.81,3.7-2.6,6.38-1.59,2.71,1.02,4.75,3.73,4.09,5.68-.79,2.29-3.42,2.91-6.42,1.8-2.75-1.02-4.71-3.22-4.05-5.88Z"/>
          <path d="M470.56,654.1c-1,2.24-3.82,3.05-6.79,1.94-3.93-1.47-5.55-3.63-4.8-6.34.74-2.7,3.52-3.4,7.25-1.93,3.31,1.31,4.79,3.45,4.33,6.32Z"/>
          <path d="M470.28,824.68c-.89,1.89-4.33,2.16-7.17.41-3.27-2.02-4.46-4.37-3.82-6.67.53-1.93,4.51-2.29,6.97-.81,3.18,1.9,4.97,5.06,4.02,7.08Z"/>
          <path d="M494.57,789.79c2.95,1.76,4.6,4.84,3.7,6.91-.8,1.82-4.56,2.1-7.19.36-3.28-2.17-4.55-4.84-3.68-6.92.81-1.93,4.36-2.03,7.17-.35Z"/>
          <path d="M442.25,796.68c-.76,1.76-4.56,1.94-7.3.17-2.78-1.8-4.25-4.49-3.51-6.22,1.02-2.37,4.05-2.84,6.98-1.09,3.06,1.83,4.75,4.98,3.82,7.14Z"/>
          <path d="M522.8,817.83c2.84,1.63,4.61,4.8,3.83,6.82-.76,1.95-4.39,2.17-7.25.45-2.77-1.67-4.25-4.45-3.65-6.34.92-2.89,4.23-2.27,7.08-.93Z"/>
          <path d="M491.34,853.01c-2.75-1.28-4.57-4.85-3.67-6.58.9-1.72,3.46-2.58,6.98-.54,3.44,2,4.56,4.49,3.75,6.73-.67,1.84-3.89,2.39-7.05.38Z"/>
          <path d="M410.34,818.17c2.91,1.7,4.72,4.69,3.73,6.5-1.14,2.08-3.74,2.32-7.12.58-2.67-1.37-4.44-4.8-3.59-6.64.95-2.06,3.89-2.25,6.98-.44Z"/>
          <path d="M550.78,846.17c2.95,1.73,4.47,4.49,3.55,6.45-.97,2.06-3.87,2.24-6.9.52-2.61-1.49-4.55-4.5-3.6-6.62.84-1.88,4.57-2.1,6.95-.36Z"/>
          <path d="M438.14,846.08c3.25,1.91,4.63,4.38,3.63,6.51-.93,1.97-3.86,2.25-6.65.64-3.02-1.75-4.58-4.68-3.78-6.76.73-1.87,4.12-2.2,6.8-.39Z"/>
          <path d="M385.53,852.77c-.74,1.65-3.5,2.1-6.8.33-2.63-1.42-4.47-4.8-3.53-6.51,1.04-1.9,3.85-2.1,6.87-.4,2.41,1.35,4.62,4.3,3.47,6.59Z"/>
          <path d="M553.99,796.4c-1.15,2.36-4,2.11-6.78.43-2.62-1.59-4.37-4.16-3.33-6.47.79-1.75,4.21-1.93,6.79-.26,2.92,1.89,4.25,4.27,3.32,6.3Z"/>
          <path d="M385.54,796.44c-1.21,2.01-3.89,1.92-6.76.42-2.58-1.35-4.43-4.99-3.53-6.67.85-1.6,4.43-1.72,6.91-.24,2.65,1.58,4.25,4.65,3.38,6.49Z"/>
          <path d="M322.49,852.87c-3.47-2-4.1-4.43-3.55-6.44.48-1.74,4.31-1.88,6.66-.45,3.06,1.86,4.72,4.91,3.45,6.8-1.01,1.51-3.17,2.13-6.56.09Z"/>
          <path d="M353.81,818.38c2.99,1.75,4.56,4.37,3.74,6.25-.86,1.96-4.27,2.17-7.09.45-2.62-1.6-4.21-4.73-3.13-6.54.93-1.57,3.87-1.92,6.49-.15Z"/>
          <path d="M291.12,818.82c.43-1.94,3.77-2.16,6.6-.4,2.71,1.69,4.25,4.53,3.33,6.43-.76,1.56-4.23,1.68-6.65.24-2.72-1.62-4.16-4.39-3.28-6.27Z"/>
          <path d="M328.92,796.37c-.63,1.32-3.3,2.2-6.25.4-2.67-1.63-4.35-4.4-3.49-6.29.72-1.58,3.77-2.01,6.58-.3,2.53,1.54,4.05,4.18,3.16,6.19Z"/>
          <path d="M648.72,479.77c.76.7,1.51,1.4,2.27,2.11,1.68,1.56,1.7,3.03.05,4.02-1.06.64-2.13,1.27-3.19,1.9-2.1,1.25-5.52.63-7.7-1.39-.54-.5-1.08-1-1.62-1.51-2.52-2.34-2.57-4.86-.12-6.32.99-.59,1.98-1.19,2.98-1.77,1.55-.9,3.55-.56,5.06.84.76.7,1.51,1.41,2.27,2.11Z"/>
          <path d="M648.69,535.86c.65.85,1.7,1.86,2.19,2.93.87,1.9-.66,4.22-2.3,4.84-2.49.94-5.17.92-8.02-.86-2.84-1.78-4.28-4.72-3.32-6.78,1.03-2.22,5.43-3.51,8.46-2.31,1.02.4,1.84,1.3,3,2.17Z"/>
          <path d="M269.83,508.49c2.37,2.2,2.54,5.02.25,6.3-2.77,1.55-6.37,1-8.98-1.3-2.13-1.89-2.92-5.29.28-6.89,2.65-1.33,5.58-.78,8.45,1.89Z"/>
          <path d="M270.31,452.16c3.2,2.17,2.47,5.88.03,7.24-2.36,1.31-6.55,1.1-9.64-1.69-2.96-2.67-2.6-5.66.03-7.45,1.95-1.33,6.81-1.34,9.58,1.9Z"/>
          <path d="M233.15,479.19c2.19-1.53,6.04-.71,8.48,1.53,2.21,2.02,2.24,5.39-.04,6.46-2.49,1.17-5.91.82-8.57-1.62-2.3-2.11-2.22-4.97.13-6.36Z"/>
          <path d="M241.34,542.75c-1.77,1.21-5.78.58-7.88-1.34-2.46-2.25-2.45-5-.16-6.32,2.29-1.31,5.62-.83,8.14,1.49,2.13,1.96,2.25,4.69-.11,6.16Z"/>
          <path d="M269.11,564.8c2.3,2.14,1.41,4.57-.17,5.29-2.06.94-5.6.3-7.14-1.32-1.72-1.82-1.66-4.64.17-5.47,2.41-1.09,5.84-.21,7.13,1.5Z"/>
          <path d="M177.4,485.41c-2.73-2.5-2.24-4.54-.27-6.04,1.77-1.34,5.77-.59,7.82,1.37,2.42,2.32,2.2,4.56.2,5.88-2,1.32-5.74.91-7.74-1.22Z"/>
          <path d="M648.14,592.51c2.38,2.23,2.39,5.33,0,6.69-2.02,1.15-6.58.4-8.37-1.5-2.26-2.4-2.91-5.03.08-6.74,2.22-1.27,6-.58,8.28,1.55Z"/>
          <path d="M177.58,541.03c-1.85-1.73-1.8-4.29.1-5.33,1.67-.91,5.26-.26,6.84,1.28,1.62,1.59,2.03,4.22-.05,5.36-2.21,1.21-5.35.28-6.89-1.31Z"/>
          <path d="M206.1,564.24c1.85-1.16,4.46-.4,5.97,1.02,1.77,1.67,1.61,3.56.02,4.53-1.66,1.01-4.3.52-5.88-.93-1.49-1.37-1.95-3.92-.11-4.62Z"/>
          <path d="M121.57,541.09c-2.1-2.05-1.61-3.97-.07-5.06,1.51-1.08,5.02-.45,6.62,1.19,1.83,1.87,2.05,3.89,0,5.09-1.9,1.11-4.69.58-6.55-1.23Z"/>
          <path d="M155.65,565.4c1.56,1.45,1.52,3.59-.17,4.46-1.31.68-4.06.46-5.73-1.17-1.57-1.53-1.72-3.65-.05-4.46,1.58-.77,3.83-.88,5.95,1.17Z"/>
          <path d="M671.61,572.3c-3.81-1.23-6.27-4.99-5.45-7.47.91-2.77,3.95-4.12,8.58-2.45,4.47,1.61,6.49,4.9,5.55,7.94-.77,2.5-4.22,3.66-8.68,1.99Z"/>
          <path d="M666.59,676.94c.84-2.71,4.41-3.59,8.41-2.12,3.8,1.4,5.96,4.45,5.44,7.56-.43,2.58-5.03,3.87-8.51,2.41-3.8-1.59-6.72-5.1-5.34-7.86Z"/>
          <path d="M121.39,485.16c-2.19-1.82-2.07-4.16-.22-5.3,1.89-1.16,5.11-.83,7.22,1.27,1.89,1.88,1.89,4.15-.15,5.36-1.83,1.08-4.91.48-6.85-1.32Z"/>
          <path d="M92.76,513.52c-2.25-1.77-2.18-4.66-.09-5.76,2.4-1.26,5.61-.86,7.82,1.28,2.19,2.13,2.21,4.46.26,5.77-2.24,1.51-5.64.89-7.99-1.29Z"/>
          <path d="M93.24,569.47c-2.02-1.88-2.29-4.34-.3-5.32,2.19-1.08,4.64-.86,7.11,1.17,1.97,1.61,1.96,4.42,0,5.4-2.45,1.24-5.4.31-6.8-1.25Z"/>
          <path d="M708.25,654.1c-.34,2.29-4.1,3.93-8.24,2.44-3.6-1.29-6.17-4.95-5.4-7.33.85-2.61,4.89-3.96,8.33-2.5,3.83,1.62,6.16,4.44,5.31,7.39Z"/>
          <path d="M708.22,598.09c-.41,2.35-3.58,3.82-8.12,2.28-3.64-1.23-6.18-5.02-5.36-7.62.72-2.28,5.21-3.57,8.42-2.16,3.59,1.58,6.06,4.46,5.05,7.5Z"/>
          <path d="M72.34,542.76c-2.01,1.52-5.44.68-7.49-1.23-2.01-1.87-2.14-4.77-.26-5.92,2-1.22,5.65-.63,7.82,1.28,2.15,1.88,2.12,4.57-.08,5.87Z"/>
          <path d="M234.55,596.82c-1.62-1.51-1.62-3.32-.09-4.3,1.58-1,4.04-.34,5.72,1.05,1.41,1.17,1.35,3.52-.08,4.2-1.85.87-4,.47-5.56-.95Z"/>
          <path d="M695.11,536.8c.84-2.68,4.27-3.58,8.18-2.13,3.43,1.27,5.97,4.78,4.93,7.26-1.23,2.92-3.97,3.82-8.07,2.25-4.45-1.7-6.16-5.14-5.04-7.38Z"/>
          <path d="M668.91,508.44c.8-1.71,3.52-1.92,5.97-.46,2.8,1.67,4.2,4.31,3.28,6.19-.73,1.49-3.94,1.76-6.12.32-2.41-1.59-4.33-4.05-3.14-6.05Z"/>
          <path d="M127.3,593.62c1.73,1.77,1.42,3.2.06,4.19-1.32.95-4.06.4-5.57-1.02-1.47-1.38-1.54-3.41-.02-4.18,1.98-1,4.35-.28,5.52,1.01Z"/>
          <path d="M585.78,534.51c3.62,1.36,5.94,4.59,5.15,7.17-.8,2.62-4.5,3.64-8.16,2.26-3.61-1.37-5.87-4.69-5.02-7.36.79-2.47,4.44-3.41,8.02-2.06Z"/>
          <path d="M43.95,565.16c2,1.86,2.05,4.49.11,5.64-2.08,1.23-5.77.66-7.63-1.3-1.83-1.93-2.37-4.32.13-5.77,2.06-1.2,5.22-.59,7.39,1.44Z"/>
          <path d="M69.81,591.21c3.11.94,5.29,4.18,4.4,6.42-1.07,2.7-3.86,3.05-7.42,1.88-3-.98-5.25-4.4-4.39-6.52.75-1.85,3.67-3.39,7.41-1.77Z"/>
          <path d="M183.25,597.34c-1.47,1.03-3.62.35-4.9-.91-1.48-1.45-1.36-2.64.02-3.66,1.12-.84,3.67-.36,4.88.82,1.24,1.21,1.59,3.1,0,3.76Z"/>
          <path d="M790.77,513.91c-.67,1.48-3.15,1.89-6.12.3-2.37-1.27-4.02-4.32-3.18-5.86.93-1.71,3.47-1.89,6.18-.36,2.17,1.22,4.16,3.87,3.12,5.93Z"/>
          <path d="M723.21,564.75c.71-2.37,4.22-3.58,7.85-2.18,4.28,1.66,5.82,4.42,5.33,7.08-.48,2.6-4.9,3.69-8.32,2.29-3.37-1.38-5.61-4.7-4.85-7.18Z"/>
          <path d="M666.24,733.15c.89-2.84,4.88-3.89,8.99-2.28,4.13,1.63,6.13,4.78,5.6,7.89-.43,2.56-5.27,3.93-8.84,2.46-4.64-1.91-6.45-5.04-5.76-8.08Z"/>
          <path d="M585.67,480.12c3.01,1.62,3.82,3.92,3.28,5.69-.54,1.79-3.57,1.84-6.11.49-2.25-1.2-3.97-4.51-3.29-5.84.69-1.36,3.33-2.23,6.11-.33Z"/>
          <path d="M695.12,705.31c.99-2.4,4.03-3.48,8.02-2.08,3.41,1.2,5.99,4.93,5.12,7.25-.84,2.24-4.75,3.37-7.94,2.09-3.98-1.59-5.92-4.68-5.2-7.27Z"/>
          <path d="M790.77,457.59c-1.09,1.81-3.5,1.73-6.09.38-2.32-1.22-3.99-4.49-3.17-6,.77-1.44,3.99-1.55,6.22-.21,2.39,1.42,3.82,4.19,3.04,5.84Z"/>
          <path d="M728.4,513.99c-3.12-1.8-3.69-3.99-3.2-5.79.43-1.56,3.88-1.69,5.99-.41,2.75,1.67,4.25,4.41,3.11,6.12-.91,1.36-2.85,1.91-5.9.08Z"/>
          <path d="M606.22,564.93c.76-2.57,4.36-3.7,7.66-2.42,3.71,1.44,6,4.65,5.26,7.36-.64,2.33-4.95,3.53-8.23,1.99-3.34-1.57-5.56-3.95-4.68-6.92Z"/>
          <path d="M759.42,480.16c2.69,1.58,4.1,3.94,3.36,5.62-.77,1.76-3.84,1.96-6.38.4-2.35-1.44-3.79-4.26-2.82-5.89.84-1.41,3.48-1.73,5.84-.14Z"/>
          <path d="M11.01,600.25c-4.23-1.83-5.99-4.28-5.45-7.21.46-2.53,4.32-3.48,7.83-2.23,3.65,1.3,6.04,4.58,5.21,7.14-.74,2.28-4.48,3.41-7.6,2.29Z"/>
          <path d="M613.77,508.3c2.66,1.56,3.8,3.73,3,5.57-.93,2.13-3.56,1.78-5.92.49-2.28-1.25-4-4.31-3.2-5.72.91-1.61,3.4-2.09,6.12-.34Z"/>
          <path d="M8.01,535.5c2.04-1.28,5.89-.67,8.21,1.29,2.22,1.87,2.37,5.19.07,6.34-2.48,1.24-5.22.84-7.58-1.08-3.14-2.55-2.72-4.93-.69-6.55Z"/>
          <path d="M764.05,541.63c-.77,2.47-4.51,3.65-7.59,2.39-3.46-1.41-6-5.04-5.16-7.37.78-2.17,4.93-3.27,7.99-1.96,3.77,1.61,5.83,4.82,4.76,6.94Z"/>
          <path d="M262.98,624.62c-1.3-1.37-1.35-2.76.12-3.62,1.46-.86,3.33-.29,4.63.83,1.36,1.17,1.29,2.98.02,3.73-1.22.72-3.5.27-4.77-.93Z"/>
          <path d="M605.57,733.7c.93-2.99,4.35-3.88,8.54-2.39,3.84,1.36,6.33,5.06,5.39,7.64-1.21,3.33-4.89,3.93-8.86,2.33-3.79-1.53-6.09-4.51-5.06-7.58Z"/>
          <path d="M44,508.9c2.71,2.33,2.5,4.79.09,6.21-2.13,1.25-5.76.61-7.82-1.44-2.31-2.31-2.44-4.78-.08-6.17,2.26-1.32,5.5-.74,7.81,1.41Z"/>
          <path d="M697.37,480.55c.39-1.75,3.4-1.95,5.94-.36,2.44,1.52,3.83,4.08,3,5.79-.68,1.4-3.8,1.52-5.98.22-2.44-1.46-3.75-3.95-2.95-5.65Z"/>
          <path d="M728.29,684.26c-3.53-1.33-5.77-4.36-5.05-6.84.68-2.35,4.59-3.56,7.88-2.22,3.67,1.49,5.63,4.54,4.9,6.97-.73,2.44-4.8,3.69-7.73,2.09Z"/>
          <path d="M590.52,597.72c-.26,2.42-4.14,3.53-7.68,2.09-3.47-1.41-5.42-4.22-4.83-6.81.54-2.35,3.84-3.65,7.66-2.25,3.83,1.41,5.82,4.38,4.84,6.97Z"/>
          <path d="M650.44,653.64c-1.13,2.95-4.01,3.57-7.87,2.35-3.12-.99-5.75-4.75-5.05-6.87.79-2.38,4.52-3.59,7.67-2.34,3.98,1.58,5.81,4.51,5.26,6.85Z"/>
          <path d="M64.84,479.72c1.96-1.14,4.98-.59,6.97,1.3,2.47,2.34,2.04,4.16.02,5.69-1.42,1.08-5.29.22-7.06-1.46-1.92-1.82-1.89-4.39.07-5.53Z"/>
          <path d="M45.74,625.67c-.71,2.27-3.61,3.07-6.8,1.88-3.21-1.2-5.1-3.8-4.44-6.04.77-2.59,3.61-3.31,6.9-2.12,3.34,1.2,5.37,4.22,4.34,6.28Z"/>
          <path d="M91.35,621.47c.73-2.42,3.49-2.76,6.17-1.76,2.65.99,4.63,3.1,3.94,5.55-.56,2-3.43,2.88-6.38,1.72-2.52-.99-4.58-3.31-3.74-5.51Z"/>
          <path d="M756.49,769.25c-3.91-1.02-6.2-5.17-5.42-7.66.86-2.73,4.57-3.73,8.51-2.24,4.09,1.55,6.22,4.63,5.29,7.66-.88,2.85-4.32,3.77-8.38,2.24Z"/>
          <path d="M751.76,593.11c.78-2.53,3.86-3.42,7.32-2.13,3.74,1.4,5.94,4.32,5.14,6.81-.77,2.39-4.31,3.44-7.56,2.23-3.87-1.44-5.77-4.12-4.91-6.92Z"/>
          <path d="M787.52,562.94c3.51,1.33,5.57,4.26,4.78,6.8-.72,2.32-4.24,3.35-7.39,2.17-3.84-1.43-5.9-4.38-5-7.12.78-2.36,4.13-3.17,7.61-1.85Z"/>
          <path d="M10.33,769.22c-3.46-.84-6.17-5.14-5.38-7.36,1.09-3.06,4.84-3.83,8.33-2.54,4.24,1.56,6.29,4.73,5.57,7.53-.66,2.6-4.2,4.17-8.53,2.37Z"/>
          <path d="M613.83,619.14c3.57,1.35,5.58,4.27,4.76,6.92-.67,2.14-4.41,3.19-7.39,2.04-3.58-1.38-5.74-4.78-5.01-6.97.83-2.49,4.02-3.36,7.64-1.99Z"/>
          <path d="M784.45,741.08c-3.97-1.44-6.05-4.91-5.18-7.56.82-2.47,4.27-3.72,8.54-2.21,3.13,1.11,6.35,4.9,5.23,7.59-1.18,2.84-4.44,3.84-8.59,2.18Z"/>
          <path d="M672.31,457.93c-2.45-1.15-3.94-3.98-3.11-5.57.79-1.52,3.58-1.85,5.81-.38,2.43,1.6,3.78,3.67,2.96,5.69-.63,1.56-3.3,1.64-5.66.26Z"/>
          <path d="M731.29,731.17c3.74,1.4,6.28,4.8,5.51,7.37-.81,2.68-4.76,3.95-8.25,2.65-3.78-1.41-6.47-4.79-5.67-7.62.77-2.68,4.71-3.79,8.41-2.41Z"/>
          <path d="M734.19,457.52c-.57,1.19-2.97,1.98-5.63.36-2.4-1.47-3.91-3.96-3.14-5.66.65-1.42,3.39-1.81,5.92-.27,2.28,1.39,3.65,3.76,2.85,5.57Z"/>
          <path d="M699.32,757.31c4.99-1.75,10.36-.07,11.45,3.84,1.19,4.3-.95,7.59-6.57,9.88-4.9,1.99-10.61-.22-11.67-3.72-1.19-3.91,1.54-8.42,6.79-10.01Z"/>
          <path d="M591.24,710.59c-.92,2.73-4.74,3.8-8.42,2.37-3.65-1.42-6.26-5.11-5.4-7.65.86-2.54,5.04-3.61,8.6-2.2,3.54,1.4,6.06,5.01,5.22,7.48Z"/>
          <path d="M751.75,649.24c.83-2.78,4.9-2.96,7.72-1.85,3.13,1.23,5.46,4.48,4.62,6.8-.9,2.5-4.74,3.18-7.44,2.05-3.63-1.51-5.8-4.3-4.9-7.01Z"/>
          <path d="M759.45,703.61c3.37,1.38,5.51,4.45,4.69,6.76-.96,2.69-3.68,3.48-7.76,1.98-3.65-1.34-5.22-3.97-4.56-6.67.58-2.4,4.36-3.33,7.64-2.07Z"/>
          <path d="M13.44,647.29c3.57,1.53,5.51,4.36,4.76,6.68-.89,2.76-4.46,3.36-7.51,2.22-3.33-1.24-5.76-4.76-4.84-7.01.98-2.42,4.36-3.02,7.59-1.89Z"/>
          <path d="M151.65,626.1c-2.27-.67-3.44-2.97-2.99-4.33.51-1.53,2.61-2.23,4.95-1.27,2.52,1.03,3.63,2.86,3.14,4.38-.47,1.47-2.42,2.25-5.1,1.22Z"/>
          <path d="M590.59,654.04c-1.21,2.57-3.82,3.34-7.79,2.08-2.89-.92-5.51-4.65-4.62-6.67,1.06-2.4,3.94-3.39,7.32-2.19,3.54,1.26,5.56,4.21,5.1,6.79Z"/>
          <path d="M206.66,621.27c1.25-.74,3.43-.34,4.72.88,1.02.97.92,2.67-.17,3.34-1.2.73-3.29.45-4.47-.69-1.22-1.19-1.53-2.61-.08-3.53Z"/>
          <path d="M66.94,655.32c-2.94-.92-4.65-3.63-4.24-5.78.39-2.06,3.98-3.07,6.68-1.98,3.44,1.39,5.01,4.01,4.35,6.11-.67,2.14-3.43,3-6.79,1.65Z"/>
          <path d="M610.21,452.53c1.78-.61,3.4.32,4.47,1.59,1.27,1.51,1.05,2.87-.32,3.41-1.22.48-3.49-.36-4.54-1.68-.84-1.05-1.25-2.94.39-3.32Z"/>
          <path d="M10.32,712.21c-2.57-.94-5.21-4.57-4.62-6.35.76-2.3,4.36-3.48,7.41-2.42,3.21,1.11,5.93,4.62,4.96,6.81-1.07,2.43-3.37,3.3-7.75,1.96Z"/>
          <path d="M8.3,479.63c2.39-1.46,5.68-.56,7.55,1.16,2.09,1.92,2.2,4.52.45,5.66-2.19,1.42-5.95,1.01-7.84-.86-2.39-2.36-2.2-4.69-.16-5.96Z"/>
          <path d="M787.31,619.6c3.47,1.31,5.25,3.76,4.5,6.19-.71,2.3-4.22,3.51-7.1,2.44-3.21-1.19-5.79-4.62-5.01-6.82.79-2.24,4.52-3.42,7.61-1.82Z"/>
          <path d="M791.8,682.15c-.79,2.51-4.04,3.56-7.27,2.35-3.03-1.14-5.52-4.79-4.75-6.94.76-2.12,4.11-2.94,7.25-1.76,3.77,1.42,5.57,3.81,4.77,6.36Z"/>
          <path d="M34.35,733.78c.27-1.83,4.23-3.12,7.37-1.73,2.98,1.32,4.91,4.22,4.23,6.59-.5,1.76-4.27,2.9-7.29,1.71-2.85-1.13-5.45-4.46-4.31-6.56Z"/>
          <path d="M120.25,650.12c.53-1.72,2.76-2.31,5.17-1.49,2.16.73,3.98,3.11,3.4,4.65-.61,1.62-3.12,2.42-5.28,1.45-2.54-1.15-3.85-3.08-3.29-4.61Z"/>
          <path d="M43.76,452.61c2.09,1.93,2.18,4.44.2,5.64-2.11,1.28-5.23.73-7.58-1.33-1.73-1.52-1.84-4.53.06-5.47,2.15-1.06,5.33-.79,7.32,1.16Z"/>
          <path d="M100.7,681.33c-.65,2.09-2.54,2.63-5.42,1.54-2.78-1.05-4.36-3.17-3.74-5.03.59-1.77,3.24-2.5,5.68-1.57,2.69,1.03,4.1,3.08,3.49,5.06Z"/>
          <path d="M73.66,766.39c-.74,2.4-3.54,3.4-6.69,2.14-3.48-1.4-5.22-3.77-4.6-6.4.53-2.22,4.19-3.24,7.11-1.91,2.74,1.25,5.08,3.43,4.18,6.17Z"/>
          <path d="M642.66,712.26c-3.79-1.42-5.85-4.24-4.95-6.9.85-2.52,4.16-3.4,7.69-2.06,3.78,1.44,5.6,4.55,4.87,6.83-.83,2.62-3.96,3.49-7.61,2.12Z"/>
          <path d="M233.55,650.12c.33-1.73,2.66-1.87,4.61-1.21,1.74.59,3.23,2.7,2.75,3.91-.69,1.74-2.44,2.08-4.61,1.31-1.67-.59-3.54-2.49-2.75-4.01Z"/>
          <path d="M177.12,650.22c.35-1.73,2.51-2.03,4.31-1.34,2.05.79,3.51,2.4,2.92,3.98-.56,1.49-2.41,2.09-4.46,1.3-1.62-.63-3.67-2.64-2.77-3.94Z"/>
          <path d="M269.67,681.36c-.56,1.81-3.01,2.55-5.36,1.62-2.22-.88-4.11-3.33-3.51-4.82.64-1.57,2.45-2.69,5.55-1.55,2.26.83,4.19,3.21,3.32,4.74Z"/>
          <path d="M649.76,766.49c-.85,2.75-3.55,3.53-7.25,2.17-3.04-1.12-5.66-4.3-4.86-6.71.83-2.53,4.63-3.09,7.4-2.06,2.73,1.02,6.12,4.22,4.71,6.6Z"/>
          <path d="M97.36,732.61c2.48.94,4.53,3.65,4.02,5.31-.56,1.81-3.67,2.85-6.03,1.76-2.75-1.28-4.57-2.97-3.81-5.4.68-2.2,3.22-2.31,5.82-1.67Z"/>
          <path d="M153.56,676.96c2.06.77,3.64,2.83,3.12,4.3-.54,1.5-2.53,2.15-5.01,1.34-1.82-.59-3.55-3.07-2.91-4.28.82-1.56,2.11-2.24,4.81-1.37Z"/>
          <path d="M120.11,706.29c.53-1.51,3.38-2.27,5.46-1.44,2.15.85,3.9,3.37,3.37,4.85-.53,1.47-3.3,2.23-5.37,1.47-2.1-.77-3.97-3.41-3.46-4.88Z"/>
          <path d="M212.65,681.18c-.48,1.53-2.31,2.04-4.42,1.25-1.81-.68-3.62-2.28-3.03-4.23.45-1.48,2.66-1.95,4.57-1.33,1.56.5,3.9,2.84,2.88,4.31Z"/>
          <path d="M123.29,767.89c-3.09-1.16-4.53-3.26-3.81-5.55.7-2.23,3.06-2.88,6.2-1.7,3.04,1.14,4.66,3.4,3.99,5.56-.69,2.24-3.16,2.89-6.38,1.68Z"/>
          <path d="M241.68,709.62c-.76,2.11-2.89,2.6-5.55,1.63-2.48-.9-4.11-2.92-3.59-5.1.39-1.64,3.32-2.28,5.73-1.37,2.5.94,3.99,3.05,3.41,4.85Z"/>
          <path d="M181.91,705.1c2.18.84,3.52,2.87,2.98,4.48-.47,1.42-2.97,2.11-4.99,1.35-2.27-.84-3.8-3.18-3.25-4.58.58-1.48,3.05-2.11,5.26-1.26Z"/>
          <path d="M153.76,732.48c2.57.95,4.59,3.76,4.02,5.58-.57,1.84-3.58,2.6-6.3,1.72-2.29-.74-4.61-3.9-3.92-5.59.73-1.79,3.6-2.67,6.2-1.71Z"/>
          <path d="M182.05,760.72c2.83,1.34,4.57,3.96,3.79,5.7-.79,1.76-4.07,2.47-6.34,1.38-2.55-1.22-4.35-4.02-3.53-5.48,1.07-1.9,3.89-2.64,6.08-1.6Z"/>
          <path d="M232.49,762.46c.62-2.01,3.42-2.87,5.95-1.83,2.55,1.05,4.43,3.74,3.86,5.52-.58,1.79-3.6,2.76-6.13,1.7-2.36-.99-4.55-3.06-3.68-5.39Z"/>
          <path d="M649.2,818.03c.84.78,1.68,1.56,2.52,2.34,1.87,1.74,1.89,3.36.06,4.47-1.18.71-2.37,1.41-3.55,2.11-2.33,1.39-6.14.7-8.55-1.54-.6-.56-1.2-1.12-1.8-1.67-2.8-2.61-2.85-5.4-.13-7.02,1.1-.66,2.2-1.32,3.31-1.97,1.72-1,3.94-.63,5.62.94.84.78,1.68,1.56,2.52,2.34Z"/>
          <path d="M270.85,846.5c2.92,2.72,3.13,6.2.31,7.78-3.43,1.92-7.87,1.24-11.08-1.6-2.63-2.33-3.61-6.53.34-8.51,3.27-1.64,6.89-.96,10.43,2.33Z"/>
          <path d="M270.85,790.42c3.56,2.41,2.75,6.54.03,8.04-2.62,1.45-7.27,1.23-10.71-1.87-3.28-2.96-2.89-6.29.03-8.28,2.17-1.47,7.56-1.49,10.65,2.11Z"/>
          <path d="M232.18,816.82c2.71-1.89,7.46-.87,10.47,1.88,2.73,2.5,2.77,6.65-.05,7.97-3.08,1.44-7.3,1.02-10.59-2-2.84-2.6-2.74-6.13.16-7.86Z"/>
          <path d="M213.57,790.98c2.63,2.57,2.31,5.29.2,6.76-2.13,1.49-6.97.68-9-1.47-2.56-2.72-2.58-5.25.03-6.79,2.56-1.52,6.01-.7,8.77,1.5Z"/>
          <path d="M176.54,824.52c-3.37-3.09-2.77-5.61-.33-7.45,2.19-1.66,7.12-.73,9.65,1.7,2.98,2.86,2.71,5.63.24,7.26-2.47,1.63-7.09,1.12-9.56-1.51Z"/>
          <path d="M148.75,789.48c2.29-1.32,6.5-.68,8.5,1.3,2.53,2.51,2.72,5.79.09,7.08-2.68,1.32-5.97.74-9.25-1.99-2.22-1.85-1.8-4.98.66-6.4Z"/>
          <path d="M120.6,824.2c-2.7-2.25-2.55-5.14-.27-6.55,2.33-1.43,6.3-1.02,8.91,1.56,2.34,2.32,2.34,5.13-.19,6.61-2.26,1.33-6.06.59-8.45-1.63Z"/>
          <path d="M92.33,852.31c-2.5-1.96-2.42-5.18-.09-6.4,2.66-1.4,6.24-.96,8.69,1.43,2.43,2.37,2.46,4.95.29,6.41-2.49,1.67-6.27.99-8.88-1.44Z"/>
          <path d="M668.4,846.68c.89-1.9,3.92-2.13,6.63-.51,3.11,1.86,4.67,4.79,3.65,6.88-.81,1.65-4.38,1.95-6.8.36-2.68-1.77-4.82-4.5-3.48-6.72Z"/>
          <path d="M791.29,852.77c-.74,1.65-3.5,2.1-6.8.33-2.63-1.42-4.47-4.8-3.53-6.51,1.04-1.9,3.85-2.1,6.87-.4,2.41,1.35,4.62,4.3,3.47,6.59Z"/>
          <path d="M585.83,818.34c3.35,1.8,4.24,4.36,3.65,6.32-.6,1.99-3.96,2.05-6.79.54-2.5-1.33-4.41-5.01-3.65-6.49.77-1.51,3.7-2.47,6.79-.37Z"/>
          <path d="M791.29,796.44c-1.21,2.01-3.89,1.92-6.76.42-2.58-1.35-4.43-4.99-3.53-6.67.85-1.6,4.43-1.72,6.91-.24,2.65,1.58,4.25,4.65,3.38,6.49Z"/>
          <path d="M728.24,852.87c-3.47-2-4.1-4.43-3.55-6.44.48-1.74,4.31-1.88,6.66-.45,3.06,1.86,4.72,4.91,3.45,6.8-1.01,1.51-3.17,2.13-6.56.09Z"/>
          <path d="M759.56,818.38c2.99,1.75,4.56,4.37,3.74,6.25-.86,1.96-4.27,2.17-7.09.45-2.62-1.6-4.21-4.73-3.13-6.54.93-1.57,3.87-1.92,6.49-.15Z"/>
          <path d="M613.94,846.53c2.96,1.73,4.22,4.15,3.33,6.19-1.03,2.37-3.95,1.98-6.57.55-2.54-1.39-4.44-4.79-3.55-6.36,1.01-1.78,3.78-2.32,6.8-.38Z"/>
          <path d="M44,847.46c2.71,2.33,2.5,4.79.09,6.21-2.13,1.25-5.76.61-7.82-1.44-2.31-2.31-2.44-4.78-.08-6.17,2.26-1.32,5.5-.74,7.81,1.41Z"/>
          <path d="M696.87,818.82c.43-1.94,3.77-2.16,6.6-.4,2.71,1.69,4.25,4.53,3.33,6.43-.76,1.56-4.23,1.68-6.65.24-2.72-1.62-4.16-4.39-3.28-6.27Z"/>
          <path d="M64.44,817.89c2.18-1.27,5.53-.65,7.74,1.44,2.74,2.6,2.26,4.63.03,6.33-1.58,1.2-5.87.25-7.85-1.63-2.13-2.02-2.1-4.88.08-6.15Z"/>
          <path d="M100.68,797.06c-1.89,1.44-5.69.96-7.79-1.07-2.29-2.21-2.61-5.07-.1-6.27,2.45-1.17,5.16-.93,7.95,1.55,1.91,1.7,2.46,4.52-.06,5.79Z"/>
          <path d="M672.17,796.81c-2.73-1.28-4.38-4.43-3.45-6.19.88-1.68,3.98-2.05,6.46-.42,2.7,1.78,4.2,4.07,3.29,6.32-.7,1.73-3.66,1.83-6.29.29Z"/>
          <path d="M734.68,796.37c-.63,1.32-3.3,2.2-6.25.4-2.67-1.63-4.35-4.4-3.49-6.29.72-1.58,3.77-2.01,6.58-.3,2.53,1.54,4.05,4.18,3.16,6.19Z"/>
          <path d="M609.72,790.5c2.2-.76,4.2.39,5.52,1.97,1.56,1.86,1.3,3.54-.4,4.22-1.5.6-4.31-.44-5.61-2.08-1.03-1.3-1.54-3.63.49-4.1Z"/>
          <path d="M8.3,818.18c2.39-1.46,5.68-.56,7.55,1.16,2.09,1.92,2.2,4.52.45,5.66-2.19,1.42-5.95,1.01-7.84-.86-2.39-2.36-2.2-4.69-.16-5.96Z"/>
          <path d="M43.76,791.16c2.09,1.93,2.18,4.44.2,5.64-2.11,1.28-5.23.73-7.58-1.33-1.73-1.52-1.84-4.53.06-5.47,2.15-1.06,5.33-.79,7.32,1.16Z"/>
        </g>
        <g>
          <path d="M491.34,2.01c-2.75-1.28-4.57-4.85-3.67-6.58.9-1.72,3.46-2.58,6.98-.54,3.44,2,4.56,4.49,3.75,6.73-.67,1.84-3.89,2.39-7.05.38Z"/>
          <path d="M550.78-4.83c2.95,1.73,4.47,4.49,3.55,6.45-.97,2.06-3.87,2.24-6.9.52-2.61-1.49-4.55-4.5-3.6-6.62.84-1.88,4.57-2.1,6.95-.36Z"/>
          <path d="M438.14-4.92c3.25,1.91,4.63,4.38,3.63,6.51-.93,1.97-3.86,2.25-6.65.64-3.02-1.75-4.58-4.68-3.78-6.76.73-1.87,4.12-2.2,6.8-.39Z"/>
          <path d="M385.53,1.77c-.74,1.65-3.5,2.1-6.8.33-2.63-1.42-4.47-4.8-3.53-6.51,1.04-1.9,3.85-2.1,6.87-.4,2.41,1.35,4.62,4.3,3.47,6.59Z"/>
          <path d="M322.49,1.87c-3.47-2-4.1-4.43-3.55-6.44.48-1.74,4.31-1.88,6.66-.45,3.06,1.86,4.72,4.91,3.45,6.8-1.01,1.51-3.17,2.13-6.56.09Z"/>
          <path d="M270.85-4.5c2.92,2.72,3.13,6.2.31,7.78-3.43,1.92-7.87,1.24-11.08-1.6-2.63-2.33-3.61-6.53.34-8.51,3.27-1.64,6.89-.96,10.43,2.33Z"/>
          <path d="M92.33,1.31c-2.5-1.96-2.42-5.18-.09-6.4,2.66-1.4,6.24-.96,8.69,1.43,2.43,2.37,2.46,4.95.29,6.41-2.49,1.67-6.27.99-8.88-1.44Z"/>
          <path d="M668.4-4.32c.89-1.9,3.92-2.13,6.63-.51,3.11,1.86,4.67,4.79,3.65,6.88-.81,1.65-4.38,1.95-6.8.36-2.68-1.77-4.82-4.5-3.48-6.72Z"/>
          <path d="M791.29,1.77c-.74,1.65-3.5,2.1-6.8.33-2.63-1.42-4.47-4.8-3.53-6.51,1.04-1.9,3.85-2.1,6.87-.4,2.41,1.35,4.62,4.3,3.47,6.59Z"/>
          <path d="M728.24,1.87c-3.47-2-4.1-4.43-3.55-6.44.48-1.74,4.31-1.88,6.66-.45,3.06,1.86,4.72,4.91,3.45,6.8-1.01,1.51-3.17,2.13-6.56.09Z"/>
          <path d="M613.94-4.47c2.96,1.73,4.22,4.15,3.33,6.19-1.03,2.37-3.95,1.98-6.57.55-2.54-1.39-4.44-4.79-3.55-6.36,1.01-1.78,3.78-2.32,6.8-.38Z"/>
          <path d="M44-3.54c2.71,2.33,2.5,4.79.09,6.21-2.13,1.25-5.76.61-7.82-1.44-2.31-2.31-2.44-4.78-.08-6.17,2.26-1.32,5.5-.74,7.81,1.41Z"/>
        </g>
      </g>
    </pattern>
  </defs>
  <g>
    <path d="M212.78,258.45c-.42,1.41-.82,3.36-1.05,4.79.98.2,2.02.26,2.48.35l-.26,1.64c-.74.12-2.27-.21-3.28-.42-1.61-.33-3.11-.64-3.65-.89l.48-1.64c.66.18,1.82.47,2.52.61.2-1.44.73-3.55,1.08-4.85l1.67.41Z" stroke="#000" stroke-miterlimit="10"/>
    <path d="M206.27,259.84c-.45,1.34-1.66,2.35-3.21,2.04-1.45-.3-2.34-1.18-2.04-2.65.39-1.88,1.92-2.89,3.72-2.52,1.42.29,1.93,1.93,1.52,3.14ZM202.94,258.94c-.37.47-.33,1.08.48,1.25.54.11,1.14-.26,1.29-1,.06-.29-.05-.76-.37-.84-.61-.19-1.08.19-1.4.59Z" stroke="#000" stroke-miterlimit="10"/>
    <path d="M198.64,256.47c-.11.54-.53,1.18-1.57.97-.52-.11-1.28-.69-1.12-1.46.16-.76.67-1.17,1.68-.96.63.13,1.14.84,1.01,1.45Z" stroke="#000" stroke-miterlimit="10"/>
    <path d="M180.43,258.66c-.4-1.53-.63-3.54-.84-5.63l1.64-.29c.27,1.19.3,2.36.52,3.51.68-.45,1.37-1.14,2.53-2.13.15-.1.29-.23.52-.18.15.03.27.15.37.38v-.02c.61,1.32.74,1.92,1.05,2.56v-.03c.16-.26.32-.59.48-.89.52-.96.88-1.8,1.12-2.1l1.48.72c-.67,1.63-1.62,3.05-2.45,4.52v-.02c-.08.17-.2.44-.36.61-.12.13-.27.23-.44.2-.12-.02-.24-.15-.34-.28-.69-.97-.98-2.12-1.46-3.16l-3,2.41c-.17.14-.4.24-.55.21-.09-.02-.22-.17-.27-.41Z" stroke="#000" stroke-miterlimit="10"/>
    <path d="M177.86,254.56c-.43,2.08-2.48,3.89-4.49,3.08-1.27-.5-2.24-1.83-1.96-3.35.34-1.64,1.98-3.72,4.04-3.3,1.78.37,2.75,1.94,2.41,3.57ZM175.13,252.7c-.75-.15-1.33.49-1.68,1.11-.54.89-.48,2.04.71,2.28,1.18.24,1.9-1.35,2-1.79.16-.77-.23-1.44-1.03-1.6Z" stroke="#000" stroke-miterlimit="10"/>
    <path d="M163.61,249.08l1.68-.13c.02.59.08,1.33.21,2.02.76.17,1.82.44,2.54.54.41-.44.93-1.25,1.08-1.68l1.6.77c-.52,1.2-1.4,2.25-2.17,3.21-.67.84-1.26,1.65-1.97,2.31-.37.32-.62.4-.98.33-.34-.07-.64-.29-.76-.65-.57-1.65-1.12-5.33-1.22-6.71ZM167.1,252.97l-1.36-.28c.03.17.23,1.61.26,1.83l1.1-1.54Z" stroke="#000" stroke-miterlimit="10"/>
  </g>
  <g>
    <path d="M128.48,215.6c-11.77,5.24-14.4-6.21-15.77-12.08-12.41-1.34,5.33,26.65,19.04,14.73" fill="none" stroke="#000" stroke-miterlimit="10" stroke-width="2"/>
    <path d="M131.09,213.46c3.23-3.99.53-9.19-1.81-8.07-6.35,5.22,7.7,14.66,14.28,10.02,0,0,3.59,3.13,3.59,3.13-9.23,7.54-29.66-7.01-20.04-15.62,6.07-3.94,12.33,3.5,7.05,12.42" fill="none" stroke="#000" stroke-miterlimit="10" stroke-width="2"/>
    <path d="M150.49,215.47c8.19-12.42-11.59-19.98-9.02-4.25,6.22,18.24,32.56,3.8,24.53-2.1-1.87,7.83-22.82,11.32-21.08-1.66,2.85-5.03,5.95,2.48,1.7,5.82" fill="none" stroke="#000" stroke-miterlimit="10" stroke-width="2"/>
  </g>
  <path d="M92.92,129.51l-1.35,18.89h-20.24l16.19,9.45-14.84,18.89,22.94-10.8,4.05,16.19c7.5-27.1,2.1-16.97,29.69-20.24l-18.89-9.45,12.15-20.24-20.24,12.15-9.45-14.84Z" fill="#f6ffa4" stroke="#000" stroke-linecap="round" stroke-linejoin="round" stroke-width="2"/>
  <g>
    <polygon points="215.03 273.76 205.52 271.51 197.19 267.74 188.31 266.68 179.7 264.3 170.89 262.85 161.81 262.71 153.38 259.45 144.52 258.26 135.61 257.33 127.31 253.39 118.25 253.17 109.4 251.92 100.99 248.53 91.9 248.44 83.54 244.8 74.5 244.47 65.9 242.02 57.46 238.78 48.45 238.31 39.76 236.29 31.24 233.38 21.98 234.1 13.61 230.48 5.95 228.57 7.42 220.5 10.55 212.02 14.9 204.05 17.82 195.49 23.4 188.03 25.24 179.01 29.96 171.19 32.78 162.58 36.37 154.29 40.3 146.14 44.55 138.13 47.21 129.45 50.79 121.15 52.85 112.21 57.64 104.43 59.89 95.57 63.29 87.2 69.08 79.83 71.71 71.13 73.45 62.06 78.52 54.39 82.17 46.12 84.02 37.09 88.71 29.26 91.68 20.7 97.1 13.16 99.53 4.71 108.44 5.06 116.87 9.25 125.97 10.21 135.16 10.73 144.05 12.68 153.08 14 161.68 17.37 170.55 19.42 179.65 20.43 188.39 23.1 197.47 24.17 206.47 25.64 214.99 29.41 224.33 29.22 233.04 32.06 241.78 34.79 250.67 36.76 259.89 37.17 268.93 38.43 277.68 41.11 286.53 43.33 296.55 44.34 293.32 53.67 289.7 61.88 285.16 69.76 284.48 79.02 279.47 86.73 277.6 95.56 275.56 104.34 271.74 112.48 268.9 120.97 265.55 129.27 263.09 137.9 260.19 146.37 257 154.73 254.62 163.39 250.2 171.32 247.03 179.69 244.71 188.37 240.44 196.35 238.56 205.19 235.92 213.75 233.04 222.23 230.04 230.66 226.57 238.93 222.9 247.14 221.23 256.05 218.34 264.47 215.03 273.76" fill="url(#Unnamed_Pattern)"/>
    <polygon points="215.03 273.76 205.52 271.51 197.19 267.74 188.31 266.68 179.7 264.3 170.89 262.85 161.81 262.71 153.38 259.45 144.52 258.26 135.61 257.33 127.31 253.39 118.25 253.17 109.4 251.92 100.99 248.53 91.9 248.44 83.54 244.8 74.5 244.47 65.9 242.02 57.46 238.78 48.45 238.31 39.76 236.29 31.24 233.38 21.98 234.1 13.61 230.48 5.95 228.57 7.42 220.5 10.55 212.02 14.9 204.05 17.82 195.49 23.4 188.03 25.24 179.01 29.96 171.19 32.78 162.58 36.37 154.29 40.3 146.14 44.55 138.13 47.21 129.45 50.79 121.15 52.85 112.21 57.64 104.43 59.89 95.57 63.29 87.2 69.08 79.83 71.71 71.13 73.45 62.06 78.52 54.39 82.17 46.12 84.02 37.09 88.71 29.26 91.68 20.7 97.1 13.16 99.53 4.71 108.44 5.06 116.87 9.25 125.97 10.21 135.16 10.73 144.05 12.68 153.08 14 161.68 17.37 170.55 19.42 179.65 20.43 188.39 23.1 197.47 24.17 206.47 25.64 214.99 29.41 224.33 29.22 233.04 32.06 241.78 34.79 250.67 36.76 259.89 37.17 268.93 38.43 277.68 41.11 286.53 43.33 296.55 44.34 293.32 53.67 289.7 61.88 285.16 69.76 284.48 79.02 279.47 86.73 277.6 95.56 275.56 104.34 271.74 112.48 268.9 120.97 265.55 129.27 263.09 137.9 260.19 146.37 257 154.73 254.62 163.39 250.2 171.32 247.03 179.69 244.71 188.37 240.44 196.35 238.56 205.19 235.92 213.75 233.04 222.23 230.04 230.66 226.57 238.93 222.9 247.14 221.23 256.05 218.34 264.47 215.03 273.76" fill="none" stroke="#000" stroke-miterlimit="10" stroke-width="2"/>
  </g>
  <g>
    <polygon points="222.68 282.03 213.86 280.76 205.46 277.28 196.7 275.61 187.81 274.59 178.71 274.64 170.51 270.16 161.35 270.5 152.57 268.93 143.87 266.94 135.3 264.32 126.44 263.12 117.78 260.92 108.79 260.41 100.47 256.49 91.75 254.6 83 252.86 74.21 251.36 65.34 250.21 56.27 250.09 47.92 246.33 38.93 245.75 30.32 243.34 21.4 242.38 11.58 240.68 17.37 232.19 18.79 223 23.5 215.18 27.26 206.96 28.84 197.84 33.74 190.1 35.84 181.19 40.1 173.18 42.76 164.5 48.24 156.99 50.79 148.27 54.64 140.09 57.39 131.45 61.99 123.57 65.64 115.3 67.99 106.5 72.34 98.52 73.83 89.35 79.2 81.79 81.76 73.07 84.04 64.24 88.51 56.31 91.37 47.71 96.32 39.97 99.52 31.52 102.95 23.15 105.68 14.44 114.54 16.78 123.39 18.97 132.69 18.91 141.5 21.25 150.38 23.27 159.37 24.76 168.07 27.72 176.98 29.59 185.9 31.44 194.82 33.27 203.77 34.93 213.11 34.71 221.89 37.24 230.87 38.79 239.4 42.6 248.53 43.39 257.58 44.54 266.55 46.17 275.37 48.5 284.26 50.52 293.05 53.06 301.29 54.33 298.96 62.15 295.64 70.48 294.07 79.4 290.03 87.47 288.14 96.28 285.82 104.95 281.11 112.79 277.31 120.94 275.84 129.9 272.92 138.36 269.4 146.62 267.53 155.44 264.39 163.82 260.43 171.93 257.01 180.22 255.42 189.14 252.79 197.71 248.37 205.65 245.4 214.09 242.37 222.52 239.75 231.09 237.19 239.68 233.79 247.97 232.52 257.01 228.06 264.94 226.97 274.05 222.68 282.03" fill="#fff"/>
    <polygon points="222.68 282.03 213.86 280.76 205.46 277.28 196.7 275.61 187.81 274.59 178.71 274.64 170.51 270.16 161.35 270.5 152.57 268.93 143.87 266.94 135.3 264.32 126.44 263.12 117.78 260.92 108.79 260.41 100.47 256.49 91.75 254.6 83 252.86 74.21 251.36 65.34 250.21 56.27 250.09 47.92 246.33 38.93 245.75 30.32 243.34 21.4 242.38 11.58 240.68 17.37 232.19 18.79 223 23.5 215.18 27.26 206.96 28.84 197.84 33.74 190.1 35.84 181.19 40.1 173.18 42.76 164.5 48.24 156.99 50.79 148.27 54.64 140.09 57.39 131.45 61.99 123.57 65.64 115.3 67.99 106.5 72.34 98.52 73.83 89.35 79.2 81.79 81.76 73.07 84.04 64.24 88.51 56.31 91.37 47.71 96.32 39.97 99.52 31.52 102.95 23.15 105.68 14.44 114.54 16.78 123.39 18.97 132.69 18.91 141.5 21.25 150.38 23.27 159.37 24.76 168.07 27.72 176.98 29.59 185.9 31.44 194.82 33.27 203.77 34.93 213.11 34.71 221.89 37.24 230.87 38.79 239.4 42.6 248.53 43.39 257.58 44.54 266.55 46.17 275.37 48.5 284.26 50.52 293.05 53.06 301.29 54.33 298.96 62.15 295.64 70.48 294.07 79.4 290.03 87.47 288.14 96.28 285.82 104.95 281.11 112.79 277.31 120.94 275.84 129.9 272.92 138.36 269.4 146.62 267.53 155.44 264.39 163.82 260.43 171.93 257.01 180.22 255.42 189.14 252.79 197.71 248.37 205.65 245.4 214.09 242.37 222.52 239.75 231.09 237.19 239.68 233.79 247.97 232.52 257.01 228.06 264.94 226.97 274.05 222.68 282.03" fill="none" stroke="#000" stroke-miterlimit="10" stroke-width="2"/>
  </g>
  <g>
    <path d="M212.78,258.45c-.42,1.41-.82,3.36-1.05,4.79.98.2,2.02.26,2.48.35l-.26,1.64c-.74.12-2.27-.21-3.28-.42-1.61-.33-3.11-.64-3.65-.89l.48-1.64c.66.18,1.82.47,2.52.61.2-1.44.73-3.55,1.08-4.85l1.67.41Z"/>
    <path d="M206.27,259.84c-.45,1.34-1.66,2.35-3.21,2.04-1.45-.3-2.34-1.18-2.04-2.65.39-1.88,1.92-2.89,3.72-2.52,1.42.29,1.93,1.93,1.52,3.14ZM202.94,258.94c-.37.47-.33,1.08.48,1.25.54.11,1.14-.26,1.29-1,.06-.29-.05-.76-.37-.84-.61-.19-1.08.19-1.4.59Z"/>
    <path d="M198.64,256.47c-.11.54-.53,1.18-1.57.97-.52-.11-1.28-.69-1.12-1.46.16-.76.67-1.17,1.68-.96.63.13,1.14.84,1.01,1.45Z"/>
    <path d="M180.43,258.66c-.4-1.53-.63-3.54-.84-5.63l1.64-.29c.27,1.19.3,2.36.52,3.51.68-.45,1.37-1.14,2.53-2.13.15-.1.29-.23.52-.18.15.03.27.15.37.38v-.02c.61,1.32.74,1.92,1.05,2.56v-.03c.16-.26.32-.59.48-.89.52-.96.88-1.8,1.12-2.1l1.48.72c-.67,1.63-1.62,3.05-2.45,4.52v-.02c-.08.17-.2.44-.36.61-.12.13-.27.23-.44.2-.12-.02-.24-.15-.34-.28-.69-.97-.98-2.12-1.46-3.16l-3,2.41c-.17.14-.4.24-.55.21-.09-.02-.22-.17-.27-.41Z"/>
    <path d="M177.86,254.56c-.43,2.08-2.48,3.89-4.49,3.08-1.27-.5-2.24-1.83-1.96-3.35.34-1.64,1.98-3.72,4.04-3.3,1.78.37,2.75,1.94,2.41,3.57ZM175.13,252.7c-.75-.15-1.33.49-1.68,1.11-.54.89-.48,2.04.71,2.28,1.18.24,1.9-1.35,2-1.79.16-.77-.23-1.44-1.03-1.6Z"/>
    <path d="M163.61,249.08l1.68-.13c.02.59.08,1.33.21,2.02.76.17,1.82.44,2.54.54.41-.44.93-1.25,1.08-1.68l1.6.77c-.52,1.2-1.4,2.25-2.17,3.21-.67.84-1.26,1.65-1.97,2.31-.37.32-.62.4-.98.33-.34-.07-.64-.29-.76-.65-.57-1.65-1.12-5.33-1.22-6.71ZM167.1,252.97l-1.36-.28c.03.17.23,1.61.26,1.83l1.1-1.54Z"/>
  </g>
  <g>
    <path d="M128.48,215.6c-11.77,5.24-14.4-6.21-15.77-12.08-12.41-1.34,5.33,26.65,19.04,14.73" fill="none" stroke="#000" stroke-miterlimit="10" stroke-width="2"/>
    <path d="M131.09,213.46c3.23-3.99.53-9.19-1.81-8.07-6.35,5.22,7.7,14.66,14.28,10.02,0,0,3.59,3.13,3.59,3.13-9.23,7.54-29.66-7.01-20.04-15.62,6.07-3.94,12.33,3.5,7.05,12.42" fill="none" stroke="#000" stroke-miterlimit="10" stroke-width="2"/>
    <path d="M150.49,215.47c8.19-12.42-11.59-19.98-9.02-4.25,6.22,18.24,32.56,3.8,24.53-2.1-1.87,7.83-22.82,11.32-21.08-1.66,2.85-5.03,5.95,2.48,1.7,5.82" fill="none" stroke="#000" stroke-miterlimit="10" stroke-width="2"/>
  </g>
  <path d="M92.92,129.51l-1.35,18.89h-20.24l16.19,9.45-14.84,18.89,22.94-10.8,4.05,16.19c7.5-27.1,2.1-16.97,29.69-20.24l-18.89-9.45,12.15-20.24-20.24,12.15-9.45-14.84Z" fill="#f6ffa4" stroke="#000" stroke-linecap="round" stroke-linejoin="round" stroke-width="2"/>
</svg>