<svg width="298" height="237" viewBox="0 0 298 237" fill="none" xmlns="http://www.w3.org/2000/svg">
<path d="M122.789 117.727C125.16 117.721 127.078 115.819 127.071 113.48C127.065 111.141 125.138 109.25 122.766 109.256C120.395 109.262 118.478 111.164 118.484 113.503C118.49 115.842 120.418 117.733 122.789 117.727Z" fill="#1B1B1B"/>
<path d="M160.785 117.629C163.038 117.623 164.859 115.722 164.853 113.382C164.847 111.043 163.015 109.152 160.763 109.158C158.51 109.164 156.689 111.065 156.695 113.404C156.701 115.744 158.533 117.635 160.785 117.629Z" fill="#1B1B1B"/>
<path d="M142.031 168.054C144.284 168.048 146.105 166.146 146.099 163.807C146.093 161.468 144.261 159.577 142.009 159.583C139.756 159.589 137.935 161.49 137.941 163.829C137.947 166.169 139.779 168.06 142.031 168.054Z" fill="#1B1B1B"/>
<path d="M46.8564 142.01L74.3356 141.935" stroke="#1B1B1B" stroke-width="0.602496" stroke-miterlimit="10"/>
<path d="M46.8887 154.05L74.3678 153.975" stroke="#1B1B1B" stroke-width="0.602496" stroke-miterlimit="10"/>
<path d="M209.15 141.569L236.63 141.495" stroke="#1B1B1B" stroke-width="0.602496" stroke-miterlimit="10"/>
<path d="M209.182 153.609L236.661 153.535" stroke="#1B1B1B" stroke-width="0.602496" stroke-miterlimit="10"/>
<path d="M191.845 6.31662C191.845 6.31662 193.047 5.53178 193.072 5.58381C193.123 5.68789 190.648 9.15966 190.724 9.26367C190.774 9.34169 193.754 7.32753 193.805 7.40556C193.905 7.58766 188.928 13.4891 189.029 13.6712C189.105 13.8274 194.79 10.0082 194.866 10.1383C194.967 10.3204 189.664 16.353 189.765 16.5351C189.891 16.7692 194.473 13.396 194.599 13.6041C194.675 13.7341 190.671 17.7311 190.747 17.8612C190.898 18.1213 192.048 16.7374 192.2 16.9975C192.3 17.1796 185.716 22.4601 185.817 22.6422C185.993 22.9544 193.832 17.4099 194.008 17.696C194.184 17.9821 184.749 26.7355 184.9 27.0217C185.102 27.4119 197.449 18.9373 197.65 19.3275C197.827 19.6397 185.831 27.8007 186.007 28.1129C186.234 28.5291 191.942 23.9544 192.194 24.3966C192.27 24.5006 188.541 28.1321 188.617 28.2622C188.869 28.7304 196.606 22.8215 196.858 23.2898C196.984 23.5239 189.024 30.2671 189.15 30.5013C189.427 31.0216 195.235 26.1339 195.512 26.6543C195.664 26.9144 186.853 34.7542 186.979 35.0144C187.307 35.5867 192.688 30.8044 193.016 31.3766C193.218 31.7408 179.894 40.8173 180.096 41.1815C180.449 41.8059 199.657 28.5449 200.01 29.1693C200.262 29.6115 184.612 41.013 184.864 41.4552C185.242 42.1316 197.887 32.6661 198.265 33.3685C198.568 33.9148 178.179 46.7361 178.482 47.2563C178.885 47.9847 196.139 35.6149 196.567 36.3432" stroke="#EAEAEA" stroke-width="4.31951" stroke-linecap="round" stroke-linejoin="round"/>
<path d="M35.3373 84.7992C35.8163 85.6316 61.3851 67.9507 61.8642 68.8092C62.2927 69.5636 32.5835 87.0472 33.0121 87.8277C33.6927 89.0243 72.1843 62.5807 72.8399 63.8034C73.5963 65.1561 21.7438 96.0127 22.5001 97.3393C23.8615 99.7586 108.084 42.475 109.445 44.8942C110.806 47.3135 18.6665 99.2255 20.0025 101.567C21.4395 104.116 111.723 42.8299 113.16 45.3792C114.597 47.9285 18.2228 102.197 19.5843 104.668C21.0718 107.321 113.909 44.2048 115.396 46.8582C116.884 49.5115 9.23799 110.48 10.7759 113.237C12.3138 115.995 111.337 48.8752 112.875 51.6587C114.413 54.4422 8.19513 114.521 9.70786 117.252C11.2206 119.984 109.718 53.1262 111.306 55.9617C112.819 58.6671 7.75525 118.899 9.26791 121.604C11.0075 124.726 118.52 51.5392 120.26 54.6609C121.848 57.4963 10.8467 120.923 12.435 123.758C14.3007 127.114 124.617 51.6009 126.483 54.9567C128.348 58.3124 2.96601 129.281 4.75599 132.481C6.74767 136.044 132.142 50.8511 134.159 54.4409C136.024 57.7706 5.02862 131.229 6.89423 134.559C8.98668 138.279 137.611 50.7321 139.704 54.452C141.62 57.8858 6.63716 132.267 8.55323 135.701C10.6961 139.525 148.212 46.3526 150.355 50.1765C152.498 54.0005 8.9963 132.521 11.0133 136.163C13.2066 140.065 143.959 50.741 146.152 54.643C148.194 58.3109 4.06661 137.354 6.10868 140.996C8.35238 144.976 147.095 50.6283 149.339 54.6083C151.406 58.3022 6.38177 139.901 8.44914 143.621C10.7685 147.757 160.206 46.5286 162.525 50.6907C164.845 54.8529 8.94402 141.067 11.1626 145.021C13.5324 149.261 158.535 50.441 160.93 54.6811C163.325 58.9213 3.74212 147.281 6.01112 151.339C8.45659 155.71 166.684 48.5692 169.13 52.9395C171.575 57.3097 6.50584 148.707 8.85045 152.895C11.7497 158.072 194.294 34.1134 197.193 39.29C200.093 44.4667 3.57924 151.997 6.37764 156.992C9.17604 161.986 200.338 33.0549 203.237 38.2316C206.136 43.4082 9.12005 150.523 11.9184 155.492C14.7167 160.46 198.414 36.0562 201.313 41.2329C204.213 46.4095 9.27931 153.753 12.0274 158.696C14.9267 163.899 202.28 36.9836 205.18 42.1863C208.079 47.3891 8.46348 158.263 11.3123 163.335C14.1611 168.408 197.658 43.9783 200.557 49.181C203.305 54.0976 8.94452 159.877 11.6925 164.793C14.5919 169.996 197.211 45.9335 200.111 51.1362C202.859 56.0267 10.2052 162.192 12.9532 167.083C15.8524 172.259 204.409 44.6635 207.333 49.8401C210.257 55.0167 15.121 161.528 17.8691 166.47C20.6172 171.413 206.394 45.8305 209.293 51.0071C212.192 56.1838 14.8302 165.332 17.6537 170.353C20.4773 175.373 202.446 51.9636 205.32 57.1403C208.195 62.3171 14.0864 168.643 16.8345 173.559C19.7337 178.736 207.363 51.7418 210.237 56.8925C213.111 62.0432 16.6493 170.017 19.4226 175.011C22.1959 180.006 206.369 55.3398 209.243 60.5166C212.118 65.6933 19.0387 172.199 21.7866 177.089C24.6859 182.266 211.664 55.6381 214.563 60.8148C217.462 65.9915 22.0258 172.764 24.799 177.706C27.7234 182.909 211.169 58.3229 214.069 63.5257C216.968 68.7284 18.5557 179.182 21.3793 184.229C24.2029 189.275 219.948 57.4134 222.898 62.6681C225.848 67.9228 27.1059 177.205 29.9295 182.252C32.9044 187.558 216.024 62.9212 218.974 68.228C221.747 73.1705 27.6181 181.085 30.3913 186.028C33.3913 191.361 219.967 64.5258 222.942 69.8846C225.917 75.2435 26.2757 185.674 29.1245 190.747C32.1247 196.132 225.038 65.3718 228.038 70.7566C230.836 75.7512 33.2446 183.467 36.0431 188.488C39.0684 193.872 229.777 64.4211 232.803 69.8058C235.828 75.1906 29.0159 187.725 31.9656 192.98C34.9152 198.235 233.515 64.1765 236.54 69.5873C239.566 74.9981 35.3078 185.598 38.2069 190.748C41.1061 195.899 233.018 66.0015 236.043 71.4124C239.069 76.8232 33.8164 190.812 36.7409 196.041C39.6654 201.27 232.228 70.8495 235.254 76.2864C238.103 81.385 37.1823 192.262 40.0312 197.361C43.0818 202.824 237.748 70.8085 240.798 76.2453C243.672 81.396 41.7772 193.553 44.6513 198.703C47.7019 204.166 239.412 73.9304 242.463 79.3932C245.312 84.4919 45.4716 195.861 48.3205 200.96C51.371 206.423 244.083 75.5591 247.134 81.0219C250.184 86.4848 43.1255 200.453 46.0753 205.734C49.025 211.014 250.981 74.8109 254.057 80.2998C257.132 85.7886 49.6724 199.888 52.622 205.143C55.5717 210.397 250.714 78.3548 253.79 83.8176C256.866 89.2804 48.4055 204.607 51.3804 209.914C54.3553 215.221 253.08 80.9537 256.13 86.3905C259.181 91.8273 53.7989 204.254 56.6982 209.457C59.5976 214.659 253.187 83.6369 256.238 89.0997C259.036 94.1204 61.4472 202.774 64.2707 207.769C67.2961 213.206 254.172 85.9529 257.198 91.3898C259.996 96.3844 62.8314 204.334 65.6298 209.328C68.6551 214.739 258.963 85.471 261.988 90.8818C264.837 95.9805 64.6188 206.595 67.4677 211.694C70.4929 217.079 265.31 85.1412 268.335 90.526C271.36 95.9107 63.4483 209.829 66.398 215.084C69.3476 220.338 263.163 89.2113 266.163 94.5961C268.987 99.6427 70.798 209.236 73.6216 214.283C76.6217 219.615 264.801 91.8121 267.776 97.171C270.549 102.14 75.1174 210.735 77.8906 215.704C80.8655 221.011 266.465 94.8819 269.415 100.163C272.188 105.131 76.1518 212.843 78.9251 217.838C81.8748 223.118 271.107 94.8693 274.031 100.15C276.956 105.431 77.0619 215.394 79.9107 220.466C82.7595 225.539 271.692 97.7857 274.641 103.014C277.389 107.905 84.1059 213.108 86.8538 217.998C89.7783 223.201 269.442 100.892 272.341 106.121C275.064 110.985 82.8097 216.238 85.5325 221.128C88.4318 226.305 275.485 99.6251 278.359 104.802C281.233 109.979 82.4653 218.792 85.2889 223.839C88.1126 228.885 276.419 101.681 279.293 106.805C281.99 111.644 91.3645 215.954 94.0621 220.793C96.911 225.891 272.593 106.276 275.441 111.375C278.114 116.136 89.7665 218.85 92.4389 223.637C95.2626 228.71 273.725 107.524 276.549 112.571C279.145 117.201 96.3871 217.686 98.9838 222.317C101.782 227.337 278.742 107.172 281.54 112.192C284.162 116.901 98.9237 218.643 101.546 223.352C104.319 228.32 277.346 110.667 280.145 115.635C282.741 120.265 100.332 219.812 102.929 224.442C105.677 229.359 282.411 109.585 285.16 114.527C287.756 119.184 104.346 219.879 106.968 224.535C109.59 229.192 278.887 114.31 281.609 119.2C284.105 123.649 108.563 220.467 111.059 224.941C113.757 229.754 278.043 117.777 280.741 122.59C283.211 127.012 109.325 224.008 111.821 228.43C114.468 233.139 283.214 118.753 285.861 123.462C288.281 127.78 119.205 222.053 121.625 226.346C124.197 230.95 282.573 123.106 285.145 127.71C287.49 131.898 123.075 224.049 125.419 228.237C127.94 232.737 283.487 126.881 286.008 131.381C288.277 135.439 129.12 223.512 131.364 227.57C133.834 231.966 282.719 130.4 285.164 134.796C287.458 138.88 127.225 228.024 129.494 232.108C131.889 236.4 290.744 129.102 293.164 133.394C295.584 137.686 132.391 227.072 134.71 231.234C137.03 235.396 291.451 131.054 293.821 135.268C296.191 139.482 138.361 226.639 140.605 230.645C142.849 234.651 284.146 138.577 286.44 142.687C288.507 146.355 144.183 226.884 146.25 230.552C148.468 234.532 289.215 139.006 291.433 142.986C293.652 146.966 145.041 228.731 147.158 232.503C149.276 236.275 284.964 144.228 287.107 148.078C289.048 151.538 153.142 227.693 155.083 231.153C157.15 234.873 291.286 144.029 293.353 147.749C295.42 151.469 156.131 228.91 158.122 232.474C160.114 236.037 289.591 148.41 291.583 151.974C293.474 155.33 160.972 228.61 162.863 231.966C164.754 235.321 287.695 152.089 289.611 155.522C291.275 158.514 174.21 224.927 175.899 227.918C177.689 231.144 282.746 159.162 284.536 162.388C286.124 165.224 174.643 227.635 176.232 230.497C177.946 233.54 284.382 161.19 286.071 164.234C287.508 166.809 187.354 224.136 188.791 226.711C190.354 229.494 279.308 168.368 280.871 171.178C282.107 173.415 195.659 224.009 196.894 226.246C198.256 228.691 277.418 174.392 278.804 176.837C279.863 178.71 206.64 220.983 207.699 222.856C208.909 225.015 281.059 175.737 282.269 177.87C283.253 179.639 214.638 219.138 215.647 220.907C216.655 222.676 270.873 185.143 271.882 186.99C272.512 188.109 230.233 215.136 230.864 216.254C231.494 217.373 263.323 195.116 263.953 196.286" stroke="#EAEAEA" stroke-width="4.31951" stroke-linecap="round" stroke-linejoin="round"/>
<path d="M98.9081 6.56972C98.9081 6.56972 100.11 5.78489 100.136 5.83692C100.211 5.99304 96.8142 11.6296 96.9149 11.7596C96.9905 11.8636 101.348 8.93394 101.399 9.06406C101.5 9.27221 95.3191 15.4374 95.4199 15.6195C95.5208 15.8016 102.233 11.2763 102.333 11.4584C102.409 11.5885 98.3809 15.7939 98.4566 15.9239C98.5826 16.1581 100.209 14.5644 100.335 14.7986C100.386 14.8766 99.6437 18.8647 99.6941 18.9427C99.8706 19.2549 100.019 18.3426 100.195 18.6548C100.271 18.7848 95.8659 22.8349 95.9415 22.965C96.1431 23.3031 100.224 19.9313 100.425 20.2694C100.576 20.5296 91.1891 28.3708 91.3403 28.6309C91.5672 29.0211 101.158 22.1693 101.385 22.5595C101.561 22.8716 90.5717 32.0459 90.7481 32.3581C91.0254 32.8263 100.691 25.7138 100.968 26.208C101.094 26.4161 94.5391 33.2336 94.64 33.4418C94.9425 33.9881 103.13 27.583 103.432 28.1293C103.684 28.5975 86.4043 40.4202 86.6564 40.8884C86.9842 41.4868 106.568 28.0687 106.896 28.667C107.148 29.1353 90.2962 41.556 90.5484 42.0242C90.9265 42.7006 102.018 34.2034 102.397 34.8798C102.598 35.2179 90.1024 44.1097 90.279 44.4479C90.6823 45.1763 101.874 36.4704 102.277 37.1988C102.529 37.641 86.8557 49.6677 87.1078 50.1099C87.5616 50.9163 108.447 36.166 108.875 36.9725C109.304 37.7269 80.8755 55.7021 81.3041 56.4565C81.7831 57.3149 112.036 36.7555 112.515 37.614" stroke="#EAEAEA" stroke-width="4.31951" stroke-linecap="round" stroke-linejoin="round"/>
<path d="M100.14 8.88555C100.14 8.88555 102.094 7.62973 102.144 7.6817C102.194 7.78578 101.428 12.1647 101.479 12.2428C101.504 12.2948 103.432 10.9869 103.483 11.0389C103.533 11.143 102.717 15.3918 102.767 15.4959C102.792 15.5479 104.746 14.24 104.771 14.292C104.821 14.37 103.399 17.1094 103.424 17.1875C103.449 17.2396 105.403 15.9316 105.428 15.9837C105.478 16.0617 104.081 18.8531 104.106 18.9312C104.131 18.9833 106.085 17.6753 106.11 17.7274C106.16 17.8054 105.142 21.6119 105.192 21.716C105.218 21.768 107.171 20.4601 107.196 20.5121C107.247 20.5901 105.875 23.4857 105.9 23.5377C105.925 23.5898 107.879 22.2819 107.904 22.3339C107.954 22.438 107.062 26.5567 107.113 26.6608C107.138 26.7128 109.091 25.4049 109.116 25.457C109.167 25.561 108.199 29.5237 108.275 29.6016C108.3 29.6537 110.253 28.3457 110.279 28.3978C110.329 28.5019 109.462 32.6987 109.513 32.8028C109.538 32.8548 111.491 31.5469 111.517 31.5989C111.567 31.677 110.346 34.989 110.397 35.067C110.422 35.119 112.376 33.8111 112.401 33.8631C112.426 33.9152 110.877 36.3162 110.902 36.3943C110.927 36.4464 112.881 35.1384 112.906 35.1905C112.957 35.2946 112.014 39.3092 112.064 39.4133C112.09 39.4654 114.043 38.1574 114.094 38.2094C114.144 38.3135 113.328 42.6405 113.378 42.7185C113.403 42.7705 115.357 41.4365 115.407 41.4885C115.457 41.5926 114.591 45.7894 114.641 45.8935C114.666 45.9455 116.645 44.6115 116.67 44.6635C116.72 44.7416 115.399 47.8454 115.449 47.9235C115.475 47.9755 117.453 46.6414 117.478 46.6935C117.529 46.7715 116.182 49.7712 116.207 49.8493C116.232 49.9013 118.211 48.5673 118.236 48.6193C118.287 48.7234 118.147 52.8923 118.198 52.9703C118.273 53.1003 122.982 49.9091 123.057 50.0392C123.083 50.0912 123.991 52.173 124.017 52.2251C124.092 52.3551 128.525 49.347 128.575 49.4772C128.601 49.5292 127.704 51.7982 127.729 51.8503C127.804 51.9543 131.937 49.1555 132.012 49.2595C132.037 49.3115 133.975 51.2863 134 51.3383C134.05 51.4424 138.158 48.6697 138.233 48.7997C138.258 48.8518 139.418 50.985 139.443 51.037C139.494 51.1411 143.451 48.473 143.501 48.5771C143.552 48.6551 145.64 50.7597 145.69 50.8377C145.741 50.9418 149.497 48.4045 149.548 48.5086C149.573 48.5606 150.081 50.7477 150.131 50.7997C150.181 50.9038 153.813 48.445 153.863 48.549C153.889 48.6011 154.396 50.7881 154.421 50.8402C154.472 50.9443 157.953 48.5901 158.003 48.6681C158.029 48.7201 159.289 50.9312 159.339 51.0092C159.39 51.0873 162.771 48.8115 162.821 48.9156C162.846 48.9676 163.43 51.1806 163.455 51.2326C163.505 51.3106 166.811 49.0872 166.861 49.1652C166.887 49.2172 165.788 51.3305 165.814 51.3825C165.864 51.4606 169.17 49.2371 169.22 49.3412C169.246 49.3932 169.929 51.684 169.954 51.7361C170.005 51.8141 173.336 49.5645 173.386 49.6686C173.411 49.7206 172.288 51.9121 172.313 51.9642C172.364 52.0682 176.421 49.3217 176.497 49.4518" stroke="#1B1B1B" stroke-width="4.31951" stroke-linecap="round" stroke-linejoin="round"/>
<path d="M191.828 3.0356C191.828 3.0356 193.031 2.25076 193.056 2.30279C193.131 2.43285 189.984 7.52168 190.06 7.65174C190.11 7.75581 194.117 5.06153 194.167 5.1656C194.293 5.37369 188.015 12.3989 188.141 12.607C188.191 12.685 191.197 10.6447 191.247 10.7228C191.373 10.9308 185.773 18.2408 185.873 18.4489C185.924 18.527 188.954 16.4866 189.005 16.5647C189.105 16.7207 184.228 22.3092 184.329 22.4653C184.379 22.5433 187.435 20.4768 187.46 20.581C187.535 20.685 184.058 24.3679 184.133 24.4719C184.184 24.5499 185.561 23.504 185.611 23.5821C185.662 23.6861 182.435 27.1339 182.485 27.264C182.535 27.342 185.591 25.2756 185.641 25.3536C185.742 25.5096 180.815 31.2025 180.89 31.3586C180.941 31.4366 184.021 29.3701 184.072 29.4481C184.172 29.6042 179.32 35.0884 179.395 35.2445C179.446 35.3225 182.526 33.23 182.577 33.3341C182.652 33.4902 178.074 38.3223 178.15 38.4784C178.2 38.5565 181.306 36.4638 181.356 36.5419C181.432 36.698 177.08 41.8422 177.156 41.9983C177.206 42.0763 179.46 40.507 179.485 40.5851C179.561 40.7152 175.732 44.4511 175.808 44.5551C175.858 44.6331 178.989 42.5404 179.014 42.6185C179.09 42.7746 174.486 47.5808 174.587 47.7368C174.637 47.8149 177.768 45.6961 177.818 45.8002" stroke="#1B1B1B" stroke-width="4.31951" stroke-linecap="round" stroke-linejoin="round"/>
<path d="M193.072 8.42692C193.072 8.42692 194.975 7.19728 195 7.24932C195.051 7.32734 193.931 10.6651 193.981 10.7432C194.006 10.7952 195.885 9.51353 195.91 9.56557C195.96 9.64359 195.067 13.5539 195.118 13.658C195.143 13.71 197.021 12.4284 197.047 12.4804C197.097 12.5845 196.28 16.7291 196.356 16.8071C196.381 16.8591 198.259 15.5774 198.284 15.6295C198.335 15.7335 197.569 19.9562 197.619 20.0342C197.644 20.0862 199.522 18.8046 199.573 18.8565C199.623 18.9346 198.63 22.6628 198.68 22.7408C198.705 22.7929 200.609 21.5111 200.634 21.5632C200.684 21.6672 199.994 26.1241 200.044 26.2282C200.069 26.2803 201.973 24.9985 201.998 25.0506C202.048 25.1286 200.777 28.1542 200.827 28.2061C200.853 28.2582 202.756 26.9764 202.781 27.0285C202.832 27.1065 201.535 30.0279 201.56 30.106C201.585 30.158 203.489 28.8763 203.514 28.9283C203.564 29.0324 202.773 33.2551 202.823 33.3592C202.849 33.4112 204.752 32.1295 204.777 32.1815C204.828 32.2595 203.758 35.7535 203.783 35.8316C203.809 35.8837 205.712 34.6019 205.737 34.654C205.763 34.732 204.339 37.2891 204.365 37.3672C204.39 37.4192 206.293 36.1375 206.318 36.1895C206.369 36.2936 205.678 40.7765 205.729 40.8806C205.754 40.9326 207.657 39.6509 207.683 39.703C207.733 39.781 206.613 43.223 206.664 43.301C206.689 43.353 208.592 42.0713 208.618 42.1233C208.668 42.2274 207.851 46.4241 207.927 46.5281C207.952 46.5802 209.855 45.2984 209.881 45.3505C209.931 45.4285 208.761 48.6883 208.786 48.7664C208.811 48.8184 210.715 47.5367 210.74 47.5887C210.765 47.6407 210.973 50.1673 211.023 50.2193C211.048 50.2713 211.449 49.9055 211.474 49.9575C211.524 50.0355 210.378 52.8263 210.403 52.9044C210.428 52.9564 212.331 51.6747 212.382 51.7267C212.432 51.8307 211.691 56.2096 211.742 56.2876C211.767 56.3397 213.695 55.0579 213.721 55.1099C213.746 55.188 212.298 57.7451 212.348 57.7971C212.373 57.8491 214.302 56.5673 214.327 56.6193C214.352 56.6974 212.879 59.1764 212.929 59.2545C212.954 59.3065 214.883 58.0247 214.908 58.0507C214.958 58.1287 215.894 60.9399 215.944 61.0179C215.995 61.0959 218.474 59.3958 218.524 59.4738C218.575 59.5518 220.289 62.4391 220.339 62.5171C220.364 62.5952 222.819 60.9472 222.844 60.9992C222.894 61.0773 224.759 64.0944 224.81 64.1724C224.835 64.2244 227.214 62.6288 227.264 62.6807C227.29 62.7328 227.271 65.1036 227.296 65.1557C227.321 65.2077 229.701 63.612 229.726 63.6901C229.751 63.7422 229.18 65.8801 229.205 65.9321C229.23 65.9841 231.559 64.4147 231.61 64.4927C231.66 64.5707 233.249 67.6146 233.299 67.7187C233.325 67.7707 235.629 66.2273 235.654 66.3054C235.679 66.3575 235.435 68.6768 235.46 68.7289C235.485 68.7809 237.764 67.2637 237.789 67.3157C237.815 67.3678 236.967 69.4022 236.992 69.4542C237.017 69.5063 239.297 67.989 239.322 68.0411C239.372 68.1191 240.183 70.9827 240.233 71.0607C240.258 71.1128 242.487 69.6217 242.513 69.6738C242.538 69.7258 241.665 71.7603 241.69 71.8123C241.716 71.8644 243.945 70.3733 243.97 70.4514C244.02 70.5294 245.308 73.7305 245.359 73.8085C245.384 73.8605 247.563 72.3957 247.588 72.4737C247.614 72.5518 248.123 75.3642 248.148 75.4162C248.173 75.4682 250.302 74.0296 250.352 74.0815C250.403 74.1596 251.591 77.439 251.616 77.5171C251.641 77.5691 253.745 76.1566 253.77 76.2086C253.796 76.2607 254.054 79.0476 254.079 79.0997C254.104 79.1517 256.183 77.7653 256.208 77.8173C256.259 77.8953 256.794 80.916 256.819 80.9941C256.844 81.0462 258.923 79.6597 258.948 79.7118C258.973 79.7638 258.026 81.7985 258.051 81.8505C258.076 81.9026 260.105 80.5423 260.13 80.5944C260.155 80.6464 259.609 82.9926 259.66 83.0446C259.71 83.0966 261.714 81.7364 261.739 81.7885C261.789 81.8665 262.677 85.3291 262.702 85.4072C262.727 85.4592 264.731 84.1251 264.756 84.1772C264.781 84.2292 264.11 86.5237 264.135 86.5757C264.16 86.6277 266.139 85.2937 266.189 85.3457C266.214 85.3977 265.795 87.926 265.82 87.978C265.845 88.03 267.799 86.7221 267.824 86.7742C267.874 86.8522 268.234 90.1078 268.26 90.1859C268.285 90.2379 270.238 88.93 270.264 88.982C270.289 89.0341 269.593 91.4068 269.643 91.4587C269.668 91.5108 271.597 90.2029 271.647 90.2549C271.672 90.3069 270.825 92.5758 270.876 92.6278C270.901 92.6798 272.829 91.372 272.854 91.424C272.88 91.476 271.857 93.537 271.882 93.589C271.907 93.6411 273.81 92.3593 273.861 92.4113C273.911 92.4633 272.813 94.5505 272.838 94.6025C272.863 94.6545 274.766 93.3728 274.792 93.4248C274.842 93.5029 275.329 97.3053 275.379 97.3833C275.405 97.4353 277.283 96.1536 277.333 96.2056C277.358 96.2576 276.411 98.5268 276.461 98.5788C276.487 98.6308 278.365 97.3752 278.39 97.4012C278.441 97.4792 278.022 100.476 278.072 100.528C278.098 100.58 279.976 99.3248 280.001 99.3768C280.026 99.4289 279.155 101.88 279.18 101.932C279.205 101.984 281.084 100.729 281.109 100.781C281.159 100.859 281.169 104.636 281.22 104.714C281.245 104.766 283.098 103.511 283.124 103.563C283.149 103.615 281.95 105.781 281.976 105.859C282.001 105.911 283.854 104.655 283.879 104.707C283.93 104.785 283.361 107.991 283.412 108.069C283.437 108.121 285.29 106.866 285.315 106.918C285.341 106.996 284.445 109.76 284.47 109.812C284.496 109.864 286.349 108.608 286.374 108.66C286.399 108.713 285.378 111.425 285.428 111.477C285.453 111.529 287.307 110.273 287.332 110.325C287.382 110.403 286.966 114.417 287.017 114.521C287.042 114.573 288.895 113.317 288.921 113.369C288.946 113.421 287.572 115.692 287.597 115.744C287.623 115.796 289.476 114.54 289.501 114.592C289.551 114.67 288.759 118.424 288.809 118.528C288.834 118.58 290.688 117.324 290.713 117.376C290.738 117.455 289.39 120.063 289.416 120.142C289.441 120.194 291.319 118.912 291.344 118.964C291.395 119.042 289.997 121.781 290.047 121.833C290.073 121.885 291.951 120.63 291.976 120.682C292.027 120.76 290.883 124.488 290.908 124.593C290.933 124.645 292.836 123.363 292.862 123.415C292.912 123.493 291.339 126.181 291.364 126.259C291.389 126.311 293.318 125.003 293.343 125.055C293.393 125.159 291.999 129.045 292.049 129.149C292.074 129.201 294.028 127.893 294.053 127.945C294.104 128.023 292.508 131.675 292.533 131.753C292.558 131.805 294.537 130.471 294.562 130.523C294.638 130.653 292.995 135.764 293.071 135.894C293.096 135.946 295.15 134.559 295.175 134.611C295.251 134.715 293.231 139.384 293.281 139.488C293.307 139.54 295.41 138.128 295.461 138.18C295.511 138.284 293.239 142.38 293.315 142.484C293.34 142.536 295.519 141.072 295.544 141.124C295.619 141.228 293.072 145.716 293.148 145.846C293.173 145.898 295.427 144.381 295.478 144.459C295.528 144.563 292.828 148.348 292.904 148.452C292.929 148.504 295.258 146.96 295.284 147.012C295.359 147.168 292.088 152.857 292.164 153.013C292.189 153.091 294.643 151.417 294.694 151.495C294.769 151.651 290.921 157.497 291.022 157.653C291.072 157.731 293.727 155.927 293.777 156.005C293.853 156.135 289.926 160.731 290.002 160.861C290.052 160.939 292.882 159.029 292.908 159.107C292.983 159.237 289.005 163.208 289.08 163.312C289.131 163.39 292.086 161.402 292.136 161.48C292.237 161.636 287.434 166.834 287.51 166.99C287.56 167.068 290.766 164.923 290.816 165.001C290.942 165.235 284.288 172.652 284.414 172.886C284.465 172.99 288.171 170.479 288.222 170.583C288.373 170.843 279.74 179.386 279.891 179.646C279.967 179.776 284.525 176.69 284.6 176.794C284.777 177.106 274.113 186.123 274.29 186.435C274.365 186.591 280.201 182.667 280.276 182.823C280.428 183.11 269.985 190.407 270.136 190.693C270.237 190.875 277.274 186.14 277.375 186.322C277.552 186.635 265.556 194.874 265.732 195.186C265.884 195.446 272.369 190.843 272.521 191.103" stroke="#1B1B1B" stroke-width="4.31951" stroke-linecap="round" stroke-linejoin="round"/>
<path d="M39.3185 81.0057C39.7975 81.8381 65.1159 64.3142 65.5949 65.1727C66.1747 66.1872 26.8466 89.4285 27.4264 90.443C27.5777 90.7292 33.4372 86.4667 33.5884 86.7268C33.8153 87.143 18.5917 98.5954 18.8186 99.0116C18.9194 99.1677 25.0302 95.0608 25.1059 95.2169C25.2572 95.4771 16.5722 103.316 16.7234 103.577C16.799 103.707 17.8251 102.74 17.9007 102.87C18.0016 103.052 12.194 107.992 12.2949 108.174C12.3704 108.278 16.6029 105.427 16.6534 105.531C16.7543 105.713 10.8713 110.601 10.9721 110.757C11.0225 110.861 11.4978 110.312 11.5483 110.416C11.6239 110.546 9.15344 115.529 9.22906 115.659C9.27945 115.737 10.6064 114.692 10.6569 114.796C10.7325 114.926 6.82871 118.714 6.90425 118.818C6.95464 118.896 10.1102 116.777 10.1355 116.855C10.2111 116.985 5.98142 120.879 6.05704 121.009C6.10743 121.087 9.11274 119.046 9.16313 119.124C9.23882 119.281 4.91111 124.034 5.01189 124.19C5.06228 124.268 7.86718 122.359 7.91757 122.437C7.99326 122.593 3.91784 127.866 3.99353 128.022C4.04392 128.101 6.62345 126.348 6.67377 126.4C6.72423 126.504 3.42233 130.212 3.49795 130.343C3.52325 130.421 6.05275 128.72 6.10307 128.772C6.17869 128.902 2.85466 133.679 2.93028 133.809C2.95551 133.861 5.33468 132.265 5.38507 132.344C5.46069 132.474 2.4394 137.875 2.51509 138.031C2.54032 138.083 4.81937 136.566 4.8446 136.618C4.92022 136.748 2.32498 141.965 2.37551 142.095C2.40074 142.147 4.57963 140.683 4.60493 140.761C4.68055 140.891 2.48711 146.264 2.56273 146.394C2.58796 146.446 4.64157 145.059 4.6668 145.111C4.74242 145.241 2.95008 150.483 3.02569 150.613C3.05092 150.665 5.05445 149.305 5.07968 149.357C5.15523 149.461 3.63792 154.363 3.71354 154.493C3.73877 154.545 5.69228 153.237 5.71751 153.289C5.7679 153.367 4.04404 156.081 4.09443 156.159C4.11966 156.211 6.04801 154.903 6.09833 154.955C6.14872 155.033 4.47493 157.695 4.50023 157.774C4.52545 157.826 6.45385 156.544 6.47908 156.596C6.52947 156.674 5.0829 159.856 5.13329 159.934C5.15852 159.986 7.06182 158.704 7.11214 158.756C7.16253 158.834 5.76569 161.86 5.81608 161.938C5.84131 161.99 7.71957 160.709 7.76989 160.761C7.82035 160.865 7.13015 165.426 7.18061 165.53C7.20584 165.582 9.08416 164.326 9.10932 164.352C9.15971 164.43 7.88758 167.195 7.9379 167.247C7.96313 167.299 9.81635 166.044 9.86667 166.096C9.91713 166.2 9.35087 170.214 9.40133 170.318C9.42656 170.37 11.2798 169.114 11.3051 169.166C11.3555 169.244 10.4858 172.399 10.5111 172.477C10.5363 172.529 12.3896 171.274 12.4148 171.326C12.4652 171.404 11.9479 174.974 11.9983 175.052C12.0235 175.104 13.8768 173.849 13.9021 173.901C13.9524 173.979 13.8628 177.965 13.9133 178.069C13.9385 178.121 15.7918 176.866 15.8421 176.918C15.8674 176.996 15.1474 179.838 15.1727 179.89C15.1979 179.942 17.0763 178.686 17.1015 178.738C17.152 178.842 17.4389 182.906 17.4894 183.01C17.5146 183.062 19.3929 181.806 19.4181 181.832C19.4684 181.91 19.1004 184.985 19.1507 185.037C19.176 185.089 21.0542 183.808 21.1046 183.86C21.1298 183.912 20.3587 186.415 20.384 186.467C20.4092 186.519 22.3125 185.237 22.3378 185.289C22.363 185.341 21.5919 187.818 21.6422 187.87C21.6674 187.922 23.5708 186.641 23.596 186.693C23.6464 186.771 24.0325 190.391 24.0829 190.469C24.1081 190.521 26.0365 189.213 26.0618 189.265C26.1122 189.343 26.5481 192.859 26.5986 192.963C26.6238 193.015 28.5773 191.707 28.6025 191.759C28.6277 191.811 28.3844 194.6 28.4096 194.652C28.4348 194.704 30.3883 193.396 30.4135 193.448C30.4388 193.526 30.4216 196.444 30.4468 196.496C30.4721 196.548 32.4505 195.214 32.4758 195.266C32.5011 195.344 32.8601 198.235 32.8854 198.313C32.9107 198.365 34.1878 197.45 34.2131 197.528C34.2383 197.58 34.2941 199.664 34.3193 199.716C34.3446 199.768 36.348 198.408 36.3983 198.46C36.4236 198.512 35.4255 200.547 35.4507 200.599C35.4759 200.651 37.5046 199.291 37.5298 199.343C37.5802 199.421 37.9646 202.442 37.9899 202.494C38.0151 202.546 40.0437 201.186 40.094 201.238C40.1444 201.316 40.6544 204.362 40.7047 204.414C40.7299 204.466 42.8086 203.08 42.8339 203.132C42.8843 203.21 43.9722 206.568 44.0226 206.646C44.0478 206.698 46.1515 205.285 46.1768 205.338C46.202 205.39 46.3598 208.099 46.385 208.151C46.4103 208.203 48.539 206.764 48.5893 206.816C48.6146 206.868 48.1692 209.188 48.1944 209.24C48.2197 209.292 50.3484 207.853 50.3987 207.905C50.4491 207.983 51.3103 211.003 51.3355 211.055C51.3608 211.107 53.5396 209.642 53.5649 209.694C53.5901 209.746 52.8682 211.885 52.8934 211.937C52.9187 211.989 55.0976 210.524 55.1228 210.576C55.1732 210.654 56.5114 213.803 56.5617 213.881C56.587 213.933 58.8159 212.442 58.8412 212.494C58.8664 212.546 59.0741 215.125 59.1244 215.177C59.1747 215.229 61.4287 213.711 61.4539 213.763C61.4792 213.815 61.6867 216.342 61.7119 216.394C61.7372 216.446 64.0162 214.929 64.0414 214.981C64.0918 215.059 65.4547 218.025 65.48 218.103C65.5052 218.155 67.8344 216.612 67.8596 216.664C67.8848 216.716 67.5396 218.958 67.5648 219.01C67.5901 219.062 69.9443 217.492 69.9946 217.544C70.0449 217.596 70.6541 220.226 70.7045 220.278C70.7548 220.33 73.1089 218.734 73.1593 218.812C73.1846 218.864 72.7388 221.054 72.7641 221.106C72.7893 221.158 75.2186 219.536 75.2689 219.588C75.3193 219.666 76.6315 222.45 76.6819 222.528C76.7072 222.606 79.1615 220.932 79.2119 221.01C79.2371 221.062 78.5151 223.148 78.5403 223.2C78.5656 223.279 81.07 221.578 81.0953 221.656C81.1205 221.708 80.5493 223.846 80.5745 223.898C80.5998 223.976 83.1042 222.276 83.1295 222.354C83.1547 222.406 83.412 224.803 83.4373 224.855C83.4876 224.933 86.0421 223.206 86.0673 223.258C86.0926 223.31 85.9732 225.577 85.9985 225.629C86.0488 225.707 88.6034 223.981 88.6286 224.033C88.6538 224.085 88.5595 226.352 88.5848 226.404C88.6352 226.482 91.2397 224.703 91.2901 224.781C91.3154 224.833 91.7979 226.994 91.8231 227.046C91.8735 227.124 92.424 226.576 92.4744 226.654C92.4996 226.706 94.0833 227.848 94.1086 227.9C94.1589 227.978 96.8386 226.147 96.889 226.225C96.9143 226.277 95.9412 228.312 95.9664 228.364C96.0168 228.442 98.6965 226.611 98.7469 226.689C98.7721 226.741 98.2008 228.879 98.226 228.905C98.2764 228.983 101.031 227.126 101.082 227.178C101.107 227.23 101.414 229.548 101.439 229.6C101.49 229.678 104.244 227.794 104.295 227.872C104.345 227.95 106.309 230.524 106.36 230.602C106.41 230.68 109.265 228.745 109.29 228.823C109.315 228.875 110.074 231.218 110.1 231.296C110.15 231.374 113.08 229.386 113.131 229.464C113.156 229.516 112.459 231.628 112.509 231.68C112.56 231.758 115.515 229.77 115.54 229.848C115.566 229.9 115.546 232.115 115.572 232.167C115.622 232.245 118.652 230.204 118.703 230.282C118.728 230.36 120.315 232.753 120.366 232.805C120.416 232.883 123.546 230.764 123.597 230.868C123.622 230.92 123.302 233.084 123.327 233.136C123.377 233.214 126.508 231.095 126.558 231.173C126.583 231.225 126.891 233.439 126.916 233.491C126.966 233.569 130.222 231.398 130.272 231.476C130.323 231.554 133.189 233.786 133.239 233.864C133.29 233.942 135.919 232.138 135.97 232.216C135.995 232.268 137.455 234.166 137.481 234.244C137.531 234.348 141.012 231.994 141.062 232.072C141.088 232.124 140.065 234.289 140.09 234.341C140.141 234.445 143.647 232.065 143.697 232.169C143.748 232.247 146.313 234.402 146.363 234.48C146.413 234.584 150.095 232.099 150.145 232.203C150.171 232.255 151.481 234.414 151.506 234.466C151.557 234.57 155.363 232.007 155.414 232.111C155.464 232.215 158.882 234.16 158.932 234.264C158.983 234.368 163.04 231.647 163.09 231.752C163.116 231.804 163.172 233.992 163.197 234.044C163.247 234.148 167.455 231.323 167.505 231.453C167.556 231.583 172.4 232.221 172.45 232.325C172.526 232.456 172.575 232.091 172.651 232.195C172.676 232.247 175.136 232.917 175.187 232.969C175.262 233.099 179.971 229.934 180.021 230.038C180.072 230.116 182.885 231.411 182.91 231.49C182.986 231.62 186.742 229.004 186.818 229.134C186.843 229.212 189.181 230.821 189.231 230.873C189.307 231.029 194.892 227.263 194.968 227.419C194.993 227.471 194.372 229.817 194.397 229.869C194.498 230.025 200.509 225.971 200.584 226.127C200.635 226.205 204.326 227.263 204.376 227.367C204.477 227.549 208.433 224.673 208.534 224.855C208.685 225.115 219.69 221.412 219.841 221.672C219.992 221.932 220.992 220.627 221.118 220.887C221.295 221.199 233.927 216.475 234.104 216.788C234.583 217.646 256.094 202.399 256.573 203.231" stroke="#1B1B1B" stroke-width="4.31951" stroke-linecap="round" stroke-linejoin="round"/>
<path d="M68.1809 66.2347C68.3826 66.5728 75.3688 61.4215 75.5705 61.7857" stroke="#1B1B1B" stroke-width="4.31951" stroke-linecap="round" stroke-linejoin="round"/>
<path d="M98.8984 3.28701C98.8984 3.28701 100.126 2.50211 100.151 2.52809C100.226 2.6842 96.8295 8.32081 96.9051 8.45087C96.9807 8.58093 101.388 5.59898 101.439 5.70306C101.54 5.91121 95.3092 12.1026 95.4101 12.3107C95.4605 12.3888 98.4658 10.3746 98.5162 10.4526C98.5918 10.5826 94.2882 14.9451 94.3638 15.0752C94.4142 15.1532 97.4195 13.1129 97.4699 13.217C97.5708 13.3991 92.3694 19.8222 92.4703 20.0043C92.5207 20.0823 95.5259 18.0421 95.5763 18.1201C95.6519 18.2501 91.5477 22.1171 91.5982 22.2472C91.6486 22.3252 94.6538 20.285 94.7042 20.363C94.805 20.519 90.0774 25.8466 90.1531 26.0027C90.2035 26.0807 93.2088 24.0405 93.2591 24.1185C93.36 24.3006 88.358 30.2281 88.4589 30.4102C88.5092 30.4883 91.5146 28.448 91.5649 28.526C91.6658 28.7081 86.6388 34.6618 86.7396 34.8439C86.79 34.9219 89.7953 32.8816 89.8457 32.9597C89.9213 33.0897 86.5709 37.3975 86.6465 37.5276C86.6969 37.6056 86.7464 37.371 86.7717 37.4491C86.8474 37.5791 83.5744 42.6943 83.65 42.8244C83.7004 42.9024 86.7307 40.8621 86.756 40.9402C86.8316 41.0702 82.4282 45.6414 82.5038 45.7715C82.5542 45.8495 85.5846 43.8092 85.635 43.8872C85.7358 44.0693 80.5344 50.4663 80.6353 50.6484C80.6857 50.7264 83.716 48.6861 83.7664 48.7641C83.8169 48.8682 81.2688 52.9915 81.3192 53.0955C81.3696 53.1736 82.2708 52.4156 82.3212 52.4936C82.422 52.6497 77.4948 58.3946 77.5957 58.5767C77.6461 58.6547 80.6764 56.6144 80.7268 56.6924" stroke="#1B1B1B" stroke-width="4.31951" stroke-linecap="round" stroke-linejoin="round"/>
<path d="M123.956 101.436C124.031 101.566 129.09 98.1652 129.166 98.2952C129.267 98.4513 125.043 104.533 125.119 104.715C125.219 104.897 131.956 100.346 132.057 100.528C132.158 100.684 127.028 105.57 127.129 105.726C127.204 105.856 132.263 102.455 132.339 102.585" stroke="#1B1B1B" stroke-width="4.31951" stroke-linecap="round" stroke-linejoin="round"/>
<path d="M167.955 101.342C168.03 101.472 173.089 98.0714 173.165 98.2015C173.266 98.3575 169.067 104.439 169.143 104.595C169.244 104.777 175.955 100.252 176.056 100.408C176.132 100.564 171.027 105.45 171.127 105.606C171.203 105.736 176.262 102.336 176.338 102.466" stroke="#1B1B1B" stroke-width="4.31951" stroke-linecap="round" stroke-linejoin="round"/>
<path d="M146.697 161.144C146.697 161.144 151.406 158.136 151.482 158.266C151.582 158.422 147.584 164.373 147.66 164.555C147.736 164.737 153.746 160.682 153.822 160.839C153.898 160.995 149.042 165.359 149.118 165.515C149.193 165.645 153.826 162.506 153.902 162.636" stroke="#1B1B1B" stroke-width="4.31951" stroke-linecap="round" stroke-linejoin="round"/>
<path d="M38.6672 137.698C38.6672 137.698 41.1468 136.128 41.1721 136.18C41.2225 136.258 43.5622 138.623 43.6126 138.701C43.6631 138.805 47.7703 136.032 47.846 136.162C47.8712 136.214 48.5552 138.635 48.5804 138.687C48.6309 138.791 52.7381 136.019 52.8138 136.149C52.839 136.201 52.0928 138.626 52.1431 138.678C52.1936 138.782 56.3009 136.009 56.3765 136.139C56.4269 136.217 58.4154 138.583 58.4658 138.661C58.5162 138.765 62.6234 135.992 62.6991 136.122C62.7243 136.174 61.3258 138.601 61.3761 138.653C61.4266 138.757 65.5339 135.984 65.6095 136.114C65.6347 136.166 66.1682 138.588 66.2185 138.64C66.269 138.744 70.3763 135.971 70.4519 136.101C70.4772 136.179 68.7273 138.581 68.7776 138.633C68.828 138.685 71.2072 137.089 71.2575 137.141" stroke="#1B1B1B" stroke-width="4.31951" stroke-linecap="round" stroke-linejoin="round"/>
<path d="M38.7092 152.026C38.7092 152.026 41.1888 150.456 41.2141 150.508C41.2645 150.586 43.6042 152.951 43.6546 153.029C43.705 153.133 47.8123 150.36 47.888 150.49C47.9132 150.542 48.5972 152.964 48.6224 153.016C48.6728 153.12 52.7801 150.347 52.8558 150.477C52.881 150.529 52.1348 152.954 52.1851 153.006C52.2356 153.11 56.3428 150.337 56.4185 150.467C56.4689 150.545 58.4574 152.911 58.5078 152.989C58.5582 153.093 62.6654 150.32 62.7411 150.45C62.7663 150.502 61.3678 152.929 61.4181 152.981C61.4686 153.085 65.5759 150.312 65.6515 150.442C65.6767 150.494 66.2102 152.916 66.2605 152.968C66.311 153.072 70.4182 150.299 70.4939 150.429C70.5192 150.507 68.7693 152.909 68.8196 152.961C68.8699 153.013 71.2492 151.417 71.2995 151.469" stroke="#1B1B1B" stroke-width="4.31951" stroke-linecap="round" stroke-linejoin="round"/>
<path d="M231.86 137.178C231.86 137.178 234.339 135.608 234.364 135.66C234.415 135.738 236.755 138.102 236.805 138.18C236.855 138.284 240.963 135.512 241.038 135.642C241.064 135.694 241.748 138.115 241.773 138.167C241.823 138.271 245.931 135.498 246.006 135.628C246.031 135.68 245.285 138.105 245.335 138.157C245.386 138.261 249.493 135.489 249.569 135.619C249.619 135.697 251.608 138.062 251.658 138.14C251.709 138.244 255.816 135.472 255.891 135.602C255.917 135.654 254.518 138.08 254.569 138.132C254.619 138.236 258.726 135.464 258.802 135.594C258.827 135.646 259.361 138.067 259.411 138.119C259.461 138.223 263.569 135.451 263.644 135.581C263.67 135.659 261.92 138.06 261.97 138.112C262.02 138.164 264.4 136.569 264.45 136.621" stroke="#1B1B1B" stroke-width="4.31951" stroke-linecap="round" stroke-linejoin="round"/>
<path d="M231.899 151.501C231.899 151.501 234.378 149.931 234.404 149.983C234.454 150.061 236.794 152.426 236.844 152.504C236.894 152.608 241.002 149.835 241.077 149.965C241.103 150.017 241.787 152.438 241.812 152.49C241.862 152.594 245.97 149.821 246.045 149.952C246.07 150.004 245.324 152.429 245.375 152.481C245.425 152.585 249.532 149.812 249.608 149.942C249.658 150.02 251.647 152.385 251.697 152.463C251.748 152.568 255.855 149.795 255.931 149.925C255.956 149.977 254.557 152.404 254.608 152.456C254.658 152.56 258.765 149.787 258.841 149.917C258.866 149.969 259.4 152.39 259.45 152.442C259.5 152.547 263.608 149.774 263.683 149.904C263.709 149.982 261.959 152.384 262.009 152.436C262.059 152.488 264.439 150.892 264.489 150.944" stroke="#1B1B1B" stroke-width="4.31951" stroke-linecap="round" stroke-linejoin="round"/>
</svg>
