<?xml version="1.0" encoding="UTF-8"?>
<svg id="_레이어_7" data-name="레이어 7" xmlns="http://www.w3.org/2000/svg" width="96" height="104" viewBox="0 0 96 104">
  <g>
    <polygon points="36.94 4.03 30.53 5.72 24.77 8.99 18.73 11.99 14.51 17.24 9.69 21.92 6.89 28.02 3.4 33.83 3.11 40.64 1.05 47.13 .92 53.94 2.54 60.56 5.12 66.15 8.03 71.47 10.61 77.05 14.74 81.59 19.8 85.04 25.22 88.82 24.33 95.66 24.34 101.98 29.7 98.29 34.98 94.28 40.75 95.92 47.39 94.76 53.86 95.35 60.28 94.28 66.25 91.19 72.54 88.94 78.31 85.45 83.48 81.06 86.89 75.16 91.38 69.98 93.21 63.41 93.92 56.73 95.22 50.2 94.69 43.57 94.13 36.88 92.54 30.27 88.1 25 85.11 18.98 80.07 14.54 75.7 9.22 69.51 6.36 63.19 4.03 56.68 2.42 50.02 1.83 43.25 1.38 36.94 4.03" fill="#fff"/>
    <polygon points="36.94 4.03 30.53 5.72 24.77 8.99 18.73 11.99 14.51 17.24 9.69 21.92 6.89 28.02 3.4 33.83 3.11 40.64 1.05 47.13 .92 53.94 2.54 60.56 5.12 66.15 8.03 71.47 10.61 77.05 14.74 81.59 19.8 85.04 25.22 88.82 24.33 95.66 24.34 101.98 29.7 98.29 34.98 94.28 40.75 95.92 47.39 94.76 53.86 95.35 60.28 94.28 66.25 91.19 72.54 88.94 78.31 85.45 83.48 81.06 86.89 75.16 91.38 69.98 93.21 63.41 93.92 56.73 95.22 50.2 94.69 43.57 94.13 36.88 92.54 30.27 88.1 25 85.11 18.98 80.07 14.54 75.7 9.22 69.51 6.36 63.19 4.03 56.68 2.42 50.02 1.83 43.25 1.38 36.94 4.03" fill="none" stroke="#000" stroke-miterlimit="10" stroke-width="2.5"/>
  </g>
  <g>
    <path d="M51.9,54.23c-.33-.08-.48.01-.84-.04-.34-.05-.68.1-1.04.08s-.68-.54-1.04-.53-.68.31-1.04.34-.72-.19-1.08-.14-.64.4-.99.47-.65.25-1,.33-.72-.03-1.06.07-.67.18-1.01.3-.69.14-1.02.27-.64.3-.96.43-.5.59-.82.74-.64.27-.95.42-.66.24-.97.41-.78.04-1.08.22c-.3.18-.35.74-.64.92s-.68.21-.96.4-.68.23-.96.43-.52.46-.79.67-.46.53-.72.75-.5.48-.75.71-.62.35-.86.59-.54.45-.77.7-.56.44-.78.7-.43.56-.64.82-.01.85-.2,1.13-.47.51-.64.8-.32.61-.47.91-.7.45-.83.76c-.13.33.21.82.12,1.14-.1.34-.6.57-.66.9-.06.35.02.72,0,1.06-.01.35.16.69.2,1.02s.2.64.31.96.08.71.25,1c.18.3.24.72.47.97s.84.07,1.13.27.51.37.83.52.49.53.83.64c.32.1.67.09,1.01.16.33.07.64.25.99.29s.68.03,1.03.04.68.16,1.03.15.66-.35,1-.39.7.12,1.04.07.7.01,1.04-.06.63-.32.97-.41.58-.43.92-.53.65-.18.98-.29.73.02,1.05-.1.68-.15,1-.29.7-.12,1.02-.27.41-.73.72-.89.79.03,1.1-.13.59-.37.89-.54c.3-.18.42-.62.71-.8s.68-.22.96-.41.48-.5.76-.7.44-.55.7-.76.65-.28.91-.5.65-.3.9-.53.54-.44.78-.68.32-.65.55-.9.65-.35.87-.6.45-.54.65-.81.44-.55.63-.83.24-.68.41-.96.33-.61.48-.91c.16-.31.34-.61.46-.92.13-.32-.06-.75.03-1.07.1-.34.68-.54.74-.87.06-.34-.27-.73-.25-1.06.02-.35.23-.69.2-1.02s-.18-.67-.28-.99c-.09-.51-.34-.48-.41-1s.22-.55.15-1.07-.07-.52-.14-1.03,0-.53-.07-1.04.04-.53-.03-1.05-.36-.48-.42-1,.11-.54.04-1.06-.18-.5-.25-1.02-.18-.5-.25-1.02.23-.56.17-1.07-.33-.48-.39-1,.19-.55.13-1.07-.42-.47-.48-.99-.01-.52-.08-1.04.36-.57.29-1.09-.07-.52-.14-1.04-.25-.5-.31-1.01-.1-.51-.17-1.03-.16-.5-.23-1.02-.18-.5-.25-1.02.04-.53-.03-1.05.25-.56.19-1.09-.09-.52-.16-1.04-.28-.47-.34-.97-.28-.47-.35-.97.16-.53.1-1.03-.07-.5-.13-.99.03-.51-.03-1.01-.03-.51-.09-1.01-.53-.44-.59-.94.08-.52.01-1.02-.19-.48-.26-.99.29-.55.22-1.05.04-.52-.02-1.02.01-.51-.05-1.01-.52-.44-.59-.94-.09-.5-.15-1,.22-.54.15-1.04.2-.69-.19-1.01c-.37-.3-.46.27-.94.33s-.48.08-.95.14-.54-.4-1.02-.34-.72-.06-1,.33c-.3.41.11.57.17,1.07s-.03.52.03,1.03.28.48.35.99.07.51.13,1.02-.18.54-.12,1.05.29.48.36.99.19.49.25,1-.18.54-.12,1.05.34.47.41.98.11.5.18,1.01-.45.58-.38,1.09.39.47.46.98.26.49.33,1-.42.57-.36,1.08.49.45.56.96-.27.55-.2,1.06.46.46.53.97-.14.54-.07,1.05-.06.53,0,1.04.26.48.33.99.03.52.09,1.03-.24.55-.17,1.06.15.5.22,1.01.07.51.13,1.02.35.48.41.99.03.51.1,1.02-.23.55-.16,1.06.22.49.29,1,.19.49.26,1.01.1.51.16,1.02,0,.52.07,1.03-.19.55-.12,1.06.1.51.17,1.02.03.52.09,1.03.25.46.14.96Z"/>
    <path d="M72.75,39.7c-.02-.17-.15-.49-.24-.96-.06-.28.1-.66.02-1.03-.07-.3-.28-.59-.38-.94-.08-.31-.06-.66-.17-.99-.1-.31-.33-.58-.44-.91s-.27-.6-.39-.92-.16-.65-.3-.96-.27-.61-.42-.91-.27-.62-.43-.91-.35-.57-.53-.86-.5-.47-.69-.74-.39-.54-.6-.79-.41-.53-.64-.76-.38-.58-.64-.79-.65-.25-.93-.43-.52-.42-.82-.57-.58-.36-.9-.47c-.33-.11-.66-.2-.98-.31s-.67-.19-.98-.31-.65-.25-.96-.38-.6-.35-.91-.49-.61-.32-.91-.47-.59-.36-.89-.52-.61-.32-.9-.49-.72-.15-1-.32c-.3-.18-.57-.41-.85-.59-.3-.19-.6-.37-.87-.56-.3-.2-.46-.56-.73-.75-.3-.21-.7-.23-.96-.43-.3-.22-.45-.59-.69-.78-.31-.25-.61-.43-.82-.61-.49-.42-.68-1.14-.76-.64s.11.5.17,1.02-.02.53.05,1.04-.03.53.04,1.05.31.49.38,1.01.06.52.12,1.04-.06.54,0,1.05.12.51.18,1.03,0,.53.08,1.05.08.52.15,1.04,0,.53.07,1.04.21.5.28,1.02-.02.53.05,1.05.01.53.08,1.05.11.52.22,1.03.24.31.71.78c.22.21.47.42.83.63.28.16.55.41.93.52.31.1.66.22,1.06.27.35,0,.7.06,1.03.06.35,0,.69-.22,1.03-.22.35,0,.69.19,1.02.2.36.01.7.01,1.02.03.36.02.71-.1,1.03-.07.36.03.69.15,1.01.2.36.05.7.04,1.02.1.35.07.71.06,1.02.14.35.09.66.27.96.38.34.12.62.34.91.48.33.16.6.35.86.53.29.21.61.34.84.58.24.25.37.58.55.86s.35.57.5.88.27.61.39.93c.11.28.29.56.38.87s.19.6.28.91.16.62.25.92c.1.32.34.57.45.85.13.33.07.73.23.95.22.3.55.36.85.36.32,0,.55-.23.68-.69.08-.31.1-.69.13-1.09.02-.35-.1-.72-.1-1.09s.11-.76.09-1.1c-.03-.44-.12-.82-.14-1.08Z"/>
  </g>
</svg>