<?xml version="1.0" encoding="UTF-8"?>
<svg id="_레이어_7" data-name="레이어 7" xmlns="http://www.w3.org/2000/svg" width="237.33" height="196.74" viewBox="0 0 237.33 196.74">
  <path d="M52.78,2.35l-.79,5.92-6.6-1.52c-.39-.09-.7.32-.51.67l4.15,7.46-5.95,1.85c-.39.12-.44.65-.08.84l5.48,2.99-2.36,4.73c-.19.38.2.8.59.63l7.04-3.02.5,6.44c.03.42.56.58.82.25l3.95-4.94,5.1,4.08c.3.24.75.03.75-.36v-7.27l7.19-1c.39-.05.54-.54.24-.8l-5.12-4.43,3.39-3.02c.29-.26.15-.74-.24-.8l-7.21-1.03.99-6.93c.06-.43-.45-.7-.77-.41l-5.49,4.99-4.23-5.55c-.25-.33-.77-.19-.82.22Z" fill="#f6ffa4" stroke="#000" stroke-linecap="round" stroke-linejoin="round"/>
  <polygon points="235.46 166.63 227.64 166.62 233.14 160.11 230.51 157.92 224.53 165.01 221.49 157.32 218.08 159.11 221.04 166.61 212.74 166.6 212.23 170.32 220.04 170.33 214.55 176.85 217.17 179.04 223.15 171.95 226.2 179.64 229.61 177.85 226.64 170.35 234.94 170.36 235.46 166.63" fill="#f6ffa4" stroke="#000" stroke-miterlimit="10"/>
  <g>
    <path d="M36.99,91.07s3.31-9.69-5.77-14.36c-1.89-.98-3.73-1.16-5.43-.86l1.62,2.29c1.77-.15,3.63.46,5.33,2.52,5.12,6.2-.8,12.72-.8,12.72l2.19,2.65c2.16-2.65,2.86-4.97,2.86-4.97Z" fill="#ffabe3" stroke="#000" stroke-linecap="round" stroke-linejoin="round"/>
    <path d="M27.26,78.23c-1.61-2.77-3.75-4.57-5.75-5.73-3.65-2.1-8.15-2.11-11.89-.17-1.46.76-3.02,1.82-4.49,3.3-4.74,4.79-3.58,12.52-3.58,12.52l2.83.27c-1.01-4.38,1.24-7.98,1.24-7.98,0,0,6.32-11.3,14.79-5.25,8.47,6.05,2.6,12.63,2.6,12.63,0,0-2.68,3.08-4.38,1.01-.85-1.03-.75-2.09-.67-2.92.09-.94,1.75-3.08,2.25-3.6.7-.72,2.07-2.05,3.77-3.02l-1.65-2.17c-2.52,1.42-4.49,3.59-5.58,4.95-.96,1.2-1.66,2.61-1.92,4.13-.28,1.64-.11,3.68,1.64,5.28,3.5,3.19,8.16-.65,8.16-.65,0,0,6.72-5.55,2.63-12.61Z" fill="#ffabe3" stroke="#000" stroke-linecap="round" stroke-linejoin="round"/>
  </g>
  <g>
    <polygon points="148.99 85.32 147.58 83.26 146.72 80.95 146.14 78.5 144.62 76.51 143.39 74.37 142.51 72.07 141.5 69.83 140.28 67.69 139.31 65.42 137.95 63.35 136.98 61.09 136.17 58.76 134.95 56.61 134.55 54.07 133.11 52.03 131.96 50.19 131.39 52.19 130.08 54.21 129.41 56.51 128.29 58.61 127.53 60.88 125.95 62.78 124.83 64.89 124.12 67.17 123.51 69.5 122.76 71.77 121.16 73.66 120.11 75.8 119.69 78.22 118.51 80.3 117.23 82.35 116.49 84.62 114.19 84.73 111.95 85.52 109.62 85.61 107.37 86.2 105.1 86.7 102.81 87.05 100.48 87.23 98.25 87.91 95.96 88.28 93.69 88.79 91.32 88.92 89.28 90.06 86.98 90.28 84.6 91.51 83.76 89.1 81.99 87.49 81.08 85.28 79.06 83.85 77.93 81.79 76.66 79.82 75.07 78.08 74.37 75.72 73.17 73.71 71.32 72.16 70.48 69.89 68.65 68.32 67.5 66.27 65.95 64.5 64.71 62.75 63.87 64.73 62.93 66.89 62.43 69.18 62.39 71.59 61.74 73.84 61.4 76.17 60.62 78.38 59.4 80.47 58.78 82.73 58.18 84.99 58.14 87.4 57.15 89.56 56.25 91.73 55.95 94.08 55.43 96.36 54.86 98.64 54.3 100.91 53.26 103.06 52.94 105.43 50.91 106.79 48.91 108.06 47.1 109.6 44.6 110.15 42.7 111.58 40.81 113.03 39.24 114.87 37.61 116.61 35.35 117.63 33.9 119.56 32.24 121.25 30.63 122.99 28.88 124.6 27.6 126.62 25.96 128.33 24.53 130.22 23.13 132.12 21.48 133.88 20.26 135.92 19.42 138.17 18.27 140.25 17.39 142.46 16.47 144.66 16.15 147.04 15.53 149.32 15.34 151.68 15.16 154.03 14.49 156.4 15.59 158.7 15.23 161.14 16.39 163.29 16.48 165.78 17.88 167.8 19 169.9 19.8 172.21 21.4 174.02 22.44 176.29 24.14 178.03 26.2 179.37 28.25 180.64 30.11 182.14 31.92 183.72 33.84 185.2 36.09 186.11 38.32 187.01 40.54 187.9 42.43 189.64 44.83 190.1 47.1 190.9 49.55 191.07 51.69 192.35 54.12 192.54 56.36 193.56 58.72 194.1 61.23 193.65 63.52 194.64 65.98 194.24 68.33 194.91 70.73 195.14 73.14 195.07 75.53 195.44 77.94 195.37 80.35 195.16 82.74 195.01 85.15 194.98 87.57 195.34 89.92 194.38 92.39 195.11 94.71 194.09 97.13 194.11 99.52 193.84 101.96 193.9 104.27 193.06 106.57 192.28 108.95 191.97 111.41 191.94 113.74 191.32 116.09 190.79 118.35 189.89 120.81 189.76 123.14 189.15 125.22 187.71 127.43 186.74 129.8 186.26 132.11 185.58 134.21 184.33 136.6 183.87 139.02 183.4 141.12 182.18 143.19 180.93 145.47 180.13 147.58 178.96 149.85 178.12 152.09 177.18 153.92 175.52 156.15 174.58 158.29 173.45 160.37 172.23 162.22 170.65 163.98 168.98 166.19 167.94 167.98 166.31 170.17 165.2 171.47 162.99 173.72 161.93 175.59 160.4 176.84 158.23 178.92 156.91 180.74 155.3 182.47 153.61 184.02 151.74 184.96 149.43 186.76 147.75 187.99 145.67 188.57 143.22 189.78 141.17 191.04 139.13 191.8 136.86 193.12 134.78 193.31 132.34 194.29 130.11 194.3 127.68 195.05 125.34 194.34 122.94 194.93 120.5 194.8 118.06 194.06 115.74 192.98 113.56 191.94 111.43 191.31 109.08 190.01 107.07 188.29 105.37 186.74 103.6 185.44 101.57 183.58 100.07 182.07 98.17 180.28 96.55 178.31 95.16 175.78 94.72 173.94 93.15 171.84 92.01 169.45 91.52 167.42 90.2 165.27 89.14 163.07 88.19 160.62 88.02 158.49 86.74 156.06 86.59 153.63 86.57 151.35 85.8 148.99 85.32" fill="#eaeaea"/>
    <polygon points="148.99 85.32 147.58 83.26 146.72 80.95 146.14 78.5 144.62 76.51 143.39 74.37 142.51 72.07 141.5 69.83 140.28 67.69 139.31 65.42 137.95 63.35 136.98 61.09 136.17 58.76 134.95 56.61 134.55 54.07 133.11 52.03 131.96 50.19 131.39 52.19 130.08 54.21 129.41 56.51 128.29 58.61 127.53 60.88 125.95 62.78 124.83 64.89 124.12 67.17 123.51 69.5 122.76 71.77 121.16 73.66 120.11 75.8 119.69 78.22 118.51 80.3 117.23 82.35 116.49 84.62 114.19 84.73 111.95 85.52 109.62 85.61 107.37 86.2 105.1 86.7 102.81 87.05 100.48 87.23 98.25 87.91 95.96 88.28 93.69 88.79 91.32 88.92 89.28 90.06 86.98 90.28 84.6 91.51 83.76 89.1 81.99 87.49 81.08 85.28 79.06 83.85 77.93 81.79 76.66 79.82 75.07 78.08 74.37 75.72 73.17 73.71 71.32 72.16 70.48 69.89 68.65 68.32 67.5 66.27 65.95 64.5 64.71 62.75 63.87 64.73 62.93 66.89 62.43 69.18 62.39 71.59 61.74 73.84 61.4 76.17 60.62 78.38 59.4 80.47 58.78 82.73 58.18 84.99 58.14 87.4 57.15 89.56 56.25 91.73 55.95 94.08 55.43 96.36 54.86 98.64 54.3 100.91 53.26 103.06 52.94 105.43 50.91 106.79 48.91 108.06 47.1 109.6 44.6 110.15 42.7 111.58 40.81 113.03 39.24 114.87 37.61 116.61 35.35 117.63 33.9 119.56 32.24 121.25 30.63 122.99 28.88 124.6 27.6 126.62 25.96 128.33 24.53 130.22 23.13 132.12 21.48 133.88 20.26 135.92 19.42 138.17 18.27 140.25 17.39 142.46 16.47 144.66 16.15 147.04 15.53 149.32 15.34 151.68 15.16 154.03 14.49 156.4 15.59 158.7 15.23 161.14 16.39 163.29 16.48 165.78 17.88 167.8 19 169.9 19.8 172.21 21.4 174.02 22.44 176.29 24.14 178.03 26.2 179.37 28.25 180.64 30.11 182.14 31.92 183.72 33.84 185.2 36.09 186.11 38.32 187.01 40.54 187.9 42.43 189.64 44.83 190.1 47.1 190.9 49.55 191.07 51.69 192.35 54.12 192.54 56.36 193.56 58.72 194.1 61.23 193.65 63.52 194.64 65.98 194.24 68.33 194.91 70.73 195.14 73.14 195.07 75.53 195.44 77.94 195.37 80.35 195.16 82.74 195.01 85.15 194.98 87.57 195.34 89.92 194.38 92.39 195.11 94.71 194.09 97.13 194.11 99.52 193.84 101.96 193.9 104.27 193.06 106.57 192.28 108.95 191.97 111.41 191.94 113.74 191.32 116.09 190.79 118.35 189.89 120.81 189.76 123.14 189.15 125.22 187.71 127.43 186.74 129.8 186.26 132.11 185.58 134.21 184.33 136.6 183.87 139.02 183.4 141.12 182.18 143.19 180.93 145.47 180.13 147.58 178.96 149.85 178.12 152.09 177.18 153.92 175.52 156.15 174.58 158.29 173.45 160.37 172.23 162.22 170.65 163.98 168.98 166.19 167.94 167.98 166.31 170.17 165.2 171.47 162.99 173.72 161.93 175.59 160.4 176.84 158.23 178.92 156.91 180.74 155.3 182.47 153.61 184.02 151.74 184.96 149.43 186.76 147.75 187.99 145.67 188.57 143.22 189.78 141.17 191.04 139.13 191.8 136.86 193.12 134.78 193.31 132.34 194.29 130.11 194.3 127.68 195.05 125.34 194.34 122.94 194.93 120.5 194.8 118.06 194.06 115.74 192.98 113.56 191.94 111.43 191.31 109.08 190.01 107.07 188.29 105.37 186.74 103.6 185.44 101.57 183.58 100.07 182.07 98.17 180.28 96.55 178.31 95.16 175.78 94.72 173.94 93.15 171.84 92.01 169.45 91.52 167.42 90.2 165.27 89.14 163.07 88.19 160.62 88.02 158.49 86.74 156.06 86.59 153.63 86.57 151.35 85.8 148.99 85.32" fill="none" stroke="#000" stroke-linecap="round" stroke-linejoin="round" stroke-width="2.5"/>
  </g>
  <path d="M71.35,146.78s-.97-16.94,8.79-19.34,8.32,15.51,8.32,15.51" fill="none" stroke="#000" stroke-linecap="round" stroke-linejoin="round" stroke-width="2.5"/>
  <path d="M123.94,134.29s-.97-16.94,8.79-19.34c9.76-2.4,8.32,15.51,8.32,15.51" fill="none" stroke="#000" stroke-linecap="round" stroke-linejoin="round" stroke-width="2.5"/>
  <circle cx="109.28" cy="160.94" r="2.96"/>
  <line x1="37.57" y1="166.38" x2="58.1" y2="162.71" fill="none" stroke="#000" stroke-linecap="round" stroke-linejoin="round" stroke-width="2"/>
  <line x1="37.57" y1="173.1" x2="58.1" y2="169.42" fill="none" stroke="#000" stroke-linecap="round" stroke-linejoin="round" stroke-width="2"/>
  <line x1="173.41" y1="136.15" x2="152.97" y2="140.28" fill="none" stroke="#000" stroke-linecap="round" stroke-linejoin="round" stroke-width="2"/>
  <line x1="174.2" y1="143.06" x2="153.77" y2="147.19" fill="none" stroke="#000" stroke-linecap="round" stroke-linejoin="round" stroke-width="2"/>
</svg>